[
  {
    "code": "GEC1_1",
    "kind": "chord",
    "family": "GuitarEC",
    "modelType": "chord_model_str",
    "subtype": "strings",
    "bpm": 60,
    "beat": "4/4",
    "bnum": 44,
    "noteCount": 6,
    "midi": "pattern_midis/GEC1_1.mid",
    "notes": [
      {
        "beat": 0,
        "duration": 4.15625,
        "pitch": 31,
        "velocity": 30
      },
      {
        "beat": 0.5,
        "duration": 3.539583444595337,
        "pitch": 33,
        "velocity": 40
      },
      {
        "beat": 1,
        "duration": 1.9583333730697632,
        "pitch": 35,
        "velocity": 50
      },
      {
        "beat": 1.5,
        "duration": 2.558333396911621,
        "pitch": 34,
        "velocity": 28
      },
      {
        "beat": 2,
        "duration": 2.15625,
        "pitch": 36,
        "velocity": 30
      },
      {
        "beat": 3,
        "duration": 1.0604166984558105,
        "pitch": 35,
        "velocity": 30
      }
    ],
    "crc32": 3460515332,
    "midiSize": 97,
    "midiSha1": "91607c2eb587a0ca776c5083cae7fe0779cbfc01"
  },
  {
    "code": "GEC1_10",
    "kind": "chord",
    "family": "GuitarEC",
    "modelType": "chord_model_str",
    "subtype": "strings",
    "bpm": 120,
    "beat": "4/4",
    "bnum": 43,
    "noteCount": 7,
    "midi": "pattern_midis/GEC1_10.mid",
    "notes": [
      {
        "beat": 0,
        "duration": 3,
        "pitch": 31,
        "velocity": 41
      },
      {
        "beat": 1.0020833015441895,
        "duration": 0.34583333134651184,
        "pitch": 35,
        "velocity": 36
      },
      {
        "beat": 1.006250023841858,
        "duration": 0.34166666865348816,
        "pitch": 34,
        "velocity": 35
      },
      {
        "beat": 1.006250023841858,
        "duration": 0.34166666865348816,
        "pitch": 36,
        "velocity": 33
      },
      {
        "beat": 2,
        "duration": 1,
        "pitch": 34,
        "velocity": 50
      },
      {
        "beat": 2,
        "duration": 1,
        "pitch": 36,
        "velocity": 33
      },
      {
        "beat": 2.008333444595337,
        "duration": 0.9916666746139526,
        "pitch": 35,
        "velocity": 35
      }
    ],
    "crc32": 3150282882,
    "midiSize": 102,
    "midiSha1": "0bde25c27eba7aebfc714825053168f1060163d8"
  },
  {
    "code": "GEC1_11",
    "kind": "chord",
    "family": "GuitarEC",
    "modelType": "chord_model_str",
    "subtype": "strings",
    "bpm": 67,
    "beat": "4/4",
    "bnum": 44,
    "noteCount": 7,
    "midi": "pattern_midis/GEC1_11.mid",
    "notes": [
      {
        "beat": 0,
        "duration": 4.15625,
        "pitch": 31,
        "velocity": 30
      },
      {
        "beat": 0.5,
        "duration": 2,
        "pitch": 33,
        "velocity": 30
      },
      {
        "beat": 1,
        "duration": 3,
        "pitch": 35,
        "velocity": 43
      },
      {
        "beat": 1.5,
        "duration": 1.5,
        "pitch": 34,
        "velocity": 28
      },
      {
        "beat": 2.5,
        "duration": 1,
        "pitch": 33,
        "velocity": 30
      },
      {
        "beat": 3,
        "duration": 1,
        "pitch": 34,
        "velocity": 34
      },
      {
        "beat": 3.5,
        "duration": 0.5,
        "pitch": 33,
        "velocity": 30
      }
    ],
    "crc32": 2984204633,
    "midiSize": 107,
    "midiSha1": "229501670a5846bdf580c1f69323c1a4856250ee"
  },
  {
    "code": "GEC1_12",
    "kind": "chord",
    "family": "GuitarEC",
    "modelType": "chord_model_str",
    "subtype": "strings",
    "bpm": 122,
    "beat": "4/4",
    "bnum": 44,
    "noteCount": 23,
    "midi": "pattern_midis/GEC1_12.mid",
    "notes": [
      {
        "beat": 0,
        "duration": 1,
        "pitch": 31,
        "velocity": 41
      },
      {
        "beat": 0.01666666753590107,
        "duration": 0.9833333492279053,
        "pitch": 32,
        "velocity": 28
      },
      {
        "beat": 0.03958333283662796,
        "duration": 0.506250023841858,
        "pitch": 33,
        "velocity": 34
      },
      {
        "beat": 0.06041666492819786,
        "duration": 0.4625000059604645,
        "pitch": 34,
        "velocity": 38
      },
      {
        "beat": 0.0833333358168602,
        "duration": 0.9166666865348816,
        "pitch": 35,
        "velocity": 41
      },
      {
        "beat": 0.10833333432674408,
        "duration": 0.3812499940395355,
        "pitch": 36,
        "velocity": 38
      },
      {
        "beat": 0.5,
        "duration": 0.5,
        "pitch": 36,
        "velocity": 33
      },
      {
        "beat": 0.53125,
        "duration": 0.46875,
        "pitch": 34,
        "velocity": 33
      },
      {
        "beat": 0.5541666746139526,
        "duration": 0.44583332538604736,
        "pitch": 33,
        "velocity": 34
      },
      {
        "beat": 1.5,
        "duration": 0.550000011920929,
        "pitch": 36,
        "velocity": 33
      },
      {
        "beat": 1.5187499523162842,
        "duration": 0.5145833492279053,
        "pitch": 35,
        "velocity": 32
      },
      {
        "beat": 1.537500023841858,
        "duration": 0.4729166626930237,
        "pitch": 34,
        "velocity": 33
      },
      {
        "beat": 1.5666667222976685,
        "duration": 1.4333332777023315,
        "pitch": 33,
        "velocity": 34
      },
      {
        "beat": 1.5854166746139526,
        "duration": 1.4145833253860474,
        "pitch": 32,
        "velocity": 28
      },
      {
        "beat": 2,
        "duration": 1,
        "pitch": 31,
        "velocity": 35
      },
      {
        "beat": 2.0166666507720947,
        "duration": 0.9833333492279053,
        "pitch": 34,
        "velocity": 32
      },
      {
        "beat": 2.035416603088379,
        "duration": 0.9645833373069763,
        "pitch": 35,
        "velocity": 32
      },
      {
        "beat": 2.054166555404663,
        "duration": 0.9458333253860474,
        "pitch": 36,
        "velocity": 30
      },
      {
        "beat": 3.5,
        "duration": 0.5,
        "pitch": 36,
        "velocity": 33
      },
      {
        "beat": 3.518749952316284,
        "duration": 0.481249988079071,
        "pitch": 35,
        "velocity": 32
      },
      {
        "beat": 3.53125,
        "duration": 0.46875,
        "pitch": 34,
        "velocity": 33
      },
      {
        "beat": 3.5479166507720947,
        "duration": 0.4520833194255829,
        "pitch": 33,
        "velocity": 34
      },
      {
        "beat": 3.56458330154419,
        "duration": 0.43541666865348816,
        "pitch": 32,
        "velocity": 28
      }
    ],
    "crc32": 3704854443,
    "midiSize": 215,
    "midiSha1": "d534ad4644c43c9b2be4508be02f0f6275fa5f0e"
  },
  {
    "code": "GEC1_13",
    "kind": "chord",
    "family": "GuitarEC",
    "modelType": "chord_model_str",
    "subtype": "strings",
    "bpm": 70,
    "beat": "4/4",
    "bnum": 44,
    "noteCount": 12,
    "midi": "pattern_midis/GEC1_13.mid",
    "notes": [
      {
        "beat": 0,
        "duration": 1.5208333730697632,
        "pitch": 24,
        "velocity": 30
      },
      {
        "beat": 0,
        "duration": 2,
        "pitch": 31,
        "velocity": 40
      },
      {
        "beat": 0,
        "duration": 2,
        "pitch": 33,
        "velocity": 40
      },
      {
        "beat": 0,
        "duration": 2,
        "pitch": 34,
        "velocity": 40
      },
      {
        "beat": 0,
        "duration": 2,
        "pitch": 35,
        "velocity": 31
      },
      {
        "beat": 0,
        "duration": 2,
        "pitch": 36,
        "velocity": 40
      },
      {
        "beat": 2,
        "duration": 1.5208333730697632,
        "pitch": 24,
        "velocity": 30
      },
      {
        "beat": 2,
        "duration": 2,
        "pitch": 31,
        "velocity": 40
      },
      {
        "beat": 2,
        "duration": 2,
        "pitch": 33,
        "velocity": 33
      },
      {
        "beat": 2,
        "duration": 2,
        "pitch": 34,
        "velocity": 33
      },
      {
        "beat": 2,
        "duration": 2,
        "pitch": 35,
        "velocity": 25
      },
      {
        "beat": 2,
        "duration": 2,
        "pitch": 36,
        "velocity": 33
      }
    ],
    "crc32": 628367433,
    "midiSize": 132,
    "midiSha1": "128161fc2a15132cd399d17342cce36139c08dbb"
  },
  {
    "code": "GEC1_14",
    "kind": "chord",
    "family": "GuitarEC",
    "modelType": "chord_model_str",
    "subtype": "strings",
    "bpm": 70,
    "beat": "4/4",
    "bnum": 44,
    "noteCount": 14,
    "midi": "pattern_midis/GEC1_14.mid",
    "notes": [
      {
        "beat": 0,
        "duration": 0.25,
        "pitch": 24,
        "velocity": 111
      },
      {
        "beat": 0,
        "duration": 2,
        "pitch": 31,
        "velocity": 23
      },
      {
        "beat": 0.01875000074505806,
        "duration": 1.9812500476837158,
        "pitch": 32,
        "velocity": 21
      },
      {
        "beat": 0.0416666679084301,
        "duration": 1.9583333730697632,
        "pitch": 33,
        "velocity": 27
      },
      {
        "beat": 0.06458333134651184,
        "duration": 1.9354166984558105,
        "pitch": 34,
        "velocity": 29
      },
      {
        "beat": 0.0833333358168602,
        "duration": 1.9166666269302368,
        "pitch": 35,
        "velocity": 20
      },
      {
        "beat": 0.10208333283662796,
        "duration": 1.8979166746139526,
        "pitch": 36,
        "velocity": 27
      },
      {
        "beat": 2,
        "duration": 0.25,
        "pitch": 24,
        "velocity": 111
      },
      {
        "beat": 2,
        "duration": 2,
        "pitch": 31,
        "velocity": 23
      },
      {
        "beat": 2.018749952316284,
        "duration": 1.9812500476837158,
        "pitch": 32,
        "velocity": 21
      },
      {
        "beat": 2.0416667461395264,
        "duration": 1.9583333730697632,
        "pitch": 33,
        "velocity": 27
      },
      {
        "beat": 2.06458330154419,
        "duration": 1.9354166984558105,
        "pitch": 34,
        "velocity": 29
      },
      {
        "beat": 2.0833332538604736,
        "duration": 1.9166666269302368,
        "pitch": 35,
        "velocity": 20
      },
      {
        "beat": 2.102083444595337,
        "duration": 1.8979166746139526,
        "pitch": 36,
        "velocity": 27
      }
    ],
    "crc32": 1759525011,
    "midiSize": 144,
    "midiSha1": "bac0bd3cd70556af2631f127df5701a478a7d181"
  },
  {
    "code": "GEC1_15",
    "kind": "chord",
    "family": "GuitarEC",
    "modelType": "chord_model_str",
    "subtype": "strings",
    "bpm": 80,
    "beat": "4/4",
    "bnum": 44,
    "noteCount": 18,
    "midi": "pattern_midis/GEC1_15.mid",
    "notes": [
      {
        "beat": 0,
        "duration": 0.643750011920929,
        "pitch": 31,
        "velocity": 15
      },
      {
        "beat": 0.01666666753590107,
        "duration": 0.6270833611488342,
        "pitch": 32,
        "velocity": 15
      },
      {
        "beat": 0.5,
        "duration": 0.15416666865348816,
        "pitch": 33,
        "velocity": 46
      },
      {
        "beat": 0.5145833492279053,
        "duration": 0.13958333432674408,
        "pitch": 34,
        "velocity": 42
      },
      {
        "beat": 0.53125,
        "duration": 0.12291666865348816,
        "pitch": 35,
        "velocity": 45
      },
      {
        "beat": 0.5479166507720947,
        "duration": 0.10625000298023224,
        "pitch": 36,
        "velocity": 60
      },
      {
        "beat": 1.5,
        "duration": 0.15208333730697632,
        "pitch": 33,
        "velocity": 46
      },
      {
        "beat": 1.5145833492279053,
        "duration": 0.13750000298023224,
        "pitch": 34,
        "velocity": 42
      },
      {
        "beat": 1.53125,
        "duration": 0.12083332985639572,
        "pitch": 35,
        "velocity": 45
      },
      {
        "beat": 1.5479166507720947,
        "duration": 0.1041666641831398,
        "pitch": 36,
        "velocity": 60
      },
      {
        "beat": 2.5,
        "duration": 0.16249999403953552,
        "pitch": 33,
        "velocity": 46
      },
      {
        "beat": 2.5145833492279053,
        "duration": 0.14791665971279144,
        "pitch": 34,
        "velocity": 42
      },
      {
        "beat": 2.53125,
        "duration": 0.13124999403953552,
        "pitch": 35,
        "velocity": 45
      },
      {
        "beat": 2.5479166507720947,
        "duration": 0.1145833358168602,
        "pitch": 36,
        "velocity": 60
      },
      {
        "beat": 3.5,
        "duration": 0.15208333730697632,
        "pitch": 33,
        "velocity": 46
      },
      {
        "beat": 3.5145833492279053,
        "duration": 0.13750000298023224,
        "pitch": 34,
        "velocity": 42
      },
      {
        "beat": 3.53125,
        "duration": 0.12083332985639572,
        "pitch": 35,
        "velocity": 45
      },
      {
        "beat": 3.5479166507720947,
        "duration": 0.1041666641831398,
        "pitch": 36,
        "velocity": 60
      }
    ],
    "crc32": 218801000,
    "midiSize": 172,
    "midiSha1": "b2f0ede5ef451a6e50c2b7bb8207fc69f9d72f7f"
  },
  {
    "code": "GEC1_16",
    "kind": "chord",
    "family": "GuitarEC",
    "modelType": "chord_model_str",
    "subtype": "strings",
    "bpm": 100,
    "beat": "4/4",
    "bnum": 86,
    "noteCount": 10,
    "midi": "pattern_midis/GEC1_16.mid",
    "notes": [
      {
        "beat": 0,
        "duration": 1.493749976158142,
        "pitch": 31,
        "velocity": 37
      },
      {
        "beat": 0.012500000186264515,
        "duration": 1.4812500476837158,
        "pitch": 32,
        "velocity": 35
      },
      {
        "beat": 0.03125,
        "duration": 1.462499976158142,
        "pitch": 33,
        "velocity": 28
      },
      {
        "beat": 0.04791666567325592,
        "duration": 1.4458333253860474,
        "pitch": 34,
        "velocity": 28
      },
      {
        "beat": 1.5,
        "duration": 0.18958333134651184,
        "pitch": 31,
        "velocity": 37
      },
      {
        "beat": 1.5,
        "duration": 0.18958333134651184,
        "pitch": 32,
        "velocity": 35
      },
      {
        "beat": 1.5,
        "duration": 0.1875,
        "pitch": 33,
        "velocity": 56
      },
      {
        "beat": 1.506250023841858,
        "duration": 0.18125000596046448,
        "pitch": 34,
        "velocity": 64
      },
      {
        "beat": 1.5145833492279053,
        "duration": 0.17291666567325592,
        "pitch": 35,
        "velocity": 67
      },
      {
        "beat": 1.524999976158142,
        "duration": 0.16249999403953552,
        "pitch": 36,
        "velocity": 85
      }
    ],
    "crc32": 279067917,
    "midiSize": 117,
    "midiSha1": "40d97b4d954d6a50017c4e7e5f7c6a1553817de7"
  },
  {
    "code": "GEC1_17",
    "kind": "chord",
    "family": "GuitarEC",
    "modelType": "chord_model_str",
    "subtype": "strings",
    "bpm": 100,
    "beat": "4/4",
    "bnum": 44,
    "noteCount": 31,
    "midi": "pattern_midis/GEC1_17.mid",
    "notes": [
      {
        "beat": 0,
        "duration": 0.6666666865348816,
        "pitch": 26,
        "velocity": 29
      },
      {
        "beat": 0,
        "duration": 0.6666666865348816,
        "pitch": 31,
        "velocity": 127
      },
      {
        "beat": 0.008333333767950535,
        "duration": 0.6583333611488342,
        "pitch": 32,
        "velocity": 125
      },
      {
        "beat": 0.6666666865348816,
        "duration": 0.3333333432674408,
        "pitch": 31,
        "velocity": 127
      },
      {
        "beat": 0.675000011920929,
        "duration": 0.324999988079071,
        "pitch": 32,
        "velocity": 125
      },
      {
        "beat": 1,
        "duration": 0.6666666865348816,
        "pitch": 24,
        "velocity": 29
      },
      {
        "beat": 1,
        "duration": 0.649999976158142,
        "pitch": 31,
        "velocity": 45
      },
      {
        "beat": 1.0083333253860474,
        "duration": 0.6479166746139526,
        "pitch": 32,
        "velocity": 43
      },
      {
        "beat": 1.0145833492279053,
        "duration": 0.649999976158142,
        "pitch": 33,
        "velocity": 55
      },
      {
        "beat": 1.0229166746139526,
        "duration": 0.643750011920929,
        "pitch": 34,
        "velocity": 55
      },
      {
        "beat": 1.0333333015441895,
        "duration": 0.6416666507720947,
        "pitch": 35,
        "velocity": 46
      },
      {
        "beat": 1.0437500476837158,
        "duration": 0.6458333134651184,
        "pitch": 36,
        "velocity": 42
      },
      {
        "beat": 1.6666666269302368,
        "duration": 0.3333333432674408,
        "pitch": 26,
        "velocity": 29
      },
      {
        "beat": 1.6666666269302368,
        "duration": 0.3333333432674408,
        "pitch": 31,
        "velocity": 124
      },
      {
        "beat": 1.6749999523162842,
        "duration": 0.324999988079071,
        "pitch": 32,
        "velocity": 123
      },
      {
        "beat": 2,
        "duration": 0.3333333432674408,
        "pitch": 26,
        "velocity": 29
      },
      {
        "beat": 2,
        "duration": 0.6666666865348816,
        "pitch": 31,
        "velocity": 126
      },
      {
        "beat": 2.008333444595337,
        "duration": 0.6583333611488342,
        "pitch": 32,
        "velocity": 124
      },
      {
        "beat": 2.0145833492279053,
        "duration": 0.9854166507720947,
        "pitch": 33,
        "velocity": 117
      },
      {
        "beat": 2.6666667461395264,
        "duration": 0.3333333432674408,
        "pitch": 31,
        "velocity": 126
      },
      {
        "beat": 2.674999952316284,
        "duration": 0.324999988079071,
        "pitch": 32,
        "velocity": 124
      },
      {
        "beat": 3,
        "duration": 0.6666666865348816,
        "pitch": 24,
        "velocity": 29
      },
      {
        "beat": 3,
        "duration": 0.6666666865348816,
        "pitch": 31,
        "velocity": 37
      },
      {
        "beat": 3.008333444595337,
        "duration": 0.6583333611488342,
        "pitch": 32,
        "velocity": 35
      },
      {
        "beat": 3.0145833492279053,
        "duration": 0.6520833373069763,
        "pitch": 33,
        "velocity": 46
      },
      {
        "beat": 3.022916555404663,
        "duration": 0.643750011920929,
        "pitch": 34,
        "velocity": 39
      },
      {
        "beat": 3.03333330154419,
        "duration": 0.6416666507720947,
        "pitch": 35,
        "velocity": 39
      },
      {
        "beat": 3.043750047683716,
        "duration": 0.6458333134651184,
        "pitch": 36,
        "velocity": 33
      },
      {
        "beat": 3.6666667461395264,
        "duration": 0.3333333432674408,
        "pitch": 26,
        "velocity": 34
      },
      {
        "beat": 3.6666667461395264,
        "duration": 0.3333333432674408,
        "pitch": 31,
        "velocity": 117
      },
      {
        "beat": 3.674999952316284,
        "duration": 0.324999988079071,
        "pitch": 32,
        "velocity": 115
      }
    ],
    "crc32": 2762129951,
    "midiSize": 269,
    "midiSha1": "a1080174484100ec8b60d88552c88f92413a6950"
  },
  {
    "code": "GEC1_18",
    "kind": "chord",
    "family": "GuitarEC",
    "modelType": "chord_model_str",
    "subtype": "strings",
    "bpm": 63,
    "beat": "4/4",
    "bnum": 44,
    "noteCount": 13,
    "midi": "pattern_midis/GEC1_18.mid",
    "notes": [
      {
        "beat": 0,
        "duration": 2,
        "pitch": 31,
        "velocity": 27
      },
      {
        "beat": 0.5,
        "duration": 1.2416666746139526,
        "pitch": 33,
        "velocity": 28
      },
      {
        "beat": 0.75,
        "duration": 0.7416666746139526,
        "pitch": 34,
        "velocity": 21
      },
      {
        "beat": 1,
        "duration": 1.9958332777023315,
        "pitch": 36,
        "velocity": 36
      },
      {
        "beat": 1.25,
        "duration": 1.9916666746139526,
        "pitch": 35,
        "velocity": 23
      },
      {
        "beat": 1.5,
        "duration": 1.2479166984558105,
        "pitch": 34,
        "velocity": 19
      },
      {
        "beat": 1.75,
        "duration": 0.7395833134651184,
        "pitch": 33,
        "velocity": 25
      },
      {
        "beat": 2,
        "duration": 2.054166555404663,
        "pitch": 31,
        "velocity": 27
      },
      {
        "beat": 2.5,
        "duration": 1.53125,
        "pitch": 33,
        "velocity": 28
      },
      {
        "beat": 2.74791669845581,
        "duration": 0.743749976158142,
        "pitch": 34,
        "velocity": 21
      },
      {
        "beat": 3,
        "duration": 1.056249976158142,
        "pitch": 36,
        "velocity": 36
      },
      {
        "beat": 3.25,
        "duration": 0.7854166626930237,
        "pitch": 35,
        "velocity": 23
      },
      {
        "beat": 3.5,
        "duration": 0.53125,
        "pitch": 34,
        "velocity": 18
      }
    ],
    "crc32": 2776105797,
    "midiSize": 147,
    "midiSha1": "e119e4e705d5a5cb366ae0673949db2f6da3983d"
  },
  {
    "code": "GEC1_2",
    "kind": "chord",
    "family": "GuitarEC",
    "modelType": "chord_model_str",
    "subtype": "strings",
    "bpm": 95,
    "beat": "4/4",
    "bnum": 44,
    "noteCount": 8,
    "midi": "pattern_midis/GEC1_2.mid",
    "notes": [
      {
        "beat": 0,
        "duration": 4.072916507720947,
        "pitch": 31,
        "velocity": 30
      },
      {
        "beat": 0.5,
        "duration": 0.9729166626930237,
        "pitch": 33,
        "velocity": 34
      },
      {
        "beat": 1,
        "duration": 1.9729167222976685,
        "pitch": 34,
        "velocity": 48
      },
      {
        "beat": 1.5,
        "duration": 0.9729166626930237,
        "pitch": 33,
        "velocity": 29
      },
      {
        "beat": 2,
        "duration": 1.4729167222976685,
        "pitch": 35,
        "velocity": 31
      },
      {
        "beat": 2.5,
        "duration": 1.5229166746139526,
        "pitch": 33,
        "velocity": 34
      },
      {
        "beat": 3,
        "duration": 1.0187499523162842,
        "pitch": 34,
        "velocity": 31
      },
      {
        "beat": 3.5,
        "duration": 0.5729166865348816,
        "pitch": 35,
        "velocity": 30
      }
    ],
    "crc32": 2765645639,
    "midiSize": 117,
    "midiSha1": "d586cc061a0e83414245e1455adb9edb07ae6d7c"
  },
  {
    "code": "GEC1_3",
    "kind": "chord",
    "family": "GuitarEC",
    "modelType": "chord_model_str",
    "subtype": "strings",
    "bpm": 86,
    "beat": "4/4",
    "bnum": 86,
    "noteCount": 5,
    "midi": "pattern_midis/GEC1_3.mid",
    "notes": [
      {
        "beat": 0,
        "duration": 3,
        "pitch": 31,
        "velocity": 30
      },
      {
        "beat": 0.5,
        "duration": 2.5,
        "pitch": 33,
        "velocity": 34
      },
      {
        "beat": 1,
        "duration": 1.4833333492279053,
        "pitch": 34,
        "velocity": 46
      },
      {
        "beat": 1.5,
        "duration": 1.5,
        "pitch": 35,
        "velocity": 41
      },
      {
        "beat": 2.5,
        "duration": 0.5291666388511658,
        "pitch": 34,
        "velocity": 20
      }
    ],
    "crc32": 2915691791,
    "midiSize": 90,
    "midiSha1": "d1d3c231c82c171315e1afb0e11f53a396b4cf0a"
  },
  {
    "code": "GEC1_4",
    "kind": "chord",
    "family": "GuitarEC",
    "modelType": "chord_model_str",
    "subtype": "strings",
    "bpm": 70,
    "beat": "4/4",
    "bnum": 44,
    "noteCount": 8,
    "midi": "pattern_midis/GEC1_4.mid",
    "notes": [
      {
        "beat": 0,
        "duration": 4.110416889190674,
        "pitch": 31,
        "velocity": 30
      },
      {
        "beat": 0.5,
        "duration": 0.9770833253860474,
        "pitch": 34,
        "velocity": 28
      },
      {
        "beat": 1,
        "duration": 1.9770833253860474,
        "pitch": 35,
        "velocity": 50
      },
      {
        "beat": 1.5,
        "duration": 0.9770833253860474,
        "pitch": 34,
        "velocity": 25
      },
      {
        "beat": 2,
        "duration": 2.1104166507720947,
        "pitch": 36,
        "velocity": 30
      },
      {
        "beat": 2.5,
        "duration": 0.9770833253860474,
        "pitch": 34,
        "velocity": 20
      },
      {
        "beat": 3,
        "duration": 1.0145833492279053,
        "pitch": 35,
        "velocity": 30
      },
      {
        "beat": 3.5,
        "duration": 0.512499988079071,
        "pitch": 34,
        "velocity": 20
      }
    ],
    "crc32": 2402113141,
    "midiSize": 117,
    "midiSha1": "9392a1e1b4b1e2553d7b84747d1cbcf7e09cc89b"
  },
  {
    "code": "GEC1_5",
    "kind": "chord",
    "family": "GuitarEC",
    "modelType": "chord_model_str",
    "subtype": "strings",
    "bpm": 80,
    "beat": "4/4",
    "bnum": 86,
    "noteCount": 6,
    "midi": "pattern_midis/GEC1_5.mid",
    "notes": [
      {
        "beat": 0,
        "duration": 3,
        "pitch": 31,
        "velocity": 30
      },
      {
        "beat": 0.5,
        "duration": 2,
        "pitch": 33,
        "velocity": 25
      },
      {
        "beat": 1,
        "duration": 0.9729166626930237,
        "pitch": 34,
        "velocity": 25
      },
      {
        "beat": 1.5,
        "duration": 1.5,
        "pitch": 35,
        "velocity": 46
      },
      {
        "beat": 2,
        "duration": 1,
        "pitch": 34,
        "velocity": 25
      },
      {
        "beat": 2.5,
        "duration": 0.5270833373069763,
        "pitch": 33,
        "velocity": 25
      }
    ],
    "crc32": 348386294,
    "midiSize": 97,
    "midiSha1": "4c04e37ef292f2f1e7c80121a4c88ed774746a4e"
  },
  {
    "code": "GEC1_6",
    "kind": "chord",
    "family": "GuitarEC",
    "modelType": "chord_model_str",
    "subtype": "strings",
    "bpm": 70,
    "beat": "4/4",
    "bnum": 44,
    "noteCount": 28,
    "midi": "pattern_midis/GEC1_6.mid",
    "notes": [
      {
        "beat": 0,
        "duration": 2,
        "pitch": 31,
        "velocity": 37
      },
      {
        "beat": 0.008333333767950535,
        "duration": 1.9979166984558105,
        "pitch": 32,
        "velocity": 35
      },
      {
        "beat": 0.014583333395421505,
        "duration": 2,
        "pitch": 33,
        "velocity": 47
      },
      {
        "beat": 0.02291666716337204,
        "duration": 0.9770833253860474,
        "pitch": 34,
        "velocity": 47
      },
      {
        "beat": 0.03333333507180214,
        "duration": 0.975000023841858,
        "pitch": 35,
        "velocity": 38
      },
      {
        "beat": 0.04374999925494194,
        "duration": 0.9791666865348816,
        "pitch": 36,
        "velocity": 34
      },
      {
        "beat": 1,
        "duration": 0.5,
        "pitch": 34,
        "velocity": 34
      },
      {
        "beat": 1.0083333253860474,
        "duration": 0.49166667461395264,
        "pitch": 35,
        "velocity": 31
      },
      {
        "beat": 1.0229166746139526,
        "duration": 0.7270833253860474,
        "pitch": 36,
        "velocity": 30
      },
      {
        "beat": 1.5,
        "duration": 0.25,
        "pitch": 34,
        "velocity": 19
      },
      {
        "beat": 1.5083333253860474,
        "duration": 0.24166665971279144,
        "pitch": 35,
        "velocity": 21
      },
      {
        "beat": 1.75,
        "duration": 0.25,
        "pitch": 36,
        "velocity": 30
      },
      {
        "beat": 1.756250023841858,
        "duration": 0.2750000059604645,
        "pitch": 35,
        "velocity": 33
      },
      {
        "beat": 1.7625000476837158,
        "duration": 0.25833332538604736,
        "pitch": 34,
        "velocity": 27
      },
      {
        "beat": 2,
        "duration": 2,
        "pitch": 31,
        "velocity": 29
      },
      {
        "beat": 2.008333444595337,
        "duration": 1.9916666746139526,
        "pitch": 32,
        "velocity": 27
      },
      {
        "beat": 2.0145833492279053,
        "duration": 1.9895833730697632,
        "pitch": 33,
        "velocity": 38
      },
      {
        "beat": 2.022916555404663,
        "duration": 0.9770833253860474,
        "pitch": 34,
        "velocity": 31
      },
      {
        "beat": 2.03333330154419,
        "duration": 0.975000023841858,
        "pitch": 35,
        "velocity": 31
      },
      {
        "beat": 2.043750047683716,
        "duration": 0.9791666865348816,
        "pitch": 36,
        "velocity": 25
      },
      {
        "beat": 3,
        "duration": 0.5,
        "pitch": 34,
        "velocity": 23
      },
      {
        "beat": 3.008333444595337,
        "duration": 0.49166667461395264,
        "pitch": 35,
        "velocity": 31
      },
      {
        "beat": 3.022916555404663,
        "duration": 0.7270833253860474,
        "pitch": 36,
        "velocity": 30
      },
      {
        "beat": 3.5,
        "duration": 0.25,
        "pitch": 34,
        "velocity": 21
      },
      {
        "beat": 3.508333444595337,
        "duration": 0.24166665971279144,
        "pitch": 35,
        "velocity": 20
      },
      {
        "beat": 3.75,
        "duration": 0.27916666865348816,
        "pitch": 36,
        "velocity": 25
      },
      {
        "beat": 3.7562499046325684,
        "duration": 0.2562499940395355,
        "pitch": 35,
        "velocity": 31
      },
      {
        "beat": 3.762500047683716,
        "duration": 0.25833332538604736,
        "pitch": 34,
        "velocity": 24
      }
    ],
    "crc32": 2423567224,
    "midiSize": 251,
    "midiSha1": "ad9030f0fe4e17e5a13bc0ca0d3a7ff3a5e043ac"
  },
  {
    "code": "GEC1_7",
    "kind": "chord",
    "family": "GuitarEC",
    "modelType": "chord_model_str",
    "subtype": "strings",
    "bpm": 85,
    "beat": "4/4",
    "bnum": 44,
    "noteCount": 8,
    "midi": "pattern_midis/GEC1_7.mid",
    "notes": [
      {
        "beat": 0,
        "duration": 4.110416889190674,
        "pitch": 31,
        "velocity": 30
      },
      {
        "beat": 0.5,
        "duration": 2.987499952316284,
        "pitch": 33,
        "velocity": 29
      },
      {
        "beat": 1,
        "duration": 1.9770833253860474,
        "pitch": 34,
        "velocity": 35
      },
      {
        "beat": 1.5,
        "duration": 0.987500011920929,
        "pitch": 35,
        "velocity": 25
      },
      {
        "beat": 2,
        "duration": 2.1104166507720947,
        "pitch": 36,
        "velocity": 34
      },
      {
        "beat": 2.5,
        "duration": 1.5187499523162842,
        "pitch": 35,
        "velocity": 23
      },
      {
        "beat": 3,
        "duration": 1.0145833492279053,
        "pitch": 34,
        "velocity": 37
      },
      {
        "beat": 3.5,
        "duration": 0.512499988079071,
        "pitch": 33,
        "velocity": 29
      }
    ],
    "crc32": 3363481600,
    "midiSize": 115,
    "midiSha1": "89e32ea5b0e2edf5f9d97df3bcc461f954c597d4"
  },
  {
    "code": "GEC1_8",
    "kind": "chord",
    "family": "GuitarEC",
    "modelType": "chord_model_str",
    "subtype": "strings",
    "bpm": 70,
    "beat": "4/4",
    "bnum": 44,
    "noteCount": 14,
    "midi": "pattern_midis/GEC1_8.mid",
    "notes": [
      {
        "beat": 0,
        "duration": 2,
        "pitch": 31,
        "velocity": 36
      },
      {
        "beat": 0,
        "duration": 0.9895833134651184,
        "pitch": 34,
        "velocity": 39
      },
      {
        "beat": 0,
        "duration": 0.9895833134651184,
        "pitch": 36,
        "velocity": 31
      },
      {
        "beat": 0.008333333767950535,
        "duration": 0.9708333611488342,
        "pitch": 35,
        "velocity": 34
      },
      {
        "beat": 1.0020833015441895,
        "duration": 0.9979166388511658,
        "pitch": 35,
        "velocity": 25
      },
      {
        "beat": 1.006250023841858,
        "duration": 0.993749976158142,
        "pitch": 34,
        "velocity": 34
      },
      {
        "beat": 1.006250023841858,
        "duration": 0.993749976158142,
        "pitch": 36,
        "velocity": 24
      },
      {
        "beat": 2,
        "duration": 2.0458333492279053,
        "pitch": 31,
        "velocity": 26
      },
      {
        "beat": 2.008333444595337,
        "duration": 0.987500011920929,
        "pitch": 34,
        "velocity": 37
      },
      {
        "beat": 2.0104167461395264,
        "duration": 0.981249988079071,
        "pitch": 36,
        "velocity": 25
      },
      {
        "beat": 2.0145833492279053,
        "duration": 0.9708333611488342,
        "pitch": 35,
        "velocity": 29
      },
      {
        "beat": 3,
        "duration": 1.0125000476837158,
        "pitch": 34,
        "velocity": 42
      },
      {
        "beat": 3.0062499046325684,
        "duration": 1.006250023841858,
        "pitch": 35,
        "velocity": 23
      },
      {
        "beat": 3.008333444595337,
        "duration": 1.0395833253860474,
        "pitch": 36,
        "velocity": 20
      }
    ],
    "crc32": 2024267258,
    "midiSize": 147,
    "midiSha1": "2fd4a2fee2fa5d19a05e3e9bad8500a97b640bf9"
  },
  {
    "code": "GEC1_9",
    "kind": "chord",
    "family": "GuitarEC",
    "modelType": "chord_model_str",
    "subtype": "strings",
    "bpm": 70,
    "beat": "4/4",
    "bnum": 44,
    "noteCount": 15,
    "midi": "pattern_midis/GEC1_9.mid",
    "notes": [
      {
        "beat": 0,
        "duration": 2,
        "pitch": 31,
        "velocity": 37
      },
      {
        "beat": 0,
        "duration": 0.4937500059604645,
        "pitch": 34,
        "velocity": 36
      },
      {
        "beat": 0,
        "duration": 0.9895833134651184,
        "pitch": 36,
        "velocity": 30
      },
      {
        "beat": 0.008333333767950535,
        "duration": 0.9708333611488342,
        "pitch": 35,
        "velocity": 31
      },
      {
        "beat": 0.5,
        "duration": 0.9916666746139526,
        "pitch": 34,
        "velocity": 28
      },
      {
        "beat": 1.0020833015441895,
        "duration": 0.9979166388511658,
        "pitch": 35,
        "velocity": 28
      },
      {
        "beat": 1.006250023841858,
        "duration": 0.993749976158142,
        "pitch": 36,
        "velocity": 25
      },
      {
        "beat": 1.5,
        "duration": 0.9916666746139526,
        "pitch": 34,
        "velocity": 27
      },
      {
        "beat": 2,
        "duration": 2.0458333492279053,
        "pitch": 31,
        "velocity": 27
      },
      {
        "beat": 2,
        "duration": 0.9916666746139526,
        "pitch": 36,
        "velocity": 28
      },
      {
        "beat": 2.0145833492279053,
        "duration": 0.9708333611488342,
        "pitch": 35,
        "velocity": 31
      },
      {
        "beat": 2.5,
        "duration": 0.9916666746139526,
        "pitch": 34,
        "velocity": 34
      },
      {
        "beat": 3,
        "duration": 1.0083333253860474,
        "pitch": 35,
        "velocity": 20
      },
      {
        "beat": 3,
        "duration": 1.0395833253860474,
        "pitch": 36,
        "velocity": 26
      },
      {
        "beat": 3.5,
        "duration": 0.512499988079071,
        "pitch": 34,
        "velocity": 35
      }
    ],
    "crc32": 2778461174,
    "midiSize": 165,
    "midiSha1": "5f2fac0c13e333aa918ec2d4a60982d1adc60f3a"
  },
  {
    "code": "GEC2_1",
    "kind": "chord",
    "family": "GuitarEC",
    "modelType": "chord_model_str",
    "subtype": "strings",
    "bpm": 95,
    "beat": "4/4",
    "bnum": 44,
    "noteCount": 6,
    "midi": "pattern_midis/GEC2_1.mid",
    "notes": [
      {
        "beat": 0,
        "duration": 4.054166793823242,
        "pitch": 31,
        "velocity": 20
      },
      {
        "beat": 0.02708333358168602,
        "duration": 1.4541666507720947,
        "pitch": 36,
        "velocity": 20
      },
      {
        "beat": 0.5,
        "duration": 2.4833333492279053,
        "pitch": 34,
        "velocity": 12
      },
      {
        "beat": 1,
        "duration": 3.012500047683716,
        "pitch": 35,
        "velocity": 21
      },
      {
        "beat": 1.5,
        "duration": 2.554166555404663,
        "pitch": 36,
        "velocity": 20
      },
      {
        "beat": 3,
        "duration": 1.0125000476837158,
        "pitch": 34,
        "velocity": 12
      }
    ],
    "crc32": 3382934907,
    "midiSize": 98,
    "midiSha1": "45fd0d4168a1de0cf9d3781ad7904b7b9c8b55b7"
  },
  {
    "code": "GEC2_10",
    "kind": "chord",
    "family": "GuitarEC",
    "modelType": "chord_model_str",
    "subtype": "strings",
    "bpm": 120,
    "beat": "4/4",
    "bnum": 43,
    "noteCount": 7,
    "midi": "pattern_midis/GEC2_10.mid",
    "notes": [
      {
        "beat": 0,
        "duration": 3,
        "pitch": 31,
        "velocity": 27
      },
      {
        "beat": 1.0020833015441895,
        "duration": 0.34583333134651184,
        "pitch": 35,
        "velocity": 12
      },
      {
        "beat": 1.006250023841858,
        "duration": 0.34166666865348816,
        "pitch": 34,
        "velocity": 21
      },
      {
        "beat": 1.006250023841858,
        "duration": 0.34166666865348816,
        "pitch": 36,
        "velocity": 9
      },
      {
        "beat": 2,
        "duration": 1,
        "pitch": 34,
        "velocity": 36
      },
      {
        "beat": 2,
        "duration": 1,
        "pitch": 36,
        "velocity": 19
      },
      {
        "beat": 2.008333444595337,
        "duration": 0.9916666746139526,
        "pitch": 35,
        "velocity": 21
      }
    ],
    "crc32": 4097813422,
    "midiSize": 102,
    "midiSha1": "7cdc94612d0ac627ddadd3404733b11e4ea15645"
  },
  {
    "code": "GEC2_11",
    "kind": "chord",
    "family": "GuitarEC",
    "modelType": "chord_model_str",
    "subtype": "strings",
    "bpm": 69,
    "beat": "4/4",
    "bnum": 44,
    "noteCount": 5,
    "midi": "pattern_midis/GEC2_11.mid",
    "notes": [
      {
        "beat": 0,
        "duration": 4,
        "pitch": 31,
        "velocity": 22
      },
      {
        "beat": 0.5,
        "duration": 3.5,
        "pitch": 32,
        "velocity": 19
      },
      {
        "beat": 0.75,
        "duration": 3.25,
        "pitch": 34,
        "velocity": 29
      },
      {
        "beat": 1.25,
        "duration": 2.75,
        "pitch": 33,
        "velocity": 29
      },
      {
        "beat": 2,
        "duration": 2,
        "pitch": 35,
        "velocity": 22
      }
    ],
    "crc32": 4274313385,
    "midiSize": 88,
    "midiSha1": "d1f8c8551cd26684823c7251aebe2164f57e9ebf"
  },
  {
    "code": "GEC2_12",
    "kind": "chord",
    "family": "GuitarEC",
    "modelType": "chord_model_str",
    "subtype": "strings",
    "bpm": 70,
    "beat": "4/4",
    "bnum": 44,
    "noteCount": 29,
    "midi": "pattern_midis/GEC2_12.mid",
    "notes": [
      {
        "beat": 0,
        "duration": 1.5,
        "pitch": 31,
        "velocity": 26
      },
      {
        "beat": 0.012500000186264515,
        "duration": 1.4874999523162842,
        "pitch": 32,
        "velocity": 24
      },
      {
        "beat": 0.02291666716337204,
        "duration": 0.9770833253860474,
        "pitch": 33,
        "velocity": 30
      },
      {
        "beat": 0.03750000149011612,
        "duration": 0.962499976158142,
        "pitch": 34,
        "velocity": 32
      },
      {
        "beat": 0.0520833320915699,
        "duration": 0.9666666388511658,
        "pitch": 35,
        "velocity": 23
      },
      {
        "beat": 0.06666667014360428,
        "duration": 0.9645833373069763,
        "pitch": 36,
        "velocity": 30
      },
      {
        "beat": 1,
        "duration": 0.8125,
        "pitch": 33,
        "velocity": 30
      },
      {
        "beat": 1.0104166269302368,
        "duration": 0.7645833492279053,
        "pitch": 34,
        "velocity": 29
      },
      {
        "beat": 1.0208333730697632,
        "duration": 0.7291666865348816,
        "pitch": 35,
        "velocity": 20
      },
      {
        "beat": 1.0395833253860474,
        "duration": 0.7104166746139526,
        "pitch": 36,
        "velocity": 30
      },
      {
        "beat": 1.5,
        "duration": 1,
        "pitch": 31,
        "velocity": 19
      },
      {
        "beat": 1.5083333253860474,
        "duration": 0.9916666746139526,
        "pitch": 32,
        "velocity": 17
      },
      {
        "beat": 1.75,
        "duration": 1.2666666507720947,
        "pitch": 36,
        "velocity": 25
      },
      {
        "beat": 1.7687499523162842,
        "duration": 0.487500011920929,
        "pitch": 35,
        "velocity": 14
      },
      {
        "beat": 1.787500023841858,
        "duration": 0.4729166626930237,
        "pitch": 34,
        "velocity": 27
      },
      {
        "beat": 1.8166667222976685,
        "duration": 0.4479166567325592,
        "pitch": 33,
        "velocity": 30
      },
      {
        "beat": 2.2562499046325684,
        "duration": 0.743749976158142,
        "pitch": 35,
        "velocity": 14
      },
      {
        "beat": 2.2604167461395264,
        "duration": 0.7395833134651184,
        "pitch": 34,
        "velocity": 26
      },
      {
        "beat": 2.2708332538604736,
        "duration": 0.7291666865348816,
        "pitch": 33,
        "velocity": 21
      },
      {
        "beat": 2.5,
        "duration": 1.5,
        "pitch": 31,
        "velocity": 26
      },
      {
        "beat": 2.5104167461395264,
        "duration": 1.4895833730697632,
        "pitch": 32,
        "velocity": 24
      },
      {
        "beat": 3,
        "duration": 0.7604166865348816,
        "pitch": 33,
        "velocity": 21
      },
      {
        "beat": 3,
        "duration": 0.7583333253860474,
        "pitch": 34,
        "velocity": 18
      },
      {
        "beat": 3.0104167461395264,
        "duration": 0.7395833134651184,
        "pitch": 35,
        "velocity": 14
      },
      {
        "beat": 3.027083396911621,
        "duration": 0.71875,
        "pitch": 36,
        "velocity": 27
      },
      {
        "beat": 3.75,
        "duration": 0.25,
        "pitch": 36,
        "velocity": 16
      },
      {
        "beat": 3.7562499046325684,
        "duration": 0.24375000596046448,
        "pitch": 35,
        "velocity": 14
      },
      {
        "beat": 3.7604167461395264,
        "duration": 0.2395833283662796,
        "pitch": 34,
        "velocity": 16
      },
      {
        "beat": 3.7645833492279053,
        "duration": 0.23541666567325592,
        "pitch": 33,
        "velocity": 14
      }
    ],
    "crc32": 2548072167,
    "midiSize": 265,
    "midiSha1": "acf5fba9c7568aba70ff7e79678b4d3015a72eab"
  },
  {
    "code": "GEC2_13",
    "kind": "chord",
    "family": "GuitarEC",
    "modelType": "chord_model_str",
    "subtype": "strings",
    "bpm": 70,
    "beat": "4/4",
    "bnum": 44,
    "noteCount": 12,
    "midi": "pattern_midis/GEC2_13.mid",
    "notes": [
      {
        "beat": 0,
        "duration": 1.5208333730697632,
        "pitch": 24,
        "velocity": 20
      },
      {
        "beat": 0,
        "duration": 2,
        "pitch": 31,
        "velocity": 30
      },
      {
        "beat": 0,
        "duration": 2,
        "pitch": 33,
        "velocity": 30
      },
      {
        "beat": 0,
        "duration": 2,
        "pitch": 34,
        "velocity": 30
      },
      {
        "beat": 0,
        "duration": 2,
        "pitch": 35,
        "velocity": 21
      },
      {
        "beat": 0,
        "duration": 2,
        "pitch": 36,
        "velocity": 30
      },
      {
        "beat": 2,
        "duration": 1.5208333730697632,
        "pitch": 24,
        "velocity": 20
      },
      {
        "beat": 2,
        "duration": 2,
        "pitch": 31,
        "velocity": 30
      },
      {
        "beat": 2,
        "duration": 2,
        "pitch": 33,
        "velocity": 23
      },
      {
        "beat": 2,
        "duration": 2,
        "pitch": 34,
        "velocity": 23
      },
      {
        "beat": 2,
        "duration": 2,
        "pitch": 35,
        "velocity": 15
      },
      {
        "beat": 2,
        "duration": 2,
        "pitch": 36,
        "velocity": 23
      }
    ],
    "crc32": 3007944689,
    "midiSize": 132,
    "midiSha1": "11c3961ade482f48b7d3328040ec49de05fcb754"
  },
  {
    "code": "GEC2_14",
    "kind": "chord",
    "family": "GuitarEC",
    "modelType": "chord_model_str",
    "subtype": "strings",
    "bpm": 70,
    "beat": "4/4",
    "bnum": 44,
    "noteCount": 12,
    "midi": "pattern_midis/GEC2_14.mid",
    "notes": [
      {
        "beat": 0,
        "duration": 2,
        "pitch": 31,
        "velocity": 29
      },
      {
        "beat": 0.01875000074505806,
        "duration": 1.9812500476837158,
        "pitch": 32,
        "velocity": 27
      },
      {
        "beat": 0.0416666679084301,
        "duration": 1.9583333730697632,
        "pitch": 33,
        "velocity": 33
      },
      {
        "beat": 0.06458333134651184,
        "duration": 1.9354166984558105,
        "pitch": 34,
        "velocity": 35
      },
      {
        "beat": 0.0833333358168602,
        "duration": 1.9166666269302368,
        "pitch": 35,
        "velocity": 26
      },
      {
        "beat": 0.10208333283662796,
        "duration": 1.8979166746139526,
        "pitch": 36,
        "velocity": 30
      },
      {
        "beat": 2,
        "duration": 2,
        "pitch": 31,
        "velocity": 29
      },
      {
        "beat": 2.018749952316284,
        "duration": 1.9812500476837158,
        "pitch": 32,
        "velocity": 27
      },
      {
        "beat": 2.0416667461395264,
        "duration": 1.9583333730697632,
        "pitch": 33,
        "velocity": 33
      },
      {
        "beat": 2.06458330154419,
        "duration": 1.9354166984558105,
        "pitch": 34,
        "velocity": 35
      },
      {
        "beat": 2.0833332538604736,
        "duration": 1.9166666269302368,
        "pitch": 35,
        "velocity": 26
      },
      {
        "beat": 2.102083444595337,
        "duration": 1.8979166746139526,
        "pitch": 36,
        "velocity": 30
      }
    ],
    "crc32": 1494578764,
    "midiSize": 130,
    "midiSha1": "dd4f6a8dde9269c6d2e3e7e0632921e12895fdcb"
  },
  {
    "code": "GEC2_15",
    "kind": "chord",
    "family": "GuitarEC",
    "modelType": "chord_model_str",
    "subtype": "strings",
    "bpm": 105,
    "beat": "4/4",
    "bnum": 44,
    "noteCount": 28,
    "midi": "pattern_midis/GEC2_15.mid",
    "notes": [
      {
        "beat": 0,
        "duration": 0.1458333283662796,
        "pitch": 24,
        "velocity": 10
      },
      {
        "beat": 0,
        "duration": 1,
        "pitch": 31,
        "velocity": 7
      },
      {
        "beat": 0,
        "duration": 0.5,
        "pitch": 33,
        "velocity": 12
      },
      {
        "beat": 0,
        "duration": 0.5,
        "pitch": 34,
        "velocity": 12
      },
      {
        "beat": 0.008333333767950535,
        "duration": 0.49166667461395264,
        "pitch": 35,
        "velocity": 36
      },
      {
        "beat": 0.01875000074505806,
        "duration": 0.481249988079071,
        "pitch": 36,
        "velocity": 59
      },
      {
        "beat": 0.5,
        "duration": 0.5,
        "pitch": 33,
        "velocity": 1
      },
      {
        "beat": 0.5,
        "duration": 0.5,
        "pitch": 34,
        "velocity": 1
      },
      {
        "beat": 0.506250023841858,
        "duration": 0.24375000596046448,
        "pitch": 35,
        "velocity": 4
      },
      {
        "beat": 0.5166666507720947,
        "duration": 0.23333333432674408,
        "pitch": 36,
        "velocity": 5
      },
      {
        "beat": 0.75,
        "duration": 0.25,
        "pitch": 35,
        "velocity": 27
      },
      {
        "beat": 0.75,
        "duration": 0.25,
        "pitch": 36,
        "velocity": 32
      },
      {
        "beat": 1,
        "duration": 0.1458333283662796,
        "pitch": 26,
        "velocity": 10
      },
      {
        "beat": 1,
        "duration": 0.25,
        "pitch": 35,
        "velocity": 16
      },
      {
        "beat": 1.25,
        "duration": 0.1458333283662796,
        "pitch": 24,
        "velocity": 10
      },
      {
        "beat": 1.25,
        "duration": 0.25,
        "pitch": 35,
        "velocity": 43
      },
      {
        "beat": 1.25,
        "duration": 0.25,
        "pitch": 36,
        "velocity": 61
      },
      {
        "beat": 1.2604166269302368,
        "duration": 0.2395833283662796,
        "pitch": 34,
        "velocity": 5
      },
      {
        "beat": 1.2625000476837158,
        "duration": 0.23749999701976776,
        "pitch": 33,
        "velocity": 5
      },
      {
        "beat": 1.5,
        "duration": 0.1458333283662796,
        "pitch": 26,
        "velocity": 10
      },
      {
        "beat": 1.5,
        "duration": 0.25,
        "pitch": 35,
        "velocity": 16
      },
      {
        "beat": 1.75,
        "duration": 0.25,
        "pitch": 35,
        "velocity": 16
      },
      {
        "beat": 2,
        "duration": 0.1458333283662796,
        "pitch": 24,
        "velocity": 10
      },
      {
        "beat": 2,
        "duration": 0.28125,
        "pitch": 31,
        "velocity": 1
      },
      {
        "beat": 2,
        "duration": 0.28125,
        "pitch": 33,
        "velocity": 1
      },
      {
        "beat": 2,
        "duration": 0.28125,
        "pitch": 34,
        "velocity": 1
      },
      {
        "beat": 2.0062499046325684,
        "duration": 0.2750000059604645,
        "pitch": 35,
        "velocity": 38
      },
      {
        "beat": 2.0166666507720947,
        "duration": 0.2645833194255829,
        "pitch": 36,
        "velocity": 64
      }
    ],
    "crc32": 3702247256,
    "midiSize": 241,
    "midiSha1": "ba258779c430a2655dab00aef62a4b3345c50a9e"
  },
  {
    "code": "GEC2_16",
    "kind": "chord",
    "family": "GuitarEC",
    "modelType": "chord_model_str",
    "subtype": "strings",
    "bpm": 115,
    "beat": "4/4",
    "bnum": 44,
    "noteCount": 44,
    "midi": "pattern_midis/GEC2_16.mid",
    "notes": [
      {
        "beat": 0,
        "duration": 0.75,
        "pitch": 24,
        "velocity": 10
      },
      {
        "beat": 0,
        "duration": 0.25,
        "pitch": 31,
        "velocity": 1
      },
      {
        "beat": 0.5,
        "duration": 0.21250000596046448,
        "pitch": 31,
        "velocity": 1
      },
      {
        "beat": 0.5,
        "duration": 0.21250000596046448,
        "pitch": 33,
        "velocity": 27
      },
      {
        "beat": 0.506250023841858,
        "duration": 0.20624999701976776,
        "pitch": 34,
        "velocity": 26
      },
      {
        "beat": 0.5083333253860474,
        "duration": 0.20416666567325592,
        "pitch": 35,
        "velocity": 41
      },
      {
        "beat": 0.5145833492279053,
        "duration": 0.1979166716337204,
        "pitch": 36,
        "velocity": 48
      },
      {
        "beat": 0.75,
        "duration": 0.5,
        "pitch": 26,
        "velocity": 26
      },
      {
        "beat": 0.75,
        "duration": 0.25,
        "pitch": 34,
        "velocity": 26
      },
      {
        "beat": 1.006250023841858,
        "duration": 0.24375000596046448,
        "pitch": 34,
        "velocity": 32
      },
      {
        "beat": 1.25,
        "duration": 0.2708333432674408,
        "pitch": 24,
        "velocity": 10
      },
      {
        "beat": 1.25,
        "duration": 0.21875,
        "pitch": 31,
        "velocity": 1
      },
      {
        "beat": 1.25,
        "duration": 0.21875,
        "pitch": 36,
        "velocity": 30
      },
      {
        "beat": 1.256250023841858,
        "duration": 0.21250000596046448,
        "pitch": 35,
        "velocity": 32
      },
      {
        "beat": 1.2604166269302368,
        "duration": 0.2083333283662796,
        "pitch": 34,
        "velocity": 17
      },
      {
        "beat": 1.2604166269302368,
        "duration": 0.2083333283662796,
        "pitch": 33,
        "velocity": 6
      },
      {
        "beat": 1.5,
        "duration": 0.5,
        "pitch": 26,
        "velocity": 26
      },
      {
        "beat": 2,
        "duration": 0.2083333283662796,
        "pitch": 24,
        "velocity": 10
      },
      {
        "beat": 2,
        "duration": 0.23125000298023224,
        "pitch": 31,
        "velocity": 1
      },
      {
        "beat": 2,
        "duration": 0.23125000298023224,
        "pitch": 33,
        "velocity": 27
      },
      {
        "beat": 2,
        "duration": 0.23125000298023224,
        "pitch": 34,
        "velocity": 22
      },
      {
        "beat": 2.008333444595337,
        "duration": 0.22291666269302368,
        "pitch": 35,
        "velocity": 35
      },
      {
        "beat": 2.0145833492279053,
        "duration": 0.21666666865348816,
        "pitch": 36,
        "velocity": 43
      },
      {
        "beat": 2.25,
        "duration": 0.5,
        "pitch": 26,
        "velocity": 26
      },
      {
        "beat": 2.25,
        "duration": 0.25,
        "pitch": 34,
        "velocity": 27
      },
      {
        "beat": 2.2562499046325684,
        "duration": 0.24375000596046448,
        "pitch": 33,
        "velocity": 27
      },
      {
        "beat": 2.5,
        "duration": 0.25,
        "pitch": 33,
        "velocity": 30
      },
      {
        "beat": 2.5062499046325684,
        "duration": 0.24375000596046448,
        "pitch": 34,
        "velocity": 32
      },
      {
        "beat": 2.75,
        "duration": 0.25,
        "pitch": 24,
        "velocity": 26
      },
      {
        "beat": 2.75,
        "duration": 0.1666666716337204,
        "pitch": 31,
        "velocity": 1
      },
      {
        "beat": 2.75,
        "duration": 0.1666666716337204,
        "pitch": 35,
        "velocity": 19
      },
      {
        "beat": 2.75,
        "duration": 0.1666666716337204,
        "pitch": 36,
        "velocity": 35
      },
      {
        "beat": 2.7604167461395264,
        "duration": 0.15625,
        "pitch": 34,
        "velocity": 20
      },
      {
        "beat": 2.762500047683716,
        "duration": 0.15416666865348816,
        "pitch": 33,
        "velocity": 32
      },
      {
        "beat": 3,
        "duration": 0.5,
        "pitch": 26,
        "velocity": 26
      },
      {
        "beat": 3.4937500953674316,
        "duration": 0.3062500059604645,
        "pitch": 24,
        "velocity": 26
      },
      {
        "beat": 3.5,
        "duration": 0.5,
        "pitch": 31,
        "velocity": 1
      },
      {
        "beat": 3.5,
        "duration": 0.5,
        "pitch": 33,
        "velocity": 27
      },
      {
        "beat": 3.5,
        "duration": 0.24375000596046448,
        "pitch": 34,
        "velocity": 27
      },
      {
        "beat": 3.508333444595337,
        "duration": 0.24166665971279144,
        "pitch": 35,
        "velocity": 41
      },
      {
        "beat": 3.518749952316284,
        "duration": 0.23125000298023224,
        "pitch": 36,
        "velocity": 35
      },
      {
        "beat": 3.75,
        "duration": 0.25,
        "pitch": 36,
        "velocity": 23
      },
      {
        "beat": 3.7562499046325684,
        "duration": 0.24375000596046448,
        "pitch": 35,
        "velocity": 29
      },
      {
        "beat": 3.762500047683716,
        "duration": 0.23749999701976776,
        "pitch": 34,
        "velocity": 10
      }
    ],
    "crc32": 3650621753,
    "midiSize": 350,
    "midiSha1": "5c1350eb198749b1698ecb035822f1428faf93b7"
  },
  {
    "code": "GEC2_17",
    "kind": "chord",
    "family": "GuitarEC",
    "modelType": "chord_model_str",
    "subtype": "strings",
    "bpm": 109,
    "beat": "4/4",
    "bnum": 44,
    "noteCount": 23,
    "midi": "pattern_midis/GEC2_17.mid",
    "notes": [
      {
        "beat": 0,
        "duration": 0.75,
        "pitch": 24,
        "velocity": 10
      },
      {
        "beat": 0,
        "duration": 0.21250000596046448,
        "pitch": 33,
        "velocity": 27
      },
      {
        "beat": 0.0062500000931322575,
        "duration": 0.20000000298023224,
        "pitch": 34,
        "velocity": 26
      },
      {
        "beat": 0.012500000186264515,
        "duration": 0.16458334028720856,
        "pitch": 35,
        "velocity": 41
      },
      {
        "beat": 0.774999976158142,
        "duration": 0.5,
        "pitch": 26,
        "velocity": 26
      },
      {
        "beat": 0.774999976158142,
        "duration": 0.21250000596046448,
        "pitch": 35,
        "velocity": 32
      },
      {
        "beat": 0.78125,
        "duration": 0.20208333432674408,
        "pitch": 34,
        "velocity": 17
      },
      {
        "beat": 0.787500023841858,
        "duration": 0.19583334028720856,
        "pitch": 33,
        "velocity": 30
      },
      {
        "beat": 1.274999976158142,
        "duration": 0.2708333432674408,
        "pitch": 24,
        "velocity": 10
      },
      {
        "beat": 1.274999976158142,
        "duration": 0.14166666567325592,
        "pitch": 34,
        "velocity": 26
      },
      {
        "beat": 1.5,
        "duration": 0.25,
        "pitch": 26,
        "velocity": 26
      },
      {
        "beat": 1.774999976158142,
        "duration": 0.4583333432674408,
        "pitch": 24,
        "velocity": 10
      },
      {
        "beat": 1.774999976158142,
        "duration": 0.5979166626930237,
        "pitch": 35,
        "velocity": 41
      },
      {
        "beat": 1.7791666984558105,
        "duration": 0.5541666746139526,
        "pitch": 34,
        "velocity": 26
      },
      {
        "beat": 1.78125,
        "duration": 0.6770833134651184,
        "pitch": 33,
        "velocity": 27
      },
      {
        "beat": 2.2750000953674316,
        "duration": 0.25,
        "pitch": 26,
        "velocity": 26
      },
      {
        "beat": 2.5,
        "duration": 0.5,
        "pitch": 24,
        "velocity": 26
      },
      {
        "beat": 2.5,
        "duration": 0.15833333134651184,
        "pitch": 33,
        "velocity": 6
      },
      {
        "beat": 2.504166603088379,
        "duration": 0.09583333134651184,
        "pitch": 34,
        "velocity": 17
      },
      {
        "beat": 2.5104167461395264,
        "duration": 0.09375,
        "pitch": 35,
        "velocity": 32
      },
      {
        "beat": 3,
        "duration": 0.75,
        "pitch": 24,
        "velocity": 26
      },
      {
        "beat": 3.277083396911621,
        "duration": 0.18333333730697632,
        "pitch": 33,
        "velocity": 1
      },
      {
        "beat": 3.5,
        "duration": 0.25,
        "pitch": 32,
        "velocity": 27
      }
    ],
    "crc32": 2215776463,
    "midiSize": 215,
    "midiSha1": "51744da11e187ea6ef88e024ede54dd6ced50fa7"
  },
  {
    "code": "GEC2_2",
    "kind": "chord",
    "family": "GuitarEC",
    "modelType": "chord_model_str",
    "subtype": "strings",
    "bpm": 95,
    "beat": "4/4",
    "bnum": 44,
    "noteCount": 11,
    "midi": "pattern_midis/GEC2_2.mid",
    "notes": [
      {
        "beat": 0,
        "duration": 1.0270832777023315,
        "pitch": 31,
        "velocity": 20
      },
      {
        "beat": 0.4958333373069763,
        "duration": 0.524999976158142,
        "pitch": 34,
        "velocity": 13
      },
      {
        "beat": 0.5020833611488342,
        "duration": 0.518750011920929,
        "pitch": 35,
        "velocity": 13
      },
      {
        "beat": 0.5104166865348816,
        "duration": 0.5104166865348816,
        "pitch": 36,
        "velocity": 12
      },
      {
        "beat": 1.4979166984558105,
        "duration": 0.9541666507720947,
        "pitch": 34,
        "velocity": 9
      },
      {
        "beat": 1.5,
        "duration": 1.5,
        "pitch": 31,
        "velocity": 16
      },
      {
        "beat": 1.5,
        "duration": 0.962499976158142,
        "pitch": 36,
        "velocity": 11
      },
      {
        "beat": 1.5041667222976685,
        "duration": 0.9583333134651184,
        "pitch": 35,
        "velocity": 8
      },
      {
        "beat": 2.49791669845581,
        "duration": 0.5020833611488342,
        "pitch": 34,
        "velocity": 20
      },
      {
        "beat": 2.5,
        "duration": 0.5,
        "pitch": 35,
        "velocity": 18
      },
      {
        "beat": 2.5,
        "duration": 0.5,
        "pitch": 36,
        "velocity": 11
      }
    ],
    "crc32": 2278963612,
    "midiSize": 128,
    "midiSha1": "fd5bb320f60532a81821a9c108fa80271a6e9519"
  },
  {
    "code": "GEC2_3",
    "kind": "chord",
    "family": "GuitarEC",
    "modelType": "chord_model_str",
    "subtype": "strings",
    "bpm": 97,
    "beat": "4/4",
    "bnum": 44,
    "noteCount": 9,
    "midi": "pattern_midis/GEC2_3.mid",
    "notes": [
      {
        "beat": 0,
        "duration": 1,
        "pitch": 31,
        "velocity": 20
      },
      {
        "beat": 0.02708333358168602,
        "duration": 0.4583333432674408,
        "pitch": 34,
        "velocity": 20
      },
      {
        "beat": 0.25,
        "duration": 0.75,
        "pitch": 33,
        "velocity": 21
      },
      {
        "beat": 0.5,
        "duration": 0.5,
        "pitch": 34,
        "velocity": 20
      },
      {
        "beat": 0.75,
        "duration": 0.25,
        "pitch": 35,
        "velocity": 20
      },
      {
        "beat": 1.5,
        "duration": 1.5,
        "pitch": 31,
        "velocity": 20
      },
      {
        "beat": 1.5208333730697632,
        "duration": 1.4791666269302368,
        "pitch": 34,
        "velocity": 20
      },
      {
        "beat": 1.5291666984558105,
        "duration": 1.4708333015441895,
        "pitch": 35,
        "velocity": 20
      },
      {
        "beat": 1.537500023841858,
        "duration": 1.462499976158142,
        "pitch": 33,
        "velocity": 21
      }
    ],
    "crc32": 2093282386,
    "midiSize": 113,
    "midiSha1": "400159e8adeda5faae8e682180ca78871f17a4ce"
  },
  {
    "code": "GEC2_4",
    "kind": "chord",
    "family": "GuitarEC",
    "modelType": "chord_model_str",
    "subtype": "strings",
    "bpm": 70,
    "beat": "4/4",
    "bnum": 44,
    "noteCount": 8,
    "midi": "pattern_midis/GEC2_4.mid",
    "notes": [
      {
        "beat": 0,
        "duration": 4.110416889190674,
        "pitch": 31,
        "velocity": 30
      },
      {
        "beat": 0.5,
        "duration": 0.9770833253860474,
        "pitch": 34,
        "velocity": 26
      },
      {
        "beat": 1,
        "duration": 1.9770833253860474,
        "pitch": 35,
        "velocity": 23
      },
      {
        "beat": 1.5,
        "duration": 0.9770833253860474,
        "pitch": 34,
        "velocity": 23
      },
      {
        "beat": 2,
        "duration": 2.1104166507720947,
        "pitch": 36,
        "velocity": 27
      },
      {
        "beat": 2.5,
        "duration": 0.9770833253860474,
        "pitch": 34,
        "velocity": 19
      },
      {
        "beat": 3,
        "duration": 1.0145833492279053,
        "pitch": 35,
        "velocity": 19
      },
      {
        "beat": 3.5,
        "duration": 0.512499988079071,
        "pitch": 34,
        "velocity": 25
      }
    ],
    "crc32": 3900479308,
    "midiSize": 117,
    "midiSha1": "7804c35f1e8030ed778297403d2f14a1355ebd3b"
  },
  {
    "code": "GEC2_5",
    "kind": "chord",
    "family": "GuitarEC",
    "modelType": "chord_model_str",
    "subtype": "strings",
    "bpm": 80,
    "beat": "4/4",
    "bnum": 86,
    "noteCount": 6,
    "midi": "pattern_midis/GEC2_5.mid",
    "notes": [
      {
        "beat": 0,
        "duration": 3.0416667461395264,
        "pitch": 31,
        "velocity": 28
      },
      {
        "beat": 0.5,
        "duration": 1.9791666269302368,
        "pitch": 34,
        "velocity": 28
      },
      {
        "beat": 1,
        "duration": 0.9770833253860474,
        "pitch": 35,
        "velocity": 29
      },
      {
        "beat": 1.5,
        "duration": 1.5458333492279053,
        "pitch": 36,
        "velocity": 30
      },
      {
        "beat": 2,
        "duration": 1.0145833492279053,
        "pitch": 35,
        "velocity": 27
      },
      {
        "beat": 2.5,
        "duration": 0.5166666507720947,
        "pitch": 34,
        "velocity": 21
      }
    ],
    "crc32": 689500897,
    "midiSize": 99,
    "midiSha1": "13b7559aaf91a6f6763fc6564e2e6de6c0546780"
  },
  {
    "code": "GEC2_6",
    "kind": "chord",
    "family": "GuitarEC",
    "modelType": "chord_model_str",
    "subtype": "strings",
    "bpm": 70,
    "beat": "4/4",
    "bnum": 44,
    "noteCount": 28,
    "midi": "pattern_midis/GEC2_6.mid",
    "notes": [
      {
        "beat": 0,
        "duration": 2,
        "pitch": 31,
        "velocity": 27
      },
      {
        "beat": 0.012500000186264515,
        "duration": 1.9916666746139526,
        "pitch": 32,
        "velocity": 25
      },
      {
        "beat": 0.02916666679084301,
        "duration": 1.9916666746139526,
        "pitch": 33,
        "velocity": 31
      },
      {
        "beat": 0.04583333432674408,
        "duration": 0.9541666507720947,
        "pitch": 34,
        "velocity": 33
      },
      {
        "beat": 0.0687500014901161,
        "duration": 0.949999988079071,
        "pitch": 35,
        "velocity": 34
      },
      {
        "beat": 0.08958332985639572,
        "duration": 0.9416666626930237,
        "pitch": 36,
        "velocity": 21
      },
      {
        "beat": 1,
        "duration": 0.5,
        "pitch": 34,
        "velocity": 30
      },
      {
        "beat": 1.0208333730697632,
        "duration": 0.4958333373069763,
        "pitch": 35,
        "velocity": 30
      },
      {
        "beat": 1.0395833253860474,
        "duration": 0.7104166746139526,
        "pitch": 36,
        "velocity": 15
      },
      {
        "beat": 1.5,
        "duration": 0.25,
        "pitch": 34,
        "velocity": 28
      },
      {
        "beat": 1.5229166746139526,
        "duration": 0.22708334028720856,
        "pitch": 35,
        "velocity": 24
      },
      {
        "beat": 1.75,
        "duration": 0.3333333432674408,
        "pitch": 36,
        "velocity": 19
      },
      {
        "beat": 1.7687499523162842,
        "duration": 0.2979166805744171,
        "pitch": 35,
        "velocity": 24
      },
      {
        "beat": 1.787500023841858,
        "duration": 0.2562499940395355,
        "pitch": 34,
        "velocity": 28
      },
      {
        "beat": 2,
        "duration": 2,
        "pitch": 31,
        "velocity": 17
      },
      {
        "beat": 2.0145833492279053,
        "duration": 1.9854166507720947,
        "pitch": 32,
        "velocity": 17
      },
      {
        "beat": 2.02916669845581,
        "duration": 1.975000023841858,
        "pitch": 33,
        "velocity": 30
      },
      {
        "beat": 2.0479166507720947,
        "duration": 0.9520833492279053,
        "pitch": 34,
        "velocity": 27
      },
      {
        "beat": 2.0687499046325684,
        "duration": 0.9479166865348816,
        "pitch": 35,
        "velocity": 27
      },
      {
        "beat": 2.089583396911621,
        "duration": 0.9416666626930237,
        "pitch": 36,
        "velocity": 20
      },
      {
        "beat": 3,
        "duration": 0.5,
        "pitch": 34,
        "velocity": 19
      },
      {
        "beat": 3.018749952316284,
        "duration": 0.49166667461395264,
        "pitch": 35,
        "velocity": 29
      },
      {
        "beat": 3.0374999046325684,
        "duration": 0.712499976158142,
        "pitch": 36,
        "velocity": 16
      },
      {
        "beat": 3.5,
        "duration": 0.2708333432674408,
        "pitch": 34,
        "velocity": 17
      },
      {
        "beat": 3.518749952316284,
        "duration": 0.24166665971279144,
        "pitch": 35,
        "velocity": 27
      },
      {
        "beat": 3.75,
        "duration": 0.25,
        "pitch": 36,
        "velocity": 19
      },
      {
        "beat": 3.7645833492279053,
        "duration": 0.2562499940395355,
        "pitch": 35,
        "velocity": 27
      },
      {
        "beat": 3.772916555404663,
        "duration": 0.2562499940395355,
        "pitch": 34,
        "velocity": 17
      }
    ],
    "crc32": 2812582420,
    "midiSize": 253,
    "midiSha1": "ddb9bd13b6d9731b6b859696f74cc418e18548ad"
  },
  {
    "code": "GEC2_7",
    "kind": "chord",
    "family": "GuitarEC",
    "modelType": "chord_model_str",
    "subtype": "strings",
    "bpm": 85,
    "beat": "4/4",
    "bnum": 44,
    "noteCount": 8,
    "midi": "pattern_midis/GEC2_7.mid",
    "notes": [
      {
        "beat": 0,
        "duration": 4.110416889190674,
        "pitch": 31,
        "velocity": 29
      },
      {
        "beat": 0.5,
        "duration": 2.987499952316284,
        "pitch": 33,
        "velocity": 17
      },
      {
        "beat": 1,
        "duration": 1.9770833253860474,
        "pitch": 34,
        "velocity": 23
      },
      {
        "beat": 1.5,
        "duration": 0.987500011920929,
        "pitch": 35,
        "velocity": 25
      },
      {
        "beat": 2,
        "duration": 2.1104166507720947,
        "pitch": 36,
        "velocity": 31
      },
      {
        "beat": 2.5,
        "duration": 1.5187499523162842,
        "pitch": 35,
        "velocity": 25
      },
      {
        "beat": 3,
        "duration": 1.0145833492279053,
        "pitch": 34,
        "velocity": 27
      },
      {
        "beat": 3.5,
        "duration": 0.512499988079071,
        "pitch": 33,
        "velocity": 21
      }
    ],
    "crc32": 1320679906,
    "midiSize": 115,
    "midiSha1": "407cf24a549c1fff0a5df34f8f20396536292cd2"
  },
  {
    "code": "GEC2_8",
    "kind": "chord",
    "family": "GuitarEC",
    "modelType": "chord_model_str",
    "subtype": "strings",
    "bpm": 70,
    "beat": "4/4",
    "bnum": 44,
    "noteCount": 14,
    "midi": "pattern_midis/GEC2_8.mid",
    "notes": [
      {
        "beat": 0,
        "duration": 2,
        "pitch": 31,
        "velocity": 27
      },
      {
        "beat": 0,
        "duration": 0.9895833134651184,
        "pitch": 34,
        "velocity": 26
      },
      {
        "beat": 0,
        "duration": 0.9895833134651184,
        "pitch": 36,
        "velocity": 18
      },
      {
        "beat": 0.008333333767950535,
        "duration": 0.9708333611488342,
        "pitch": 35,
        "velocity": 21
      },
      {
        "beat": 1.0020833015441895,
        "duration": 0.9979166388511658,
        "pitch": 35,
        "velocity": 12
      },
      {
        "beat": 1.006250023841858,
        "duration": 0.993749976158142,
        "pitch": 34,
        "velocity": 21
      },
      {
        "beat": 1.006250023841858,
        "duration": 0.993749976158142,
        "pitch": 36,
        "velocity": 1
      },
      {
        "beat": 2,
        "duration": 2.0458333492279053,
        "pitch": 31,
        "velocity": 17
      },
      {
        "beat": 2.008333444595337,
        "duration": 0.987500011920929,
        "pitch": 34,
        "velocity": 24
      },
      {
        "beat": 2.0104167461395264,
        "duration": 0.981249988079071,
        "pitch": 36,
        "velocity": 12
      },
      {
        "beat": 2.0145833492279053,
        "duration": 0.9708333611488342,
        "pitch": 35,
        "velocity": 16
      },
      {
        "beat": 3,
        "duration": 1.0125000476837158,
        "pitch": 34,
        "velocity": 29
      },
      {
        "beat": 3.0062499046325684,
        "duration": 1.006250023841858,
        "pitch": 35,
        "velocity": 10
      },
      {
        "beat": 3.008333444595337,
        "duration": 1.0395833253860474,
        "pitch": 36,
        "velocity": 7
      }
    ],
    "crc32": 551272994,
    "midiSize": 147,
    "midiSha1": "17cb63e59ee2d73028121ca8158af8f0d61eec7b"
  },
  {
    "code": "GEC2_9",
    "kind": "chord",
    "family": "GuitarEC",
    "modelType": "chord_model_str",
    "subtype": "strings",
    "bpm": 70,
    "beat": "4/4",
    "bnum": 44,
    "noteCount": 17,
    "midi": "pattern_midis/GEC2_9.mid",
    "notes": [
      {
        "beat": 0,
        "duration": 0.25,
        "pitch": 24,
        "velocity": 100
      },
      {
        "beat": 0,
        "duration": 2,
        "pitch": 31,
        "velocity": 27
      },
      {
        "beat": 0,
        "duration": 0.4937500059604645,
        "pitch": 34,
        "velocity": 26
      },
      {
        "beat": 0,
        "duration": 0.9895833134651184,
        "pitch": 36,
        "velocity": 25
      },
      {
        "beat": 0.008333333767950535,
        "duration": 0.9708333611488342,
        "pitch": 35,
        "velocity": 21
      },
      {
        "beat": 0.5,
        "duration": 0.9916666746139526,
        "pitch": 34,
        "velocity": 18
      },
      {
        "beat": 1.0020833015441895,
        "duration": 0.9979166388511658,
        "pitch": 35,
        "velocity": 12
      },
      {
        "beat": 1.006250023841858,
        "duration": 0.993749976158142,
        "pitch": 36,
        "velocity": 9
      },
      {
        "beat": 1.5,
        "duration": 0.9916666746139526,
        "pitch": 34,
        "velocity": 17
      },
      {
        "beat": 2,
        "duration": 0.25,
        "pitch": 24,
        "velocity": 100
      },
      {
        "beat": 2,
        "duration": 2.0458333492279053,
        "pitch": 31,
        "velocity": 17
      },
      {
        "beat": 2,
        "duration": 0.9916666746139526,
        "pitch": 36,
        "velocity": 18
      },
      {
        "beat": 2.0145833492279053,
        "duration": 0.9708333611488342,
        "pitch": 35,
        "velocity": 21
      },
      {
        "beat": 2.5,
        "duration": 0.9916666746139526,
        "pitch": 34,
        "velocity": 24
      },
      {
        "beat": 3,
        "duration": 1.0083333253860474,
        "pitch": 35,
        "velocity": 10
      },
      {
        "beat": 3,
        "duration": 1.0395833253860474,
        "pitch": 36,
        "velocity": 16
      },
      {
        "beat": 3.5,
        "duration": 0.512499988079071,
        "pitch": 34,
        "velocity": 25
      }
    ],
    "crc32": 2605382757,
    "midiSize": 175,
    "midiSha1": "d2d88f65dfb1c1f641b0b251168690925e5eb0b7"
  },
  {
    "code": "GED1_1",
    "kind": "chord",
    "family": "GuitarED",
    "modelType": "chord_model_str",
    "subtype": "strings",
    "bpm": 170,
    "beat": "4/4",
    "bnum": 44,
    "noteCount": 16,
    "midi": "pattern_midis/GED1_1.mid",
    "notes": [
      {
        "beat": 0,
        "duration": 0.4958333373069763,
        "pitch": 7,
        "velocity": 70
      },
      {
        "beat": 0.0625,
        "duration": 0.46875,
        "pitch": 8,
        "velocity": 51
      },
      {
        "beat": 0.5,
        "duration": 0.4854166805744171,
        "pitch": 7,
        "velocity": 10
      },
      {
        "beat": 0.5479166507720947,
        "duration": 0.4729166626930237,
        "pitch": 8,
        "velocity": 10
      },
      {
        "beat": 1,
        "duration": 0.49791666865348816,
        "pitch": 7,
        "velocity": 20
      },
      {
        "beat": 1.0437500476837158,
        "duration": 0.487500011920929,
        "pitch": 8,
        "velocity": 20
      },
      {
        "beat": 1.5,
        "duration": 0.5,
        "pitch": 7,
        "velocity": 60
      },
      {
        "beat": 1.5437500476837158,
        "duration": 0.4791666567325592,
        "pitch": 8,
        "velocity": 60
      },
      {
        "beat": 2,
        "duration": 0.49166667461395264,
        "pitch": 7,
        "velocity": 10
      },
      {
        "beat": 2.0374999046325684,
        "duration": 0.4895833432674408,
        "pitch": 8,
        "velocity": 10
      },
      {
        "beat": 2.5,
        "duration": 0.49791666865348816,
        "pitch": 7,
        "velocity": 20
      },
      {
        "beat": 2.543750047683716,
        "duration": 0.4937500059604645,
        "pitch": 8,
        "velocity": 20
      },
      {
        "beat": 3,
        "duration": 0.4854166805744171,
        "pitch": 7,
        "velocity": 80
      },
      {
        "beat": 3.043750047683716,
        "duration": 0.487500011920929,
        "pitch": 8,
        "velocity": 80
      },
      {
        "beat": 3.5,
        "duration": 0.53125,
        "pitch": 7,
        "velocity": 20
      },
      {
        "beat": 3.543750047683716,
        "duration": 0.487500011920929,
        "pitch": 8,
        "velocity": 10
      }
    ],
    "crc32": 2512283270,
    "midiSize": 183,
    "midiSha1": "d5d0c8d50c1bc5d85f77727f0c9b3ee27c881ebd"
  },
  {
    "code": "GED1_2",
    "kind": "chord",
    "family": "GuitarED",
    "modelType": "chord_model_str",
    "subtype": "strings",
    "bpm": 155,
    "beat": "4/4",
    "bnum": 44,
    "noteCount": 13,
    "midi": "pattern_midis/GED1_2.mid",
    "notes": [
      {
        "beat": 0,
        "duration": 0.4958333373069763,
        "pitch": 7,
        "velocity": 29
      },
      {
        "beat": 0.0416666679084301,
        "duration": 0.4958333373069763,
        "pitch": 8,
        "velocity": 29
      },
      {
        "beat": 0.5,
        "duration": 0.5,
        "pitch": 7,
        "velocity": 29
      },
      {
        "beat": 0.5416666865348816,
        "duration": 0.43541666865348816,
        "pitch": 8,
        "velocity": 29
      },
      {
        "beat": 1,
        "duration": 0.5145833492279053,
        "pitch": 8,
        "velocity": 56
      },
      {
        "beat": 1.5,
        "duration": 0.5,
        "pitch": 7,
        "velocity": 28
      },
      {
        "beat": 1.5229166746139526,
        "duration": 0.47708332538604736,
        "pitch": 8,
        "velocity": 28
      },
      {
        "beat": 2,
        "duration": 0.5,
        "pitch": 7,
        "velocity": 28
      },
      {
        "beat": 2.008333444595337,
        "duration": 0.46875,
        "pitch": 8,
        "velocity": 28
      },
      {
        "beat": 2.50208330154419,
        "duration": 0.4937500059604645,
        "pitch": 9,
        "velocity": 68
      },
      {
        "beat": 3.043750047683716,
        "duration": 0.487500011920929,
        "pitch": 8,
        "velocity": 68
      },
      {
        "beat": 3.5,
        "duration": 0.512499988079071,
        "pitch": 7,
        "velocity": 28
      },
      {
        "beat": 3.543750047683716,
        "duration": 0.4833333194255829,
        "pitch": 8,
        "velocity": 29
      }
    ],
    "crc32": 2774461547,
    "midiSize": 157,
    "midiSha1": "2f1417d74e52ddcbdd6f704030c9dd27eba7df08"
  },
  {
    "code": "GED1_3",
    "kind": "chord",
    "family": "GuitarED",
    "modelType": "chord_model_str",
    "subtype": "strings",
    "bpm": 140,
    "beat": "4/4",
    "bnum": 44,
    "noteCount": 16,
    "midi": "pattern_midis/GED1_3.mid",
    "notes": [
      {
        "beat": 0,
        "duration": 0.4958333373069763,
        "pitch": 7,
        "velocity": 61
      },
      {
        "beat": 0.0625,
        "duration": 0.46875,
        "pitch": 8,
        "velocity": 61
      },
      {
        "beat": 0.5,
        "duration": 0.4854166805744171,
        "pitch": 7,
        "velocity": 10
      },
      {
        "beat": 0.5479166507720947,
        "duration": 0.4729166626930237,
        "pitch": 8,
        "velocity": 10
      },
      {
        "beat": 1,
        "duration": 0.49791666865348816,
        "pitch": 7,
        "velocity": 20
      },
      {
        "beat": 1.0437500476837158,
        "duration": 0.487500011920929,
        "pitch": 8,
        "velocity": 20
      },
      {
        "beat": 1.5,
        "duration": 0.5,
        "pitch": 7,
        "velocity": 20
      },
      {
        "beat": 1.5437500476837158,
        "duration": 0.4895833432674408,
        "pitch": 8,
        "velocity": 20
      },
      {
        "beat": 2,
        "duration": 0.49166667461395264,
        "pitch": 7,
        "velocity": 10
      },
      {
        "beat": 2.0374999046325684,
        "duration": 0.4895833432674408,
        "pitch": 8,
        "velocity": 10
      },
      {
        "beat": 2.5,
        "duration": 0.49791666865348816,
        "pitch": 7,
        "velocity": 20
      },
      {
        "beat": 2.543750047683716,
        "duration": 0.4937500059604645,
        "pitch": 8,
        "velocity": 20
      },
      {
        "beat": 3,
        "duration": 0.49166667461395264,
        "pitch": 7,
        "velocity": 10
      },
      {
        "beat": 3.0374999046325684,
        "duration": 0.4895833432674408,
        "pitch": 8,
        "velocity": 10
      },
      {
        "beat": 3.5,
        "duration": 0.5104166865348816,
        "pitch": 7,
        "velocity": 20
      },
      {
        "beat": 3.543750047683716,
        "duration": 0.49166667461395264,
        "pitch": 8,
        "velocity": 10
      }
    ],
    "crc32": 647188031,
    "midiSize": 181,
    "midiSha1": "223e965c9278e3b6c4f95d8801f10755915248cd"
  },
  {
    "code": "GED1_4",
    "kind": "chord",
    "family": "GuitarED",
    "modelType": "chord_model_str",
    "subtype": "strings",
    "bpm": 165,
    "beat": "4/4",
    "bnum": 44,
    "noteCount": 16,
    "midi": "pattern_midis/GED1_4.mid",
    "notes": [
      {
        "beat": 0,
        "duration": 0.4958333373069763,
        "pitch": 7,
        "velocity": 24
      },
      {
        "beat": 0.008333333767950535,
        "duration": 0.5229166746139526,
        "pitch": 8,
        "velocity": 22
      },
      {
        "beat": 0.5,
        "duration": 0.4854166805744171,
        "pitch": 7,
        "velocity": 22
      },
      {
        "beat": 0.537500023841858,
        "duration": 0.4749999940395355,
        "pitch": 8,
        "velocity": 22
      },
      {
        "beat": 1,
        "duration": 0.49791666865348816,
        "pitch": 7,
        "velocity": 20
      },
      {
        "beat": 1.0229166746139526,
        "duration": 0.4937500059604645,
        "pitch": 8,
        "velocity": 20
      },
      {
        "beat": 1.5,
        "duration": 0.5,
        "pitch": 7,
        "velocity": 20
      },
      {
        "beat": 1.5187499523162842,
        "duration": 0.5041666626930237,
        "pitch": 8,
        "velocity": 20
      },
      {
        "beat": 2,
        "duration": 0.49166667461395264,
        "pitch": 7,
        "velocity": 17
      },
      {
        "beat": 2.027083396911621,
        "duration": 0.49166667461395264,
        "pitch": 8,
        "velocity": 17
      },
      {
        "beat": 2.5,
        "duration": 0.49791666865348816,
        "pitch": 7,
        "velocity": 16
      },
      {
        "beat": 2.5208332538604736,
        "duration": 0.4895833432674408,
        "pitch": 8,
        "velocity": 16
      },
      {
        "beat": 3,
        "duration": 0.5,
        "pitch": 7,
        "velocity": 18
      },
      {
        "beat": 3.0166666507720947,
        "duration": 0.5,
        "pitch": 8,
        "velocity": 18
      },
      {
        "beat": 3.5,
        "duration": 0.53125,
        "pitch": 7,
        "velocity": 20
      },
      {
        "beat": 3.5208332538604736,
        "duration": 0.5104166865348816,
        "pitch": 8,
        "velocity": 13
      }
    ],
    "crc32": 3975527191,
    "midiSize": 181,
    "midiSha1": "ed1fc1b8019f0763043623daf33fc0868e390d62"
  },
  {
    "code": "GED1_5",
    "kind": "chord",
    "family": "GuitarED",
    "modelType": "chord_model_str",
    "subtype": "strings",
    "bpm": 165,
    "beat": "4/4",
    "bnum": 44,
    "noteCount": 4,
    "midi": "pattern_midis/GED1_5.mid",
    "notes": [
      {
        "beat": 0,
        "duration": 2,
        "pitch": 7,
        "velocity": 86
      },
      {
        "beat": 0.02916666679084301,
        "duration": 1.9833333492279053,
        "pitch": 8,
        "velocity": 61
      },
      {
        "beat": 2,
        "duration": 2,
        "pitch": 7,
        "velocity": 86
      },
      {
        "beat": 2.022916555404663,
        "duration": 1.9770833253860474,
        "pitch": 8,
        "velocity": 61
      }
    ],
    "crc32": 1285263426,
    "midiSize": 81,
    "midiSha1": "d558978c0d3362cb93cc887587d17fb38e671ce1"
  },
  {
    "code": "GED1_6",
    "kind": "chord",
    "family": "GuitarED",
    "modelType": "chord_model_str",
    "subtype": "strings",
    "bpm": 165,
    "beat": "4/4",
    "bnum": 44,
    "noteCount": 4,
    "midi": "pattern_midis/GED1_6.mid",
    "notes": [
      {
        "beat": 0,
        "duration": 2,
        "pitch": 7,
        "velocity": 29
      },
      {
        "beat": 0.02916666679084301,
        "duration": 1.9833333492279053,
        "pitch": 8,
        "velocity": 29
      },
      {
        "beat": 2,
        "duration": 2,
        "pitch": 7,
        "velocity": 29
      },
      {
        "beat": 2.022916555404663,
        "duration": 1.9770833253860474,
        "pitch": 8,
        "velocity": 29
      }
    ],
    "crc32": 121759741,
    "midiSize": 81,
    "midiSha1": "d3bca8078e8ddad6ae15fd99591030c8665e4e9f"
  },
  {
    "code": "GED2_1",
    "kind": "chord",
    "family": "GuitarED",
    "modelType": "chord_model_str",
    "subtype": "strings",
    "bpm": 81,
    "beat": "4/4",
    "bnum": 44,
    "noteCount": 4,
    "midi": "pattern_midis/GED2_1.mid",
    "notes": [
      {
        "beat": 0,
        "duration": 2,
        "pitch": 7,
        "velocity": 60
      },
      {
        "beat": 0.03125,
        "duration": 1.96875,
        "pitch": 8,
        "velocity": 50
      },
      {
        "beat": 2,
        "duration": 2,
        "pitch": 7,
        "velocity": 60
      },
      {
        "beat": 2.03125,
        "duration": 1.96875,
        "pitch": 8,
        "velocity": 50
      }
    ],
    "crc32": 3199393831,
    "midiSize": 81,
    "midiSha1": "7245a39f3ae88d01f5639cc6b87e263a230ba645"
  },
  {
    "code": "GED2_2",
    "kind": "chord",
    "family": "GuitarED",
    "modelType": "chord_model_str",
    "subtype": "strings",
    "bpm": 140,
    "beat": "4/4",
    "bnum": 44,
    "noteCount": 4,
    "midi": "pattern_midis/GED2_2.mid",
    "notes": [
      {
        "beat": 0,
        "duration": 2,
        "pitch": 7,
        "velocity": 28
      },
      {
        "beat": 0.03750000149011612,
        "duration": 1.9833333492279053,
        "pitch": 8,
        "velocity": 29
      },
      {
        "beat": 2,
        "duration": 2,
        "pitch": 7,
        "velocity": 28
      },
      {
        "beat": 2.0416667461395264,
        "duration": 1.9583333730697632,
        "pitch": 8,
        "velocity": 29
      }
    ],
    "crc32": 1476955126,
    "midiSize": 81,
    "midiSha1": "d408316945333e9751b71f44c7793b78f2a9f5d9"
  },
  {
    "code": "GED2_3",
    "kind": "chord",
    "family": "GuitarED",
    "modelType": "chord_model_str",
    "subtype": "strings",
    "bpm": 165,
    "beat": "4/4",
    "bnum": 44,
    "noteCount": 16,
    "midi": "pattern_midis/GED2_3.mid",
    "notes": [
      {
        "beat": 0,
        "duration": 0.4958333373069763,
        "pitch": 7,
        "velocity": 24
      },
      {
        "beat": 0.008333333767950535,
        "duration": 0.5229166746139526,
        "pitch": 8,
        "velocity": 22
      },
      {
        "beat": 0.5,
        "duration": 0.4854166805744171,
        "pitch": 7,
        "velocity": 22
      },
      {
        "beat": 0.537500023841858,
        "duration": 0.4749999940395355,
        "pitch": 8,
        "velocity": 22
      },
      {
        "beat": 1,
        "duration": 0.49791666865348816,
        "pitch": 7,
        "velocity": 20
      },
      {
        "beat": 1.0229166746139526,
        "duration": 0.4937500059604645,
        "pitch": 8,
        "velocity": 20
      },
      {
        "beat": 1.5,
        "duration": 0.5,
        "pitch": 7,
        "velocity": 20
      },
      {
        "beat": 1.5187499523162842,
        "duration": 0.5041666626930237,
        "pitch": 8,
        "velocity": 20
      },
      {
        "beat": 2,
        "duration": 0.49166667461395264,
        "pitch": 7,
        "velocity": 17
      },
      {
        "beat": 2.027083396911621,
        "duration": 0.49166667461395264,
        "pitch": 8,
        "velocity": 17
      },
      {
        "beat": 2.5,
        "duration": 0.49791666865348816,
        "pitch": 7,
        "velocity": 16
      },
      {
        "beat": 2.5208332538604736,
        "duration": 0.4895833432674408,
        "pitch": 8,
        "velocity": 16
      },
      {
        "beat": 3,
        "duration": 0.5,
        "pitch": 7,
        "velocity": 18
      },
      {
        "beat": 3.0166666507720947,
        "duration": 0.5,
        "pitch": 8,
        "velocity": 18
      },
      {
        "beat": 3.5,
        "duration": 0.53125,
        "pitch": 7,
        "velocity": 20
      },
      {
        "beat": 3.5208332538604736,
        "duration": 0.5104166865348816,
        "pitch": 8,
        "velocity": 13
      }
    ],
    "crc32": 3527759050,
    "midiSize": 181,
    "midiSha1": "4607e2a9f5222ef2a1b20a5fb19fd386cef3467e"
  },
  {
    "code": "GED2_4",
    "kind": "chord",
    "family": "GuitarED",
    "modelType": "chord_model_str",
    "subtype": "strings",
    "bpm": 150,
    "beat": "4/4",
    "bnum": 44,
    "noteCount": 16,
    "midi": "pattern_midis/GED2_4.mid",
    "notes": [
      {
        "beat": 0,
        "duration": 0.5,
        "pitch": 7,
        "velocity": 63
      },
      {
        "beat": 0.0416666679084301,
        "duration": 0.4583333432674408,
        "pitch": 8,
        "velocity": 65
      },
      {
        "beat": 0.5,
        "duration": 0.512499988079071,
        "pitch": 8,
        "velocity": 66
      },
      {
        "beat": 0.5104166865348816,
        "duration": 0.4895833432674408,
        "pitch": 7,
        "velocity": 64
      },
      {
        "beat": 1,
        "duration": 0.49791666865348816,
        "pitch": 7,
        "velocity": 64
      },
      {
        "beat": 1.0166666507720947,
        "duration": 0.47708332538604736,
        "pitch": 8,
        "velocity": 65
      },
      {
        "beat": 1.506250023841858,
        "duration": 0.506250023841858,
        "pitch": 8,
        "velocity": 64
      },
      {
        "beat": 1.5083333253860474,
        "duration": 0.49166667461395264,
        "pitch": 7,
        "velocity": 63
      },
      {
        "beat": 2,
        "duration": 0.506250023841858,
        "pitch": 7,
        "velocity": 64
      },
      {
        "beat": 2.0145833492279053,
        "duration": 0.4854166805744171,
        "pitch": 8,
        "velocity": 66
      },
      {
        "beat": 2.5062499046325684,
        "duration": 0.5,
        "pitch": 8,
        "velocity": 64
      },
      {
        "beat": 2.512500047683716,
        "duration": 0.487500011920929,
        "pitch": 7,
        "velocity": 64
      },
      {
        "beat": 3,
        "duration": 0.506250023841858,
        "pitch": 7,
        "velocity": 63
      },
      {
        "beat": 3.012500047683716,
        "duration": 0.487500011920929,
        "pitch": 8,
        "velocity": 65
      },
      {
        "beat": 3.5062499046325684,
        "duration": 0.4937500059604645,
        "pitch": 8,
        "velocity": 65
      },
      {
        "beat": 3.512500047683716,
        "duration": 0.487500011920929,
        "pitch": 7,
        "velocity": 64
      }
    ],
    "crc32": 1767084275,
    "midiSize": 175,
    "midiSha1": "45b34628ce381509b492fcc857b4fbf7816d7ea9"
  },
  {
    "code": "GED2_5",
    "kind": "chord",
    "family": "GuitarED",
    "modelType": "chord_model_str",
    "subtype": "strings",
    "bpm": 140,
    "beat": "4/4",
    "bnum": 44,
    "noteCount": 4,
    "midi": "pattern_midis/GED2_5.mid",
    "notes": [
      {
        "beat": 0,
        "duration": 2,
        "pitch": 7,
        "velocity": 76
      },
      {
        "beat": 0.03750000149011612,
        "duration": 1.975000023841858,
        "pitch": 8,
        "velocity": 53
      },
      {
        "beat": 2,
        "duration": 2,
        "pitch": 7,
        "velocity": 76
      },
      {
        "beat": 2.022916555404663,
        "duration": 1.9770833253860474,
        "pitch": 8,
        "velocity": 53
      }
    ],
    "crc32": 2975046255,
    "midiSize": 81,
    "midiSha1": "75b29c982ad3c1aa52b1caf7ed94ffb978a16af9"
  },
  {
    "code": "GED2_6",
    "kind": "chord",
    "family": "GuitarED",
    "modelType": "chord_model_str",
    "subtype": "strings",
    "bpm": 130,
    "beat": "4/4",
    "bnum": 44,
    "noteCount": 4,
    "midi": "pattern_midis/GED2_6.mid",
    "notes": [
      {
        "beat": 0,
        "duration": 2,
        "pitch": 7,
        "velocity": 76
      },
      {
        "beat": 0.03750000149011612,
        "duration": 1.975000023841858,
        "pitch": 8,
        "velocity": 53
      },
      {
        "beat": 2,
        "duration": 2,
        "pitch": 7,
        "velocity": 76
      },
      {
        "beat": 2.022916555404663,
        "duration": 1.9770833253860474,
        "pitch": 8,
        "velocity": 53
      }
    ],
    "crc32": 3818964184,
    "midiSize": 81,
    "midiSha1": "921ee595364c4ca34efa81f79ef6170867a27d39"
  },
  {
    "code": "GN_1",
    "kind": "chord",
    "family": "GuitarN",
    "modelType": "chord_model_str",
    "subtype": "strings",
    "bpm": 110,
    "beat": "4/4",
    "bnum": 44,
    "noteCount": 8,
    "midi": "pattern_midis/GN_1.mid",
    "notes": [
      {
        "beat": 0,
        "duration": 4.09375,
        "pitch": 31,
        "velocity": 23
      },
      {
        "beat": 0.5,
        "duration": 1.4583333730697632,
        "pitch": 34,
        "velocity": 33
      },
      {
        "beat": 1,
        "duration": 2.4583332538604736,
        "pitch": 35,
        "velocity": 30
      },
      {
        "beat": 1.5,
        "duration": 1.4583333730697632,
        "pitch": 33,
        "velocity": 21
      },
      {
        "beat": 2,
        "duration": 2.0208332538604736,
        "pitch": 34,
        "velocity": 33
      },
      {
        "beat": 2.5,
        "duration": 1.59375,
        "pitch": 36,
        "velocity": 40
      },
      {
        "beat": 3,
        "duration": 1.0104166269302368,
        "pitch": 33,
        "velocity": 21
      },
      {
        "beat": 3.5,
        "duration": 0.5104166865348816,
        "pitch": 35,
        "velocity": 32
      }
    ],
    "crc32": 1830566591,
    "midiSize": 113,
    "midiSha1": "388a7e3384dfc98476dfe2901ae6250e734ac091"
  },
  {
    "code": "GN_10",
    "kind": "chord",
    "family": "GuitarN",
    "modelType": "chord_model_str",
    "subtype": "strings",
    "bpm": 70,
    "beat": "4/4",
    "bnum": 44,
    "noteCount": 24,
    "midi": "pattern_midis/GN_10.mid",
    "notes": [
      {
        "beat": 0,
        "duration": 0.25,
        "pitch": 24,
        "velocity": 100
      },
      {
        "beat": 0,
        "duration": 2,
        "pitch": 31,
        "velocity": 33
      },
      {
        "beat": 0.008333333767950535,
        "duration": 1.9979166984558105,
        "pitch": 32,
        "velocity": 31
      },
      {
        "beat": 0.012500000186264515,
        "duration": 1.9958332777023315,
        "pitch": 33,
        "velocity": 37
      },
      {
        "beat": 0.01666666753590107,
        "duration": 0.9833333492279053,
        "pitch": 34,
        "velocity": 37
      },
      {
        "beat": 0.02083333395421505,
        "duration": 0.987500011920929,
        "pitch": 35,
        "velocity": 28
      },
      {
        "beat": 0.02916666679084301,
        "duration": 0.993749976158142,
        "pitch": 36,
        "velocity": 44
      },
      {
        "beat": 1,
        "duration": 0.75,
        "pitch": 34,
        "velocity": 41
      },
      {
        "beat": 1.0083333253860474,
        "duration": 0.75,
        "pitch": 35,
        "velocity": 40
      },
      {
        "beat": 1.0229166746139526,
        "duration": 1.0041667222976685,
        "pitch": 36,
        "velocity": 23
      },
      {
        "beat": 1.75,
        "duration": 0.262499988079071,
        "pitch": 34,
        "velocity": 45
      },
      {
        "beat": 1.7583333253860474,
        "duration": 0.25833332538604736,
        "pitch": 35,
        "velocity": 28
      },
      {
        "beat": 2,
        "duration": 0.25,
        "pitch": 24,
        "velocity": 100
      },
      {
        "beat": 2,
        "duration": 2.043750047683716,
        "pitch": 31,
        "velocity": 33
      },
      {
        "beat": 2.008333444595337,
        "duration": 2.00208330154419,
        "pitch": 32,
        "velocity": 31
      },
      {
        "beat": 2.012500047683716,
        "duration": 0.987500011920929,
        "pitch": 33,
        "velocity": 37
      },
      {
        "beat": 2.0166666507720947,
        "duration": 0.9833333492279053,
        "pitch": 34,
        "velocity": 37
      },
      {
        "beat": 2.0208332538604736,
        "duration": 0.987500011920929,
        "pitch": 35,
        "velocity": 28
      },
      {
        "beat": 2.02916669845581,
        "duration": 2.0145833492279053,
        "pitch": 36,
        "velocity": 44
      },
      {
        "beat": 3,
        "duration": 0.75,
        "pitch": 33,
        "velocity": 23
      },
      {
        "beat": 3.008333444595337,
        "duration": 0.75,
        "pitch": 34,
        "velocity": 22
      },
      {
        "beat": 3.022916555404663,
        "duration": 0.987500011920929,
        "pitch": 35,
        "velocity": 21
      },
      {
        "beat": 3.75,
        "duration": 0.2604166567325592,
        "pitch": 33,
        "velocity": 28
      },
      {
        "beat": 3.758333444595337,
        "duration": 0.25208333134651184,
        "pitch": 34,
        "velocity": 19
      }
    ],
    "crc32": 4240564148,
    "midiSize": 230,
    "midiSha1": "cbe5eb6496970326f44a417842f4620529ddcd0b"
  },
  {
    "code": "GN_11",
    "kind": "chord",
    "family": "GuitarN",
    "modelType": "chord_model_str",
    "subtype": "strings",
    "bpm": 70,
    "beat": "4/4",
    "bnum": 44,
    "noteCount": 14,
    "midi": "pattern_midis/GN_11.mid",
    "notes": [
      {
        "beat": 0,
        "duration": 0.25,
        "pitch": 24,
        "velocity": 27
      },
      {
        "beat": 0,
        "duration": 2,
        "pitch": 31,
        "velocity": 33
      },
      {
        "beat": 0.008333333767950535,
        "duration": 1.9916666746139526,
        "pitch": 32,
        "velocity": 31
      },
      {
        "beat": 0.012500000186264515,
        "duration": 1.9874999523162842,
        "pitch": 33,
        "velocity": 37
      },
      {
        "beat": 0.01666666753590107,
        "duration": 1.9833333492279053,
        "pitch": 34,
        "velocity": 37
      },
      {
        "beat": 0.02083333395421505,
        "duration": 1.9791666269302368,
        "pitch": 35,
        "velocity": 28
      },
      {
        "beat": 0.02916666679084301,
        "duration": 1.9708333015441895,
        "pitch": 36,
        "velocity": 44
      },
      {
        "beat": 2,
        "duration": 0.25,
        "pitch": 24,
        "velocity": 27
      },
      {
        "beat": 2,
        "duration": 2,
        "pitch": 31,
        "velocity": 33
      },
      {
        "beat": 2.008333444595337,
        "duration": 1.9916666746139526,
        "pitch": 32,
        "velocity": 31
      },
      {
        "beat": 2.012500047683716,
        "duration": 1.9874999523162842,
        "pitch": 33,
        "velocity": 37
      },
      {
        "beat": 2.0166666507720947,
        "duration": 1.9833333492279053,
        "pitch": 34,
        "velocity": 37
      },
      {
        "beat": 2.0208332538604736,
        "duration": 1.9791666269302368,
        "pitch": 35,
        "velocity": 28
      },
      {
        "beat": 2.02916669845581,
        "duration": 1.9708333015441895,
        "pitch": 36,
        "velocity": 44
      }
    ],
    "crc32": 1193291266,
    "midiSize": 142,
    "midiSha1": "710b344ea52f202e3ebfb8dd2571f43735aeeacf"
  },
  {
    "code": "GN_12",
    "kind": "chord",
    "family": "GuitarN",
    "modelType": "chord_model_str",
    "subtype": "strings",
    "bpm": 70,
    "beat": "4/4",
    "bnum": 44,
    "noteCount": 10,
    "midi": "pattern_midis/GN_12.mid",
    "notes": [
      {
        "beat": 0,
        "duration": 0.25,
        "pitch": 24,
        "velocity": 27
      },
      {
        "beat": 0,
        "duration": 2,
        "pitch": 31,
        "velocity": 23
      },
      {
        "beat": 0,
        "duration": 2,
        "pitch": 34,
        "velocity": 47
      },
      {
        "beat": 0,
        "duration": 2,
        "pitch": 36,
        "velocity": 46
      },
      {
        "beat": 0.008333333767950535,
        "duration": 1.9916666746139526,
        "pitch": 35,
        "velocity": 21
      },
      {
        "beat": 2,
        "duration": 0.25,
        "pitch": 24,
        "velocity": 27
      },
      {
        "beat": 2,
        "duration": 2,
        "pitch": 31,
        "velocity": 23
      },
      {
        "beat": 2,
        "duration": 2,
        "pitch": 34,
        "velocity": 47
      },
      {
        "beat": 2,
        "duration": 2,
        "pitch": 36,
        "velocity": 46
      },
      {
        "beat": 2.008333444595337,
        "duration": 1.9916666746139526,
        "pitch": 35,
        "velocity": 21
      }
    ],
    "crc32": 915278605,
    "midiSize": 118,
    "midiSha1": "ce373744e38481a8c50895936eb24158047f64df"
  },
  {
    "code": "GN_13",
    "kind": "chord",
    "family": "GuitarN",
    "modelType": "chord_model_str",
    "subtype": "strings",
    "bpm": 120,
    "beat": "4/4",
    "bnum": 44,
    "noteCount": 6,
    "midi": "pattern_midis/GN_13.mid",
    "notes": [
      {
        "beat": 0,
        "duration": 0.125,
        "pitch": 26,
        "velocity": 100
      },
      {
        "beat": 0,
        "duration": 2,
        "pitch": 31,
        "velocity": 60
      },
      {
        "beat": 0.004166666883975267,
        "duration": 1.9958332777023315,
        "pitch": 32,
        "velocity": 58
      },
      {
        "beat": 2,
        "duration": 0.125,
        "pitch": 26,
        "velocity": 100
      },
      {
        "beat": 2,
        "duration": 2,
        "pitch": 31,
        "velocity": 60
      },
      {
        "beat": 2.004166603088379,
        "duration": 1.9958332777023315,
        "pitch": 32,
        "velocity": 58
      }
    ],
    "crc32": 1186880410,
    "midiSize": 94,
    "midiSha1": "3c1e708c9e6720da707fc4cc4c3428bcc5749c78"
  },
  {
    "code": "GN_14",
    "kind": "chord",
    "family": "GuitarN",
    "modelType": "chord_model_str",
    "subtype": "strings",
    "bpm": 67,
    "beat": "4/4",
    "bnum": 44,
    "noteCount": 8,
    "midi": "pattern_midis/GN_14.mid",
    "notes": [
      {
        "beat": 0,
        "duration": 4.110416889190674,
        "pitch": 31,
        "velocity": 23
      },
      {
        "beat": 0.5,
        "duration": 0.9770833253860474,
        "pitch": 33,
        "velocity": 20
      },
      {
        "beat": 1,
        "duration": 1.9770833253860474,
        "pitch": 34,
        "velocity": 30
      },
      {
        "beat": 1.5,
        "duration": 0.9770833253860474,
        "pitch": 33,
        "velocity": 23
      },
      {
        "beat": 2,
        "duration": 2.1104166507720947,
        "pitch": 35,
        "velocity": 36
      },
      {
        "beat": 2.5,
        "duration": 0.9770833253860474,
        "pitch": 33,
        "velocity": 13
      },
      {
        "beat": 3,
        "duration": 1.0145833492279053,
        "pitch": 34,
        "velocity": 32
      },
      {
        "beat": 3.5,
        "duration": 0.512499988079071,
        "pitch": 33,
        "velocity": 19
      }
    ],
    "crc32": 2598117472,
    "midiSize": 116,
    "midiSha1": "130985009df12e8f8fe33fa18d0713e22fd6e53d"
  },
  {
    "code": "GN_15",
    "kind": "chord",
    "family": "GuitarN",
    "modelType": "chord_model_str",
    "subtype": "strings",
    "bpm": 73,
    "beat": "4/4",
    "bnum": 44,
    "noteCount": 8,
    "midi": "pattern_midis/GN_15.mid",
    "notes": [
      {
        "beat": 0,
        "duration": 2,
        "pitch": 31,
        "velocity": 23
      },
      {
        "beat": 0.25,
        "duration": 1.993749976158142,
        "pitch": 33,
        "velocity": 20
      },
      {
        "beat": 0.5,
        "duration": 1.9958332777023315,
        "pitch": 34,
        "velocity": 30
      },
      {
        "beat": 0.75,
        "duration": 1.993749976158142,
        "pitch": 35,
        "velocity": 36
      },
      {
        "beat": 2,
        "duration": 2.06041669845581,
        "pitch": 31,
        "velocity": 1
      },
      {
        "beat": 2.25,
        "duration": 1.7833333015441895,
        "pitch": 33,
        "velocity": 20
      },
      {
        "beat": 2.5,
        "duration": 1.5333333015441895,
        "pitch": 34,
        "velocity": 30
      },
      {
        "beat": 2.75,
        "duration": 1.3104166984558105,
        "pitch": 35,
        "velocity": 36
      }
    ],
    "crc32": 1395979937,
    "midiSize": 108,
    "midiSha1": "574107d6d8d05296c79905c0913bdd913512515f"
  },
  {
    "code": "GN_16",
    "kind": "chord",
    "family": "GuitarN",
    "modelType": "chord_model_str",
    "subtype": "strings",
    "bpm": 96,
    "beat": "4/4",
    "bnum": 44,
    "noteCount": 8,
    "midi": "pattern_midis/GN_16.mid",
    "notes": [
      {
        "beat": 0,
        "duration": 1.0145833492279053,
        "pitch": 31,
        "velocity": 23
      },
      {
        "beat": 0.324999988079071,
        "duration": 0.675000011920929,
        "pitch": 33,
        "velocity": 20
      },
      {
        "beat": 0.5,
        "duration": 0.5,
        "pitch": 34,
        "velocity": 30
      },
      {
        "beat": 0.824999988079071,
        "duration": 0.18958333134651184,
        "pitch": 35,
        "velocity": 36
      },
      {
        "beat": 2,
        "duration": 1.0125000476837158,
        "pitch": 31,
        "velocity": 1
      },
      {
        "beat": 2.325000047683716,
        "duration": 0.681249976158142,
        "pitch": 34,
        "velocity": 30
      },
      {
        "beat": 2.5,
        "duration": 0.506250023841858,
        "pitch": 33,
        "velocity": 20
      },
      {
        "beat": 2.825000047683716,
        "duration": 0.1875,
        "pitch": 35,
        "velocity": 36
      }
    ],
    "crc32": 2562800518,
    "midiSize": 107,
    "midiSha1": "aee689fd51ddba09645609144565faabd3b587f6"
  },
  {
    "code": "GN_17",
    "kind": "chord",
    "family": "GuitarN",
    "modelType": "chord_model_str",
    "subtype": "strings",
    "bpm": 96,
    "beat": "4/4",
    "bnum": 44,
    "noteCount": 12,
    "midi": "pattern_midis/GN_17.mid",
    "notes": [
      {
        "beat": 0,
        "duration": 1.0145833492279053,
        "pitch": 31,
        "velocity": 23
      },
      {
        "beat": 0.324999988079071,
        "duration": 0.675000011920929,
        "pitch": 33,
        "velocity": 20
      },
      {
        "beat": 0.5,
        "duration": 0.5,
        "pitch": 34,
        "velocity": 30
      },
      {
        "beat": 0.824999988079071,
        "duration": 0.18958333134651184,
        "pitch": 35,
        "velocity": 36
      },
      {
        "beat": 1.3250000476837158,
        "duration": 0.22499999403953552,
        "pitch": 34,
        "velocity": 30
      },
      {
        "beat": 1.8250000476837158,
        "duration": 0.6520833373069763,
        "pitch": 33,
        "velocity": 25
      },
      {
        "beat": 2,
        "duration": 1.0125000476837158,
        "pitch": 31,
        "velocity": 1
      },
      {
        "beat": 2.325000047683716,
        "duration": 0.681249976158142,
        "pitch": 34,
        "velocity": 30
      },
      {
        "beat": 2.5,
        "duration": 0.506250023841858,
        "pitch": 33,
        "velocity": 20
      },
      {
        "beat": 2.825000047683716,
        "duration": 0.1875,
        "pitch": 35,
        "velocity": 36
      },
      {
        "beat": 3.325000047683716,
        "duration": 0.22499999403953552,
        "pitch": 34,
        "velocity": 26
      },
      {
        "beat": 3.825000047683716,
        "duration": 0.23125000298023224,
        "pitch": 33,
        "velocity": 26
      }
    ],
    "crc32": 1970753914,
    "midiSize": 142,
    "midiSha1": "f801df782ed669defdb04d2300384a90db935b8a"
  },
  {
    "code": "GN_2",
    "kind": "chord",
    "family": "GuitarN",
    "modelType": "chord_model_str",
    "subtype": "strings",
    "bpm": 70,
    "beat": "4/4",
    "bnum": 44,
    "noteCount": 27,
    "midi": "pattern_midis/GN_2.mid",
    "notes": [
      {
        "beat": 0,
        "duration": 0.25,
        "pitch": 24,
        "velocity": 27
      },
      {
        "beat": 0,
        "duration": 2.5,
        "pitch": 31,
        "velocity": 33
      },
      {
        "beat": 0.008333333767950535,
        "duration": 2.491666555404663,
        "pitch": 32,
        "velocity": 31
      },
      {
        "beat": 0.012500000186264515,
        "duration": 2.491666555404663,
        "pitch": 33,
        "velocity": 37
      },
      {
        "beat": 0.01666666753590107,
        "duration": 0.9833333492279053,
        "pitch": 34,
        "velocity": 37
      },
      {
        "beat": 0.02083333395421505,
        "duration": 0.987500011920929,
        "pitch": 35,
        "velocity": 28
      },
      {
        "beat": 0.02916666679084301,
        "duration": 0.993749976158142,
        "pitch": 36,
        "velocity": 44
      },
      {
        "beat": 1,
        "duration": 0.75,
        "pitch": 34,
        "velocity": 41
      },
      {
        "beat": 1.0083333253860474,
        "duration": 0.75,
        "pitch": 35,
        "velocity": 40
      },
      {
        "beat": 1.0229166746139526,
        "duration": 1.9895833730697632,
        "pitch": 36,
        "velocity": 23
      },
      {
        "beat": 1.75,
        "duration": 0.2708333432674408,
        "pitch": 34,
        "velocity": 45
      },
      {
        "beat": 1.7583333253860474,
        "duration": 0.2541666626930237,
        "pitch": 35,
        "velocity": 28
      },
      {
        "beat": 2,
        "duration": 0.25,
        "pitch": 24,
        "velocity": 27
      },
      {
        "beat": 2.012500047683716,
        "duration": 0.24583333730697632,
        "pitch": 35,
        "velocity": 1
      },
      {
        "beat": 2.0208332538604736,
        "duration": 0.2291666716337204,
        "pitch": 34,
        "velocity": 1
      },
      {
        "beat": 2.25,
        "duration": 0.2645833194255829,
        "pitch": 34,
        "velocity": 37
      },
      {
        "beat": 2.258333444595337,
        "duration": 0.7416666746139526,
        "pitch": 35,
        "velocity": 37
      },
      {
        "beat": 2.5,
        "duration": 1.6124999523162842,
        "pitch": 31,
        "velocity": 28
      },
      {
        "beat": 2.5,
        "duration": 1.6124999523162842,
        "pitch": 32,
        "velocity": 33
      },
      {
        "beat": 2.504166603088379,
        "duration": 1.506250023841858,
        "pitch": 33,
        "velocity": 33
      },
      {
        "beat": 2.5145833492279053,
        "duration": 0.4854166805744171,
        "pitch": 34,
        "velocity": 35
      },
      {
        "beat": 3,
        "duration": 0.5145833492279053,
        "pitch": 34,
        "velocity": 42
      },
      {
        "beat": 3.004166603088379,
        "duration": 0.5020833611488342,
        "pitch": 35,
        "velocity": 44
      },
      {
        "beat": 3.0166666507720947,
        "duration": 0.481249988079071,
        "pitch": 36,
        "velocity": 37
      },
      {
        "beat": 3.5,
        "duration": 0.612500011920929,
        "pitch": 36,
        "velocity": 29
      },
      {
        "beat": 3.5062499046325684,
        "duration": 0.5229166746139526,
        "pitch": 35,
        "velocity": 24
      },
      {
        "beat": 3.5166666507720947,
        "duration": 0.5041666626930237,
        "pitch": 34,
        "velocity": 36
      }
    ],
    "crc32": 1708242332,
    "midiSize": 252,
    "midiSha1": "4caa8465b3cf9300e4613275f7cba5e33b6206a2"
  },
  {
    "code": "GN_3",
    "kind": "chord",
    "family": "GuitarN",
    "modelType": "chord_model_str",
    "subtype": "strings",
    "bpm": 65,
    "beat": "4/4",
    "bnum": 44,
    "noteCount": 31,
    "midi": "pattern_midis/GN_3.mid",
    "notes": [
      {
        "beat": 0,
        "duration": 0.2979166805744171,
        "pitch": 31,
        "velocity": 29
      },
      {
        "beat": 0,
        "duration": 0.2604166567325592,
        "pitch": 33,
        "velocity": 21
      },
      {
        "beat": 0.004166666883975267,
        "duration": 0.2604166567325592,
        "pitch": 35,
        "velocity": 30
      },
      {
        "beat": 0.010416666977107525,
        "duration": 0.24583333730697632,
        "pitch": 34,
        "velocity": 33
      },
      {
        "beat": 0.2604166567325592,
        "duration": 0.014583333395421505,
        "pitch": 34,
        "velocity": 1
      },
      {
        "beat": 0.262499988079071,
        "duration": 0.01666666753590107,
        "pitch": 33,
        "velocity": 1
      },
      {
        "beat": 0.2645833194255829,
        "duration": 0.01666666753590107,
        "pitch": 35,
        "velocity": 1
      },
      {
        "beat": 0.5,
        "duration": 0.7458333373069763,
        "pitch": 33,
        "velocity": 21
      },
      {
        "beat": 0.5041666626930237,
        "duration": 0.737500011920929,
        "pitch": 35,
        "velocity": 30
      },
      {
        "beat": 0.5104166865348816,
        "duration": 0.7395833134651184,
        "pitch": 34,
        "velocity": 33
      },
      {
        "beat": 0.75,
        "duration": 0.23749999701976776,
        "pitch": 32,
        "velocity": 12
      },
      {
        "beat": 1,
        "duration": 0.987500011920929,
        "pitch": 31,
        "velocity": 27
      },
      {
        "beat": 1.25,
        "duration": 0.4937500059604645,
        "pitch": 33,
        "velocity": 21
      },
      {
        "beat": 1.2541667222976685,
        "duration": 0.4958333373069763,
        "pitch": 35,
        "velocity": 30
      },
      {
        "beat": 1.2604166269302368,
        "duration": 0.4937500059604645,
        "pitch": 34,
        "velocity": 33
      },
      {
        "beat": 1.75,
        "duration": 0.4958333373069763,
        "pitch": 33,
        "velocity": 21
      },
      {
        "beat": 1.7541667222976685,
        "duration": 0.4958333373069763,
        "pitch": 35,
        "velocity": 16
      },
      {
        "beat": 1.7604166269302368,
        "duration": 0.4895833432674408,
        "pitch": 34,
        "velocity": 33
      },
      {
        "beat": 2,
        "duration": 0.743749976158142,
        "pitch": 32,
        "velocity": 20
      },
      {
        "beat": 2.25,
        "duration": 0.4937500059604645,
        "pitch": 33,
        "velocity": 21
      },
      {
        "beat": 2.254166603088379,
        "duration": 0.4895833432674408,
        "pitch": 35,
        "velocity": 30
      },
      {
        "beat": 2.2604167461395264,
        "duration": 0.4937500059604645,
        "pitch": 34,
        "velocity": 20
      },
      {
        "beat": 2.75,
        "duration": 0.23541666567325592,
        "pitch": 32,
        "velocity": 17
      },
      {
        "beat": 2.75,
        "duration": 0.7479166388511658,
        "pitch": 33,
        "velocity": 21
      },
      {
        "beat": 2.754166603088379,
        "duration": 0.743749976158142,
        "pitch": 35,
        "velocity": 13
      },
      {
        "beat": 2.7604167461395264,
        "duration": 0.743749976158142,
        "pitch": 34,
        "velocity": 33
      },
      {
        "beat": 3,
        "duration": 0.731249988079071,
        "pitch": 31,
        "velocity": 27
      },
      {
        "beat": 3.5,
        "duration": 0.518750011920929,
        "pitch": 33,
        "velocity": 21
      },
      {
        "beat": 3.504166603088379,
        "duration": 0.5333333611488342,
        "pitch": 35,
        "velocity": 30
      },
      {
        "beat": 3.5104167461395264,
        "duration": 0.5,
        "pitch": 34,
        "velocity": 33
      },
      {
        "beat": 3.75,
        "duration": 0.2874999940395355,
        "pitch": 31,
        "velocity": 12
      }
    ],
    "crc32": 3277258474,
    "midiSize": 276,
    "midiSha1": "4e86b762f94df990dfc1b2278b7e623a4251c036"
  },
  {
    "code": "GN_4",
    "kind": "chord",
    "family": "GuitarN",
    "modelType": "chord_model_str",
    "subtype": "strings",
    "bpm": 70,
    "beat": "4/4",
    "bnum": 44,
    "noteCount": 8,
    "midi": "pattern_midis/GN_4.mid",
    "notes": [
      {
        "beat": 0,
        "duration": 4.110416889190674,
        "pitch": 31,
        "velocity": 23
      },
      {
        "beat": 0.5,
        "duration": 0.9770833253860474,
        "pitch": 34,
        "velocity": 31
      },
      {
        "beat": 1,
        "duration": 1.9770833253860474,
        "pitch": 35,
        "velocity": 21
      },
      {
        "beat": 1.5,
        "duration": 0.9770833253860474,
        "pitch": 34,
        "velocity": 23
      },
      {
        "beat": 2,
        "duration": 2.1104166507720947,
        "pitch": 36,
        "velocity": 36
      },
      {
        "beat": 2.5,
        "duration": 0.9770833253860474,
        "pitch": 34,
        "velocity": 13
      },
      {
        "beat": 3,
        "duration": 1.0145833492279053,
        "pitch": 35,
        "velocity": 32
      },
      {
        "beat": 3.5,
        "duration": 0.512499988079071,
        "pitch": 34,
        "velocity": 19
      }
    ],
    "crc32": 747133694,
    "midiSize": 115,
    "midiSha1": "9e22d0e39b415424b452cbc9da01a8dd7a135912"
  },
  {
    "code": "GN_5",
    "kind": "chord",
    "family": "GuitarN",
    "modelType": "chord_model_str",
    "subtype": "strings",
    "bpm": 85,
    "beat": "4/4",
    "bnum": 44,
    "noteCount": 8,
    "midi": "pattern_midis/GN_5.mid",
    "notes": [
      {
        "beat": 0,
        "duration": 4.110416889190674,
        "pitch": 31,
        "velocity": 23
      },
      {
        "beat": 0.5,
        "duration": 2.987499952316284,
        "pitch": 33,
        "velocity": 29
      },
      {
        "beat": 1,
        "duration": 1.9770833253860474,
        "pitch": 34,
        "velocity": 21
      },
      {
        "beat": 1.5,
        "duration": 0.987500011920929,
        "pitch": 35,
        "velocity": 23
      },
      {
        "beat": 2,
        "duration": 2.1104166507720947,
        "pitch": 36,
        "velocity": 37
      },
      {
        "beat": 2.5,
        "duration": 1.5187499523162842,
        "pitch": 35,
        "velocity": 23
      },
      {
        "beat": 3,
        "duration": 1.0145833492279053,
        "pitch": 34,
        "velocity": 41
      },
      {
        "beat": 3.5,
        "duration": 0.512499988079071,
        "pitch": 33,
        "velocity": 19
      }
    ],
    "crc32": 2282089143,
    "midiSize": 113,
    "midiSha1": "e10987af45cde09ff98c07bcfd0d2699159a376f"
  },
  {
    "code": "GN_6",
    "kind": "chord",
    "family": "GuitarN",
    "modelType": "chord_model_str",
    "subtype": "strings",
    "bpm": 70,
    "beat": "4/4",
    "bnum": 44,
    "noteCount": 16,
    "midi": "pattern_midis/GN_6.mid",
    "notes": [
      {
        "beat": 0,
        "duration": 0.25,
        "pitch": 24,
        "velocity": 27
      },
      {
        "beat": 0,
        "duration": 2,
        "pitch": 31,
        "velocity": 23
      },
      {
        "beat": 0,
        "duration": 0.9895833134651184,
        "pitch": 34,
        "velocity": 47
      },
      {
        "beat": 0,
        "duration": 0.9895833134651184,
        "pitch": 36,
        "velocity": 46
      },
      {
        "beat": 0.008333333767950535,
        "duration": 0.9708333611488342,
        "pitch": 35,
        "velocity": 21
      },
      {
        "beat": 1.0020833015441895,
        "duration": 0.9979166388511658,
        "pitch": 35,
        "velocity": 12
      },
      {
        "beat": 1.006250023841858,
        "duration": 0.993749976158142,
        "pitch": 34,
        "velocity": 21
      },
      {
        "beat": 1.006250023841858,
        "duration": 0.993749976158142,
        "pitch": 36,
        "velocity": 19
      },
      {
        "beat": 2,
        "duration": 0.25,
        "pitch": 24,
        "velocity": 27
      },
      {
        "beat": 2,
        "duration": 2.0458333492279053,
        "pitch": 31,
        "velocity": 13
      },
      {
        "beat": 2.008333444595337,
        "duration": 0.987500011920929,
        "pitch": 34,
        "velocity": 29
      },
      {
        "beat": 2.0104167461395264,
        "duration": 0.981249988079071,
        "pitch": 36,
        "velocity": 46
      },
      {
        "beat": 2.0145833492279053,
        "duration": 0.9708333611488342,
        "pitch": 35,
        "velocity": 21
      },
      {
        "beat": 3,
        "duration": 1.0125000476837158,
        "pitch": 34,
        "velocity": 29
      },
      {
        "beat": 3.0062499046325684,
        "duration": 1.006250023841858,
        "pitch": 35,
        "velocity": 10
      },
      {
        "beat": 3.008333444595337,
        "duration": 1.0395833253860474,
        "pitch": 36,
        "velocity": 26
      }
    ],
    "crc32": 715782649,
    "midiSize": 157,
    "midiSha1": "89aec18479ab5356da95164683bcacd9a3a2adcb"
  },
  {
    "code": "GN_7",
    "kind": "chord",
    "family": "GuitarN",
    "modelType": "chord_model_str",
    "subtype": "strings",
    "bpm": 70,
    "beat": "4/4",
    "bnum": 44,
    "noteCount": 17,
    "midi": "pattern_midis/GN_7.mid",
    "notes": [
      {
        "beat": 0,
        "duration": 0.25,
        "pitch": 24,
        "velocity": 27
      },
      {
        "beat": 0,
        "duration": 2,
        "pitch": 31,
        "velocity": 23
      },
      {
        "beat": 0,
        "duration": 0.4937500059604645,
        "pitch": 34,
        "velocity": 47
      },
      {
        "beat": 0,
        "duration": 0.9895833134651184,
        "pitch": 36,
        "velocity": 46
      },
      {
        "beat": 0.008333333767950535,
        "duration": 0.9708333611488342,
        "pitch": 35,
        "velocity": 21
      },
      {
        "beat": 0.5,
        "duration": 0.9916666746139526,
        "pitch": 34,
        "velocity": 23
      },
      {
        "beat": 1.0020833015441895,
        "duration": 0.9979166388511658,
        "pitch": 35,
        "velocity": 12
      },
      {
        "beat": 1.006250023841858,
        "duration": 0.993749976158142,
        "pitch": 36,
        "velocity": 19
      },
      {
        "beat": 1.5,
        "duration": 0.9916666746139526,
        "pitch": 34,
        "velocity": 22
      },
      {
        "beat": 2,
        "duration": 0.25,
        "pitch": 24,
        "velocity": 27
      },
      {
        "beat": 2,
        "duration": 2.0458333492279053,
        "pitch": 31,
        "velocity": 13
      },
      {
        "beat": 2.0104167461395264,
        "duration": 0.981249988079071,
        "pitch": 36,
        "velocity": 46
      },
      {
        "beat": 2.0145833492279053,
        "duration": 0.9708333611488342,
        "pitch": 35,
        "velocity": 21
      },
      {
        "beat": 2.5,
        "duration": 0.9916666746139526,
        "pitch": 34,
        "velocity": 29
      },
      {
        "beat": 3.0062499046325684,
        "duration": 1.006250023841858,
        "pitch": 35,
        "velocity": 10
      },
      {
        "beat": 3.008333444595337,
        "duration": 1.0395833253860474,
        "pitch": 36,
        "velocity": 26
      },
      {
        "beat": 3.5,
        "duration": 0.512499988079071,
        "pitch": 34,
        "velocity": 30
      }
    ],
    "crc32": 65826888,
    "midiSize": 173,
    "midiSha1": "a4012e2dca29e3b834edb73370b7f090bb76f085"
  },
  {
    "code": "GN_8",
    "kind": "chord",
    "family": "GuitarN",
    "modelType": "chord_model_str",
    "subtype": "strings",
    "bpm": 120,
    "beat": "4/4",
    "bnum": 43,
    "noteCount": 8,
    "midi": "pattern_midis/GN_8.mid",
    "notes": [
      {
        "beat": 0,
        "duration": 0.5,
        "pitch": 24,
        "velocity": 27
      },
      {
        "beat": 0,
        "duration": 1.3479167222976685,
        "pitch": 31,
        "velocity": 23
      },
      {
        "beat": 1.0020833015441895,
        "duration": 0.34583333134651184,
        "pitch": 35,
        "velocity": 22
      },
      {
        "beat": 1.006250023841858,
        "duration": 0.34166666865348816,
        "pitch": 34,
        "velocity": 31
      },
      {
        "beat": 1.006250023841858,
        "duration": 0.34166666865348816,
        "pitch": 36,
        "velocity": 29
      },
      {
        "beat": 2,
        "duration": 1.0208333730697632,
        "pitch": 34,
        "velocity": 30
      },
      {
        "beat": 2,
        "duration": 1.0208333730697632,
        "pitch": 36,
        "velocity": 45
      },
      {
        "beat": 2.008333444595337,
        "duration": 1.0125000476837158,
        "pitch": 35,
        "velocity": 21
      }
    ],
    "crc32": 1560632995,
    "midiSize": 108,
    "midiSha1": "125e4ab4eaf00c5078a8f0eb383fbb28704e6235"
  },
  {
    "code": "GN_9",
    "kind": "chord",
    "family": "GuitarN",
    "modelType": "chord_model_str",
    "subtype": "strings",
    "bpm": 82,
    "beat": "4/4",
    "bnum": 86,
    "noteCount": 6,
    "midi": "pattern_midis/GN_9.mid",
    "notes": [
      {
        "beat": 0,
        "duration": 3.0416667461395264,
        "pitch": 31,
        "velocity": 23
      },
      {
        "beat": 0.5,
        "duration": 1.9791666269302368,
        "pitch": 34,
        "velocity": 31
      },
      {
        "beat": 1,
        "duration": 0.9770833253860474,
        "pitch": 35,
        "velocity": 21
      },
      {
        "beat": 1.5,
        "duration": 1.5458333492279053,
        "pitch": 36,
        "velocity": 41
      },
      {
        "beat": 2,
        "duration": 1.0145833492279053,
        "pitch": 35,
        "velocity": 28
      },
      {
        "beat": 2.5,
        "duration": 0.5166666507720947,
        "pitch": 34,
        "velocity": 13
      }
    ],
    "crc32": 2808241544,
    "midiSize": 97,
    "midiSha1": "83d29fbc08ca4096f944aee2ce19ea4d84c221fa"
  },
  {
    "code": "GS_1",
    "kind": "chord",
    "family": "GuitarS",
    "modelType": "chord_model_str",
    "subtype": "strings",
    "bpm": 70,
    "beat": "4/4",
    "bnum": 44,
    "noteCount": 8,
    "midi": "pattern_midis/GS_1.mid",
    "notes": [
      {
        "beat": 0,
        "duration": 4.110416889190674,
        "pitch": 31,
        "velocity": 27
      },
      {
        "beat": 0.5,
        "duration": 0.9770833253860474,
        "pitch": 34,
        "velocity": 31
      },
      {
        "beat": 1,
        "duration": 1.9770833253860474,
        "pitch": 35,
        "velocity": 21
      },
      {
        "beat": 1.5,
        "duration": 0.9770833253860474,
        "pitch": 34,
        "velocity": 23
      },
      {
        "beat": 2,
        "duration": 2.1104166507720947,
        "pitch": 36,
        "velocity": 36
      },
      {
        "beat": 2.5,
        "duration": 0.9770833253860474,
        "pitch": 34,
        "velocity": 13
      },
      {
        "beat": 3,
        "duration": 1.0145833492279053,
        "pitch": 35,
        "velocity": 41
      },
      {
        "beat": 3.5,
        "duration": 0.512499988079071,
        "pitch": 34,
        "velocity": 19
      }
    ],
    "crc32": 2443737600,
    "midiSize": 115,
    "midiSha1": "71a1ea8ac99509fe875e0faf463e15e191a2be0b"
  },
  {
    "code": "GS_10",
    "kind": "chord",
    "family": "GuitarS",
    "modelType": "chord_model_str",
    "subtype": "strings",
    "bpm": 82,
    "beat": "4/4",
    "bnum": 86,
    "noteCount": 17,
    "midi": "pattern_midis/GS_10.mid",
    "notes": [
      {
        "beat": 0,
        "duration": 0.25,
        "pitch": 24,
        "velocity": 100
      },
      {
        "beat": 0,
        "duration": 0.9979166388511658,
        "pitch": 31,
        "velocity": 21
      },
      {
        "beat": 0.008333333767950535,
        "duration": 0.9979166388511658,
        "pitch": 32,
        "velocity": 19
      },
      {
        "beat": 0.014583333395421505,
        "duration": 1.4895833730697632,
        "pitch": 33,
        "velocity": 25
      },
      {
        "beat": 0.02291666716337204,
        "duration": 1.4833333492279053,
        "pitch": 34,
        "velocity": 25
      },
      {
        "beat": 0.03333333507180214,
        "duration": 1.4770833253860474,
        "pitch": 35,
        "velocity": 16
      },
      {
        "beat": 0.04374999925494194,
        "duration": 1.4729167222976685,
        "pitch": 36,
        "velocity": 9
      },
      {
        "beat": 1,
        "duration": 0.5,
        "pitch": 31,
        "velocity": 21
      },
      {
        "beat": 1.006250023841858,
        "duration": 0.4937500059604645,
        "pitch": 32,
        "velocity": 19
      },
      {
        "beat": 1.5,
        "duration": 1.5583332777023315,
        "pitch": 31,
        "velocity": 16
      },
      {
        "beat": 1.5,
        "duration": 1.5145833492279053,
        "pitch": 32,
        "velocity": 10
      },
      {
        "beat": 1.5041667222976685,
        "duration": 1.5104166269302368,
        "pitch": 33,
        "velocity": 10
      },
      {
        "beat": 1.506250023841858,
        "duration": 0.75,
        "pitch": 34,
        "velocity": 24
      },
      {
        "beat": 1.5125000476837158,
        "duration": 0.7354166507720947,
        "pitch": 35,
        "velocity": 12
      },
      {
        "beat": 1.5187499523162842,
        "duration": 1.5437500476837158,
        "pitch": 36,
        "velocity": 17
      },
      {
        "beat": 2.25,
        "duration": 0.7520833611488342,
        "pitch": 35,
        "velocity": 17
      },
      {
        "beat": 2.258333444595337,
        "duration": 0.7458333373069763,
        "pitch": 34,
        "velocity": 20
      }
    ],
    "crc32": 3999271061,
    "midiSize": 174,
    "midiSha1": "59492325c541f5e12a11d2b6f253964dc6ec5a7d"
  },
  {
    "code": "GS_11",
    "kind": "chord",
    "family": "GuitarS",
    "modelType": "chord_model_str",
    "subtype": "strings",
    "bpm": 82,
    "beat": "4/4",
    "bnum": 86,
    "noteCount": 5,
    "midi": "pattern_midis/GS_11.mid",
    "notes": [
      {
        "beat": 0,
        "duration": 3.0416667461395264,
        "pitch": 31,
        "velocity": 27
      },
      {
        "beat": 0.5,
        "duration": 1.9791666269302368,
        "pitch": 34,
        "velocity": 27
      },
      {
        "beat": 1,
        "duration": 2.022916555404663,
        "pitch": 35,
        "velocity": 21
      },
      {
        "beat": 1.5,
        "duration": 1.5458333492279053,
        "pitch": 36,
        "velocity": 36
      },
      {
        "beat": 2.5,
        "duration": 0.5166666507720947,
        "pitch": 34,
        "velocity": 13
      }
    ],
    "crc32": 3180359536,
    "midiSize": 89,
    "midiSha1": "293404b61894e9b4e13ade9c1e623339134a306b"
  },
  {
    "code": "GS_12",
    "kind": "chord",
    "family": "GuitarS",
    "modelType": "chord_model_str",
    "subtype": "strings",
    "bpm": 85,
    "beat": "4/4",
    "bnum": 44,
    "noteCount": 8,
    "midi": "pattern_midis/GS_12.mid",
    "notes": [
      {
        "beat": 0,
        "duration": 4.110416889190674,
        "pitch": 31,
        "velocity": 27
      },
      {
        "beat": 0.5,
        "duration": 2.987499952316284,
        "pitch": 33,
        "velocity": 29
      },
      {
        "beat": 1,
        "duration": 1.9770833253860474,
        "pitch": 34,
        "velocity": 21
      },
      {
        "beat": 1.5,
        "duration": 0.987500011920929,
        "pitch": 35,
        "velocity": 23
      },
      {
        "beat": 2,
        "duration": 2.1104166507720947,
        "pitch": 36,
        "velocity": 36
      },
      {
        "beat": 2.5,
        "duration": 1.5187499523162842,
        "pitch": 35,
        "velocity": 23
      },
      {
        "beat": 3,
        "duration": 1.0145833492279053,
        "pitch": 34,
        "velocity": 41
      },
      {
        "beat": 3.5,
        "duration": 0.512499988079071,
        "pitch": 33,
        "velocity": 19
      }
    ],
    "crc32": 2691849204,
    "midiSize": 114,
    "midiSha1": "aca9dc1687296575bf3ad3463fc68e5da326bfeb"
  },
  {
    "code": "GS_13",
    "kind": "chord",
    "family": "GuitarS",
    "modelType": "chord_model_str",
    "subtype": "strings",
    "bpm": 70,
    "beat": "4/4",
    "bnum": 44,
    "noteCount": 16,
    "midi": "pattern_midis/GS_13.mid",
    "notes": [
      {
        "beat": 0,
        "duration": 0.25,
        "pitch": 24,
        "velocity": 27
      },
      {
        "beat": 0,
        "duration": 2,
        "pitch": 31,
        "velocity": 27
      },
      {
        "beat": 0,
        "duration": 0.9895833134651184,
        "pitch": 34,
        "velocity": 47
      },
      {
        "beat": 0,
        "duration": 0.9895833134651184,
        "pitch": 36,
        "velocity": 36
      },
      {
        "beat": 0.008333333767950535,
        "duration": 0.9708333611488342,
        "pitch": 35,
        "velocity": 21
      },
      {
        "beat": 1.0020833015441895,
        "duration": 0.9979166388511658,
        "pitch": 35,
        "velocity": 12
      },
      {
        "beat": 1.006250023841858,
        "duration": 0.993749976158142,
        "pitch": 34,
        "velocity": 21
      },
      {
        "beat": 1.006250023841858,
        "duration": 0.993749976158142,
        "pitch": 36,
        "velocity": 9
      },
      {
        "beat": 2,
        "duration": 0.25,
        "pitch": 24,
        "velocity": 27
      },
      {
        "beat": 2,
        "duration": 2.0458333492279053,
        "pitch": 31,
        "velocity": 17
      },
      {
        "beat": 2.008333444595337,
        "duration": 0.987500011920929,
        "pitch": 34,
        "velocity": 29
      },
      {
        "beat": 2.0104167461395264,
        "duration": 0.981249988079071,
        "pitch": 36,
        "velocity": 36
      },
      {
        "beat": 2.0145833492279053,
        "duration": 0.9708333611488342,
        "pitch": 35,
        "velocity": 21
      },
      {
        "beat": 3,
        "duration": 1.0125000476837158,
        "pitch": 34,
        "velocity": 29
      },
      {
        "beat": 3.0062499046325684,
        "duration": 1.006250023841858,
        "pitch": 35,
        "velocity": 10
      },
      {
        "beat": 3.008333444595337,
        "duration": 1.0395833253860474,
        "pitch": 36,
        "velocity": 16
      }
    ],
    "crc32": 2508488807,
    "midiSize": 158,
    "midiSha1": "8fdfd306c8ad9edeed634bfc1986332ebf413403"
  },
  {
    "code": "GS_14",
    "kind": "chord",
    "family": "GuitarS",
    "modelType": "chord_model_str",
    "subtype": "strings",
    "bpm": 70,
    "beat": "4/4",
    "bnum": 44,
    "noteCount": 17,
    "midi": "pattern_midis/GS_14.mid",
    "notes": [
      {
        "beat": 0,
        "duration": 0.25,
        "pitch": 24,
        "velocity": 27
      },
      {
        "beat": 0,
        "duration": 2,
        "pitch": 31,
        "velocity": 27
      },
      {
        "beat": 0,
        "duration": 0.4937500059604645,
        "pitch": 34,
        "velocity": 47
      },
      {
        "beat": 0,
        "duration": 0.9895833134651184,
        "pitch": 36,
        "velocity": 36
      },
      {
        "beat": 0.008333333767950535,
        "duration": 0.9708333611488342,
        "pitch": 35,
        "velocity": 21
      },
      {
        "beat": 0.5,
        "duration": 0.9916666746139526,
        "pitch": 34,
        "velocity": 23
      },
      {
        "beat": 1.0020833015441895,
        "duration": 0.9979166388511658,
        "pitch": 35,
        "velocity": 12
      },
      {
        "beat": 1.006250023841858,
        "duration": 0.993749976158142,
        "pitch": 36,
        "velocity": 9
      },
      {
        "beat": 1.5,
        "duration": 0.9916666746139526,
        "pitch": 34,
        "velocity": 22
      },
      {
        "beat": 2,
        "duration": 0.25,
        "pitch": 24,
        "velocity": 27
      },
      {
        "beat": 2,
        "duration": 2.0458333492279053,
        "pitch": 31,
        "velocity": 17
      },
      {
        "beat": 2.0104167461395264,
        "duration": 0.981249988079071,
        "pitch": 36,
        "velocity": 36
      },
      {
        "beat": 2.0145833492279053,
        "duration": 0.9708333611488342,
        "pitch": 35,
        "velocity": 21
      },
      {
        "beat": 2.5,
        "duration": 0.9916666746139526,
        "pitch": 34,
        "velocity": 29
      },
      {
        "beat": 3,
        "duration": 1.0083333253860474,
        "pitch": 35,
        "velocity": 10
      },
      {
        "beat": 3,
        "duration": 1.0395833253860474,
        "pitch": 36,
        "velocity": 16
      },
      {
        "beat": 3.5,
        "duration": 0.512499988079071,
        "pitch": 34,
        "velocity": 30
      }
    ],
    "crc32": 1976958462,
    "midiSize": 174,
    "midiSha1": "d7e6b1b3f008eaafa8e8697e04dec5f247b9285d"
  },
  {
    "code": "GS_15",
    "kind": "chord",
    "family": "GuitarS",
    "modelType": "chord_model_str",
    "subtype": "strings",
    "bpm": 120,
    "beat": "4/4",
    "bnum": 43,
    "noteCount": 8,
    "midi": "pattern_midis/GS_15.mid",
    "notes": [
      {
        "beat": 0,
        "duration": 0.5,
        "pitch": 24,
        "velocity": 27
      },
      {
        "beat": 0,
        "duration": 1.3479167222976685,
        "pitch": 31,
        "velocity": 27
      },
      {
        "beat": 1,
        "duration": 0.34166666865348816,
        "pitch": 34,
        "velocity": 21
      },
      {
        "beat": 1,
        "duration": 0.34583333134651184,
        "pitch": 35,
        "velocity": 12
      },
      {
        "beat": 1,
        "duration": 0.34166666865348816,
        "pitch": 36,
        "velocity": 9
      },
      {
        "beat": 2,
        "duration": 1.0291666984558105,
        "pitch": 34,
        "velocity": 47
      },
      {
        "beat": 2,
        "duration": 1.0291666984558105,
        "pitch": 36,
        "velocity": 36
      },
      {
        "beat": 2.008333444595337,
        "duration": 1.0208333730697632,
        "pitch": 35,
        "velocity": 21
      }
    ],
    "crc32": 1608957505,
    "midiSize": 109,
    "midiSha1": "9f3f1560482e0575c3d56f58f6d690cfe40b3cd8"
  },
  {
    "code": "GS_16",
    "kind": "chord",
    "family": "GuitarS",
    "modelType": "chord_model_str",
    "subtype": "strings",
    "bpm": 82,
    "beat": "4/4",
    "bnum": 86,
    "noteCount": 6,
    "midi": "pattern_midis/GS_16.mid",
    "notes": [
      {
        "beat": 0,
        "duration": 3.0416667461395264,
        "pitch": 31,
        "velocity": 27
      },
      {
        "beat": 0.5,
        "duration": 1.9791666269302368,
        "pitch": 34,
        "velocity": 31
      },
      {
        "beat": 1,
        "duration": 0.9770833253860474,
        "pitch": 35,
        "velocity": 21
      },
      {
        "beat": 1.5,
        "duration": 1.5458333492279053,
        "pitch": 36,
        "velocity": 36
      },
      {
        "beat": 2,
        "duration": 1.0145833492279053,
        "pitch": 35,
        "velocity": 28
      },
      {
        "beat": 2.5,
        "duration": 0.5166666507720947,
        "pitch": 34,
        "velocity": 13
      }
    ],
    "crc32": 2404713198,
    "midiSize": 98,
    "midiSha1": "b1c7c1f2b45ab62173b0ca515e7ad2f27bca5646"
  },
  {
    "code": "GS_17",
    "kind": "chord",
    "family": "GuitarS",
    "modelType": "chord_model_str",
    "subtype": "strings",
    "bpm": 70,
    "beat": "4/4",
    "bnum": 44,
    "noteCount": 24,
    "midi": "pattern_midis/GS_17.mid",
    "notes": [
      {
        "beat": 0,
        "duration": 0.25,
        "pitch": 24,
        "velocity": 100
      },
      {
        "beat": 0,
        "duration": 2,
        "pitch": 31,
        "velocity": 21
      },
      {
        "beat": 0.008333333767950535,
        "duration": 2.00208330154419,
        "pitch": 32,
        "velocity": 19
      },
      {
        "beat": 0.014583333395421505,
        "duration": 2.00208330154419,
        "pitch": 33,
        "velocity": 25
      },
      {
        "beat": 0.02291666716337204,
        "duration": 0.9770833253860474,
        "pitch": 34,
        "velocity": 25
      },
      {
        "beat": 0.03333333507180214,
        "duration": 0.975000023841858,
        "pitch": 35,
        "velocity": 16
      },
      {
        "beat": 0.04374999925494194,
        "duration": 0.9791666865348816,
        "pitch": 36,
        "velocity": 9
      },
      {
        "beat": 1,
        "duration": 0.75,
        "pitch": 34,
        "velocity": 29
      },
      {
        "beat": 1.0083333253860474,
        "duration": 0.75,
        "pitch": 35,
        "velocity": 28
      },
      {
        "beat": 1.0229166746139526,
        "duration": 1.024999976158142,
        "pitch": 36,
        "velocity": 11
      },
      {
        "beat": 1.75,
        "duration": 0.2750000059604645,
        "pitch": 34,
        "velocity": 33
      },
      {
        "beat": 1.7583333253860474,
        "duration": 0.27916666865348816,
        "pitch": 35,
        "velocity": 16
      },
      {
        "beat": 2,
        "duration": 0.25,
        "pitch": 24,
        "velocity": 100
      },
      {
        "beat": 2,
        "duration": 2.054166555404663,
        "pitch": 31,
        "velocity": 4
      },
      {
        "beat": 2.012500047683716,
        "duration": 2.0104167461395264,
        "pitch": 32,
        "velocity": 7
      },
      {
        "beat": 2.018749952316284,
        "duration": 0.981249988079071,
        "pitch": 33,
        "velocity": 22
      },
      {
        "beat": 2.02916669845581,
        "duration": 0.9791666865348816,
        "pitch": 34,
        "velocity": 22
      },
      {
        "beat": 2.039583444595337,
        "duration": 0.975000023841858,
        "pitch": 35,
        "velocity": 16
      },
      {
        "beat": 2.049999952316284,
        "duration": 2.004166603088379,
        "pitch": 36,
        "velocity": 9
      },
      {
        "beat": 3.004166603088379,
        "duration": 1.0145833492279053,
        "pitch": 33,
        "velocity": 1
      },
      {
        "beat": 3.0104167461395264,
        "duration": 0.7395833134651184,
        "pitch": 34,
        "velocity": 1
      },
      {
        "beat": 3.018749952316284,
        "duration": 0.7395833134651184,
        "pitch": 35,
        "velocity": 3
      },
      {
        "beat": 3.75,
        "duration": 0.268750011920929,
        "pitch": 34,
        "velocity": 1
      },
      {
        "beat": 3.758333444595337,
        "duration": 0.2604166567325592,
        "pitch": 35,
        "velocity": 1
      }
    ],
    "crc32": 3713788815,
    "midiSize": 230,
    "midiSha1": "af80bb92a2a0943f8fc27d65e79fcaccb3106dbc"
  },
  {
    "code": "GS_18",
    "kind": "chord",
    "family": "GuitarS",
    "modelType": "chord_model_str",
    "subtype": "strings",
    "bpm": 70,
    "beat": "4/4",
    "bnum": 44,
    "noteCount": 14,
    "midi": "pattern_midis/GS_18.mid",
    "notes": [
      {
        "beat": 0,
        "duration": 0.25,
        "pitch": 24,
        "velocity": 27
      },
      {
        "beat": 0,
        "duration": 2,
        "pitch": 31,
        "velocity": 21
      },
      {
        "beat": 0.008333333767950535,
        "duration": 1.9916666746139526,
        "pitch": 32,
        "velocity": 19
      },
      {
        "beat": 0.014583333395421505,
        "duration": 1.9854166507720947,
        "pitch": 33,
        "velocity": 25
      },
      {
        "beat": 0.02291666716337204,
        "duration": 1.9770833253860474,
        "pitch": 34,
        "velocity": 25
      },
      {
        "beat": 0.03333333507180214,
        "duration": 1.9666666984558105,
        "pitch": 35,
        "velocity": 16
      },
      {
        "beat": 0.04374999925494194,
        "duration": 1.9562499523162842,
        "pitch": 36,
        "velocity": 9
      },
      {
        "beat": 2,
        "duration": 0.25,
        "pitch": 24,
        "velocity": 27
      },
      {
        "beat": 2,
        "duration": 2,
        "pitch": 31,
        "velocity": 21
      },
      {
        "beat": 2.008333444595337,
        "duration": 1.9916666746139526,
        "pitch": 32,
        "velocity": 19
      },
      {
        "beat": 2.0145833492279053,
        "duration": 1.9854166507720947,
        "pitch": 33,
        "velocity": 25
      },
      {
        "beat": 2.022916555404663,
        "duration": 1.9770833253860474,
        "pitch": 34,
        "velocity": 25
      },
      {
        "beat": 2.03333330154419,
        "duration": 1.9666666984558105,
        "pitch": 35,
        "velocity": 16
      },
      {
        "beat": 2.043750047683716,
        "duration": 1.9562499523162842,
        "pitch": 36,
        "velocity": 9
      }
    ],
    "crc32": 700825284,
    "midiSize": 142,
    "midiSha1": "035cf5e6548bc74cabe2095e051a9c1b8c6445e8"
  },
  {
    "code": "GS_19",
    "kind": "chord",
    "family": "GuitarS",
    "modelType": "chord_model_str",
    "subtype": "strings",
    "bpm": 70,
    "beat": "4/4",
    "bnum": 44,
    "noteCount": 10,
    "midi": "pattern_midis/GS_19.mid",
    "notes": [
      {
        "beat": 0,
        "duration": 0.25,
        "pitch": 24,
        "velocity": 27
      },
      {
        "beat": 0,
        "duration": 2,
        "pitch": 31,
        "velocity": 27
      },
      {
        "beat": 0,
        "duration": 2,
        "pitch": 34,
        "velocity": 47
      },
      {
        "beat": 0,
        "duration": 2,
        "pitch": 36,
        "velocity": 36
      },
      {
        "beat": 0.008333333767950535,
        "duration": 1.9916666746139526,
        "pitch": 35,
        "velocity": 21
      },
      {
        "beat": 2,
        "duration": 0.25,
        "pitch": 24,
        "velocity": 27
      },
      {
        "beat": 2,
        "duration": 2,
        "pitch": 31,
        "velocity": 27
      },
      {
        "beat": 2,
        "duration": 2,
        "pitch": 34,
        "velocity": 47
      },
      {
        "beat": 2,
        "duration": 2,
        "pitch": 36,
        "velocity": 36
      },
      {
        "beat": 2.008333444595337,
        "duration": 1.9916666746139526,
        "pitch": 35,
        "velocity": 21
      }
    ],
    "crc32": 2569792270,
    "midiSize": 118,
    "midiSha1": "8fce6c4cb920d032682bf17fbf65c290dd38c0f9"
  },
  {
    "code": "GS_2",
    "kind": "chord",
    "family": "GuitarS",
    "modelType": "chord_model_str",
    "subtype": "strings",
    "bpm": 70,
    "beat": "4/4",
    "bnum": 44,
    "noteCount": 6,
    "midi": "pattern_midis/GS_2.mid",
    "notes": [
      {
        "beat": 0,
        "duration": 4.05833339691162,
        "pitch": 31,
        "velocity": 24
      },
      {
        "beat": 0.02708333358168602,
        "duration": 1.4541666507720947,
        "pitch": 36,
        "velocity": 23
      },
      {
        "beat": 0.5,
        "duration": 2.4833333492279053,
        "pitch": 34,
        "velocity": 18
      },
      {
        "beat": 1,
        "duration": 3.0166666507720947,
        "pitch": 35,
        "velocity": 21
      },
      {
        "beat": 1.5,
        "duration": 2.558333396911621,
        "pitch": 36,
        "velocity": 23
      },
      {
        "beat": 3,
        "duration": 1.0166666507720947,
        "pitch": 34,
        "velocity": 15
      }
    ],
    "crc32": 3529237170,
    "midiSize": 96,
    "midiSha1": "f2fdb709e1cc4c79c90eb494f813a3d26c23d955"
  },
  {
    "code": "GS_20",
    "kind": "chord",
    "family": "GuitarS",
    "modelType": "chord_model_str",
    "subtype": "strings",
    "bpm": 120,
    "beat": "4/4",
    "bnum": 44,
    "noteCount": 6,
    "midi": "pattern_midis/GS_20.mid",
    "notes": [
      {
        "beat": 0,
        "duration": 0.125,
        "pitch": 26,
        "velocity": 100
      },
      {
        "beat": 0,
        "duration": 2,
        "pitch": 31,
        "velocity": 30
      },
      {
        "beat": 0.004166666883975267,
        "duration": 1.9958332777023315,
        "pitch": 32,
        "velocity": 28
      },
      {
        "beat": 2,
        "duration": 0.125,
        "pitch": 26,
        "velocity": 100
      },
      {
        "beat": 2,
        "duration": 2,
        "pitch": 31,
        "velocity": 30
      },
      {
        "beat": 2.004166603088379,
        "duration": 1.9958332777023315,
        "pitch": 32,
        "velocity": 28
      }
    ],
    "crc32": 2453645137,
    "midiSize": 94,
    "midiSha1": "9170c6efc86f613ce36cf74b916f032903ed3df3"
  },
  {
    "code": "GS_21",
    "kind": "chord",
    "family": "GuitarS",
    "modelType": "chord_model_str",
    "subtype": "strings",
    "bpm": 115,
    "beat": "4/4",
    "bnum": 86,
    "noteCount": 6,
    "midi": "pattern_midis/GS_21.mid",
    "notes": [
      {
        "beat": 0,
        "duration": 1.4916666746139526,
        "pitch": 31,
        "velocity": 17
      },
      {
        "beat": 0.5,
        "duration": 1.4874999523162842,
        "pitch": 32,
        "velocity": 27
      },
      {
        "beat": 1,
        "duration": 1.4854166507720947,
        "pitch": 33,
        "velocity": 21
      },
      {
        "beat": 1.5,
        "duration": 1.5520833730697632,
        "pitch": 31,
        "velocity": 8
      },
      {
        "beat": 2,
        "duration": 1.0291666984558105,
        "pitch": 32,
        "velocity": 11
      },
      {
        "beat": 2.5,
        "duration": 0.5520833134651184,
        "pitch": 33,
        "velocity": 28
      }
    ],
    "crc32": 76524922,
    "midiSize": 100,
    "midiSha1": "c316d63afa1b6a71541f5065831fbbb2d11fdca2"
  },
  {
    "code": "GS_22",
    "kind": "chord",
    "family": "GuitarS",
    "modelType": "chord_model_str",
    "subtype": "strings",
    "bpm": 60,
    "beat": "4/4",
    "bnum": 44,
    "noteCount": 12,
    "midi": "pattern_midis/GS_22.mid",
    "notes": [
      {
        "beat": 0,
        "duration": 2,
        "pitch": 31,
        "velocity": 27
      },
      {
        "beat": 0.25,
        "duration": 1.4833333492279053,
        "pitch": 33,
        "velocity": 31
      },
      {
        "beat": 0.5,
        "duration": 0.7333333492279053,
        "pitch": 34,
        "velocity": 21
      },
      {
        "beat": 0.75,
        "duration": 1.9895833730697632,
        "pitch": 35,
        "velocity": 36
      },
      {
        "beat": 1.25,
        "duration": 1.2374999523162842,
        "pitch": 34,
        "velocity": 23
      },
      {
        "beat": 1.75,
        "duration": 0.4937500059604645,
        "pitch": 33,
        "velocity": 13
      },
      {
        "beat": 2,
        "duration": 2.1104166507720947,
        "pitch": 31,
        "velocity": 27
      },
      {
        "beat": 2.25,
        "duration": 1.4833333492279053,
        "pitch": 33,
        "velocity": 31
      },
      {
        "beat": 2.5,
        "duration": 0.7354166507720947,
        "pitch": 34,
        "velocity": 23
      },
      {
        "beat": 2.75,
        "duration": 1.3624999523162842,
        "pitch": 35,
        "velocity": 23
      },
      {
        "beat": 3.25,
        "duration": 0.8020833134651184,
        "pitch": 34,
        "velocity": 19
      },
      {
        "beat": 3.75,
        "duration": 0.3020833432674408,
        "pitch": 33,
        "velocity": 13
      }
    ],
    "crc32": 1528656539,
    "midiSize": 143,
    "midiSha1": "ae76581134ec85c0ae0c44e7580c2d3cf113536e"
  },
  {
    "code": "GS_23",
    "kind": "chord",
    "family": "GuitarS",
    "modelType": "chord_model_str",
    "subtype": "strings",
    "bpm": 72,
    "beat": "4/4",
    "bnum": 44,
    "noteCount": 23,
    "midi": "pattern_midis/GS_23.mid",
    "notes": [
      {
        "beat": 0,
        "duration": 0.25,
        "pitch": 24,
        "velocity": 100
      },
      {
        "beat": 0,
        "duration": 2.5,
        "pitch": 31,
        "velocity": 21
      },
      {
        "beat": 0.008333333767950535,
        "duration": 1.4895833730697632,
        "pitch": 32,
        "velocity": 19
      },
      {
        "beat": 0.014583333395421505,
        "duration": 0.7541666626930237,
        "pitch": 33,
        "velocity": 25
      },
      {
        "beat": 0.02291666716337204,
        "duration": 0.7333333492279053,
        "pitch": 34,
        "velocity": 25
      },
      {
        "beat": 0.03125,
        "duration": 0.712499976158142,
        "pitch": 35,
        "velocity": 16
      },
      {
        "beat": 0.04583333432674408,
        "duration": 2.964583396911621,
        "pitch": 36,
        "velocity": 9
      },
      {
        "beat": 0.75,
        "duration": 1.493749976158142,
        "pitch": 35,
        "velocity": 28
      },
      {
        "beat": 0.7583333253860474,
        "duration": 0.7520833611488342,
        "pitch": 34,
        "velocity": 29
      },
      {
        "beat": 0.7708333134651184,
        "duration": 0.7354166507720947,
        "pitch": 33,
        "velocity": 25
      },
      {
        "beat": 1.5,
        "duration": 1.0083333253860474,
        "pitch": 32,
        "velocity": 19
      },
      {
        "beat": 1.5083333253860474,
        "duration": 2.5250000953674316,
        "pitch": 33,
        "velocity": 25
      },
      {
        "beat": 1.5145833492279053,
        "duration": 0.743749976158142,
        "pitch": 34,
        "velocity": 17
      },
      {
        "beat": 2,
        "duration": 0.25,
        "pitch": 24,
        "velocity": 100
      },
      {
        "beat": 2.25,
        "duration": 0.756250023841858,
        "pitch": 35,
        "velocity": 17
      },
      {
        "beat": 2.2604167461395264,
        "duration": 0.737500011920929,
        "pitch": 34,
        "velocity": 20
      },
      {
        "beat": 2.5,
        "duration": 1.6166666746139526,
        "pitch": 31,
        "velocity": 16
      },
      {
        "beat": 2.512500047683716,
        "duration": 1.5979167222976685,
        "pitch": 32,
        "velocity": 21
      },
      {
        "beat": 3,
        "duration": 0.4937500059604645,
        "pitch": 34,
        "velocity": 18
      },
      {
        "beat": 3.0104167461395264,
        "duration": 0.4937500059604645,
        "pitch": 35,
        "velocity": 20
      },
      {
        "beat": 3.0166666507720947,
        "duration": 1.0770833492279053,
        "pitch": 36,
        "velocity": 25
      },
      {
        "beat": 3.5,
        "duration": 0.518750011920929,
        "pitch": 34,
        "velocity": 8
      },
      {
        "beat": 3.508333444595337,
        "duration": 0.5333333611488342,
        "pitch": 35,
        "velocity": 8
      }
    ],
    "crc32": 293166885,
    "midiSize": 224,
    "midiSha1": "caa525a55dca4acd7ce3aceb3f8672cedbca4041"
  },
  {
    "code": "GS_24",
    "kind": "chord",
    "family": "GuitarS",
    "modelType": "chord_model_str",
    "subtype": "strings",
    "bpm": 115,
    "beat": "4/4",
    "bnum": 86,
    "noteCount": 16,
    "midi": "pattern_midis/GS_24.mid",
    "notes": [
      {
        "beat": 0,
        "duration": 0.25,
        "pitch": 24,
        "velocity": 100
      },
      {
        "beat": 0,
        "duration": 0.9979166388511658,
        "pitch": 31,
        "velocity": 5
      },
      {
        "beat": 0.008333333767950535,
        "duration": 1.4916666746139526,
        "pitch": 32,
        "velocity": 19
      },
      {
        "beat": 0.014583333395421505,
        "duration": 1.4895833730697632,
        "pitch": 33,
        "velocity": 25
      },
      {
        "beat": 0.02291666716337204,
        "duration": 1.4833333492279053,
        "pitch": 34,
        "velocity": 25
      },
      {
        "beat": 0.03333333507180214,
        "duration": 1.4770833253860474,
        "pitch": 35,
        "velocity": 16
      },
      {
        "beat": 0.04374999925494194,
        "duration": 1.4729167222976685,
        "pitch": 36,
        "velocity": 9
      },
      {
        "beat": 1,
        "duration": 0.5,
        "pitch": 31,
        "velocity": 5
      },
      {
        "beat": 1.5,
        "duration": 1.5583332777023315,
        "pitch": 31,
        "velocity": 1
      },
      {
        "beat": 1.5,
        "duration": 1.5145833492279053,
        "pitch": 32,
        "velocity": 10
      },
      {
        "beat": 1.5041667222976685,
        "duration": 1.0020833015441895,
        "pitch": 33,
        "velocity": 10
      },
      {
        "beat": 1.506250023841858,
        "duration": 0.9916666746139526,
        "pitch": 34,
        "velocity": 24
      },
      {
        "beat": 1.5125000476837158,
        "duration": 1.5,
        "pitch": 35,
        "velocity": 12
      },
      {
        "beat": 1.5187499523162842,
        "duration": 1.5437500476837158,
        "pitch": 36,
        "velocity": 17
      },
      {
        "beat": 2.5,
        "duration": 0.512499988079071,
        "pitch": 34,
        "velocity": 17
      },
      {
        "beat": 2.508333444595337,
        "duration": 0.4958333373069763,
        "pitch": 33,
        "velocity": 20
      }
    ],
    "crc32": 1731540106,
    "midiSize": 166,
    "midiSha1": "a47237dea67f38b0caeead7f273bf6394515b015"
  },
  {
    "code": "GS_25",
    "kind": "chord",
    "family": "GuitarS",
    "modelType": "chord_model_str",
    "subtype": "strings",
    "bpm": 68,
    "beat": "4/4",
    "bnum": 44,
    "noteCount": 8,
    "midi": "pattern_midis/GS_25.mid",
    "notes": [
      {
        "beat": 0,
        "duration": 4.110416889190674,
        "pitch": 31,
        "velocity": 27
      },
      {
        "beat": 0.5,
        "duration": 2.2395832538604736,
        "pitch": 33,
        "velocity": 9
      },
      {
        "beat": 0.75,
        "duration": 2.241666555404663,
        "pitch": 35,
        "velocity": 32
      },
      {
        "beat": 1.25,
        "duration": 2.2395832538604736,
        "pitch": 34,
        "velocity": 23
      },
      {
        "beat": 2,
        "duration": 2.1104166507720947,
        "pitch": 36,
        "velocity": 36
      },
      {
        "beat": 2.75,
        "duration": 1.2708333730697632,
        "pitch": 33,
        "velocity": 1
      },
      {
        "beat": 3,
        "duration": 1.0145833492279053,
        "pitch": 35,
        "velocity": 41
      },
      {
        "beat": 3.5,
        "duration": 0.512499988079071,
        "pitch": 34,
        "velocity": 19
      }
    ],
    "crc32": 2472213792,
    "midiSize": 112,
    "midiSha1": "8e8b421e491119971316d5e8f6b028887c763d54"
  },
  {
    "code": "GS_26",
    "kind": "chord",
    "family": "GuitarS",
    "modelType": "chord_model_str",
    "subtype": "strings",
    "bpm": 108,
    "beat": "4/4",
    "bnum": 44,
    "noteCount": 7,
    "midi": "pattern_midis/GS_26.mid",
    "notes": [
      {
        "beat": 0,
        "duration": 4.108333110809326,
        "pitch": 31,
        "velocity": 27
      },
      {
        "beat": 0.5,
        "duration": 2.4583332538604736,
        "pitch": 33,
        "velocity": 31
      },
      {
        "beat": 1,
        "duration": 1.4666666984558105,
        "pitch": 34,
        "velocity": 21
      },
      {
        "beat": 1.5,
        "duration": 2.6083333492279053,
        "pitch": 35,
        "velocity": 36
      },
      {
        "beat": 2.5,
        "duration": 1.5645833015441895,
        "pitch": 34,
        "velocity": 23
      },
      {
        "beat": 3,
        "duration": 1.0645833015441895,
        "pitch": 33,
        "velocity": 13
      },
      {
        "beat": 3.5,
        "duration": 0.5645833611488342,
        "pitch": 32,
        "velocity": 1
      }
    ],
    "crc32": 1664144023,
    "midiSize": 105,
    "midiSha1": "a7926320a5cca6420ce45898269887ba672ef3b2"
  },
  {
    "code": "GS_27",
    "kind": "chord",
    "family": "GuitarS",
    "modelType": "chord_model_str",
    "subtype": "strings",
    "bpm": 108,
    "beat": "4/4",
    "bnum": 44,
    "noteCount": 30,
    "midi": "pattern_midis/GS_27.mid",
    "notes": [
      {
        "beat": 0,
        "duration": 0.25,
        "pitch": 24,
        "velocity": 100
      },
      {
        "beat": 0,
        "duration": 1,
        "pitch": 31,
        "velocity": 21
      },
      {
        "beat": 0.008333333767950535,
        "duration": 0.981249988079071,
        "pitch": 32,
        "velocity": 19
      },
      {
        "beat": 0.014583333395421505,
        "duration": 0.7541666626930237,
        "pitch": 33,
        "velocity": 25
      },
      {
        "beat": 0.02291666716337204,
        "duration": 0.7333333492279053,
        "pitch": 34,
        "velocity": 25
      },
      {
        "beat": 0.03125,
        "duration": 0.712499976158142,
        "pitch": 35,
        "velocity": 16
      },
      {
        "beat": 0.04583333432674408,
        "duration": 1.4770833253860474,
        "pitch": 36,
        "velocity": 9
      },
      {
        "beat": 0.75,
        "duration": 0.756250023841858,
        "pitch": 35,
        "velocity": 28
      },
      {
        "beat": 0.7583333253860474,
        "duration": 0.7479166388511658,
        "pitch": 34,
        "velocity": 29
      },
      {
        "beat": 0.7708333134651184,
        "duration": 0.7291666865348816,
        "pitch": 33,
        "velocity": 25
      },
      {
        "beat": 1,
        "duration": 0.5,
        "pitch": 26,
        "velocity": 1
      },
      {
        "beat": 1,
        "duration": 0.5,
        "pitch": 31,
        "velocity": 22
      },
      {
        "beat": 1.0104166269302368,
        "duration": 0.4895833432674408,
        "pitch": 32,
        "velocity": 6
      },
      {
        "beat": 1.5,
        "duration": 0.25,
        "pitch": 24,
        "velocity": 100
      },
      {
        "beat": 1.5,
        "duration": 0.993749976158142,
        "pitch": 31,
        "velocity": 21
      },
      {
        "beat": 1.5083333253860474,
        "duration": 2.56458330154419,
        "pitch": 32,
        "velocity": 19
      },
      {
        "beat": 1.5145833492279053,
        "duration": 2.53125,
        "pitch": 33,
        "velocity": 25
      },
      {
        "beat": 1.5187499523162842,
        "duration": 0.731249988079071,
        "pitch": 34,
        "velocity": 17
      },
      {
        "beat": 1.524999976158142,
        "duration": 0.7166666388511658,
        "pitch": 35,
        "velocity": 16
      },
      {
        "beat": 1.53125,
        "duration": 1.4812500476837158,
        "pitch": 36,
        "velocity": 9
      },
      {
        "beat": 2,
        "duration": 0.25,
        "pitch": 24,
        "velocity": 100
      },
      {
        "beat": 2.25,
        "duration": 0.756250023841858,
        "pitch": 35,
        "velocity": 17
      },
      {
        "beat": 2.2604167461395264,
        "duration": 0.737500011920929,
        "pitch": 34,
        "velocity": 20
      },
      {
        "beat": 2.5,
        "duration": 1.6166666746139526,
        "pitch": 31,
        "velocity": 8
      },
      {
        "beat": 3,
        "duration": 0.4958333373069763,
        "pitch": 34,
        "velocity": 18
      },
      {
        "beat": 3.0104167461395264,
        "duration": 0.4958333373069763,
        "pitch": 35,
        "velocity": 20
      },
      {
        "beat": 3.0166666507720947,
        "duration": 1.0770833492279053,
        "pitch": 36,
        "velocity": 25
      },
      {
        "beat": 3.5,
        "duration": 0.24583333730697632,
        "pitch": 34,
        "velocity": 8
      },
      {
        "beat": 3.512500047683716,
        "duration": 0.543749988079071,
        "pitch": 35,
        "velocity": 8
      },
      {
        "beat": 3.75,
        "duration": 0.28333333134651184,
        "pitch": 34,
        "velocity": 1
      }
    ],
    "crc32": 1674660149,
    "midiSize": 271,
    "midiSha1": "d445bfb6731cc26437b94ff3b0e9b4be459005b6"
  },
  {
    "code": "GS_28",
    "kind": "chord",
    "family": "GuitarS",
    "modelType": "chord_model_str",
    "subtype": "strings",
    "bpm": 130,
    "beat": "4/4",
    "bnum": 44,
    "noteCount": 24,
    "midi": "pattern_midis/GS_28.mid",
    "notes": [
      {
        "beat": 0,
        "duration": 0.25,
        "pitch": 24,
        "velocity": 27
      },
      {
        "beat": 0,
        "duration": 4.108333110809326,
        "pitch": 31,
        "velocity": 21
      },
      {
        "beat": 0.008333333767950535,
        "duration": 4.05833339691162,
        "pitch": 32,
        "velocity": 19
      },
      {
        "beat": 0.014583333395421505,
        "duration": 0.9854166507720947,
        "pitch": 33,
        "velocity": 25
      },
      {
        "beat": 0.02291666716337204,
        "duration": 0.9833333492279053,
        "pitch": 34,
        "velocity": 25
      },
      {
        "beat": 0.03333333507180214,
        "duration": 0.981249988079071,
        "pitch": 35,
        "velocity": 16
      },
      {
        "beat": 0.04374999925494194,
        "duration": 1.46875,
        "pitch": 36,
        "velocity": 9
      },
      {
        "beat": 1,
        "duration": 1.53125,
        "pitch": 33,
        "velocity": 25
      },
      {
        "beat": 1.0083333253860474,
        "duration": 0.487500011920929,
        "pitch": 34,
        "velocity": 29
      },
      {
        "beat": 1.0166666507720947,
        "duration": 0.487500011920929,
        "pitch": 35,
        "velocity": 28
      },
      {
        "beat": 1.5,
        "duration": 1.0083333253860474,
        "pitch": 34,
        "velocity": 33
      },
      {
        "beat": 1.5083333253860474,
        "duration": 1,
        "pitch": 35,
        "velocity": 16
      },
      {
        "beat": 1.5145833492279053,
        "duration": 0.9729166626930237,
        "pitch": 36,
        "velocity": 11
      },
      {
        "beat": 2,
        "duration": 0.25,
        "pitch": 24,
        "velocity": 27
      },
      {
        "beat": 2.5,
        "duration": 0.5104166865348816,
        "pitch": 36,
        "velocity": 17
      },
      {
        "beat": 2.5145833492279053,
        "duration": 0.4854166805744171,
        "pitch": 35,
        "velocity": 12
      },
      {
        "beat": 2.5208332538604736,
        "duration": 0.47083333134651184,
        "pitch": 34,
        "velocity": 24
      },
      {
        "beat": 2.5416667461395264,
        "duration": 0.9895833134651184,
        "pitch": 33,
        "velocity": 21
      },
      {
        "beat": 3,
        "duration": 0.512499988079071,
        "pitch": 34,
        "velocity": 30
      },
      {
        "beat": 3.008333444595337,
        "duration": 0.5041666626930237,
        "pitch": 35,
        "velocity": 32
      },
      {
        "beat": 3.022916555404663,
        "duration": 1.0708333253860474,
        "pitch": 36,
        "velocity": 25
      },
      {
        "beat": 3.512500047683716,
        "duration": 0.5208333134651184,
        "pitch": 35,
        "velocity": 12
      },
      {
        "beat": 3.5208332538604736,
        "duration": 0.5041666626930237,
        "pitch": 34,
        "velocity": 10
      },
      {
        "beat": 3.5374999046325684,
        "duration": 0.4958333373069763,
        "pitch": 33,
        "velocity": 7
      }
    ],
    "crc32": 647588742,
    "midiSize": 230,
    "midiSha1": "76af03f7324d93281b8fc9d97bdcaebfdc9ed70e"
  },
  {
    "code": "GS_29",
    "kind": "chord",
    "family": "GuitarS",
    "modelType": "chord_model_str",
    "subtype": "strings",
    "bpm": 63,
    "beat": "4/4",
    "bnum": 44,
    "noteCount": 13,
    "midi": "pattern_midis/GS_29.mid",
    "notes": [
      {
        "beat": 0,
        "duration": 2,
        "pitch": 31,
        "velocity": 27
      },
      {
        "beat": 0.5,
        "duration": 1.2416666746139526,
        "pitch": 33,
        "velocity": 28
      },
      {
        "beat": 0.75,
        "duration": 0.7416666746139526,
        "pitch": 34,
        "velocity": 21
      },
      {
        "beat": 1,
        "duration": 1.9958332777023315,
        "pitch": 36,
        "velocity": 36
      },
      {
        "beat": 1.25,
        "duration": 1.9916666746139526,
        "pitch": 35,
        "velocity": 23
      },
      {
        "beat": 1.5,
        "duration": 1.2479166984558105,
        "pitch": 34,
        "velocity": 13
      },
      {
        "beat": 1.75,
        "duration": 0.7395833134651184,
        "pitch": 33,
        "velocity": 19
      },
      {
        "beat": 2,
        "duration": 2.054166555404663,
        "pitch": 31,
        "velocity": 27
      },
      {
        "beat": 2.5,
        "duration": 1.53125,
        "pitch": 33,
        "velocity": 28
      },
      {
        "beat": 2.74791669845581,
        "duration": 0.743749976158142,
        "pitch": 34,
        "velocity": 21
      },
      {
        "beat": 3,
        "duration": 1.056249976158142,
        "pitch": 36,
        "velocity": 36
      },
      {
        "beat": 3.25,
        "duration": 0.7854166626930237,
        "pitch": 35,
        "velocity": 23
      },
      {
        "beat": 3.5,
        "duration": 0.53125,
        "pitch": 34,
        "velocity": 13
      }
    ],
    "crc32": 3459406891,
    "midiSize": 145,
    "midiSha1": "10c5aeca401b97c8eaf2ac82e051f974e324432c"
  },
  {
    "code": "GS_3",
    "kind": "chord",
    "family": "GuitarS",
    "modelType": "chord_model_str",
    "subtype": "strings",
    "bpm": 70,
    "beat": "4/4",
    "bnum": 44,
    "noteCount": 27,
    "midi": "pattern_midis/GS_3.mid",
    "notes": [
      {
        "beat": 0,
        "duration": 0.25,
        "pitch": 24,
        "velocity": 27
      },
      {
        "beat": 0,
        "duration": 2.5,
        "pitch": 31,
        "velocity": 21
      },
      {
        "beat": 0.008333333767950535,
        "duration": 2.491666555404663,
        "pitch": 32,
        "velocity": 19
      },
      {
        "beat": 0.014583333395421505,
        "duration": 2.4895832538604736,
        "pitch": 33,
        "velocity": 25
      },
      {
        "beat": 0.02291666716337204,
        "duration": 0.9770833253860474,
        "pitch": 34,
        "velocity": 25
      },
      {
        "beat": 0.03333333507180214,
        "duration": 0.975000023841858,
        "pitch": 35,
        "velocity": 16
      },
      {
        "beat": 0.04374999925494194,
        "duration": 0.9791666865348816,
        "pitch": 36,
        "velocity": 9
      },
      {
        "beat": 1,
        "duration": 0.75,
        "pitch": 34,
        "velocity": 29
      },
      {
        "beat": 1.0083333253860474,
        "duration": 0.75,
        "pitch": 35,
        "velocity": 28
      },
      {
        "beat": 1.0229166746139526,
        "duration": 2,
        "pitch": 36,
        "velocity": 11
      },
      {
        "beat": 1.75,
        "duration": 0.2708333432674408,
        "pitch": 34,
        "velocity": 33
      },
      {
        "beat": 1.7583333253860474,
        "duration": 0.2541666626930237,
        "pitch": 35,
        "velocity": 16
      },
      {
        "beat": 2,
        "duration": 0.25,
        "pitch": 24,
        "velocity": 27
      },
      {
        "beat": 2.012500047683716,
        "duration": 0.24583333730697632,
        "pitch": 35,
        "velocity": 17
      },
      {
        "beat": 2.0208332538604736,
        "duration": 0.2291666716337204,
        "pitch": 34,
        "velocity": 20
      },
      {
        "beat": 2.25,
        "duration": 0.2645833194255829,
        "pitch": 34,
        "velocity": 25
      },
      {
        "beat": 2.258333444595337,
        "duration": 0.75,
        "pitch": 35,
        "velocity": 25
      },
      {
        "beat": 2.5,
        "duration": 1.6166666746139526,
        "pitch": 31,
        "velocity": 16
      },
      {
        "beat": 2.5,
        "duration": 1.6166666746139526,
        "pitch": 32,
        "velocity": 21
      },
      {
        "beat": 2.504166603088379,
        "duration": 1.5104166269302368,
        "pitch": 33,
        "velocity": 21
      },
      {
        "beat": 2.5145833492279053,
        "duration": 0.4854166805744171,
        "pitch": 34,
        "velocity": 23
      },
      {
        "beat": 3,
        "duration": 0.5208333134651184,
        "pitch": 34,
        "velocity": 30
      },
      {
        "beat": 3.008333444595337,
        "duration": 0.506250023841858,
        "pitch": 35,
        "velocity": 32
      },
      {
        "beat": 3.022916555404663,
        "duration": 0.47708332538604736,
        "pitch": 36,
        "velocity": 25
      },
      {
        "beat": 3.5,
        "duration": 0.6166666746139526,
        "pitch": 36,
        "velocity": 17
      },
      {
        "beat": 3.5145833492279053,
        "duration": 0.518750011920929,
        "pitch": 35,
        "velocity": 12
      },
      {
        "beat": 3.5208332538604736,
        "duration": 0.5041666626930237,
        "pitch": 34,
        "velocity": 24
      }
    ],
    "crc32": 646655199,
    "midiSize": 254,
    "midiSha1": "ac04c9350659c258627cab65ec65915e928e9d78"
  },
  {
    "code": "GS_30",
    "kind": "chord",
    "family": "GuitarS",
    "modelType": "chord_model_str",
    "subtype": "strings",
    "bpm": 120,
    "beat": "4/4",
    "bnum": 44,
    "noteCount": 9,
    "midi": "pattern_midis/GS_30.mid",
    "notes": [
      {
        "beat": 0,
        "duration": 1.4604166746139526,
        "pitch": 31,
        "velocity": 27
      },
      {
        "beat": 1,
        "duration": 0.43958333134651184,
        "pitch": 34,
        "velocity": 39
      },
      {
        "beat": 1.0083333253860474,
        "duration": 0.425000011920929,
        "pitch": 36,
        "velocity": 33
      },
      {
        "beat": 1.0187499523162842,
        "duration": 0.4166666567325592,
        "pitch": 35,
        "velocity": 21
      },
      {
        "beat": 2.5,
        "duration": 0.9833333492279053,
        "pitch": 31,
        "velocity": 21
      },
      {
        "beat": 3,
        "duration": 1.0541666746139526,
        "pitch": 35,
        "velocity": 21
      },
      {
        "beat": 3.004166603088379,
        "duration": 1.0666667222976685,
        "pitch": 34,
        "velocity": 39
      },
      {
        "beat": 3.004166603088379,
        "duration": 1.0916666984558105,
        "pitch": 36,
        "velocity": 33
      },
      {
        "beat": 3.5,
        "duration": 0.5395833253860474,
        "pitch": 31,
        "velocity": 21
      }
    ],
    "crc32": 3638174050,
    "midiSize": 116,
    "midiSha1": "79dc99216abd37a7201ccbf5bfd0ede30c5ec82f"
  },
  {
    "code": "GS_31",
    "kind": "chord",
    "family": "GuitarS",
    "modelType": "chord_model_str",
    "subtype": "strings",
    "bpm": 120,
    "beat": "4/4",
    "bnum": 44,
    "noteCount": 9,
    "midi": "pattern_midis/GS_31.mid",
    "notes": [
      {
        "beat": 0,
        "duration": 1.4604166746139526,
        "pitch": 31,
        "velocity": 27
      },
      {
        "beat": 1,
        "duration": 2.4895832538604736,
        "pitch": 34,
        "velocity": 29
      },
      {
        "beat": 1.0083333253860474,
        "duration": 1.9895833730697632,
        "pitch": 36,
        "velocity": 23
      },
      {
        "beat": 1.0187499523162842,
        "duration": 1.975000023841858,
        "pitch": 35,
        "velocity": 21
      },
      {
        "beat": 1.5,
        "duration": 0.9604166746139526,
        "pitch": 31,
        "velocity": 21
      },
      {
        "beat": 2.5,
        "duration": 1.5979167222976685,
        "pitch": 31,
        "velocity": 21
      },
      {
        "beat": 3,
        "duration": 1.0541666746139526,
        "pitch": 35,
        "velocity": 21
      },
      {
        "beat": 3.004166603088379,
        "duration": 1.0916666984558105,
        "pitch": 36,
        "velocity": 33
      },
      {
        "beat": 3.5,
        "duration": 0.5708333253860474,
        "pitch": 34,
        "velocity": 12
      }
    ],
    "crc32": 343768481,
    "midiSize": 120,
    "midiSha1": "dde0e8b467a63ad01cd4dac501ea0f98f869e64d"
  },
  {
    "code": "GS_32",
    "kind": "chord",
    "family": "GuitarS",
    "modelType": "chord_model_str",
    "subtype": "strings",
    "bpm": 115,
    "beat": "4/4",
    "bnum": 44,
    "noteCount": 8,
    "midi": "pattern_midis/GS_32.mid",
    "notes": [
      {
        "beat": 0,
        "duration": 1.475000023841858,
        "pitch": 31,
        "velocity": 17
      },
      {
        "beat": 0.5,
        "duration": 1.4729167222976685,
        "pitch": 32,
        "velocity": 27
      },
      {
        "beat": 1,
        "duration": 1.4708333015441895,
        "pitch": 33,
        "velocity": 21
      },
      {
        "beat": 1.5,
        "duration": 1.9854166507720947,
        "pitch": 31,
        "velocity": 8
      },
      {
        "beat": 2,
        "duration": 0.9979166388511658,
        "pitch": 32,
        "velocity": 11
      },
      {
        "beat": 2.5,
        "duration": 1.6666666269302368,
        "pitch": 33,
        "velocity": 28
      },
      {
        "beat": 3.00208330154419,
        "duration": 1.1229166984558105,
        "pitch": 32,
        "velocity": 11
      },
      {
        "beat": 3.50208330154419,
        "duration": 0.681249976158142,
        "pitch": 31,
        "velocity": 1
      }
    ],
    "crc32": 820641667,
    "midiSize": 118,
    "midiSha1": "6777b6e7665fc7c66efddcee60f251849ce9350a"
  },
  {
    "code": "GS_4",
    "kind": "chord",
    "family": "GuitarS",
    "modelType": "chord_model_str",
    "subtype": "strings",
    "bpm": 80,
    "beat": "4/4",
    "bnum": 44,
    "noteCount": 11,
    "midi": "pattern_midis/GS_4.mid",
    "notes": [
      {
        "beat": 0,
        "duration": 1.0145833492279053,
        "pitch": 31,
        "velocity": 27
      },
      {
        "beat": 0.5,
        "duration": 0.5208333134651184,
        "pitch": 34,
        "velocity": 47
      },
      {
        "beat": 0.506250023841858,
        "duration": 0.5083333253860474,
        "pitch": 36,
        "velocity": 36
      },
      {
        "beat": 0.5166666507720947,
        "duration": 0.5,
        "pitch": 35,
        "velocity": 21
      },
      {
        "beat": 1.5,
        "duration": 1.5,
        "pitch": 31,
        "velocity": 21
      },
      {
        "beat": 1.506250023841858,
        "duration": 0.9708333611488342,
        "pitch": 35,
        "velocity": 21
      },
      {
        "beat": 1.5104166269302368,
        "duration": 0.9520833492279053,
        "pitch": 34,
        "velocity": 39
      },
      {
        "beat": 1.5104166269302368,
        "duration": 0.9645833373069763,
        "pitch": 36,
        "velocity": 36
      },
      {
        "beat": 2.4895832538604736,
        "duration": 0.5104166865348816,
        "pitch": 36,
        "velocity": 20
      },
      {
        "beat": 2.5,
        "duration": 0.47708332538604736,
        "pitch": 35,
        "velocity": 33
      },
      {
        "beat": 2.5166666507720947,
        "duration": 0.4833333194255829,
        "pitch": 34,
        "velocity": 29
      }
    ],
    "crc32": 2804550627,
    "midiSize": 126,
    "midiSha1": "dcb3f6c7c84b6d34ae9bc934a04cbc671d890399"
  },
  {
    "code": "GS_5",
    "kind": "chord",
    "family": "GuitarS",
    "modelType": "chord_model_str",
    "subtype": "strings",
    "bpm": 72,
    "beat": "4/4",
    "bnum": 44,
    "noteCount": 15,
    "midi": "pattern_midis/GS_5.mid",
    "notes": [
      {
        "beat": 0,
        "duration": 0.25,
        "pitch": 24,
        "velocity": 27
      },
      {
        "beat": 0,
        "duration": 1.5,
        "pitch": 31,
        "velocity": 14
      },
      {
        "beat": 0.75,
        "duration": 2.25208330154419,
        "pitch": 33,
        "velocity": 7
      },
      {
        "beat": 0.756250023841858,
        "duration": 0.743749976158142,
        "pitch": 35,
        "velocity": 28
      },
      {
        "beat": 0.762499988079071,
        "duration": 0.737500011920929,
        "pitch": 34,
        "velocity": 29
      },
      {
        "beat": 1.5,
        "duration": 2.53333330154419,
        "pitch": 31,
        "velocity": 1
      },
      {
        "beat": 1.5,
        "duration": 0.75,
        "pitch": 34,
        "velocity": 1
      },
      {
        "beat": 1.5104166269302368,
        "duration": 0.7395833134651184,
        "pitch": 35,
        "velocity": 1
      },
      {
        "beat": 1.5208333730697632,
        "duration": 2.512500047683716,
        "pitch": 36,
        "velocity": 1
      },
      {
        "beat": 2,
        "duration": 0.25,
        "pitch": 24,
        "velocity": 27
      },
      {
        "beat": 2.25,
        "duration": 1.7604166269302368,
        "pitch": 35,
        "velocity": 24
      },
      {
        "beat": 2.2562499046325684,
        "duration": 0.75,
        "pitch": 34,
        "velocity": 24
      },
      {
        "beat": 3,
        "duration": 1.0187499523162842,
        "pitch": 32,
        "velocity": 1
      },
      {
        "beat": 3.00208330154419,
        "duration": 1.0166666507720947,
        "pitch": 33,
        "velocity": 8
      },
      {
        "beat": 3.0062499046325684,
        "duration": 1.0104166269302368,
        "pitch": 34,
        "velocity": 9
      }
    ],
    "crc32": 3473029247,
    "midiSize": 154,
    "midiSha1": "c4762d979aec628a70ca2f5d22437b2888fdec27"
  },
  {
    "code": "GS_6",
    "kind": "chord",
    "family": "GuitarS",
    "modelType": "chord_model_str",
    "subtype": "strings",
    "bpm": 88,
    "beat": "4/4",
    "bnum": 44,
    "noteCount": 35,
    "midi": "pattern_midis/GS_6.mid",
    "notes": [
      {
        "beat": 0,
        "duration": 0.125,
        "pitch": 26,
        "velocity": 100
      },
      {
        "beat": 0,
        "duration": 0.5,
        "pitch": 31,
        "velocity": 30
      },
      {
        "beat": 0.004166666883975267,
        "duration": 0.5,
        "pitch": 32,
        "velocity": 28
      },
      {
        "beat": 0.5,
        "duration": 1.5,
        "pitch": 31,
        "velocity": 30
      },
      {
        "beat": 0.5041666626930237,
        "duration": 1.4958332777023315,
        "pitch": 32,
        "velocity": 28
      },
      {
        "beat": 1,
        "duration": 0.125,
        "pitch": 24,
        "velocity": 100
      },
      {
        "beat": 1,
        "duration": 0.962499976158142,
        "pitch": 33,
        "velocity": 21
      },
      {
        "beat": 1.006250023841858,
        "duration": 0.5,
        "pitch": 34,
        "velocity": 20
      },
      {
        "beat": 1.006250023841858,
        "duration": 0.5041666626930237,
        "pitch": 35,
        "velocity": 17
      },
      {
        "beat": 1.0104166269302368,
        "duration": 0.7395833134651184,
        "pitch": 36,
        "velocity": 11
      },
      {
        "beat": 1.506250023841858,
        "duration": 0.2541666626930237,
        "pitch": 34,
        "velocity": 1
      },
      {
        "beat": 1.5104166269302368,
        "duration": 0.24791666865348816,
        "pitch": 35,
        "velocity": 3
      },
      {
        "beat": 1.75,
        "duration": 0.25,
        "pitch": 36,
        "velocity": 1
      },
      {
        "beat": 1.7583333253860474,
        "duration": 0.21250000596046448,
        "pitch": 35,
        "velocity": 12
      },
      {
        "beat": 1.7604166269302368,
        "duration": 0.20624999701976776,
        "pitch": 34,
        "velocity": 25
      },
      {
        "beat": 2,
        "duration": 0.125,
        "pitch": 26,
        "velocity": 100
      },
      {
        "beat": 2,
        "duration": 0.5,
        "pitch": 31,
        "velocity": 30
      },
      {
        "beat": 2.004166603088379,
        "duration": 0.5,
        "pitch": 32,
        "velocity": 28
      },
      {
        "beat": 2.25,
        "duration": 0.125,
        "pitch": 24,
        "velocity": 100
      },
      {
        "beat": 2.25,
        "duration": 0.756250023841858,
        "pitch": 35,
        "velocity": 1
      },
      {
        "beat": 2.258333444595337,
        "duration": 0.7458333373069763,
        "pitch": 34,
        "velocity": 1
      },
      {
        "beat": 2.2604167461395264,
        "duration": 0.7395833134651184,
        "pitch": 33,
        "velocity": 1
      },
      {
        "beat": 2.5,
        "duration": 0.125,
        "pitch": 26,
        "velocity": 100
      },
      {
        "beat": 2.5,
        "duration": 1.5625,
        "pitch": 31,
        "velocity": 30
      },
      {
        "beat": 2.504166603088379,
        "duration": 1.5583332777023315,
        "pitch": 32,
        "velocity": 28
      },
      {
        "beat": 3,
        "duration": 0.125,
        "pitch": 24,
        "velocity": 100
      },
      {
        "beat": 3,
        "duration": 1.024999976158142,
        "pitch": 33,
        "velocity": 21
      },
      {
        "beat": 3.0062499046325684,
        "duration": 0.5,
        "pitch": 34,
        "velocity": 20
      },
      {
        "beat": 3.0062499046325684,
        "duration": 0.5041666626930237,
        "pitch": 35,
        "velocity": 17
      },
      {
        "beat": 3.0104167461395264,
        "duration": 0.7395833134651184,
        "pitch": 36,
        "velocity": 11
      },
      {
        "beat": 3.5062499046325684,
        "duration": 0.2541666626930237,
        "pitch": 34,
        "velocity": 1
      },
      {
        "beat": 3.5104167461395264,
        "duration": 0.24791666865348816,
        "pitch": 35,
        "velocity": 3
      },
      {
        "beat": 3.75,
        "duration": 0.3125,
        "pitch": 36,
        "velocity": 1
      },
      {
        "beat": 3.758333444595337,
        "duration": 0.2750000059604645,
        "pitch": 35,
        "velocity": 12
      },
      {
        "beat": 3.7604167461395264,
        "duration": 0.268750011920929,
        "pitch": 34,
        "velocity": 25
      }
    ],
    "crc32": 568153141,
    "midiSize": 308,
    "midiSha1": "f34b6b2b86341620e3977bb9bf95f0742699a1f7"
  },
  {
    "code": "GS_7",
    "kind": "chord",
    "family": "GuitarS",
    "modelType": "chord_model_str",
    "subtype": "strings",
    "bpm": 120,
    "beat": "4/4",
    "bnum": 44,
    "noteCount": 28,
    "midi": "pattern_midis/GS_7.mid",
    "notes": [
      {
        "beat": 0,
        "duration": 0.125,
        "pitch": 26,
        "velocity": 100
      },
      {
        "beat": 0,
        "duration": 0.4937500059604645,
        "pitch": 31,
        "velocity": 30
      },
      {
        "beat": 0.004166666883975267,
        "duration": 0.4937500059604645,
        "pitch": 32,
        "velocity": 28
      },
      {
        "beat": 0.5,
        "duration": 0.4937500059604645,
        "pitch": 31,
        "velocity": 30
      },
      {
        "beat": 0.5041666626930237,
        "duration": 0.4937500059604645,
        "pitch": 32,
        "velocity": 28
      },
      {
        "beat": 1,
        "duration": 0.125,
        "pitch": 24,
        "velocity": 100
      },
      {
        "beat": 1,
        "duration": 0.4937500059604645,
        "pitch": 31,
        "velocity": 2
      },
      {
        "beat": 1.0041667222976685,
        "duration": 0.4895833432674408,
        "pitch": 32,
        "velocity": 1
      },
      {
        "beat": 1.0104166269302368,
        "duration": 0.5520833134651184,
        "pitch": 33,
        "velocity": 21
      },
      {
        "beat": 1.0187499523162842,
        "duration": 0.550000011920929,
        "pitch": 34,
        "velocity": 20
      },
      {
        "beat": 1.5,
        "duration": 0.125,
        "pitch": 26,
        "velocity": 100
      },
      {
        "beat": 1.5,
        "duration": 0.4937500059604645,
        "pitch": 31,
        "velocity": 2
      },
      {
        "beat": 1.5041667222976685,
        "duration": 0.4937500059604645,
        "pitch": 32,
        "velocity": 1
      },
      {
        "beat": 2,
        "duration": 0.4937500059604645,
        "pitch": 31,
        "velocity": 30
      },
      {
        "beat": 2.004166603088379,
        "duration": 0.4895833432674408,
        "pitch": 32,
        "velocity": 28
      },
      {
        "beat": 2.5,
        "duration": 0.125,
        "pitch": 24,
        "velocity": 100
      },
      {
        "beat": 2.5,
        "duration": 0.4937500059604645,
        "pitch": 31,
        "velocity": 2
      },
      {
        "beat": 2.50208330154419,
        "duration": 0.49166667461395264,
        "pitch": 32,
        "velocity": 1
      },
      {
        "beat": 2.5062499046325684,
        "duration": 0.524999976158142,
        "pitch": 33,
        "velocity": 21
      },
      {
        "beat": 2.512500047683716,
        "duration": 0.524999976158142,
        "pitch": 34,
        "velocity": 20
      },
      {
        "beat": 3,
        "duration": 0.125,
        "pitch": 26,
        "velocity": 100
      },
      {
        "beat": 3,
        "duration": 0.4937500059604645,
        "pitch": 31,
        "velocity": 30
      },
      {
        "beat": 3.004166603088379,
        "duration": 0.4895833432674408,
        "pitch": 32,
        "velocity": 28
      },
      {
        "beat": 3.5,
        "duration": 0.125,
        "pitch": 24,
        "velocity": 100
      },
      {
        "beat": 3.5,
        "duration": 0.5145833492279053,
        "pitch": 31,
        "velocity": 2
      },
      {
        "beat": 3.50208330154419,
        "duration": 0.512499988079071,
        "pitch": 32,
        "velocity": 1
      },
      {
        "beat": 3.504166603088379,
        "duration": 0.5104166865348816,
        "pitch": 33,
        "velocity": 21
      },
      {
        "beat": 3.508333444595337,
        "duration": 0.506250023841858,
        "pitch": 34,
        "velocity": 20
      }
    ],
    "crc32": 3314682622,
    "midiSize": 241,
    "midiSha1": "5caf52e1eb1b146a6cf0eb562505c5e39b61eb45"
  },
  {
    "code": "GS_8",
    "kind": "chord",
    "family": "GuitarS",
    "modelType": "chord_model_str",
    "subtype": "strings",
    "bpm": 110,
    "beat": "4/4",
    "bnum": 44,
    "noteCount": 30,
    "midi": "pattern_midis/GS_8.mid",
    "notes": [
      {
        "beat": 0,
        "duration": 0.25,
        "pitch": 24,
        "velocity": 100
      },
      {
        "beat": 0.5,
        "duration": 0.25,
        "pitch": 33,
        "velocity": 25
      },
      {
        "beat": 0.5083333253860474,
        "duration": 0.24166665971279144,
        "pitch": 34,
        "velocity": 25
      },
      {
        "beat": 0.518750011920929,
        "duration": 0.23125000298023224,
        "pitch": 35,
        "velocity": 16
      },
      {
        "beat": 0.5291666388511658,
        "duration": 0.24583333730697632,
        "pitch": 36,
        "velocity": 9
      },
      {
        "beat": 1,
        "duration": 0.537500023841858,
        "pitch": 31,
        "velocity": 2
      },
      {
        "beat": 1.0083333253860474,
        "duration": 0.49166667461395264,
        "pitch": 32,
        "velocity": 1
      },
      {
        "beat": 1.0145833492279053,
        "duration": 0.4854166805744171,
        "pitch": 33,
        "velocity": 6
      },
      {
        "beat": 1.0229166746139526,
        "duration": 0.47708332538604736,
        "pitch": 34,
        "velocity": 6
      },
      {
        "beat": 1.0333333015441895,
        "duration": 0.46666666865348816,
        "pitch": 35,
        "velocity": 16
      },
      {
        "beat": 1.0437500476837158,
        "duration": 0.4937500059604645,
        "pitch": 36,
        "velocity": 9
      },
      {
        "beat": 2,
        "duration": 0.25,
        "pitch": 24,
        "velocity": 100
      },
      {
        "beat": 2,
        "duration": 0.9895833134651184,
        "pitch": 31,
        "velocity": 6
      },
      {
        "beat": 2.008333444595337,
        "duration": 1.0041667222976685,
        "pitch": 32,
        "velocity": 4
      },
      {
        "beat": 2.0145833492279053,
        "duration": 0.9979166388511658,
        "pitch": 33,
        "velocity": 25
      },
      {
        "beat": 2.022916555404663,
        "duration": 0.7416666746139526,
        "pitch": 34,
        "velocity": 25
      },
      {
        "beat": 2.03333330154419,
        "duration": 0.7270833253860474,
        "pitch": 35,
        "velocity": 16
      },
      {
        "beat": 2.043750047683716,
        "duration": 0.706250011920929,
        "pitch": 36,
        "velocity": 9
      },
      {
        "beat": 2.75,
        "duration": 0.25,
        "pitch": 36,
        "velocity": 17
      },
      {
        "beat": 2.7645833492279053,
        "duration": 0.2562499940395355,
        "pitch": 35,
        "velocity": 12
      },
      {
        "beat": 2.7708332538604736,
        "duration": 0.24166665971279144,
        "pitch": 34,
        "velocity": 24
      },
      {
        "beat": 3.5,
        "duration": 0.5666666626930237,
        "pitch": 31,
        "velocity": 21
      },
      {
        "beat": 3.508333444595337,
        "duration": 0.5229166746139526,
        "pitch": 32,
        "velocity": 19
      },
      {
        "beat": 3.5145833492279053,
        "duration": 0.5166666507720947,
        "pitch": 33,
        "velocity": 25
      },
      {
        "beat": 3.522916555404663,
        "duration": 0.22083333134651184,
        "pitch": 34,
        "velocity": 25
      },
      {
        "beat": 3.53333330154419,
        "duration": 0.2083333283662796,
        "pitch": 35,
        "velocity": 16
      },
      {
        "beat": 3.543750047683716,
        "duration": 0.18333333730697632,
        "pitch": 36,
        "velocity": 9
      },
      {
        "beat": 3.7291667461395264,
        "duration": 0.34166666865348816,
        "pitch": 36,
        "velocity": 17
      },
      {
        "beat": 3.7437500953674316,
        "duration": 0.2750000059604645,
        "pitch": 35,
        "velocity": 12
      },
      {
        "beat": 3.75,
        "duration": 0.2604166567325592,
        "pitch": 34,
        "velocity": 24
      }
    ],
    "crc32": 2986314273,
    "midiSize": 255,
    "midiSha1": "cc1ebd2b1671a717c9a59857a5625c7449384395"
  },
  {
    "code": "GS_9",
    "kind": "chord",
    "family": "GuitarS",
    "modelType": "chord_model_str",
    "subtype": "strings",
    "bpm": 75,
    "beat": "4/4",
    "bnum": 44,
    "noteCount": 30,
    "midi": "pattern_midis/GS_9.mid",
    "notes": [
      {
        "beat": 0,
        "duration": 0.25,
        "pitch": 24,
        "velocity": 100
      },
      {
        "beat": 0,
        "duration": 2,
        "pitch": 31,
        "velocity": 21
      },
      {
        "beat": 0.008333333767950535,
        "duration": 1.9916666746139526,
        "pitch": 32,
        "velocity": 1
      },
      {
        "beat": 0.5,
        "duration": 1.3520833253860474,
        "pitch": 33,
        "velocity": 25
      },
      {
        "beat": 0.5083333253860474,
        "duration": 0.8166666626930237,
        "pitch": 34,
        "velocity": 25
      },
      {
        "beat": 0.518750011920929,
        "duration": 0.8020833134651184,
        "pitch": 35,
        "velocity": 16
      },
      {
        "beat": 0.5291666388511658,
        "duration": 0.9791666865348816,
        "pitch": 36,
        "velocity": 9
      },
      {
        "beat": 1.3208333253860474,
        "duration": 0.1875,
        "pitch": 35,
        "velocity": 7
      },
      {
        "beat": 1.3250000476837158,
        "duration": 0.17291666567325592,
        "pitch": 34,
        "velocity": 10
      },
      {
        "beat": 1.5,
        "duration": 0.34166666865348816,
        "pitch": 34,
        "velocity": 25
      },
      {
        "beat": 1.5083333253860474,
        "duration": 0.3270833194255829,
        "pitch": 35,
        "velocity": 25
      },
      {
        "beat": 1.5125000476837158,
        "duration": 1.0125000476837158,
        "pitch": 36,
        "velocity": 1
      },
      {
        "beat": 1.8395832777023315,
        "duration": 0.6770833134651184,
        "pitch": 35,
        "velocity": 12
      },
      {
        "beat": 1.8458333015441895,
        "duration": 0.6604166626930237,
        "pitch": 34,
        "velocity": 24
      },
      {
        "beat": 1.8520833253860474,
        "duration": 0.6458333134651184,
        "pitch": 33,
        "velocity": 12
      },
      {
        "beat": 2,
        "duration": 0.25,
        "pitch": 24,
        "velocity": 100
      },
      {
        "beat": 2,
        "duration": 2.039583444595337,
        "pitch": 31,
        "velocity": 16
      },
      {
        "beat": 2,
        "duration": 2.0104167461395264,
        "pitch": 32,
        "velocity": 1
      },
      {
        "beat": 2.5,
        "duration": 1,
        "pitch": 33,
        "velocity": 12
      },
      {
        "beat": 2.508333444595337,
        "duration": 0.8166666626930237,
        "pitch": 34,
        "velocity": 12
      },
      {
        "beat": 2.518749952316284,
        "duration": 0.8020833134651184,
        "pitch": 35,
        "velocity": 16
      },
      {
        "beat": 2.52916669845581,
        "duration": 1.5125000476837158,
        "pitch": 36,
        "velocity": 4
      },
      {
        "beat": 3.320833444595337,
        "duration": 0.18958333134651184,
        "pitch": 35,
        "velocity": 7
      },
      {
        "beat": 3.325000047683716,
        "duration": 0.17916665971279144,
        "pitch": 34,
        "velocity": 10
      },
      {
        "beat": 3.5,
        "duration": 0.35208332538604736,
        "pitch": 33,
        "velocity": 25
      },
      {
        "beat": 3.5062499046325684,
        "duration": 0.33541667461395264,
        "pitch": 34,
        "velocity": 25
      },
      {
        "beat": 3.512500047683716,
        "duration": 0.3229166567325592,
        "pitch": 35,
        "velocity": 25
      },
      {
        "beat": 3.839583396911621,
        "duration": 0.17499999701976776,
        "pitch": 35,
        "velocity": 12
      },
      {
        "beat": 3.84583330154419,
        "duration": 0.17291666567325592,
        "pitch": 34,
        "velocity": 24
      },
      {
        "beat": 3.852083444595337,
        "duration": 0.15833333134651184,
        "pitch": 33,
        "velocity": 12
      }
    ],
    "crc32": 773055045,
    "midiSize": 269,
    "midiSha1": "45d064a2688c98161b36a319e12482e84acfe2dc"
  },
  {
    "code": "PianoMKS20_1",
    "kind": "chord",
    "family": "PianoMKS20",
    "modelType": "chord_model_379",
    "subtype": "proller",
    "bpm": 70,
    "beat": "4/4",
    "bnum": 44,
    "noteCount": 9,
    "midi": "pattern_midis/PianoMKS20_1.mid",
    "notes": [
      {
        "beat": 0,
        "duration": 4,
        "pitch": 48,
        "velocity": 59
      },
      {
        "beat": 0.5,
        "duration": 1,
        "pitch": 60,
        "velocity": 43
      },
      {
        "beat": 1,
        "duration": 0.949999988079071,
        "pitch": 64,
        "velocity": 51
      },
      {
        "beat": 1.5,
        "duration": 1,
        "pitch": 60,
        "velocity": 33
      },
      {
        "beat": 1.9645832777023315,
        "duration": 0.9708333611488342,
        "pitch": 64,
        "velocity": 29
      },
      {
        "beat": 2,
        "duration": 2,
        "pitch": 67,
        "velocity": 44
      },
      {
        "beat": 2.5,
        "duration": 1,
        "pitch": 60,
        "velocity": 28
      },
      {
        "beat": 3,
        "duration": 1,
        "pitch": 64,
        "velocity": 44
      },
      {
        "beat": 3.5,
        "duration": 0.5,
        "pitch": 60,
        "velocity": 33
      }
    ],
    "crc32": 811109590,
    "midiSize": 125,
    "midiSha1": "5e247efb52a85a94960cdbcfd322bf59f91ef8ca"
  },
  {
    "code": "PianoMKS20_10",
    "kind": "chord",
    "family": "PianoMKS20",
    "modelType": "chord_model_379",
    "subtype": "proller",
    "bpm": 72,
    "beat": "4/4",
    "bnum": 44,
    "noteCount": 14,
    "midi": "pattern_midis/PianoMKS20_10.mid",
    "notes": [
      {
        "beat": 0,
        "duration": 2,
        "pitch": 48,
        "velocity": 20
      },
      {
        "beat": 0.25,
        "duration": 0.5,
        "pitch": 55,
        "velocity": 34
      },
      {
        "beat": 0.5,
        "duration": 1.25,
        "pitch": 60,
        "velocity": 30
      },
      {
        "beat": 0.75,
        "duration": 1.5,
        "pitch": 55,
        "velocity": 29
      },
      {
        "beat": 1,
        "duration": 3,
        "pitch": 67,
        "velocity": 25
      },
      {
        "beat": 1.5,
        "duration": 1.5,
        "pitch": 64,
        "velocity": 18
      },
      {
        "beat": 1.75,
        "duration": 0.75,
        "pitch": 60,
        "velocity": 13
      },
      {
        "beat": 2,
        "duration": 2,
        "pitch": 48,
        "velocity": 21
      },
      {
        "beat": 2.25,
        "duration": 0.5,
        "pitch": 55,
        "velocity": 31
      },
      {
        "beat": 2.5,
        "duration": 1,
        "pitch": 60,
        "velocity": 30
      },
      {
        "beat": 2.75,
        "duration": 1,
        "pitch": 55,
        "velocity": 20
      },
      {
        "beat": 3,
        "duration": 1,
        "pitch": 64,
        "velocity": 25
      },
      {
        "beat": 3.5,
        "duration": 0.5,
        "pitch": 60,
        "velocity": 20
      },
      {
        "beat": 3.75,
        "duration": 0.25,
        "pitch": 55,
        "velocity": 10
      }
    ],
    "crc32": 1122039096,
    "midiSize": 162,
    "midiSha1": "b80a1feae1f4db07da2ef5660102ddc586830b82"
  },
  {
    "code": "PianoMKS20_11",
    "kind": "chord",
    "family": "PianoMKS20",
    "modelType": "chord_model_379",
    "subtype": "proller",
    "bpm": 72,
    "beat": "4/4",
    "bnum": 44,
    "noteCount": 14,
    "midi": "pattern_midis/PianoMKS20_11.mid",
    "notes": [
      {
        "beat": 0,
        "duration": 1.5,
        "pitch": 48,
        "velocity": 30
      },
      {
        "beat": 0.0416666679084301,
        "duration": 0.7083333134651184,
        "pitch": 60,
        "velocity": 25
      },
      {
        "beat": 0.0625,
        "duration": 1.4375,
        "pitch": 64,
        "velocity": 36
      },
      {
        "beat": 0.08541666716337204,
        "duration": 1.4145833253860474,
        "pitch": 67,
        "velocity": 37
      },
      {
        "beat": 0.75,
        "duration": 0.75,
        "pitch": 60,
        "velocity": 27
      },
      {
        "beat": 1.25,
        "duration": 0.25,
        "pitch": 55,
        "velocity": 22
      },
      {
        "beat": 1.5,
        "duration": 1.5,
        "pitch": 48,
        "velocity": 26
      },
      {
        "beat": 1.5,
        "duration": 2,
        "pitch": 60,
        "velocity": 22
      },
      {
        "beat": 1.5,
        "duration": 2.5,
        "pitch": 64,
        "velocity": 21
      },
      {
        "beat": 1.5,
        "duration": 2.25,
        "pitch": 67,
        "velocity": 27
      },
      {
        "beat": 3,
        "duration": 1.0020833015441895,
        "pitch": 48,
        "velocity": 25
      },
      {
        "beat": 3.25,
        "duration": 0.75,
        "pitch": 55,
        "velocity": 31
      },
      {
        "beat": 3.5,
        "duration": 0.5,
        "pitch": 60,
        "velocity": 22
      },
      {
        "beat": 3.75,
        "duration": 0.25,
        "pitch": 67,
        "velocity": 22
      }
    ],
    "crc32": 648148424,
    "midiSize": 155,
    "midiSha1": "7b5633e05404bbc86f210a6bf1f5b0b4635d755b"
  },
  {
    "code": "PianoMKS20_12",
    "kind": "chord",
    "family": "PianoMKS20",
    "modelType": "chord_model_379",
    "subtype": "proller",
    "bpm": 78,
    "beat": "4/4",
    "bnum": 44,
    "noteCount": 4,
    "midi": "pattern_midis/PianoMKS20_12.mid",
    "notes": [
      {
        "beat": 0,
        "duration": 4.03333330154419,
        "pitch": 48,
        "velocity": 30
      },
      {
        "beat": 0.5,
        "duration": 3.53333330154419,
        "pitch": 64,
        "velocity": 30
      },
      {
        "beat": 1,
        "duration": 3.03333330154419,
        "pitch": 72,
        "velocity": 30
      },
      {
        "beat": 1.5,
        "duration": 2.53333330154419,
        "pitch": 67,
        "velocity": 27
      }
    ],
    "crc32": 2828672909,
    "midiSize": 88,
    "midiSha1": "56b69f156c2f86c52e1296752a2acda7b408cd80"
  },
  {
    "code": "PianoMKS20_13",
    "kind": "chord",
    "family": "PianoMKS20",
    "modelType": "chord_model_379",
    "subtype": "proller",
    "bpm": 68,
    "beat": "4/4",
    "bnum": 44,
    "noteCount": 13,
    "midi": "pattern_midis/PianoMKS20_13.mid",
    "notes": [
      {
        "beat": 0,
        "duration": 4,
        "pitch": 48,
        "velocity": 30
      },
      {
        "beat": 0,
        "duration": 0.9916666746139526,
        "pitch": 55,
        "velocity": 30
      },
      {
        "beat": 0.3333333432674408,
        "duration": 0.9916666746139526,
        "pitch": 60,
        "velocity": 27
      },
      {
        "beat": 0.6666666865348816,
        "duration": 0.9916666746139526,
        "pitch": 64,
        "velocity": 27
      },
      {
        "beat": 1,
        "duration": 0.9916666746139526,
        "pitch": 55,
        "velocity": 30
      },
      {
        "beat": 1.3333333730697632,
        "duration": 0.9916666746139526,
        "pitch": 60,
        "velocity": 27
      },
      {
        "beat": 1.6666666269302368,
        "duration": 0.9916666746139526,
        "pitch": 64,
        "velocity": 27
      },
      {
        "beat": 2,
        "duration": 0.9916666746139526,
        "pitch": 55,
        "velocity": 30
      },
      {
        "beat": 2.3333332538604736,
        "duration": 0.9916666746139526,
        "pitch": 60,
        "velocity": 27
      },
      {
        "beat": 2.6666667461395264,
        "duration": 0.9916666746139526,
        "pitch": 64,
        "velocity": 27
      },
      {
        "beat": 3,
        "duration": 1,
        "pitch": 55,
        "velocity": 30
      },
      {
        "beat": 3.3333332538604736,
        "duration": 0.6666666865348816,
        "pitch": 60,
        "velocity": 27
      },
      {
        "beat": 3.6666667461395264,
        "duration": 0.3333333432674408,
        "pitch": 64,
        "velocity": 27
      }
    ],
    "crc32": 2491590467,
    "midiSize": 168,
    "midiSha1": "8f250ca5f655a557a971334fff2cfd8cc657594a"
  },
  {
    "code": "PianoMKS20_14",
    "kind": "chord",
    "family": "PianoMKS20",
    "modelType": "chord_model_379",
    "subtype": "proller",
    "bpm": 54,
    "beat": "4/4",
    "bnum": 44,
    "noteCount": 16,
    "midi": "pattern_midis/PianoMKS20_14.mid",
    "notes": [
      {
        "beat": 0,
        "duration": 2,
        "pitch": 48,
        "velocity": 28
      },
      {
        "beat": 0.25,
        "duration": 1.75,
        "pitch": 55,
        "velocity": 23
      },
      {
        "beat": 0.5,
        "duration": 0.7458333373069763,
        "pitch": 60,
        "velocity": 28
      },
      {
        "beat": 0.75,
        "duration": 0.7458333373069763,
        "pitch": 64,
        "velocity": 26
      },
      {
        "beat": 1,
        "duration": 0.7458333373069763,
        "pitch": 67,
        "velocity": 30
      },
      {
        "beat": 1.25,
        "duration": 0.75,
        "pitch": 60,
        "velocity": 26
      },
      {
        "beat": 1.5,
        "duration": 0.5,
        "pitch": 64,
        "velocity": 26
      },
      {
        "beat": 1.75,
        "duration": 0.25,
        "pitch": 67,
        "velocity": 21
      },
      {
        "beat": 2,
        "duration": 2,
        "pitch": 48,
        "velocity": 28
      },
      {
        "beat": 2.25,
        "duration": 1.75,
        "pitch": 55,
        "velocity": 23
      },
      {
        "beat": 2.5,
        "duration": 0.7458333373069763,
        "pitch": 60,
        "velocity": 28
      },
      {
        "beat": 2.75,
        "duration": 0.7458333373069763,
        "pitch": 64,
        "velocity": 26
      },
      {
        "beat": 3,
        "duration": 0.7458333373069763,
        "pitch": 67,
        "velocity": 30
      },
      {
        "beat": 3.25,
        "duration": 0.75,
        "pitch": 60,
        "velocity": 26
      },
      {
        "beat": 3.5,
        "duration": 0.5,
        "pitch": 64,
        "velocity": 26
      },
      {
        "beat": 3.75,
        "duration": 0.25,
        "pitch": 67,
        "velocity": 21
      }
    ],
    "crc32": 900367122,
    "midiSize": 170,
    "midiSha1": "9adb2e2c1efc777bf0d52aecd8763d0592a37631"
  },
  {
    "code": "PianoMKS20_15",
    "kind": "chord",
    "family": "PianoMKS20",
    "modelType": "chord_model_379",
    "subtype": "proller",
    "bpm": 100,
    "beat": "4/4",
    "bnum": 44,
    "noteCount": 20,
    "midi": "pattern_midis/PianoMKS20_15.mid",
    "notes": [
      {
        "beat": 0,
        "duration": 0.5,
        "pitch": 48,
        "velocity": 27
      },
      {
        "beat": 0.9583333134651184,
        "duration": 0.4833333194255829,
        "pitch": 55,
        "velocity": 19
      },
      {
        "beat": 0.975000023841858,
        "duration": 0.4833333194255829,
        "pitch": 60,
        "velocity": 35
      },
      {
        "beat": 1,
        "duration": 0.4833333194255829,
        "pitch": 64,
        "velocity": 48
      },
      {
        "beat": 1.5,
        "duration": 0.05833333358168602,
        "pitch": 55,
        "velocity": 36
      },
      {
        "beat": 1.75,
        "duration": 0.12916666269302368,
        "pitch": 55,
        "velocity": 28
      },
      {
        "beat": 1.75,
        "duration": 0.12916666269302368,
        "pitch": 60,
        "velocity": 34
      },
      {
        "beat": 1.75,
        "duration": 0.12916666269302368,
        "pitch": 64,
        "velocity": 38
      },
      {
        "beat": 2.25,
        "duration": 0.125,
        "pitch": 55,
        "velocity": 37
      },
      {
        "beat": 2.25,
        "duration": 0.125,
        "pitch": 60,
        "velocity": 36
      },
      {
        "beat": 2.25,
        "duration": 0.125,
        "pitch": 64,
        "velocity": 48
      },
      {
        "beat": 2.75,
        "duration": 0.09583333134651184,
        "pitch": 55,
        "velocity": 32
      },
      {
        "beat": 2.96666669845581,
        "duration": 0.3166666626930237,
        "pitch": 55,
        "velocity": 38
      },
      {
        "beat": 2.9749999046325684,
        "duration": 0.4583333432674408,
        "pitch": 60,
        "velocity": 38
      },
      {
        "beat": 3,
        "duration": 0.4583333432674408,
        "pitch": 64,
        "velocity": 40
      },
      {
        "beat": 3.3333332538604736,
        "duration": 0.11249999701976776,
        "pitch": 55,
        "velocity": 24
      },
      {
        "beat": 3.46666669845581,
        "duration": 0.3125,
        "pitch": 55,
        "velocity": 25
      },
      {
        "beat": 3.4749999046325684,
        "duration": 0.524999976158142,
        "pitch": 60,
        "velocity": 42
      },
      {
        "beat": 3.5,
        "duration": 0.5,
        "pitch": 64,
        "velocity": 44
      },
      {
        "beat": 3.8333332538604736,
        "duration": 0.08541666716337204,
        "pitch": 55,
        "velocity": 37
      }
    ],
    "crc32": 3935779059,
    "midiSize": 205,
    "midiSha1": "046adbf8ab2f18bb6a5473f57a0bf21a07a2c88a"
  },
  {
    "code": "PianoMKS20_16",
    "kind": "chord",
    "family": "PianoMKS20",
    "modelType": "chord_model_379",
    "subtype": "proller",
    "bpm": 80,
    "beat": "4/4",
    "bnum": 44,
    "noteCount": 5,
    "midi": "pattern_midis/PianoMKS20_16.mid",
    "notes": [
      {
        "beat": 0,
        "duration": 4.041666507720947,
        "pitch": 48,
        "velocity": 33
      },
      {
        "beat": 0.5,
        "duration": 3.5416667461395264,
        "pitch": 55,
        "velocity": 38
      },
      {
        "beat": 1,
        "duration": 3.0416667461395264,
        "pitch": 60,
        "velocity": 39
      },
      {
        "beat": 1.5,
        "duration": 2.5416667461395264,
        "pitch": 64,
        "velocity": 37
      },
      {
        "beat": 2,
        "duration": 2.0416667461395264,
        "pitch": 67,
        "velocity": 39
      }
    ],
    "crc32": 362484742,
    "midiSize": 95,
    "midiSha1": "292a5bc6f07af7b9fdc64d0efac6ab28a071e0df"
  },
  {
    "code": "PianoMKS20_17",
    "kind": "chord",
    "family": "PianoMKS20",
    "modelType": "chord_model_379",
    "subtype": "proller",
    "bpm": 96,
    "beat": "4/4",
    "bnum": 44,
    "noteCount": 13,
    "midi": "pattern_midis/PianoMKS20_17.mid",
    "notes": [
      {
        "beat": 0,
        "duration": 4,
        "pitch": 48,
        "velocity": 39
      },
      {
        "beat": 0,
        "duration": 0.75,
        "pitch": 60,
        "velocity": 40
      },
      {
        "beat": 0,
        "duration": 0.75,
        "pitch": 64,
        "velocity": 42
      },
      {
        "beat": 0.75,
        "duration": 0.25,
        "pitch": 55,
        "velocity": 33
      },
      {
        "beat": 1,
        "duration": 0.75,
        "pitch": 60,
        "velocity": 40
      },
      {
        "beat": 1,
        "duration": 0.75,
        "pitch": 64,
        "velocity": 42
      },
      {
        "beat": 1.75,
        "duration": 0.25,
        "pitch": 55,
        "velocity": 33
      },
      {
        "beat": 2,
        "duration": 0.75,
        "pitch": 60,
        "velocity": 40
      },
      {
        "beat": 2,
        "duration": 0.75,
        "pitch": 64,
        "velocity": 42
      },
      {
        "beat": 2.75,
        "duration": 0.25,
        "pitch": 55,
        "velocity": 33
      },
      {
        "beat": 3,
        "duration": 0.75,
        "pitch": 60,
        "velocity": 40
      },
      {
        "beat": 3,
        "duration": 0.75,
        "pitch": 64,
        "velocity": 42
      },
      {
        "beat": 3.75,
        "duration": 0.25,
        "pitch": 55,
        "velocity": 33
      }
    ],
    "crc32": 1651116751,
    "midiSize": 154,
    "midiSha1": "3ebaa18765464f1e8abcf66317dc641576139423"
  },
  {
    "code": "PianoMKS20_18",
    "kind": "chord",
    "family": "PianoMKS20",
    "modelType": "chord_model_379",
    "subtype": "proller",
    "bpm": 88,
    "beat": "4/4",
    "bnum": 44,
    "noteCount": 9,
    "midi": "pattern_midis/PianoMKS20_18.mid",
    "notes": [
      {
        "beat": 0,
        "duration": 3.9791667461395264,
        "pitch": 48,
        "velocity": 25
      },
      {
        "beat": 0,
        "duration": 1.975000023841858,
        "pitch": 64,
        "velocity": 36
      },
      {
        "beat": 0.5,
        "duration": 0.9791666865348816,
        "pitch": 55,
        "velocity": 24
      },
      {
        "beat": 1,
        "duration": 1.975000023841858,
        "pitch": 60,
        "velocity": 27
      },
      {
        "beat": 1.5,
        "duration": 0.9791666865348816,
        "pitch": 55,
        "velocity": 26
      },
      {
        "beat": 2,
        "duration": 1.975000023841858,
        "pitch": 64,
        "velocity": 33
      },
      {
        "beat": 2.5,
        "duration": 0.9791666865348816,
        "pitch": 55,
        "velocity": 23
      },
      {
        "beat": 3,
        "duration": 0.975000023841858,
        "pitch": 60,
        "velocity": 25
      },
      {
        "beat": 3.5,
        "duration": 0.4791666567325592,
        "pitch": 55,
        "velocity": 29
      }
    ],
    "crc32": 544323127,
    "midiSize": 132,
    "midiSha1": "ea2868e54a982cabe0d7d775088461caff7df31f"
  },
  {
    "code": "PianoMKS20_19",
    "kind": "chord",
    "family": "PianoMKS20",
    "modelType": "chord_model_379",
    "subtype": "proller",
    "bpm": 120,
    "beat": "4/4",
    "bnum": 86,
    "noteCount": 6,
    "midi": "pattern_midis/PianoMKS20_19.mid",
    "notes": [
      {
        "beat": 0,
        "duration": 3,
        "pitch": 48,
        "velocity": 45
      },
      {
        "beat": 0.5,
        "duration": 2,
        "pitch": 60,
        "velocity": 25
      },
      {
        "beat": 1,
        "duration": 1,
        "pitch": 64,
        "velocity": 20
      },
      {
        "beat": 1.5,
        "duration": 1.5,
        "pitch": 67,
        "velocity": 40
      },
      {
        "beat": 2,
        "duration": 1,
        "pitch": 64,
        "velocity": 15
      },
      {
        "beat": 2.5,
        "duration": 0.5,
        "pitch": 60,
        "velocity": 20
      }
    ],
    "crc32": 3737506868,
    "midiSize": 104,
    "midiSha1": "9f8157c8b36e79f484cd5008d43361778ac34380"
  },
  {
    "code": "PianoMKS20_2",
    "kind": "chord",
    "family": "PianoMKS20",
    "modelType": "chord_model_379",
    "subtype": "proller",
    "bpm": 70,
    "beat": "4/4",
    "bnum": 44,
    "noteCount": 8,
    "midi": "pattern_midis/PianoMKS20_2.mid",
    "notes": [
      {
        "beat": 0,
        "duration": 4,
        "pitch": 48,
        "velocity": 44
      },
      {
        "beat": 0.5,
        "duration": 3.5,
        "pitch": 52,
        "velocity": 38
      },
      {
        "beat": 1,
        "duration": 2.5,
        "pitch": 55,
        "velocity": 35
      },
      {
        "beat": 1.5,
        "duration": 1.5,
        "pitch": 60,
        "velocity": 49
      },
      {
        "beat": 2,
        "duration": 2,
        "pitch": 67,
        "velocity": 45
      },
      {
        "beat": 2.5,
        "duration": 1.5,
        "pitch": 64,
        "velocity": 31
      },
      {
        "beat": 3,
        "duration": 1,
        "pitch": 60,
        "velocity": 47
      },
      {
        "beat": 3.5,
        "duration": 0.5,
        "pitch": 55,
        "velocity": 26
      }
    ],
    "crc32": 1562459550,
    "midiSize": 117,
    "midiSha1": "8d338360df17f819e3003c13843ee00b325776da"
  },
  {
    "code": "PianoMKS20_20",
    "kind": "chord",
    "family": "PianoMKS20",
    "modelType": "chord_model_379",
    "subtype": "proller",
    "bpm": 73,
    "beat": "4/4",
    "bnum": 44,
    "noteCount": 16,
    "midi": "pattern_midis/PianoMKS20_20.mid",
    "notes": [
      {
        "beat": 0,
        "duration": 4.02916669845581,
        "pitch": 48,
        "velocity": 22
      },
      {
        "beat": 0,
        "duration": 0.9958333373069763,
        "pitch": 67,
        "velocity": 29
      },
      {
        "beat": 0.5,
        "duration": 0.9958333373069763,
        "pitch": 64,
        "velocity": 27
      },
      {
        "beat": 0.5,
        "duration": 0.9958333373069763,
        "pitch": 72,
        "velocity": 27
      },
      {
        "beat": 1,
        "duration": 0.9958333373069763,
        "pitch": 60,
        "velocity": 23
      },
      {
        "beat": 1,
        "duration": 0.9958333373069763,
        "pitch": 67,
        "velocity": 29
      },
      {
        "beat": 1.5,
        "duration": 0.9958333373069763,
        "pitch": 64,
        "velocity": 26
      },
      {
        "beat": 1.5,
        "duration": 0.9958333373069763,
        "pitch": 72,
        "velocity": 27
      },
      {
        "beat": 2,
        "duration": 0.9958333373069763,
        "pitch": 60,
        "velocity": 29
      },
      {
        "beat": 2,
        "duration": 0.9958333373069763,
        "pitch": 67,
        "velocity": 29
      },
      {
        "beat": 2.5,
        "duration": 0.9958333373069763,
        "pitch": 64,
        "velocity": 24
      },
      {
        "beat": 2.5,
        "duration": 0.9958333373069763,
        "pitch": 72,
        "velocity": 27
      },
      {
        "beat": 3,
        "duration": 1.0291666984558105,
        "pitch": 60,
        "velocity": 28
      },
      {
        "beat": 3,
        "duration": 1.0291666984558105,
        "pitch": 67,
        "velocity": 29
      },
      {
        "beat": 3.5,
        "duration": 0.5291666388511658,
        "pitch": 64,
        "velocity": 25
      },
      {
        "beat": 3.5,
        "duration": 0.5291666388511658,
        "pitch": 72,
        "velocity": 27
      }
    ],
    "crc32": 2088759690,
    "midiSize": 176,
    "midiSha1": "ddeb421212385442b5b3a8ef7e1473f485e62159"
  },
  {
    "code": "PianoMKS20_21",
    "kind": "chord",
    "family": "PianoMKS20",
    "modelType": "chord_model_379",
    "subtype": "proller",
    "bpm": 66,
    "beat": "4/4",
    "bnum": 44,
    "noteCount": 17,
    "midi": "pattern_midis/PianoMKS20_21.mid",
    "notes": [
      {
        "beat": 0,
        "duration": 3.991666555404663,
        "pitch": 48,
        "velocity": 27
      },
      {
        "beat": 0,
        "duration": 0.9916666746139526,
        "pitch": 64,
        "velocity": 28
      },
      {
        "beat": 0.25,
        "duration": 0.49166667461395264,
        "pitch": 60,
        "velocity": 30
      },
      {
        "beat": 0.5,
        "duration": 0.9916666746139526,
        "pitch": 55,
        "velocity": 26
      },
      {
        "beat": 0.75,
        "duration": 0.49166667461395264,
        "pitch": 60,
        "velocity": 29
      },
      {
        "beat": 1,
        "duration": 0.9916666746139526,
        "pitch": 64,
        "velocity": 33
      },
      {
        "beat": 1.25,
        "duration": 0.49166667461395264,
        "pitch": 60,
        "velocity": 29
      },
      {
        "beat": 1.5,
        "duration": 0.9916666746139526,
        "pitch": 55,
        "velocity": 25
      },
      {
        "beat": 1.75,
        "duration": 0.49166667461395264,
        "pitch": 60,
        "velocity": 29
      },
      {
        "beat": 2,
        "duration": 0.9916666746139526,
        "pitch": 64,
        "velocity": 34
      },
      {
        "beat": 2.25,
        "duration": 0.49166667461395264,
        "pitch": 60,
        "velocity": 29
      },
      {
        "beat": 2.5,
        "duration": 0.9916666746139526,
        "pitch": 55,
        "velocity": 25
      },
      {
        "beat": 2.75,
        "duration": 0.49166667461395264,
        "pitch": 60,
        "velocity": 27
      },
      {
        "beat": 3,
        "duration": 0.9916666746139526,
        "pitch": 64,
        "velocity": 34
      },
      {
        "beat": 3.25,
        "duration": 0.49166667461395264,
        "pitch": 60,
        "velocity": 27
      },
      {
        "beat": 3.5,
        "duration": 0.49166667461395264,
        "pitch": 55,
        "velocity": 27
      },
      {
        "beat": 3.75,
        "duration": 0.24166665971279144,
        "pitch": 60,
        "velocity": 27
      }
    ],
    "crc32": 2382533700,
    "midiSize": 188,
    "midiSha1": "5241de3736a2aaf2c39cc5ab2dcd2f3cd9798821"
  },
  {
    "code": "PianoMKS20_22",
    "kind": "chord",
    "family": "PianoMKS20",
    "modelType": "chord_model_379",
    "subtype": "proller",
    "bpm": 125,
    "beat": "4/4",
    "bnum": 44,
    "noteCount": 10,
    "midi": "pattern_midis/PianoMKS20_22.mid",
    "notes": [
      {
        "beat": 0,
        "duration": 4,
        "pitch": 48,
        "velocity": 29
      },
      {
        "beat": 0,
        "duration": 1.5,
        "pitch": 55,
        "velocity": 26
      },
      {
        "beat": 0,
        "duration": 1.5,
        "pitch": 60,
        "velocity": 31
      },
      {
        "beat": 0,
        "duration": 1.5,
        "pitch": 64,
        "velocity": 36
      },
      {
        "beat": 1.5,
        "duration": 1.5,
        "pitch": 55,
        "velocity": 18
      },
      {
        "beat": 1.5,
        "duration": 1.5,
        "pitch": 60,
        "velocity": 26
      },
      {
        "beat": 1.5,
        "duration": 1.5,
        "pitch": 64,
        "velocity": 31
      },
      {
        "beat": 3,
        "duration": 1,
        "pitch": 55,
        "velocity": 22
      },
      {
        "beat": 3,
        "duration": 1,
        "pitch": 60,
        "velocity": 30
      },
      {
        "beat": 3,
        "duration": 1,
        "pitch": 64,
        "velocity": 33
      }
    ],
    "crc32": 1169956449,
    "midiSize": 125,
    "midiSha1": "36542e3d806288ca2fb312ea51e1c6c76d7376b4"
  },
  {
    "code": "PianoMKS20_24",
    "kind": "chord",
    "family": "PianoMKS20",
    "modelType": "chord_model_379",
    "subtype": "proller",
    "bpm": 87,
    "beat": "4/4",
    "bnum": 44,
    "noteCount": 22,
    "midi": "pattern_midis/PianoMKS20_24.mid",
    "notes": [
      {
        "beat": 0,
        "duration": 0.6666666865348816,
        "pitch": 48,
        "velocity": 37
      },
      {
        "beat": 0.6666666865348816,
        "duration": 0.1041666641831398,
        "pitch": 48,
        "velocity": 15
      },
      {
        "beat": 0.6666666865348816,
        "duration": 0.1041666641831398,
        "pitch": 60,
        "velocity": 20
      },
      {
        "beat": 0.6666666865348816,
        "duration": 0.1041666641831398,
        "pitch": 64,
        "velocity": 10
      },
      {
        "beat": 1,
        "duration": 0.662500023841858,
        "pitch": 55,
        "velocity": 36
      },
      {
        "beat": 1,
        "duration": 0.662500023841858,
        "pitch": 60,
        "velocity": 35
      },
      {
        "beat": 1,
        "duration": 0.662500023841858,
        "pitch": 64,
        "velocity": 33
      },
      {
        "beat": 1,
        "duration": 0.662500023841858,
        "pitch": 67,
        "velocity": 38
      },
      {
        "beat": 1.6666666269302368,
        "duration": 0.1041666641831398,
        "pitch": 55,
        "velocity": 25
      },
      {
        "beat": 1.6666666269302368,
        "duration": 0.1041666641831398,
        "pitch": 60,
        "velocity": 25
      },
      {
        "beat": 1.6666666269302368,
        "duration": 0.1041666641831398,
        "pitch": 64,
        "velocity": 20
      },
      {
        "beat": 2,
        "duration": 0.662500023841858,
        "pitch": 48,
        "velocity": 37
      },
      {
        "beat": 2.6666667461395264,
        "duration": 0.1041666641831398,
        "pitch": 48,
        "velocity": 30
      },
      {
        "beat": 2.6666667461395264,
        "duration": 0.1041666641831398,
        "pitch": 60,
        "velocity": 30
      },
      {
        "beat": 2.6666667461395264,
        "duration": 0.1041666641831398,
        "pitch": 64,
        "velocity": 26
      },
      {
        "beat": 3,
        "duration": 0.6666666865348816,
        "pitch": 55,
        "velocity": 35
      },
      {
        "beat": 3,
        "duration": 0.6666666865348816,
        "pitch": 60,
        "velocity": 38
      },
      {
        "beat": 3,
        "duration": 0.6666666865348816,
        "pitch": 64,
        "velocity": 30
      },
      {
        "beat": 3,
        "duration": 0.6666666865348816,
        "pitch": 67,
        "velocity": 31
      },
      {
        "beat": 3.6666667461395264,
        "duration": 0.1041666641831398,
        "pitch": 55,
        "velocity": 20
      },
      {
        "beat": 3.6666667461395264,
        "duration": 0.1041666641831398,
        "pitch": 60,
        "velocity": 20
      },
      {
        "beat": 3.6666667461395264,
        "duration": 0.1041666641831398,
        "pitch": 64,
        "velocity": 15
      }
    ],
    "crc32": 2405395,
    "midiSize": 206,
    "midiSha1": "c51b742c0e22b9c2c9a7ff424de6c9fe96b39789"
  },
  {
    "code": "PianoMKS20_26",
    "kind": "chord",
    "family": "PianoMKS20",
    "modelType": "chord_model_379",
    "subtype": "proller",
    "bpm": 126,
    "beat": "4/4",
    "bnum": 44,
    "noteCount": 4,
    "midi": "pattern_midis/PianoMKS20_26.mid",
    "notes": [
      {
        "beat": 0,
        "duration": 4,
        "pitch": 48,
        "velocity": 50
      },
      {
        "beat": 0,
        "duration": 4,
        "pitch": 60,
        "velocity": 38
      },
      {
        "beat": 0,
        "duration": 4,
        "pitch": 64,
        "velocity": 35
      },
      {
        "beat": 0,
        "duration": 4,
        "pitch": 67,
        "velocity": 37
      }
    ],
    "crc32": 2007720262,
    "midiSize": 85,
    "midiSha1": "12216792e464bccf06949189180edd9613bd2050"
  },
  {
    "code": "PianoMKS20_29",
    "kind": "chord",
    "family": "PianoMKS20",
    "modelType": "chord_model_379",
    "subtype": "proller",
    "bpm": 80,
    "beat": "4/4",
    "bnum": 44,
    "noteCount": 15,
    "midi": "pattern_midis/PianoMKS20_29.mid",
    "notes": [
      {
        "beat": 0,
        "duration": 0.5,
        "pitch": 48,
        "velocity": 35
      },
      {
        "beat": 0.5,
        "duration": 0.1666666716337204,
        "pitch": 60,
        "velocity": 37
      },
      {
        "beat": 0.5,
        "duration": 0.1666666716337204,
        "pitch": 64,
        "velocity": 48
      },
      {
        "beat": 0.5,
        "duration": 0.1666666716337204,
        "pitch": 67,
        "velocity": 35
      },
      {
        "beat": 1.5,
        "duration": 0.1666666716337204,
        "pitch": 60,
        "velocity": 35
      },
      {
        "beat": 1.5,
        "duration": 0.1666666716337204,
        "pitch": 64,
        "velocity": 45
      },
      {
        "beat": 1.5,
        "duration": 0.1666666716337204,
        "pitch": 67,
        "velocity": 34
      },
      {
        "beat": 2.5,
        "duration": 0.1666666716337204,
        "pitch": 60,
        "velocity": 37
      },
      {
        "beat": 2.5,
        "duration": 0.1666666716337204,
        "pitch": 64,
        "velocity": 44
      },
      {
        "beat": 2.5,
        "duration": 0.1666666716337204,
        "pitch": 67,
        "velocity": 37
      },
      {
        "beat": 3,
        "duration": 0.3333333432674408,
        "pitch": 48,
        "velocity": 19
      },
      {
        "beat": 3.3333332538604736,
        "duration": 0.1666666716337204,
        "pitch": 48,
        "velocity": 25
      },
      {
        "beat": 3.5,
        "duration": 0.1666666716337204,
        "pitch": 60,
        "velocity": 38
      },
      {
        "beat": 3.5,
        "duration": 0.1666666716337204,
        "pitch": 64,
        "velocity": 44
      },
      {
        "beat": 3.5,
        "duration": 0.1666666716337204,
        "pitch": 67,
        "velocity": 37
      }
    ],
    "crc32": 4239920793,
    "midiSize": 163,
    "midiSha1": "d3bf1d9838ab60831f577d180fdfc05ca5794302"
  },
  {
    "code": "PianoMKS20_3",
    "kind": "chord",
    "family": "PianoMKS20",
    "modelType": "chord_model_379",
    "subtype": "proller",
    "bpm": 72,
    "beat": "4/4",
    "bnum": 44,
    "noteCount": 13,
    "midi": "pattern_midis/PianoMKS20_3.mid",
    "notes": [
      {
        "beat": 0,
        "duration": 4,
        "pitch": 48,
        "velocity": 31
      },
      {
        "beat": 0,
        "duration": 1,
        "pitch": 60,
        "velocity": 36
      },
      {
        "beat": 0,
        "duration": 1,
        "pitch": 64,
        "velocity": 43
      },
      {
        "beat": 0,
        "duration": 1,
        "pitch": 67,
        "velocity": 46
      },
      {
        "beat": 1,
        "duration": 1,
        "pitch": 60,
        "velocity": 32
      },
      {
        "beat": 1,
        "duration": 1,
        "pitch": 64,
        "velocity": 36
      },
      {
        "beat": 1,
        "duration": 1,
        "pitch": 67,
        "velocity": 24
      },
      {
        "beat": 2,
        "duration": 1,
        "pitch": 60,
        "velocity": 36
      },
      {
        "beat": 2,
        "duration": 1,
        "pitch": 64,
        "velocity": 35
      },
      {
        "beat": 2,
        "duration": 1,
        "pitch": 67,
        "velocity": 36
      },
      {
        "beat": 3,
        "duration": 1,
        "pitch": 60,
        "velocity": 18
      },
      {
        "beat": 3,
        "duration": 1,
        "pitch": 64,
        "velocity": 24
      },
      {
        "beat": 3,
        "duration": 1,
        "pitch": 67,
        "velocity": 15
      }
    ],
    "crc32": 894565343,
    "midiSize": 145,
    "midiSha1": "44d77fc0308dd6543347c02208b8abeef6b9d6c7"
  },
  {
    "code": "PianoMKS20_33",
    "kind": "chord",
    "family": "PianoMKS20",
    "modelType": "chord_model_379",
    "subtype": "proller",
    "bpm": 92,
    "beat": "4/4",
    "bnum": 44,
    "noteCount": 18,
    "midi": "pattern_midis/PianoMKS20_33.mid",
    "notes": [
      {
        "beat": 0,
        "duration": 3,
        "pitch": 48,
        "velocity": 35
      },
      {
        "beat": 0,
        "duration": 1.5,
        "pitch": 72,
        "velocity": 41
      },
      {
        "beat": 0.25,
        "duration": 0.5,
        "pitch": 64,
        "velocity": 18
      },
      {
        "beat": 0.5,
        "duration": 0.5,
        "pitch": 60,
        "velocity": 31
      },
      {
        "beat": 0.75,
        "duration": 0.5,
        "pitch": 64,
        "velocity": 22
      },
      {
        "beat": 1,
        "duration": 1,
        "pitch": 60,
        "velocity": 30
      },
      {
        "beat": 1.25,
        "duration": 0.5,
        "pitch": 64,
        "velocity": 18
      },
      {
        "beat": 1.5,
        "duration": 1.5,
        "pitch": 72,
        "velocity": 40
      },
      {
        "beat": 1.75,
        "duration": 0.5,
        "pitch": 64,
        "velocity": 20
      },
      {
        "beat": 2,
        "duration": 0.5,
        "pitch": 60,
        "velocity": 31
      },
      {
        "beat": 2.25,
        "duration": 0.5,
        "pitch": 64,
        "velocity": 15
      },
      {
        "beat": 2.5,
        "duration": 1,
        "pitch": 60,
        "velocity": 31
      },
      {
        "beat": 2.75,
        "duration": 0.5,
        "pitch": 64,
        "velocity": 24
      },
      {
        "beat": 3,
        "duration": 1,
        "pitch": 48,
        "velocity": 35
      },
      {
        "beat": 3,
        "duration": 1,
        "pitch": 72,
        "velocity": 41
      },
      {
        "beat": 3.25,
        "duration": 0.5,
        "pitch": 64,
        "velocity": 15
      },
      {
        "beat": 3.5,
        "duration": 0.5,
        "pitch": 60,
        "velocity": 31
      },
      {
        "beat": 3.75,
        "duration": 0.25,
        "pitch": 64,
        "velocity": 24
      }
    ],
    "crc32": 2357572592,
    "midiSize": 192,
    "midiSha1": "01cd8b34f6a6858e648040c3e5a5351c086579e3"
  },
  {
    "code": "PianoMKS20_4",
    "kind": "chord",
    "family": "PianoMKS20",
    "modelType": "chord_model_379",
    "subtype": "proller",
    "bpm": 80,
    "beat": "4/4",
    "bnum": 44,
    "noteCount": 17,
    "midi": "pattern_midis/PianoMKS20_4.mid",
    "notes": [
      {
        "beat": 0,
        "duration": 4,
        "pitch": 48,
        "velocity": 50
      },
      {
        "beat": 0,
        "duration": 1,
        "pitch": 55,
        "velocity": 31
      },
      {
        "beat": 0,
        "duration": 1,
        "pitch": 64,
        "velocity": 33
      },
      {
        "beat": 0,
        "duration": 1,
        "pitch": 67,
        "velocity": 42
      },
      {
        "beat": 0.5,
        "duration": 1,
        "pitch": 60,
        "velocity": 34
      },
      {
        "beat": 1,
        "duration": 1,
        "pitch": 55,
        "velocity": 21
      },
      {
        "beat": 1,
        "duration": 1,
        "pitch": 64,
        "velocity": 22
      },
      {
        "beat": 1,
        "duration": 1,
        "pitch": 67,
        "velocity": 29
      },
      {
        "beat": 1.5,
        "duration": 1,
        "pitch": 60,
        "velocity": 18
      },
      {
        "beat": 2,
        "duration": 1,
        "pitch": 55,
        "velocity": 27
      },
      {
        "beat": 2,
        "duration": 1,
        "pitch": 64,
        "velocity": 37
      },
      {
        "beat": 2,
        "duration": 1,
        "pitch": 67,
        "velocity": 39
      },
      {
        "beat": 2.5,
        "duration": 1,
        "pitch": 60,
        "velocity": 33
      },
      {
        "beat": 3,
        "duration": 1,
        "pitch": 55,
        "velocity": 23
      },
      {
        "beat": 3,
        "duration": 1,
        "pitch": 64,
        "velocity": 25
      },
      {
        "beat": 3,
        "duration": 1,
        "pitch": 67,
        "velocity": 28
      },
      {
        "beat": 3.5,
        "duration": 0.5,
        "pitch": 60,
        "velocity": 14
      }
    ],
    "crc32": 2523243372,
    "midiSize": 179,
    "midiSha1": "03665af64b4ca7bf4c4d0b6a0996bc93ea0594ed"
  },
  {
    "code": "PianoMKS20_42",
    "kind": "chord",
    "family": "PianoMKS20",
    "modelType": "chord_model_379",
    "subtype": "proller",
    "bpm": 104,
    "beat": "4/4",
    "bnum": 44,
    "noteCount": 12,
    "midi": "pattern_midis/PianoMKS20_42.mid",
    "notes": [
      {
        "beat": 0,
        "duration": 4,
        "pitch": 48,
        "velocity": 34
      },
      {
        "beat": 0,
        "duration": 2,
        "pitch": 55,
        "velocity": 49
      },
      {
        "beat": 0,
        "duration": 2,
        "pitch": 60,
        "velocity": 53
      },
      {
        "beat": 0,
        "duration": 2,
        "pitch": 64,
        "velocity": 53
      },
      {
        "beat": 0,
        "duration": 2,
        "pitch": 67,
        "velocity": 48
      },
      {
        "beat": 2,
        "duration": 0.75,
        "pitch": 55,
        "velocity": 38
      },
      {
        "beat": 2,
        "duration": 1.5,
        "pitch": 60,
        "velocity": 42
      },
      {
        "beat": 2,
        "duration": 1.5,
        "pitch": 64,
        "velocity": 42
      },
      {
        "beat": 2,
        "duration": 2,
        "pitch": 67,
        "velocity": 37
      },
      {
        "beat": 2.75,
        "duration": 1.25,
        "pitch": 55,
        "velocity": 41
      },
      {
        "beat": 3.5,
        "duration": 0.5,
        "pitch": 60,
        "velocity": 42
      },
      {
        "beat": 3.5,
        "duration": 0.5,
        "pitch": 64,
        "velocity": 42
      }
    ],
    "crc32": 3474087057,
    "midiSize": 140,
    "midiSha1": "84762ca3c137a05cda3f888a4c43d67dd5c92d3a"
  },
  {
    "code": "PianoMKS20_5",
    "kind": "chord",
    "family": "PianoMKS20",
    "modelType": "chord_model_379",
    "subtype": "proller",
    "bpm": 120,
    "beat": "4/4",
    "bnum": 44,
    "noteCount": 7,
    "midi": "pattern_midis/PianoMKS20_5.mid",
    "notes": [
      {
        "beat": 0,
        "duration": 4,
        "pitch": 48,
        "velocity": 50
      },
      {
        "beat": 0,
        "duration": 2,
        "pitch": 60,
        "velocity": 35
      },
      {
        "beat": 0.06458333134651184,
        "duration": 2.93541669845581,
        "pitch": 64,
        "velocity": 30
      },
      {
        "beat": 0.125,
        "duration": 3.875,
        "pitch": 67,
        "velocity": 40
      },
      {
        "beat": 2,
        "duration": 1.5,
        "pitch": 60,
        "velocity": 23
      },
      {
        "beat": 3,
        "duration": 1,
        "pitch": 64,
        "velocity": 30
      },
      {
        "beat": 3.5,
        "duration": 0.5,
        "pitch": 60,
        "velocity": 15
      }
    ],
    "crc32": 2397927965,
    "midiSize": 109,
    "midiSha1": "cf76454bd9055dfa1a5b5f3d7582898bef3a9ba9"
  },
  {
    "code": "PianoMKS20_6",
    "kind": "chord",
    "family": "PianoMKS20",
    "modelType": "chord_model_379",
    "subtype": "proller",
    "bpm": 90,
    "beat": "4/4",
    "bnum": 43,
    "noteCount": 4,
    "midi": "pattern_midis/PianoMKS20_6.mid",
    "notes": [
      {
        "beat": 0,
        "duration": 3,
        "pitch": 48,
        "velocity": 48
      },
      {
        "beat": 1,
        "duration": 2,
        "pitch": 60,
        "velocity": 25
      },
      {
        "beat": 2,
        "duration": 1,
        "pitch": 64,
        "velocity": 35
      },
      {
        "beat": 2,
        "duration": 1,
        "pitch": 67,
        "velocity": 28
      }
    ],
    "crc32": 1312909358,
    "midiSize": 86,
    "midiSha1": "da8770f5d300def8d6e83e0772fad6f5404a3bb0"
  },
  {
    "code": "PianoMKS20_61",
    "kind": "chord",
    "family": "PianoMKS20",
    "modelType": "chord_model_379",
    "subtype": "proller",
    "bpm": 125,
    "beat": "4/4",
    "bnum": 44,
    "noteCount": 9,
    "midi": "pattern_midis/PianoMKS20_61.mid",
    "notes": [
      {
        "beat": 0,
        "duration": 4,
        "pitch": 48,
        "velocity": 24
      },
      {
        "beat": 0,
        "duration": 1.5,
        "pitch": 67,
        "velocity": 21
      },
      {
        "beat": 0.5,
        "duration": 1.5,
        "pitch": 60,
        "velocity": 20
      },
      {
        "beat": 1,
        "duration": 1.5,
        "pitch": 64,
        "velocity": 34
      },
      {
        "beat": 1.5,
        "duration": 1.5,
        "pitch": 67,
        "velocity": 22
      },
      {
        "beat": 2,
        "duration": 1.5,
        "pitch": 60,
        "velocity": 12
      },
      {
        "beat": 2.5,
        "duration": 1.5,
        "pitch": 64,
        "velocity": 31
      },
      {
        "beat": 3,
        "duration": 1,
        "pitch": 67,
        "velocity": 31
      },
      {
        "beat": 3.5,
        "duration": 0.5,
        "pitch": 60,
        "velocity": 9
      }
    ],
    "crc32": 4071035974,
    "midiSize": 130,
    "midiSha1": "1f65976f4bf7ac58d15ca34988df927ea6680d85"
  },
  {
    "code": "PianoMKS20_62",
    "kind": "chord",
    "family": "PianoMKS20",
    "modelType": "chord_model_379",
    "subtype": "proller",
    "bpm": 70,
    "beat": "4/4",
    "bnum": 44,
    "noteCount": 9,
    "midi": "pattern_midis/PianoMKS20_62.mid",
    "notes": [
      {
        "beat": 0,
        "duration": 4,
        "pitch": 48,
        "velocity": 30
      },
      {
        "beat": 0,
        "duration": 1.25,
        "pitch": 60,
        "velocity": 29
      },
      {
        "beat": 0,
        "duration": 1.5,
        "pitch": 64,
        "velocity": 23
      },
      {
        "beat": 0,
        "duration": 1.75,
        "pitch": 67,
        "velocity": 28
      },
      {
        "beat": 1.25,
        "duration": 1.75,
        "pitch": 60,
        "velocity": 29
      },
      {
        "beat": 1.5,
        "duration": 0.5,
        "pitch": 64,
        "velocity": 27
      },
      {
        "beat": 1.75,
        "duration": 2.25,
        "pitch": 67,
        "velocity": 35
      },
      {
        "beat": 2,
        "duration": 2,
        "pitch": 64,
        "velocity": 23
      },
      {
        "beat": 3,
        "duration": 1,
        "pitch": 60,
        "velocity": 17
      }
    ],
    "crc32": 2302986733,
    "midiSize": 125,
    "midiSha1": "bc681352a89e10090f7bf69566b466c80b969780"
  },
  {
    "code": "PianoMKS20_63",
    "kind": "chord",
    "family": "PianoMKS20",
    "modelType": "chord_model_379",
    "subtype": "proller",
    "bpm": 78,
    "beat": "4/4",
    "bnum": 44,
    "noteCount": 14,
    "midi": "pattern_midis/PianoMKS20_63.mid",
    "notes": [
      {
        "beat": 0,
        "duration": 1.75,
        "pitch": 48,
        "velocity": 36
      },
      {
        "beat": 0.02291666716337204,
        "duration": 1.2270833253860474,
        "pitch": 60,
        "velocity": 35
      },
      {
        "beat": 0.0416666679084301,
        "duration": 0.7083333134651184,
        "pitch": 64,
        "velocity": 32
      },
      {
        "beat": 0.05624999850988388,
        "duration": 1.443750023841858,
        "pitch": 67,
        "velocity": 35
      },
      {
        "beat": 0.75,
        "duration": 1.25,
        "pitch": 64,
        "velocity": 24
      },
      {
        "beat": 1.25,
        "duration": 0.75,
        "pitch": 60,
        "velocity": 20
      },
      {
        "beat": 1.5,
        "duration": 1.75,
        "pitch": 67,
        "velocity": 35
      },
      {
        "beat": 1.75,
        "duration": 0.25,
        "pitch": 48,
        "velocity": 35
      },
      {
        "beat": 2,
        "duration": 2,
        "pitch": 48,
        "velocity": 36
      },
      {
        "beat": 2,
        "duration": 1.75,
        "pitch": 60,
        "velocity": 35
      },
      {
        "beat": 2,
        "duration": 1.5,
        "pitch": 64,
        "velocity": 32
      },
      {
        "beat": 3.25,
        "duration": 0.75,
        "pitch": 67,
        "velocity": 25
      },
      {
        "beat": 3.5,
        "duration": 0.5,
        "pitch": 64,
        "velocity": 30
      },
      {
        "beat": 3.75,
        "duration": 0.25,
        "pitch": 60,
        "velocity": 20
      }
    ],
    "crc32": 1288156449,
    "midiSize": 161,
    "midiSha1": "97f9f10545f225b1616c7cf64ca4667188dab84f"
  },
  {
    "code": "PianoMKS20_64",
    "kind": "chord",
    "family": "PianoMKS20",
    "modelType": "chord_model_379",
    "subtype": "proller",
    "bpm": 108,
    "beat": "4/4",
    "bnum": 44,
    "noteCount": 8,
    "midi": "pattern_midis/PianoMKS20_64.mid",
    "notes": [
      {
        "beat": 0,
        "duration": 4,
        "pitch": 48,
        "velocity": 33
      },
      {
        "beat": 0.5,
        "duration": 3.5,
        "pitch": 55,
        "velocity": 20
      },
      {
        "beat": 1,
        "duration": 1.5,
        "pitch": 60,
        "velocity": 31
      },
      {
        "beat": 1.5,
        "duration": 1.5,
        "pitch": 64,
        "velocity": 22
      },
      {
        "beat": 2,
        "duration": 1.5,
        "pitch": 67,
        "velocity": 38
      },
      {
        "beat": 2.5,
        "duration": 1.5,
        "pitch": 60,
        "velocity": 20
      },
      {
        "beat": 3,
        "duration": 1,
        "pitch": 64,
        "velocity": 20
      },
      {
        "beat": 3.5,
        "duration": 0.5,
        "pitch": 67,
        "velocity": 25
      }
    ],
    "crc32": 4270781553,
    "midiSize": 120,
    "midiSha1": "33724913528d855816876ac4f834c76c46df2d54"
  },
  {
    "code": "PianoMKS20_65",
    "kind": "chord",
    "family": "PianoMKS20",
    "modelType": "chord_model_379",
    "subtype": "proller",
    "bpm": 90,
    "beat": "4/4",
    "bnum": 44,
    "noteCount": 11,
    "midi": "pattern_midis/PianoMKS20_65.mid",
    "notes": [
      {
        "beat": 0,
        "duration": 4,
        "pitch": 48,
        "velocity": 37
      },
      {
        "beat": 0.25,
        "duration": 3.25,
        "pitch": 55,
        "velocity": 32
      },
      {
        "beat": 0.5,
        "duration": 1,
        "pitch": 60,
        "velocity": 36
      },
      {
        "beat": 0.75,
        "duration": 0.75,
        "pitch": 64,
        "velocity": 36
      },
      {
        "beat": 1.5,
        "duration": 1.75,
        "pitch": 60,
        "velocity": 38
      },
      {
        "beat": 1.5,
        "duration": 1.5,
        "pitch": 64,
        "velocity": 38
      },
      {
        "beat": 1.5,
        "duration": 2.5,
        "pitch": 67,
        "velocity": 31
      },
      {
        "beat": 3,
        "duration": 1,
        "pitch": 64,
        "velocity": 36
      },
      {
        "beat": 3.25,
        "duration": 0.5,
        "pitch": 60,
        "velocity": 29
      },
      {
        "beat": 3.5,
        "duration": 0.5,
        "pitch": 55,
        "velocity": 23
      },
      {
        "beat": 3.75,
        "duration": 0.25,
        "pitch": 60,
        "velocity": 22
      }
    ],
    "crc32": 662916645,
    "midiSize": 136,
    "midiSha1": "2c4037b85e7e7ea71dc4231a42b26425b5a2378b"
  },
  {
    "code": "PianoMKS20_66",
    "kind": "chord",
    "family": "PianoMKS20",
    "modelType": "chord_model_379",
    "subtype": "proller",
    "bpm": 72,
    "beat": "4/4",
    "bnum": 44,
    "noteCount": 17,
    "midi": "pattern_midis/PianoMKS20_66.mid",
    "notes": [
      {
        "beat": 0,
        "duration": 4,
        "pitch": 48,
        "velocity": 34
      },
      {
        "beat": 0,
        "duration": 1.5,
        "pitch": 55,
        "velocity": 32
      },
      {
        "beat": 0,
        "duration": 1.5,
        "pitch": 60,
        "velocity": 36
      },
      {
        "beat": 0,
        "duration": 1.5,
        "pitch": 64,
        "velocity": 36
      },
      {
        "beat": 0,
        "duration": 1.5,
        "pitch": 67,
        "velocity": 31
      },
      {
        "beat": 1.5,
        "duration": 0.75,
        "pitch": 55,
        "velocity": 18
      },
      {
        "beat": 1.5,
        "duration": 1,
        "pitch": 60,
        "velocity": 22
      },
      {
        "beat": 1.5,
        "duration": 1.25,
        "pitch": 64,
        "velocity": 22
      },
      {
        "beat": 1.5,
        "duration": 2,
        "pitch": 67,
        "velocity": 17
      },
      {
        "beat": 2,
        "duration": 2,
        "pitch": 52,
        "velocity": 38
      },
      {
        "beat": 2.25,
        "duration": 1.25,
        "pitch": 55,
        "velocity": 38
      },
      {
        "beat": 2.5,
        "duration": 1,
        "pitch": 60,
        "velocity": 38
      },
      {
        "beat": 2.75,
        "duration": 0.75,
        "pitch": 64,
        "velocity": 36
      },
      {
        "beat": 3.5,
        "duration": 0.5,
        "pitch": 55,
        "velocity": 18
      },
      {
        "beat": 3.5,
        "duration": 0.5,
        "pitch": 60,
        "velocity": 22
      },
      {
        "beat": 3.5,
        "duration": 0.5,
        "pitch": 64,
        "velocity": 22
      },
      {
        "beat": 3.5,
        "duration": 0.5,
        "pitch": 67,
        "velocity": 17
      }
    ],
    "crc32": 3166005793,
    "midiSize": 174,
    "midiSha1": "e78ea589b11613dd30f6fe0979fdc5714ee4b162"
  },
  {
    "code": "PianoMKS20_67",
    "kind": "chord",
    "family": "PianoMKS20",
    "modelType": "chord_model_379",
    "subtype": "proller",
    "bpm": 67,
    "beat": "4/4",
    "bnum": 44,
    "noteCount": 6,
    "midi": "pattern_midis/PianoMKS20_67.mid",
    "notes": [
      {
        "beat": 0,
        "duration": 4,
        "pitch": 48,
        "velocity": 20
      },
      {
        "beat": 0.5,
        "duration": 2,
        "pitch": 60,
        "velocity": 22
      },
      {
        "beat": 1,
        "duration": 2,
        "pitch": 67,
        "velocity": 35
      },
      {
        "beat": 1.5,
        "duration": 2.5,
        "pitch": 64,
        "velocity": 25
      },
      {
        "beat": 2.5,
        "duration": 1.5,
        "pitch": 60,
        "velocity": 28
      },
      {
        "beat": 3,
        "duration": 1,
        "pitch": 67,
        "velocity": 25
      }
    ],
    "crc32": 3658691160,
    "midiSize": 104,
    "midiSha1": "d423e657206c1be19085cb34038625173e5bf228"
  },
  {
    "code": "PianoMKS20_68",
    "kind": "chord",
    "family": "PianoMKS20",
    "modelType": "chord_model_379",
    "subtype": "proller",
    "bpm": 67,
    "beat": "4/4",
    "bnum": 44,
    "noteCount": 8,
    "midi": "pattern_midis/PianoMKS20_68.mid",
    "notes": [
      {
        "beat": 0,
        "duration": 2,
        "pitch": 48,
        "velocity": 40
      },
      {
        "beat": 0,
        "duration": 2,
        "pitch": 60,
        "velocity": 46
      },
      {
        "beat": 0,
        "duration": 2,
        "pitch": 64,
        "velocity": 55
      },
      {
        "beat": 0,
        "duration": 2,
        "pitch": 67,
        "velocity": 44
      },
      {
        "beat": 2,
        "duration": 2,
        "pitch": 48,
        "velocity": 43
      },
      {
        "beat": 2,
        "duration": 2,
        "pitch": 60,
        "velocity": 40
      },
      {
        "beat": 2,
        "duration": 2,
        "pitch": 64,
        "velocity": 51
      },
      {
        "beat": 2,
        "duration": 2,
        "pitch": 67,
        "velocity": 47
      }
    ],
    "crc32": 4075919237,
    "midiSize": 110,
    "midiSha1": "bd8e6e7e3530409d7ca040917780d3ee0aa690c9"
  },
  {
    "code": "PianoMKS20_69",
    "kind": "chord",
    "family": "PianoMKS20",
    "modelType": "chord_model_379",
    "subtype": "proller",
    "bpm": 90,
    "beat": "4/4",
    "bnum": 86,
    "noteCount": 9,
    "midi": "pattern_midis/PianoMKS20_69.mid",
    "notes": [
      {
        "beat": 0,
        "duration": 1.5,
        "pitch": 48,
        "velocity": 37
      },
      {
        "beat": 0.5,
        "duration": 1,
        "pitch": 55,
        "velocity": 27
      },
      {
        "beat": 1,
        "duration": 0.5,
        "pitch": 60,
        "velocity": 22
      },
      {
        "beat": 1.5,
        "duration": 0.1666666716337204,
        "pitch": 48,
        "velocity": 30
      },
      {
        "beat": 1.5,
        "duration": 0.1666666716337204,
        "pitch": 55,
        "velocity": 20
      },
      {
        "beat": 1.5,
        "duration": 0.1666666716337204,
        "pitch": 60,
        "velocity": 15
      },
      {
        "beat": 1.5,
        "duration": 0.1666666716337204,
        "pitch": 64,
        "velocity": 41
      },
      {
        "beat": 1.5,
        "duration": 0.1666666716337204,
        "pitch": 67,
        "velocity": 47
      },
      {
        "beat": 1.5,
        "duration": 0.1666666716337204,
        "pitch": 72,
        "velocity": 50
      }
    ],
    "crc32": 228671110,
    "midiSize": 117,
    "midiSha1": "7bab0d2ffcc653f6be64152fa95a83aaf1f05a27"
  },
  {
    "code": "PianoMKS20_7",
    "kind": "chord",
    "family": "PianoMKS20",
    "modelType": "chord_model_379",
    "subtype": "proller",
    "bpm": 72,
    "beat": "4/4",
    "bnum": 86,
    "noteCount": 7,
    "midi": "pattern_midis/PianoMKS20_7.mid",
    "notes": [
      {
        "beat": 0,
        "duration": 3,
        "pitch": 48,
        "velocity": 51
      },
      {
        "beat": 0,
        "duration": 1.5,
        "pitch": 52,
        "velocity": 25
      },
      {
        "beat": 0.5,
        "duration": 1,
        "pitch": 55,
        "velocity": 21
      },
      {
        "beat": 1,
        "duration": 0.5,
        "pitch": 60,
        "velocity": 56
      },
      {
        "beat": 1.5,
        "duration": 1.5,
        "pitch": 64,
        "velocity": 47
      },
      {
        "beat": 2,
        "duration": 1,
        "pitch": 60,
        "velocity": 41
      },
      {
        "beat": 2.5,
        "duration": 0.5083333253860474,
        "pitch": 55,
        "velocity": 18
      }
    ],
    "crc32": 2606081714,
    "midiSize": 109,
    "midiSha1": "fa1447a4099fbaac6b3a40b4f78b5a1caf0195b4"
  },
  {
    "code": "PianoMKS20_70",
    "kind": "chord",
    "family": "PianoMKS20",
    "modelType": "chord_model_379",
    "subtype": "proller",
    "bpm": 90,
    "beat": "4/4",
    "bnum": 86,
    "noteCount": 21,
    "midi": "pattern_midis/PianoMKS20_70.mid",
    "notes": [
      {
        "beat": 0,
        "duration": 1.5,
        "pitch": 48,
        "velocity": 36
      },
      {
        "beat": 0,
        "duration": 0.1145833358168602,
        "pitch": 64,
        "velocity": 26
      },
      {
        "beat": 0,
        "duration": 0.10833333432674408,
        "pitch": 67,
        "velocity": 38
      },
      {
        "beat": 0,
        "duration": 0.10625000298023224,
        "pitch": 72,
        "velocity": 43
      },
      {
        "beat": 0.5,
        "duration": 0.09375,
        "pitch": 64,
        "velocity": 31
      },
      {
        "beat": 0.5,
        "duration": 0.10208333283662796,
        "pitch": 67,
        "velocity": 45
      },
      {
        "beat": 0.5,
        "duration": 0.09375,
        "pitch": 72,
        "velocity": 38
      },
      {
        "beat": 1,
        "duration": 0.11041666567325592,
        "pitch": 64,
        "velocity": 26
      },
      {
        "beat": 1,
        "duration": 0.1145833358168602,
        "pitch": 67,
        "velocity": 41
      },
      {
        "beat": 1,
        "duration": 0.11041666567325592,
        "pitch": 72,
        "velocity": 36
      },
      {
        "beat": 1.5,
        "duration": 0.1666666716337204,
        "pitch": 48,
        "velocity": 16
      },
      {
        "beat": 1.5,
        "duration": 0.1666666716337204,
        "pitch": 55,
        "velocity": 31
      },
      {
        "beat": 1.5,
        "duration": 0.11041666567325592,
        "pitch": 64,
        "velocity": 44
      },
      {
        "beat": 1.5,
        "duration": 0.11249999701976776,
        "pitch": 67,
        "velocity": 51
      },
      {
        "beat": 1.5,
        "duration": 0.09583333134651184,
        "pitch": 72,
        "velocity": 47
      },
      {
        "beat": 2,
        "duration": 0.09375,
        "pitch": 64,
        "velocity": 31
      },
      {
        "beat": 2,
        "duration": 0.10208333283662796,
        "pitch": 67,
        "velocity": 45
      },
      {
        "beat": 2,
        "duration": 0.09375,
        "pitch": 72,
        "velocity": 38
      },
      {
        "beat": 2.5,
        "duration": 0.11041666567325592,
        "pitch": 64,
        "velocity": 26
      },
      {
        "beat": 2.5,
        "duration": 0.1145833358168602,
        "pitch": 67,
        "velocity": 41
      },
      {
        "beat": 2.5,
        "duration": 0.11041666567325592,
        "pitch": 72,
        "velocity": 36
      }
    ],
    "crc32": 875237182,
    "midiSize": 201,
    "midiSha1": "ffeca3cc00df4678e1fc98770c8b30e881ecc713"
  },
  {
    "code": "PianoMKS20_72",
    "kind": "chord",
    "family": "PianoMKS20",
    "modelType": "chord_model_379",
    "subtype": "proller",
    "bpm": 125,
    "beat": "4/4",
    "bnum": 44,
    "noteCount": 20,
    "midi": "pattern_midis/PianoMKS20_72.mid",
    "notes": [
      {
        "beat": 0,
        "duration": 0.737500011920929,
        "pitch": 48,
        "velocity": 40
      },
      {
        "beat": 0,
        "duration": 0.737500011920929,
        "pitch": 60,
        "velocity": 40
      },
      {
        "beat": 0,
        "duration": 0.737500011920929,
        "pitch": 64,
        "velocity": 40
      },
      {
        "beat": 0,
        "duration": 0.737500011920929,
        "pitch": 67,
        "velocity": 40
      },
      {
        "beat": 1,
        "duration": 0.737500011920929,
        "pitch": 48,
        "velocity": 35
      },
      {
        "beat": 1,
        "duration": 0.737500011920929,
        "pitch": 60,
        "velocity": 35
      },
      {
        "beat": 1,
        "duration": 0.737500011920929,
        "pitch": 64,
        "velocity": 35
      },
      {
        "beat": 1,
        "duration": 0.737500011920929,
        "pitch": 67,
        "velocity": 35
      },
      {
        "beat": 2,
        "duration": 0.612500011920929,
        "pitch": 48,
        "velocity": 40
      },
      {
        "beat": 2,
        "duration": 0.612500011920929,
        "pitch": 60,
        "velocity": 40
      },
      {
        "beat": 2,
        "duration": 0.612500011920929,
        "pitch": 64,
        "velocity": 40
      },
      {
        "beat": 2,
        "duration": 0.612500011920929,
        "pitch": 67,
        "velocity": 40
      },
      {
        "beat": 2.75,
        "duration": 0.23749999701976776,
        "pitch": 48,
        "velocity": 35
      },
      {
        "beat": 2.75,
        "duration": 0.23749999701976776,
        "pitch": 60,
        "velocity": 35
      },
      {
        "beat": 2.75,
        "duration": 0.23749999701976776,
        "pitch": 64,
        "velocity": 35
      },
      {
        "beat": 2.75,
        "duration": 0.23749999701976776,
        "pitch": 67,
        "velocity": 35
      },
      {
        "beat": 3.25,
        "duration": 0.625,
        "pitch": 48,
        "velocity": 35
      },
      {
        "beat": 3.25,
        "duration": 0.625,
        "pitch": 60,
        "velocity": 35
      },
      {
        "beat": 3.25,
        "duration": 0.625,
        "pitch": 64,
        "velocity": 35
      },
      {
        "beat": 3.25,
        "duration": 0.625,
        "pitch": 67,
        "velocity": 35
      }
    ],
    "crc32": 1534254905,
    "midiSize": 192,
    "midiSha1": "1d7fcd0d9cdb54be5596f28cca765b3e38697405"
  },
  {
    "code": "PianoMKS20_73",
    "kind": "chord",
    "family": "PianoMKS20",
    "modelType": "chord_model_379",
    "subtype": "proller",
    "bpm": 70,
    "beat": "4/4",
    "bnum": 44,
    "noteCount": 16,
    "midi": "pattern_midis/PianoMKS20_73.mid",
    "notes": [
      {
        "beat": 0,
        "duration": 0.23749999701976776,
        "pitch": 48,
        "velocity": 35
      },
      {
        "beat": 0.5,
        "duration": 0.23749999701976776,
        "pitch": 60,
        "velocity": 40
      },
      {
        "beat": 0.5,
        "duration": 0.23749999701976776,
        "pitch": 64,
        "velocity": 40
      },
      {
        "beat": 0.5,
        "duration": 0.23749999701976776,
        "pitch": 67,
        "velocity": 40
      },
      {
        "beat": 0.75,
        "duration": 0.23333333432674408,
        "pitch": 48,
        "velocity": 35
      },
      {
        "beat": 1.25,
        "duration": 0.23749999701976776,
        "pitch": 60,
        "velocity": 40
      },
      {
        "beat": 1.25,
        "duration": 0.23749999701976776,
        "pitch": 64,
        "velocity": 40
      },
      {
        "beat": 1.25,
        "duration": 0.23749999701976776,
        "pitch": 67,
        "velocity": 40
      },
      {
        "beat": 1.75,
        "duration": 0.23125000298023224,
        "pitch": 48,
        "velocity": 35
      },
      {
        "beat": 2.25,
        "duration": 0.23749999701976776,
        "pitch": 60,
        "velocity": 40
      },
      {
        "beat": 2.25,
        "duration": 0.23749999701976776,
        "pitch": 64,
        "velocity": 40
      },
      {
        "beat": 2.25,
        "duration": 0.23749999701976776,
        "pitch": 67,
        "velocity": 40
      },
      {
        "beat": 2.75,
        "duration": 0.23749999701976776,
        "pitch": 48,
        "velocity": 35
      },
      {
        "beat": 3.25,
        "duration": 0.23749999701976776,
        "pitch": 60,
        "velocity": 40
      },
      {
        "beat": 3.25,
        "duration": 0.23749999701976776,
        "pitch": 64,
        "velocity": 40
      },
      {
        "beat": 3.25,
        "duration": 0.23749999701976776,
        "pitch": 67,
        "velocity": 40
      }
    ],
    "crc32": 2365938358,
    "midiSize": 172,
    "midiSha1": "14b45c898f12b069c2e46c323b88e6da546c5318"
  },
  {
    "code": "PianoMKS20_74",
    "kind": "chord",
    "family": "PianoMKS20",
    "modelType": "chord_model_379",
    "subtype": "proller",
    "bpm": 93,
    "beat": "4/4",
    "bnum": 44,
    "noteCount": 27,
    "midi": "pattern_midis/PianoMKS20_74.mid",
    "notes": [
      {
        "beat": 0,
        "duration": 0.25,
        "pitch": 48,
        "velocity": 43
      },
      {
        "beat": 0.25,
        "duration": 0.25,
        "pitch": 55,
        "velocity": 43
      },
      {
        "beat": 0.5,
        "duration": 0.11249999701976776,
        "pitch": 64,
        "velocity": 33
      },
      {
        "beat": 0.5,
        "duration": 0.13958333432674408,
        "pitch": 67,
        "velocity": 42
      },
      {
        "beat": 0.5,
        "duration": 0.13124999403953552,
        "pitch": 72,
        "velocity": 33
      },
      {
        "beat": 0.75,
        "duration": 0.0729166641831398,
        "pitch": 48,
        "velocity": 41
      },
      {
        "beat": 1,
        "duration": 0.04791666567325592,
        "pitch": 64,
        "velocity": 50
      },
      {
        "beat": 1.25,
        "duration": 0.10208333283662796,
        "pitch": 64,
        "velocity": 47
      },
      {
        "beat": 1.25,
        "duration": 0.11249999701976776,
        "pitch": 67,
        "velocity": 57
      },
      {
        "beat": 1.25,
        "duration": 0.09791667014360428,
        "pitch": 72,
        "velocity": 47
      },
      {
        "beat": 1.75,
        "duration": 0.0520833320915699,
        "pitch": 55,
        "velocity": 22
      },
      {
        "beat": 2,
        "duration": 0.12083332985639572,
        "pitch": 64,
        "velocity": 51
      },
      {
        "beat": 2,
        "duration": 0.15416666865348816,
        "pitch": 67,
        "velocity": 42
      },
      {
        "beat": 2,
        "duration": 0.16041666269302368,
        "pitch": 72,
        "velocity": 39
      },
      {
        "beat": 2.25,
        "duration": 0.06666667014360428,
        "pitch": 60,
        "velocity": 30
      },
      {
        "beat": 2.5,
        "duration": 0.04583333432674408,
        "pitch": 64,
        "velocity": 30
      },
      {
        "beat": 2.75,
        "duration": 0.11249999701976776,
        "pitch": 64,
        "velocity": 43
      },
      {
        "beat": 2.75,
        "duration": 0.1458333283662796,
        "pitch": 67,
        "velocity": 49
      },
      {
        "beat": 2.75,
        "duration": 0.11666666716337204,
        "pitch": 72,
        "velocity": 46
      },
      {
        "beat": 3,
        "duration": 0.0625,
        "pitch": 60,
        "velocity": 37
      },
      {
        "beat": 3.25,
        "duration": 0.05000000074505806,
        "pitch": 60,
        "velocity": 36
      },
      {
        "beat": 3.5,
        "duration": 0.23333333432674408,
        "pitch": 64,
        "velocity": 53
      },
      {
        "beat": 3.5,
        "duration": 0.21458333730697632,
        "pitch": 67,
        "velocity": 49
      },
      {
        "beat": 3.5,
        "duration": 0.19583334028720856,
        "pitch": 72,
        "velocity": 43
      },
      {
        "beat": 3.75,
        "duration": 0.13958333432674408,
        "pitch": 64,
        "velocity": 50
      },
      {
        "beat": 3.75,
        "duration": 0.10208333283662796,
        "pitch": 67,
        "velocity": 38
      },
      {
        "beat": 3.75,
        "duration": 0.13333334028720856,
        "pitch": 72,
        "velocity": 36
      }
    ],
    "crc32": 2946571437,
    "midiSize": 249,
    "midiSha1": "c455cd943f9bd8d11a5ae2c35c1824511be9c3c3"
  },
  {
    "code": "PianoMKS20_75",
    "kind": "chord",
    "family": "PianoMKS20",
    "modelType": "chord_model_379",
    "subtype": "proller",
    "bpm": 126,
    "beat": "4/4",
    "bnum": 44,
    "noteCount": 20,
    "midi": "pattern_midis/PianoMKS20_75.mid",
    "notes": [
      {
        "beat": 0,
        "duration": 0.75,
        "pitch": 48,
        "velocity": 30
      },
      {
        "beat": 0.5,
        "duration": 0.5,
        "pitch": 60,
        "velocity": 35
      },
      {
        "beat": 0.5,
        "duration": 0.5,
        "pitch": 64,
        "velocity": 35
      },
      {
        "beat": 0.5,
        "duration": 0.5,
        "pitch": 67,
        "velocity": 35
      },
      {
        "beat": 1,
        "duration": 0.5,
        "pitch": 55,
        "velocity": 30
      },
      {
        "beat": 1.25,
        "duration": 0.5,
        "pitch": 60,
        "velocity": 35
      },
      {
        "beat": 1.25,
        "duration": 0.5,
        "pitch": 64,
        "velocity": 35
      },
      {
        "beat": 1.25,
        "duration": 0.5,
        "pitch": 67,
        "velocity": 35
      },
      {
        "beat": 1.75,
        "duration": 0.5,
        "pitch": 48,
        "velocity": 30
      },
      {
        "beat": 2,
        "duration": 0.5,
        "pitch": 60,
        "velocity": 35
      },
      {
        "beat": 2,
        "duration": 0.5,
        "pitch": 64,
        "velocity": 35
      },
      {
        "beat": 2,
        "duration": 0.5,
        "pitch": 67,
        "velocity": 35
      },
      {
        "beat": 2.5,
        "duration": 0.5,
        "pitch": 55,
        "velocity": 30
      },
      {
        "beat": 2.75,
        "duration": 0.5,
        "pitch": 60,
        "velocity": 35
      },
      {
        "beat": 2.75,
        "duration": 0.5,
        "pitch": 64,
        "velocity": 35
      },
      {
        "beat": 2.75,
        "duration": 0.5,
        "pitch": 67,
        "velocity": 35
      },
      {
        "beat": 3.25,
        "duration": 0.5,
        "pitch": 48,
        "velocity": 30
      },
      {
        "beat": 3.5,
        "duration": 0.4375,
        "pitch": 60,
        "velocity": 35
      },
      {
        "beat": 3.5,
        "duration": 0.4375,
        "pitch": 64,
        "velocity": 35
      },
      {
        "beat": 3.5,
        "duration": 0.4375,
        "pitch": 67,
        "velocity": 35
      }
    ],
    "crc32": 615473028,
    "midiSize": 197,
    "midiSha1": "1ee553de3306bf5757495b34abe0b35513808640"
  },
  {
    "code": "PianoMKS20_76",
    "kind": "chord",
    "family": "PianoMKS20",
    "modelType": "chord_model_379",
    "subtype": "proller",
    "bpm": 75,
    "beat": "4/4",
    "bnum": 44,
    "noteCount": 13,
    "midi": "pattern_midis/PianoMKS20_76.mid",
    "notes": [
      {
        "beat": 0,
        "duration": 4.043749809265137,
        "pitch": 48,
        "velocity": 23
      },
      {
        "beat": 0,
        "duration": 0.9604166746139526,
        "pitch": 60,
        "velocity": 19
      },
      {
        "beat": 0.25,
        "duration": 1,
        "pitch": 67,
        "velocity": 21
      },
      {
        "beat": 0.5,
        "duration": 1,
        "pitch": 72,
        "velocity": 25
      },
      {
        "beat": 1,
        "duration": 0.9604166746139526,
        "pitch": 60,
        "velocity": 7
      },
      {
        "beat": 1.25,
        "duration": 1,
        "pitch": 67,
        "velocity": 17
      },
      {
        "beat": 1.5,
        "duration": 1,
        "pitch": 72,
        "velocity": 23
      },
      {
        "beat": 2,
        "duration": 0.9604166746139526,
        "pitch": 60,
        "velocity": 28
      },
      {
        "beat": 2.25,
        "duration": 1,
        "pitch": 67,
        "velocity": 7
      },
      {
        "beat": 2.5,
        "duration": 1,
        "pitch": 72,
        "velocity": 25
      },
      {
        "beat": 3,
        "duration": 0.9604166746139526,
        "pitch": 60,
        "velocity": 20
      },
      {
        "beat": 3.25,
        "duration": 0.75,
        "pitch": 67,
        "velocity": 5
      },
      {
        "beat": 3.5,
        "duration": 0.5,
        "pitch": 72,
        "velocity": 29
      }
    ],
    "crc32": 1280127572,
    "midiSize": 154,
    "midiSha1": "98e7a2f03c0b5255c41781b92d39a1ebfd1adcc2"
  },
  {
    "code": "PianoMKS20_8",
    "kind": "chord",
    "family": "PianoMKS20",
    "modelType": "chord_model_379",
    "subtype": "proller",
    "bpm": 72,
    "beat": "4/4",
    "bnum": 44,
    "noteCount": 15,
    "midi": "pattern_midis/PianoMKS20_8.mid",
    "notes": [
      {
        "beat": 0,
        "duration": 4,
        "pitch": 48,
        "velocity": 32
      },
      {
        "beat": 0,
        "duration": 1,
        "pitch": 60,
        "velocity": 42
      },
      {
        "beat": 0,
        "duration": 1,
        "pitch": 64,
        "velocity": 52
      },
      {
        "beat": 0,
        "duration": 1,
        "pitch": 67,
        "velocity": 40
      },
      {
        "beat": 1,
        "duration": 1,
        "pitch": 60,
        "velocity": 32
      },
      {
        "beat": 1,
        "duration": 1,
        "pitch": 64,
        "velocity": 43
      },
      {
        "beat": 1,
        "duration": 1,
        "pitch": 67,
        "velocity": 30
      },
      {
        "beat": 1.5,
        "duration": 2,
        "pitch": 55,
        "velocity": 32
      },
      {
        "beat": 2,
        "duration": 1,
        "pitch": 60,
        "velocity": 32
      },
      {
        "beat": 2,
        "duration": 1,
        "pitch": 64,
        "velocity": 43
      },
      {
        "beat": 2,
        "duration": 1,
        "pitch": 67,
        "velocity": 30
      },
      {
        "beat": 3,
        "duration": 1,
        "pitch": 60,
        "velocity": 35
      },
      {
        "beat": 3,
        "duration": 1,
        "pitch": 64,
        "velocity": 41
      },
      {
        "beat": 3,
        "duration": 1,
        "pitch": 67,
        "velocity": 28
      },
      {
        "beat": 3.5,
        "duration": 0.5,
        "pitch": 55,
        "velocity": 26
      }
    ],
    "crc32": 2497300106,
    "midiSize": 161,
    "midiSha1": "346e953660b213bcb9242f201fbda57ffce4ee2d"
  },
  {
    "code": "PianoMKS20_9",
    "kind": "chord",
    "family": "PianoMKS20",
    "modelType": "chord_model_379",
    "subtype": "proller",
    "bpm": 67,
    "beat": "4/4",
    "bnum": 44,
    "noteCount": 9,
    "midi": "pattern_midis/PianoMKS20_9.mid",
    "notes": [
      {
        "beat": 0,
        "duration": 2,
        "pitch": 48,
        "velocity": 50
      },
      {
        "beat": 0.014583333395421505,
        "duration": 1.9854166507720947,
        "pitch": 60,
        "velocity": 37
      },
      {
        "beat": 0.02083333395421505,
        "duration": 1.9791666269302368,
        "pitch": 64,
        "velocity": 43
      },
      {
        "beat": 0.03125,
        "duration": 1.96875,
        "pitch": 67,
        "velocity": 48
      },
      {
        "beat": 2,
        "duration": 2,
        "pitch": 48,
        "velocity": 40
      },
      {
        "beat": 2,
        "duration": 2,
        "pitch": 60,
        "velocity": 35
      },
      {
        "beat": 2,
        "duration": 2,
        "pitch": 64,
        "velocity": 32
      },
      {
        "beat": 2,
        "duration": 2,
        "pitch": 67,
        "velocity": 27
      },
      {
        "beat": 3,
        "duration": 1,
        "pitch": 55,
        "velocity": 25
      }
    ],
    "crc32": 1667638933,
    "midiSize": 118,
    "midiSha1": "b33fc89753178f4e732f7531e8c1ae26e5d2a35b"
  },
  {
    "code": "PianoRhodesWarm_1",
    "kind": "chord",
    "family": "PianoRhodesWarm",
    "modelType": "chord_model_379",
    "subtype": "proller",
    "bpm": 75,
    "beat": "4/4",
    "bnum": 44,
    "noteCount": 9,
    "midi": "pattern_midis/PianoRhodesWarm_1.mid",
    "notes": [
      {
        "beat": 0,
        "duration": 4,
        "pitch": 48,
        "velocity": 53
      },
      {
        "beat": 0.5,
        "duration": 1,
        "pitch": 55,
        "velocity": 46
      },
      {
        "beat": 1,
        "duration": 2,
        "pitch": 64,
        "velocity": 64
      },
      {
        "beat": 1.5,
        "duration": 1,
        "pitch": 55,
        "velocity": 33
      },
      {
        "beat": 2,
        "duration": 2,
        "pitch": 60,
        "velocity": 50
      },
      {
        "beat": 2,
        "duration": 2,
        "pitch": 67,
        "velocity": 43
      },
      {
        "beat": 2.5,
        "duration": 1,
        "pitch": 55,
        "velocity": 42
      },
      {
        "beat": 3,
        "duration": 1,
        "pitch": 64,
        "velocity": 55
      },
      {
        "beat": 3.5,
        "duration": 0.5,
        "pitch": 55,
        "velocity": 33
      }
    ],
    "crc32": 4211172873,
    "midiSize": 132,
    "midiSha1": "0268b477ecd5bbca4435509d9f55d4645f9fcedd"
  },
  {
    "code": "PianoRhodesWarm_10",
    "kind": "chord",
    "family": "PianoRhodesWarm",
    "modelType": "chord_model_379",
    "subtype": "proller",
    "bpm": 72,
    "beat": "4/4",
    "bnum": 44,
    "noteCount": 14,
    "midi": "pattern_midis/PianoRhodesWarm_10.mid",
    "notes": [
      {
        "beat": 0,
        "duration": 2,
        "pitch": 48,
        "velocity": 20
      },
      {
        "beat": 0.25,
        "duration": 0.5,
        "pitch": 55,
        "velocity": 34
      },
      {
        "beat": 0.5,
        "duration": 1.25,
        "pitch": 60,
        "velocity": 30
      },
      {
        "beat": 0.75,
        "duration": 1.5,
        "pitch": 55,
        "velocity": 29
      },
      {
        "beat": 1,
        "duration": 3,
        "pitch": 67,
        "velocity": 25
      },
      {
        "beat": 1.5,
        "duration": 1.5,
        "pitch": 64,
        "velocity": 18
      },
      {
        "beat": 1.75,
        "duration": 0.75,
        "pitch": 60,
        "velocity": 13
      },
      {
        "beat": 2,
        "duration": 2,
        "pitch": 48,
        "velocity": 21
      },
      {
        "beat": 2.25,
        "duration": 0.5,
        "pitch": 55,
        "velocity": 31
      },
      {
        "beat": 2.5,
        "duration": 1,
        "pitch": 60,
        "velocity": 30
      },
      {
        "beat": 2.75,
        "duration": 1,
        "pitch": 55,
        "velocity": 20
      },
      {
        "beat": 3,
        "duration": 1,
        "pitch": 64,
        "velocity": 25
      },
      {
        "beat": 3.5,
        "duration": 0.5,
        "pitch": 60,
        "velocity": 20
      },
      {
        "beat": 3.75,
        "duration": 0.25,
        "pitch": 55,
        "velocity": 10
      }
    ],
    "crc32": 1140141296,
    "midiSize": 167,
    "midiSha1": "dd9e0d17a683c021be955e0e6fb4e86471c3c442"
  },
  {
    "code": "PianoRhodesWarm_11",
    "kind": "chord",
    "family": "PianoRhodesWarm",
    "modelType": "chord_model_379",
    "subtype": "proller",
    "bpm": 72,
    "beat": "4/4",
    "bnum": 44,
    "noteCount": 14,
    "midi": "pattern_midis/PianoRhodesWarm_11.mid",
    "notes": [
      {
        "beat": 0,
        "duration": 1.5,
        "pitch": 48,
        "velocity": 25
      },
      {
        "beat": 0.0416666679084301,
        "duration": 0.7083333134651184,
        "pitch": 60,
        "velocity": 25
      },
      {
        "beat": 0.0625,
        "duration": 1.4375,
        "pitch": 64,
        "velocity": 36
      },
      {
        "beat": 0.08541666716337204,
        "duration": 1.4145833253860474,
        "pitch": 67,
        "velocity": 37
      },
      {
        "beat": 0.75,
        "duration": 0.75,
        "pitch": 60,
        "velocity": 27
      },
      {
        "beat": 1.25,
        "duration": 0.25,
        "pitch": 55,
        "velocity": 22
      },
      {
        "beat": 1.5,
        "duration": 1.5,
        "pitch": 48,
        "velocity": 20
      },
      {
        "beat": 1.5,
        "duration": 2,
        "pitch": 60,
        "velocity": 22
      },
      {
        "beat": 1.5,
        "duration": 2.5,
        "pitch": 64,
        "velocity": 21
      },
      {
        "beat": 1.5,
        "duration": 2.25,
        "pitch": 67,
        "velocity": 27
      },
      {
        "beat": 3,
        "duration": 1.0020833015441895,
        "pitch": 48,
        "velocity": 20
      },
      {
        "beat": 3.25,
        "duration": 0.75,
        "pitch": 55,
        "velocity": 31
      },
      {
        "beat": 3.5,
        "duration": 0.5,
        "pitch": 60,
        "velocity": 22
      },
      {
        "beat": 3.75,
        "duration": 0.25,
        "pitch": 67,
        "velocity": 22
      }
    ],
    "crc32": 2083065751,
    "midiSize": 160,
    "midiSha1": "cfb50313b618643dedb8bd6059c585f32272e7b2"
  },
  {
    "code": "PianoRhodesWarm_12",
    "kind": "chord",
    "family": "PianoRhodesWarm",
    "modelType": "chord_model_379",
    "subtype": "proller",
    "bpm": 100,
    "beat": "4/4",
    "bnum": 44,
    "noteCount": 20,
    "midi": "pattern_midis/PianoRhodesWarm_12.mid",
    "notes": [
      {
        "beat": 0,
        "duration": 0.5,
        "pitch": 48,
        "velocity": 27
      },
      {
        "beat": 0.9583333134651184,
        "duration": 0.4833333194255829,
        "pitch": 55,
        "velocity": 19
      },
      {
        "beat": 0.975000023841858,
        "duration": 0.4833333194255829,
        "pitch": 60,
        "velocity": 35
      },
      {
        "beat": 1,
        "duration": 0.4833333194255829,
        "pitch": 64,
        "velocity": 48
      },
      {
        "beat": 1.5,
        "duration": 0.05833333358168602,
        "pitch": 55,
        "velocity": 36
      },
      {
        "beat": 1.75,
        "duration": 0.12916666269302368,
        "pitch": 55,
        "velocity": 28
      },
      {
        "beat": 1.75,
        "duration": 0.12916666269302368,
        "pitch": 60,
        "velocity": 34
      },
      {
        "beat": 1.75,
        "duration": 0.12916666269302368,
        "pitch": 64,
        "velocity": 38
      },
      {
        "beat": 2.25,
        "duration": 0.125,
        "pitch": 55,
        "velocity": 37
      },
      {
        "beat": 2.25,
        "duration": 0.125,
        "pitch": 60,
        "velocity": 36
      },
      {
        "beat": 2.25,
        "duration": 0.125,
        "pitch": 64,
        "velocity": 48
      },
      {
        "beat": 2.75,
        "duration": 0.09583333134651184,
        "pitch": 55,
        "velocity": 32
      },
      {
        "beat": 2.96666669845581,
        "duration": 0.3166666626930237,
        "pitch": 55,
        "velocity": 38
      },
      {
        "beat": 2.9749999046325684,
        "duration": 0.4583333432674408,
        "pitch": 60,
        "velocity": 38
      },
      {
        "beat": 3,
        "duration": 0.4583333432674408,
        "pitch": 64,
        "velocity": 40
      },
      {
        "beat": 3.3333332538604736,
        "duration": 0.11249999701976776,
        "pitch": 55,
        "velocity": 24
      },
      {
        "beat": 3.46666669845581,
        "duration": 0.3125,
        "pitch": 55,
        "velocity": 25
      },
      {
        "beat": 3.4749999046325684,
        "duration": 0.524999976158142,
        "pitch": 60,
        "velocity": 42
      },
      {
        "beat": 3.5,
        "duration": 0.5,
        "pitch": 64,
        "velocity": 44
      },
      {
        "beat": 3.8333332538604736,
        "duration": 0.08541666716337204,
        "pitch": 55,
        "velocity": 37
      }
    ],
    "crc32": 3925138988,
    "midiSize": 210,
    "midiSha1": "35af12f136404d62b68eaf05678bfa911e9409f9"
  },
  {
    "code": "PianoRhodesWarm_13",
    "kind": "chord",
    "family": "PianoRhodesWarm",
    "modelType": "chord_model_379",
    "subtype": "proller",
    "bpm": 80,
    "beat": "4/4",
    "bnum": 44,
    "noteCount": 5,
    "midi": "pattern_midis/PianoRhodesWarm_13.mid",
    "notes": [
      {
        "beat": 0,
        "duration": 4.041666507720947,
        "pitch": 48,
        "velocity": 33
      },
      {
        "beat": 0.5,
        "duration": 3.5416667461395264,
        "pitch": 55,
        "velocity": 38
      },
      {
        "beat": 1,
        "duration": 3.0416667461395264,
        "pitch": 60,
        "velocity": 39
      },
      {
        "beat": 1.5,
        "duration": 2.5416667461395264,
        "pitch": 64,
        "velocity": 37
      },
      {
        "beat": 2,
        "duration": 2.0416667461395264,
        "pitch": 67,
        "velocity": 39
      }
    ],
    "crc32": 3777829949,
    "midiSize": 100,
    "midiSha1": "1d46cd794ca0c7f554581b1c10767e65a1a63a0f"
  },
  {
    "code": "PianoRhodesWarm_14",
    "kind": "chord",
    "family": "PianoRhodesWarm",
    "modelType": "chord_model_379",
    "subtype": "proller",
    "bpm": 96,
    "beat": "4/4",
    "bnum": 44,
    "noteCount": 13,
    "midi": "pattern_midis/PianoRhodesWarm_14.mid",
    "notes": [
      {
        "beat": 0,
        "duration": 4,
        "pitch": 48,
        "velocity": 39
      },
      {
        "beat": 0,
        "duration": 0.75,
        "pitch": 60,
        "velocity": 40
      },
      {
        "beat": 0,
        "duration": 0.75,
        "pitch": 64,
        "velocity": 42
      },
      {
        "beat": 0.75,
        "duration": 0.25,
        "pitch": 55,
        "velocity": 33
      },
      {
        "beat": 1,
        "duration": 0.75,
        "pitch": 60,
        "velocity": 40
      },
      {
        "beat": 1,
        "duration": 0.75,
        "pitch": 64,
        "velocity": 42
      },
      {
        "beat": 1.75,
        "duration": 0.25,
        "pitch": 55,
        "velocity": 33
      },
      {
        "beat": 2,
        "duration": 0.75,
        "pitch": 60,
        "velocity": 40
      },
      {
        "beat": 2,
        "duration": 0.75,
        "pitch": 64,
        "velocity": 42
      },
      {
        "beat": 2.75,
        "duration": 0.25,
        "pitch": 55,
        "velocity": 33
      },
      {
        "beat": 3,
        "duration": 0.75,
        "pitch": 60,
        "velocity": 40
      },
      {
        "beat": 3,
        "duration": 0.75,
        "pitch": 64,
        "velocity": 42
      },
      {
        "beat": 3.75,
        "duration": 0.25,
        "pitch": 55,
        "velocity": 33
      }
    ],
    "crc32": 1004018231,
    "midiSize": 159,
    "midiSha1": "70637a95816b512697cde60b090283c0d5bd96af"
  },
  {
    "code": "PianoRhodesWarm_15",
    "kind": "chord",
    "family": "PianoRhodesWarm",
    "modelType": "chord_model_379",
    "subtype": "proller",
    "bpm": 54,
    "beat": "4/4",
    "bnum": 44,
    "noteCount": 16,
    "midi": "pattern_midis/PianoRhodesWarm_15.mid",
    "notes": [
      {
        "beat": 0,
        "duration": 2,
        "pitch": 48,
        "velocity": 28
      },
      {
        "beat": 0.25,
        "duration": 1.75,
        "pitch": 55,
        "velocity": 23
      },
      {
        "beat": 0.5,
        "duration": 0.7458333373069763,
        "pitch": 60,
        "velocity": 28
      },
      {
        "beat": 0.75,
        "duration": 0.7458333373069763,
        "pitch": 64,
        "velocity": 26
      },
      {
        "beat": 1,
        "duration": 0.7458333373069763,
        "pitch": 67,
        "velocity": 30
      },
      {
        "beat": 1.25,
        "duration": 0.75,
        "pitch": 60,
        "velocity": 26
      },
      {
        "beat": 1.5,
        "duration": 0.5,
        "pitch": 64,
        "velocity": 26
      },
      {
        "beat": 1.75,
        "duration": 0.25,
        "pitch": 67,
        "velocity": 21
      },
      {
        "beat": 2,
        "duration": 2,
        "pitch": 48,
        "velocity": 28
      },
      {
        "beat": 2.25,
        "duration": 1.75,
        "pitch": 55,
        "velocity": 23
      },
      {
        "beat": 2.5,
        "duration": 0.7458333373069763,
        "pitch": 60,
        "velocity": 28
      },
      {
        "beat": 2.75,
        "duration": 0.7458333373069763,
        "pitch": 64,
        "velocity": 26
      },
      {
        "beat": 3,
        "duration": 0.7458333373069763,
        "pitch": 67,
        "velocity": 30
      },
      {
        "beat": 3.25,
        "duration": 0.75,
        "pitch": 60,
        "velocity": 26
      },
      {
        "beat": 3.5,
        "duration": 0.5,
        "pitch": 64,
        "velocity": 26
      },
      {
        "beat": 3.75,
        "duration": 0.25,
        "pitch": 67,
        "velocity": 21
      }
    ],
    "crc32": 3280066273,
    "midiSize": 175,
    "midiSha1": "ee4456c7d16aec08bc28e6e3ae64155e1feb8f3d"
  },
  {
    "code": "PianoRhodesWarm_16",
    "kind": "chord",
    "family": "PianoRhodesWarm",
    "modelType": "chord_model_379",
    "subtype": "proller",
    "bpm": 78,
    "beat": "4/4",
    "bnum": 44,
    "noteCount": 4,
    "midi": "pattern_midis/PianoRhodesWarm_16.mid",
    "notes": [
      {
        "beat": 0,
        "duration": 4.03333330154419,
        "pitch": 48,
        "velocity": 30
      },
      {
        "beat": 0.5,
        "duration": 3.53333330154419,
        "pitch": 64,
        "velocity": 30
      },
      {
        "beat": 1,
        "duration": 3.03333330154419,
        "pitch": 72,
        "velocity": 30
      },
      {
        "beat": 1.5,
        "duration": 2.53333330154419,
        "pitch": 67,
        "velocity": 27
      }
    ],
    "crc32": 2526192654,
    "midiSize": 93,
    "midiSha1": "de00e5b33d980c3af655a1e3300234961ae0bc60"
  },
  {
    "code": "PianoRhodesWarm_17",
    "kind": "chord",
    "family": "PianoRhodesWarm",
    "modelType": "chord_model_379",
    "subtype": "proller",
    "bpm": 68,
    "beat": "4/4",
    "bnum": 44,
    "noteCount": 13,
    "midi": "pattern_midis/PianoRhodesWarm_17.mid",
    "notes": [
      {
        "beat": 0,
        "duration": 4,
        "pitch": 48,
        "velocity": 30
      },
      {
        "beat": 0,
        "duration": 0.9916666746139526,
        "pitch": 55,
        "velocity": 30
      },
      {
        "beat": 0.3333333432674408,
        "duration": 0.9916666746139526,
        "pitch": 60,
        "velocity": 27
      },
      {
        "beat": 0.6666666865348816,
        "duration": 0.9916666746139526,
        "pitch": 64,
        "velocity": 27
      },
      {
        "beat": 1,
        "duration": 0.9916666746139526,
        "pitch": 55,
        "velocity": 30
      },
      {
        "beat": 1.3333333730697632,
        "duration": 0.9916666746139526,
        "pitch": 60,
        "velocity": 27
      },
      {
        "beat": 1.6666666269302368,
        "duration": 0.9916666746139526,
        "pitch": 64,
        "velocity": 27
      },
      {
        "beat": 2,
        "duration": 0.9916666746139526,
        "pitch": 55,
        "velocity": 30
      },
      {
        "beat": 2.3333332538604736,
        "duration": 0.9916666746139526,
        "pitch": 60,
        "velocity": 27
      },
      {
        "beat": 2.6666667461395264,
        "duration": 0.9916666746139526,
        "pitch": 64,
        "velocity": 27
      },
      {
        "beat": 3,
        "duration": 1,
        "pitch": 55,
        "velocity": 30
      },
      {
        "beat": 3.3333332538604736,
        "duration": 0.6666666865348816,
        "pitch": 60,
        "velocity": 27
      },
      {
        "beat": 3.6666667461395264,
        "duration": 0.3333333432674408,
        "pitch": 64,
        "velocity": 27
      }
    ],
    "crc32": 1628268102,
    "midiSize": 173,
    "midiSha1": "e5e7feac7ab457227c6c9ea6e818d37b50a55fca"
  },
  {
    "code": "PianoRhodesWarm_18",
    "kind": "chord",
    "family": "PianoRhodesWarm",
    "modelType": "chord_model_379",
    "subtype": "proller",
    "bpm": 75,
    "beat": "4/4",
    "bnum": 44,
    "noteCount": 13,
    "midi": "pattern_midis/PianoRhodesWarm_18.mid",
    "notes": [
      {
        "beat": 0,
        "duration": 4.043749809265137,
        "pitch": 48,
        "velocity": 23
      },
      {
        "beat": 0,
        "duration": 0.9604166746139526,
        "pitch": 60,
        "velocity": 19
      },
      {
        "beat": 0.25,
        "duration": 1,
        "pitch": 67,
        "velocity": 21
      },
      {
        "beat": 0.5,
        "duration": 1,
        "pitch": 72,
        "velocity": 25
      },
      {
        "beat": 1,
        "duration": 0.9604166746139526,
        "pitch": 60,
        "velocity": 7
      },
      {
        "beat": 1.25,
        "duration": 1,
        "pitch": 67,
        "velocity": 17
      },
      {
        "beat": 1.5,
        "duration": 1,
        "pitch": 72,
        "velocity": 23
      },
      {
        "beat": 2,
        "duration": 0.9604166746139526,
        "pitch": 60,
        "velocity": 28
      },
      {
        "beat": 2.25,
        "duration": 1,
        "pitch": 67,
        "velocity": 7
      },
      {
        "beat": 2.5,
        "duration": 1,
        "pitch": 72,
        "velocity": 25
      },
      {
        "beat": 3,
        "duration": 0.9604166746139526,
        "pitch": 60,
        "velocity": 20
      },
      {
        "beat": 3.25,
        "duration": 0.75,
        "pitch": 67,
        "velocity": 5
      },
      {
        "beat": 3.5,
        "duration": 0.5,
        "pitch": 72,
        "velocity": 29
      }
    ],
    "crc32": 3994890636,
    "midiSize": 159,
    "midiSha1": "e7dcc542af8cff4ab4bb405746606c52bff5fb19"
  },
  {
    "code": "PianoRhodesWarm_19",
    "kind": "chord",
    "family": "PianoRhodesWarm",
    "modelType": "chord_model_379",
    "subtype": "proller",
    "bpm": 125,
    "beat": "4/4",
    "bnum": 44,
    "noteCount": 10,
    "midi": "pattern_midis/PianoRhodesWarm_19.mid",
    "notes": [
      {
        "beat": 0,
        "duration": 4,
        "pitch": 48,
        "velocity": 29
      },
      {
        "beat": 0,
        "duration": 1.5,
        "pitch": 55,
        "velocity": 26
      },
      {
        "beat": 0,
        "duration": 1.5,
        "pitch": 60,
        "velocity": 31
      },
      {
        "beat": 0,
        "duration": 1.5,
        "pitch": 64,
        "velocity": 36
      },
      {
        "beat": 1.5,
        "duration": 1.5,
        "pitch": 55,
        "velocity": 18
      },
      {
        "beat": 1.5,
        "duration": 1.5,
        "pitch": 60,
        "velocity": 26
      },
      {
        "beat": 1.5,
        "duration": 1.5,
        "pitch": 64,
        "velocity": 31
      },
      {
        "beat": 3,
        "duration": 1,
        "pitch": 55,
        "velocity": 22
      },
      {
        "beat": 3,
        "duration": 1,
        "pitch": 60,
        "velocity": 30
      },
      {
        "beat": 3,
        "duration": 1,
        "pitch": 64,
        "velocity": 33
      }
    ],
    "crc32": 4174913408,
    "midiSize": 130,
    "midiSha1": "3cffb9d48a3a8a65243f40e621286be002c68cd2"
  },
  {
    "code": "PianoRhodesWarm_2",
    "kind": "chord",
    "family": "PianoRhodesWarm",
    "modelType": "chord_model_379",
    "subtype": "proller",
    "bpm": 75,
    "beat": "4/4",
    "bnum": 44,
    "noteCount": 8,
    "midi": "pattern_midis/PianoRhodesWarm_2.mid",
    "notes": [
      {
        "beat": 0,
        "duration": 3.995833396911621,
        "pitch": 48,
        "velocity": 34
      },
      {
        "beat": 0.5,
        "duration": 3.5,
        "pitch": 52,
        "velocity": 46
      },
      {
        "beat": 1,
        "duration": 2.5,
        "pitch": 55,
        "velocity": 37
      },
      {
        "beat": 1.5,
        "duration": 1.5,
        "pitch": 60,
        "velocity": 51
      },
      {
        "beat": 2,
        "duration": 2,
        "pitch": 67,
        "velocity": 47
      },
      {
        "beat": 2.5,
        "duration": 1.5,
        "pitch": 64,
        "velocity": 33
      },
      {
        "beat": 3,
        "duration": 1,
        "pitch": 60,
        "velocity": 49
      },
      {
        "beat": 3.5,
        "duration": 0.5,
        "pitch": 55,
        "velocity": 28
      }
    ],
    "crc32": 1112518689,
    "midiSize": 122,
    "midiSha1": "38b33c94d272a905e5a1b173ab987f7556269ba2"
  },
  {
    "code": "PianoRhodesWarm_20",
    "kind": "chord",
    "family": "PianoRhodesWarm",
    "modelType": "chord_model_379",
    "subtype": "proller",
    "bpm": 87,
    "beat": "4/4",
    "bnum": 44,
    "noteCount": 15,
    "midi": "pattern_midis/PianoRhodesWarm_20.mid",
    "notes": [
      {
        "beat": 0,
        "duration": 2,
        "pitch": 48,
        "velocity": 16
      },
      {
        "beat": 0.25,
        "duration": 1.75,
        "pitch": 55,
        "velocity": 14
      },
      {
        "beat": 0.5,
        "duration": 1,
        "pitch": 64,
        "velocity": 23
      },
      {
        "beat": 1,
        "duration": 0.75,
        "pitch": 60,
        "velocity": 34
      },
      {
        "beat": 1,
        "duration": 1,
        "pitch": 67,
        "velocity": 6
      },
      {
        "beat": 1.5,
        "duration": 0.5,
        "pitch": 64,
        "velocity": 24
      },
      {
        "beat": 1.75,
        "duration": 0.25,
        "pitch": 60,
        "velocity": 34
      },
      {
        "beat": 2,
        "duration": 2,
        "pitch": 48,
        "velocity": 4
      },
      {
        "beat": 2.25,
        "duration": 1.75,
        "pitch": 55,
        "velocity": 1
      },
      {
        "beat": 2.5,
        "duration": 0.5,
        "pitch": 64,
        "velocity": 23
      },
      {
        "beat": 3,
        "duration": 0.5,
        "pitch": 64,
        "velocity": 23
      },
      {
        "beat": 3,
        "duration": 1,
        "pitch": 67,
        "velocity": 6
      },
      {
        "beat": 3.25,
        "duration": 0.5,
        "pitch": 60,
        "velocity": 20
      },
      {
        "beat": 3.5,
        "duration": 0.5,
        "pitch": 64,
        "velocity": 23
      },
      {
        "beat": 3.75,
        "duration": 0.25,
        "pitch": 60,
        "velocity": 20
      }
    ],
    "crc32": 651139519,
    "midiSize": 168,
    "midiSha1": "9f94e177caf892cf617e7ebca41fa7da2ce0cdb2"
  },
  {
    "code": "PianoRhodesWarm_21",
    "kind": "chord",
    "family": "PianoRhodesWarm",
    "modelType": "chord_model_379",
    "subtype": "proller",
    "bpm": 88,
    "beat": "4/4",
    "bnum": 44,
    "noteCount": 9,
    "midi": "pattern_midis/PianoRhodesWarm_21.mid",
    "notes": [
      {
        "beat": 0,
        "duration": 3.9791667461395264,
        "pitch": 48,
        "velocity": 25
      },
      {
        "beat": 0,
        "duration": 1.975000023841858,
        "pitch": 64,
        "velocity": 36
      },
      {
        "beat": 0.5,
        "duration": 0.9791666865348816,
        "pitch": 55,
        "velocity": 24
      },
      {
        "beat": 1,
        "duration": 1.975000023841858,
        "pitch": 60,
        "velocity": 27
      },
      {
        "beat": 1.5,
        "duration": 0.9791666865348816,
        "pitch": 55,
        "velocity": 26
      },
      {
        "beat": 2,
        "duration": 1.975000023841858,
        "pitch": 64,
        "velocity": 33
      },
      {
        "beat": 2.5,
        "duration": 0.9791666865348816,
        "pitch": 55,
        "velocity": 23
      },
      {
        "beat": 3,
        "duration": 0.975000023841858,
        "pitch": 60,
        "velocity": 25
      },
      {
        "beat": 3.5,
        "duration": 0.4791666567325592,
        "pitch": 55,
        "velocity": 29
      }
    ],
    "crc32": 1539630269,
    "midiSize": 137,
    "midiSha1": "b1badd76a40b2d7b904d59026aa0a18c144fc107"
  },
  {
    "code": "PianoRhodesWarm_22",
    "kind": "chord",
    "family": "PianoRhodesWarm",
    "modelType": "chord_model_379",
    "subtype": "proller",
    "bpm": 73,
    "beat": "4/4",
    "bnum": 44,
    "noteCount": 16,
    "midi": "pattern_midis/PianoRhodesWarm_22.mid",
    "notes": [
      {
        "beat": 0,
        "duration": 4.02916669845581,
        "pitch": 48,
        "velocity": 22
      },
      {
        "beat": 0,
        "duration": 0.9958333373069763,
        "pitch": 67,
        "velocity": 29
      },
      {
        "beat": 0.5,
        "duration": 0.9958333373069763,
        "pitch": 64,
        "velocity": 27
      },
      {
        "beat": 0.5,
        "duration": 0.9958333373069763,
        "pitch": 72,
        "velocity": 27
      },
      {
        "beat": 1,
        "duration": 0.9958333373069763,
        "pitch": 60,
        "velocity": 23
      },
      {
        "beat": 1,
        "duration": 0.9958333373069763,
        "pitch": 67,
        "velocity": 29
      },
      {
        "beat": 1.5,
        "duration": 0.9958333373069763,
        "pitch": 64,
        "velocity": 26
      },
      {
        "beat": 1.5,
        "duration": 0.9958333373069763,
        "pitch": 72,
        "velocity": 27
      },
      {
        "beat": 2,
        "duration": 0.9958333373069763,
        "pitch": 60,
        "velocity": 29
      },
      {
        "beat": 2,
        "duration": 0.9958333373069763,
        "pitch": 67,
        "velocity": 29
      },
      {
        "beat": 2.5,
        "duration": 0.9958333373069763,
        "pitch": 64,
        "velocity": 24
      },
      {
        "beat": 2.5,
        "duration": 0.9958333373069763,
        "pitch": 72,
        "velocity": 27
      },
      {
        "beat": 3,
        "duration": 1.0291666984558105,
        "pitch": 60,
        "velocity": 28
      },
      {
        "beat": 3,
        "duration": 1.0291666984558105,
        "pitch": 67,
        "velocity": 29
      },
      {
        "beat": 3.5,
        "duration": 0.5291666388511658,
        "pitch": 64,
        "velocity": 25
      },
      {
        "beat": 3.5,
        "duration": 0.5291666388511658,
        "pitch": 72,
        "velocity": 27
      }
    ],
    "crc32": 1196528121,
    "midiSize": 181,
    "midiSha1": "15c5efa5ca9ce9170db7f21698755e915670180c"
  },
  {
    "code": "PianoRhodesWarm_23",
    "kind": "chord",
    "family": "PianoRhodesWarm",
    "modelType": "chord_model_379",
    "subtype": "proller",
    "bpm": 66,
    "beat": "4/4",
    "bnum": 44,
    "noteCount": 17,
    "midi": "pattern_midis/PianoRhodesWarm_23.mid",
    "notes": [
      {
        "beat": 0,
        "duration": 3.991666555404663,
        "pitch": 48,
        "velocity": 27
      },
      {
        "beat": 0,
        "duration": 0.9916666746139526,
        "pitch": 64,
        "velocity": 28
      },
      {
        "beat": 0.25,
        "duration": 0.49166667461395264,
        "pitch": 60,
        "velocity": 30
      },
      {
        "beat": 0.5,
        "duration": 0.9916666746139526,
        "pitch": 55,
        "velocity": 26
      },
      {
        "beat": 0.75,
        "duration": 0.49166667461395264,
        "pitch": 60,
        "velocity": 29
      },
      {
        "beat": 1,
        "duration": 0.9916666746139526,
        "pitch": 64,
        "velocity": 33
      },
      {
        "beat": 1.25,
        "duration": 0.49166667461395264,
        "pitch": 60,
        "velocity": 29
      },
      {
        "beat": 1.5,
        "duration": 0.9916666746139526,
        "pitch": 55,
        "velocity": 25
      },
      {
        "beat": 1.75,
        "duration": 0.49166667461395264,
        "pitch": 60,
        "velocity": 29
      },
      {
        "beat": 2,
        "duration": 0.9916666746139526,
        "pitch": 64,
        "velocity": 34
      },
      {
        "beat": 2.25,
        "duration": 0.49166667461395264,
        "pitch": 60,
        "velocity": 29
      },
      {
        "beat": 2.5,
        "duration": 0.9916666746139526,
        "pitch": 55,
        "velocity": 25
      },
      {
        "beat": 2.75,
        "duration": 0.49166667461395264,
        "pitch": 60,
        "velocity": 27
      },
      {
        "beat": 3,
        "duration": 0.9916666746139526,
        "pitch": 64,
        "velocity": 34
      },
      {
        "beat": 3.25,
        "duration": 0.49166667461395264,
        "pitch": 60,
        "velocity": 27
      },
      {
        "beat": 3.5,
        "duration": 0.49166667461395264,
        "pitch": 55,
        "velocity": 27
      },
      {
        "beat": 3.75,
        "duration": 0.24166665971279144,
        "pitch": 60,
        "velocity": 27
      }
    ],
    "crc32": 2824484928,
    "midiSize": 193,
    "midiSha1": "fd16141174026ccabe252fbb66a7b0ddb17015ef"
  },
  {
    "code": "PianoRhodesWarm_24",
    "kind": "chord",
    "family": "PianoRhodesWarm",
    "modelType": "chord_model_379",
    "subtype": "proller",
    "bpm": 87,
    "beat": "4/4",
    "bnum": 44,
    "noteCount": 22,
    "midi": "pattern_midis/PianoRhodesWarm_24.mid",
    "notes": [
      {
        "beat": 0,
        "duration": 0.6666666865348816,
        "pitch": 48,
        "velocity": 40
      },
      {
        "beat": 0.6666666865348816,
        "duration": 0.1041666641831398,
        "pitch": 48,
        "velocity": 5
      },
      {
        "beat": 0.6666666865348816,
        "duration": 0.1041666641831398,
        "pitch": 60,
        "velocity": 20
      },
      {
        "beat": 0.6666666865348816,
        "duration": 0.1041666641831398,
        "pitch": 64,
        "velocity": 10
      },
      {
        "beat": 1,
        "duration": 0.662500023841858,
        "pitch": 55,
        "velocity": 36
      },
      {
        "beat": 1,
        "duration": 0.662500023841858,
        "pitch": 60,
        "velocity": 35
      },
      {
        "beat": 1,
        "duration": 0.662500023841858,
        "pitch": 64,
        "velocity": 33
      },
      {
        "beat": 1,
        "duration": 0.662500023841858,
        "pitch": 67,
        "velocity": 38
      },
      {
        "beat": 1.6666666269302368,
        "duration": 0.1041666641831398,
        "pitch": 55,
        "velocity": 25
      },
      {
        "beat": 1.6666666269302368,
        "duration": 0.1041666641831398,
        "pitch": 60,
        "velocity": 25
      },
      {
        "beat": 1.6666666269302368,
        "duration": 0.1041666641831398,
        "pitch": 64,
        "velocity": 20
      },
      {
        "beat": 2,
        "duration": 0.662500023841858,
        "pitch": 48,
        "velocity": 40
      },
      {
        "beat": 2.6666667461395264,
        "duration": 0.1041666641831398,
        "pitch": 48,
        "velocity": 20
      },
      {
        "beat": 2.6666667461395264,
        "duration": 0.1041666641831398,
        "pitch": 60,
        "velocity": 30
      },
      {
        "beat": 2.6666667461395264,
        "duration": 0.1041666641831398,
        "pitch": 64,
        "velocity": 26
      },
      {
        "beat": 3,
        "duration": 0.6666666865348816,
        "pitch": 55,
        "velocity": 35
      },
      {
        "beat": 3,
        "duration": 0.6666666865348816,
        "pitch": 60,
        "velocity": 38
      },
      {
        "beat": 3,
        "duration": 0.6666666865348816,
        "pitch": 64,
        "velocity": 30
      },
      {
        "beat": 3,
        "duration": 0.6666666865348816,
        "pitch": 67,
        "velocity": 31
      },
      {
        "beat": 3.6666667461395264,
        "duration": 0.1041666641831398,
        "pitch": 55,
        "velocity": 20
      },
      {
        "beat": 3.6666667461395264,
        "duration": 0.1041666641831398,
        "pitch": 60,
        "velocity": 20
      },
      {
        "beat": 3.6666667461395264,
        "duration": 0.1041666641831398,
        "pitch": 64,
        "velocity": 15
      }
    ],
    "crc32": 2986843985,
    "midiSize": 211,
    "midiSha1": "c1e398aa3591550dbfe28ef4833506f6fbfc3647"
  },
  {
    "code": "PianoRhodesWarm_26",
    "kind": "chord",
    "family": "PianoRhodesWarm",
    "modelType": "chord_model_379",
    "subtype": "proller",
    "bpm": 126,
    "beat": "4/4",
    "bnum": 44,
    "noteCount": 4,
    "midi": "pattern_midis/PianoRhodesWarm_26.mid",
    "notes": [
      {
        "beat": 0,
        "duration": 4,
        "pitch": 48,
        "velocity": 50
      },
      {
        "beat": 0,
        "duration": 4,
        "pitch": 60,
        "velocity": 38
      },
      {
        "beat": 0,
        "duration": 4,
        "pitch": 64,
        "velocity": 35
      },
      {
        "beat": 0,
        "duration": 4,
        "pitch": 67,
        "velocity": 37
      }
    ],
    "crc32": 3298410192,
    "midiSize": 90,
    "midiSha1": "8d5451734a7a0d7af85477c03be8a9772f832f53"
  },
  {
    "code": "PianoRhodesWarm_29",
    "kind": "chord",
    "family": "PianoRhodesWarm",
    "modelType": "chord_model_379",
    "subtype": "proller",
    "bpm": 80,
    "beat": "4/4",
    "bnum": 44,
    "noteCount": 15,
    "midi": "pattern_midis/PianoRhodesWarm_29.mid",
    "notes": [
      {
        "beat": 0,
        "duration": 0.5,
        "pitch": 48,
        "velocity": 43
      },
      {
        "beat": 0.5,
        "duration": 0.1666666716337204,
        "pitch": 60,
        "velocity": 40
      },
      {
        "beat": 0.5,
        "duration": 0.1666666716337204,
        "pitch": 64,
        "velocity": 50
      },
      {
        "beat": 0.5,
        "duration": 0.1666666716337204,
        "pitch": 67,
        "velocity": 37
      },
      {
        "beat": 1.5,
        "duration": 0.1666666716337204,
        "pitch": 60,
        "velocity": 37
      },
      {
        "beat": 1.5,
        "duration": 0.1666666716337204,
        "pitch": 64,
        "velocity": 48
      },
      {
        "beat": 1.5,
        "duration": 0.1666666716337204,
        "pitch": 67,
        "velocity": 36
      },
      {
        "beat": 2.5,
        "duration": 0.1666666716337204,
        "pitch": 60,
        "velocity": 40
      },
      {
        "beat": 2.5,
        "duration": 0.1666666716337204,
        "pitch": 64,
        "velocity": 47
      },
      {
        "beat": 2.5,
        "duration": 0.1666666716337204,
        "pitch": 67,
        "velocity": 40
      },
      {
        "beat": 3,
        "duration": 0.3333333432674408,
        "pitch": 48,
        "velocity": 28
      },
      {
        "beat": 3.3333332538604736,
        "duration": 0.1666666716337204,
        "pitch": 48,
        "velocity": 34
      },
      {
        "beat": 3.5,
        "duration": 0.1666666716337204,
        "pitch": 60,
        "velocity": 41
      },
      {
        "beat": 3.5,
        "duration": 0.1666666716337204,
        "pitch": 64,
        "velocity": 47
      },
      {
        "beat": 3.5,
        "duration": 0.1666666716337204,
        "pitch": 67,
        "velocity": 40
      }
    ],
    "crc32": 2720007102,
    "midiSize": 168,
    "midiSha1": "99f59b742bc81d4d0a4a227c69bbb6e953c570e0"
  },
  {
    "code": "PianoRhodesWarm_33",
    "kind": "chord",
    "family": "PianoRhodesWarm",
    "modelType": "chord_model_379",
    "subtype": "proller",
    "bpm": 92,
    "beat": "4/4",
    "bnum": 44,
    "noteCount": 18,
    "midi": "pattern_midis/PianoRhodesWarm_33.mid",
    "notes": [
      {
        "beat": 0,
        "duration": 3,
        "pitch": 48,
        "velocity": 35
      },
      {
        "beat": 0,
        "duration": 1.5,
        "pitch": 72,
        "velocity": 41
      },
      {
        "beat": 0.25,
        "duration": 0.5,
        "pitch": 64,
        "velocity": 18
      },
      {
        "beat": 0.5,
        "duration": 0.5,
        "pitch": 60,
        "velocity": 31
      },
      {
        "beat": 0.75,
        "duration": 0.5,
        "pitch": 64,
        "velocity": 22
      },
      {
        "beat": 1,
        "duration": 1,
        "pitch": 60,
        "velocity": 30
      },
      {
        "beat": 1.25,
        "duration": 0.5,
        "pitch": 64,
        "velocity": 18
      },
      {
        "beat": 1.5,
        "duration": 1.5,
        "pitch": 72,
        "velocity": 40
      },
      {
        "beat": 1.75,
        "duration": 0.5,
        "pitch": 64,
        "velocity": 20
      },
      {
        "beat": 2,
        "duration": 0.5,
        "pitch": 60,
        "velocity": 31
      },
      {
        "beat": 2.25,
        "duration": 0.5,
        "pitch": 64,
        "velocity": 15
      },
      {
        "beat": 2.5,
        "duration": 1,
        "pitch": 60,
        "velocity": 31
      },
      {
        "beat": 2.75,
        "duration": 0.5,
        "pitch": 64,
        "velocity": 24
      },
      {
        "beat": 3,
        "duration": 1,
        "pitch": 48,
        "velocity": 35
      },
      {
        "beat": 3,
        "duration": 1,
        "pitch": 72,
        "velocity": 41
      },
      {
        "beat": 3.25,
        "duration": 0.5,
        "pitch": 64,
        "velocity": 15
      },
      {
        "beat": 3.5,
        "duration": 0.5,
        "pitch": 60,
        "velocity": 31
      },
      {
        "beat": 3.75,
        "duration": 0.25,
        "pitch": 64,
        "velocity": 24
      }
    ],
    "crc32": 1044523109,
    "midiSize": 197,
    "midiSha1": "2f46b86f00560b6e41314a7c01340fd5e16bf975"
  },
  {
    "code": "PianoRhodesWarm_41",
    "kind": "chord",
    "family": "PianoRhodesWarm",
    "modelType": "chord_model_379",
    "subtype": "proller",
    "bpm": 100,
    "beat": "4/4",
    "bnum": 44,
    "noteCount": 23,
    "midi": "pattern_midis/PianoRhodesWarm_41.mid",
    "notes": [
      {
        "beat": 0,
        "duration": 2.7333333492279053,
        "pitch": 48,
        "velocity": 37
      },
      {
        "beat": 0,
        "duration": 0.9791666865348816,
        "pitch": 60,
        "velocity": 44
      },
      {
        "beat": 0,
        "duration": 0.9791666865348816,
        "pitch": 64,
        "velocity": 38
      },
      {
        "beat": 0,
        "duration": 0.9791666865348816,
        "pitch": 67,
        "velocity": 43
      },
      {
        "beat": 1,
        "duration": 0.7333333492279053,
        "pitch": 60,
        "velocity": 32
      },
      {
        "beat": 1,
        "duration": 0.731249988079071,
        "pitch": 64,
        "velocity": 36
      },
      {
        "beat": 1,
        "duration": 0.731249988079071,
        "pitch": 67,
        "velocity": 41
      },
      {
        "beat": 1.5,
        "duration": 1.7333333492279053,
        "pitch": 55,
        "velocity": 23
      },
      {
        "beat": 1.75,
        "duration": 0.4833333194255829,
        "pitch": 60,
        "velocity": 35
      },
      {
        "beat": 1.75,
        "duration": 0.47708332538604736,
        "pitch": 64,
        "velocity": 29
      },
      {
        "beat": 1.75,
        "duration": 0.4833333194255829,
        "pitch": 67,
        "velocity": 34
      },
      {
        "beat": 2.25,
        "duration": 0.7333333492279053,
        "pitch": 60,
        "velocity": 26
      },
      {
        "beat": 2.25,
        "duration": 0.731249988079071,
        "pitch": 64,
        "velocity": 20
      },
      {
        "beat": 2.25,
        "duration": 0.731249988079071,
        "pitch": 67,
        "velocity": 25
      },
      {
        "beat": 2.75,
        "duration": 1.2333333492279053,
        "pitch": 48,
        "velocity": 24
      },
      {
        "beat": 3,
        "duration": 0.4833333194255829,
        "pitch": 60,
        "velocity": 42
      },
      {
        "beat": 3,
        "duration": 0.4833333194255829,
        "pitch": 64,
        "velocity": 36
      },
      {
        "beat": 3,
        "duration": 0.4833333194255829,
        "pitch": 67,
        "velocity": 41
      },
      {
        "beat": 3.25,
        "duration": 0.7333333492279053,
        "pitch": 55,
        "velocity": 28
      },
      {
        "beat": 3.5,
        "duration": 0.4833333194255829,
        "pitch": 60,
        "velocity": 22
      },
      {
        "beat": 3.5,
        "duration": 0.4833333194255829,
        "pitch": 64,
        "velocity": 11
      },
      {
        "beat": 3.5,
        "duration": 0.4833333194255829,
        "pitch": 67,
        "velocity": 21
      },
      {
        "beat": 3.5,
        "duration": 0.4833333194255829,
        "pitch": 72,
        "velocity": 22
      }
    ],
    "crc32": 1064490778,
    "midiSize": 222,
    "midiSha1": "5ad02c01462e255008275b8be5f174fadabfac8c"
  },
  {
    "code": "PianoRhodesWarm_42",
    "kind": "chord",
    "family": "PianoRhodesWarm",
    "modelType": "chord_model_379",
    "subtype": "proller",
    "bpm": 104,
    "beat": "4/4",
    "bnum": 44,
    "noteCount": 12,
    "midi": "pattern_midis/PianoRhodesWarm_42.mid",
    "notes": [
      {
        "beat": 0,
        "duration": 4,
        "pitch": 48,
        "velocity": 19
      },
      {
        "beat": 0,
        "duration": 2,
        "pitch": 55,
        "velocity": 57
      },
      {
        "beat": 0,
        "duration": 2,
        "pitch": 60,
        "velocity": 61
      },
      {
        "beat": 0,
        "duration": 2,
        "pitch": 64,
        "velocity": 61
      },
      {
        "beat": 0,
        "duration": 2,
        "pitch": 67,
        "velocity": 56
      },
      {
        "beat": 2,
        "duration": 0.75,
        "pitch": 55,
        "velocity": 47
      },
      {
        "beat": 2,
        "duration": 1.5,
        "pitch": 60,
        "velocity": 51
      },
      {
        "beat": 2,
        "duration": 1.5,
        "pitch": 64,
        "velocity": 51
      },
      {
        "beat": 2,
        "duration": 2,
        "pitch": 67,
        "velocity": 46
      },
      {
        "beat": 2.75,
        "duration": 1.25,
        "pitch": 55,
        "velocity": 49
      },
      {
        "beat": 3.5,
        "duration": 0.5,
        "pitch": 60,
        "velocity": 50
      },
      {
        "beat": 3.5,
        "duration": 0.5,
        "pitch": 64,
        "velocity": 50
      }
    ],
    "crc32": 2016582285,
    "midiSize": 145,
    "midiSha1": "6e8692b556dabb1a269db75004d1e72bf8d7aca5"
  },
  {
    "code": "PianoRhodesWarm_61",
    "kind": "chord",
    "family": "PianoRhodesWarm",
    "modelType": "chord_model_379",
    "subtype": "proller",
    "bpm": 125,
    "beat": "4/4",
    "bnum": 44,
    "noteCount": 9,
    "midi": "pattern_midis/PianoRhodesWarm_61.mid",
    "notes": [
      {
        "beat": 0,
        "duration": 4,
        "pitch": 48,
        "velocity": 25
      },
      {
        "beat": 0,
        "duration": 1.5,
        "pitch": 67,
        "velocity": 26
      },
      {
        "beat": 0.5,
        "duration": 1.5,
        "pitch": 60,
        "velocity": 25
      },
      {
        "beat": 1,
        "duration": 1.5,
        "pitch": 64,
        "velocity": 39
      },
      {
        "beat": 1.5,
        "duration": 1.5,
        "pitch": 67,
        "velocity": 25
      },
      {
        "beat": 2,
        "duration": 1.5,
        "pitch": 60,
        "velocity": 17
      },
      {
        "beat": 2.5,
        "duration": 1.5,
        "pitch": 64,
        "velocity": 36
      },
      {
        "beat": 3,
        "duration": 1,
        "pitch": 67,
        "velocity": 34
      },
      {
        "beat": 3.5,
        "duration": 0.5,
        "pitch": 60,
        "velocity": 14
      }
    ],
    "crc32": 3005927798,
    "midiSize": 135,
    "midiSha1": "989b67b97a1d53e32d667a3e5748e5c2c4159f93"
  },
  {
    "code": "PianoRhodesWarm_62",
    "kind": "chord",
    "family": "PianoRhodesWarm",
    "modelType": "chord_model_379",
    "subtype": "proller",
    "bpm": 70,
    "beat": "4/4",
    "bnum": 44,
    "noteCount": 9,
    "midi": "pattern_midis/PianoRhodesWarm_62.mid",
    "notes": [
      {
        "beat": 0,
        "duration": 4,
        "pitch": 48,
        "velocity": 28
      },
      {
        "beat": 0,
        "duration": 1.25,
        "pitch": 60,
        "velocity": 26
      },
      {
        "beat": 0,
        "duration": 1.5,
        "pitch": 64,
        "velocity": 20
      },
      {
        "beat": 0,
        "duration": 1.75,
        "pitch": 67,
        "velocity": 25
      },
      {
        "beat": 1.25,
        "duration": 1.75,
        "pitch": 60,
        "velocity": 26
      },
      {
        "beat": 1.5,
        "duration": 0.5,
        "pitch": 64,
        "velocity": 24
      },
      {
        "beat": 1.75,
        "duration": 2.25,
        "pitch": 67,
        "velocity": 33
      },
      {
        "beat": 2,
        "duration": 2,
        "pitch": 64,
        "velocity": 20
      },
      {
        "beat": 3,
        "duration": 1,
        "pitch": 60,
        "velocity": 15
      }
    ],
    "crc32": 2024803918,
    "midiSize": 130,
    "midiSha1": "aadbbe366dccac7bcdf770b1aea0fc69dcc1dee2"
  },
  {
    "code": "PianoRhodesWarm_63",
    "kind": "chord",
    "family": "PianoRhodesWarm",
    "modelType": "chord_model_379",
    "subtype": "proller",
    "bpm": 78,
    "beat": "4/4",
    "bnum": 44,
    "noteCount": 14,
    "midi": "pattern_midis/PianoRhodesWarm_63.mid",
    "notes": [
      {
        "beat": 0,
        "duration": 1.75,
        "pitch": 48,
        "velocity": 36
      },
      {
        "beat": 0.02291666716337204,
        "duration": 1.2270833253860474,
        "pitch": 60,
        "velocity": 35
      },
      {
        "beat": 0.0416666679084301,
        "duration": 0.7083333134651184,
        "pitch": 64,
        "velocity": 32
      },
      {
        "beat": 0.05624999850988388,
        "duration": 1.443750023841858,
        "pitch": 67,
        "velocity": 35
      },
      {
        "beat": 0.75,
        "duration": 1.25,
        "pitch": 64,
        "velocity": 31
      },
      {
        "beat": 1.25,
        "duration": 0.75,
        "pitch": 60,
        "velocity": 20
      },
      {
        "beat": 1.5,
        "duration": 1.75,
        "pitch": 67,
        "velocity": 35
      },
      {
        "beat": 1.75,
        "duration": 0.25,
        "pitch": 48,
        "velocity": 35
      },
      {
        "beat": 2,
        "duration": 2,
        "pitch": 48,
        "velocity": 36
      },
      {
        "beat": 2,
        "duration": 1.75,
        "pitch": 60,
        "velocity": 35
      },
      {
        "beat": 2,
        "duration": 1.5,
        "pitch": 64,
        "velocity": 32
      },
      {
        "beat": 3.25,
        "duration": 0.75,
        "pitch": 67,
        "velocity": 25
      },
      {
        "beat": 3.5,
        "duration": 0.5,
        "pitch": 64,
        "velocity": 30
      },
      {
        "beat": 3.75,
        "duration": 0.25,
        "pitch": 60,
        "velocity": 20
      }
    ],
    "crc32": 3848191558,
    "midiSize": 166,
    "midiSha1": "3732f9e556d4f3c5a3670a68735048f12ee9e4f9"
  },
  {
    "code": "PianoRhodesWarm_64",
    "kind": "chord",
    "family": "PianoRhodesWarm",
    "modelType": "chord_model_379",
    "subtype": "proller",
    "bpm": 108,
    "beat": "4/4",
    "bnum": 44,
    "noteCount": 8,
    "midi": "pattern_midis/PianoRhodesWarm_64.mid",
    "notes": [
      {
        "beat": 0,
        "duration": 4,
        "pitch": 48,
        "velocity": 25
      },
      {
        "beat": 0.5,
        "duration": 3.5,
        "pitch": 55,
        "velocity": 20
      },
      {
        "beat": 1,
        "duration": 1.5,
        "pitch": 60,
        "velocity": 31
      },
      {
        "beat": 1.5,
        "duration": 1.5,
        "pitch": 64,
        "velocity": 22
      },
      {
        "beat": 2,
        "duration": 1.5,
        "pitch": 67,
        "velocity": 38
      },
      {
        "beat": 2.5,
        "duration": 1.5,
        "pitch": 60,
        "velocity": 20
      },
      {
        "beat": 3,
        "duration": 1,
        "pitch": 64,
        "velocity": 20
      },
      {
        "beat": 3.5,
        "duration": 0.5,
        "pitch": 67,
        "velocity": 25
      }
    ],
    "crc32": 3125367989,
    "midiSize": 125,
    "midiSha1": "b339acf89bebe22119acf1744e14d0411d96ceb7"
  },
  {
    "code": "PianoRhodesWarm_65",
    "kind": "chord",
    "family": "PianoRhodesWarm",
    "modelType": "chord_model_379",
    "subtype": "proller",
    "bpm": 90,
    "beat": "4/4",
    "bnum": 44,
    "noteCount": 11,
    "midi": "pattern_midis/PianoRhodesWarm_65.mid",
    "notes": [
      {
        "beat": 0,
        "duration": 4,
        "pitch": 48,
        "velocity": 37
      },
      {
        "beat": 0.25,
        "duration": 3.25,
        "pitch": 55,
        "velocity": 32
      },
      {
        "beat": 0.5,
        "duration": 1,
        "pitch": 60,
        "velocity": 36
      },
      {
        "beat": 0.75,
        "duration": 0.75,
        "pitch": 64,
        "velocity": 36
      },
      {
        "beat": 1.5,
        "duration": 1.75,
        "pitch": 60,
        "velocity": 38
      },
      {
        "beat": 1.5,
        "duration": 1.5,
        "pitch": 64,
        "velocity": 38
      },
      {
        "beat": 1.5,
        "duration": 2.5,
        "pitch": 67,
        "velocity": 31
      },
      {
        "beat": 3,
        "duration": 1,
        "pitch": 64,
        "velocity": 36
      },
      {
        "beat": 3.25,
        "duration": 0.5,
        "pitch": 60,
        "velocity": 29
      },
      {
        "beat": 3.5,
        "duration": 0.5,
        "pitch": 55,
        "velocity": 23
      },
      {
        "beat": 3.75,
        "duration": 0.25,
        "pitch": 60,
        "velocity": 22
      }
    ],
    "crc32": 3744172111,
    "midiSize": 141,
    "midiSha1": "83914f42808ec1307027d3987ef0f56e6a8567c3"
  },
  {
    "code": "PianoRhodesWarm_66",
    "kind": "chord",
    "family": "PianoRhodesWarm",
    "modelType": "chord_model_379",
    "subtype": "proller",
    "bpm": 72,
    "beat": "4/4",
    "bnum": 44,
    "noteCount": 17,
    "midi": "pattern_midis/PianoRhodesWarm_66.mid",
    "notes": [
      {
        "beat": 0,
        "duration": 4,
        "pitch": 48,
        "velocity": 34
      },
      {
        "beat": 0,
        "duration": 1.5,
        "pitch": 55,
        "velocity": 32
      },
      {
        "beat": 0,
        "duration": 1.5,
        "pitch": 60,
        "velocity": 36
      },
      {
        "beat": 0,
        "duration": 1.5,
        "pitch": 64,
        "velocity": 36
      },
      {
        "beat": 0,
        "duration": 1.5,
        "pitch": 67,
        "velocity": 31
      },
      {
        "beat": 1.5,
        "duration": 0.75,
        "pitch": 55,
        "velocity": 18
      },
      {
        "beat": 1.5,
        "duration": 1,
        "pitch": 60,
        "velocity": 22
      },
      {
        "beat": 1.5,
        "duration": 1.25,
        "pitch": 64,
        "velocity": 22
      },
      {
        "beat": 1.5,
        "duration": 2,
        "pitch": 67,
        "velocity": 17
      },
      {
        "beat": 2,
        "duration": 2,
        "pitch": 52,
        "velocity": 38
      },
      {
        "beat": 2.25,
        "duration": 1.25,
        "pitch": 55,
        "velocity": 38
      },
      {
        "beat": 2.5,
        "duration": 1,
        "pitch": 60,
        "velocity": 38
      },
      {
        "beat": 2.75,
        "duration": 0.75,
        "pitch": 64,
        "velocity": 36
      },
      {
        "beat": 3.5,
        "duration": 0.5,
        "pitch": 55,
        "velocity": 18
      },
      {
        "beat": 3.5,
        "duration": 0.5,
        "pitch": 60,
        "velocity": 22
      },
      {
        "beat": 3.5,
        "duration": 0.5,
        "pitch": 64,
        "velocity": 22
      },
      {
        "beat": 3.5,
        "duration": 0.5,
        "pitch": 67,
        "velocity": 17
      }
    ],
    "crc32": 2619453700,
    "midiSize": 179,
    "midiSha1": "97f8021b2019d76cfb05c118188958c6c8975390"
  },
  {
    "code": "PianoRhodesWarm_67",
    "kind": "chord",
    "family": "PianoRhodesWarm",
    "modelType": "chord_model_379",
    "subtype": "proller",
    "bpm": 67,
    "beat": "4/4",
    "bnum": 44,
    "noteCount": 6,
    "midi": "pattern_midis/PianoRhodesWarm_67.mid",
    "notes": [
      {
        "beat": 0,
        "duration": 4,
        "pitch": 48,
        "velocity": 30
      },
      {
        "beat": 0.5,
        "duration": 2,
        "pitch": 60,
        "velocity": 32
      },
      {
        "beat": 1,
        "duration": 2,
        "pitch": 67,
        "velocity": 45
      },
      {
        "beat": 1.5,
        "duration": 2.5,
        "pitch": 64,
        "velocity": 41
      },
      {
        "beat": 2.5,
        "duration": 1.5,
        "pitch": 60,
        "velocity": 38
      },
      {
        "beat": 3,
        "duration": 1,
        "pitch": 67,
        "velocity": 35
      }
    ],
    "crc32": 211937791,
    "midiSize": 109,
    "midiSha1": "47f1e313c483ee5d85c13c7b0bac847cd55d348d"
  },
  {
    "code": "PianoRhodesWarm_68",
    "kind": "chord",
    "family": "PianoRhodesWarm",
    "modelType": "chord_model_379",
    "subtype": "proller",
    "bpm": 67,
    "beat": "4/4",
    "bnum": 44,
    "noteCount": 8,
    "midi": "pattern_midis/PianoRhodesWarm_68.mid",
    "notes": [
      {
        "beat": 0,
        "duration": 2,
        "pitch": 48,
        "velocity": 40
      },
      {
        "beat": 0,
        "duration": 2,
        "pitch": 60,
        "velocity": 46
      },
      {
        "beat": 0,
        "duration": 2,
        "pitch": 64,
        "velocity": 55
      },
      {
        "beat": 0,
        "duration": 2,
        "pitch": 67,
        "velocity": 44
      },
      {
        "beat": 2,
        "duration": 2,
        "pitch": 48,
        "velocity": 43
      },
      {
        "beat": 2,
        "duration": 2,
        "pitch": 60,
        "velocity": 40
      },
      {
        "beat": 2,
        "duration": 2,
        "pitch": 64,
        "velocity": 51
      },
      {
        "beat": 2,
        "duration": 2,
        "pitch": 67,
        "velocity": 47
      }
    ],
    "crc32": 702592545,
    "midiSize": 115,
    "midiSha1": "185d6b88eac762f8f260fa370d585b7eb22b8162"
  },
  {
    "code": "PianoRhodesWarm_69",
    "kind": "chord",
    "family": "PianoRhodesWarm",
    "modelType": "chord_model_379",
    "subtype": "proller",
    "bpm": 90,
    "beat": "4/4",
    "bnum": 86,
    "noteCount": 9,
    "midi": "pattern_midis/PianoRhodesWarm_69.mid",
    "notes": [
      {
        "beat": 0,
        "duration": 1.5,
        "pitch": 48,
        "velocity": 32
      },
      {
        "beat": 0.5,
        "duration": 1,
        "pitch": 55,
        "velocity": 22
      },
      {
        "beat": 1,
        "duration": 0.5,
        "pitch": 60,
        "velocity": 17
      },
      {
        "beat": 1.5,
        "duration": 0.1666666716337204,
        "pitch": 48,
        "velocity": 25
      },
      {
        "beat": 1.5,
        "duration": 0.1666666716337204,
        "pitch": 55,
        "velocity": 15
      },
      {
        "beat": 1.5,
        "duration": 0.1666666716337204,
        "pitch": 60,
        "velocity": 10
      },
      {
        "beat": 1.5,
        "duration": 0.1666666716337204,
        "pitch": 64,
        "velocity": 36
      },
      {
        "beat": 1.5,
        "duration": 0.1666666716337204,
        "pitch": 67,
        "velocity": 42
      },
      {
        "beat": 1.5,
        "duration": 0.1666666716337204,
        "pitch": 72,
        "velocity": 44
      }
    ],
    "crc32": 486790807,
    "midiSize": 122,
    "midiSha1": "490456c1b4a9bc3a64dd600ed9455b85a0948060"
  },
  {
    "code": "PianoRhodesWarm_7",
    "kind": "chord",
    "family": "PianoRhodesWarm",
    "modelType": "chord_model_379",
    "subtype": "proller",
    "bpm": 72,
    "beat": "4/4",
    "bnum": 86,
    "noteCount": 6,
    "midi": "pattern_midis/PianoRhodesWarm_7.mid",
    "notes": [
      {
        "beat": 0,
        "duration": 2.99791669845581,
        "pitch": 48,
        "velocity": 38
      },
      {
        "beat": 0.5,
        "duration": 1.9854166507720947,
        "pitch": 55,
        "velocity": 43
      },
      {
        "beat": 1,
        "duration": 1,
        "pitch": 60,
        "velocity": 41
      },
      {
        "beat": 1.5,
        "duration": 1.5,
        "pitch": 64,
        "velocity": 38
      },
      {
        "beat": 2,
        "duration": 1,
        "pitch": 60,
        "velocity": 41
      },
      {
        "beat": 2.5,
        "duration": 0.506250023841858,
        "pitch": 55,
        "velocity": 31
      }
    ],
    "crc32": 2901469706,
    "midiSize": 108,
    "midiSha1": "c4b314965a4e44f47f1ad3b7ef6f3267e8b981e5"
  },
  {
    "code": "PianoRhodesWarm_70",
    "kind": "chord",
    "family": "PianoRhodesWarm",
    "modelType": "chord_model_379",
    "subtype": "proller",
    "bpm": 90,
    "beat": "4/4",
    "bnum": 86,
    "noteCount": 21,
    "midi": "pattern_midis/PianoRhodesWarm_70.mid",
    "notes": [
      {
        "beat": 0,
        "duration": 1.5,
        "pitch": 48,
        "velocity": 30
      },
      {
        "beat": 0,
        "duration": 0.1145833358168602,
        "pitch": 64,
        "velocity": 20
      },
      {
        "beat": 0,
        "duration": 0.10833333432674408,
        "pitch": 67,
        "velocity": 32
      },
      {
        "beat": 0,
        "duration": 0.10625000298023224,
        "pitch": 72,
        "velocity": 37
      },
      {
        "beat": 0.5,
        "duration": 0.09375,
        "pitch": 64,
        "velocity": 25
      },
      {
        "beat": 0.5,
        "duration": 0.10208333283662796,
        "pitch": 67,
        "velocity": 39
      },
      {
        "beat": 0.5,
        "duration": 0.09375,
        "pitch": 72,
        "velocity": 32
      },
      {
        "beat": 1,
        "duration": 0.11041666567325592,
        "pitch": 64,
        "velocity": 20
      },
      {
        "beat": 1,
        "duration": 0.1145833358168602,
        "pitch": 67,
        "velocity": 35
      },
      {
        "beat": 1,
        "duration": 0.11041666567325592,
        "pitch": 72,
        "velocity": 30
      },
      {
        "beat": 1.5,
        "duration": 0.1666666716337204,
        "pitch": 48,
        "velocity": 10
      },
      {
        "beat": 1.5,
        "duration": 0.1666666716337204,
        "pitch": 55,
        "velocity": 25
      },
      {
        "beat": 1.5,
        "duration": 0.11041666567325592,
        "pitch": 64,
        "velocity": 38
      },
      {
        "beat": 1.5,
        "duration": 0.11249999701976776,
        "pitch": 67,
        "velocity": 45
      },
      {
        "beat": 1.5,
        "duration": 0.09583333134651184,
        "pitch": 72,
        "velocity": 41
      },
      {
        "beat": 2,
        "duration": 0.09375,
        "pitch": 64,
        "velocity": 25
      },
      {
        "beat": 2,
        "duration": 0.10208333283662796,
        "pitch": 67,
        "velocity": 39
      },
      {
        "beat": 2,
        "duration": 0.09375,
        "pitch": 72,
        "velocity": 32
      },
      {
        "beat": 2.5,
        "duration": 0.11041666567325592,
        "pitch": 64,
        "velocity": 20
      },
      {
        "beat": 2.5,
        "duration": 0.1145833358168602,
        "pitch": 67,
        "velocity": 35
      },
      {
        "beat": 2.5,
        "duration": 0.11041666567325592,
        "pitch": 72,
        "velocity": 30
      }
    ],
    "crc32": 3362595371,
    "midiSize": 206,
    "midiSha1": "79e35febaf408d1ec5fd9f2fa07cbbebfe035341"
  },
  {
    "code": "PianoRhodesWarm_71",
    "kind": "chord",
    "family": "PianoRhodesWarm",
    "modelType": "chord_model_379",
    "subtype": "proller",
    "bpm": 109,
    "beat": "4/4",
    "bnum": 44,
    "noteCount": 8,
    "midi": "pattern_midis/PianoRhodesWarm_71.mid",
    "notes": [
      {
        "beat": 0,
        "duration": 4,
        "pitch": 48,
        "velocity": 22
      },
      {
        "beat": 0,
        "duration": 0.7416666746139526,
        "pitch": 60,
        "velocity": 35
      },
      {
        "beat": 0,
        "duration": 1.5,
        "pitch": 64,
        "velocity": 43
      },
      {
        "beat": 0,
        "duration": 1.5,
        "pitch": 67,
        "velocity": 39
      },
      {
        "beat": 0.75,
        "duration": 0.7416666746139526,
        "pitch": 60,
        "velocity": 25
      },
      {
        "beat": 1.5,
        "duration": 2.5,
        "pitch": 60,
        "velocity": 34
      },
      {
        "beat": 1.5,
        "duration": 2.5,
        "pitch": 64,
        "velocity": 39
      },
      {
        "beat": 1.5,
        "duration": 2.5,
        "pitch": 67,
        "velocity": 40
      }
    ],
    "crc32": 4112261305,
    "midiSize": 120,
    "midiSha1": "4a039164ac1ab9097a344a22c41a17a60698aec9"
  },
  {
    "code": "PianoRhodesWarm_8",
    "kind": "chord",
    "family": "PianoRhodesWarm",
    "modelType": "chord_model_379",
    "subtype": "proller",
    "bpm": 72,
    "beat": "4/4",
    "bnum": 44,
    "noteCount": 14,
    "midi": "pattern_midis/PianoRhodesWarm_8.mid",
    "notes": [
      {
        "beat": 0,
        "duration": 4,
        "pitch": 48,
        "velocity": 37
      },
      {
        "beat": 0,
        "duration": 3.5,
        "pitch": 60,
        "velocity": 25
      },
      {
        "beat": 0,
        "duration": 1,
        "pitch": 64,
        "velocity": 39
      },
      {
        "beat": 0,
        "duration": 1,
        "pitch": 67,
        "velocity": 38
      },
      {
        "beat": 0.5,
        "duration": 1,
        "pitch": 55,
        "velocity": 25
      },
      {
        "beat": 1,
        "duration": 1,
        "pitch": 64,
        "velocity": 28
      },
      {
        "beat": 1,
        "duration": 1,
        "pitch": 67,
        "velocity": 27
      },
      {
        "beat": 1.5,
        "duration": 1,
        "pitch": 55,
        "velocity": 18
      },
      {
        "beat": 2,
        "duration": 1,
        "pitch": 64,
        "velocity": 38
      },
      {
        "beat": 2,
        "duration": 1,
        "pitch": 67,
        "velocity": 37
      },
      {
        "beat": 2.5,
        "duration": 1.5,
        "pitch": 55,
        "velocity": 24
      },
      {
        "beat": 3,
        "duration": 1,
        "pitch": 64,
        "velocity": 38
      },
      {
        "beat": 3,
        "duration": 1,
        "pitch": 67,
        "velocity": 37
      },
      {
        "beat": 3.5,
        "duration": 0.5,
        "pitch": 60,
        "velocity": 23
      }
    ],
    "crc32": 3628460140,
    "midiSize": 166,
    "midiSha1": "928d0c4fefd2f6bfa2cef4b248f7cc01beb2c9e1"
  },
  {
    "code": "PianoRhodesWarm_9",
    "kind": "chord",
    "family": "PianoRhodesWarm",
    "modelType": "chord_model_379",
    "subtype": "proller",
    "bpm": 67,
    "beat": "4/4",
    "bnum": 44,
    "noteCount": 9,
    "midi": "pattern_midis/PianoRhodesWarm_9.mid",
    "notes": [
      {
        "beat": 0,
        "duration": 2,
        "pitch": 48,
        "velocity": 40
      },
      {
        "beat": 0.014583333395421505,
        "duration": 1.9854166507720947,
        "pitch": 60,
        "velocity": 32
      },
      {
        "beat": 0.02083333395421505,
        "duration": 1.9791666269302368,
        "pitch": 64,
        "velocity": 38
      },
      {
        "beat": 0.03125,
        "duration": 1.96875,
        "pitch": 67,
        "velocity": 43
      },
      {
        "beat": 2,
        "duration": 2,
        "pitch": 48,
        "velocity": 30
      },
      {
        "beat": 2,
        "duration": 2,
        "pitch": 60,
        "velocity": 30
      },
      {
        "beat": 2,
        "duration": 2,
        "pitch": 64,
        "velocity": 27
      },
      {
        "beat": 2,
        "duration": 2,
        "pitch": 67,
        "velocity": 22
      },
      {
        "beat": 3,
        "duration": 1,
        "pitch": 55,
        "velocity": 20
      }
    ],
    "crc32": 730278399,
    "midiSize": 123,
    "midiSha1": "891679f287d36a9d6d16c219cff77da919349ee9"
  },
  {
    "code": "PianoRhosdesWarm_3",
    "kind": "chord",
    "family": "PianoRhodesWarm",
    "modelType": "chord_model_379",
    "subtype": "proller",
    "bpm": 72,
    "beat": "4/4",
    "bnum": 44,
    "noteCount": 14,
    "midi": "pattern_midis/PianoRhosdesWarm_3.mid",
    "notes": [
      {
        "beat": 0,
        "duration": 2,
        "pitch": 48,
        "velocity": 42
      },
      {
        "beat": 0,
        "duration": 1,
        "pitch": 60,
        "velocity": 42
      },
      {
        "beat": 0,
        "duration": 1,
        "pitch": 64,
        "velocity": 49
      },
      {
        "beat": 0,
        "duration": 1,
        "pitch": 67,
        "velocity": 38
      },
      {
        "beat": 1,
        "duration": 1,
        "pitch": 67,
        "velocity": 37
      },
      {
        "beat": 1,
        "duration": 1,
        "pitch": 60,
        "velocity": 36
      },
      {
        "beat": 1,
        "duration": 1,
        "pitch": 64,
        "velocity": 31
      },
      {
        "beat": 2,
        "duration": 2,
        "pitch": 48,
        "velocity": 37
      },
      {
        "beat": 2,
        "duration": 1,
        "pitch": 67,
        "velocity": 33
      },
      {
        "beat": 2,
        "duration": 1,
        "pitch": 60,
        "velocity": 43
      },
      {
        "beat": 2,
        "duration": 1,
        "pitch": 64,
        "velocity": 42
      },
      {
        "beat": 3,
        "duration": 1,
        "pitch": 67,
        "velocity": 28
      },
      {
        "beat": 3,
        "duration": 1,
        "pitch": 60,
        "velocity": 32
      },
      {
        "beat": 3,
        "duration": 1,
        "pitch": 64,
        "velocity": 27
      }
    ],
    "crc32": 3069311749,
    "midiSize": 157,
    "midiSha1": "ad0af2eb5664c58793b459222be51bb54561d03f"
  },
  {
    "code": "PianoRhosdesWarm_4",
    "kind": "chord",
    "family": "PianoRhodesWarm",
    "modelType": "chord_model_379",
    "subtype": "proller",
    "bpm": 80,
    "beat": "4/4",
    "bnum": 44,
    "noteCount": 17,
    "midi": "pattern_midis/PianoRhosdesWarm_4.mid",
    "notes": [
      {
        "beat": 0,
        "duration": 4,
        "pitch": 48,
        "velocity": 50
      },
      {
        "beat": 0,
        "duration": 1,
        "pitch": 55,
        "velocity": 31
      },
      {
        "beat": 0,
        "duration": 1,
        "pitch": 64,
        "velocity": 33
      },
      {
        "beat": 0,
        "duration": 1,
        "pitch": 67,
        "velocity": 42
      },
      {
        "beat": 0.5,
        "duration": 1,
        "pitch": 60,
        "velocity": 34
      },
      {
        "beat": 1,
        "duration": 1,
        "pitch": 55,
        "velocity": 23
      },
      {
        "beat": 1,
        "duration": 1,
        "pitch": 64,
        "velocity": 30
      },
      {
        "beat": 1,
        "duration": 1,
        "pitch": 67,
        "velocity": 31
      },
      {
        "beat": 1.5,
        "duration": 1,
        "pitch": 60,
        "velocity": 20
      },
      {
        "beat": 2,
        "duration": 1,
        "pitch": 55,
        "velocity": 27
      },
      {
        "beat": 2,
        "duration": 1,
        "pitch": 64,
        "velocity": 37
      },
      {
        "beat": 2,
        "duration": 1,
        "pitch": 67,
        "velocity": 39
      },
      {
        "beat": 2.5,
        "duration": 1,
        "pitch": 60,
        "velocity": 33
      },
      {
        "beat": 3,
        "duration": 1,
        "pitch": 55,
        "velocity": 25
      },
      {
        "beat": 3,
        "duration": 1,
        "pitch": 64,
        "velocity": 33
      },
      {
        "beat": 3,
        "duration": 1,
        "pitch": 67,
        "velocity": 30
      },
      {
        "beat": 3.5,
        "duration": 0.5,
        "pitch": 60,
        "velocity": 16
      }
    ],
    "crc32": 634369536,
    "midiSize": 185,
    "midiSha1": "5a89d92cadeab90bb0fc56d9d19bb6fd16dec7dd"
  },
  {
    "code": "PianoRhosdesWarm_5",
    "kind": "chord",
    "family": "PianoRhodesWarm",
    "modelType": "chord_model_379",
    "subtype": "proller",
    "bpm": 120,
    "beat": "4/4",
    "bnum": 44,
    "noteCount": 7,
    "midi": "pattern_midis/PianoRhosdesWarm_5.mid",
    "notes": [
      {
        "beat": 0,
        "duration": 4,
        "pitch": 48,
        "velocity": 50
      },
      {
        "beat": 0,
        "duration": 2,
        "pitch": 60,
        "velocity": 35
      },
      {
        "beat": 0.06458333134651184,
        "duration": 2.93541669845581,
        "pitch": 64,
        "velocity": 30
      },
      {
        "beat": 0.125,
        "duration": 3.875,
        "pitch": 67,
        "velocity": 40
      },
      {
        "beat": 2,
        "duration": 1.5,
        "pitch": 60,
        "velocity": 23
      },
      {
        "beat": 3,
        "duration": 1,
        "pitch": 64,
        "velocity": 30
      },
      {
        "beat": 3.5,
        "duration": 0.5,
        "pitch": 60,
        "velocity": 15
      }
    ],
    "crc32": 2344022415,
    "midiSize": 115,
    "midiSha1": "66ec918609cf8ed54578d867bf98139934131398"
  },
  {
    "code": "PianoRhosdesWarm_6",
    "kind": "chord",
    "family": "PianoRhodesWarm",
    "modelType": "chord_model_379",
    "subtype": "proller",
    "bpm": 90,
    "beat": "4/4",
    "bnum": 43,
    "noteCount": 4,
    "midi": "pattern_midis/PianoRhosdesWarm_6.mid",
    "notes": [
      {
        "beat": 0,
        "duration": 3,
        "pitch": 48,
        "velocity": 45
      },
      {
        "beat": 1,
        "duration": 2,
        "pitch": 60,
        "velocity": 30
      },
      {
        "beat": 2,
        "duration": 1,
        "pitch": 64,
        "velocity": 35
      },
      {
        "beat": 2,
        "duration": 1,
        "pitch": 67,
        "velocity": 33
      }
    ],
    "crc32": 3536446091,
    "midiSize": 92,
    "midiSha1": "19bbb5cf46df5a597e28d59d1f04ed2e64d27319"
  },
  {
    "code": "PianoStudio_1",
    "kind": "chord",
    "family": "PianoStudio",
    "modelType": "chord_model_379",
    "subtype": "proller",
    "bpm": 72,
    "beat": "4/4",
    "bnum": 44,
    "noteCount": 8,
    "midi": "pattern_midis/PianoStudio_1.mid",
    "notes": [
      {
        "beat": 0,
        "duration": 3.99791669845581,
        "pitch": 48,
        "velocity": 44
      },
      {
        "beat": 0.5,
        "duration": 0.987500011920929,
        "pitch": 55,
        "velocity": 33
      },
      {
        "beat": 1,
        "duration": 2,
        "pitch": 60,
        "velocity": 50
      },
      {
        "beat": 1.5,
        "duration": 1,
        "pitch": 55,
        "velocity": 29
      },
      {
        "beat": 2,
        "duration": 2,
        "pitch": 64,
        "velocity": 42
      },
      {
        "beat": 2.5,
        "duration": 1,
        "pitch": 55,
        "velocity": 24
      },
      {
        "beat": 3,
        "duration": 1,
        "pitch": 60,
        "velocity": 55
      },
      {
        "beat": 3.5,
        "duration": 0.5,
        "pitch": 55,
        "velocity": 21
      }
    ],
    "crc32": 4222336131,
    "midiSize": 122,
    "midiSha1": "ce934ddb45b483faad5f2d75542196bc76e37b83"
  },
  {
    "code": "PianoStudio_10",
    "kind": "chord",
    "family": "PianoStudio",
    "modelType": "chord_model_379",
    "subtype": "proller",
    "bpm": 72,
    "beat": "4/4",
    "bnum": 44,
    "noteCount": 14,
    "midi": "pattern_midis/PianoStudio_10.mid",
    "notes": [
      {
        "beat": 0,
        "duration": 2,
        "pitch": 48,
        "velocity": 15
      },
      {
        "beat": 0.25,
        "duration": 0.5,
        "pitch": 55,
        "velocity": 29
      },
      {
        "beat": 0.5,
        "duration": 1.25,
        "pitch": 60,
        "velocity": 25
      },
      {
        "beat": 0.75,
        "duration": 1.5,
        "pitch": 55,
        "velocity": 24
      },
      {
        "beat": 1,
        "duration": 3,
        "pitch": 67,
        "velocity": 20
      },
      {
        "beat": 1.5,
        "duration": 1.5,
        "pitch": 64,
        "velocity": 13
      },
      {
        "beat": 1.75,
        "duration": 0.75,
        "pitch": 60,
        "velocity": 8
      },
      {
        "beat": 2,
        "duration": 2,
        "pitch": 48,
        "velocity": 16
      },
      {
        "beat": 2.25,
        "duration": 0.5,
        "pitch": 55,
        "velocity": 26
      },
      {
        "beat": 2.5,
        "duration": 1,
        "pitch": 60,
        "velocity": 25
      },
      {
        "beat": 2.75,
        "duration": 1,
        "pitch": 55,
        "velocity": 15
      },
      {
        "beat": 3,
        "duration": 1,
        "pitch": 64,
        "velocity": 20
      },
      {
        "beat": 3.5,
        "duration": 0.5,
        "pitch": 60,
        "velocity": 15
      },
      {
        "beat": 3.75,
        "duration": 0.25,
        "pitch": 55,
        "velocity": 5
      }
    ],
    "crc32": 2256250141,
    "midiSize": 163,
    "midiSha1": "ac0da667f7dc33ac58312c92a80014c1a8e73cf4"
  },
  {
    "code": "PianoStudio_11",
    "kind": "chord",
    "family": "PianoStudio",
    "modelType": "chord_model_379",
    "subtype": "proller",
    "bpm": 72,
    "beat": "4/4",
    "bnum": 44,
    "noteCount": 14,
    "midi": "pattern_midis/PianoStudio_11.mid",
    "notes": [
      {
        "beat": 0,
        "duration": 1.5,
        "pitch": 48,
        "velocity": 34
      },
      {
        "beat": 0,
        "duration": 0.75,
        "pitch": 60,
        "velocity": 29
      },
      {
        "beat": 0,
        "duration": 1.5,
        "pitch": 64,
        "velocity": 39
      },
      {
        "beat": 0,
        "duration": 1.5,
        "pitch": 67,
        "velocity": 41
      },
      {
        "beat": 0.75,
        "duration": 0.75,
        "pitch": 60,
        "velocity": 30
      },
      {
        "beat": 1.25,
        "duration": 0.25,
        "pitch": 55,
        "velocity": 25
      },
      {
        "beat": 1.5,
        "duration": 1.5,
        "pitch": 48,
        "velocity": 30
      },
      {
        "beat": 1.5,
        "duration": 2,
        "pitch": 60,
        "velocity": 26
      },
      {
        "beat": 1.5,
        "duration": 2.5,
        "pitch": 64,
        "velocity": 25
      },
      {
        "beat": 1.5,
        "duration": 2.25,
        "pitch": 67,
        "velocity": 31
      },
      {
        "beat": 3,
        "duration": 1.0020833015441895,
        "pitch": 48,
        "velocity": 29
      },
      {
        "beat": 3.25,
        "duration": 0.75,
        "pitch": 55,
        "velocity": 35
      },
      {
        "beat": 3.5,
        "duration": 0.5,
        "pitch": 60,
        "velocity": 25
      },
      {
        "beat": 3.75,
        "duration": 0.25,
        "pitch": 67,
        "velocity": 25
      }
    ],
    "crc32": 3763033169,
    "midiSize": 156,
    "midiSha1": "1d8edc20805ebcc37fe28ca9aeb1456a8e6fa45f"
  },
  {
    "code": "PianoStudio_12",
    "kind": "chord",
    "family": "PianoStudio",
    "modelType": "chord_model_379",
    "subtype": "proller",
    "bpm": 125,
    "beat": "4/4",
    "bnum": 44,
    "noteCount": 10,
    "midi": "pattern_midis/PianoStudio_12.mid",
    "notes": [
      {
        "beat": 0,
        "duration": 4,
        "pitch": 48,
        "velocity": 18
      },
      {
        "beat": 0,
        "duration": 1.5,
        "pitch": 55,
        "velocity": 26
      },
      {
        "beat": 0,
        "duration": 1.5,
        "pitch": 60,
        "velocity": 31
      },
      {
        "beat": 0,
        "duration": 1.5,
        "pitch": 64,
        "velocity": 36
      },
      {
        "beat": 1.5,
        "duration": 1.5,
        "pitch": 55,
        "velocity": 18
      },
      {
        "beat": 1.5,
        "duration": 1.5,
        "pitch": 60,
        "velocity": 26
      },
      {
        "beat": 1.5,
        "duration": 1.5,
        "pitch": 64,
        "velocity": 31
      },
      {
        "beat": 3,
        "duration": 1,
        "pitch": 55,
        "velocity": 22
      },
      {
        "beat": 3,
        "duration": 1,
        "pitch": 60,
        "velocity": 30
      },
      {
        "beat": 3,
        "duration": 1,
        "pitch": 64,
        "velocity": 33
      }
    ],
    "crc32": 3478512498,
    "midiSize": 126,
    "midiSha1": "734e20dddb8014e9a93150f94e7a16b8f6861cb5"
  },
  {
    "code": "PianoStudio_13",
    "kind": "chord",
    "family": "PianoStudio",
    "modelType": "chord_model_379",
    "subtype": "proller",
    "bpm": 88,
    "beat": "4/4",
    "bnum": 44,
    "noteCount": 9,
    "midi": "pattern_midis/PianoStudio_13.mid",
    "notes": [
      {
        "beat": 0,
        "duration": 3.9791667461395264,
        "pitch": 48,
        "velocity": 25
      },
      {
        "beat": 0,
        "duration": 1.975000023841858,
        "pitch": 64,
        "velocity": 36
      },
      {
        "beat": 0.5,
        "duration": 0.9791666865348816,
        "pitch": 55,
        "velocity": 24
      },
      {
        "beat": 1,
        "duration": 1.975000023841858,
        "pitch": 60,
        "velocity": 27
      },
      {
        "beat": 1.5,
        "duration": 0.9791666865348816,
        "pitch": 55,
        "velocity": 26
      },
      {
        "beat": 2,
        "duration": 1.975000023841858,
        "pitch": 64,
        "velocity": 33
      },
      {
        "beat": 2.5,
        "duration": 0.9791666865348816,
        "pitch": 55,
        "velocity": 23
      },
      {
        "beat": 3,
        "duration": 0.975000023841858,
        "pitch": 60,
        "velocity": 25
      },
      {
        "beat": 3.5,
        "duration": 0.4791666567325592,
        "pitch": 55,
        "velocity": 29
      }
    ],
    "crc32": 2816164732,
    "midiSize": 133,
    "midiSha1": "71c5f9e85da4b9f34f9bb0399dd4370762304c6a"
  },
  {
    "code": "PianoStudio_14",
    "kind": "chord",
    "family": "PianoStudio",
    "modelType": "chord_model_379",
    "subtype": "proller",
    "bpm": 120,
    "beat": "4/4",
    "bnum": 44,
    "noteCount": 7,
    "midi": "pattern_midis/PianoStudio_14.mid",
    "notes": [
      {
        "beat": 0,
        "duration": 4,
        "pitch": 48,
        "velocity": 50
      },
      {
        "beat": 0.5,
        "duration": 2.5,
        "pitch": 60,
        "velocity": 35
      },
      {
        "beat": 1,
        "duration": 1.5,
        "pitch": 64,
        "velocity": 27
      },
      {
        "beat": 1.5,
        "duration": 2.5,
        "pitch": 67,
        "velocity": 40
      },
      {
        "beat": 2.5,
        "duration": 1,
        "pitch": 64,
        "velocity": 20
      },
      {
        "beat": 3,
        "duration": 1,
        "pitch": 60,
        "velocity": 20
      },
      {
        "beat": 3.5,
        "duration": 0.5,
        "pitch": 64,
        "velocity": 15
      }
    ],
    "crc32": 1117864783,
    "midiSize": 114,
    "midiSha1": "1aadfe08bb06ba7125326f4ce77a78ea47387f24"
  },
  {
    "code": "PianoStudio_15",
    "kind": "chord",
    "family": "PianoStudio",
    "modelType": "chord_model_379",
    "subtype": "proller",
    "bpm": 142,
    "beat": "4/4",
    "bnum": 44,
    "noteCount": 7,
    "midi": "pattern_midis/PianoStudio_15.mid",
    "notes": [
      {
        "beat": 0,
        "duration": 3.9937500953674316,
        "pitch": 48,
        "velocity": 36
      },
      {
        "beat": 0.5,
        "duration": 3,
        "pitch": 60,
        "velocity": 20
      },
      {
        "beat": 1,
        "duration": 1.5,
        "pitch": 64,
        "velocity": 35
      },
      {
        "beat": 1.5,
        "duration": 1.5,
        "pitch": 67,
        "velocity": 34
      },
      {
        "beat": 2.5,
        "duration": 1.5,
        "pitch": 64,
        "velocity": 25
      },
      {
        "beat": 3,
        "duration": 1,
        "pitch": 67,
        "velocity": 30
      },
      {
        "beat": 3.5,
        "duration": 0.5,
        "pitch": 60,
        "velocity": 20
      }
    ],
    "crc32": 3576479118,
    "midiSize": 114,
    "midiSha1": "d07c6c40bc3a65ac52e6001d323cc60e4cb77069"
  },
  {
    "code": "PianoStudio_16",
    "kind": "chord",
    "family": "PianoStudio",
    "modelType": "chord_model_379",
    "subtype": "proller",
    "bpm": 73,
    "beat": "4/4",
    "bnum": 44,
    "noteCount": 16,
    "midi": "pattern_midis/PianoStudio_16.mid",
    "notes": [
      {
        "beat": 0,
        "duration": 4.02916669845581,
        "pitch": 48,
        "velocity": 22
      },
      {
        "beat": 0,
        "duration": 0.9958333373069763,
        "pitch": 67,
        "velocity": 29
      },
      {
        "beat": 0.5,
        "duration": 0.9958333373069763,
        "pitch": 64,
        "velocity": 27
      },
      {
        "beat": 0.5,
        "duration": 0.9958333373069763,
        "pitch": 72,
        "velocity": 27
      },
      {
        "beat": 1,
        "duration": 0.9958333373069763,
        "pitch": 60,
        "velocity": 23
      },
      {
        "beat": 1,
        "duration": 0.9958333373069763,
        "pitch": 67,
        "velocity": 29
      },
      {
        "beat": 1.5,
        "duration": 0.9958333373069763,
        "pitch": 64,
        "velocity": 26
      },
      {
        "beat": 1.5,
        "duration": 0.9958333373069763,
        "pitch": 72,
        "velocity": 27
      },
      {
        "beat": 2,
        "duration": 0.9958333373069763,
        "pitch": 60,
        "velocity": 29
      },
      {
        "beat": 2,
        "duration": 0.9958333373069763,
        "pitch": 67,
        "velocity": 29
      },
      {
        "beat": 2.5,
        "duration": 0.9958333373069763,
        "pitch": 64,
        "velocity": 24
      },
      {
        "beat": 2.5,
        "duration": 0.9958333373069763,
        "pitch": 72,
        "velocity": 27
      },
      {
        "beat": 3,
        "duration": 1.0291666984558105,
        "pitch": 60,
        "velocity": 28
      },
      {
        "beat": 3,
        "duration": 1.0291666984558105,
        "pitch": 67,
        "velocity": 29
      },
      {
        "beat": 3.5,
        "duration": 0.5291666388511658,
        "pitch": 64,
        "velocity": 25
      },
      {
        "beat": 3.5,
        "duration": 0.5291666388511658,
        "pitch": 72,
        "velocity": 27
      }
    ],
    "crc32": 1383800472,
    "midiSize": 177,
    "midiSha1": "48de684014420a978e62f77b0545365adcf4f513"
  },
  {
    "code": "PianoStudio_17",
    "kind": "chord",
    "family": "PianoStudio",
    "modelType": "chord_model_379",
    "subtype": "proller",
    "bpm": 86,
    "beat": "4/4",
    "bnum": 44,
    "noteCount": 12,
    "midi": "pattern_midis/PianoStudio_17.mid",
    "notes": [
      {
        "beat": 0,
        "duration": 1,
        "pitch": 48,
        "velocity": 49
      },
      {
        "beat": 0.5,
        "duration": 0.5,
        "pitch": 60,
        "velocity": 39
      },
      {
        "beat": 0.75,
        "duration": 0.1875,
        "pitch": 64,
        "velocity": 28
      },
      {
        "beat": 0.75,
        "duration": 0.1875,
        "pitch": 67,
        "velocity": 37
      },
      {
        "beat": 1,
        "duration": 0.25,
        "pitch": 52,
        "velocity": 34
      },
      {
        "beat": 1.5,
        "duration": 2.5,
        "pitch": 48,
        "velocity": 42
      },
      {
        "beat": 1.5,
        "duration": 1.5,
        "pitch": 60,
        "velocity": 44
      },
      {
        "beat": 1.5,
        "duration": 2.5,
        "pitch": 64,
        "velocity": 45
      },
      {
        "beat": 1.5,
        "duration": 2.5,
        "pitch": 67,
        "velocity": 31
      },
      {
        "beat": 2.75,
        "duration": 0.75,
        "pitch": 55,
        "velocity": 36
      },
      {
        "beat": 3,
        "duration": 1,
        "pitch": 60,
        "velocity": 42
      },
      {
        "beat": 3.5,
        "duration": 0.5,
        "pitch": 55,
        "velocity": 37
      }
    ],
    "crc32": 810561857,
    "midiSize": 143,
    "midiSha1": "94c7c9ac4568e244cde83b6b599d683049e728d3"
  },
  {
    "code": "PianoStudio_18",
    "kind": "chord",
    "family": "PianoStudio",
    "modelType": "chord_model_379",
    "subtype": "proller",
    "bpm": 86,
    "beat": "4/4",
    "bnum": 44,
    "noteCount": 15,
    "midi": "pattern_midis/PianoStudio_18.mid",
    "notes": [
      {
        "beat": 0,
        "duration": 2,
        "pitch": 48,
        "velocity": 40
      },
      {
        "beat": 0.5,
        "duration": 1.25,
        "pitch": 64,
        "velocity": 47
      },
      {
        "beat": 0.5,
        "duration": 1.25,
        "pitch": 67,
        "velocity": 47
      },
      {
        "beat": 1,
        "duration": 1.5,
        "pitch": 60,
        "velocity": 39
      },
      {
        "beat": 1.75,
        "duration": 0.5,
        "pitch": 64,
        "velocity": 29
      },
      {
        "beat": 1.75,
        "duration": 0.5,
        "pitch": 67,
        "velocity": 29
      },
      {
        "beat": 2,
        "duration": 2,
        "pitch": 48,
        "velocity": 43
      },
      {
        "beat": 2.25,
        "duration": 0.75,
        "pitch": 64,
        "velocity": 46
      },
      {
        "beat": 2.25,
        "duration": 0.75,
        "pitch": 67,
        "velocity": 46
      },
      {
        "beat": 2.5,
        "duration": 0.25,
        "pitch": 60,
        "velocity": 35
      },
      {
        "beat": 2.75,
        "duration": 1.25,
        "pitch": 55,
        "velocity": 44
      },
      {
        "beat": 3,
        "duration": 0.7479166388511658,
        "pitch": 64,
        "velocity": 27
      },
      {
        "beat": 3,
        "duration": 0.7479166388511658,
        "pitch": 67,
        "velocity": 27
      },
      {
        "beat": 3.75,
        "duration": 0.25,
        "pitch": 64,
        "velocity": 47
      },
      {
        "beat": 3.75,
        "duration": 0.25,
        "pitch": 67,
        "velocity": 31
      }
    ],
    "crc32": 1749701891,
    "midiSize": 167,
    "midiSha1": "41e9110298cab93dccacdf70b1c319c4e4c5244b"
  },
  {
    "code": "PianoStudio_19",
    "kind": "chord",
    "family": "PianoStudio",
    "modelType": "chord_model_379",
    "subtype": "proller",
    "bpm": 120,
    "beat": "4/4",
    "bnum": 86,
    "noteCount": 6,
    "midi": "pattern_midis/PianoStudio_19.mid",
    "notes": [
      {
        "beat": 0,
        "duration": 3,
        "pitch": 48,
        "velocity": 50
      },
      {
        "beat": 0.5,
        "duration": 2,
        "pitch": 60,
        "velocity": 25
      },
      {
        "beat": 1,
        "duration": 1,
        "pitch": 64,
        "velocity": 30
      },
      {
        "beat": 1.5,
        "duration": 1.5,
        "pitch": 67,
        "velocity": 40
      },
      {
        "beat": 2,
        "duration": 1,
        "pitch": 64,
        "velocity": 20
      },
      {
        "beat": 2.5,
        "duration": 0.5,
        "pitch": 60,
        "velocity": 20
      }
    ],
    "crc32": 242547574,
    "midiSize": 105,
    "midiSha1": "874fdd4f9e20174fcd519d08d3af552050857204"
  },
  {
    "code": "PianoStudio_2",
    "kind": "chord",
    "family": "PianoStudio",
    "modelType": "chord_model_379",
    "subtype": "proller",
    "bpm": 70,
    "beat": "4/4",
    "bnum": 44,
    "noteCount": 8,
    "midi": "pattern_midis/PianoStudio_2.mid",
    "notes": [
      {
        "beat": 0,
        "duration": 4,
        "pitch": 48,
        "velocity": 36
      },
      {
        "beat": 0.5,
        "duration": 3,
        "pitch": 55,
        "velocity": 26
      },
      {
        "beat": 1,
        "duration": 2,
        "pitch": 60,
        "velocity": 39
      },
      {
        "beat": 1.5,
        "duration": 1,
        "pitch": 64,
        "velocity": 35
      },
      {
        "beat": 2,
        "duration": 2,
        "pitch": 67,
        "velocity": 53
      },
      {
        "beat": 2.5,
        "duration": 1.5,
        "pitch": 64,
        "velocity": 30
      },
      {
        "beat": 3,
        "duration": 1,
        "pitch": 60,
        "velocity": 39
      },
      {
        "beat": 3.5,
        "duration": 0.49791666865348816,
        "pitch": 55,
        "velocity": 21
      }
    ],
    "crc32": 2083994269,
    "midiSize": 120,
    "midiSha1": "2a82d7c610c9163c3b01a4c08dd438a48e3c95d4"
  },
  {
    "code": "PianoStudio_20",
    "kind": "chord",
    "family": "PianoStudio",
    "modelType": "chord_model_379",
    "subtype": "proller",
    "bpm": 72,
    "beat": "4/4",
    "bnum": 44,
    "noteCount": 18,
    "midi": "pattern_midis/PianoStudio_20.mid",
    "notes": [
      {
        "beat": 0,
        "duration": 1.5,
        "pitch": 48,
        "velocity": 45
      },
      {
        "beat": 0,
        "duration": 1,
        "pitch": 60,
        "velocity": 33
      },
      {
        "beat": 0,
        "duration": 1,
        "pitch": 64,
        "velocity": 30
      },
      {
        "beat": 0,
        "duration": 1,
        "pitch": 67,
        "velocity": 36
      },
      {
        "beat": 1,
        "duration": 1,
        "pitch": 60,
        "velocity": 30
      },
      {
        "beat": 1,
        "duration": 1,
        "pitch": 64,
        "velocity": 40
      },
      {
        "beat": 1,
        "duration": 1,
        "pitch": 67,
        "velocity": 33
      },
      {
        "beat": 1.5,
        "duration": 0.5,
        "pitch": 48,
        "velocity": 20
      },
      {
        "beat": 1.75,
        "duration": 0.25,
        "pitch": 55,
        "velocity": 30
      },
      {
        "beat": 2,
        "duration": 1.5,
        "pitch": 48,
        "velocity": 35
      },
      {
        "beat": 2,
        "duration": 1,
        "pitch": 60,
        "velocity": 33
      },
      {
        "beat": 2,
        "duration": 1,
        "pitch": 64,
        "velocity": 30
      },
      {
        "beat": 2,
        "duration": 1,
        "pitch": 67,
        "velocity": 36
      },
      {
        "beat": 3,
        "duration": 1,
        "pitch": 60,
        "velocity": 30
      },
      {
        "beat": 3,
        "duration": 1,
        "pitch": 64,
        "velocity": 40
      },
      {
        "beat": 3,
        "duration": 1,
        "pitch": 67,
        "velocity": 33
      },
      {
        "beat": 3.5,
        "duration": 0.5,
        "pitch": 48,
        "velocity": 20
      },
      {
        "beat": 3.75,
        "duration": 0.25,
        "pitch": 55,
        "velocity": 30
      }
    ],
    "crc32": 3865387984,
    "midiSize": 183,
    "midiSha1": "404a71f3a78217dbe0efdf0b71e73ca09347ce83"
  },
  {
    "code": "PianoStudio_21",
    "kind": "chord",
    "family": "PianoStudio",
    "modelType": "chord_model_379",
    "subtype": "proller",
    "bpm": 66,
    "beat": "4/4",
    "bnum": 44,
    "noteCount": 17,
    "midi": "pattern_midis/PianoStudio_21.mid",
    "notes": [
      {
        "beat": 0,
        "duration": 3.991666555404663,
        "pitch": 48,
        "velocity": 27
      },
      {
        "beat": 0,
        "duration": 0.9916666746139526,
        "pitch": 64,
        "velocity": 28
      },
      {
        "beat": 0.25,
        "duration": 0.49166667461395264,
        "pitch": 60,
        "velocity": 30
      },
      {
        "beat": 0.5,
        "duration": 0.9916666746139526,
        "pitch": 55,
        "velocity": 26
      },
      {
        "beat": 0.75,
        "duration": 0.49166667461395264,
        "pitch": 60,
        "velocity": 29
      },
      {
        "beat": 1,
        "duration": 0.9916666746139526,
        "pitch": 64,
        "velocity": 33
      },
      {
        "beat": 1.25,
        "duration": 0.49166667461395264,
        "pitch": 60,
        "velocity": 29
      },
      {
        "beat": 1.5,
        "duration": 0.9916666746139526,
        "pitch": 55,
        "velocity": 25
      },
      {
        "beat": 1.75,
        "duration": 0.49166667461395264,
        "pitch": 60,
        "velocity": 29
      },
      {
        "beat": 2,
        "duration": 0.9916666746139526,
        "pitch": 64,
        "velocity": 34
      },
      {
        "beat": 2.25,
        "duration": 0.49166667461395264,
        "pitch": 60,
        "velocity": 29
      },
      {
        "beat": 2.5,
        "duration": 0.9916666746139526,
        "pitch": 55,
        "velocity": 25
      },
      {
        "beat": 2.75,
        "duration": 0.49166667461395264,
        "pitch": 60,
        "velocity": 27
      },
      {
        "beat": 3,
        "duration": 0.9916666746139526,
        "pitch": 64,
        "velocity": 34
      },
      {
        "beat": 3.25,
        "duration": 0.49166667461395264,
        "pitch": 60,
        "velocity": 27
      },
      {
        "beat": 3.5,
        "duration": 0.49166667461395264,
        "pitch": 55,
        "velocity": 27
      },
      {
        "beat": 3.75,
        "duration": 0.24166665971279144,
        "pitch": 60,
        "velocity": 27
      }
    ],
    "crc32": 2616054055,
    "midiSize": 189,
    "midiSha1": "bf360c64f2c48793ba3d46b92fc2389e7d2262d7"
  },
  {
    "code": "PianoStudio_22",
    "kind": "chord",
    "family": "PianoStudio",
    "modelType": "chord_model_379",
    "subtype": "proller",
    "bpm": 54,
    "beat": "4/4",
    "bnum": 44,
    "noteCount": 16,
    "midi": "pattern_midis/PianoStudio_22.mid",
    "notes": [
      {
        "beat": 0,
        "duration": 2,
        "pitch": 48,
        "velocity": 28
      },
      {
        "beat": 0.25,
        "duration": 1.75,
        "pitch": 55,
        "velocity": 23
      },
      {
        "beat": 0.5,
        "duration": 0.7458333373069763,
        "pitch": 60,
        "velocity": 28
      },
      {
        "beat": 0.75,
        "duration": 0.7458333373069763,
        "pitch": 64,
        "velocity": 26
      },
      {
        "beat": 1,
        "duration": 0.7458333373069763,
        "pitch": 67,
        "velocity": 30
      },
      {
        "beat": 1.25,
        "duration": 0.75,
        "pitch": 60,
        "velocity": 26
      },
      {
        "beat": 1.5,
        "duration": 0.5,
        "pitch": 64,
        "velocity": 26
      },
      {
        "beat": 1.75,
        "duration": 0.25,
        "pitch": 67,
        "velocity": 21
      },
      {
        "beat": 2,
        "duration": 2,
        "pitch": 48,
        "velocity": 28
      },
      {
        "beat": 2.25,
        "duration": 1.75,
        "pitch": 55,
        "velocity": 23
      },
      {
        "beat": 2.5,
        "duration": 0.7458333373069763,
        "pitch": 60,
        "velocity": 28
      },
      {
        "beat": 2.75,
        "duration": 0.7458333373069763,
        "pitch": 64,
        "velocity": 26
      },
      {
        "beat": 3,
        "duration": 0.7458333373069763,
        "pitch": 67,
        "velocity": 30
      },
      {
        "beat": 3.25,
        "duration": 0.75,
        "pitch": 60,
        "velocity": 26
      },
      {
        "beat": 3.5,
        "duration": 0.5,
        "pitch": 64,
        "velocity": 26
      },
      {
        "beat": 3.75,
        "duration": 0.25,
        "pitch": 67,
        "velocity": 21
      }
    ],
    "crc32": 2915568081,
    "midiSize": 171,
    "midiSha1": "f4cd8100646f1c42aad835af3b0740b13fb1e41b"
  },
  {
    "code": "PianoStudio_23",
    "kind": "chord",
    "family": "PianoStudio",
    "modelType": "chord_model_379",
    "subtype": "proller",
    "bpm": 78,
    "beat": "4/4",
    "bnum": 44,
    "noteCount": 4,
    "midi": "pattern_midis/PianoStudio_23.mid",
    "notes": [
      {
        "beat": 0,
        "duration": 4.03333330154419,
        "pitch": 48,
        "velocity": 30
      },
      {
        "beat": 0.5,
        "duration": 3.53333330154419,
        "pitch": 64,
        "velocity": 30
      },
      {
        "beat": 1,
        "duration": 3.03333330154419,
        "pitch": 72,
        "velocity": 30
      },
      {
        "beat": 1.5,
        "duration": 2.53333330154419,
        "pitch": 67,
        "velocity": 27
      }
    ],
    "crc32": 4274254589,
    "midiSize": 89,
    "midiSha1": "d3403bbbee090cdf2379b9de769051355ffa4ab4"
  },
  {
    "code": "PianoStudio_24",
    "kind": "chord",
    "family": "PianoStudio",
    "modelType": "chord_model_379",
    "subtype": "proller",
    "bpm": 87,
    "beat": "4/4",
    "bnum": 44,
    "noteCount": 22,
    "midi": "pattern_midis/PianoStudio_24.mid",
    "notes": [
      {
        "beat": 0,
        "duration": 0.6666666865348816,
        "pitch": 48,
        "velocity": 50
      },
      {
        "beat": 0.6666666865348816,
        "duration": 0.1041666641831398,
        "pitch": 48,
        "velocity": 15
      },
      {
        "beat": 0.6666666865348816,
        "duration": 0.1041666641831398,
        "pitch": 60,
        "velocity": 20
      },
      {
        "beat": 0.6666666865348816,
        "duration": 0.1041666641831398,
        "pitch": 64,
        "velocity": 10
      },
      {
        "beat": 1,
        "duration": 0.662500023841858,
        "pitch": 55,
        "velocity": 36
      },
      {
        "beat": 1,
        "duration": 0.662500023841858,
        "pitch": 60,
        "velocity": 35
      },
      {
        "beat": 1,
        "duration": 0.662500023841858,
        "pitch": 64,
        "velocity": 33
      },
      {
        "beat": 1,
        "duration": 0.662500023841858,
        "pitch": 67,
        "velocity": 38
      },
      {
        "beat": 1.6666666269302368,
        "duration": 0.1041666641831398,
        "pitch": 55,
        "velocity": 25
      },
      {
        "beat": 1.6666666269302368,
        "duration": 0.1041666641831398,
        "pitch": 60,
        "velocity": 25
      },
      {
        "beat": 1.6666666269302368,
        "duration": 0.1041666641831398,
        "pitch": 64,
        "velocity": 20
      },
      {
        "beat": 2,
        "duration": 0.662500023841858,
        "pitch": 48,
        "velocity": 50
      },
      {
        "beat": 2.6666667461395264,
        "duration": 0.1041666641831398,
        "pitch": 48,
        "velocity": 30
      },
      {
        "beat": 2.6666667461395264,
        "duration": 0.1041666641831398,
        "pitch": 60,
        "velocity": 30
      },
      {
        "beat": 2.6666667461395264,
        "duration": 0.1041666641831398,
        "pitch": 64,
        "velocity": 26
      },
      {
        "beat": 3,
        "duration": 0.6666666865348816,
        "pitch": 55,
        "velocity": 35
      },
      {
        "beat": 3,
        "duration": 0.6666666865348816,
        "pitch": 60,
        "velocity": 38
      },
      {
        "beat": 3,
        "duration": 0.6666666865348816,
        "pitch": 64,
        "velocity": 30
      },
      {
        "beat": 3,
        "duration": 0.6666666865348816,
        "pitch": 67,
        "velocity": 31
      },
      {
        "beat": 3.6666667461395264,
        "duration": 0.1041666641831398,
        "pitch": 55,
        "velocity": 20
      },
      {
        "beat": 3.6666667461395264,
        "duration": 0.1041666641831398,
        "pitch": 60,
        "velocity": 20
      },
      {
        "beat": 3.6666667461395264,
        "duration": 0.1041666641831398,
        "pitch": 64,
        "velocity": 15
      }
    ],
    "crc32": 2982332661,
    "midiSize": 207,
    "midiSha1": "025c2a373b234c3fe4d6c465c34858b83518072d"
  },
  {
    "code": "PianoStudio_25",
    "kind": "chord",
    "family": "PianoStudio",
    "modelType": "chord_model_379",
    "subtype": "proller",
    "bpm": 68,
    "beat": "4/4",
    "bnum": 44,
    "noteCount": 13,
    "midi": "pattern_midis/PianoStudio_25.mid",
    "notes": [
      {
        "beat": 0,
        "duration": 4,
        "pitch": 48,
        "velocity": 30
      },
      {
        "beat": 0,
        "duration": 0.9916666746139526,
        "pitch": 55,
        "velocity": 30
      },
      {
        "beat": 0.3333333432674408,
        "duration": 0.9916666746139526,
        "pitch": 60,
        "velocity": 27
      },
      {
        "beat": 0.6666666865348816,
        "duration": 0.9916666746139526,
        "pitch": 64,
        "velocity": 27
      },
      {
        "beat": 1,
        "duration": 0.9916666746139526,
        "pitch": 55,
        "velocity": 30
      },
      {
        "beat": 1.3333333730697632,
        "duration": 0.9916666746139526,
        "pitch": 60,
        "velocity": 27
      },
      {
        "beat": 1.6666666269302368,
        "duration": 0.9916666746139526,
        "pitch": 64,
        "velocity": 27
      },
      {
        "beat": 2,
        "duration": 0.9916666746139526,
        "pitch": 55,
        "velocity": 30
      },
      {
        "beat": 2.3333332538604736,
        "duration": 0.9916666746139526,
        "pitch": 60,
        "velocity": 27
      },
      {
        "beat": 2.6666667461395264,
        "duration": 0.9916666746139526,
        "pitch": 64,
        "velocity": 27
      },
      {
        "beat": 3,
        "duration": 1,
        "pitch": 55,
        "velocity": 30
      },
      {
        "beat": 3.3333332538604736,
        "duration": 0.6666666865348816,
        "pitch": 60,
        "velocity": 27
      },
      {
        "beat": 3.6666667461395264,
        "duration": 0.3333333432674408,
        "pitch": 64,
        "velocity": 27
      }
    ],
    "crc32": 646915976,
    "midiSize": 169,
    "midiSha1": "56aa3d310568a34427bf50618d1b17676b4f54b8"
  },
  {
    "code": "PianoStudio_26",
    "kind": "chord",
    "family": "PianoStudio",
    "modelType": "chord_model_379",
    "subtype": "proller",
    "bpm": 127,
    "beat": "4/4",
    "bnum": 44,
    "noteCount": 4,
    "midi": "pattern_midis/PianoStudio_26.mid",
    "notes": [
      {
        "beat": 0,
        "duration": 4,
        "pitch": 48,
        "velocity": 50
      },
      {
        "beat": 0,
        "duration": 4,
        "pitch": 60,
        "velocity": 38
      },
      {
        "beat": 0,
        "duration": 4,
        "pitch": 64,
        "velocity": 35
      },
      {
        "beat": 0,
        "duration": 4,
        "pitch": 67,
        "velocity": 37
      }
    ],
    "crc32": 1785515708,
    "midiSize": 86,
    "midiSha1": "fa728194459552f51c8b575b2581288d4eaa3fee"
  },
  {
    "code": "PianoStudio_27",
    "kind": "chord",
    "family": "PianoStudio",
    "modelType": "chord_model_379",
    "subtype": "proller",
    "bpm": 75,
    "beat": "4/4",
    "bnum": 44,
    "noteCount": 13,
    "midi": "pattern_midis/PianoStudio_27.mid",
    "notes": [
      {
        "beat": 0,
        "duration": 4.043749809265137,
        "pitch": 48,
        "velocity": 23
      },
      {
        "beat": 0,
        "duration": 0.9604166746139526,
        "pitch": 60,
        "velocity": 19
      },
      {
        "beat": 0.25,
        "duration": 1,
        "pitch": 67,
        "velocity": 21
      },
      {
        "beat": 0.5,
        "duration": 1,
        "pitch": 72,
        "velocity": 25
      },
      {
        "beat": 1,
        "duration": 0.9604166746139526,
        "pitch": 60,
        "velocity": 7
      },
      {
        "beat": 1.25,
        "duration": 1,
        "pitch": 67,
        "velocity": 17
      },
      {
        "beat": 1.5,
        "duration": 1,
        "pitch": 72,
        "velocity": 23
      },
      {
        "beat": 2,
        "duration": 0.9604166746139526,
        "pitch": 60,
        "velocity": 28
      },
      {
        "beat": 2.25,
        "duration": 1,
        "pitch": 67,
        "velocity": 7
      },
      {
        "beat": 2.5,
        "duration": 1,
        "pitch": 72,
        "velocity": 25
      },
      {
        "beat": 3,
        "duration": 0.9604166746139526,
        "pitch": 60,
        "velocity": 20
      },
      {
        "beat": 3.25,
        "duration": 0.75,
        "pitch": 67,
        "velocity": 5
      },
      {
        "beat": 3.5,
        "duration": 0.5,
        "pitch": 72,
        "velocity": 29
      }
    ],
    "crc32": 2088208465,
    "midiSize": 155,
    "midiSha1": "d242fe07d2bfc781eb4de22cb7e44712ab2987ed"
  },
  {
    "code": "PianoStudio_28",
    "kind": "chord",
    "family": "PianoStudio",
    "modelType": "chord_model_379",
    "subtype": "proller",
    "bpm": 100,
    "beat": "4/4",
    "bnum": 44,
    "noteCount": 20,
    "midi": "pattern_midis/PianoStudio_28.mid",
    "notes": [
      {
        "beat": 0,
        "duration": 0.5,
        "pitch": 48,
        "velocity": 27
      },
      {
        "beat": 0.9583333134651184,
        "duration": 0.4833333194255829,
        "pitch": 55,
        "velocity": 19
      },
      {
        "beat": 0.975000023841858,
        "duration": 0.4833333194255829,
        "pitch": 60,
        "velocity": 35
      },
      {
        "beat": 1,
        "duration": 0.4833333194255829,
        "pitch": 64,
        "velocity": 48
      },
      {
        "beat": 1.5,
        "duration": 0.05833333358168602,
        "pitch": 55,
        "velocity": 36
      },
      {
        "beat": 1.75,
        "duration": 0.12916666269302368,
        "pitch": 55,
        "velocity": 28
      },
      {
        "beat": 1.75,
        "duration": 0.12916666269302368,
        "pitch": 60,
        "velocity": 34
      },
      {
        "beat": 1.75,
        "duration": 0.12916666269302368,
        "pitch": 64,
        "velocity": 38
      },
      {
        "beat": 2.25,
        "duration": 0.125,
        "pitch": 55,
        "velocity": 37
      },
      {
        "beat": 2.25,
        "duration": 0.125,
        "pitch": 60,
        "velocity": 36
      },
      {
        "beat": 2.25,
        "duration": 0.125,
        "pitch": 64,
        "velocity": 48
      },
      {
        "beat": 2.75,
        "duration": 0.09583333134651184,
        "pitch": 55,
        "velocity": 32
      },
      {
        "beat": 2.96666669845581,
        "duration": 0.3166666626930237,
        "pitch": 55,
        "velocity": 38
      },
      {
        "beat": 2.9749999046325684,
        "duration": 0.4583333432674408,
        "pitch": 60,
        "velocity": 38
      },
      {
        "beat": 3,
        "duration": 0.4583333432674408,
        "pitch": 64,
        "velocity": 40
      },
      {
        "beat": 3.3333332538604736,
        "duration": 0.11249999701976776,
        "pitch": 55,
        "velocity": 24
      },
      {
        "beat": 3.46666669845581,
        "duration": 0.3125,
        "pitch": 55,
        "velocity": 25
      },
      {
        "beat": 3.4749999046325684,
        "duration": 0.524999976158142,
        "pitch": 60,
        "velocity": 42
      },
      {
        "beat": 3.5,
        "duration": 0.5,
        "pitch": 64,
        "velocity": 44
      },
      {
        "beat": 3.8333332538604736,
        "duration": 0.08541666716337204,
        "pitch": 55,
        "velocity": 37
      }
    ],
    "crc32": 87643639,
    "midiSize": 206,
    "midiSha1": "5d3c35112256f34a18b8cd5f5aa0446ec566ee22"
  },
  {
    "code": "PianoStudio_29",
    "kind": "chord",
    "family": "PianoStudio",
    "modelType": "chord_model_379",
    "subtype": "proller",
    "bpm": 80,
    "beat": "4/4",
    "bnum": 44,
    "noteCount": 13,
    "midi": "pattern_midis/PianoStudio_29.mid",
    "notes": [
      {
        "beat": 0,
        "duration": 0.5,
        "pitch": 48,
        "velocity": 32
      },
      {
        "beat": 0.5,
        "duration": 0.1666666716337204,
        "pitch": 60,
        "velocity": 35
      },
      {
        "beat": 0.5,
        "duration": 0.1666666716337204,
        "pitch": 64,
        "velocity": 45
      },
      {
        "beat": 0.5,
        "duration": 0.1666666716337204,
        "pitch": 67,
        "velocity": 32
      },
      {
        "beat": 1.5,
        "duration": 0.1666666716337204,
        "pitch": 60,
        "velocity": 32
      },
      {
        "beat": 1.5,
        "duration": 0.1666666716337204,
        "pitch": 64,
        "velocity": 43
      },
      {
        "beat": 1.5,
        "duration": 0.1666666716337204,
        "pitch": 67,
        "velocity": 31
      },
      {
        "beat": 2.5,
        "duration": 0.1666666716337204,
        "pitch": 60,
        "velocity": 35
      },
      {
        "beat": 2.5,
        "duration": 0.1666666716337204,
        "pitch": 64,
        "velocity": 42
      },
      {
        "beat": 2.5,
        "duration": 0.1666666716337204,
        "pitch": 67,
        "velocity": 35
      },
      {
        "beat": 3.5,
        "duration": 0.1666666716337204,
        "pitch": 60,
        "velocity": 36
      },
      {
        "beat": 3.5,
        "duration": 0.1666666716337204,
        "pitch": 64,
        "velocity": 42
      },
      {
        "beat": 3.5,
        "duration": 0.1666666716337204,
        "pitch": 67,
        "velocity": 35
      }
    ],
    "crc32": 1298501543,
    "midiSize": 149,
    "midiSha1": "e08b3b5a1c489d2d669ced3aca6cdf39559fb919"
  },
  {
    "code": "PianoStudio_3",
    "kind": "chord",
    "family": "PianoStudio",
    "modelType": "chord_model_379",
    "subtype": "proller",
    "bpm": 70,
    "beat": "4/4",
    "bnum": 44,
    "noteCount": 11,
    "midi": "pattern_midis/PianoStudio_3.mid",
    "notes": [
      {
        "beat": 0,
        "duration": 4,
        "pitch": 48,
        "velocity": 38
      },
      {
        "beat": 0.02291666716337204,
        "duration": 0.9770833253860474,
        "pitch": 60,
        "velocity": 35
      },
      {
        "beat": 0.0520833320915699,
        "duration": 0.9479166865348816,
        "pitch": 64,
        "velocity": 33
      },
      {
        "beat": 0.08958332985639572,
        "duration": 2.910416603088379,
        "pitch": 67,
        "velocity": 30
      },
      {
        "beat": 1,
        "duration": 1,
        "pitch": 60,
        "velocity": 24
      },
      {
        "beat": 1,
        "duration": 1,
        "pitch": 64,
        "velocity": 17
      },
      {
        "beat": 2,
        "duration": 1,
        "pitch": 60,
        "velocity": 20
      },
      {
        "beat": 2,
        "duration": 1,
        "pitch": 64,
        "velocity": 28
      },
      {
        "beat": 3,
        "duration": 1,
        "pitch": 60,
        "velocity": 23
      },
      {
        "beat": 3,
        "duration": 1,
        "pitch": 64,
        "velocity": 15
      },
      {
        "beat": 3,
        "duration": 1,
        "pitch": 67,
        "velocity": 23
      }
    ],
    "crc32": 2895121086,
    "midiSize": 134,
    "midiSha1": "8e724fc2bc185e5fd3e90822b795d419ca2788ab"
  },
  {
    "code": "PianoStudio_30",
    "kind": "chord",
    "family": "PianoStudio",
    "modelType": "chord_model_379",
    "subtype": "proller",
    "bpm": 80,
    "beat": "4/4",
    "bnum": 44,
    "noteCount": 5,
    "midi": "pattern_midis/PianoStudio_30.mid",
    "notes": [
      {
        "beat": 0,
        "duration": 4.041666507720947,
        "pitch": 48,
        "velocity": 33
      },
      {
        "beat": 0.5,
        "duration": 3.5416667461395264,
        "pitch": 55,
        "velocity": 38
      },
      {
        "beat": 1,
        "duration": 3.0416667461395264,
        "pitch": 60,
        "velocity": 39
      },
      {
        "beat": 1.5,
        "duration": 2.5416667461395264,
        "pitch": 64,
        "velocity": 37
      },
      {
        "beat": 2,
        "duration": 2.0416667461395264,
        "pitch": 67,
        "velocity": 39
      }
    ],
    "crc32": 3494946282,
    "midiSize": 96,
    "midiSha1": "941471b1ee4f455409dded5e929d87de681e51f0"
  },
  {
    "code": "PianoStudio_31",
    "kind": "chord",
    "family": "PianoStudio",
    "modelType": "chord_model_379",
    "subtype": "proller",
    "bpm": 96,
    "beat": "4/4",
    "bnum": 44,
    "noteCount": 13,
    "midi": "pattern_midis/PianoStudio_31.mid",
    "notes": [
      {
        "beat": 0,
        "duration": 4,
        "pitch": 48,
        "velocity": 29
      },
      {
        "beat": 0,
        "duration": 0.75,
        "pitch": 60,
        "velocity": 30
      },
      {
        "beat": 0,
        "duration": 0.75,
        "pitch": 64,
        "velocity": 32
      },
      {
        "beat": 0.75,
        "duration": 0.25,
        "pitch": 55,
        "velocity": 23
      },
      {
        "beat": 1,
        "duration": 0.75,
        "pitch": 60,
        "velocity": 30
      },
      {
        "beat": 1,
        "duration": 0.75,
        "pitch": 64,
        "velocity": 32
      },
      {
        "beat": 1.75,
        "duration": 0.25,
        "pitch": 55,
        "velocity": 23
      },
      {
        "beat": 2,
        "duration": 0.75,
        "pitch": 60,
        "velocity": 30
      },
      {
        "beat": 2,
        "duration": 0.75,
        "pitch": 64,
        "velocity": 32
      },
      {
        "beat": 2.75,
        "duration": 0.25,
        "pitch": 55,
        "velocity": 23
      },
      {
        "beat": 3,
        "duration": 0.75,
        "pitch": 60,
        "velocity": 30
      },
      {
        "beat": 3,
        "duration": 0.75,
        "pitch": 64,
        "velocity": 32
      },
      {
        "beat": 3.75,
        "duration": 0.25,
        "pitch": 55,
        "velocity": 23
      }
    ],
    "crc32": 1233304781,
    "midiSize": 155,
    "midiSha1": "86a539c81262a4baf35cec9a24bcc88a66558fa2"
  },
  {
    "code": "PianoStudio_33",
    "kind": "chord",
    "family": "PianoStudio",
    "modelType": "chord_model_379",
    "subtype": "proller",
    "bpm": 92,
    "beat": "4/4",
    "bnum": 44,
    "noteCount": 18,
    "midi": "pattern_midis/PianoStudio_33.mid",
    "notes": [
      {
        "beat": 0,
        "duration": 3,
        "pitch": 48,
        "velocity": 35
      },
      {
        "beat": 0,
        "duration": 1.5,
        "pitch": 72,
        "velocity": 41
      },
      {
        "beat": 0.25,
        "duration": 0.5,
        "pitch": 64,
        "velocity": 23
      },
      {
        "beat": 0.5,
        "duration": 0.5,
        "pitch": 60,
        "velocity": 31
      },
      {
        "beat": 0.75,
        "duration": 0.5,
        "pitch": 64,
        "velocity": 22
      },
      {
        "beat": 1,
        "duration": 1,
        "pitch": 60,
        "velocity": 30
      },
      {
        "beat": 1.25,
        "duration": 0.5,
        "pitch": 64,
        "velocity": 23
      },
      {
        "beat": 1.5,
        "duration": 1.5,
        "pitch": 72,
        "velocity": 40
      },
      {
        "beat": 1.75,
        "duration": 0.5,
        "pitch": 64,
        "velocity": 20
      },
      {
        "beat": 2,
        "duration": 0.5,
        "pitch": 60,
        "velocity": 31
      },
      {
        "beat": 2.25,
        "duration": 0.5,
        "pitch": 64,
        "velocity": 20
      },
      {
        "beat": 2.5,
        "duration": 1,
        "pitch": 60,
        "velocity": 31
      },
      {
        "beat": 2.75,
        "duration": 0.5,
        "pitch": 64,
        "velocity": 24
      },
      {
        "beat": 3,
        "duration": 1,
        "pitch": 48,
        "velocity": 35
      },
      {
        "beat": 3,
        "duration": 1,
        "pitch": 72,
        "velocity": 41
      },
      {
        "beat": 3.25,
        "duration": 0.5,
        "pitch": 64,
        "velocity": 20
      },
      {
        "beat": 3.5,
        "duration": 0.5,
        "pitch": 60,
        "velocity": 31
      },
      {
        "beat": 3.75,
        "duration": 0.25,
        "pitch": 64,
        "velocity": 24
      }
    ],
    "crc32": 1940261070,
    "midiSize": 193,
    "midiSha1": "68150490f6b2905a921cf4584d6d32c44b92034e"
  },
  {
    "code": "PianoStudio_4",
    "kind": "chord",
    "family": "PianoStudio",
    "modelType": "chord_model_379",
    "subtype": "proller",
    "bpm": 70,
    "beat": "4/4",
    "bnum": 44,
    "noteCount": 17,
    "midi": "pattern_midis/PianoStudio_4.mid",
    "notes": [
      {
        "beat": 0,
        "duration": 4,
        "pitch": 48,
        "velocity": 36
      },
      {
        "beat": 0,
        "duration": 1,
        "pitch": 60,
        "velocity": 24
      },
      {
        "beat": 0,
        "duration": 1,
        "pitch": 64,
        "velocity": 40
      },
      {
        "beat": 0,
        "duration": 1,
        "pitch": 67,
        "velocity": 26
      },
      {
        "beat": 0.5,
        "duration": 1,
        "pitch": 55,
        "velocity": 17
      },
      {
        "beat": 1,
        "duration": 1,
        "pitch": 60,
        "velocity": 15
      },
      {
        "beat": 1,
        "duration": 1,
        "pitch": 64,
        "velocity": 33
      },
      {
        "beat": 1,
        "duration": 1,
        "pitch": 67,
        "velocity": 19
      },
      {
        "beat": 1.5,
        "duration": 1,
        "pitch": 55,
        "velocity": 27
      },
      {
        "beat": 2,
        "duration": 1,
        "pitch": 60,
        "velocity": 25
      },
      {
        "beat": 2,
        "duration": 1,
        "pitch": 64,
        "velocity": 39
      },
      {
        "beat": 2,
        "duration": 1,
        "pitch": 67,
        "velocity": 48
      },
      {
        "beat": 2.5,
        "duration": 1,
        "pitch": 55,
        "velocity": 25
      },
      {
        "beat": 3,
        "duration": 1,
        "pitch": 60,
        "velocity": 26
      },
      {
        "beat": 3,
        "duration": 1,
        "pitch": 64,
        "velocity": 18
      },
      {
        "beat": 3,
        "duration": 1,
        "pitch": 67,
        "velocity": 27
      },
      {
        "beat": 3.5,
        "duration": 0.5,
        "pitch": 55,
        "velocity": 15
      }
    ],
    "crc32": 2101586987,
    "midiSize": 180,
    "midiSha1": "fb176cd76d68e8cb1981a341dc789ebc72b16d0b"
  },
  {
    "code": "PianoStudio_41",
    "kind": "chord",
    "family": "PianoStudio",
    "modelType": "chord_model_379",
    "subtype": "proller",
    "bpm": 100,
    "beat": "4/4",
    "bnum": 44,
    "noteCount": 23,
    "midi": "pattern_midis/PianoStudio_41.mid",
    "notes": [
      {
        "beat": 0,
        "duration": 2.7354166507720947,
        "pitch": 48,
        "velocity": 37
      },
      {
        "beat": 0,
        "duration": 0.981249988079071,
        "pitch": 60,
        "velocity": 44
      },
      {
        "beat": 0,
        "duration": 0.981249988079071,
        "pitch": 64,
        "velocity": 38
      },
      {
        "beat": 0,
        "duration": 0.981249988079071,
        "pitch": 67,
        "velocity": 43
      },
      {
        "beat": 1,
        "duration": 0.7333333492279053,
        "pitch": 60,
        "velocity": 32
      },
      {
        "beat": 1,
        "duration": 0.731249988079071,
        "pitch": 64,
        "velocity": 36
      },
      {
        "beat": 1,
        "duration": 0.731249988079071,
        "pitch": 67,
        "velocity": 41
      },
      {
        "beat": 1.5,
        "duration": 1.7354166507720947,
        "pitch": 55,
        "velocity": 23
      },
      {
        "beat": 1.75,
        "duration": 0.4833333194255829,
        "pitch": 60,
        "velocity": 35
      },
      {
        "beat": 1.75,
        "duration": 0.47708332538604736,
        "pitch": 64,
        "velocity": 29
      },
      {
        "beat": 1.75,
        "duration": 0.4833333194255829,
        "pitch": 67,
        "velocity": 34
      },
      {
        "beat": 2.25,
        "duration": 0.7333333492279053,
        "pitch": 60,
        "velocity": 26
      },
      {
        "beat": 2.25,
        "duration": 0.731249988079071,
        "pitch": 64,
        "velocity": 20
      },
      {
        "beat": 2.25,
        "duration": 0.731249988079071,
        "pitch": 67,
        "velocity": 25
      },
      {
        "beat": 2.75,
        "duration": 1.2354166507720947,
        "pitch": 48,
        "velocity": 24
      },
      {
        "beat": 3,
        "duration": 0.4854166805744171,
        "pitch": 60,
        "velocity": 42
      },
      {
        "beat": 3,
        "duration": 0.4833333194255829,
        "pitch": 64,
        "velocity": 36
      },
      {
        "beat": 3,
        "duration": 0.4833333194255829,
        "pitch": 67,
        "velocity": 41
      },
      {
        "beat": 3.25,
        "duration": 0.7354166507720947,
        "pitch": 55,
        "velocity": 28
      },
      {
        "beat": 3.5,
        "duration": 0.4854166805744171,
        "pitch": 60,
        "velocity": 22
      },
      {
        "beat": 3.5,
        "duration": 0.4833333194255829,
        "pitch": 64,
        "velocity": 11
      },
      {
        "beat": 3.5,
        "duration": 0.4833333194255829,
        "pitch": 67,
        "velocity": 21
      },
      {
        "beat": 3.5,
        "duration": 0.4854166805744171,
        "pitch": 72,
        "velocity": 22
      }
    ],
    "crc32": 1577250060,
    "midiSize": 218,
    "midiSha1": "e1186d16588eb6a6f5831d9f406de0806d224523"
  },
  {
    "code": "PianoStudio_42",
    "kind": "chord",
    "family": "PianoStudio",
    "modelType": "chord_model_379",
    "subtype": "proller",
    "bpm": 104,
    "beat": "4/4",
    "bnum": 44,
    "noteCount": 12,
    "midi": "pattern_midis/PianoStudio_42.mid",
    "notes": [
      {
        "beat": 0,
        "duration": 4,
        "pitch": 48,
        "velocity": 34
      },
      {
        "beat": 0,
        "duration": 2,
        "pitch": 55,
        "velocity": 43
      },
      {
        "beat": 0,
        "duration": 2,
        "pitch": 60,
        "velocity": 47
      },
      {
        "beat": 0,
        "duration": 2,
        "pitch": 64,
        "velocity": 47
      },
      {
        "beat": 0,
        "duration": 2,
        "pitch": 67,
        "velocity": 42
      },
      {
        "beat": 2,
        "duration": 0.75,
        "pitch": 55,
        "velocity": 33
      },
      {
        "beat": 2,
        "duration": 1.5,
        "pitch": 60,
        "velocity": 37
      },
      {
        "beat": 2,
        "duration": 1.5,
        "pitch": 64,
        "velocity": 37
      },
      {
        "beat": 2,
        "duration": 2,
        "pitch": 67,
        "velocity": 32
      },
      {
        "beat": 2.75,
        "duration": 1.25,
        "pitch": 55,
        "velocity": 29
      },
      {
        "beat": 3.5,
        "duration": 0.5,
        "pitch": 60,
        "velocity": 36
      },
      {
        "beat": 3.5,
        "duration": 0.5,
        "pitch": 64,
        "velocity": 36
      }
    ],
    "crc32": 3115959235,
    "midiSize": 141,
    "midiSha1": "dd35822b1995ec30434caeb28f29e2bd388ea076"
  },
  {
    "code": "PianoStudio_45",
    "kind": "chord",
    "family": "PianoStudio",
    "modelType": "chord_model_379",
    "subtype": "proller",
    "bpm": 124,
    "beat": "4/4",
    "bnum": 44,
    "noteCount": 8,
    "midi": "pattern_midis/PianoStudio_45.mid",
    "notes": [
      {
        "beat": 0,
        "duration": 4,
        "pitch": 48,
        "velocity": 40
      },
      {
        "beat": 0,
        "duration": 3.5,
        "pitch": 55,
        "velocity": 27
      },
      {
        "beat": 0.5,
        "duration": 2.5,
        "pitch": 60,
        "velocity": 34
      },
      {
        "beat": 1,
        "duration": 1.5,
        "pitch": 64,
        "velocity": 44
      },
      {
        "beat": 1.5,
        "duration": 2.5,
        "pitch": 67,
        "velocity": 46
      },
      {
        "beat": 2.5,
        "duration": 1.5,
        "pitch": 64,
        "velocity": 27
      },
      {
        "beat": 3,
        "duration": 1,
        "pitch": 60,
        "velocity": 31
      },
      {
        "beat": 3.5,
        "duration": 0.49791666865348816,
        "pitch": 55,
        "velocity": 23
      }
    ],
    "crc32": 2252557960,
    "midiSize": 120,
    "midiSha1": "c29e30d06c2eb5e33156b81334112f12ff22c528"
  },
  {
    "code": "PianoStudio_46",
    "kind": "chord",
    "family": "PianoStudio",
    "modelType": "chord_model_379",
    "subtype": "proller",
    "bpm": 128,
    "beat": "4/4",
    "bnum": 44,
    "noteCount": 10,
    "midi": "pattern_midis/PianoStudio_46.mid",
    "notes": [
      {
        "beat": 0,
        "duration": 1,
        "pitch": 48,
        "velocity": 51
      },
      {
        "beat": 1,
        "duration": 0.3958333432674408,
        "pitch": 60,
        "velocity": 51
      },
      {
        "beat": 1,
        "duration": 0.34166666865348816,
        "pitch": 64,
        "velocity": 48
      },
      {
        "beat": 1,
        "duration": 0.34166666865348816,
        "pitch": 67,
        "velocity": 51
      },
      {
        "beat": 1.5,
        "duration": 0.25,
        "pitch": 48,
        "velocity": 37
      },
      {
        "beat": 2,
        "duration": 1,
        "pitch": 48,
        "velocity": 51
      },
      {
        "beat": 3,
        "duration": 0.25,
        "pitch": 60,
        "velocity": 29
      },
      {
        "beat": 3,
        "duration": 0.19583334028720856,
        "pitch": 64,
        "velocity": 26
      },
      {
        "beat": 3,
        "duration": 0.19583334028720856,
        "pitch": 67,
        "velocity": 29
      },
      {
        "beat": 3.5,
        "duration": 0.25,
        "pitch": 48,
        "velocity": 22
      }
    ],
    "crc32": 2212743544,
    "midiSize": 130,
    "midiSha1": "c52c72e15665c53374819429a2c45ab106510289"
  },
  {
    "code": "PianoStudio_5",
    "kind": "chord",
    "family": "PianoStudio",
    "modelType": "chord_model_379",
    "subtype": "proller",
    "bpm": 120,
    "beat": "4/4",
    "bnum": 44,
    "noteCount": 7,
    "midi": "pattern_midis/PianoStudio_5.mid",
    "notes": [
      {
        "beat": 0,
        "duration": 4,
        "pitch": 48,
        "velocity": 50
      },
      {
        "beat": 0,
        "duration": 2,
        "pitch": 60,
        "velocity": 35
      },
      {
        "beat": 0,
        "duration": 3,
        "pitch": 64,
        "velocity": 30
      },
      {
        "beat": 0,
        "duration": 4,
        "pitch": 67,
        "velocity": 40
      },
      {
        "beat": 2,
        "duration": 1.5,
        "pitch": 60,
        "velocity": 23
      },
      {
        "beat": 3,
        "duration": 1,
        "pitch": 64,
        "velocity": 30
      },
      {
        "beat": 3.5,
        "duration": 0.5,
        "pitch": 60,
        "velocity": 15
      }
    ],
    "crc32": 3694160156,
    "midiSize": 110,
    "midiSha1": "a40e0116142510e3057b27baf62c9d977c853e7a"
  },
  {
    "code": "PianoStudio_50",
    "kind": "chord",
    "family": "PianoStudio",
    "modelType": "chord_model_379",
    "subtype": "proller",
    "bpm": 99,
    "beat": "4/4",
    "bnum": 44,
    "noteCount": 5,
    "midi": "pattern_midis/PianoStudio_50.mid",
    "notes": [
      {
        "beat": 0,
        "duration": 4,
        "pitch": 48,
        "velocity": 35
      },
      {
        "beat": 0,
        "duration": 4,
        "pitch": 55,
        "velocity": 30
      },
      {
        "beat": 0.5,
        "duration": 3.5,
        "pitch": 60,
        "velocity": 27
      },
      {
        "beat": 1,
        "duration": 3,
        "pitch": 64,
        "velocity": 39
      },
      {
        "beat": 1.5,
        "duration": 2.5,
        "pitch": 67,
        "velocity": 30
      }
    ],
    "crc32": 3423985783,
    "midiSize": 95,
    "midiSha1": "6a356f0e463a825f04371f9dabbc1be4ca2e16ee"
  },
  {
    "code": "PianoStudio_51",
    "kind": "chord",
    "family": "PianoStudio",
    "modelType": "chord_model_379",
    "subtype": "proller",
    "bpm": 90,
    "beat": "4/4",
    "bnum": 44,
    "noteCount": 13,
    "midi": "pattern_midis/PianoStudio_51.mid",
    "notes": [
      {
        "beat": 0,
        "duration": 4,
        "pitch": 48,
        "velocity": 34
      },
      {
        "beat": 0,
        "duration": 4,
        "pitch": 55,
        "velocity": 19
      },
      {
        "beat": 0,
        "duration": 4,
        "pitch": 60,
        "velocity": 30
      },
      {
        "beat": 0,
        "duration": 4,
        "pitch": 64,
        "velocity": 35
      },
      {
        "beat": 0,
        "duration": 0.5,
        "pitch": 67,
        "velocity": 29
      },
      {
        "beat": 0,
        "duration": 1,
        "pitch": 72,
        "velocity": 28
      },
      {
        "beat": 0.5,
        "duration": 1,
        "pitch": 67,
        "velocity": 36
      },
      {
        "beat": 1,
        "duration": 1,
        "pitch": 72,
        "velocity": 28
      },
      {
        "beat": 1.5,
        "duration": 1,
        "pitch": 67,
        "velocity": 23
      },
      {
        "beat": 2,
        "duration": 1,
        "pitch": 72,
        "velocity": 30
      },
      {
        "beat": 2.5,
        "duration": 1,
        "pitch": 67,
        "velocity": 32
      },
      {
        "beat": 3,
        "duration": 1,
        "pitch": 72,
        "velocity": 29
      },
      {
        "beat": 3.5,
        "duration": 0.5,
        "pitch": 67,
        "velocity": 23
      }
    ],
    "crc32": 1481443193,
    "midiSize": 159,
    "midiSha1": "c4f9888576daf92a9992d1155c221c694d5cc665"
  },
  {
    "code": "PianoStudio_52",
    "kind": "chord",
    "family": "PianoStudio",
    "modelType": "chord_model_379",
    "subtype": "proller",
    "bpm": 90,
    "beat": "4/4",
    "bnum": 44,
    "noteCount": 20,
    "midi": "pattern_midis/PianoStudio_52.mid",
    "notes": [
      {
        "beat": 0,
        "duration": 4,
        "pitch": 48,
        "velocity": 39
      },
      {
        "beat": 0,
        "duration": 0.5,
        "pitch": 55,
        "velocity": 28
      },
      {
        "beat": 0,
        "duration": 0.75,
        "pitch": 60,
        "velocity": 35
      },
      {
        "beat": 0,
        "duration": 0.75,
        "pitch": 64,
        "velocity": 40
      },
      {
        "beat": 0,
        "duration": 0.5,
        "pitch": 67,
        "velocity": 35
      },
      {
        "beat": 0.5,
        "duration": 1.5,
        "pitch": 55,
        "velocity": 28
      },
      {
        "beat": 0.5,
        "duration": 1,
        "pitch": 67,
        "velocity": 29
      },
      {
        "beat": 0.75,
        "duration": 0.75,
        "pitch": 60,
        "velocity": 35
      },
      {
        "beat": 0.75,
        "duration": 0.75,
        "pitch": 64,
        "velocity": 40
      },
      {
        "beat": 1.5,
        "duration": 0.75,
        "pitch": 60,
        "velocity": 35
      },
      {
        "beat": 1.5,
        "duration": 0.7395833134651184,
        "pitch": 64,
        "velocity": 34
      },
      {
        "beat": 1.5,
        "duration": 0.7395833134651184,
        "pitch": 67,
        "velocity": 37
      },
      {
        "beat": 2,
        "duration": 1.5,
        "pitch": 55,
        "velocity": 19
      },
      {
        "beat": 2.25,
        "duration": 0.75,
        "pitch": 60,
        "velocity": 35
      },
      {
        "beat": 2.25,
        "duration": 0.75,
        "pitch": 64,
        "velocity": 40
      },
      {
        "beat": 2.25,
        "duration": 0.75,
        "pitch": 67,
        "velocity": 25
      },
      {
        "beat": 3,
        "duration": 1,
        "pitch": 60,
        "velocity": 37
      },
      {
        "beat": 3,
        "duration": 1,
        "pitch": 64,
        "velocity": 37
      },
      {
        "beat": 3,
        "duration": 1,
        "pitch": 67,
        "velocity": 28
      },
      {
        "beat": 3.5,
        "duration": 0.5,
        "pitch": 55,
        "velocity": 28
      }
    ],
    "crc32": 3068620034,
    "midiSize": 199,
    "midiSha1": "591f119b1c55d8e581e5552e9420b5a9f209f891"
  },
  {
    "code": "PianoStudio_58",
    "kind": "chord",
    "family": "PianoStudio",
    "modelType": "chord_model_379",
    "subtype": "proller",
    "bpm": 95,
    "beat": "4/4",
    "bnum": 44,
    "noteCount": 27,
    "midi": "pattern_midis/PianoStudio_58.mid",
    "notes": [
      {
        "beat": 0,
        "duration": 4,
        "pitch": 48,
        "velocity": 32
      },
      {
        "beat": 0,
        "duration": 2.799999952316284,
        "pitch": 55,
        "velocity": 24
      },
      {
        "beat": 0,
        "duration": 0.25,
        "pitch": 60,
        "velocity": 36
      },
      {
        "beat": 0,
        "duration": 0.25,
        "pitch": 64,
        "velocity": 41
      },
      {
        "beat": 0,
        "duration": 0.25,
        "pitch": 67,
        "velocity": 36
      },
      {
        "beat": 0.5,
        "duration": 0.25,
        "pitch": 60,
        "velocity": 21
      },
      {
        "beat": 0.5,
        "duration": 0.25,
        "pitch": 64,
        "velocity": 26
      },
      {
        "beat": 0.5,
        "duration": 0.25,
        "pitch": 67,
        "velocity": 21
      },
      {
        "beat": 1,
        "duration": 0.25,
        "pitch": 60,
        "velocity": 26
      },
      {
        "beat": 1,
        "duration": 0.25,
        "pitch": 64,
        "velocity": 31
      },
      {
        "beat": 1,
        "duration": 0.25,
        "pitch": 67,
        "velocity": 26
      },
      {
        "beat": 1.5,
        "duration": 0.25,
        "pitch": 60,
        "velocity": 38
      },
      {
        "beat": 1.5,
        "duration": 0.25,
        "pitch": 64,
        "velocity": 43
      },
      {
        "beat": 1.5,
        "duration": 0.25,
        "pitch": 67,
        "velocity": 38
      },
      {
        "beat": 2,
        "duration": 0.25,
        "pitch": 60,
        "velocity": 20
      },
      {
        "beat": 2,
        "duration": 0.25,
        "pitch": 64,
        "velocity": 25
      },
      {
        "beat": 2,
        "duration": 0.25,
        "pitch": 67,
        "velocity": 20
      },
      {
        "beat": 2.5,
        "duration": 0.25,
        "pitch": 60,
        "velocity": 33
      },
      {
        "beat": 2.5,
        "duration": 0.25,
        "pitch": 64,
        "velocity": 38
      },
      {
        "beat": 2.5,
        "duration": 0.25,
        "pitch": 67,
        "velocity": 33
      },
      {
        "beat": 2.799999952316284,
        "duration": 1.2000000476837158,
        "pitch": 55,
        "velocity": 35
      },
      {
        "beat": 3,
        "duration": 0.28333333134651184,
        "pitch": 60,
        "velocity": 38
      },
      {
        "beat": 3,
        "duration": 0.28333333134651184,
        "pitch": 64,
        "velocity": 43
      },
      {
        "beat": 3,
        "duration": 0.28333333134651184,
        "pitch": 67,
        "velocity": 38
      },
      {
        "beat": 3.299999952316284,
        "duration": 0.699999988079071,
        "pitch": 60,
        "velocity": 32
      },
      {
        "beat": 3.299999952316284,
        "duration": 0.699999988079071,
        "pitch": 64,
        "velocity": 29
      },
      {
        "beat": 3.299999952316284,
        "duration": 0.699999988079071,
        "pitch": 67,
        "velocity": 33
      }
    ],
    "crc32": 1383163314,
    "midiSize": 241,
    "midiSha1": "d98fa52fd17ff254c74fc34edb33a09267719637"
  },
  {
    "code": "PianoStudio_6",
    "kind": "chord",
    "family": "PianoStudio",
    "modelType": "chord_model_379",
    "subtype": "proller",
    "bpm": 120,
    "beat": "4/4",
    "bnum": 43,
    "noteCount": 4,
    "midi": "pattern_midis/PianoStudio_6.mid",
    "notes": [
      {
        "beat": 0,
        "duration": 3,
        "pitch": 48,
        "velocity": 48
      },
      {
        "beat": 1,
        "duration": 2,
        "pitch": 60,
        "velocity": 25
      },
      {
        "beat": 2,
        "duration": 1,
        "pitch": 64,
        "velocity": 35
      },
      {
        "beat": 2,
        "duration": 1,
        "pitch": 67,
        "velocity": 28
      }
    ],
    "crc32": 2467325300,
    "midiSize": 87,
    "midiSha1": "bb4cb45d3d1a07236349ced8e69bec6ff82146ac"
  },
  {
    "code": "PianoStudio_60",
    "kind": "chord",
    "family": "PianoStudio",
    "modelType": "chord_model_379",
    "subtype": "proller",
    "bpm": 119,
    "beat": "4/4",
    "bnum": 44,
    "noteCount": 14,
    "midi": "pattern_midis/PianoStudio_60.mid",
    "notes": [
      {
        "beat": 0,
        "duration": 0.5,
        "pitch": 48,
        "velocity": 28
      },
      {
        "beat": 0.5,
        "duration": 0.25,
        "pitch": 60,
        "velocity": 34
      },
      {
        "beat": 0.5,
        "duration": 0.25,
        "pitch": 64,
        "velocity": 30
      },
      {
        "beat": 0.5,
        "duration": 0.2541666626930237,
        "pitch": 67,
        "velocity": 40
      },
      {
        "beat": 1.5,
        "duration": 0.25,
        "pitch": 60,
        "velocity": 19
      },
      {
        "beat": 1.5,
        "duration": 0.25,
        "pitch": 64,
        "velocity": 15
      },
      {
        "beat": 1.5,
        "duration": 0.2541666626930237,
        "pitch": 67,
        "velocity": 25
      },
      {
        "beat": 2,
        "duration": 0.5,
        "pitch": 48,
        "velocity": 28
      },
      {
        "beat": 2.5,
        "duration": 0.25,
        "pitch": 60,
        "velocity": 24
      },
      {
        "beat": 2.5,
        "duration": 0.25,
        "pitch": 64,
        "velocity": 32
      },
      {
        "beat": 2.5,
        "duration": 0.2541666626930237,
        "pitch": 67,
        "velocity": 42
      },
      {
        "beat": 3.5,
        "duration": 0.25,
        "pitch": 60,
        "velocity": 16
      },
      {
        "beat": 3.5,
        "duration": 0.25,
        "pitch": 64,
        "velocity": 12
      },
      {
        "beat": 3.5,
        "duration": 0.2541666626930237,
        "pitch": 67,
        "velocity": 22
      }
    ],
    "crc32": 366676652,
    "midiSize": 155,
    "midiSha1": "d5617f6913a4b0d89fa161c2f8d5eed37aebdb8f"
  },
  {
    "code": "PianoStudio_61",
    "kind": "chord",
    "family": "PianoStudio",
    "modelType": "chord_model_379",
    "subtype": "proller",
    "bpm": 125,
    "beat": "4/4",
    "bnum": 44,
    "noteCount": 9,
    "midi": "pattern_midis/PianoStudio_61.mid",
    "notes": [
      {
        "beat": 0,
        "duration": 4,
        "pitch": 48,
        "velocity": 30
      },
      {
        "beat": 0,
        "duration": 1.5,
        "pitch": 67,
        "velocity": 26
      },
      {
        "beat": 0.5,
        "duration": 1.5,
        "pitch": 60,
        "velocity": 25
      },
      {
        "beat": 1,
        "duration": 1.5,
        "pitch": 64,
        "velocity": 39
      },
      {
        "beat": 1.5,
        "duration": 1.5,
        "pitch": 67,
        "velocity": 27
      },
      {
        "beat": 2,
        "duration": 1.5,
        "pitch": 60,
        "velocity": 17
      },
      {
        "beat": 2.5,
        "duration": 1.5,
        "pitch": 64,
        "velocity": 36
      },
      {
        "beat": 3,
        "duration": 1,
        "pitch": 67,
        "velocity": 36
      },
      {
        "beat": 3.5,
        "duration": 0.5,
        "pitch": 60,
        "velocity": 14
      }
    ],
    "crc32": 3565422466,
    "midiSize": 131,
    "midiSha1": "043508a88b0cde36f09df77ebf508f137541637a"
  },
  {
    "code": "PianoStudio_62",
    "kind": "chord",
    "family": "PianoStudio",
    "modelType": "chord_model_379",
    "subtype": "proller",
    "bpm": 70,
    "beat": "4/4",
    "bnum": 44,
    "noteCount": 9,
    "midi": "pattern_midis/PianoStudio_62.mid",
    "notes": [
      {
        "beat": 0,
        "duration": 4,
        "pitch": 48,
        "velocity": 30
      },
      {
        "beat": 0,
        "duration": 1.25,
        "pitch": 60,
        "velocity": 29
      },
      {
        "beat": 0,
        "duration": 1.5,
        "pitch": 64,
        "velocity": 23
      },
      {
        "beat": 0,
        "duration": 1.75,
        "pitch": 67,
        "velocity": 28
      },
      {
        "beat": 1.25,
        "duration": 1.75,
        "pitch": 60,
        "velocity": 29
      },
      {
        "beat": 1.5,
        "duration": 0.5,
        "pitch": 64,
        "velocity": 27
      },
      {
        "beat": 1.75,
        "duration": 2.25,
        "pitch": 67,
        "velocity": 35
      },
      {
        "beat": 2,
        "duration": 2,
        "pitch": 64,
        "velocity": 23
      },
      {
        "beat": 3,
        "duration": 1,
        "pitch": 60,
        "velocity": 17
      }
    ],
    "crc32": 2947450580,
    "midiSize": 126,
    "midiSha1": "292c98e24f8972a57b8b4777a45f1827eec1062a"
  },
  {
    "code": "PianoStudio_63",
    "kind": "chord",
    "family": "PianoStudio",
    "modelType": "chord_model_379",
    "subtype": "proller",
    "bpm": 78,
    "beat": "4/4",
    "bnum": 44,
    "noteCount": 14,
    "midi": "pattern_midis/PianoStudio_63.mid",
    "notes": [
      {
        "beat": 0,
        "duration": 1.75,
        "pitch": 48,
        "velocity": 47
      },
      {
        "beat": 0.02291666716337204,
        "duration": 1.2270833253860474,
        "pitch": 60,
        "velocity": 35
      },
      {
        "beat": 0.0416666679084301,
        "duration": 0.7083333134651184,
        "pitch": 64,
        "velocity": 32
      },
      {
        "beat": 0.05624999850988388,
        "duration": 1.443750023841858,
        "pitch": 67,
        "velocity": 35
      },
      {
        "beat": 0.75,
        "duration": 1.25,
        "pitch": 64,
        "velocity": 24
      },
      {
        "beat": 1.25,
        "duration": 0.75,
        "pitch": 60,
        "velocity": 20
      },
      {
        "beat": 1.5,
        "duration": 1.75,
        "pitch": 67,
        "velocity": 35
      },
      {
        "beat": 1.75,
        "duration": 0.25,
        "pitch": 48,
        "velocity": 35
      },
      {
        "beat": 2,
        "duration": 2,
        "pitch": 48,
        "velocity": 47
      },
      {
        "beat": 2,
        "duration": 1.75,
        "pitch": 60,
        "velocity": 35
      },
      {
        "beat": 2,
        "duration": 1.5,
        "pitch": 64,
        "velocity": 32
      },
      {
        "beat": 3.25,
        "duration": 0.75,
        "pitch": 67,
        "velocity": 25
      },
      {
        "beat": 3.5,
        "duration": 0.5,
        "pitch": 64,
        "velocity": 30
      },
      {
        "beat": 3.75,
        "duration": 0.25,
        "pitch": 60,
        "velocity": 20
      }
    ],
    "crc32": 668393149,
    "midiSize": 162,
    "midiSha1": "bcc07586db4b7edf696b4fec1d9a36d753fdb9dd"
  },
  {
    "code": "PianoStudio_64",
    "kind": "chord",
    "family": "PianoStudio",
    "modelType": "chord_model_379",
    "subtype": "proller",
    "bpm": 108,
    "beat": "4/4",
    "bnum": 44,
    "noteCount": 8,
    "midi": "pattern_midis/PianoStudio_64.mid",
    "notes": [
      {
        "beat": 0,
        "duration": 4,
        "pitch": 48,
        "velocity": 38
      },
      {
        "beat": 0.5,
        "duration": 3.5,
        "pitch": 55,
        "velocity": 25
      },
      {
        "beat": 1,
        "duration": 1.5,
        "pitch": 60,
        "velocity": 36
      },
      {
        "beat": 1.5,
        "duration": 1.5,
        "pitch": 64,
        "velocity": 26
      },
      {
        "beat": 2,
        "duration": 1.5,
        "pitch": 67,
        "velocity": 42
      },
      {
        "beat": 2.5,
        "duration": 1.5,
        "pitch": 60,
        "velocity": 25
      },
      {
        "beat": 3,
        "duration": 1,
        "pitch": 64,
        "velocity": 25
      },
      {
        "beat": 3.5,
        "duration": 0.5,
        "pitch": 67,
        "velocity": 30
      }
    ],
    "crc32": 3485065328,
    "midiSize": 121,
    "midiSha1": "489f29975273849477085b9842d519bb5b32a27b"
  },
  {
    "code": "PianoStudio_65",
    "kind": "chord",
    "family": "PianoStudio",
    "modelType": "chord_model_379",
    "subtype": "proller",
    "bpm": 90,
    "beat": "4/4",
    "bnum": 44,
    "noteCount": 11,
    "midi": "pattern_midis/PianoStudio_65.mid",
    "notes": [
      {
        "beat": 0,
        "duration": 4,
        "pitch": 48,
        "velocity": 37
      },
      {
        "beat": 0.25,
        "duration": 3.25,
        "pitch": 55,
        "velocity": 32
      },
      {
        "beat": 0.5,
        "duration": 1,
        "pitch": 60,
        "velocity": 36
      },
      {
        "beat": 0.75,
        "duration": 0.75,
        "pitch": 64,
        "velocity": 36
      },
      {
        "beat": 1.5,
        "duration": 1.75,
        "pitch": 60,
        "velocity": 38
      },
      {
        "beat": 1.5,
        "duration": 1.5,
        "pitch": 64,
        "velocity": 38
      },
      {
        "beat": 1.5,
        "duration": 2.5,
        "pitch": 67,
        "velocity": 31
      },
      {
        "beat": 3,
        "duration": 1,
        "pitch": 64,
        "velocity": 36
      },
      {
        "beat": 3.25,
        "duration": 0.5,
        "pitch": 60,
        "velocity": 29
      },
      {
        "beat": 3.5,
        "duration": 0.5,
        "pitch": 55,
        "velocity": 23
      },
      {
        "beat": 3.75,
        "duration": 0.25,
        "pitch": 60,
        "velocity": 22
      }
    ],
    "crc32": 2654676288,
    "midiSize": 137,
    "midiSha1": "945cb5bdd202cae6605490ce03f6f6bdefe0365d"
  },
  {
    "code": "PianoStudio_66",
    "kind": "chord",
    "family": "PianoStudio",
    "modelType": "chord_model_379",
    "subtype": "proller",
    "bpm": 72,
    "beat": "4/4",
    "bnum": 44,
    "noteCount": 17,
    "midi": "pattern_midis/PianoStudio_66.mid",
    "notes": [
      {
        "beat": 0,
        "duration": 4,
        "pitch": 48,
        "velocity": 34
      },
      {
        "beat": 0,
        "duration": 1.5,
        "pitch": 55,
        "velocity": 32
      },
      {
        "beat": 0,
        "duration": 1.5,
        "pitch": 60,
        "velocity": 36
      },
      {
        "beat": 0,
        "duration": 1.5,
        "pitch": 64,
        "velocity": 36
      },
      {
        "beat": 0,
        "duration": 1.5,
        "pitch": 67,
        "velocity": 31
      },
      {
        "beat": 1.5,
        "duration": 0.75,
        "pitch": 55,
        "velocity": 18
      },
      {
        "beat": 1.5,
        "duration": 1,
        "pitch": 60,
        "velocity": 22
      },
      {
        "beat": 1.5,
        "duration": 1.25,
        "pitch": 64,
        "velocity": 22
      },
      {
        "beat": 1.5,
        "duration": 2,
        "pitch": 67,
        "velocity": 17
      },
      {
        "beat": 2,
        "duration": 2,
        "pitch": 52,
        "velocity": 38
      },
      {
        "beat": 2.25,
        "duration": 1.25,
        "pitch": 55,
        "velocity": 38
      },
      {
        "beat": 2.5,
        "duration": 1,
        "pitch": 60,
        "velocity": 38
      },
      {
        "beat": 2.75,
        "duration": 0.75,
        "pitch": 64,
        "velocity": 36
      },
      {
        "beat": 3.5,
        "duration": 0.5,
        "pitch": 55,
        "velocity": 18
      },
      {
        "beat": 3.5,
        "duration": 0.5,
        "pitch": 60,
        "velocity": 22
      },
      {
        "beat": 3.5,
        "duration": 0.5,
        "pitch": 64,
        "velocity": 22
      },
      {
        "beat": 3.5,
        "duration": 0.5,
        "pitch": 67,
        "velocity": 17
      }
    ],
    "crc32": 342690660,
    "midiSize": 175,
    "midiSha1": "1feae5d4fbb64cc3b4070299dbf05cc78ef35552"
  },
  {
    "code": "PianoStudio_68",
    "kind": "chord",
    "family": "PianoStudio",
    "modelType": "chord_model_379",
    "subtype": "proller",
    "bpm": 67,
    "beat": "4/4",
    "bnum": 44,
    "noteCount": 7,
    "midi": "pattern_midis/PianoStudio_68.mid",
    "notes": [
      {
        "beat": 0,
        "duration": 4,
        "pitch": 48,
        "velocity": 30
      },
      {
        "beat": 0,
        "duration": 2,
        "pitch": 60,
        "velocity": 36
      },
      {
        "beat": 0,
        "duration": 2,
        "pitch": 64,
        "velocity": 45
      },
      {
        "beat": 0,
        "duration": 2,
        "pitch": 67,
        "velocity": 34
      },
      {
        "beat": 2,
        "duration": 2,
        "pitch": 60,
        "velocity": 25
      },
      {
        "beat": 2,
        "duration": 2,
        "pitch": 64,
        "velocity": 36
      },
      {
        "beat": 2,
        "duration": 2,
        "pitch": 67,
        "velocity": 32
      }
    ],
    "crc32": 2111127451,
    "midiSize": 105,
    "midiSha1": "38f4cfcfc53ae3a00944045898bf1426cd2e8c52"
  },
  {
    "code": "PianoStudio_69",
    "kind": "chord",
    "family": "PianoStudio",
    "modelType": "chord_model_379",
    "subtype": "proller",
    "bpm": 90,
    "beat": "4/4",
    "bnum": 86,
    "noteCount": 9,
    "midi": "pattern_midis/PianoStudio_69.mid",
    "notes": [
      {
        "beat": 0,
        "duration": 1.5,
        "pitch": 48,
        "velocity": 32
      },
      {
        "beat": 0.5,
        "duration": 1,
        "pitch": 55,
        "velocity": 22
      },
      {
        "beat": 1,
        "duration": 0.5,
        "pitch": 60,
        "velocity": 17
      },
      {
        "beat": 1.5,
        "duration": 0.1666666716337204,
        "pitch": 48,
        "velocity": 25
      },
      {
        "beat": 1.5,
        "duration": 0.1666666716337204,
        "pitch": 55,
        "velocity": 15
      },
      {
        "beat": 1.5,
        "duration": 0.1666666716337204,
        "pitch": 60,
        "velocity": 10
      },
      {
        "beat": 1.5,
        "duration": 0.1666666716337204,
        "pitch": 64,
        "velocity": 36
      },
      {
        "beat": 1.5,
        "duration": 0.1666666716337204,
        "pitch": 67,
        "velocity": 42
      },
      {
        "beat": 1.5,
        "duration": 0.1666666716337204,
        "pitch": 72,
        "velocity": 37
      }
    ],
    "crc32": 3259860077,
    "midiSize": 118,
    "midiSha1": "1f35f3bbb3cb19458f3ebaa2e201fe0c9c4445a3"
  },
  {
    "code": "PianoStudio_7",
    "kind": "chord",
    "family": "PianoStudio",
    "modelType": "chord_model_379",
    "subtype": "proller",
    "bpm": 70,
    "beat": "4/4",
    "bnum": 86,
    "noteCount": 6,
    "midi": "pattern_midis/PianoStudio_7.mid",
    "notes": [
      {
        "beat": 0,
        "duration": 2.99791669845581,
        "pitch": 48,
        "velocity": 38
      },
      {
        "beat": 0.49791666865348816,
        "duration": 1.9854166507720947,
        "pitch": 55,
        "velocity": 43
      },
      {
        "beat": 0.9979166388511658,
        "duration": 1,
        "pitch": 60,
        "velocity": 41
      },
      {
        "beat": 1.4979166984558105,
        "duration": 1.5,
        "pitch": 64,
        "velocity": 38
      },
      {
        "beat": 2,
        "duration": 1,
        "pitch": 60,
        "velocity": 38
      },
      {
        "beat": 2.49791669845581,
        "duration": 0.5083333253860474,
        "pitch": 55,
        "velocity": 28
      }
    ],
    "crc32": 3654909901,
    "midiSize": 106,
    "midiSha1": "e8cf59a10ba95f7ff2e9725ddddec0c487f27895"
  },
  {
    "code": "PianoStudio_70",
    "kind": "chord",
    "family": "PianoStudio",
    "modelType": "chord_model_379",
    "subtype": "proller",
    "bpm": 90,
    "beat": "4/4",
    "bnum": 86,
    "noteCount": 21,
    "midi": "pattern_midis/PianoStudio_70.mid",
    "notes": [
      {
        "beat": 0,
        "duration": 1.5,
        "pitch": 48,
        "velocity": 30
      },
      {
        "beat": 0,
        "duration": 0.1145833358168602,
        "pitch": 64,
        "velocity": 15
      },
      {
        "beat": 0,
        "duration": 0.10833333432674408,
        "pitch": 67,
        "velocity": 24
      },
      {
        "beat": 0,
        "duration": 0.10625000298023224,
        "pitch": 72,
        "velocity": 28
      },
      {
        "beat": 0.5,
        "duration": 0.09375,
        "pitch": 64,
        "velocity": 19
      },
      {
        "beat": 0.5,
        "duration": 0.10208333283662796,
        "pitch": 67,
        "velocity": 29
      },
      {
        "beat": 0.5,
        "duration": 0.09375,
        "pitch": 72,
        "velocity": 24
      },
      {
        "beat": 1,
        "duration": 0.11041666567325592,
        "pitch": 64,
        "velocity": 15
      },
      {
        "beat": 1,
        "duration": 0.1145833358168602,
        "pitch": 67,
        "velocity": 26
      },
      {
        "beat": 1,
        "duration": 0.11041666567325592,
        "pitch": 72,
        "velocity": 23
      },
      {
        "beat": 1.5,
        "duration": 0.1666666716337204,
        "pitch": 48,
        "velocity": 10
      },
      {
        "beat": 1.5,
        "duration": 0.1666666716337204,
        "pitch": 55,
        "velocity": 25
      },
      {
        "beat": 1.5,
        "duration": 0.11041666567325592,
        "pitch": 64,
        "velocity": 29
      },
      {
        "beat": 1.5,
        "duration": 0.11249999701976776,
        "pitch": 67,
        "velocity": 34
      },
      {
        "beat": 1.5,
        "duration": 0.09583333134651184,
        "pitch": 72,
        "velocity": 31
      },
      {
        "beat": 2,
        "duration": 0.09375,
        "pitch": 64,
        "velocity": 19
      },
      {
        "beat": 2,
        "duration": 0.10208333283662796,
        "pitch": 67,
        "velocity": 29
      },
      {
        "beat": 2,
        "duration": 0.09375,
        "pitch": 72,
        "velocity": 24
      },
      {
        "beat": 2.5,
        "duration": 0.11041666567325592,
        "pitch": 64,
        "velocity": 15
      },
      {
        "beat": 2.5,
        "duration": 0.1145833358168602,
        "pitch": 67,
        "velocity": 26
      },
      {
        "beat": 2.5,
        "duration": 0.11041666567325592,
        "pitch": 72,
        "velocity": 23
      }
    ],
    "crc32": 3272110053,
    "midiSize": 202,
    "midiSha1": "00f7ec24ee6a0eedd8f88b77c2afd6a69203dda2"
  },
  {
    "code": "PianoStudio_71",
    "kind": "chord",
    "family": "PianoStudio",
    "modelType": "chord_model_379",
    "subtype": "proller",
    "bpm": 105,
    "beat": "4/4",
    "bnum": 44,
    "noteCount": 21,
    "midi": "pattern_midis/PianoStudio_71.mid",
    "notes": [
      {
        "beat": 0.25,
        "duration": 0.1666666716337204,
        "pitch": 52,
        "velocity": 34
      },
      {
        "beat": 0.25,
        "duration": 0.16875000298023224,
        "pitch": 55,
        "velocity": 34
      },
      {
        "beat": 0.25,
        "duration": 0.1666666716337204,
        "pitch": 60,
        "velocity": 33
      },
      {
        "beat": 0.25,
        "duration": 0.1666666716337204,
        "pitch": 64,
        "velocity": 34
      },
      {
        "beat": 0.75,
        "duration": 0.4854166805744171,
        "pitch": 52,
        "velocity": 33
      },
      {
        "beat": 0.75,
        "duration": 0.4833333194255829,
        "pitch": 55,
        "velocity": 33
      },
      {
        "beat": 0.75,
        "duration": 0.4833333194255829,
        "pitch": 60,
        "velocity": 34
      },
      {
        "beat": 0.75,
        "duration": 0.4958333373069763,
        "pitch": 64,
        "velocity": 35
      },
      {
        "beat": 1.25,
        "duration": 0.2666666805744171,
        "pitch": 43,
        "velocity": 28
      },
      {
        "beat": 1.5,
        "duration": 0.17291666567325592,
        "pitch": 52,
        "velocity": 34
      },
      {
        "beat": 1.5,
        "duration": 0.18333333730697632,
        "pitch": 55,
        "velocity": 34
      },
      {
        "beat": 1.5,
        "duration": 0.18125000596046448,
        "pitch": 60,
        "velocity": 31
      },
      {
        "beat": 1.5,
        "duration": 0.1666666716337204,
        "pitch": 64,
        "velocity": 32
      },
      {
        "beat": 2,
        "duration": 1,
        "pitch": 52,
        "velocity": 37
      },
      {
        "beat": 2.02916669845581,
        "duration": 1.2208333015441895,
        "pitch": 55,
        "velocity": 37
      },
      {
        "beat": 2.058333396911621,
        "duration": 1.4416667222976685,
        "pitch": 60,
        "velocity": 37
      },
      {
        "beat": 2.09375,
        "duration": 1.65625,
        "pitch": 64,
        "velocity": 36
      },
      {
        "beat": 3,
        "duration": 1,
        "pitch": 52,
        "velocity": 25
      },
      {
        "beat": 3.25,
        "duration": 0.75,
        "pitch": 55,
        "velocity": 26
      },
      {
        "beat": 3.5,
        "duration": 0.5,
        "pitch": 60,
        "velocity": 26
      },
      {
        "beat": 3.75,
        "duration": 0.25,
        "pitch": 64,
        "velocity": 23
      }
    ],
    "crc32": 3880109805,
    "midiSize": 203,
    "midiSha1": "24b0092799be3ab9431f12ddd71f8836e7908547"
  },
  {
    "code": "PianoStudio_75",
    "kind": "chord",
    "family": "PianoStudio",
    "modelType": "chord_model_379",
    "subtype": "proller",
    "bpm": 99,
    "beat": "4/4",
    "bnum": 44,
    "noteCount": 14,
    "midi": "pattern_midis/PianoStudio_75.mid",
    "notes": [
      {
        "beat": 0,
        "duration": 1,
        "pitch": 48,
        "velocity": 28
      },
      {
        "beat": 0,
        "duration": 0.5,
        "pitch": 60,
        "velocity": 33
      },
      {
        "beat": 0.25,
        "duration": 0.75,
        "pitch": 55,
        "velocity": 31
      },
      {
        "beat": 0.5,
        "duration": 0.5,
        "pitch": 60,
        "velocity": 29
      },
      {
        "beat": 0.75,
        "duration": 0.25,
        "pitch": 64,
        "velocity": 36
      },
      {
        "beat": 1.25,
        "duration": 1.5270832777023315,
        "pitch": 55,
        "velocity": 17
      },
      {
        "beat": 1.5,
        "duration": 2.5,
        "pitch": 48,
        "velocity": 26
      },
      {
        "beat": 1.524999976158142,
        "duration": 1.6916667222976685,
        "pitch": 60,
        "velocity": 33
      },
      {
        "beat": 1.5541666746139526,
        "duration": 1.8916666507720947,
        "pitch": 64,
        "velocity": 33
      },
      {
        "beat": 1.5958333015441895,
        "duration": 2.102083444595337,
        "pitch": 67,
        "velocity": 37
      },
      {
        "beat": 3,
        "duration": 1,
        "pitch": 55,
        "velocity": 15
      },
      {
        "beat": 3.25,
        "duration": 0.75,
        "pitch": 60,
        "velocity": 16
      },
      {
        "beat": 3.5,
        "duration": 0.5,
        "pitch": 64,
        "velocity": 33
      },
      {
        "beat": 3.75,
        "duration": 0.25,
        "pitch": 67,
        "velocity": 29
      }
    ],
    "crc32": 3681367288,
    "midiSize": 158,
    "midiSha1": "e424d42571ef45fb4e4cecb66695551093262c90"
  },
  {
    "code": "PianoStudio_76",
    "kind": "chord",
    "family": "PianoStudio",
    "modelType": "chord_model_379",
    "subtype": "proller",
    "bpm": 93,
    "beat": "4/4",
    "bnum": 44,
    "noteCount": 31,
    "midi": "pattern_midis/PianoStudio_76.mid",
    "notes": [
      {
        "beat": 0,
        "duration": 0.37291666865348816,
        "pitch": 60,
        "velocity": 21
      },
      {
        "beat": 0,
        "duration": 0.37291666865348816,
        "pitch": 64,
        "velocity": 26
      },
      {
        "beat": 0,
        "duration": 0.37291666865348816,
        "pitch": 67,
        "velocity": 21
      },
      {
        "beat": 0,
        "duration": 0.37291666865348816,
        "pitch": 72,
        "velocity": 21
      },
      {
        "beat": 0.5,
        "duration": 0.3229166567325592,
        "pitch": 60,
        "velocity": 30
      },
      {
        "beat": 0.5,
        "duration": 0.3229166567325592,
        "pitch": 64,
        "velocity": 34
      },
      {
        "beat": 0.5,
        "duration": 0.3229166567325592,
        "pitch": 67,
        "velocity": 29
      },
      {
        "beat": 0.5,
        "duration": 0.3229166567325592,
        "pitch": 72,
        "velocity": 29
      },
      {
        "beat": 1,
        "duration": 0.2770833373069763,
        "pitch": 43,
        "velocity": 27
      },
      {
        "beat": 1.2604166269302368,
        "duration": 0.4895833432674408,
        "pitch": 60,
        "velocity": 27
      },
      {
        "beat": 1.2604166269302368,
        "duration": 0.4895833432674408,
        "pitch": 64,
        "velocity": 31
      },
      {
        "beat": 1.2604166269302368,
        "duration": 0.44583332538604736,
        "pitch": 67,
        "velocity": 27
      },
      {
        "beat": 1.2604166269302368,
        "duration": 0.44583332538604736,
        "pitch": 72,
        "velocity": 27
      },
      {
        "beat": 1.7604166269302368,
        "duration": 0.2541666626930237,
        "pitch": 60,
        "velocity": 28
      },
      {
        "beat": 1.7604166269302368,
        "duration": 0.2541666626930237,
        "pitch": 64,
        "velocity": 33
      },
      {
        "beat": 1.7604166269302368,
        "duration": 0.23541666567325592,
        "pitch": 67,
        "velocity": 26
      },
      {
        "beat": 1.7604166269302368,
        "duration": 0.23541666567325592,
        "pitch": 72,
        "velocity": 26
      },
      {
        "beat": 2.2604167461395264,
        "duration": 0.4937500059604645,
        "pitch": 60,
        "velocity": 31
      },
      {
        "beat": 2.2604167461395264,
        "duration": 0.4937500059604645,
        "pitch": 64,
        "velocity": 35
      },
      {
        "beat": 2.2604167461395264,
        "duration": 0.4895833432674408,
        "pitch": 67,
        "velocity": 29
      },
      {
        "beat": 2.2604167461395264,
        "duration": 0.4895833432674408,
        "pitch": 72,
        "velocity": 29
      },
      {
        "beat": 3,
        "duration": 0.25,
        "pitch": 43,
        "velocity": 28
      },
      {
        "beat": 3,
        "duration": 0.20416666567325592,
        "pitch": 60,
        "velocity": 31
      },
      {
        "beat": 3,
        "duration": 0.20416666567325592,
        "pitch": 64,
        "velocity": 35
      },
      {
        "beat": 3,
        "duration": 0.21875,
        "pitch": 67,
        "velocity": 33
      },
      {
        "beat": 3,
        "duration": 0.21875,
        "pitch": 72,
        "velocity": 33
      },
      {
        "beat": 3.5,
        "duration": 0.21875,
        "pitch": 43,
        "velocity": 28
      },
      {
        "beat": 3.5,
        "duration": 0.5145833492279053,
        "pitch": 60,
        "velocity": 20
      },
      {
        "beat": 3.5,
        "duration": 0.5145833492279053,
        "pitch": 64,
        "velocity": 24
      },
      {
        "beat": 3.5,
        "duration": 0.5,
        "pitch": 67,
        "velocity": 21
      },
      {
        "beat": 3.5,
        "duration": 0.5,
        "pitch": 72,
        "velocity": 21
      }
    ],
    "crc32": 2071754307,
    "midiSize": 264,
    "midiSha1": "6ca744f066ef2056e47dd61c792816ff9a71dbc3"
  },
  {
    "code": "PianoStudio_77",
    "kind": "chord",
    "family": "PianoStudio",
    "modelType": "chord_model_379",
    "subtype": "proller",
    "bpm": 70,
    "beat": "4/4",
    "bnum": 44,
    "noteCount": 12,
    "midi": "pattern_midis/PianoStudio_77.mid",
    "notes": [
      {
        "beat": 0.004166666883975267,
        "duration": 2,
        "pitch": 48,
        "velocity": 20
      },
      {
        "beat": 0.004166666883975267,
        "duration": 1,
        "pitch": 55,
        "velocity": 29
      },
      {
        "beat": 0.03958333283662796,
        "duration": 1.4645832777023315,
        "pitch": 60,
        "velocity": 32
      },
      {
        "beat": 0.06041666492819786,
        "duration": 3.9437499046325684,
        "pitch": 64,
        "velocity": 31
      },
      {
        "beat": 0.12916666269302368,
        "duration": 1.625,
        "pitch": 67,
        "velocity": 38
      },
      {
        "beat": 1.0041667222976685,
        "duration": 1,
        "pitch": 55,
        "velocity": 25
      },
      {
        "beat": 1.5041667222976685,
        "duration": 2,
        "pitch": 60,
        "velocity": 28
      },
      {
        "beat": 1.7541667222976685,
        "duration": 2.25,
        "pitch": 67,
        "velocity": 32
      },
      {
        "beat": 2.004166603088379,
        "duration": 2,
        "pitch": 48,
        "velocity": 20
      },
      {
        "beat": 2.004166603088379,
        "duration": 1,
        "pitch": 55,
        "velocity": 25
      },
      {
        "beat": 3.004166603088379,
        "duration": 1,
        "pitch": 55,
        "velocity": 21
      },
      {
        "beat": 3.504166603088379,
        "duration": 0.5,
        "pitch": 60,
        "velocity": 28
      }
    ],
    "crc32": 3604896983,
    "midiSize": 148,
    "midiSha1": "48e276020e10512d7da586d4954c1a88041016ae"
  },
  {
    "code": "PianoStudio_78",
    "kind": "chord",
    "family": "PianoStudio",
    "modelType": "chord_model_379",
    "subtype": "proller",
    "bpm": 131,
    "beat": "4/4",
    "bnum": 44,
    "noteCount": 11,
    "midi": "pattern_midis/PianoStudio_78.mid",
    "notes": [
      {
        "beat": 0,
        "duration": 0.987500011920929,
        "pitch": 48,
        "velocity": 40
      },
      {
        "beat": 1,
        "duration": 0.737500011920929,
        "pitch": 60,
        "velocity": 46
      },
      {
        "beat": 1,
        "duration": 0.737500011920929,
        "pitch": 64,
        "velocity": 46
      },
      {
        "beat": 1,
        "duration": 0.737500011920929,
        "pitch": 67,
        "velocity": 46
      },
      {
        "beat": 1.75,
        "duration": 0.737500011920929,
        "pitch": 60,
        "velocity": 51
      },
      {
        "beat": 1.75,
        "duration": 0.737500011920929,
        "pitch": 64,
        "velocity": 51
      },
      {
        "beat": 1.75,
        "duration": 0.737500011920929,
        "pitch": 67,
        "velocity": 51
      },
      {
        "beat": 2.5,
        "duration": 0.487500011920929,
        "pitch": 48,
        "velocity": 40
      },
      {
        "beat": 3,
        "duration": 0.987500011920929,
        "pitch": 60,
        "velocity": 40
      },
      {
        "beat": 3,
        "duration": 0.987500011920929,
        "pitch": 64,
        "velocity": 40
      },
      {
        "beat": 3,
        "duration": 0.987500011920929,
        "pitch": 67,
        "velocity": 40
      }
    ],
    "crc32": 672464500,
    "midiSize": 140,
    "midiSha1": "4abc74e48262be835a486d6956cd60987fc4207a"
  },
  {
    "code": "PianoStudio_79",
    "kind": "chord",
    "family": "PianoStudio",
    "modelType": "chord_model_379",
    "subtype": "proller",
    "bpm": 128,
    "beat": "4/4",
    "bnum": 44,
    "noteCount": 18,
    "midi": "pattern_midis/PianoStudio_79.mid",
    "notes": [
      {
        "beat": 0,
        "duration": 0.2916666567325592,
        "pitch": 48,
        "velocity": 28
      },
      {
        "beat": 0.25,
        "duration": 0.2916666567325592,
        "pitch": 60,
        "velocity": 35
      },
      {
        "beat": 0.25,
        "duration": 0.2916666567325592,
        "pitch": 64,
        "velocity": 45
      },
      {
        "beat": 0.25,
        "duration": 0.2916666567325592,
        "pitch": 67,
        "velocity": 57
      },
      {
        "beat": 0.75,
        "duration": 0.2916666567325592,
        "pitch": 60,
        "velocity": 25
      },
      {
        "beat": 0.75,
        "duration": 0.2916666567325592,
        "pitch": 64,
        "velocity": 35
      },
      {
        "beat": 0.75,
        "duration": 0.2916666567325592,
        "pitch": 67,
        "velocity": 47
      },
      {
        "beat": 1.5,
        "duration": 0.2916666567325592,
        "pitch": 60,
        "velocity": 30
      },
      {
        "beat": 1.5,
        "duration": 0.2916666567325592,
        "pitch": 64,
        "velocity": 40
      },
      {
        "beat": 1.5,
        "duration": 0.2916666567325592,
        "pitch": 67,
        "velocity": 52
      },
      {
        "beat": 2,
        "duration": 0.2916666567325592,
        "pitch": 55,
        "velocity": 25
      },
      {
        "beat": 2.5,
        "duration": 0.2916666567325592,
        "pitch": 60,
        "velocity": 20
      },
      {
        "beat": 2.5,
        "duration": 0.2916666567325592,
        "pitch": 64,
        "velocity": 30
      },
      {
        "beat": 2.5,
        "duration": 0.2916666567325592,
        "pitch": 67,
        "velocity": 42
      },
      {
        "beat": 3,
        "duration": 0.2916666567325592,
        "pitch": 55,
        "velocity": 25
      },
      {
        "beat": 3.5,
        "duration": 0.2916666567325592,
        "pitch": 60,
        "velocity": 20
      },
      {
        "beat": 3.5,
        "duration": 0.2916666567325592,
        "pitch": 64,
        "velocity": 30
      },
      {
        "beat": 3.5,
        "duration": 0.2916666567325592,
        "pitch": 67,
        "velocity": 42
      }
    ],
    "crc32": 3304350953,
    "midiSize": 188,
    "midiSha1": "9416502f517a9dca7ebc392a325bdc4657c44074"
  },
  {
    "code": "PianoStudio_8",
    "kind": "chord",
    "family": "PianoStudio",
    "modelType": "chord_model_379",
    "subtype": "proller",
    "bpm": 70,
    "beat": "4/4",
    "bnum": 44,
    "noteCount": 14,
    "midi": "pattern_midis/PianoStudio_8.mid",
    "notes": [
      {
        "beat": 0,
        "duration": 4,
        "pitch": 48,
        "velocity": 36
      },
      {
        "beat": 0,
        "duration": 3,
        "pitch": 60,
        "velocity": 24
      },
      {
        "beat": 0,
        "duration": 1,
        "pitch": 64,
        "velocity": 38
      },
      {
        "beat": 0,
        "duration": 1,
        "pitch": 67,
        "velocity": 37
      },
      {
        "beat": 0.5,
        "duration": 1,
        "pitch": 55,
        "velocity": 24
      },
      {
        "beat": 1,
        "duration": 1,
        "pitch": 64,
        "velocity": 26
      },
      {
        "beat": 1,
        "duration": 1,
        "pitch": 67,
        "velocity": 25
      },
      {
        "beat": 1.5,
        "duration": 1.25,
        "pitch": 55,
        "velocity": 16
      },
      {
        "beat": 2,
        "duration": 2,
        "pitch": 64,
        "velocity": 37
      },
      {
        "beat": 2,
        "duration": 1.25,
        "pitch": 67,
        "velocity": 36
      },
      {
        "beat": 2.75,
        "duration": 1.25,
        "pitch": 55,
        "velocity": 22
      },
      {
        "beat": 3,
        "duration": 0.5,
        "pitch": 60,
        "velocity": 36
      },
      {
        "beat": 3.25,
        "duration": 0.75,
        "pitch": 67,
        "velocity": 33
      },
      {
        "beat": 3.5,
        "duration": 0.5,
        "pitch": 60,
        "velocity": 22
      }
    ],
    "crc32": 943497941,
    "midiSize": 162,
    "midiSha1": "b0104ce3f08e495bb5d51be69ab0bb270a59eb48"
  },
  {
    "code": "PianoStudio_80",
    "kind": "chord",
    "family": "PianoStudio",
    "modelType": "chord_model_379",
    "subtype": "proller",
    "bpm": 131,
    "beat": "4/4",
    "bnum": 43,
    "noteCount": 7,
    "midi": "pattern_midis/PianoStudio_80.mid",
    "notes": [
      {
        "beat": 0,
        "duration": 3,
        "pitch": 48,
        "velocity": 32
      },
      {
        "beat": 1,
        "duration": 1,
        "pitch": 64,
        "velocity": 24
      },
      {
        "beat": 1,
        "duration": 1,
        "pitch": 67,
        "velocity": 24
      },
      {
        "beat": 1,
        "duration": 1,
        "pitch": 72,
        "velocity": 24
      },
      {
        "beat": 2,
        "duration": 1,
        "pitch": 64,
        "velocity": 36
      },
      {
        "beat": 2,
        "duration": 1,
        "pitch": 67,
        "velocity": 36
      },
      {
        "beat": 2,
        "duration": 1,
        "pitch": 72,
        "velocity": 36
      }
    ],
    "crc32": 2522789681,
    "midiSize": 106,
    "midiSha1": "916c55854b1ed7830e7cb011004d57223b053583"
  },
  {
    "code": "PianoStudio_9",
    "kind": "chord",
    "family": "PianoStudio",
    "modelType": "chord_model_379",
    "subtype": "proller",
    "bpm": 67,
    "beat": "4/4",
    "bnum": 44,
    "noteCount": 9,
    "midi": "pattern_midis/PianoStudio_9.mid",
    "notes": [
      {
        "beat": 0,
        "duration": 2,
        "pitch": 48,
        "velocity": 31
      },
      {
        "beat": 0,
        "duration": 2,
        "pitch": 60,
        "velocity": 18
      },
      {
        "beat": 0,
        "duration": 2,
        "pitch": 64,
        "velocity": 18
      },
      {
        "beat": 0,
        "duration": 2,
        "pitch": 67,
        "velocity": 29
      },
      {
        "beat": 2,
        "duration": 2,
        "pitch": 48,
        "velocity": 30
      },
      {
        "beat": 2,
        "duration": 2,
        "pitch": 60,
        "velocity": 19
      },
      {
        "beat": 2,
        "duration": 2,
        "pitch": 64,
        "velocity": 26
      },
      {
        "beat": 2,
        "duration": 2,
        "pitch": 67,
        "velocity": 35
      },
      {
        "beat": 3,
        "duration": 1,
        "pitch": 55,
        "velocity": 25
      }
    ],
    "crc32": 1496446433,
    "midiSize": 119,
    "midiSha1": "b0c5a2d8636002f0ce72d008a646a18002a212d3"
  }
]