[
  {
    "code": "Cajon_ChapMen_1",
    "kind": "drum",
    "family": "Drum",
    "modelType": "dmachine_model",
    "subtype": "proller",
    "bpm": 85,
    "beat": "4/4",
    "bnum": 44,
    "noteCount": 30,
    "midi": "pattern_midis/Cajon_ChapMen_1.mid",
    "notes": [
      {
        "beat": 0,
        "duration": 0.20000000298023224,
        "pitch": 25,
        "velocity": 123
      },
      {
        "beat": 0,
        "duration": 0.375,
        "pitch": 27,
        "velocity": 85
      },
      {
        "beat": 0,
        "duration": 0.5,
        "pitch": 35,
        "velocity": 100
      },
      {
        "beat": 0,
        "duration": 0.20000000298023224,
        "pitch": 41,
        "velocity": 68
      },
      {
        "beat": 0.300000011920929,
        "duration": 0.2645833194255829,
        "pitch": 44,
        "velocity": 55
      },
      {
        "beat": 0.5,
        "duration": 0.34583333134651184,
        "pitch": 38,
        "velocity": 54
      },
      {
        "beat": 0.5,
        "duration": 0.14791665971279144,
        "pitch": 43,
        "velocity": 78
      },
      {
        "beat": 0.75,
        "duration": 0.5,
        "pitch": 35,
        "velocity": 50
      },
      {
        "beat": 0.800000011920929,
        "duration": 0.25,
        "pitch": 44,
        "velocity": 49
      },
      {
        "beat": 1,
        "duration": 0.5083333253860474,
        "pitch": 36,
        "velocity": 101
      },
      {
        "beat": 1,
        "duration": 0.2395833283662796,
        "pitch": 41,
        "velocity": 65
      },
      {
        "beat": 1.2999999523162842,
        "duration": 0.268750011920929,
        "pitch": 44,
        "velocity": 57
      },
      {
        "beat": 1.5,
        "duration": 0.606249988079071,
        "pitch": 35,
        "velocity": 98
      },
      {
        "beat": 1.5,
        "duration": 2.535416603088379,
        "pitch": 38,
        "velocity": 56
      },
      {
        "beat": 1.5,
        "duration": 0.12083332985639572,
        "pitch": 43,
        "velocity": 24
      },
      {
        "beat": 1.7999999523162842,
        "duration": 0.22291666269302368,
        "pitch": 44,
        "velocity": 26
      },
      {
        "beat": 2,
        "duration": 0.18958333134651184,
        "pitch": 41,
        "velocity": 57
      },
      {
        "beat": 2.25,
        "duration": 0.5,
        "pitch": 36,
        "velocity": 50
      },
      {
        "beat": 2.299999952316284,
        "duration": 0.25833332538604736,
        "pitch": 44,
        "velocity": 53
      },
      {
        "beat": 2.5,
        "duration": 0.3499999940395355,
        "pitch": 27,
        "velocity": 85
      },
      {
        "beat": 2.5,
        "duration": 0.9708333611488342,
        "pitch": 35,
        "velocity": 96
      },
      {
        "beat": 2.5,
        "duration": 0.1979166716337204,
        "pitch": 43,
        "velocity": 53
      },
      {
        "beat": 2.799999952316284,
        "duration": 0.2291666716337204,
        "pitch": 44,
        "velocity": 27
      },
      {
        "beat": 3,
        "duration": 1.1416666507720947,
        "pitch": 25,
        "velocity": 120
      },
      {
        "beat": 3,
        "duration": 0.5541666746139526,
        "pitch": 36,
        "velocity": 101
      },
      {
        "beat": 3,
        "duration": 0.20000000298023224,
        "pitch": 41,
        "velocity": 68
      },
      {
        "beat": 3.299999952316284,
        "duration": 0.262499988079071,
        "pitch": 44,
        "velocity": 41
      },
      {
        "beat": 3.5,
        "duration": 0.5,
        "pitch": 35,
        "velocity": 50
      },
      {
        "beat": 3.5,
        "duration": 0.16249999403953552,
        "pitch": 43,
        "velocity": 41
      },
      {
        "beat": 3.799999952316284,
        "duration": 0.1666666716337204,
        "pitch": 44,
        "velocity": 17
      }
    ],
    "crc32": 1418615017,
    "midiSize": 266,
    "midiSha1": "b3bbab3b2e18a11bb7f163e89e9ff7f54eda42c7"
  },
  {
    "code": "Cajon_ChapMen_10",
    "kind": "drum",
    "family": "Drum",
    "modelType": "dmachine_model",
    "subtype": "proller",
    "bpm": 110,
    "beat": "4/4",
    "bnum": 44,
    "noteCount": 13,
    "midi": "pattern_midis/Cajon_ChapMen_10.mid",
    "notes": [
      {
        "beat": 0,
        "duration": 0.4479166567325592,
        "pitch": 35,
        "velocity": 71
      },
      {
        "beat": 0.0020833334419876337,
        "duration": 0.4625000059604645,
        "pitch": 41,
        "velocity": 55
      },
      {
        "beat": 0.7520833611488342,
        "duration": 0.1458333283662796,
        "pitch": 41,
        "velocity": 35
      },
      {
        "beat": 1,
        "duration": 0.3499999940395355,
        "pitch": 36,
        "velocity": 72
      },
      {
        "beat": 1.0020833015441895,
        "duration": 0.4625000059604645,
        "pitch": 41,
        "velocity": 55
      },
      {
        "beat": 1.7520833015441895,
        "duration": 0.1458333283662796,
        "pitch": 41,
        "velocity": 35
      },
      {
        "beat": 2,
        "duration": 0.4479166567325592,
        "pitch": 35,
        "velocity": 71
      },
      {
        "beat": 2.00208330154419,
        "duration": 0.4625000059604645,
        "pitch": 41,
        "velocity": 55
      },
      {
        "beat": 2.75208330154419,
        "duration": 0.1458333283662796,
        "pitch": 41,
        "velocity": 35
      },
      {
        "beat": 3,
        "duration": 0.4625000059604645,
        "pitch": 41,
        "velocity": 55
      },
      {
        "beat": 3.00208330154419,
        "duration": 0.3499999940395355,
        "pitch": 36,
        "velocity": 72
      },
      {
        "beat": 3.00208330154419,
        "duration": 0.12916666269302368,
        "pitch": 38,
        "velocity": 55
      },
      {
        "beat": 3.75208330154419,
        "duration": 0.1458333283662796,
        "pitch": 41,
        "velocity": 35
      }
    ],
    "crc32": 3833663487,
    "midiSize": 162,
    "midiSha1": "50ef78842f2a6a2724fb5e3d77999561161d69b0"
  },
  {
    "code": "Cajon_ChapMen_11",
    "kind": "drum",
    "family": "Drum",
    "modelType": "dmachine_model",
    "subtype": "proller",
    "bpm": 110,
    "beat": "4/4",
    "bnum": 44,
    "noteCount": 19,
    "midi": "pattern_midis/Cajon_ChapMen_11.mid",
    "notes": [
      {
        "beat": 0,
        "duration": 0.4479166567325592,
        "pitch": 35,
        "velocity": 71
      },
      {
        "beat": 0,
        "duration": 0.1875,
        "pitch": 42,
        "velocity": 51
      },
      {
        "beat": 0.75,
        "duration": 0.1041666641831398,
        "pitch": 44,
        "velocity": 20
      },
      {
        "beat": 1,
        "duration": 0.3499999940395355,
        "pitch": 36,
        "velocity": 82
      },
      {
        "beat": 1,
        "duration": 0.1875,
        "pitch": 41,
        "velocity": 51
      },
      {
        "beat": 1.75,
        "duration": 0.1041666641831398,
        "pitch": 44,
        "velocity": 20
      },
      {
        "beat": 2,
        "duration": 0.4479166567325592,
        "pitch": 35,
        "velocity": 71
      },
      {
        "beat": 2,
        "duration": 0.1875,
        "pitch": 42,
        "velocity": 51
      },
      {
        "beat": 2.75,
        "duration": 0.1041666641831398,
        "pitch": 44,
        "velocity": 20
      },
      {
        "beat": 3,
        "duration": 0.1458333283662796,
        "pitch": 27,
        "velocity": 61
      },
      {
        "beat": 3,
        "duration": 0.19583334028720856,
        "pitch": 32,
        "velocity": 30
      },
      {
        "beat": 3,
        "duration": 0.125,
        "pitch": 36,
        "velocity": 82
      },
      {
        "beat": 3,
        "duration": 0.1875,
        "pitch": 41,
        "velocity": 51
      },
      {
        "beat": 3.00208330154419,
        "duration": 0.12916666269302368,
        "pitch": 29,
        "velocity": 55
      },
      {
        "beat": 3.25,
        "duration": 0.2291666716337204,
        "pitch": 33,
        "velocity": 50
      },
      {
        "beat": 3.75,
        "duration": 0.1458333283662796,
        "pitch": 26,
        "velocity": 56
      },
      {
        "beat": 3.75,
        "duration": 0.15625,
        "pitch": 33,
        "velocity": 43
      },
      {
        "beat": 3.75,
        "duration": 0.15000000596046448,
        "pitch": 35,
        "velocity": 35
      },
      {
        "beat": 3.75,
        "duration": 0.1041666641831398,
        "pitch": 44,
        "velocity": 20
      }
    ],
    "crc32": 3936417837,
    "midiSize": 197,
    "midiSha1": "de1a3ba7fd81d0ba7fec400dd658388a84d658f5"
  },
  {
    "code": "Cajon_ChapMen_12",
    "kind": "drum",
    "family": "Drum",
    "modelType": "dmachine_model",
    "subtype": "proller",
    "bpm": 108,
    "beat": "4/4",
    "bnum": 44,
    "noteCount": 17,
    "midi": "pattern_midis/Cajon_ChapMen_12.mid",
    "notes": [
      {
        "beat": 0,
        "duration": 0.20000000298023224,
        "pitch": 25,
        "velocity": 123
      },
      {
        "beat": 0,
        "duration": 0.375,
        "pitch": 27,
        "velocity": 85
      },
      {
        "beat": 0,
        "duration": 0.5,
        "pitch": 35,
        "velocity": 100
      },
      {
        "beat": 0,
        "duration": 0.34583333134651184,
        "pitch": 38,
        "velocity": 35
      },
      {
        "beat": 0.5,
        "duration": 0.25,
        "pitch": 35,
        "velocity": 15
      },
      {
        "beat": 0.75,
        "duration": 0.25,
        "pitch": 36,
        "velocity": 101
      },
      {
        "beat": 1,
        "duration": 0.25,
        "pitch": 35,
        "velocity": 1
      },
      {
        "beat": 1.5,
        "duration": 0.5,
        "pitch": 35,
        "velocity": 98
      },
      {
        "beat": 1.5,
        "duration": 2.3333332538604736,
        "pitch": 38,
        "velocity": 37
      },
      {
        "beat": 2,
        "duration": 0.25,
        "pitch": 35,
        "velocity": 1
      },
      {
        "beat": 2.25,
        "duration": 0.25,
        "pitch": 36,
        "velocity": 50
      },
      {
        "beat": 2.5,
        "duration": 0.3499999940395355,
        "pitch": 27,
        "velocity": 39
      },
      {
        "beat": 2.5,
        "duration": 0.5,
        "pitch": 35,
        "velocity": 96
      },
      {
        "beat": 2.5,
        "duration": 0.25,
        "pitch": 36,
        "velocity": 30
      },
      {
        "beat": 3,
        "duration": 1.1416666507720947,
        "pitch": 25,
        "velocity": 60
      },
      {
        "beat": 3,
        "duration": 0.5,
        "pitch": 36,
        "velocity": 101
      },
      {
        "beat": 3.5,
        "duration": 0.5,
        "pitch": 35,
        "velocity": 50
      }
    ],
    "crc32": 2324570750,
    "midiSize": 184,
    "midiSha1": "ea095418f00d15571b5704f3a37b3a3c072c52d2"
  },
  {
    "code": "Cajon_ChapMen_13",
    "kind": "drum",
    "family": "Drum",
    "modelType": "dmachine_model",
    "subtype": "proller",
    "bpm": 108,
    "beat": "4/4",
    "bnum": 44,
    "noteCount": 34,
    "midi": "pattern_midis/Cajon_ChapMen_13.mid",
    "notes": [
      {
        "beat": 0,
        "duration": 1,
        "pitch": 25,
        "velocity": 89
      },
      {
        "beat": 0,
        "duration": 0.5,
        "pitch": 27,
        "velocity": 90
      },
      {
        "beat": 0,
        "duration": 1.5,
        "pitch": 29,
        "velocity": 32
      },
      {
        "beat": 0,
        "duration": 0.46041667461395264,
        "pitch": 35,
        "velocity": 127
      },
      {
        "beat": 0,
        "duration": 0.46875,
        "pitch": 38,
        "velocity": 65
      },
      {
        "beat": 0,
        "duration": 0.25,
        "pitch": 42,
        "velocity": 12
      },
      {
        "beat": 0.25,
        "duration": 0.2645833194255829,
        "pitch": 41,
        "velocity": 23
      },
      {
        "beat": 0.5,
        "duration": 0.20000000298023224,
        "pitch": 36,
        "velocity": 1
      },
      {
        "beat": 0.5,
        "duration": 0.2708333432674408,
        "pitch": 44,
        "velocity": 21
      },
      {
        "beat": 0.75,
        "duration": 0.1354166716337204,
        "pitch": 35,
        "velocity": 7
      },
      {
        "beat": 0.75,
        "duration": 0.24791666865348816,
        "pitch": 43,
        "velocity": 16
      },
      {
        "beat": 1,
        "duration": 0.46041667461395264,
        "pitch": 28,
        "velocity": 48
      },
      {
        "beat": 1,
        "duration": 0.18958333134651184,
        "pitch": 36,
        "velocity": 90
      },
      {
        "beat": 1,
        "duration": 0.25,
        "pitch": 42,
        "velocity": 12
      },
      {
        "beat": 1.25,
        "duration": 0.2645833194255829,
        "pitch": 41,
        "velocity": 1
      },
      {
        "beat": 1.5,
        "duration": 0.18958333134651184,
        "pitch": 35,
        "velocity": 90
      },
      {
        "beat": 1.5,
        "duration": 0.2708333432674408,
        "pitch": 44,
        "velocity": 5
      },
      {
        "beat": 1.75,
        "duration": 0.24791666865348816,
        "pitch": 43,
        "velocity": 16
      },
      {
        "beat": 2,
        "duration": 0.46875,
        "pitch": 38,
        "velocity": 65
      },
      {
        "beat": 2,
        "duration": 0.25,
        "pitch": 42,
        "velocity": 12
      },
      {
        "beat": 2.25,
        "duration": 0.18958333134651184,
        "pitch": 36,
        "velocity": 7
      },
      {
        "beat": 2.25,
        "duration": 0.2645833194255829,
        "pitch": 41,
        "velocity": 23
      },
      {
        "beat": 2.5,
        "duration": 0.5,
        "pitch": 25,
        "velocity": 15
      },
      {
        "beat": 2.5,
        "duration": 0.1875,
        "pitch": 35,
        "velocity": 91
      },
      {
        "beat": 2.5,
        "duration": 0.2708333432674408,
        "pitch": 44,
        "velocity": 21
      },
      {
        "beat": 2.75,
        "duration": 0.18958333134651184,
        "pitch": 35,
        "velocity": 1
      },
      {
        "beat": 2.75,
        "duration": 0.24791666865348816,
        "pitch": 43,
        "velocity": 16
      },
      {
        "beat": 3,
        "duration": 1.5,
        "pitch": 29,
        "velocity": 32
      },
      {
        "beat": 3,
        "duration": 0.1875,
        "pitch": 36,
        "velocity": 90
      },
      {
        "beat": 3,
        "duration": 0.25,
        "pitch": 42,
        "velocity": 12
      },
      {
        "beat": 3.25,
        "duration": 0.2645833194255829,
        "pitch": 41,
        "velocity": 1
      },
      {
        "beat": 3.5,
        "duration": 0.18958333134651184,
        "pitch": 35,
        "velocity": 7
      },
      {
        "beat": 3.5,
        "duration": 0.2708333432674408,
        "pitch": 44,
        "velocity": 5
      },
      {
        "beat": 3.75,
        "duration": 0.24791666865348816,
        "pitch": 43,
        "velocity": 16
      }
    ],
    "crc32": 3194370127,
    "midiSize": 294,
    "midiSha1": "d0fb13bfce3f195313637fb14654cf56ddac9a7a"
  },
  {
    "code": "Cajon_ChapMen_14",
    "kind": "drum",
    "family": "Drum",
    "modelType": "dmachine_model",
    "subtype": "proller",
    "bpm": 70,
    "beat": "4/4",
    "bnum": 44,
    "noteCount": 7,
    "midi": "pattern_midis/Cajon_ChapMen_14.mid",
    "notes": [
      {
        "beat": 0,
        "duration": 0.5,
        "pitch": 35,
        "velocity": 100
      },
      {
        "beat": 0.5,
        "duration": 0.5,
        "pitch": 35,
        "velocity": 1
      },
      {
        "beat": 1,
        "duration": 0.25,
        "pitch": 36,
        "velocity": 101
      },
      {
        "beat": 2.25,
        "duration": 0.25,
        "pitch": 35,
        "velocity": 50
      },
      {
        "beat": 2.5,
        "duration": 0.5,
        "pitch": 35,
        "velocity": 96
      },
      {
        "beat": 3,
        "duration": 0.5,
        "pitch": 36,
        "velocity": 101
      },
      {
        "beat": 3.5,
        "duration": 0.5,
        "pitch": 35,
        "velocity": 1
      }
    ],
    "crc32": 2535837427,
    "midiSize": 119,
    "midiSha1": "0271361516ea3ac15a72b5a3db63805b56096103"
  },
  {
    "code": "Cajon_ChapMen_15",
    "kind": "drum",
    "family": "Drum",
    "modelType": "dmachine_model",
    "subtype": "proller",
    "bpm": 70,
    "beat": "4/4",
    "bnum": 44,
    "noteCount": 29,
    "midi": "pattern_midis/Cajon_ChapMen_15.mid",
    "notes": [
      {
        "beat": 0,
        "duration": 0.20000000298023224,
        "pitch": 25,
        "velocity": 123
      },
      {
        "beat": 0,
        "duration": 0.375,
        "pitch": 27,
        "velocity": 71
      },
      {
        "beat": 0,
        "duration": 0.5,
        "pitch": 35,
        "velocity": 100
      },
      {
        "beat": 0,
        "duration": 0.34583333134651184,
        "pitch": 38,
        "velocity": 54
      },
      {
        "beat": 0,
        "duration": 0.20000000298023224,
        "pitch": 41,
        "velocity": 40
      },
      {
        "beat": 0.27916666865348816,
        "duration": 0.2645833194255829,
        "pitch": 44,
        "velocity": 11
      },
      {
        "beat": 0.5,
        "duration": 0.14791665971279144,
        "pitch": 43,
        "velocity": 20
      },
      {
        "beat": 0.75,
        "duration": 0.25,
        "pitch": 35,
        "velocity": 1
      },
      {
        "beat": 0.7791666388511658,
        "duration": 0.25,
        "pitch": 44,
        "velocity": 5
      },
      {
        "beat": 1,
        "duration": 0.5083333253860474,
        "pitch": 36,
        "velocity": 101
      },
      {
        "beat": 1,
        "duration": 0.2395833283662796,
        "pitch": 41,
        "velocity": 37
      },
      {
        "beat": 1.2791666984558105,
        "duration": 0.268750011920929,
        "pitch": 44,
        "velocity": 13
      },
      {
        "beat": 1.5,
        "duration": 0.12083332985639572,
        "pitch": 43,
        "velocity": 1
      },
      {
        "beat": 1.75,
        "duration": 0.25,
        "pitch": 36,
        "velocity": 50
      },
      {
        "beat": 1.7791666984558105,
        "duration": 0.22291666269302368,
        "pitch": 44,
        "velocity": 1
      },
      {
        "beat": 2,
        "duration": 0.18958333134651184,
        "pitch": 41,
        "velocity": 29
      },
      {
        "beat": 2.25,
        "duration": 0.25,
        "pitch": 36,
        "velocity": 79
      },
      {
        "beat": 2.27916669845581,
        "duration": 0.25833332538604736,
        "pitch": 44,
        "velocity": 9
      },
      {
        "beat": 2.5,
        "duration": 0.3499999940395355,
        "pitch": 27,
        "velocity": 71
      },
      {
        "beat": 2.5,
        "duration": 0.5,
        "pitch": 35,
        "velocity": 96
      },
      {
        "beat": 2.5,
        "duration": 0.1979166716337204,
        "pitch": 43,
        "velocity": 13
      },
      {
        "beat": 2.77916669845581,
        "duration": 0.2291666716337204,
        "pitch": 44,
        "velocity": 1
      },
      {
        "beat": 3,
        "duration": 1.1416666507720947,
        "pitch": 25,
        "velocity": 50
      },
      {
        "beat": 3,
        "duration": 0.5541666746139526,
        "pitch": 36,
        "velocity": 101
      },
      {
        "beat": 3,
        "duration": 0.20000000298023224,
        "pitch": 41,
        "velocity": 40
      },
      {
        "beat": 3.27916669845581,
        "duration": 0.262499988079071,
        "pitch": 44,
        "velocity": 15
      },
      {
        "beat": 3.5,
        "duration": 0.5,
        "pitch": 35,
        "velocity": 50
      },
      {
        "beat": 3.5,
        "duration": 0.16249999403953552,
        "pitch": 43,
        "velocity": 1
      },
      {
        "beat": 3.77916669845581,
        "duration": 0.1666666716337204,
        "pitch": 44,
        "velocity": 7
      }
    ],
    "crc32": 892234215,
    "midiSize": 257,
    "midiSha1": "9cca2ab51882f17e6cb10bb2e83ffa46e9784e39"
  },
  {
    "code": "Cajon_ChapMen_2",
    "kind": "drum",
    "family": "Drum",
    "modelType": "dmachine_model",
    "subtype": "proller",
    "bpm": 96,
    "beat": "4/4",
    "bnum": 44,
    "noteCount": 36,
    "midi": "pattern_midis/Cajon_ChapMen_2.mid",
    "notes": [
      {
        "beat": 0,
        "duration": 1,
        "pitch": 25,
        "velocity": 89
      },
      {
        "beat": 0,
        "duration": 0.46041667461395264,
        "pitch": 35,
        "velocity": 127
      },
      {
        "beat": 0,
        "duration": 0.46875,
        "pitch": 38,
        "velocity": 89
      },
      {
        "beat": 0,
        "duration": 0.25,
        "pitch": 42,
        "velocity": 20
      },
      {
        "beat": 0.25,
        "duration": 0.25,
        "pitch": 36,
        "velocity": 7
      },
      {
        "beat": 0.25,
        "duration": 0.2645833194255829,
        "pitch": 41,
        "velocity": 23
      },
      {
        "beat": 0.5,
        "duration": 0.20000000298023224,
        "pitch": 35,
        "velocity": 16
      },
      {
        "beat": 0.5,
        "duration": 0.2708333432674408,
        "pitch": 44,
        "velocity": 29
      },
      {
        "beat": 0.75,
        "duration": 0.1354166716337204,
        "pitch": 35,
        "velocity": 33
      },
      {
        "beat": 0.75,
        "duration": 0.24791666865348816,
        "pitch": 43,
        "velocity": 24
      },
      {
        "beat": 1,
        "duration": 1.5,
        "pitch": 29,
        "velocity": 48
      },
      {
        "beat": 1,
        "duration": 0.18958333134651184,
        "pitch": 36,
        "velocity": 76
      },
      {
        "beat": 1,
        "duration": 0.25,
        "pitch": 42,
        "velocity": 20
      },
      {
        "beat": 1.25,
        "duration": 0.18958333134651184,
        "pitch": 36,
        "velocity": 1
      },
      {
        "beat": 1.25,
        "duration": 0.2645833194255829,
        "pitch": 41,
        "velocity": 1
      },
      {
        "beat": 1.5,
        "duration": 0.18958333134651184,
        "pitch": 35,
        "velocity": 16
      },
      {
        "beat": 1.5,
        "duration": 0.2708333432674408,
        "pitch": 44,
        "velocity": 13
      },
      {
        "beat": 1.75,
        "duration": 0.1875,
        "pitch": 35,
        "velocity": 64
      },
      {
        "beat": 1.75,
        "duration": 0.24791666865348816,
        "pitch": 43,
        "velocity": 24
      },
      {
        "beat": 2,
        "duration": 0.46875,
        "pitch": 38,
        "velocity": 89
      },
      {
        "beat": 2,
        "duration": 0.25,
        "pitch": 42,
        "velocity": 20
      },
      {
        "beat": 2.25,
        "duration": 0.18958333134651184,
        "pitch": 36,
        "velocity": 7
      },
      {
        "beat": 2.25,
        "duration": 0.2645833194255829,
        "pitch": 41,
        "velocity": 23
      },
      {
        "beat": 2.5,
        "duration": 0.5,
        "pitch": 25,
        "velocity": 15
      },
      {
        "beat": 2.5,
        "duration": 0.1875,
        "pitch": 35,
        "velocity": 34
      },
      {
        "beat": 2.5,
        "duration": 0.2708333432674408,
        "pitch": 44,
        "velocity": 29
      },
      {
        "beat": 2.75,
        "duration": 0.11249999701976776,
        "pitch": 35,
        "velocity": 78
      },
      {
        "beat": 2.75,
        "duration": 0.24791666865348816,
        "pitch": 43,
        "velocity": 24
      },
      {
        "beat": 3,
        "duration": 1.5,
        "pitch": 29,
        "velocity": 50
      },
      {
        "beat": 3,
        "duration": 0.1875,
        "pitch": 36,
        "velocity": 76
      },
      {
        "beat": 3,
        "duration": 0.25,
        "pitch": 42,
        "velocity": 20
      },
      {
        "beat": 3.25,
        "duration": 0.18958333134651184,
        "pitch": 36,
        "velocity": 7
      },
      {
        "beat": 3.25,
        "duration": 0.2645833194255829,
        "pitch": 41,
        "velocity": 1
      },
      {
        "beat": 3.5,
        "duration": 0.15625,
        "pitch": 35,
        "velocity": 57
      },
      {
        "beat": 3.5,
        "duration": 0.2708333432674408,
        "pitch": 44,
        "velocity": 13
      },
      {
        "beat": 3.75,
        "duration": 0.24791666865348816,
        "pitch": 43,
        "velocity": 24
      }
    ],
    "crc32": 1110910360,
    "midiSize": 305,
    "midiSha1": "2c7c59cce0c52a12a29509bf1cce4dacd11dbd40"
  },
  {
    "code": "Cajon_ChapMen_3",
    "kind": "drum",
    "family": "Drum",
    "modelType": "dmachine_model",
    "subtype": "proller",
    "bpm": 85,
    "beat": "4/4",
    "bnum": 44,
    "noteCount": 14,
    "midi": "pattern_midis/Cajon_ChapMen_3.mid",
    "notes": [
      {
        "beat": 0,
        "duration": 0.20000000298023224,
        "pitch": 25,
        "velocity": 123
      },
      {
        "beat": 0,
        "duration": 0.375,
        "pitch": 27,
        "velocity": 85
      },
      {
        "beat": 0,
        "duration": 0.20000000298023224,
        "pitch": 29,
        "velocity": 58
      },
      {
        "beat": 0,
        "duration": 0.5,
        "pitch": 35,
        "velocity": 100
      },
      {
        "beat": 0,
        "duration": 0.449999988079071,
        "pitch": 41,
        "velocity": 68
      },
      {
        "beat": 1,
        "duration": 0.3333333432674408,
        "pitch": 43,
        "velocity": 78
      },
      {
        "beat": 1,
        "duration": 0.5083333253860474,
        "pitch": 36,
        "velocity": 101
      },
      {
        "beat": 2,
        "duration": 0.3499999940395355,
        "pitch": 27,
        "velocity": 85
      },
      {
        "beat": 2,
        "duration": 0.9708333611488342,
        "pitch": 35,
        "velocity": 96
      },
      {
        "beat": 2,
        "duration": 2.035416603088379,
        "pitch": 38,
        "velocity": 23
      },
      {
        "beat": 2,
        "duration": 0.5395833253860474,
        "pitch": 41,
        "velocity": 65
      },
      {
        "beat": 3,
        "duration": 1.1416666507720947,
        "pitch": 25,
        "velocity": 120
      },
      {
        "beat": 3,
        "duration": 0.5541666746139526,
        "pitch": 36,
        "velocity": 101
      },
      {
        "beat": 3,
        "duration": 0.2708333432674408,
        "pitch": 43,
        "velocity": 24
      }
    ],
    "crc32": 2655597958,
    "midiSize": 160,
    "midiSha1": "da4fad4aaaed492f408ac3863e9050b4363baafc"
  },
  {
    "code": "Cajon_ChapMen_4",
    "kind": "drum",
    "family": "Drum",
    "modelType": "dmachine_model",
    "subtype": "proller",
    "bpm": 85,
    "beat": "4/4",
    "bnum": 44,
    "noteCount": 20,
    "midi": "pattern_midis/Cajon_ChapMen_4.mid",
    "notes": [
      {
        "beat": 0,
        "duration": 0.20000000298023224,
        "pitch": 25,
        "velocity": 123
      },
      {
        "beat": 0,
        "duration": 0.375,
        "pitch": 27,
        "velocity": 85
      },
      {
        "beat": 0,
        "duration": 0.20000000298023224,
        "pitch": 29,
        "velocity": 58
      },
      {
        "beat": 0,
        "duration": 0.5,
        "pitch": 35,
        "velocity": 100
      },
      {
        "beat": 0,
        "duration": 0.449999988079071,
        "pitch": 41,
        "velocity": 68
      },
      {
        "beat": 0.4749999940395355,
        "duration": 0.5958333611488342,
        "pitch": 44,
        "velocity": 55
      },
      {
        "beat": 0.5,
        "duration": 0.34583333134651184,
        "pitch": 38,
        "velocity": 54
      },
      {
        "beat": 1,
        "duration": 0.3333333432674408,
        "pitch": 43,
        "velocity": 78
      },
      {
        "beat": 1,
        "duration": 0.5083333253860474,
        "pitch": 36,
        "velocity": 101
      },
      {
        "beat": 1.5,
        "duration": 0.5625,
        "pitch": 44,
        "velocity": 49
      },
      {
        "beat": 2,
        "duration": 0.3499999940395355,
        "pitch": 27,
        "velocity": 85
      },
      {
        "beat": 2,
        "duration": 0.9708333611488342,
        "pitch": 35,
        "velocity": 96
      },
      {
        "beat": 2,
        "duration": 2.035416603088379,
        "pitch": 38,
        "velocity": 56
      },
      {
        "beat": 2,
        "duration": 0.5395833253860474,
        "pitch": 41,
        "velocity": 65
      },
      {
        "beat": 2.5,
        "duration": 0.6041666865348816,
        "pitch": 44,
        "velocity": 57
      },
      {
        "beat": 3,
        "duration": 1.1416666507720947,
        "pitch": 25,
        "velocity": 120
      },
      {
        "beat": 3,
        "duration": 0.5541666746139526,
        "pitch": 36,
        "velocity": 101
      },
      {
        "beat": 3,
        "duration": 0.2708333432674408,
        "pitch": 43,
        "velocity": 24
      },
      {
        "beat": 3.5,
        "duration": 0.5,
        "pitch": 35,
        "velocity": 25
      },
      {
        "beat": 3.5,
        "duration": 0.5,
        "pitch": 44,
        "velocity": 26
      }
    ],
    "crc32": 3170352343,
    "midiSize": 201,
    "midiSha1": "c7ec1a6dcb9bb730a6f7ea67847417723f70b7bc"
  },
  {
    "code": "Cajon_ChapMen_5",
    "kind": "drum",
    "family": "Drum",
    "modelType": "dmachine_model",
    "subtype": "proller",
    "bpm": 85,
    "beat": "4/4",
    "bnum": 44,
    "noteCount": 28,
    "midi": "pattern_midis/Cajon_ChapMen_5.mid",
    "notes": [
      {
        "beat": 0,
        "duration": 0.20000000298023224,
        "pitch": 25,
        "velocity": 123
      },
      {
        "beat": 0,
        "duration": 0.375,
        "pitch": 27,
        "velocity": 85
      },
      {
        "beat": 0,
        "duration": 0.20000000298023224,
        "pitch": 29,
        "velocity": 61
      },
      {
        "beat": 0,
        "duration": 0.5,
        "pitch": 35,
        "velocity": 100
      },
      {
        "beat": 0,
        "duration": 0.20000000298023224,
        "pitch": 41,
        "velocity": 62
      },
      {
        "beat": 0.300000011920929,
        "duration": 0.2645833194255829,
        "pitch": 44,
        "velocity": 49
      },
      {
        "beat": 0.5,
        "duration": 0.34583333134651184,
        "pitch": 38,
        "velocity": 54
      },
      {
        "beat": 0.5,
        "duration": 0.14791665971279144,
        "pitch": 43,
        "velocity": 72
      },
      {
        "beat": 0.800000011920929,
        "duration": 0.25,
        "pitch": 44,
        "velocity": 43
      },
      {
        "beat": 1,
        "duration": 0.5083333253860474,
        "pitch": 36,
        "velocity": 101
      },
      {
        "beat": 1,
        "duration": 0.2395833283662796,
        "pitch": 41,
        "velocity": 59
      },
      {
        "beat": 1.2999999523162842,
        "duration": 0.268750011920929,
        "pitch": 44,
        "velocity": 51
      },
      {
        "beat": 1.5,
        "duration": 0.12083332985639572,
        "pitch": 43,
        "velocity": 18
      },
      {
        "beat": 1.7999999523162842,
        "duration": 0.22291666269302368,
        "pitch": 44,
        "velocity": 20
      },
      {
        "beat": 2,
        "duration": 0.3499999940395355,
        "pitch": 27,
        "velocity": 85
      },
      {
        "beat": 2,
        "duration": 0.9708333611488342,
        "pitch": 35,
        "velocity": 96
      },
      {
        "beat": 2,
        "duration": 2.035416603088379,
        "pitch": 38,
        "velocity": 56
      },
      {
        "beat": 2,
        "duration": 0.18958333134651184,
        "pitch": 41,
        "velocity": 51
      },
      {
        "beat": 2.299999952316284,
        "duration": 0.25833332538604736,
        "pitch": 44,
        "velocity": 47
      },
      {
        "beat": 2.5,
        "duration": 0.1979166716337204,
        "pitch": 43,
        "velocity": 47
      },
      {
        "beat": 2.799999952316284,
        "duration": 0.2291666716337204,
        "pitch": 44,
        "velocity": 21
      },
      {
        "beat": 3,
        "duration": 1.1416666507720947,
        "pitch": 25,
        "velocity": 120
      },
      {
        "beat": 3,
        "duration": 0.5541666746139526,
        "pitch": 36,
        "velocity": 101
      },
      {
        "beat": 3,
        "duration": 0.20000000298023224,
        "pitch": 41,
        "velocity": 62
      },
      {
        "beat": 3.299999952316284,
        "duration": 0.262499988079071,
        "pitch": 44,
        "velocity": 35
      },
      {
        "beat": 3.5,
        "duration": 0.5,
        "pitch": 35,
        "velocity": 25
      },
      {
        "beat": 3.5,
        "duration": 0.16249999403953552,
        "pitch": 43,
        "velocity": 35
      },
      {
        "beat": 3.799999952316284,
        "duration": 0.1666666716337204,
        "pitch": 44,
        "velocity": 11
      }
    ],
    "crc32": 1037102087,
    "midiSize": 254,
    "midiSha1": "7662033e56d419e766b563fc1c71c98cc899461c"
  },
  {
    "code": "Cajon_ChapMen_6",
    "kind": "drum",
    "family": "Drum",
    "modelType": "dmachine_model",
    "subtype": "proller",
    "bpm": 115,
    "beat": "4/4",
    "bnum": 43,
    "noteCount": 14,
    "midi": "pattern_midis/Cajon_ChapMen_6.mid",
    "notes": [
      {
        "beat": 0,
        "duration": 0.6666666865348816,
        "pitch": 25,
        "velocity": 33
      },
      {
        "beat": 0,
        "duration": 0.6666666865348816,
        "pitch": 27,
        "velocity": 33
      },
      {
        "beat": 0,
        "duration": 0.6666666865348816,
        "pitch": 29,
        "velocity": 56
      },
      {
        "beat": 0,
        "duration": 0.837499976158142,
        "pitch": 35,
        "velocity": 100
      },
      {
        "beat": 0,
        "duration": 0.912500023841858,
        "pitch": 41,
        "velocity": 61
      },
      {
        "beat": 1,
        "duration": 0.625,
        "pitch": 43,
        "velocity": 35
      },
      {
        "beat": 1.5,
        "duration": 1.2270833253860474,
        "pitch": 44,
        "velocity": 26
      },
      {
        "beat": 2,
        "duration": 0.6666666865348816,
        "pitch": 25,
        "velocity": 1
      },
      {
        "beat": 2,
        "duration": 0.5333333611488342,
        "pitch": 36,
        "velocity": 99
      },
      {
        "beat": 2,
        "duration": 0.5104166865348816,
        "pitch": 42,
        "velocity": 47
      },
      {
        "beat": 3,
        "duration": 0.6666666865348816,
        "pitch": 25,
        "velocity": 33
      },
      {
        "beat": 3,
        "duration": 0.6666666865348816,
        "pitch": 27,
        "velocity": 33
      },
      {
        "beat": 3,
        "duration": 0.8729166388511658,
        "pitch": 35,
        "velocity": 106
      },
      {
        "beat": 3,
        "duration": 1.0416666269302368,
        "pitch": 41,
        "velocity": 60
      }
    ],
    "crc32": 1832257887,
    "midiSize": 158,
    "midiSha1": "f5fea8cd17c43f3866272e3f96aae2a3890d4808"
  },
  {
    "code": "Cajon_ChapMen_7",
    "kind": "drum",
    "family": "Drum",
    "modelType": "dmachine_model",
    "subtype": "proller",
    "bpm": 86,
    "beat": "4/4",
    "bnum": 86,
    "noteCount": 25,
    "midi": "pattern_midis/Cajon_ChapMen_7.mid",
    "notes": [
      {
        "beat": 0,
        "duration": 0.7458333373069763,
        "pitch": 27,
        "velocity": 26
      },
      {
        "beat": 0,
        "duration": 1.1604167222976685,
        "pitch": 29,
        "velocity": 127
      },
      {
        "beat": 0,
        "duration": 1,
        "pitch": 35,
        "velocity": 120
      },
      {
        "beat": 0,
        "duration": 0.5,
        "pitch": 42,
        "velocity": 35
      },
      {
        "beat": 0.5,
        "duration": 0.1979166716337204,
        "pitch": 41,
        "velocity": 31
      },
      {
        "beat": 0.75,
        "duration": 0.18541666865348816,
        "pitch": 44,
        "velocity": 33
      },
      {
        "beat": 1,
        "duration": 0.5,
        "pitch": 35,
        "velocity": 32
      },
      {
        "beat": 1,
        "duration": 0.18541666865348816,
        "pitch": 43,
        "velocity": 12
      },
      {
        "beat": 1.25,
        "duration": 0.18541666865348816,
        "pitch": 44,
        "velocity": 12
      },
      {
        "beat": 1.5,
        "duration": 0.7458333373069763,
        "pitch": 25,
        "velocity": 77
      },
      {
        "beat": 1.5,
        "duration": 1,
        "pitch": 36,
        "velocity": 96
      },
      {
        "beat": 1.5,
        "duration": 0.5,
        "pitch": 42,
        "velocity": 35
      },
      {
        "beat": 2,
        "duration": 0.1979166716337204,
        "pitch": 41,
        "velocity": 31
      },
      {
        "beat": 2.25,
        "duration": 0.18541666865348816,
        "pitch": 44,
        "velocity": 33
      },
      {
        "beat": 2.5,
        "duration": 0.5,
        "pitch": 35,
        "velocity": 55
      },
      {
        "beat": 2.5,
        "duration": 0.5041666626930237,
        "pitch": 37,
        "velocity": 54
      },
      {
        "beat": 2.5,
        "duration": 0.18541666865348816,
        "pitch": 43,
        "velocity": 12
      },
      {
        "beat": 2.75,
        "duration": 0.18541666865348816,
        "pitch": 44,
        "velocity": 12
      },
      {
        "beat": 3,
        "duration": 0.7458333373069763,
        "pitch": 27,
        "velocity": 26
      },
      {
        "beat": 3,
        "duration": 1,
        "pitch": 35,
        "velocity": 127
      },
      {
        "beat": 3,
        "duration": 0.21041665971279144,
        "pitch": 38,
        "velocity": 38
      },
      {
        "beat": 3,
        "duration": 0.5,
        "pitch": 42,
        "velocity": 35
      },
      {
        "beat": 3.5,
        "duration": 0.1979166716337204,
        "pitch": 41,
        "velocity": 31
      },
      {
        "beat": 3.75,
        "duration": 0.5041666626930237,
        "pitch": 36,
        "velocity": 26
      },
      {
        "beat": 3.75,
        "duration": 0.18541666865348816,
        "pitch": 44,
        "velocity": 33
      }
    ],
    "crc32": 3121281902,
    "midiSize": 237,
    "midiSha1": "b5c7f4077dca2e9535b2918aa911902cb13010f6"
  },
  {
    "code": "Cajon_ChapMen_8",
    "kind": "drum",
    "family": "Drum",
    "modelType": "dmachine_model",
    "subtype": "proller",
    "bpm": 115,
    "beat": "4/4",
    "bnum": 43,
    "noteCount": 15,
    "midi": "pattern_midis/Cajon_ChapMen_8.mid",
    "notes": [
      {
        "beat": 0,
        "duration": 0.6666666865348816,
        "pitch": 25,
        "velocity": 33
      },
      {
        "beat": 0,
        "duration": 0.6666666865348816,
        "pitch": 27,
        "velocity": 33
      },
      {
        "beat": 0,
        "duration": 0.6666666865348816,
        "pitch": 29,
        "velocity": 56
      },
      {
        "beat": 0,
        "duration": 0.837499976158142,
        "pitch": 35,
        "velocity": 100
      },
      {
        "beat": 0,
        "duration": 0.912500023841858,
        "pitch": 41,
        "velocity": 61
      },
      {
        "beat": 1,
        "duration": 0.5333333611488342,
        "pitch": 36,
        "velocity": 69
      },
      {
        "beat": 1,
        "duration": 0.625,
        "pitch": 43,
        "velocity": 35
      },
      {
        "beat": 1.5,
        "duration": 1.2270833253860474,
        "pitch": 44,
        "velocity": 26
      },
      {
        "beat": 2,
        "duration": 0.6666666865348816,
        "pitch": 25,
        "velocity": 1
      },
      {
        "beat": 2,
        "duration": 0.5333333611488342,
        "pitch": 36,
        "velocity": 99
      },
      {
        "beat": 2,
        "duration": 0.5104166865348816,
        "pitch": 42,
        "velocity": 47
      },
      {
        "beat": 3,
        "duration": 0.6666666865348816,
        "pitch": 25,
        "velocity": 33
      },
      {
        "beat": 3,
        "duration": 0.6666666865348816,
        "pitch": 27,
        "velocity": 33
      },
      {
        "beat": 3,
        "duration": 0.8729166388511658,
        "pitch": 35,
        "velocity": 106
      },
      {
        "beat": 3,
        "duration": 1.0416666269302368,
        "pitch": 41,
        "velocity": 60
      }
    ],
    "crc32": 1555536175,
    "midiSize": 164,
    "midiSha1": "69edd568c505ac01e4c0664695e3d0531d65ebd3"
  },
  {
    "code": "Cajon_ChapMen_9",
    "kind": "drum",
    "family": "Drum",
    "modelType": "dmachine_model",
    "subtype": "proller",
    "bpm": 86,
    "beat": "4/4",
    "bnum": 86,
    "noteCount": 16,
    "midi": "pattern_midis/Cajon_ChapMen_9.mid",
    "notes": [
      {
        "beat": 0,
        "duration": 0.7458333373069763,
        "pitch": 27,
        "velocity": 26
      },
      {
        "beat": 0,
        "duration": 1.1604167222976685,
        "pitch": 29,
        "velocity": 127
      },
      {
        "beat": 0,
        "duration": 1,
        "pitch": 35,
        "velocity": 120
      },
      {
        "beat": 0,
        "duration": 0.5,
        "pitch": 42,
        "velocity": 35
      },
      {
        "beat": 0.5,
        "duration": 0.1979166716337204,
        "pitch": 41,
        "velocity": 31
      },
      {
        "beat": 1,
        "duration": 0.18541666865348816,
        "pitch": 44,
        "velocity": 33
      },
      {
        "beat": 1.5,
        "duration": 0.7458333373069763,
        "pitch": 25,
        "velocity": 77
      },
      {
        "beat": 1.5,
        "duration": 1,
        "pitch": 36,
        "velocity": 96
      },
      {
        "beat": 1.5,
        "duration": 0.5,
        "pitch": 42,
        "velocity": 35
      },
      {
        "beat": 2,
        "duration": 0.1979166716337204,
        "pitch": 41,
        "velocity": 31
      },
      {
        "beat": 2.5,
        "duration": 0.18541666865348816,
        "pitch": 44,
        "velocity": 33
      },
      {
        "beat": 3,
        "duration": 0.7458333373069763,
        "pitch": 27,
        "velocity": 26
      },
      {
        "beat": 3,
        "duration": 1,
        "pitch": 35,
        "velocity": 127
      },
      {
        "beat": 3,
        "duration": 0.21041665971279144,
        "pitch": 38,
        "velocity": 38
      },
      {
        "beat": 3,
        "duration": 0.5,
        "pitch": 42,
        "velocity": 35
      },
      {
        "beat": 3.5,
        "duration": 0.1979166716337204,
        "pitch": 41,
        "velocity": 31
      }
    ],
    "crc32": 1861408347,
    "midiSize": 173,
    "midiSha1": "d033a9b752f289ef841d91276b3ebaaa79fd4e3f"
  },
  {
    "code": "CityPOP_ChapMen_1",
    "kind": "drum",
    "family": "Drum",
    "modelType": "dmachine_model",
    "subtype": "proller",
    "bpm": 70,
    "beat": "4/4",
    "bnum": 44,
    "noteCount": 12,
    "midi": "pattern_midis/CityPOP_ChapMen_1.mid",
    "notes": [
      {
        "beat": 0.010416666977107525,
        "duration": 0.125,
        "pitch": 25,
        "velocity": 80
      },
      {
        "beat": 0.010416666977107525,
        "duration": 0.125,
        "pitch": 33,
        "velocity": 74
      },
      {
        "beat": 0.5104166865348816,
        "duration": 0.125,
        "pitch": 34,
        "velocity": 42
      },
      {
        "beat": 1.0104166269302368,
        "duration": 0.125,
        "pitch": 35,
        "velocity": 66
      },
      {
        "beat": 1.5104166269302368,
        "duration": 0.125,
        "pitch": 34,
        "velocity": 51
      },
      {
        "beat": 2.0104167461395264,
        "duration": 0.125,
        "pitch": 34,
        "velocity": 14
      },
      {
        "beat": 2.2604167461395264,
        "duration": 0.125,
        "pitch": 33,
        "velocity": 74
      },
      {
        "beat": 2.5104167461395264,
        "duration": 0.125,
        "pitch": 34,
        "velocity": 51
      },
      {
        "beat": 3.0104167461395264,
        "duration": 0.125,
        "pitch": 27,
        "velocity": 67
      },
      {
        "beat": 3.0104167461395264,
        "duration": 0.125,
        "pitch": 29,
        "velocity": 38
      },
      {
        "beat": 3.0104167461395264,
        "duration": 0.125,
        "pitch": 35,
        "velocity": 74
      },
      {
        "beat": 3.5104167461395264,
        "duration": 0.125,
        "pitch": 34,
        "velocity": 51
      }
    ],
    "crc32": 182035594,
    "midiSize": 158,
    "midiSha1": "53ea29e5066ab385e29ce69580122ceb5335f4dc"
  },
  {
    "code": "CityPOP_ChapMen_10",
    "kind": "drum",
    "family": "Drum",
    "modelType": "dmachine_model",
    "subtype": "proller",
    "bpm": 102,
    "beat": "4/4",
    "bnum": 44,
    "noteCount": 25,
    "midi": "pattern_midis/CityPOP_ChapMen_10.mid",
    "notes": [
      {
        "beat": 0,
        "duration": 0.18125000596046448,
        "pitch": 24,
        "velocity": 63
      },
      {
        "beat": 0,
        "duration": 0.23749999701976776,
        "pitch": 48,
        "velocity": 57
      },
      {
        "beat": 0.25,
        "duration": 0.3166666626930237,
        "pitch": 32,
        "velocity": 15
      },
      {
        "beat": 0.5,
        "duration": 0.4625000059604645,
        "pitch": 24,
        "velocity": 62
      },
      {
        "beat": 0.5020833611488342,
        "duration": 0.2770833373069763,
        "pitch": 34,
        "velocity": 42
      },
      {
        "beat": 0.7520833611488342,
        "duration": 0.27916666865348816,
        "pitch": 32,
        "velocity": 16
      },
      {
        "beat": 1,
        "duration": 0.1979166716337204,
        "pitch": 26,
        "velocity": 63
      },
      {
        "beat": 1,
        "duration": 0.1979166716337204,
        "pitch": 27,
        "velocity": 44
      },
      {
        "beat": 1.0020833015441895,
        "duration": 0.24791666865348816,
        "pitch": 34,
        "velocity": 41
      },
      {
        "beat": 1.25,
        "duration": 0.293749988079071,
        "pitch": 24,
        "velocity": 64
      },
      {
        "beat": 1.2520833015441895,
        "duration": 0.331250011920929,
        "pitch": 32,
        "velocity": 16
      },
      {
        "beat": 1.5020833015441895,
        "duration": 0.24791666865348816,
        "pitch": 34,
        "velocity": 40
      },
      {
        "beat": 1.75,
        "duration": 0.13124999403953552,
        "pitch": 24,
        "velocity": 57
      },
      {
        "beat": 1.7520833015441895,
        "duration": 0.2395833283662796,
        "pitch": 32,
        "velocity": 15
      },
      {
        "beat": 2,
        "duration": 0.2083333283662796,
        "pitch": 24,
        "velocity": 56
      },
      {
        "beat": 2.00208330154419,
        "duration": 0.2666666805744171,
        "pitch": 34,
        "velocity": 42
      },
      {
        "beat": 2.25208330154419,
        "duration": 0.268750011920929,
        "pitch": 32,
        "velocity": 15
      },
      {
        "beat": 2.50208330154419,
        "duration": 0.24583333730697632,
        "pitch": 34,
        "velocity": 43
      },
      {
        "beat": 2.75,
        "duration": 0.268750011920929,
        "pitch": 32,
        "velocity": 15
      },
      {
        "beat": 3,
        "duration": 0.1979166716337204,
        "pitch": 26,
        "velocity": 63
      },
      {
        "beat": 3,
        "duration": 0.1979166716337204,
        "pitch": 27,
        "velocity": 44
      },
      {
        "beat": 3,
        "duration": 0.1979166716337204,
        "pitch": 36,
        "velocity": 42
      },
      {
        "beat": 3.25,
        "duration": 0.3125,
        "pitch": 32,
        "velocity": 15
      },
      {
        "beat": 3.50208330154419,
        "duration": 0.22291666269302368,
        "pitch": 34,
        "velocity": 42
      },
      {
        "beat": 3.75,
        "duration": 0.21041665971279144,
        "pitch": 32,
        "velocity": 16
      }
    ],
    "crc32": 3504759510,
    "midiSize": 241,
    "midiSha1": "8bf322337dc45c8626b0a1820e479533937f42c0"
  },
  {
    "code": "CityPOP_ChapMen_11",
    "kind": "drum",
    "family": "Drum",
    "modelType": "dmachine_model",
    "subtype": "proller",
    "bpm": 102,
    "beat": "4/4",
    "bnum": 44,
    "noteCount": 26,
    "midi": "pattern_midis/CityPOP_ChapMen_11.mid",
    "notes": [
      {
        "beat": 0,
        "duration": 0.18125000596046448,
        "pitch": 24,
        "velocity": 63
      },
      {
        "beat": 0,
        "duration": 0.23749999701976776,
        "pitch": 48,
        "velocity": 57
      },
      {
        "beat": 0.25,
        "duration": 0.3166666626930237,
        "pitch": 32,
        "velocity": 15
      },
      {
        "beat": 0.5,
        "duration": 0.25,
        "pitch": 24,
        "velocity": 62
      },
      {
        "beat": 0.5020833611488342,
        "duration": 0.2770833373069763,
        "pitch": 34,
        "velocity": 42
      },
      {
        "beat": 0.75,
        "duration": 0.21250000596046448,
        "pitch": 24,
        "velocity": 43
      },
      {
        "beat": 0.7520833611488342,
        "duration": 0.27916666865348816,
        "pitch": 32,
        "velocity": 16
      },
      {
        "beat": 1,
        "duration": 0.1979166716337204,
        "pitch": 26,
        "velocity": 63
      },
      {
        "beat": 1,
        "duration": 0.1979166716337204,
        "pitch": 27,
        "velocity": 44
      },
      {
        "beat": 1.0020833015441895,
        "duration": 0.24791666865348816,
        "pitch": 34,
        "velocity": 41
      },
      {
        "beat": 1.25,
        "duration": 0.293749988079071,
        "pitch": 24,
        "velocity": 64
      },
      {
        "beat": 1.2520833015441895,
        "duration": 0.331250011920929,
        "pitch": 32,
        "velocity": 16
      },
      {
        "beat": 1.5020833015441895,
        "duration": 0.24791666865348816,
        "pitch": 34,
        "velocity": 40
      },
      {
        "beat": 1.75,
        "duration": 0.13124999403953552,
        "pitch": 24,
        "velocity": 57
      },
      {
        "beat": 1.7520833015441895,
        "duration": 0.2395833283662796,
        "pitch": 32,
        "velocity": 15
      },
      {
        "beat": 2,
        "duration": 0.2083333283662796,
        "pitch": 24,
        "velocity": 56
      },
      {
        "beat": 2.00208330154419,
        "duration": 0.2666666805744171,
        "pitch": 34,
        "velocity": 42
      },
      {
        "beat": 2.25208330154419,
        "duration": 0.268750011920929,
        "pitch": 32,
        "velocity": 15
      },
      {
        "beat": 2.50208330154419,
        "duration": 0.24583333730697632,
        "pitch": 35,
        "velocity": 50
      },
      {
        "beat": 2.75,
        "duration": 0.268750011920929,
        "pitch": 32,
        "velocity": 15
      },
      {
        "beat": 3,
        "duration": 0.1979166716337204,
        "pitch": 26,
        "velocity": 63
      },
      {
        "beat": 3,
        "duration": 0.1979166716337204,
        "pitch": 27,
        "velocity": 44
      },
      {
        "beat": 3,
        "duration": 0.1979166716337204,
        "pitch": 36,
        "velocity": 42
      },
      {
        "beat": 3.25,
        "duration": 0.3125,
        "pitch": 32,
        "velocity": 15
      },
      {
        "beat": 3.50208330154419,
        "duration": 0.22291666269302368,
        "pitch": 34,
        "velocity": 42
      },
      {
        "beat": 3.75,
        "duration": 0.21041665971279144,
        "pitch": 32,
        "velocity": 16
      }
    ],
    "crc32": 2309977815,
    "midiSize": 249,
    "midiSha1": "523ca5429e40258de61d8d172f5de72b3e423dd4"
  },
  {
    "code": "CityPOP_ChapMen_2",
    "kind": "drum",
    "family": "Drum",
    "modelType": "dmachine_model",
    "subtype": "proller",
    "bpm": 70,
    "beat": "4/4",
    "bnum": 44,
    "noteCount": 26,
    "midi": "pattern_midis/CityPOP_ChapMen_2.mid",
    "notes": [
      {
        "beat": 0.010416666977107525,
        "duration": 0.125,
        "pitch": 25,
        "velocity": 80
      },
      {
        "beat": 0.010416666977107525,
        "duration": 0.125,
        "pitch": 33,
        "velocity": 74
      },
      {
        "beat": 0.2604166567325592,
        "duration": 0.125,
        "pitch": 34,
        "velocity": 14
      },
      {
        "beat": 0.5104166865348816,
        "duration": 0.125,
        "pitch": 34,
        "velocity": 14
      },
      {
        "beat": 0.5104166865348816,
        "duration": 0.125,
        "pitch": 38,
        "velocity": 48
      },
      {
        "beat": 0.7604166865348816,
        "duration": 0.125,
        "pitch": 34,
        "velocity": 37
      },
      {
        "beat": 1.0104166269302368,
        "duration": 0.125,
        "pitch": 27,
        "velocity": 67
      },
      {
        "beat": 1.0104166269302368,
        "duration": 0.125,
        "pitch": 29,
        "velocity": 38
      },
      {
        "beat": 1.0104166269302368,
        "duration": 0.125,
        "pitch": 35,
        "velocity": 74
      },
      {
        "beat": 1.2604166269302368,
        "duration": 0.125,
        "pitch": 34,
        "velocity": 51
      },
      {
        "beat": 1.5104166269302368,
        "duration": 0.125,
        "pitch": 34,
        "velocity": 37
      },
      {
        "beat": 1.6354166269302368,
        "duration": 0.125,
        "pitch": 34,
        "velocity": 37
      },
      {
        "beat": 1.7604166269302368,
        "duration": 0.125,
        "pitch": 34,
        "velocity": 51
      },
      {
        "beat": 2.0104167461395264,
        "duration": 0.125,
        "pitch": 34,
        "velocity": 14
      },
      {
        "beat": 2.2604167461395264,
        "duration": 0.125,
        "pitch": 25,
        "velocity": 58
      },
      {
        "beat": 2.2604167461395264,
        "duration": 0.125,
        "pitch": 33,
        "velocity": 74
      },
      {
        "beat": 2.5104167461395264,
        "duration": 0.125,
        "pitch": 25,
        "velocity": 80
      },
      {
        "beat": 2.5104167461395264,
        "duration": 0.125,
        "pitch": 34,
        "velocity": 51
      },
      {
        "beat": 2.5104167461395264,
        "duration": 0.125,
        "pitch": 38,
        "velocity": 48
      },
      {
        "beat": 3.0104167461395264,
        "duration": 0.125,
        "pitch": 27,
        "velocity": 67
      },
      {
        "beat": 3.0104167461395264,
        "duration": 0.125,
        "pitch": 29,
        "velocity": 38
      },
      {
        "beat": 3.0104167461395264,
        "duration": 0.125,
        "pitch": 35,
        "velocity": 74
      },
      {
        "beat": 3.2604167461395264,
        "duration": 0.125,
        "pitch": 34,
        "velocity": 51
      },
      {
        "beat": 3.5104167461395264,
        "duration": 0.125,
        "pitch": 34,
        "velocity": 51
      },
      {
        "beat": 3.6354167461395264,
        "duration": 0.125,
        "pitch": 34,
        "velocity": 51
      },
      {
        "beat": 3.7604167461395264,
        "duration": 0.125,
        "pitch": 35,
        "velocity": 74
      }
    ],
    "crc32": 3527947009,
    "midiSize": 249,
    "midiSha1": "c62d73be6b79bc337cdaa45e576d2b95e25a4cf1"
  },
  {
    "code": "CityPOP_ChapMen_3",
    "kind": "drum",
    "family": "Drum",
    "modelType": "dmachine_model",
    "subtype": "proller",
    "bpm": 78,
    "beat": "4/4",
    "bnum": 44,
    "noteCount": 29,
    "midi": "pattern_midis/CityPOP_ChapMen_3.mid",
    "notes": [
      {
        "beat": 0,
        "duration": 0.25,
        "pitch": 25,
        "velocity": 80
      },
      {
        "beat": 0,
        "duration": 0.25,
        "pitch": 32,
        "velocity": 34
      },
      {
        "beat": 0,
        "duration": 0.25,
        "pitch": 48,
        "velocity": 37
      },
      {
        "beat": 0.25,
        "duration": 0.25,
        "pitch": 34,
        "velocity": 1
      },
      {
        "beat": 0.5,
        "duration": 0.25,
        "pitch": 28,
        "velocity": 48
      },
      {
        "beat": 0.5,
        "duration": 0.25,
        "pitch": 32,
        "velocity": 34
      },
      {
        "beat": 0.75,
        "duration": 0.25,
        "pitch": 33,
        "velocity": 1
      },
      {
        "beat": 1,
        "duration": 0.25,
        "pitch": 26,
        "velocity": 80
      },
      {
        "beat": 1,
        "duration": 0.25,
        "pitch": 32,
        "velocity": 34
      },
      {
        "beat": 1.25,
        "duration": 0.25,
        "pitch": 25,
        "velocity": 80
      },
      {
        "beat": 1.25,
        "duration": 0.25,
        "pitch": 34,
        "velocity": 1
      },
      {
        "beat": 1.5,
        "duration": 0.25,
        "pitch": 25,
        "velocity": 80
      },
      {
        "beat": 1.5,
        "duration": 0.25,
        "pitch": 32,
        "velocity": 34
      },
      {
        "beat": 1.75,
        "duration": 0.25,
        "pitch": 33,
        "velocity": 1
      },
      {
        "beat": 2,
        "duration": 0.25,
        "pitch": 25,
        "velocity": 80
      },
      {
        "beat": 2,
        "duration": 0.25,
        "pitch": 32,
        "velocity": 34
      },
      {
        "beat": 2,
        "duration": 0.25,
        "pitch": 43,
        "velocity": 15
      },
      {
        "beat": 2.25,
        "duration": 0.25,
        "pitch": 34,
        "velocity": 1
      },
      {
        "beat": 2.25,
        "duration": 0.25,
        "pitch": 43,
        "velocity": 15
      },
      {
        "beat": 2.5,
        "duration": 0.25,
        "pitch": 32,
        "velocity": 34
      },
      {
        "beat": 2.75,
        "duration": 0.25,
        "pitch": 33,
        "velocity": 1
      },
      {
        "beat": 2.75,
        "duration": 0.25,
        "pitch": 43,
        "velocity": 15
      },
      {
        "beat": 3,
        "duration": 0.25,
        "pitch": 26,
        "velocity": 80
      },
      {
        "beat": 3,
        "duration": 0.25,
        "pitch": 32,
        "velocity": 34
      },
      {
        "beat": 3,
        "duration": 0.25,
        "pitch": 36,
        "velocity": 41
      },
      {
        "beat": 3.25,
        "duration": 0.25,
        "pitch": 34,
        "velocity": 1
      },
      {
        "beat": 3.5,
        "duration": 0.25,
        "pitch": 32,
        "velocity": 34
      },
      {
        "beat": 3.5,
        "duration": 0.25,
        "pitch": 42,
        "velocity": 46
      },
      {
        "beat": 3.75,
        "duration": 0.25,
        "pitch": 35,
        "velocity": 1
      }
    ],
    "crc32": 1626323020,
    "midiSize": 266,
    "midiSha1": "b79f4b2cff9a31d421f8cc2585d4073075cc0212"
  },
  {
    "code": "CityPop_ChapMen_4",
    "kind": "drum",
    "family": "Drum",
    "modelType": "dmachine_model",
    "subtype": "proller",
    "bpm": 85,
    "beat": "4/4",
    "bnum": 44,
    "noteCount": 8,
    "midi": "pattern_midis/CityPop_ChapMen_4.mid",
    "notes": [
      {
        "beat": 0,
        "duration": 0.20000000298023224,
        "pitch": 25,
        "velocity": 85
      },
      {
        "beat": 0,
        "duration": 0.3499999940395355,
        "pitch": 48,
        "velocity": 36
      },
      {
        "beat": 1,
        "duration": 0.3333333432674408,
        "pitch": 26,
        "velocity": 85
      },
      {
        "beat": 1,
        "duration": 0.3499999940395355,
        "pitch": 34,
        "velocity": 36
      },
      {
        "beat": 2,
        "duration": 0.3499999940395355,
        "pitch": 25,
        "velocity": 85
      },
      {
        "beat": 2,
        "duration": 0.3499999940395355,
        "pitch": 34,
        "velocity": 36
      },
      {
        "beat": 3,
        "duration": 0.3499999940395355,
        "pitch": 26,
        "velocity": 85
      },
      {
        "beat": 3,
        "duration": 0.3499999940395355,
        "pitch": 34,
        "velocity": 36
      }
    ],
    "crc32": 606632002,
    "midiSize": 124,
    "midiSha1": "ce7c997e3b6a43cc2b657b549738a2d600c2242b"
  },
  {
    "code": "CityPop_ChapMen_5",
    "kind": "drum",
    "family": "Drum",
    "modelType": "dmachine_model",
    "subtype": "proller",
    "bpm": 85,
    "beat": "4/4",
    "bnum": 44,
    "noteCount": 12,
    "midi": "pattern_midis/CityPop_ChapMen_5.mid",
    "notes": [
      {
        "beat": 0,
        "duration": 0.20000000298023224,
        "pitch": 25,
        "velocity": 85
      },
      {
        "beat": 0,
        "duration": 0.3499999940395355,
        "pitch": 48,
        "velocity": 36
      },
      {
        "beat": 0.5,
        "duration": 0.3499999940395355,
        "pitch": 32,
        "velocity": 36
      },
      {
        "beat": 1,
        "duration": 0.3333333432674408,
        "pitch": 26,
        "velocity": 85
      },
      {
        "beat": 1,
        "duration": 0.3499999940395355,
        "pitch": 34,
        "velocity": 36
      },
      {
        "beat": 1.5,
        "duration": 0.3499999940395355,
        "pitch": 32,
        "velocity": 36
      },
      {
        "beat": 2,
        "duration": 0.3499999940395355,
        "pitch": 25,
        "velocity": 85
      },
      {
        "beat": 2,
        "duration": 0.3499999940395355,
        "pitch": 34,
        "velocity": 36
      },
      {
        "beat": 2.5,
        "duration": 0.3499999940395355,
        "pitch": 32,
        "velocity": 36
      },
      {
        "beat": 3,
        "duration": 0.3499999940395355,
        "pitch": 26,
        "velocity": 85
      },
      {
        "beat": 3,
        "duration": 0.3499999940395355,
        "pitch": 34,
        "velocity": 36
      },
      {
        "beat": 3.5,
        "duration": 0.3499999940395355,
        "pitch": 32,
        "velocity": 36
      }
    ],
    "crc32": 1329003995,
    "midiSize": 157,
    "midiSha1": "b1acaa90f591f8d21bb46a038d0cb0bca8ae50b4"
  },
  {
    "code": "CityPop_ChapMen_6",
    "kind": "drum",
    "family": "Drum",
    "modelType": "dmachine_model",
    "subtype": "proller",
    "bpm": 85,
    "beat": "4/4",
    "bnum": 44,
    "noteCount": 20,
    "midi": "pattern_midis/CityPop_ChapMen_6.mid",
    "notes": [
      {
        "beat": 0,
        "duration": 0.20000000298023224,
        "pitch": 25,
        "velocity": 85
      },
      {
        "beat": 0,
        "duration": 0.3499999940395355,
        "pitch": 48,
        "velocity": 36
      },
      {
        "beat": 0.25,
        "duration": 0.21666666865348816,
        "pitch": 34,
        "velocity": 17
      },
      {
        "beat": 0.5,
        "duration": 0.3499999940395355,
        "pitch": 32,
        "velocity": 26
      },
      {
        "beat": 0.75,
        "duration": 0.21666666865348816,
        "pitch": 34,
        "velocity": 42
      },
      {
        "beat": 1,
        "duration": 0.3333333432674408,
        "pitch": 26,
        "velocity": 85
      },
      {
        "beat": 1,
        "duration": 0.2708333432674408,
        "pitch": 34,
        "velocity": 1
      },
      {
        "beat": 1.25,
        "duration": 0.3499999940395355,
        "pitch": 32,
        "velocity": 13
      },
      {
        "beat": 1.5,
        "duration": 0.2708333432674408,
        "pitch": 34,
        "velocity": 21
      },
      {
        "beat": 1.75,
        "duration": 0.2708333432674408,
        "pitch": 32,
        "velocity": 44
      },
      {
        "beat": 2,
        "duration": 0.3499999940395355,
        "pitch": 25,
        "velocity": 85
      },
      {
        "beat": 2,
        "duration": 0.3499999940395355,
        "pitch": 34,
        "velocity": 1
      },
      {
        "beat": 2.25,
        "duration": 0.2083333283662796,
        "pitch": 32,
        "velocity": 15
      },
      {
        "beat": 2.5,
        "duration": 0.3499999940395355,
        "pitch": 32,
        "velocity": 25
      },
      {
        "beat": 2.75,
        "duration": 0.18125000596046448,
        "pitch": 34,
        "velocity": 42
      },
      {
        "beat": 3,
        "duration": 0.3499999940395355,
        "pitch": 26,
        "velocity": 85
      },
      {
        "beat": 3,
        "duration": 0.3499999940395355,
        "pitch": 34,
        "velocity": 1
      },
      {
        "beat": 3.25,
        "duration": 0.18125000596046448,
        "pitch": 32,
        "velocity": 17
      },
      {
        "beat": 3.5,
        "duration": 0.3499999940395355,
        "pitch": 32,
        "velocity": 26
      },
      {
        "beat": 3.75,
        "duration": 0.18125000596046448,
        "pitch": 34,
        "velocity": 42
      }
    ],
    "crc32": 3458462110,
    "midiSize": 204,
    "midiSha1": "e2902b0f2f7f6699980d83276ee95d088c27f66c"
  },
  {
    "code": "CityPop_ChapMen_7",
    "kind": "drum",
    "family": "Drum",
    "modelType": "dmachine_model",
    "subtype": "proller",
    "bpm": 86,
    "beat": "4/4",
    "bnum": 86,
    "noteCount": 18,
    "midi": "pattern_midis/CityPop_ChapMen_7.mid",
    "notes": [
      {
        "beat": 0,
        "duration": 0.5,
        "pitch": 25,
        "velocity": 78
      },
      {
        "beat": 0,
        "duration": 0.5,
        "pitch": 48,
        "velocity": 34
      },
      {
        "beat": 0.5,
        "duration": 0.5,
        "pitch": 34,
        "velocity": 34
      },
      {
        "beat": 1,
        "duration": 0.5,
        "pitch": 25,
        "velocity": 60
      },
      {
        "beat": 1,
        "duration": 0.5,
        "pitch": 32,
        "velocity": 34
      },
      {
        "beat": 1.5,
        "duration": 0.5,
        "pitch": 26,
        "velocity": 78
      },
      {
        "beat": 1.5,
        "duration": 0.5,
        "pitch": 28,
        "velocity": 60
      },
      {
        "beat": 1.5,
        "duration": 0.5,
        "pitch": 29,
        "velocity": 34
      },
      {
        "beat": 1.5,
        "duration": 0.5,
        "pitch": 35,
        "velocity": 34
      },
      {
        "beat": 2,
        "duration": 0.5,
        "pitch": 34,
        "velocity": 34
      },
      {
        "beat": 2,
        "duration": 0.4583333432674408,
        "pitch": 42,
        "velocity": 48
      },
      {
        "beat": 2.5,
        "duration": 0.5,
        "pitch": 25,
        "velocity": 78
      },
      {
        "beat": 2.5,
        "duration": 0.5,
        "pitch": 32,
        "velocity": 34
      },
      {
        "beat": 3,
        "duration": 0.5,
        "pitch": 25,
        "velocity": 60
      },
      {
        "beat": 3,
        "duration": 0.5,
        "pitch": 33,
        "velocity": 34
      },
      {
        "beat": 3.5,
        "duration": 0.5,
        "pitch": 34,
        "velocity": 34
      },
      {
        "beat": 3.75,
        "duration": 0.5,
        "pitch": 26,
        "velocity": 17
      },
      {
        "beat": 3.75,
        "duration": 0.5,
        "pitch": 28,
        "velocity": 17
      }
    ],
    "crc32": 3315803896,
    "midiSize": 193,
    "midiSha1": "54c15bad7162917198e0a40dbf0d3d5c7fecabde"
  },
  {
    "code": "CityPop_ChapMen_8",
    "kind": "drum",
    "family": "Drum",
    "modelType": "dmachine_model",
    "subtype": "proller",
    "bpm": 86,
    "beat": "4/4",
    "bnum": 86,
    "noteCount": 11,
    "midi": "pattern_midis/CityPop_ChapMen_8.mid",
    "notes": [
      {
        "beat": 0,
        "duration": 0.5,
        "pitch": 25,
        "velocity": 78
      },
      {
        "beat": 0,
        "duration": 0.5,
        "pitch": 48,
        "velocity": 34
      },
      {
        "beat": 0.5,
        "duration": 0.5,
        "pitch": 34,
        "velocity": 34
      },
      {
        "beat": 1,
        "duration": 0.5,
        "pitch": 32,
        "velocity": 34
      },
      {
        "beat": 1.5,
        "duration": 0.5,
        "pitch": 26,
        "velocity": 78
      },
      {
        "beat": 1.5,
        "duration": 0.5,
        "pitch": 35,
        "velocity": 34
      },
      {
        "beat": 2,
        "duration": 0.5,
        "pitch": 34,
        "velocity": 34
      },
      {
        "beat": 2.5,
        "duration": 0.5,
        "pitch": 32,
        "velocity": 34
      },
      {
        "beat": 3,
        "duration": 0.5,
        "pitch": 25,
        "velocity": 60
      },
      {
        "beat": 3,
        "duration": 0.5,
        "pitch": 33,
        "velocity": 34
      },
      {
        "beat": 3.5,
        "duration": 0.5,
        "pitch": 34,
        "velocity": 34
      }
    ],
    "crc32": 718515827,
    "midiSize": 150,
    "midiSha1": "87ecad7195cccbe0608f2d01aabe2dce5f6a4068"
  },
  {
    "code": "CityPop_ChapMen_9",
    "kind": "drum",
    "family": "Drum",
    "modelType": "dmachine_model",
    "subtype": "proller",
    "bpm": 115,
    "beat": "4/4",
    "bnum": 43,
    "noteCount": 8,
    "midi": "pattern_midis/CityPop_ChapMen_9.mid",
    "notes": [
      {
        "beat": 0,
        "duration": 0.6666666865348816,
        "pitch": 25,
        "velocity": 90
      },
      {
        "beat": 0,
        "duration": 0.625,
        "pitch": 48,
        "velocity": 38
      },
      {
        "beat": 1,
        "duration": 0.5333333611488342,
        "pitch": 26,
        "velocity": 75
      },
      {
        "beat": 1,
        "duration": 0.5,
        "pitch": 31,
        "velocity": 28
      },
      {
        "beat": 2,
        "duration": 0.5333333611488342,
        "pitch": 26,
        "velocity": 79
      },
      {
        "beat": 2,
        "duration": 0.5,
        "pitch": 31,
        "velocity": 35
      },
      {
        "beat": 3,
        "duration": 0.6666666865348816,
        "pitch": 25,
        "velocity": 90
      },
      {
        "beat": 3,
        "duration": 0.5,
        "pitch": 32,
        "velocity": 35
      }
    ],
    "crc32": 1541017556,
    "midiSize": 125,
    "midiSha1": "bb1d4192809bb5e68ec0a5c2228addec34a842e5"
  },
  {
    "code": "Djembe_ChapMen_1",
    "kind": "drum",
    "family": "Drum",
    "modelType": "dmachine_model",
    "subtype": "proller",
    "bpm": 60,
    "beat": "4/4",
    "bnum": 44,
    "noteCount": 7,
    "midi": "pattern_midis/Djembe_ChapMen_1.mid",
    "notes": [
      {
        "beat": 0,
        "duration": 0.5583333373069763,
        "pitch": 36,
        "velocity": 89
      },
      {
        "beat": 0,
        "duration": 0.19583334028720856,
        "pitch": 48,
        "velocity": 83
      },
      {
        "beat": 0.75,
        "duration": 0.21458333730697632,
        "pitch": 36,
        "velocity": 55
      },
      {
        "beat": 1,
        "duration": 0.20000000298023224,
        "pitch": 42,
        "velocity": 55
      },
      {
        "beat": 1.5,
        "duration": 0.4541666805744171,
        "pitch": 36,
        "velocity": 46
      },
      {
        "beat": 2.5,
        "duration": 0.5,
        "pitch": 36,
        "velocity": 89
      },
      {
        "beat": 3,
        "duration": 0.5,
        "pitch": 42,
        "velocity": 89
      }
    ],
    "crc32": 578172710,
    "midiSize": 119,
    "midiSha1": "f3b568fbcef48837c06cf5e47de8541ba3af665b"
  },
  {
    "code": "Djembe_ChapMen_2",
    "kind": "drum",
    "family": "Drum",
    "modelType": "dmachine_model",
    "subtype": "proller",
    "bpm": 80,
    "beat": "4/4",
    "bnum": 44,
    "noteCount": 6,
    "midi": "pattern_midis/Djembe_ChapMen_2.mid",
    "notes": [
      {
        "beat": 0,
        "duration": 0.862500011920929,
        "pitch": 36,
        "velocity": 86
      },
      {
        "beat": 1,
        "duration": 1,
        "pitch": 42,
        "velocity": 61
      },
      {
        "beat": 1.75,
        "duration": 0.25,
        "pitch": 36,
        "velocity": 65
      },
      {
        "beat": 2,
        "duration": 0.5,
        "pitch": 36,
        "velocity": 68
      },
      {
        "beat": 2.5,
        "duration": 0.5,
        "pitch": 36,
        "velocity": 68
      },
      {
        "beat": 3,
        "duration": 1,
        "pitch": 38,
        "velocity": 68
      }
    ],
    "crc32": 2841462698,
    "midiSize": 110,
    "midiSha1": "5e75feaa800ef3d37aa4e920fd9e9e71bb182d31"
  },
  {
    "code": "Djembe_ChapMen_3",
    "kind": "drum",
    "family": "Drum",
    "modelType": "dmachine_model",
    "subtype": "proller",
    "bpm": 70,
    "beat": "4/4",
    "bnum": 44,
    "noteCount": 16,
    "midi": "pattern_midis/Djembe_ChapMen_3.mid",
    "notes": [
      {
        "beat": 0,
        "duration": 0.2750000059604645,
        "pitch": 36,
        "velocity": 61
      },
      {
        "beat": 0,
        "duration": 0.2395833283662796,
        "pitch": 48,
        "velocity": 50
      },
      {
        "beat": 0.375,
        "duration": 0.2750000059604645,
        "pitch": 36,
        "velocity": 1
      },
      {
        "beat": 0.5,
        "duration": 0.2395833283662796,
        "pitch": 38,
        "velocity": 50
      },
      {
        "beat": 0.75,
        "duration": 0.2291666716337204,
        "pitch": 36,
        "velocity": 30
      },
      {
        "beat": 1,
        "duration": 0.13958333432674408,
        "pitch": 36,
        "velocity": 80
      },
      {
        "beat": 1.25,
        "duration": 0.21250000596046448,
        "pitch": 38,
        "velocity": 2
      },
      {
        "beat": 1.5,
        "duration": 0.23333333432674408,
        "pitch": 42,
        "velocity": 80
      },
      {
        "beat": 2,
        "duration": 0.2750000059604645,
        "pitch": 36,
        "velocity": 61
      },
      {
        "beat": 2,
        "duration": 0.2395833283662796,
        "pitch": 48,
        "velocity": 50
      },
      {
        "beat": 2.375,
        "duration": 0.2750000059604645,
        "pitch": 36,
        "velocity": 1
      },
      {
        "beat": 2.5,
        "duration": 0.2395833283662796,
        "pitch": 38,
        "velocity": 50
      },
      {
        "beat": 2.75,
        "duration": 0.2291666716337204,
        "pitch": 36,
        "velocity": 30
      },
      {
        "beat": 3,
        "duration": 0.13958333432674408,
        "pitch": 36,
        "velocity": 80
      },
      {
        "beat": 3.25,
        "duration": 0.21250000596046448,
        "pitch": 36,
        "velocity": 2
      },
      {
        "beat": 3.5,
        "duration": 0.23333333432674408,
        "pitch": 42,
        "velocity": 80
      }
    ],
    "crc32": 3668615166,
    "midiSize": 182,
    "midiSha1": "0e485e9c8d108ff41116c13131dd75d32d0254d4"
  },
  {
    "code": "Djembe_ChapMen_4",
    "kind": "drum",
    "family": "Drum",
    "modelType": "dmachine_model",
    "subtype": "proller",
    "bpm": 70,
    "beat": "4/4",
    "bnum": 44,
    "noteCount": 6,
    "midi": "pattern_midis/Djembe_ChapMen_4.mid",
    "notes": [
      {
        "beat": 0,
        "duration": 0.5,
        "pitch": 36,
        "velocity": 100
      },
      {
        "beat": 0,
        "duration": 0.5,
        "pitch": 48,
        "velocity": 73
      },
      {
        "beat": 1,
        "duration": 0.25,
        "pitch": 42,
        "velocity": 101
      },
      {
        "beat": 2.25,
        "duration": 0.25,
        "pitch": 36,
        "velocity": 50
      },
      {
        "beat": 2.5,
        "duration": 0.5,
        "pitch": 36,
        "velocity": 96
      },
      {
        "beat": 3,
        "duration": 0.5,
        "pitch": 42,
        "velocity": 101
      }
    ],
    "crc32": 2744811865,
    "midiSize": 110,
    "midiSha1": "4ba105a08c368042508b741aa43212158e469430"
  },
  {
    "code": "Djembe_ChapMen_5",
    "kind": "drum",
    "family": "Drum",
    "modelType": "dmachine_model",
    "subtype": "proller",
    "bpm": 70,
    "beat": "4/4",
    "bnum": 44,
    "noteCount": 9,
    "midi": "pattern_midis/Djembe_ChapMen_5.mid",
    "notes": [
      {
        "beat": 0,
        "duration": 0.5,
        "pitch": 36,
        "velocity": 100
      },
      {
        "beat": 0,
        "duration": 0.20000000298023224,
        "pitch": 48,
        "velocity": 80
      },
      {
        "beat": 0.75,
        "duration": 0.25,
        "pitch": 36,
        "velocity": 1
      },
      {
        "beat": 1,
        "duration": 0.5083333253860474,
        "pitch": 42,
        "velocity": 101
      },
      {
        "beat": 1.75,
        "duration": 0.25,
        "pitch": 42,
        "velocity": 50
      },
      {
        "beat": 2.25,
        "duration": 0.25,
        "pitch": 38,
        "velocity": 44
      },
      {
        "beat": 2.5,
        "duration": 0.5,
        "pitch": 36,
        "velocity": 96
      },
      {
        "beat": 3,
        "duration": 0.5541666746139526,
        "pitch": 42,
        "velocity": 101
      },
      {
        "beat": 3.5,
        "duration": 0.5,
        "pitch": 36,
        "velocity": 50
      }
    ],
    "crc32": 1806336365,
    "midiSize": 132,
    "midiSha1": "d18c4dcb291fa633275728658209aef0f1c400e8"
  },
  {
    "code": "Djembe_ChapMen_6",
    "kind": "drum",
    "family": "Drum",
    "modelType": "dmachine_model",
    "subtype": "proller",
    "bpm": 82,
    "beat": "4/4",
    "bnum": 44,
    "noteCount": 6,
    "midi": "pattern_midis/Djembe_ChapMen_6.mid",
    "notes": [
      {
        "beat": 0,
        "duration": 0.5,
        "pitch": 36,
        "velocity": 100
      },
      {
        "beat": 0,
        "duration": 0.20000000298023224,
        "pitch": 48,
        "velocity": 80
      },
      {
        "beat": 1,
        "duration": 0.5083333253860474,
        "pitch": 42,
        "velocity": 101
      },
      {
        "beat": 2,
        "duration": 0.25,
        "pitch": 36,
        "velocity": 44
      },
      {
        "beat": 2.5,
        "duration": 0.5,
        "pitch": 36,
        "velocity": 96
      },
      {
        "beat": 3,
        "duration": 0.5541666746139526,
        "pitch": 42,
        "velocity": 101
      }
    ],
    "crc32": 3742799739,
    "midiSize": 111,
    "midiSha1": "f1656490f377471cd862af9dc972e9b74a2842a8"
  },
  {
    "code": "Djembe_ChapMen_7",
    "kind": "drum",
    "family": "Drum",
    "modelType": "dmachine_model",
    "subtype": "proller",
    "bpm": 82,
    "beat": "4/4",
    "bnum": 44,
    "noteCount": 10,
    "midi": "pattern_midis/Djembe_ChapMen_7.mid",
    "notes": [
      {
        "beat": 0,
        "duration": 0.5,
        "pitch": 36,
        "velocity": 100
      },
      {
        "beat": 0,
        "duration": 0.20000000298023224,
        "pitch": 48,
        "velocity": 80
      },
      {
        "beat": 0.75,
        "duration": 0.25,
        "pitch": 36,
        "velocity": 1
      },
      {
        "beat": 1,
        "duration": 0.5083333253860474,
        "pitch": 42,
        "velocity": 101
      },
      {
        "beat": 1.75,
        "duration": 0.25,
        "pitch": 36,
        "velocity": 44
      },
      {
        "beat": 2.25,
        "duration": 0.25,
        "pitch": 38,
        "velocity": 1
      },
      {
        "beat": 2.5,
        "duration": 0.5,
        "pitch": 36,
        "velocity": 96
      },
      {
        "beat": 3,
        "duration": 0.5541666746139526,
        "pitch": 42,
        "velocity": 101
      },
      {
        "beat": 3.5,
        "duration": 0.25,
        "pitch": 38,
        "velocity": 1
      },
      {
        "beat": 3.75,
        "duration": 0.25,
        "pitch": 36,
        "velocity": 1
      }
    ],
    "crc32": 1004041045,
    "midiSize": 139,
    "midiSha1": "8f918a984872cea742e332b0cc260e0167f608a5"
  },
  {
    "code": "EJB_ChapMen_1",
    "kind": "drum",
    "family": "Drum",
    "modelType": "dmachine_model",
    "subtype": "proller",
    "bpm": 63,
    "beat": "4/4",
    "bnum": 44,
    "noteCount": 22,
    "midi": "pattern_midis/EJB_ChapMen_1.mid",
    "notes": [
      {
        "beat": 0,
        "duration": 0.4479166567325592,
        "pitch": 24,
        "velocity": 104
      },
      {
        "beat": 0,
        "duration": 0.24166665971279144,
        "pitch": 41,
        "velocity": 26
      },
      {
        "beat": 0.25,
        "duration": 0.24166665971279144,
        "pitch": 30,
        "velocity": 6
      },
      {
        "beat": 0.5,
        "duration": 0.24166665971279144,
        "pitch": 30,
        "velocity": 26
      },
      {
        "beat": 0.75,
        "duration": 0.24166665971279144,
        "pitch": 30,
        "velocity": 6
      },
      {
        "beat": 1,
        "duration": 0.4479166567325592,
        "pitch": 26,
        "velocity": 104
      },
      {
        "beat": 1,
        "duration": 0.24166665971279144,
        "pitch": 30,
        "velocity": 26
      },
      {
        "beat": 1.25,
        "duration": 0.4479166567325592,
        "pitch": 24,
        "velocity": 104
      },
      {
        "beat": 1.25,
        "duration": 0.24166665971279144,
        "pitch": 30,
        "velocity": 6
      },
      {
        "beat": 1.5,
        "duration": 0.24166665971279144,
        "pitch": 30,
        "velocity": 26
      },
      {
        "beat": 1.75,
        "duration": 0.4479166567325592,
        "pitch": 24,
        "velocity": 104
      },
      {
        "beat": 1.75,
        "duration": 0.24166665971279144,
        "pitch": 30,
        "velocity": 6
      },
      {
        "beat": 2,
        "duration": 0.24166665971279144,
        "pitch": 30,
        "velocity": 26
      },
      {
        "beat": 2.25,
        "duration": 0.24166665971279144,
        "pitch": 30,
        "velocity": 6
      },
      {
        "beat": 2.5,
        "duration": 0.24166665971279144,
        "pitch": 30,
        "velocity": 26
      },
      {
        "beat": 2.75,
        "duration": 0.24166665971279144,
        "pitch": 30,
        "velocity": 6
      },
      {
        "beat": 3,
        "duration": 0.4479166567325592,
        "pitch": 26,
        "velocity": 104
      },
      {
        "beat": 3,
        "duration": 0.24166665971279144,
        "pitch": 30,
        "velocity": 26
      },
      {
        "beat": 3.25,
        "duration": 0.24166665971279144,
        "pitch": 30,
        "velocity": 6
      },
      {
        "beat": 3.5,
        "duration": 0.24166665971279144,
        "pitch": 34,
        "velocity": 15
      },
      {
        "beat": 3.75,
        "duration": 0.2083333283662796,
        "pitch": 24,
        "velocity": 60
      },
      {
        "beat": 3.75,
        "duration": 0.24166665971279144,
        "pitch": 32,
        "velocity": 6
      }
    ],
    "crc32": 1065441407,
    "midiSize": 222,
    "midiSha1": "440d4b2d3e42258ecdd2b3237e41ef2ef9464c86"
  },
  {
    "code": "EJB_ChapMen_10",
    "kind": "drum",
    "family": "Drum",
    "modelType": "dmachine_model",
    "subtype": "proller",
    "bpm": 115,
    "beat": "4/4",
    "bnum": 43,
    "noteCount": 9,
    "midi": "pattern_midis/EJB_ChapMen_10.mid",
    "notes": [
      {
        "beat": 0,
        "duration": 0.837499976158142,
        "pitch": 24,
        "velocity": 100
      },
      {
        "beat": 0,
        "duration": 0.25,
        "pitch": 32,
        "velocity": 1
      },
      {
        "beat": 0,
        "duration": 0.912500023841858,
        "pitch": 41,
        "velocity": 61
      },
      {
        "beat": 1,
        "duration": 0.5333333611488342,
        "pitch": 26,
        "velocity": 52
      },
      {
        "beat": 1,
        "duration": 0.4583333432674408,
        "pitch": 30,
        "velocity": 50
      },
      {
        "beat": 2,
        "duration": 0.5333333611488342,
        "pitch": 26,
        "velocity": 99
      },
      {
        "beat": 2,
        "duration": 0.5104166865348816,
        "pitch": 30,
        "velocity": 62
      },
      {
        "beat": 3,
        "duration": 0.8729166388511658,
        "pitch": 24,
        "velocity": 106
      },
      {
        "beat": 3,
        "duration": 0.40416666865348816,
        "pitch": 30,
        "velocity": 45
      }
    ],
    "crc32": 3674450286,
    "midiSize": 128,
    "midiSha1": "735f50d8a58ee54ce0f199de4b0f2ec29fcb14a4"
  },
  {
    "code": "EJB_ChapMen_11",
    "kind": "drum",
    "family": "Drum",
    "modelType": "dmachine_model",
    "subtype": "proller",
    "bpm": 86,
    "beat": "4/4",
    "bnum": 86,
    "noteCount": 5,
    "midi": "pattern_midis/EJB_ChapMen_11.mid",
    "notes": [
      {
        "beat": 0,
        "duration": 1.5,
        "pitch": 24,
        "velocity": 103
      },
      {
        "beat": 1.5,
        "duration": 1,
        "pitch": 26,
        "velocity": 96
      },
      {
        "beat": 1.5,
        "duration": 0.5,
        "pitch": 30,
        "velocity": 57
      },
      {
        "beat": 3,
        "duration": 1.5,
        "pitch": 24,
        "velocity": 110
      },
      {
        "beat": 3,
        "duration": 0.5,
        "pitch": 30,
        "velocity": 57
      }
    ],
    "crc32": 4137291354,
    "midiSize": 99,
    "midiSha1": "fea8a793720a5ce4eb4232c0cb0042472ddecb05"
  },
  {
    "code": "EJB_ChapMen_12",
    "kind": "drum",
    "family": "Drum",
    "modelType": "dmachine_model",
    "subtype": "proller",
    "bpm": 75,
    "beat": "4/4",
    "bnum": 44,
    "noteCount": 22,
    "midi": "pattern_midis/EJB_ChapMen_12.mid",
    "notes": [
      {
        "beat": 0,
        "duration": 0.14166666567325592,
        "pitch": 24,
        "velocity": 67
      },
      {
        "beat": 0.0020833334419876337,
        "duration": 0.0770833343267441,
        "pitch": 34,
        "velocity": 40
      },
      {
        "beat": 0.25208333134651184,
        "duration": 0.06458333134651184,
        "pitch": 30,
        "velocity": 15
      },
      {
        "beat": 0.5020833611488342,
        "duration": 0.0770833343267441,
        "pitch": 30,
        "velocity": 35
      },
      {
        "beat": 0.7520833611488342,
        "duration": 0.06458333134651184,
        "pitch": 30,
        "velocity": 15
      },
      {
        "beat": 1,
        "duration": 0.1458333283662796,
        "pitch": 26,
        "velocity": 76
      },
      {
        "beat": 1.0020833015441895,
        "duration": 0.0770833343267441,
        "pitch": 30,
        "velocity": 35
      },
      {
        "beat": 1.2520833015441895,
        "duration": 0.06458333134651184,
        "pitch": 30,
        "velocity": 15
      },
      {
        "beat": 1.5020833015441895,
        "duration": 0.0770833343267441,
        "pitch": 30,
        "velocity": 35
      },
      {
        "beat": 1.75,
        "duration": 0.10625000298023224,
        "pitch": 24,
        "velocity": 36
      },
      {
        "beat": 1.7520833015441895,
        "duration": 0.06458333134651184,
        "pitch": 30,
        "velocity": 15
      },
      {
        "beat": 2,
        "duration": 0.10833333432674408,
        "pitch": 24,
        "velocity": 67
      },
      {
        "beat": 2.00208330154419,
        "duration": 0.0770833343267441,
        "pitch": 30,
        "velocity": 35
      },
      {
        "beat": 2.25208330154419,
        "duration": 0.06458333134651184,
        "pitch": 30,
        "velocity": 15
      },
      {
        "beat": 2.50208330154419,
        "duration": 0.0770833343267441,
        "pitch": 30,
        "velocity": 35
      },
      {
        "beat": 2.75208330154419,
        "duration": 0.06458333134651184,
        "pitch": 30,
        "velocity": 15
      },
      {
        "beat": 3,
        "duration": 0.09166666865348816,
        "pitch": 26,
        "velocity": 76
      },
      {
        "beat": 3.00208330154419,
        "duration": 0.0770833343267441,
        "pitch": 30,
        "velocity": 35
      },
      {
        "beat": 3.25208330154419,
        "duration": 0.06458333134651184,
        "pitch": 30,
        "velocity": 15
      },
      {
        "beat": 3.50208330154419,
        "duration": 0.0770833343267441,
        "pitch": 30,
        "velocity": 35
      },
      {
        "beat": 3.75,
        "duration": 0.10625000298023224,
        "pitch": 24,
        "velocity": 36
      },
      {
        "beat": 3.75208330154419,
        "duration": 0.06458333134651184,
        "pitch": 30,
        "velocity": 15
      }
    ],
    "crc32": 23559353,
    "midiSize": 223,
    "midiSha1": "74a1062695898ef7ca5fbc22e0e72cf0d55d8c9c"
  },
  {
    "code": "EJB_ChapMen_13",
    "kind": "drum",
    "family": "Drum",
    "modelType": "dmachine_model",
    "subtype": "proller",
    "bpm": 75,
    "beat": "4/4",
    "bnum": 44,
    "noteCount": 22,
    "midi": "pattern_midis/EJB_ChapMen_13.mid",
    "notes": [
      {
        "beat": 0,
        "duration": 0.14166666567325592,
        "pitch": 24,
        "velocity": 67
      },
      {
        "beat": 0.25208333134651184,
        "duration": 0.06458333134651184,
        "pitch": 30,
        "velocity": 15
      },
      {
        "beat": 0.5020833611488342,
        "duration": 0.0770833343267441,
        "pitch": 30,
        "velocity": 35
      },
      {
        "beat": 0.7520833611488342,
        "duration": 0.06458333134651184,
        "pitch": 30,
        "velocity": 15
      },
      {
        "beat": 1,
        "duration": 0.1458333283662796,
        "pitch": 26,
        "velocity": 76
      },
      {
        "beat": 1.0020833015441895,
        "duration": 0.0770833343267441,
        "pitch": 30,
        "velocity": 35
      },
      {
        "beat": 1.2520833015441895,
        "duration": 0.06458333134651184,
        "pitch": 30,
        "velocity": 15
      },
      {
        "beat": 1.5020833015441895,
        "duration": 0.0770833343267441,
        "pitch": 30,
        "velocity": 35
      },
      {
        "beat": 1.75,
        "duration": 0.10625000298023224,
        "pitch": 24,
        "velocity": 36
      },
      {
        "beat": 1.7520833015441895,
        "duration": 0.06458333134651184,
        "pitch": 30,
        "velocity": 15
      },
      {
        "beat": 2,
        "duration": 0.10833333432674408,
        "pitch": 24,
        "velocity": 67
      },
      {
        "beat": 2.00208330154419,
        "duration": 0.0770833343267441,
        "pitch": 30,
        "velocity": 35
      },
      {
        "beat": 2.25208330154419,
        "duration": 0.06458333134651184,
        "pitch": 30,
        "velocity": 15
      },
      {
        "beat": 2.50208330154419,
        "duration": 0.0770833343267441,
        "pitch": 30,
        "velocity": 35
      },
      {
        "beat": 2.75208330154419,
        "duration": 0.06458333134651184,
        "pitch": 30,
        "velocity": 15
      },
      {
        "beat": 3,
        "duration": 0.09166666865348816,
        "pitch": 26,
        "velocity": 76
      },
      {
        "beat": 3.00208330154419,
        "duration": 0.0770833343267441,
        "pitch": 30,
        "velocity": 35
      },
      {
        "beat": 3.25,
        "duration": 0.10625000298023224,
        "pitch": 24,
        "velocity": 41
      },
      {
        "beat": 3.25208330154419,
        "duration": 0.06458333134651184,
        "pitch": 30,
        "velocity": 15
      },
      {
        "beat": 3.50208330154419,
        "duration": 0.0770833343267441,
        "pitch": 30,
        "velocity": 35
      },
      {
        "beat": 3.75,
        "duration": 0.10625000298023224,
        "pitch": 24,
        "velocity": 36
      },
      {
        "beat": 3.75208330154419,
        "duration": 0.06458333134651184,
        "pitch": 30,
        "velocity": 15
      }
    ],
    "crc32": 3564991097,
    "midiSize": 223,
    "midiSha1": "9bb59b7c8c80b322b4605268759488ec798cfa02"
  },
  {
    "code": "EJB_ChapMen_14",
    "kind": "drum",
    "family": "Drum",
    "modelType": "dmachine_model",
    "subtype": "proller",
    "bpm": 115,
    "beat": "4/4",
    "bnum": 44,
    "noteCount": 11,
    "midi": "pattern_midis/EJB_ChapMen_14.mid",
    "notes": [
      {
        "beat": 0,
        "duration": 0.21666666865348816,
        "pitch": 24,
        "velocity": 61
      },
      {
        "beat": 0.5,
        "duration": 0.1145833358168602,
        "pitch": 30,
        "velocity": 22
      },
      {
        "beat": 1,
        "duration": 0.20000000298023224,
        "pitch": 26,
        "velocity": 74
      },
      {
        "beat": 1.5,
        "duration": 0.1145833358168602,
        "pitch": 30,
        "velocity": 22
      },
      {
        "beat": 1.75,
        "duration": 0.1145833358168602,
        "pitch": 30,
        "velocity": 11
      },
      {
        "beat": 2,
        "duration": 0.17291666567325592,
        "pitch": 24,
        "velocity": 60
      },
      {
        "beat": 2,
        "duration": 0.15416666865348816,
        "pitch": 30,
        "velocity": 53
      },
      {
        "beat": 2.5,
        "duration": 0.1145833358168602,
        "pitch": 30,
        "velocity": 22
      },
      {
        "beat": 3,
        "duration": 0.18958333134651184,
        "pitch": 26,
        "velocity": 74
      },
      {
        "beat": 3.5,
        "duration": 0.1145833358168602,
        "pitch": 30,
        "velocity": 22
      },
      {
        "beat": 3.75,
        "duration": 0.1145833358168602,
        "pitch": 30,
        "velocity": 11
      }
    ],
    "crc32": 1459062215,
    "midiSize": 151,
    "midiSha1": "5594f8bef3d2f31307bb8fc2a2355e2073887044"
  },
  {
    "code": "EJB_ChapMen_15",
    "kind": "drum",
    "family": "Drum",
    "modelType": "dmachine_model",
    "subtype": "proller",
    "bpm": 120,
    "beat": "4/4",
    "bnum": 44,
    "noteCount": 10,
    "midi": "pattern_midis/EJB_ChapMen_15.mid",
    "notes": [
      {
        "beat": 0,
        "duration": 0.4833333194255829,
        "pitch": 24,
        "velocity": 62
      },
      {
        "beat": 0,
        "duration": 0.5,
        "pitch": 41,
        "velocity": 51
      },
      {
        "beat": 1,
        "duration": 0.4833333194255829,
        "pitch": 24,
        "velocity": 71
      },
      {
        "beat": 1,
        "duration": 0.6979166865348816,
        "pitch": 29,
        "velocity": 59
      },
      {
        "beat": 1,
        "duration": 0.25,
        "pitch": 32,
        "velocity": 19
      },
      {
        "beat": 2,
        "duration": 0.675000011920929,
        "pitch": 24,
        "velocity": 68
      },
      {
        "beat": 2,
        "duration": 0.25,
        "pitch": 32,
        "velocity": 19
      },
      {
        "beat": 3,
        "duration": 0.675000011920929,
        "pitch": 24,
        "velocity": 77
      },
      {
        "beat": 3,
        "duration": 0.6479166746139526,
        "pitch": 29,
        "velocity": 64
      },
      {
        "beat": 3,
        "duration": 0.25,
        "pitch": 32,
        "velocity": 19
      }
    ],
    "crc32": 4273402180,
    "midiSize": 133,
    "midiSha1": "e82229bb0ceaa12e6859aa6d53940a5776822469"
  },
  {
    "code": "EJB_ChapMen_2",
    "kind": "drum",
    "family": "Drum",
    "modelType": "dmachine_model",
    "subtype": "proller",
    "bpm": 130,
    "beat": "4/4",
    "bnum": 44,
    "noteCount": 13,
    "midi": "pattern_midis/EJB_ChapMen_2.mid",
    "notes": [
      {
        "beat": 0,
        "duration": 0.38333332538604736,
        "pitch": 24,
        "velocity": 97
      },
      {
        "beat": 0,
        "duration": 0.387499988079071,
        "pitch": 41,
        "velocity": 57
      },
      {
        "beat": 0.5,
        "duration": 0.2083333283662796,
        "pitch": 30,
        "velocity": 35
      },
      {
        "beat": 1,
        "duration": 0.3375000059604645,
        "pitch": 29,
        "velocity": 100
      },
      {
        "beat": 1,
        "duration": 0.23749999701976776,
        "pitch": 30,
        "velocity": 72
      },
      {
        "beat": 1.5,
        "duration": 0.25,
        "pitch": 30,
        "velocity": 29
      },
      {
        "beat": 2,
        "duration": 0.33541667461395264,
        "pitch": 24,
        "velocity": 94
      },
      {
        "beat": 2,
        "duration": 0.24791666865348816,
        "pitch": 30,
        "velocity": 65
      },
      {
        "beat": 2.5,
        "duration": 0.34166666865348816,
        "pitch": 24,
        "velocity": 89
      },
      {
        "beat": 2.5,
        "duration": 0.2562499940395355,
        "pitch": 30,
        "velocity": 24
      },
      {
        "beat": 3,
        "duration": 0.34166666865348816,
        "pitch": 29,
        "velocity": 99
      },
      {
        "beat": 3,
        "duration": 0.2645833194255829,
        "pitch": 30,
        "velocity": 61
      },
      {
        "beat": 3.5,
        "duration": 0.21458333730697632,
        "pitch": 30,
        "velocity": 8
      }
    ],
    "crc32": 2428872482,
    "midiSize": 154,
    "midiSha1": "9d2ba9c5dda5207c3bfdb8b1e8f44cc6be697b54"
  },
  {
    "code": "EJB_ChapMen_3",
    "kind": "drum",
    "family": "Drum",
    "modelType": "dmachine_model",
    "subtype": "proller",
    "bpm": 90,
    "beat": "4/4",
    "bnum": 44,
    "noteCount": 11,
    "midi": "pattern_midis/EJB_ChapMen_3.mid",
    "notes": [
      {
        "beat": 0,
        "duration": 0.34166666865348816,
        "pitch": 24,
        "velocity": 97
      },
      {
        "beat": 0,
        "duration": 0.2562499940395355,
        "pitch": 41,
        "velocity": 30
      },
      {
        "beat": 1,
        "duration": 0.30416667461395264,
        "pitch": 29,
        "velocity": 96
      },
      {
        "beat": 1,
        "duration": 0.25,
        "pitch": 34,
        "velocity": 1
      },
      {
        "beat": 1.75,
        "duration": 0.25,
        "pitch": 27,
        "velocity": 30
      },
      {
        "beat": 2,
        "duration": 0.17083333432674408,
        "pitch": 24,
        "velocity": 70
      },
      {
        "beat": 2,
        "duration": 0.25,
        "pitch": 44,
        "velocity": 1
      },
      {
        "beat": 2.5,
        "duration": 0.20208333432674408,
        "pitch": 24,
        "velocity": 109
      },
      {
        "beat": 3,
        "duration": 0.268750011920929,
        "pitch": 29,
        "velocity": 115
      },
      {
        "beat": 3,
        "duration": 0.25,
        "pitch": 34,
        "velocity": 1
      },
      {
        "beat": 3.75,
        "duration": 0.20416666567325592,
        "pitch": 26,
        "velocity": 18
      }
    ],
    "crc32": 2989821645,
    "midiSize": 140,
    "midiSha1": "1e4f3e7261dec012ea596aed84a0eb96f1a0871f"
  },
  {
    "code": "EJB_ChapMen_4",
    "kind": "drum",
    "family": "Drum",
    "modelType": "dmachine_model",
    "subtype": "proller",
    "bpm": 86,
    "beat": "4/4",
    "bnum": 86,
    "noteCount": 4,
    "midi": "pattern_midis/EJB_ChapMen_4.mid",
    "notes": [
      {
        "beat": 0,
        "duration": 1.5,
        "pitch": 24,
        "velocity": 103
      },
      {
        "beat": 1.5,
        "duration": 1,
        "pitch": 29,
        "velocity": 96
      },
      {
        "beat": 2.5,
        "duration": 0.5,
        "pitch": 24,
        "velocity": 98
      },
      {
        "beat": 3,
        "duration": 1.5,
        "pitch": 24,
        "velocity": 110
      }
    ],
    "crc32": 2814198832,
    "midiSize": 92,
    "midiSha1": "cc3943c4c41289298a326dc2d825aa13a72fe182"
  },
  {
    "code": "EJB_ChapMen_5",
    "kind": "drum",
    "family": "Drum",
    "modelType": "dmachine_model",
    "subtype": "proller",
    "bpm": 85,
    "beat": "4/4",
    "bnum": 44,
    "noteCount": 8,
    "midi": "pattern_midis/EJB_ChapMen_5.mid",
    "notes": [
      {
        "beat": 0,
        "duration": 0.762499988079071,
        "pitch": 24,
        "velocity": 92
      },
      {
        "beat": 0,
        "duration": 1.125,
        "pitch": 41,
        "velocity": 89
      },
      {
        "beat": 1,
        "duration": 0.6979166865348816,
        "pitch": 26,
        "velocity": 98
      },
      {
        "beat": 1,
        "duration": 0.7270833253860474,
        "pitch": 30,
        "velocity": 75
      },
      {
        "beat": 2,
        "duration": 0.675000011920929,
        "pitch": 24,
        "velocity": 95
      },
      {
        "beat": 2,
        "duration": 0.293749988079071,
        "pitch": 30,
        "velocity": 50
      },
      {
        "beat": 3,
        "duration": 0.6479166746139526,
        "pitch": 26,
        "velocity": 95
      },
      {
        "beat": 3,
        "duration": 0.693750023841858,
        "pitch": 30,
        "velocity": 81
      }
    ],
    "crc32": 3933820404,
    "midiSize": 121,
    "midiSha1": "686438fce8510ad68e337c27e115f02712169493"
  },
  {
    "code": "EJB_ChapMen_6",
    "kind": "drum",
    "family": "Drum",
    "modelType": "dmachine_model",
    "subtype": "proller",
    "bpm": 85,
    "beat": "4/4",
    "bnum": 44,
    "noteCount": 12,
    "midi": "pattern_midis/EJB_ChapMen_6.mid",
    "notes": [
      {
        "beat": 0,
        "duration": 0.762499988079071,
        "pitch": 24,
        "velocity": 92
      },
      {
        "beat": 0,
        "duration": 1.125,
        "pitch": 41,
        "velocity": 89
      },
      {
        "beat": 0.5,
        "duration": 0.24791666865348816,
        "pitch": 30,
        "velocity": 38
      },
      {
        "beat": 1,
        "duration": 0.6979166865348816,
        "pitch": 26,
        "velocity": 98
      },
      {
        "beat": 1,
        "duration": 0.34166666865348816,
        "pitch": 30,
        "velocity": 71
      },
      {
        "beat": 1.5,
        "duration": 0.3083333373069763,
        "pitch": 30,
        "velocity": 30
      },
      {
        "beat": 2,
        "duration": 0.675000011920929,
        "pitch": 24,
        "velocity": 95
      },
      {
        "beat": 2,
        "duration": 0.4166666567325592,
        "pitch": 30,
        "velocity": 63
      },
      {
        "beat": 2.5,
        "duration": 0.24791666865348816,
        "pitch": 30,
        "velocity": 38
      },
      {
        "beat": 3,
        "duration": 0.6479166746139526,
        "pitch": 26,
        "velocity": 95
      },
      {
        "beat": 3,
        "duration": 0.34375,
        "pitch": 30,
        "velocity": 64
      },
      {
        "beat": 3.5,
        "duration": 0.3083333373069763,
        "pitch": 30,
        "velocity": 30
      }
    ],
    "crc32": 1201319453,
    "midiSize": 147,
    "midiSha1": "c2aafced8b509df561172faa89fdee634d2b8436"
  },
  {
    "code": "EJB_ChapMen_7",
    "kind": "drum",
    "family": "Drum",
    "modelType": "dmachine_model",
    "subtype": "proller",
    "bpm": 85,
    "beat": "4/4",
    "bnum": 44,
    "noteCount": 20,
    "midi": "pattern_midis/EJB_ChapMen_7.mid",
    "notes": [
      {
        "beat": 0,
        "duration": 0.762499988079071,
        "pitch": 24,
        "velocity": 92
      },
      {
        "beat": 0,
        "duration": 1.125,
        "pitch": 41,
        "velocity": 89
      },
      {
        "beat": 0.25,
        "duration": 0.18125000596046448,
        "pitch": 30,
        "velocity": 34
      },
      {
        "beat": 0.5,
        "duration": 0.18125000596046448,
        "pitch": 30,
        "velocity": 34
      },
      {
        "beat": 0.75,
        "duration": 0.15208333730697632,
        "pitch": 30,
        "velocity": 27
      },
      {
        "beat": 1,
        "duration": 0.6979166865348816,
        "pitch": 26,
        "velocity": 98
      },
      {
        "beat": 1,
        "duration": 0.21666666865348816,
        "pitch": 30,
        "velocity": 62
      },
      {
        "beat": 1.25,
        "duration": 0.18125000596046448,
        "pitch": 30,
        "velocity": 34
      },
      {
        "beat": 1.5,
        "duration": 0.23333333432674408,
        "pitch": 30,
        "velocity": 27
      },
      {
        "beat": 1.75,
        "duration": 0.18125000596046448,
        "pitch": 30,
        "velocity": 51
      },
      {
        "beat": 2,
        "duration": 0.675000011920929,
        "pitch": 24,
        "velocity": 95
      },
      {
        "beat": 2,
        "duration": 0.21666666865348816,
        "pitch": 30,
        "velocity": 35
      },
      {
        "beat": 2.25,
        "duration": 0.18125000596046448,
        "pitch": 30,
        "velocity": 50
      },
      {
        "beat": 2.5,
        "duration": 0.23333333432674408,
        "pitch": 30,
        "velocity": 27
      },
      {
        "beat": 2.75,
        "duration": 0.18125000596046448,
        "pitch": 30,
        "velocity": 34
      },
      {
        "beat": 3,
        "duration": 0.6479166746139526,
        "pitch": 26,
        "velocity": 95
      },
      {
        "beat": 3,
        "duration": 0.1979166716337204,
        "pitch": 30,
        "velocity": 55
      },
      {
        "beat": 3.25,
        "duration": 0.23333333432674408,
        "pitch": 30,
        "velocity": 27
      },
      {
        "beat": 3.5,
        "duration": 0.21458333730697632,
        "pitch": 30,
        "velocity": 46
      },
      {
        "beat": 3.75,
        "duration": 0.19583334028720856,
        "pitch": 30,
        "velocity": 23
      }
    ],
    "crc32": 2027086941,
    "midiSize": 208,
    "midiSha1": "855ded3555ebe50109d43853c7d916a851e68f3f"
  },
  {
    "code": "EJB_ChapMen_8",
    "kind": "drum",
    "family": "Drum",
    "modelType": "dmachine_model",
    "subtype": "proller",
    "bpm": 115,
    "beat": "4/4",
    "bnum": 43,
    "noteCount": 8,
    "midi": "pattern_midis/EJB_ChapMen_8.mid",
    "notes": [
      {
        "beat": 0,
        "duration": 0.837499976158142,
        "pitch": 24,
        "velocity": 100
      },
      {
        "beat": 0,
        "duration": 0.25,
        "pitch": 32,
        "velocity": 1
      },
      {
        "beat": 0,
        "duration": 0.912500023841858,
        "pitch": 41,
        "velocity": 61
      },
      {
        "beat": 1,
        "duration": 0.4583333432674408,
        "pitch": 30,
        "velocity": 46
      },
      {
        "beat": 2,
        "duration": 0.5333333611488342,
        "pitch": 26,
        "velocity": 99
      },
      {
        "beat": 2,
        "duration": 0.5104166865348816,
        "pitch": 30,
        "velocity": 58
      },
      {
        "beat": 3,
        "duration": 0.8729166388511658,
        "pitch": 24,
        "velocity": 106
      },
      {
        "beat": 3,
        "duration": 0.40416666865348816,
        "pitch": 30,
        "velocity": 41
      }
    ],
    "crc32": 3445643448,
    "midiSize": 121,
    "midiSha1": "1c97f7f1afd85aadf92fa16b59b0b107529a76b1"
  },
  {
    "code": "EJB_ChapMen_9",
    "kind": "drum",
    "family": "Drum",
    "modelType": "dmachine_model",
    "subtype": "proller",
    "bpm": 86,
    "beat": "4/4",
    "bnum": 86,
    "noteCount": 10,
    "midi": "pattern_midis/EJB_ChapMen_9.mid",
    "notes": [
      {
        "beat": 0,
        "duration": 1.5,
        "pitch": 24,
        "velocity": 103
      },
      {
        "beat": 0.5,
        "duration": 0.375,
        "pitch": 30,
        "velocity": 41
      },
      {
        "beat": 1,
        "duration": 0.375,
        "pitch": 30,
        "velocity": 21
      },
      {
        "beat": 1.5,
        "duration": 1,
        "pitch": 26,
        "velocity": 96
      },
      {
        "beat": 1.5,
        "duration": 0.375,
        "pitch": 30,
        "velocity": 41
      },
      {
        "beat": 2,
        "duration": 0.375,
        "pitch": 30,
        "velocity": 21
      },
      {
        "beat": 2.5,
        "duration": 0.375,
        "pitch": 30,
        "velocity": 41
      },
      {
        "beat": 3,
        "duration": 1.5,
        "pitch": 24,
        "velocity": 110
      },
      {
        "beat": 3,
        "duration": 0.375,
        "pitch": 30,
        "velocity": 21
      },
      {
        "beat": 3.5,
        "duration": 0.375,
        "pitch": 30,
        "velocity": 41
      }
    ],
    "crc32": 3098357437,
    "midiSize": 141,
    "midiSha1": "1b696fa16fe0ada98eaef1af1384ba7fe6155b67"
  },
  {
    "code": "EMO_ChapMen_1",
    "kind": "drum",
    "family": "Drum",
    "modelType": "dmachine_model",
    "subtype": "proller",
    "bpm": 75,
    "beat": "4/4",
    "bnum": 44,
    "noteCount": 22,
    "midi": "pattern_midis/EMO_ChapMen_1.mid",
    "notes": [
      {
        "beat": 0,
        "duration": 0.22083333134651184,
        "pitch": 24,
        "velocity": 92
      },
      {
        "beat": 0,
        "duration": 0.22083333134651184,
        "pitch": 35,
        "velocity": 40
      },
      {
        "beat": 0,
        "duration": 0.22083333134651184,
        "pitch": 41,
        "velocity": 15
      },
      {
        "beat": 0.5,
        "duration": 0.22083333134651184,
        "pitch": 35,
        "velocity": 12
      },
      {
        "beat": 1,
        "duration": 0.22083333134651184,
        "pitch": 31,
        "velocity": 65
      },
      {
        "beat": 1,
        "duration": 0.22083333134651184,
        "pitch": 35,
        "velocity": 12
      },
      {
        "beat": 1.5,
        "duration": 0.22083333134651184,
        "pitch": 24,
        "velocity": 92
      },
      {
        "beat": 1.5,
        "duration": 0.22083333134651184,
        "pitch": 35,
        "velocity": 40
      },
      {
        "beat": 1.75,
        "duration": 0.22083333134651184,
        "pitch": 28,
        "velocity": 20
      },
      {
        "beat": 2,
        "duration": 0.22083333134651184,
        "pitch": 35,
        "velocity": 12
      },
      {
        "beat": 2.25,
        "duration": 0.22083333134651184,
        "pitch": 30,
        "velocity": 24
      },
      {
        "beat": 2.5,
        "duration": 0.22083333134651184,
        "pitch": 24,
        "velocity": 92
      },
      {
        "beat": 2.5,
        "duration": 0.22083333134651184,
        "pitch": 35,
        "velocity": 12
      },
      {
        "beat": 3,
        "duration": 0.22083333134651184,
        "pitch": 31,
        "velocity": 65
      },
      {
        "beat": 3,
        "duration": 0.03541666641831398,
        "pitch": 35,
        "velocity": 30
      },
      {
        "beat": 3.035416603088379,
        "duration": 0.03541666641831398,
        "pitch": 36,
        "velocity": 12
      },
      {
        "beat": 3.075000047683716,
        "duration": 0.03541666641831398,
        "pitch": 36,
        "velocity": 7
      },
      {
        "beat": 3.116666555404663,
        "duration": 0.03541666641831398,
        "pitch": 37,
        "velocity": 6
      },
      {
        "beat": 3.160416603088379,
        "duration": 0.03541666641831398,
        "pitch": 37,
        "velocity": 1
      },
      {
        "beat": 3.206249952316284,
        "duration": 0.03541666641831398,
        "pitch": 38,
        "velocity": 1
      },
      {
        "beat": 3.25,
        "duration": 0.22083333134651184,
        "pitch": 24,
        "velocity": 92
      },
      {
        "beat": 3.5,
        "duration": 0.22083333134651184,
        "pitch": 35,
        "velocity": 40
      }
    ],
    "crc32": 1391832751,
    "midiSize": 224,
    "midiSha1": "05ff391571e39a2514872d97e1e9649f1f0e54a0"
  },
  {
    "code": "EMO_ChapMen_10",
    "kind": "drum",
    "family": "Drum",
    "modelType": "dmachine_model",
    "subtype": "proller",
    "bpm": 67,
    "beat": "4/4",
    "bnum": 86,
    "noteCount": 15,
    "midi": "pattern_midis/EMO_ChapMen_10.mid",
    "notes": [
      {
        "beat": 0,
        "duration": 0.1354166716337204,
        "pitch": 24,
        "velocity": 60
      },
      {
        "beat": 0,
        "duration": 0.09375,
        "pitch": 42,
        "velocity": 35
      },
      {
        "beat": 0.5020833611488342,
        "duration": 0.05416666716337204,
        "pitch": 37,
        "velocity": 10
      },
      {
        "beat": 1.0020833015441895,
        "duration": 0.0770833343267441,
        "pitch": 37,
        "velocity": 5
      },
      {
        "beat": 1.350000023841858,
        "duration": 0.10625000298023224,
        "pitch": 24,
        "velocity": 25
      },
      {
        "beat": 1.5,
        "duration": 0.11666666716337204,
        "pitch": 30,
        "velocity": 51
      },
      {
        "beat": 1.5,
        "duration": 0.11666666716337204,
        "pitch": 34,
        "velocity": 51
      },
      {
        "beat": 1.5,
        "duration": 0.09375,
        "pitch": 37,
        "velocity": 35
      },
      {
        "beat": 2.00208330154419,
        "duration": 0.05416666716337204,
        "pitch": 37,
        "velocity": 10
      },
      {
        "beat": 2.5,
        "duration": 0.1354166716337204,
        "pitch": 24,
        "velocity": 60
      },
      {
        "beat": 2.50208330154419,
        "duration": 0.0770833343267441,
        "pitch": 37,
        "velocity": 5
      },
      {
        "beat": 2.847916603088379,
        "duration": 0.10625000298023224,
        "pitch": 24,
        "velocity": 25
      },
      {
        "beat": 3,
        "duration": 0.10625000298023224,
        "pitch": 24,
        "velocity": 59
      },
      {
        "beat": 3,
        "duration": 0.09375,
        "pitch": 37,
        "velocity": 35
      },
      {
        "beat": 3.50208330154419,
        "duration": 0.05416666716337204,
        "pitch": 37,
        "velocity": 10
      }
    ],
    "crc32": 2399651651,
    "midiSize": 175,
    "midiSha1": "85cd0a328410f7b4bdbad0daf050848b962d3283"
  },
  {
    "code": "EMO_ChapMen_11",
    "kind": "drum",
    "family": "Drum",
    "modelType": "dmachine_model",
    "subtype": "proller",
    "bpm": 81,
    "beat": "4/4",
    "bnum": 44,
    "noteCount": 14,
    "midi": "pattern_midis/EMO_ChapMen_11.mid",
    "notes": [
      {
        "beat": 0,
        "duration": 0.4124999940395355,
        "pitch": 24,
        "velocity": 74
      },
      {
        "beat": 0,
        "duration": 0.09791667014360428,
        "pitch": 37,
        "velocity": 51
      },
      {
        "beat": 0.5,
        "duration": 0.08541666716337204,
        "pitch": 37,
        "velocity": 15
      },
      {
        "beat": 1,
        "duration": 0.37291666865348816,
        "pitch": 30,
        "velocity": 76
      },
      {
        "beat": 1,
        "duration": 0.37291666865348816,
        "pitch": 32,
        "velocity": 36
      },
      {
        "beat": 1,
        "duration": 0.09791667014360428,
        "pitch": 37,
        "velocity": 51
      },
      {
        "beat": 1.5,
        "duration": 0.7541666626930237,
        "pitch": 24,
        "velocity": 64
      },
      {
        "beat": 1.5,
        "duration": 0.08541666716337204,
        "pitch": 37,
        "velocity": 15
      },
      {
        "beat": 2,
        "duration": 0.09791667014360428,
        "pitch": 37,
        "velocity": 51
      },
      {
        "beat": 2.5,
        "duration": 0.08541666716337204,
        "pitch": 37,
        "velocity": 15
      },
      {
        "beat": 3,
        "duration": 0.1666666716337204,
        "pitch": 30,
        "velocity": 80
      },
      {
        "beat": 3,
        "duration": 0.1666666716337204,
        "pitch": 32,
        "velocity": 40
      },
      {
        "beat": 3,
        "duration": 0.09791667014360428,
        "pitch": 37,
        "velocity": 51
      },
      {
        "beat": 3.5,
        "duration": 0.08541666716337204,
        "pitch": 37,
        "velocity": 15
      }
    ],
    "crc32": 2136859117,
    "midiSize": 165,
    "midiSha1": "fbe31fffdf48de092f0a363bbedae7024e0d9d35"
  },
  {
    "code": "EMO_ChapMen_12",
    "kind": "drum",
    "family": "Drum",
    "modelType": "dmachine_model",
    "subtype": "proller",
    "bpm": 81,
    "beat": "4/4",
    "bnum": 44,
    "noteCount": 15,
    "midi": "pattern_midis/EMO_ChapMen_12.mid",
    "notes": [
      {
        "beat": 0,
        "duration": 0.4124999940395355,
        "pitch": 24,
        "velocity": 74
      },
      {
        "beat": 0,
        "duration": 0.09791667014360428,
        "pitch": 42,
        "velocity": 38
      },
      {
        "beat": 0.5,
        "duration": 0.08541666716337204,
        "pitch": 37,
        "velocity": 15
      },
      {
        "beat": 1,
        "duration": 0.37291666865348816,
        "pitch": 30,
        "velocity": 76
      },
      {
        "beat": 1,
        "duration": 0.37291666865348816,
        "pitch": 32,
        "velocity": 36
      },
      {
        "beat": 1,
        "duration": 0.09791667014360428,
        "pitch": 37,
        "velocity": 51
      },
      {
        "beat": 1.5,
        "duration": 0.7541666626930237,
        "pitch": 24,
        "velocity": 64
      },
      {
        "beat": 1.5,
        "duration": 0.08541666716337204,
        "pitch": 37,
        "velocity": 15
      },
      {
        "beat": 2,
        "duration": 0.08541666716337204,
        "pitch": 37,
        "velocity": 10
      },
      {
        "beat": 2.5,
        "duration": 0.08541666716337204,
        "pitch": 37,
        "velocity": 15
      },
      {
        "beat": 3,
        "duration": 0.1666666716337204,
        "pitch": 30,
        "velocity": 80
      },
      {
        "beat": 3,
        "duration": 0.1666666716337204,
        "pitch": 32,
        "velocity": 40
      },
      {
        "beat": 3,
        "duration": 0.09791667014360428,
        "pitch": 37,
        "velocity": 51
      },
      {
        "beat": 3.25,
        "duration": 0.08541666716337204,
        "pitch": 37,
        "velocity": 15
      },
      {
        "beat": 3.75,
        "duration": 0.08541666716337204,
        "pitch": 37,
        "velocity": 15
      }
    ],
    "crc32": 975008300,
    "midiSize": 173,
    "midiSha1": "763f2bfdfd49701a56a26bb79b4388cdf5362ad2"
  },
  {
    "code": "EMO_ChapMen_13",
    "kind": "drum",
    "family": "Drum",
    "modelType": "dmachine_model",
    "subtype": "proller",
    "bpm": 73,
    "beat": "4/4",
    "bnum": 44,
    "noteCount": 13,
    "midi": "pattern_midis/EMO_ChapMen_13.mid",
    "notes": [
      {
        "beat": 0,
        "duration": 0.5,
        "pitch": 25,
        "velocity": 73
      },
      {
        "beat": 0,
        "duration": 0.25,
        "pitch": 39,
        "velocity": 1
      },
      {
        "beat": 0.5,
        "duration": 0.25,
        "pitch": 39,
        "velocity": 42
      },
      {
        "beat": 0.75,
        "duration": 0.25,
        "pitch": 38,
        "velocity": 42
      },
      {
        "beat": 1,
        "duration": 0.75,
        "pitch": 31,
        "velocity": 73
      },
      {
        "beat": 1,
        "duration": 0.25,
        "pitch": 39,
        "velocity": 1
      },
      {
        "beat": 1.75,
        "duration": 0.25,
        "pitch": 25,
        "velocity": 73
      },
      {
        "beat": 2,
        "duration": 0.25,
        "pitch": 25,
        "velocity": 73
      },
      {
        "beat": 2.75,
        "duration": 0.25,
        "pitch": 31,
        "velocity": 73
      },
      {
        "beat": 3,
        "duration": 0.25,
        "pitch": 35,
        "velocity": 42
      },
      {
        "beat": 3.25,
        "duration": 0.25,
        "pitch": 38,
        "velocity": 1
      },
      {
        "beat": 3.5,
        "duration": 0.25,
        "pitch": 39,
        "velocity": 1
      },
      {
        "beat": 3.75,
        "duration": 0.25,
        "pitch": 38,
        "velocity": 1
      }
    ],
    "crc32": 1674220013,
    "midiSize": 159,
    "midiSha1": "c9936573225f8022780238e4954fc3a8498156ed"
  },
  {
    "code": "EMO_ChapMen_14",
    "kind": "drum",
    "family": "Drum",
    "modelType": "dmachine_model",
    "subtype": "proller",
    "bpm": 73,
    "beat": "4/4",
    "bnum": 44,
    "noteCount": 31,
    "midi": "pattern_midis/EMO_ChapMen_14.mid",
    "notes": [
      {
        "beat": 0,
        "duration": 0.5,
        "pitch": 24,
        "velocity": 73
      },
      {
        "beat": 0,
        "duration": 0.125,
        "pitch": 36,
        "velocity": 18
      },
      {
        "beat": 0,
        "duration": 0.25,
        "pitch": 42,
        "velocity": 1
      },
      {
        "beat": 0,
        "duration": 0.25,
        "pitch": 47,
        "velocity": 1
      },
      {
        "beat": 0.125,
        "duration": 0.125,
        "pitch": 35,
        "velocity": 18
      },
      {
        "beat": 0.25,
        "duration": 0.25,
        "pitch": 37,
        "velocity": 18
      },
      {
        "beat": 0.5,
        "duration": 0.25,
        "pitch": 36,
        "velocity": 18
      },
      {
        "beat": 0.5,
        "duration": 0.25,
        "pitch": 39,
        "velocity": 42
      },
      {
        "beat": 0.75,
        "duration": 0.25,
        "pitch": 38,
        "velocity": 18
      },
      {
        "beat": 1,
        "duration": 0.5,
        "pitch": 27,
        "velocity": 73
      },
      {
        "beat": 1,
        "duration": 0.75,
        "pitch": 31,
        "velocity": 37
      },
      {
        "beat": 1,
        "duration": 0.25,
        "pitch": 36,
        "velocity": 18
      },
      {
        "beat": 1,
        "duration": 0.25,
        "pitch": 39,
        "velocity": 1
      },
      {
        "beat": 1.25,
        "duration": 0.25,
        "pitch": 37,
        "velocity": 18
      },
      {
        "beat": 1.5,
        "duration": 0.25,
        "pitch": 36,
        "velocity": 18
      },
      {
        "beat": 1.75,
        "duration": 0.25,
        "pitch": 24,
        "velocity": 73
      },
      {
        "beat": 1.75,
        "duration": 0.25,
        "pitch": 38,
        "velocity": 18
      },
      {
        "beat": 2,
        "duration": 0.25,
        "pitch": 24,
        "velocity": 73
      },
      {
        "beat": 2,
        "duration": 0.25,
        "pitch": 36,
        "velocity": 18
      },
      {
        "beat": 2.25,
        "duration": 0.25,
        "pitch": 37,
        "velocity": 18
      },
      {
        "beat": 2.5,
        "duration": 0.25,
        "pitch": 36,
        "velocity": 18
      },
      {
        "beat": 2.75,
        "duration": 0.25,
        "pitch": 31,
        "velocity": 37
      },
      {
        "beat": 2.75,
        "duration": 0.25,
        "pitch": 38,
        "velocity": 18
      },
      {
        "beat": 3,
        "duration": 0.5,
        "pitch": 27,
        "velocity": 73
      },
      {
        "beat": 3,
        "duration": 0.25,
        "pitch": 37,
        "velocity": 18
      },
      {
        "beat": 3.25,
        "duration": 0.125,
        "pitch": 37,
        "velocity": 18
      },
      {
        "beat": 3.375,
        "duration": 0.125,
        "pitch": 38,
        "velocity": 18
      },
      {
        "beat": 3.5,
        "duration": 0.25,
        "pitch": 36,
        "velocity": 18
      },
      {
        "beat": 3.5,
        "duration": 0.25,
        "pitch": 39,
        "velocity": 1
      },
      {
        "beat": 3.75,
        "duration": 0.125,
        "pitch": 37,
        "velocity": 18
      },
      {
        "beat": 3.875,
        "duration": 0.125,
        "pitch": 38,
        "velocity": 18
      }
    ],
    "crc32": 3769445389,
    "midiSize": 281,
    "midiSha1": "c058e2d20dd4196241225163ea5158f17f2e9086"
  },
  {
    "code": "EMO_ChapMen_15",
    "kind": "drum",
    "family": "Drum",
    "modelType": "dmachine_model",
    "subtype": "proller",
    "bpm": 96,
    "beat": "4/4",
    "bnum": 44,
    "noteCount": 11,
    "midi": "pattern_midis/EMO_ChapMen_15.mid",
    "notes": [
      {
        "beat": 0,
        "duration": 0.387499988079071,
        "pitch": 25,
        "velocity": 73
      },
      {
        "beat": 0.5,
        "duration": 0.13750000298023224,
        "pitch": 35,
        "velocity": 1
      },
      {
        "beat": 0.824999988079071,
        "duration": 0.13750000298023224,
        "pitch": 25,
        "velocity": 73
      },
      {
        "beat": 0.8333333134651184,
        "duration": 0.13750000298023224,
        "pitch": 37,
        "velocity": 1
      },
      {
        "beat": 1,
        "duration": 0.637499988079071,
        "pitch": 31,
        "velocity": 73
      },
      {
        "beat": 1,
        "duration": 0.13750000298023224,
        "pitch": 38,
        "velocity": 1
      },
      {
        "beat": 2,
        "duration": 0.387499988079071,
        "pitch": 25,
        "velocity": 73
      },
      {
        "beat": 2.5,
        "duration": 0.13750000298023224,
        "pitch": 35,
        "velocity": 1
      },
      {
        "beat": 2.825000047683716,
        "duration": 0.13750000298023224,
        "pitch": 25,
        "velocity": 73
      },
      {
        "beat": 3,
        "duration": 0.637499988079071,
        "pitch": 31,
        "velocity": 73
      },
      {
        "beat": 3,
        "duration": 0.13750000298023224,
        "pitch": 38,
        "velocity": 1
      }
    ],
    "crc32": 2722919920,
    "midiSize": 146,
    "midiSha1": "49b42555ddacd8c2955a4724ed0f83c7e438f0a6"
  },
  {
    "code": "EMO_ChapMen_16",
    "kind": "drum",
    "family": "Drum",
    "modelType": "dmachine_model",
    "subtype": "proller",
    "bpm": 96,
    "beat": "4/4",
    "bnum": 44,
    "noteCount": 16,
    "midi": "pattern_midis/EMO_ChapMen_16.mid",
    "notes": [
      {
        "beat": 0,
        "duration": 0.387499988079071,
        "pitch": 24,
        "velocity": 73
      },
      {
        "beat": 0,
        "duration": 0.13750000298023224,
        "pitch": 41,
        "velocity": 5
      },
      {
        "beat": 0.5,
        "duration": 0.13750000298023224,
        "pitch": 35,
        "velocity": 1
      },
      {
        "beat": 0.824999988079071,
        "duration": 0.13750000298023224,
        "pitch": 24,
        "velocity": 73
      },
      {
        "beat": 0.8333333134651184,
        "duration": 0.13750000298023224,
        "pitch": 37,
        "velocity": 1
      },
      {
        "beat": 1,
        "duration": 0.637499988079071,
        "pitch": 27,
        "velocity": 25
      },
      {
        "beat": 1,
        "duration": 0.637499988079071,
        "pitch": 31,
        "velocity": 73
      },
      {
        "beat": 1,
        "duration": 0.13750000298023224,
        "pitch": 38,
        "velocity": 1
      },
      {
        "beat": 1.5,
        "duration": 0.13750000298023224,
        "pitch": 36,
        "velocity": 1
      },
      {
        "beat": 2,
        "duration": 0.387499988079071,
        "pitch": 24,
        "velocity": 73
      },
      {
        "beat": 2.5,
        "duration": 0.13750000298023224,
        "pitch": 35,
        "velocity": 1
      },
      {
        "beat": 2.825000047683716,
        "duration": 0.13750000298023224,
        "pitch": 24,
        "velocity": 73
      },
      {
        "beat": 3,
        "duration": 0.637499988079071,
        "pitch": 27,
        "velocity": 25
      },
      {
        "beat": 3,
        "duration": 0.637499988079071,
        "pitch": 31,
        "velocity": 73
      },
      {
        "beat": 3,
        "duration": 0.13750000298023224,
        "pitch": 38,
        "velocity": 1
      },
      {
        "beat": 3.5,
        "duration": 0.13750000298023224,
        "pitch": 36,
        "velocity": 1
      }
    ],
    "crc32": 3951359767,
    "midiSize": 179,
    "midiSha1": "4c94c324654ab7f0a4d886ef1db2808edb5be6ca"
  },
  {
    "code": "EMO_ChapMen_2",
    "kind": "drum",
    "family": "Drum",
    "modelType": "dmachine_model",
    "subtype": "proller",
    "bpm": 95,
    "beat": "4/4",
    "bnum": 44,
    "noteCount": 23,
    "midi": "pattern_midis/EMO_ChapMen_2.mid",
    "notes": [
      {
        "beat": 0,
        "duration": 0.22083333134651184,
        "pitch": 24,
        "velocity": 66
      },
      {
        "beat": 0,
        "duration": 0.1666666716337204,
        "pitch": 35,
        "velocity": 1
      },
      {
        "beat": 0,
        "duration": 0.4020833373069763,
        "pitch": 39,
        "velocity": 36
      },
      {
        "beat": 0.5,
        "duration": 0.22083333134651184,
        "pitch": 24,
        "velocity": 36
      },
      {
        "beat": 0.5,
        "duration": 0.15208333730697632,
        "pitch": 38,
        "velocity": 1
      },
      {
        "beat": 0.5,
        "duration": 0.4020833373069763,
        "pitch": 39,
        "velocity": 9
      },
      {
        "beat": 1,
        "duration": 0.22083333134651184,
        "pitch": 27,
        "velocity": 66
      },
      {
        "beat": 1,
        "duration": 0.1666666716337204,
        "pitch": 35,
        "velocity": 1
      },
      {
        "beat": 1,
        "duration": 0.4020833373069763,
        "pitch": 39,
        "velocity": 36
      },
      {
        "beat": 1.5,
        "duration": 0.15208333730697632,
        "pitch": 38,
        "velocity": 1
      },
      {
        "beat": 1.5,
        "duration": 0.4020833373069763,
        "pitch": 39,
        "velocity": 9
      },
      {
        "beat": 1.850000023841858,
        "duration": 0.15000000596046448,
        "pitch": 24,
        "velocity": 47
      },
      {
        "beat": 2,
        "duration": 0.25,
        "pitch": 24,
        "velocity": 66
      },
      {
        "beat": 2,
        "duration": 0.1666666716337204,
        "pitch": 35,
        "velocity": 1
      },
      {
        "beat": 2,
        "duration": 0.4020833373069763,
        "pitch": 39,
        "velocity": 36
      },
      {
        "beat": 2.5,
        "duration": 0.25,
        "pitch": 24,
        "velocity": 66
      },
      {
        "beat": 2.5,
        "duration": 0.15208333730697632,
        "pitch": 38,
        "velocity": 1
      },
      {
        "beat": 2.5,
        "duration": 0.4020833373069763,
        "pitch": 39,
        "velocity": 9
      },
      {
        "beat": 3,
        "duration": 0.25,
        "pitch": 27,
        "velocity": 66
      },
      {
        "beat": 3,
        "duration": 0.1666666716337204,
        "pitch": 35,
        "velocity": 1
      },
      {
        "beat": 3,
        "duration": 0.4020833373069763,
        "pitch": 39,
        "velocity": 36
      },
      {
        "beat": 3.5,
        "duration": 0.15208333730697632,
        "pitch": 38,
        "velocity": 1
      },
      {
        "beat": 3.5,
        "duration": 0.4020833373069763,
        "pitch": 39,
        "velocity": 9
      }
    ],
    "crc32": 1832960557,
    "midiSize": 214,
    "midiSha1": "c91a81c0185072285bc34dbab53b6da2c3a0784f"
  },
  {
    "code": "EMO_ChapMen_3",
    "kind": "drum",
    "family": "Drum",
    "modelType": "dmachine_model",
    "subtype": "proller",
    "bpm": 85,
    "beat": "4/4",
    "bnum": 44,
    "noteCount": 8,
    "midi": "pattern_midis/EMO_ChapMen_3.mid",
    "notes": [
      {
        "beat": 0,
        "duration": 0.20000000298023224,
        "pitch": 24,
        "velocity": 85
      },
      {
        "beat": 0,
        "duration": 0.3499999940395355,
        "pitch": 42,
        "velocity": 36
      },
      {
        "beat": 1,
        "duration": 0.3333333432674408,
        "pitch": 27,
        "velocity": 64
      },
      {
        "beat": 1,
        "duration": 0.3499999940395355,
        "pitch": 37,
        "velocity": 53
      },
      {
        "beat": 2,
        "duration": 0.3499999940395355,
        "pitch": 24,
        "velocity": 85
      },
      {
        "beat": 2,
        "duration": 0.3499999940395355,
        "pitch": 35,
        "velocity": 53
      },
      {
        "beat": 3,
        "duration": 0.3499999940395355,
        "pitch": 27,
        "velocity": 64
      },
      {
        "beat": 3,
        "duration": 0.3499999940395355,
        "pitch": 37,
        "velocity": 53
      }
    ],
    "crc32": 1133504501,
    "midiSize": 120,
    "midiSha1": "ff903c48043fe3b03d5fa25d3eaeee9b33fba174"
  },
  {
    "code": "EMO_ChapMen_4",
    "kind": "drum",
    "family": "Drum",
    "modelType": "dmachine_model",
    "subtype": "proller",
    "bpm": 85,
    "beat": "4/4",
    "bnum": 44,
    "noteCount": 12,
    "midi": "pattern_midis/EMO_ChapMen_4.mid",
    "notes": [
      {
        "beat": 0,
        "duration": 0.20000000298023224,
        "pitch": 24,
        "velocity": 85
      },
      {
        "beat": 0,
        "duration": 0.3499999940395355,
        "pitch": 42,
        "velocity": 36
      },
      {
        "beat": 0.5,
        "duration": 0.3499999940395355,
        "pitch": 38,
        "velocity": 21
      },
      {
        "beat": 1,
        "duration": 0.3333333432674408,
        "pitch": 27,
        "velocity": 64
      },
      {
        "beat": 1,
        "duration": 0.3499999940395355,
        "pitch": 35,
        "velocity": 36
      },
      {
        "beat": 1.5,
        "duration": 0.3499999940395355,
        "pitch": 38,
        "velocity": 21
      },
      {
        "beat": 2,
        "duration": 0.3499999940395355,
        "pitch": 24,
        "velocity": 85
      },
      {
        "beat": 2,
        "duration": 0.3499999940395355,
        "pitch": 38,
        "velocity": 36
      },
      {
        "beat": 2.5,
        "duration": 0.34583333134651184,
        "pitch": 38,
        "velocity": 21
      },
      {
        "beat": 3,
        "duration": 0.3499999940395355,
        "pitch": 27,
        "velocity": 64
      },
      {
        "beat": 3,
        "duration": 0.3499999940395355,
        "pitch": 35,
        "velocity": 36
      },
      {
        "beat": 3.5,
        "duration": 0.34583333134651184,
        "pitch": 38,
        "velocity": 21
      }
    ],
    "crc32": 1103079553,
    "midiSize": 153,
    "midiSha1": "bb70ec9be102e6dc0163033c5b8e50a5979a2a66"
  },
  {
    "code": "EMO_ChapMen_5",
    "kind": "drum",
    "family": "Drum",
    "modelType": "dmachine_model",
    "subtype": "proller",
    "bpm": 85,
    "beat": "4/4",
    "bnum": 44,
    "noteCount": 20,
    "midi": "pattern_midis/EMO_ChapMen_5.mid",
    "notes": [
      {
        "beat": 0,
        "duration": 0.20000000298023224,
        "pitch": 24,
        "velocity": 85
      },
      {
        "beat": 0,
        "duration": 0.3499999940395355,
        "pitch": 42,
        "velocity": 36
      },
      {
        "beat": 0.25,
        "duration": 0.17916665971279144,
        "pitch": 35,
        "velocity": 36
      },
      {
        "beat": 0.5,
        "duration": 0.17916665971279144,
        "pitch": 35,
        "velocity": 36
      },
      {
        "beat": 0.75,
        "duration": 0.17916665971279144,
        "pitch": 35,
        "velocity": 36
      },
      {
        "beat": 1,
        "duration": 0.3333333432674408,
        "pitch": 27,
        "velocity": 64
      },
      {
        "beat": 1,
        "duration": 0.17916665971279144,
        "pitch": 35,
        "velocity": 43
      },
      {
        "beat": 1.25,
        "duration": 0.17916665971279144,
        "pitch": 35,
        "velocity": 36
      },
      {
        "beat": 1.5,
        "duration": 0.17916665971279144,
        "pitch": 35,
        "velocity": 30
      },
      {
        "beat": 1.75,
        "duration": 0.17916665971279144,
        "pitch": 35,
        "velocity": 23
      },
      {
        "beat": 2,
        "duration": 0.3499999940395355,
        "pitch": 24,
        "velocity": 85
      },
      {
        "beat": 2,
        "duration": 0.17916665971279144,
        "pitch": 35,
        "velocity": 31
      },
      {
        "beat": 2.25,
        "duration": 0.17916665971279144,
        "pitch": 35,
        "velocity": 37
      },
      {
        "beat": 2.5,
        "duration": 0.17916665971279144,
        "pitch": 35,
        "velocity": 43
      },
      {
        "beat": 2.75,
        "duration": 0.17916665971279144,
        "pitch": 35,
        "velocity": 49
      },
      {
        "beat": 3,
        "duration": 0.3499999940395355,
        "pitch": 27,
        "velocity": 64
      },
      {
        "beat": 3,
        "duration": 0.17916665971279144,
        "pitch": 35,
        "velocity": 53
      },
      {
        "beat": 3.25,
        "duration": 0.17916665971279144,
        "pitch": 35,
        "velocity": 46
      },
      {
        "beat": 3.5,
        "duration": 0.17916665971279144,
        "pitch": 35,
        "velocity": 38
      },
      {
        "beat": 3.75,
        "duration": 0.17916665971279144,
        "pitch": 35,
        "velocity": 31
      }
    ],
    "crc32": 3307605990,
    "midiSize": 210,
    "midiSha1": "4b286486c32930cb2569dddf00934b0d978ec7e7"
  },
  {
    "code": "EMO_ChapMen_6",
    "kind": "drum",
    "family": "Drum",
    "modelType": "dmachine_model",
    "subtype": "proller",
    "bpm": 115,
    "beat": "4/4",
    "bnum": 43,
    "noteCount": 8,
    "midi": "pattern_midis/EMO_ChapMen_6.mid",
    "notes": [
      {
        "beat": 0,
        "duration": 0.6666666865348816,
        "pitch": 24,
        "velocity": 90
      },
      {
        "beat": 0,
        "duration": 0.625,
        "pitch": 42,
        "velocity": 42
      },
      {
        "beat": 1,
        "duration": 0.5333333611488342,
        "pitch": 27,
        "velocity": 75
      },
      {
        "beat": 1,
        "duration": 0.5,
        "pitch": 35,
        "velocity": 57
      },
      {
        "beat": 2,
        "duration": 0.5333333611488342,
        "pitch": 27,
        "velocity": 79
      },
      {
        "beat": 2,
        "duration": 0.5,
        "pitch": 35,
        "velocity": 64
      },
      {
        "beat": 3,
        "duration": 0.6666666865348816,
        "pitch": 24,
        "velocity": 90
      },
      {
        "beat": 3,
        "duration": 0.5,
        "pitch": 36,
        "velocity": 64
      }
    ],
    "crc32": 3667962848,
    "midiSize": 121,
    "midiSha1": "f96b763d744b21ff4cd03c02c95dcd4e856aaa42"
  },
  {
    "code": "EMO_ChapMen_7",
    "kind": "drum",
    "family": "Drum",
    "modelType": "dmachine_model",
    "subtype": "proller",
    "bpm": 86,
    "beat": "4/4",
    "bnum": 86,
    "noteCount": 11,
    "midi": "pattern_midis/EMO_ChapMen_7.mid",
    "notes": [
      {
        "beat": 0,
        "duration": 0.5,
        "pitch": 24,
        "velocity": 109
      },
      {
        "beat": 0,
        "duration": 0.5,
        "pitch": 42,
        "velocity": 34
      },
      {
        "beat": 0.5,
        "duration": 0.5,
        "pitch": 35,
        "velocity": 34
      },
      {
        "beat": 1,
        "duration": 0.5,
        "pitch": 35,
        "velocity": 34
      },
      {
        "beat": 1.5,
        "duration": 0.5,
        "pitch": 28,
        "velocity": 109
      },
      {
        "beat": 1.5,
        "duration": 0.5,
        "pitch": 38,
        "velocity": 34
      },
      {
        "beat": 2,
        "duration": 0.5,
        "pitch": 37,
        "velocity": 34
      },
      {
        "beat": 2.5,
        "duration": 0.5,
        "pitch": 35,
        "velocity": 34
      },
      {
        "beat": 3,
        "duration": 0.5,
        "pitch": 24,
        "velocity": 90
      },
      {
        "beat": 3,
        "duration": 0.5,
        "pitch": 36,
        "velocity": 34
      },
      {
        "beat": 3.5,
        "duration": 0.5,
        "pitch": 37,
        "velocity": 34
      }
    ],
    "crc32": 3441378403,
    "midiSize": 146,
    "midiSha1": "98c2245dde038034ba0d7578211f031ba6d08614"
  },
  {
    "code": "EMO_ChapMen_8",
    "kind": "drum",
    "family": "Drum",
    "modelType": "dmachine_model",
    "subtype": "proller",
    "bpm": 79,
    "beat": "4/4",
    "bnum": 44,
    "noteCount": 15,
    "midi": "pattern_midis/EMO_ChapMen_8.mid",
    "notes": [
      {
        "beat": 0,
        "duration": 0.11249999701976776,
        "pitch": 24,
        "velocity": 77
      },
      {
        "beat": 0,
        "duration": 0.12708333134651184,
        "pitch": 41,
        "velocity": 22
      },
      {
        "beat": 0.5,
        "duration": 0.08124999701976776,
        "pitch": 35,
        "velocity": 11
      },
      {
        "beat": 1,
        "duration": 0.12291666865348816,
        "pitch": 29,
        "velocity": 79
      },
      {
        "beat": 1,
        "duration": 0.09791667014360428,
        "pitch": 35,
        "velocity": 22
      },
      {
        "beat": 1.5,
        "duration": 0.10833333432674408,
        "pitch": 24,
        "velocity": 53
      },
      {
        "beat": 1.5,
        "duration": 0.10000000149011612,
        "pitch": 35,
        "velocity": 22
      },
      {
        "beat": 1.75,
        "duration": 0.10625000298023224,
        "pitch": 24,
        "velocity": 79
      },
      {
        "beat": 2,
        "duration": 0.10833333432674408,
        "pitch": 35,
        "velocity": 11
      },
      {
        "beat": 2.5,
        "duration": 0.1041666641831398,
        "pitch": 24,
        "velocity": 77
      },
      {
        "beat": 2.5,
        "duration": 0.10625000298023224,
        "pitch": 35,
        "velocity": 11
      },
      {
        "beat": 3,
        "duration": 0.11666666716337204,
        "pitch": 29,
        "velocity": 79
      },
      {
        "beat": 3,
        "duration": 0.12083332985639572,
        "pitch": 35,
        "velocity": 22
      },
      {
        "beat": 3.5,
        "duration": 0.09791667014360428,
        "pitch": 35,
        "velocity": 11
      },
      {
        "beat": 3.75,
        "duration": 0.09791667014360428,
        "pitch": 35,
        "velocity": 6
      }
    ],
    "crc32": 2040176222,
    "midiSize": 174,
    "midiSha1": "0a66ea83aac2f0986a6a4dc3064cc951a9f1c6ba"
  },
  {
    "code": "EMO_ChapMen_9",
    "kind": "drum",
    "family": "Drum",
    "modelType": "dmachine_model",
    "subtype": "proller",
    "bpm": 67,
    "beat": "4/4",
    "bnum": 86,
    "noteCount": 12,
    "midi": "pattern_midis/EMO_ChapMen_9.mid",
    "notes": [
      {
        "beat": 0,
        "duration": 0.1354166716337204,
        "pitch": 24,
        "velocity": 60
      },
      {
        "beat": 0,
        "duration": 0.09375,
        "pitch": 37,
        "velocity": 35
      },
      {
        "beat": 0.5020833611488342,
        "duration": 0.05416666716337204,
        "pitch": 37,
        "velocity": 10
      },
      {
        "beat": 1.0020833015441895,
        "duration": 0.0770833343267441,
        "pitch": 37,
        "velocity": 5
      },
      {
        "beat": 1.5,
        "duration": 0.11666666716337204,
        "pitch": 32,
        "velocity": 51
      },
      {
        "beat": 1.5,
        "duration": 0.09375,
        "pitch": 37,
        "velocity": 35
      },
      {
        "beat": 2.00208330154419,
        "duration": 0.05416666716337204,
        "pitch": 37,
        "velocity": 10
      },
      {
        "beat": 2.50208330154419,
        "duration": 0.0770833343267441,
        "pitch": 37,
        "velocity": 5
      },
      {
        "beat": 2.847916603088379,
        "duration": 0.10625000298023224,
        "pitch": 24,
        "velocity": 25
      },
      {
        "beat": 3,
        "duration": 0.10625000298023224,
        "pitch": 24,
        "velocity": 59
      },
      {
        "beat": 3,
        "duration": 0.09375,
        "pitch": 37,
        "velocity": 35
      },
      {
        "beat": 3.50208330154419,
        "duration": 0.05416666716337204,
        "pitch": 37,
        "velocity": 10
      }
    ],
    "crc32": 3845710584,
    "midiSize": 155,
    "midiSha1": "bdf315c35361b05f3d7b1a7a49de802b8adee22f"
  },
  {
    "code": "ElcDrum01_Chapman_5",
    "kind": "drum",
    "family": "Drum",
    "modelType": "dmachine_model",
    "subtype": "proller",
    "bpm": 109,
    "beat": "4/4",
    "bnum": 44,
    "noteCount": 13,
    "midi": "pattern_midis/ElcDrum01_Chapman_5.mid",
    "notes": [
      {
        "beat": 0,
        "duration": 0.2770833373069763,
        "pitch": 25,
        "velocity": 127
      },
      {
        "beat": 0,
        "duration": 0.18958333134651184,
        "pitch": 35,
        "velocity": 127
      },
      {
        "beat": 0.5,
        "duration": 0.125,
        "pitch": 27,
        "velocity": 27
      },
      {
        "beat": 1,
        "duration": 0.23749999701976776,
        "pitch": 28,
        "velocity": 122
      },
      {
        "beat": 1.5,
        "duration": 0.2958333194255829,
        "pitch": 25,
        "velocity": 121
      },
      {
        "beat": 1.5,
        "duration": 0.125,
        "pitch": 27,
        "velocity": 27
      },
      {
        "beat": 2,
        "duration": 0.125,
        "pitch": 27,
        "velocity": 23
      },
      {
        "beat": 2.5,
        "duration": 0.125,
        "pitch": 27,
        "velocity": 1
      },
      {
        "beat": 3,
        "duration": 0.125,
        "pitch": 27,
        "velocity": 23
      },
      {
        "beat": 3,
        "duration": 0.18958333134651184,
        "pitch": 28,
        "velocity": 127
      },
      {
        "beat": 3.299999952316284,
        "duration": 0.125,
        "pitch": 27,
        "velocity": 3
      },
      {
        "beat": 3.5,
        "duration": 0.2770833373069763,
        "pitch": 25,
        "velocity": 127
      },
      {
        "beat": 3.799999952316284,
        "duration": 0.125,
        "pitch": 27,
        "velocity": 1
      }
    ],
    "crc32": 987897880,
    "midiSize": 166,
    "midiSha1": "c4e50124db57f206fb8c5ebd3b136d218bff26f1"
  },
  {
    "code": "ElcDrum01_Chapman_6",
    "kind": "drum",
    "family": "Drum",
    "modelType": "dmachine_model",
    "subtype": "proller",
    "bpm": 109,
    "beat": "4/4",
    "bnum": 44,
    "noteCount": 21,
    "midi": "pattern_midis/ElcDrum01_Chapman_6.mid",
    "notes": [
      {
        "beat": 0,
        "duration": 0.2770833373069763,
        "pitch": 25,
        "velocity": 127
      },
      {
        "beat": 0,
        "duration": 0.2770833373069763,
        "pitch": 35,
        "velocity": 66
      },
      {
        "beat": 0.5,
        "duration": 0.125,
        "pitch": 27,
        "velocity": 27
      },
      {
        "beat": 0.5,
        "duration": 0.125,
        "pitch": 32,
        "velocity": 27
      },
      {
        "beat": 1,
        "duration": 0.23749999701976776,
        "pitch": 26,
        "velocity": 122
      },
      {
        "beat": 1,
        "duration": 0.125,
        "pitch": 32,
        "velocity": 37
      },
      {
        "beat": 1.5,
        "duration": 0.125,
        "pitch": 27,
        "velocity": 27
      },
      {
        "beat": 1.5,
        "duration": 0.125,
        "pitch": 32,
        "velocity": 27
      },
      {
        "beat": 1.75,
        "duration": 0.2958333194255829,
        "pitch": 25,
        "velocity": 121
      },
      {
        "beat": 2,
        "duration": 0.125,
        "pitch": 27,
        "velocity": 23
      },
      {
        "beat": 2,
        "duration": 0.125,
        "pitch": 32,
        "velocity": 37
      },
      {
        "beat": 2.25,
        "duration": 0.13333334028720856,
        "pitch": 25,
        "velocity": 20
      },
      {
        "beat": 2.5,
        "duration": 0.3333333432674408,
        "pitch": 25,
        "velocity": 97
      },
      {
        "beat": 2.5,
        "duration": 0.125,
        "pitch": 27,
        "velocity": 1
      },
      {
        "beat": 2.5,
        "duration": 0.125,
        "pitch": 32,
        "velocity": 27
      },
      {
        "beat": 3,
        "duration": 0.18958333134651184,
        "pitch": 26,
        "velocity": 127
      },
      {
        "beat": 3,
        "duration": 0.125,
        "pitch": 27,
        "velocity": 23
      },
      {
        "beat": 3,
        "duration": 0.125,
        "pitch": 32,
        "velocity": 37
      },
      {
        "beat": 3.299999952316284,
        "duration": 0.125,
        "pitch": 27,
        "velocity": 3
      },
      {
        "beat": 3.5,
        "duration": 0.125,
        "pitch": 32,
        "velocity": 27
      },
      {
        "beat": 3.799999952316284,
        "duration": 0.125,
        "pitch": 27,
        "velocity": 1
      }
    ],
    "crc32": 216495814,
    "midiSize": 214,
    "midiSha1": "e6ac9ee383ede4435685fcf3cf11f315f7a4be62"
  },
  {
    "code": "ElcDrum01_ElcBass01_1",
    "kind": "drum",
    "family": "Drum",
    "modelType": "dmachine_model",
    "subtype": "proller",
    "bpm": 68,
    "beat": "4/4",
    "bnum": 44,
    "noteCount": 17,
    "midi": "pattern_midis/ElcDrum01_ElcBass01_1.mid",
    "notes": [
      {
        "beat": 0,
        "duration": 0.22083333134651184,
        "pitch": 24,
        "velocity": 91
      },
      {
        "beat": 0.25,
        "duration": 0.22083333134651184,
        "pitch": 30,
        "velocity": 13
      },
      {
        "beat": 0.5,
        "duration": 0.22083333134651184,
        "pitch": 30,
        "velocity": 28
      },
      {
        "beat": 0.75,
        "duration": 0.20624999701976776,
        "pitch": 30,
        "velocity": 68
      },
      {
        "beat": 1,
        "duration": 0.22083333134651184,
        "pitch": 25,
        "velocity": 72
      },
      {
        "beat": 1.25,
        "duration": 0.22083333134651184,
        "pitch": 30,
        "velocity": 15
      },
      {
        "beat": 1.5,
        "duration": 0.22083333134651184,
        "pitch": 30,
        "velocity": 43
      },
      {
        "beat": 1.75,
        "duration": 0.2083333283662796,
        "pitch": 30,
        "velocity": 86
      },
      {
        "beat": 2,
        "duration": 0.22083333134651184,
        "pitch": 24,
        "velocity": 91
      },
      {
        "beat": 2.25,
        "duration": 0.22083333134651184,
        "pitch": 30,
        "velocity": 13
      },
      {
        "beat": 2.5,
        "duration": 0.22083333134651184,
        "pitch": 30,
        "velocity": 28
      },
      {
        "beat": 2.75,
        "duration": 0.20624999701976776,
        "pitch": 30,
        "velocity": 68
      },
      {
        "beat": 3,
        "duration": 0.22083333134651184,
        "pitch": 25,
        "velocity": 72
      },
      {
        "beat": 3,
        "duration": 0.25,
        "pitch": 29,
        "velocity": 32
      },
      {
        "beat": 3.25,
        "duration": 0.22083333134651184,
        "pitch": 30,
        "velocity": 15
      },
      {
        "beat": 3.5,
        "duration": 0.22083333134651184,
        "pitch": 30,
        "velocity": 43
      },
      {
        "beat": 3.75,
        "duration": 0.20624999701976776,
        "pitch": 30,
        "velocity": 86
      }
    ],
    "crc32": 563249588,
    "midiSize": 200,
    "midiSha1": "fe4e9fc84f62b4d98e609f66909855e951cfb7c5"
  },
  {
    "code": "ElcDrum01_ElcBass01_2",
    "kind": "drum",
    "family": "Drum",
    "modelType": "dmachine_model",
    "subtype": "proller",
    "bpm": 115,
    "beat": "4/4",
    "bnum": 44,
    "noteCount": 11,
    "midi": "pattern_midis/ElcDrum01_ElcBass01_2.mid",
    "notes": [
      {
        "beat": 0,
        "duration": 0.75,
        "pitch": 24,
        "velocity": 92
      },
      {
        "beat": 0,
        "duration": 0.5,
        "pitch": 35,
        "velocity": 22
      },
      {
        "beat": 0.5,
        "duration": 0.5,
        "pitch": 30,
        "velocity": 48
      },
      {
        "beat": 0.9979166388511658,
        "duration": 0.5020833611488342,
        "pitch": 29,
        "velocity": 48
      },
      {
        "beat": 1,
        "duration": 0.5,
        "pitch": 26,
        "velocity": 78
      },
      {
        "beat": 1.5,
        "duration": 0.5,
        "pitch": 30,
        "velocity": 26
      },
      {
        "beat": 2,
        "duration": 0.5,
        "pitch": 25,
        "velocity": 92
      },
      {
        "beat": 2.5,
        "duration": 0.5,
        "pitch": 32,
        "velocity": 28
      },
      {
        "beat": 2.99791669845581,
        "duration": 0.5,
        "pitch": 29,
        "velocity": 48
      },
      {
        "beat": 3,
        "duration": 0.5,
        "pitch": 26,
        "velocity": 78
      },
      {
        "beat": 3.5,
        "duration": 0.5,
        "pitch": 30,
        "velocity": 16
      }
    ],
    "crc32": 2922419860,
    "midiSize": 153,
    "midiSha1": "0e501c467562d8ea2d22fe06d2f417f44b117609"
  },
  {
    "code": "ElcDrum01_ElcBass01_3",
    "kind": "drum",
    "family": "Drum",
    "modelType": "dmachine_model",
    "subtype": "proller",
    "bpm": 115,
    "beat": "4/4",
    "bnum": 44,
    "noteCount": 11,
    "midi": "pattern_midis/ElcDrum01_ElcBass01_3.mid",
    "notes": [
      {
        "beat": 0,
        "duration": 0.75,
        "pitch": 24,
        "velocity": 66
      },
      {
        "beat": 0,
        "duration": 0.5,
        "pitch": 35,
        "velocity": 22
      },
      {
        "beat": 0.5,
        "duration": 0.25,
        "pitch": 30,
        "velocity": 26
      },
      {
        "beat": 1,
        "duration": 0.25,
        "pitch": 30,
        "velocity": 55
      },
      {
        "beat": 1.5,
        "duration": 0.5,
        "pitch": 27,
        "velocity": 48
      },
      {
        "beat": 2,
        "duration": 0.5,
        "pitch": 29,
        "velocity": 78
      },
      {
        "beat": 2,
        "duration": 0.5,
        "pitch": 26,
        "velocity": 43
      },
      {
        "beat": 2.5,
        "duration": 0.25,
        "pitch": 30,
        "velocity": 48
      },
      {
        "beat": 3,
        "duration": 0.25,
        "pitch": 30,
        "velocity": 48
      },
      {
        "beat": 3.5,
        "duration": 0.5,
        "pitch": 25,
        "velocity": 38
      },
      {
        "beat": 3.5,
        "duration": 0.5,
        "pitch": 27,
        "velocity": 32
      }
    ],
    "crc32": 2035892163,
    "midiSize": 148,
    "midiSha1": "af1960694983a2410f6462581d9496405c8a63bd"
  },
  {
    "code": "ElcDrum01_ElcBass01_4",
    "kind": "drum",
    "family": "Drum",
    "modelType": "dmachine_model",
    "subtype": "proller",
    "bpm": 78,
    "beat": "4/4",
    "bnum": 44,
    "noteCount": 23,
    "midi": "pattern_midis/ElcDrum01_ElcBass01_4.mid",
    "notes": [
      {
        "beat": 0,
        "duration": 0.25,
        "pitch": 24,
        "velocity": 79
      },
      {
        "beat": 0,
        "duration": 0.25,
        "pitch": 31,
        "velocity": 45
      },
      {
        "beat": 0.25,
        "duration": 0.49791666865348816,
        "pitch": 30,
        "velocity": 16
      },
      {
        "beat": 0.49791666865348816,
        "duration": 0.0020833334419876337,
        "pitch": 30,
        "velocity": 27
      },
      {
        "beat": 0.75,
        "duration": 0.25,
        "pitch": 30,
        "velocity": 46
      },
      {
        "beat": 1,
        "duration": 0.25,
        "pitch": 26,
        "velocity": 74
      },
      {
        "beat": 1.25,
        "duration": 0.0833333358168602,
        "pitch": 32,
        "velocity": 15
      },
      {
        "beat": 1.3333333730697632,
        "duration": 0.0833333358168602,
        "pitch": 32,
        "velocity": 22
      },
      {
        "beat": 1.4166666269302368,
        "duration": 0.0833333358168602,
        "pitch": 32,
        "velocity": 29
      },
      {
        "beat": 1.5,
        "duration": 0.25,
        "pitch": 30,
        "velocity": 53
      },
      {
        "beat": 1.75,
        "duration": 0.0833333358168602,
        "pitch": 32,
        "velocity": 15
      },
      {
        "beat": 1.8333333730697632,
        "duration": 0.0833333358168602,
        "pitch": 32,
        "velocity": 22
      },
      {
        "beat": 1.9166666269302368,
        "duration": 0.0833333358168602,
        "pitch": 32,
        "velocity": 29
      },
      {
        "beat": 2,
        "duration": 0.25,
        "pitch": 24,
        "velocity": 79
      },
      {
        "beat": 2.25,
        "duration": 0.49791666865348816,
        "pitch": 30,
        "velocity": 16
      },
      {
        "beat": 2.49791669845581,
        "duration": 0.0020833334419876337,
        "pitch": 30,
        "velocity": 27
      },
      {
        "beat": 2.75,
        "duration": 0.25,
        "pitch": 30,
        "velocity": 46
      },
      {
        "beat": 3,
        "duration": 0.25,
        "pitch": 26,
        "velocity": 74
      },
      {
        "beat": 3.25,
        "duration": 0.5,
        "pitch": 30,
        "velocity": 16
      },
      {
        "beat": 3.5,
        "duration": 0,
        "pitch": 30,
        "velocity": 53
      },
      {
        "beat": 3.75,
        "duration": 0.0833333358168602,
        "pitch": 32,
        "velocity": 15
      },
      {
        "beat": 3.8333332538604736,
        "duration": 0.0833333358168602,
        "pitch": 32,
        "velocity": 22
      },
      {
        "beat": 3.9166667461395264,
        "duration": 0.0833333358168602,
        "pitch": 32,
        "velocity": 29
      }
    ],
    "crc32": 1507390657,
    "midiSize": 242,
    "midiSha1": "05ec4f7b4a9d957cce583e3dc3664c101857dc35"
  },
  {
    "code": "ElcTrap_Chapmen_1",
    "kind": "drum",
    "family": "Drum",
    "modelType": "dmachine_model",
    "subtype": "proller",
    "bpm": 104,
    "beat": "4/4",
    "bnum": 44,
    "noteCount": 13,
    "midi": "pattern_midis/ElcTrap_Chapmen_1.mid",
    "notes": [
      {
        "beat": 0,
        "duration": 1,
        "pitch": 36,
        "velocity": 69
      },
      {
        "beat": 0.5,
        "duration": 0.125,
        "pitch": 42,
        "velocity": 49
      },
      {
        "beat": 0.75,
        "duration": 0.125,
        "pitch": 42,
        "velocity": 49
      },
      {
        "beat": 1,
        "duration": 1,
        "pitch": 36,
        "velocity": 69
      },
      {
        "beat": 1,
        "duration": 1,
        "pitch": 40,
        "velocity": 69
      },
      {
        "beat": 1.5,
        "duration": 0.125,
        "pitch": 42,
        "velocity": 49
      },
      {
        "beat": 2,
        "duration": 1,
        "pitch": 36,
        "velocity": 69
      },
      {
        "beat": 2,
        "duration": 1,
        "pitch": 44,
        "velocity": 69
      },
      {
        "beat": 2.5,
        "duration": 0.125,
        "pitch": 42,
        "velocity": 49
      },
      {
        "beat": 2.75,
        "duration": 0.125,
        "pitch": 42,
        "velocity": 49
      },
      {
        "beat": 3,
        "duration": 1,
        "pitch": 36,
        "velocity": 69
      },
      {
        "beat": 3,
        "duration": 1,
        "pitch": 40,
        "velocity": 69
      },
      {
        "beat": 3.5,
        "duration": 0.125,
        "pitch": 42,
        "velocity": 49
      }
    ],
    "crc32": 2986092851,
    "midiSize": 164,
    "midiSha1": "0e7efc4bda52a9ccc412d8566cf37aff136b8d9b"
  },
  {
    "code": "ElcTrap_Chapmen_2",
    "kind": "drum",
    "family": "Drum",
    "modelType": "dmachine_model",
    "subtype": "proller",
    "bpm": 151,
    "beat": "4/4",
    "bnum": 44,
    "noteCount": 8,
    "midi": "pattern_midis/ElcTrap_Chapmen_2.mid",
    "notes": [
      {
        "beat": 0,
        "duration": 3.0479166507720947,
        "pitch": 36,
        "velocity": 70
      },
      {
        "beat": 0.5,
        "duration": 0.25,
        "pitch": 42,
        "velocity": 50
      },
      {
        "beat": 0.75,
        "duration": 0.2979166805744171,
        "pitch": 44,
        "velocity": 70
      },
      {
        "beat": 1.25,
        "duration": 0.25,
        "pitch": 42,
        "velocity": 50
      },
      {
        "beat": 1.5,
        "duration": 0.28125,
        "pitch": 44,
        "velocity": 75
      },
      {
        "beat": 2,
        "duration": 3.0479166507720947,
        "pitch": 38,
        "velocity": 70
      },
      {
        "beat": 2.75,
        "duration": 0.6104166507720947,
        "pitch": 39,
        "velocity": 24
      },
      {
        "beat": 3.5,
        "duration": 0.5208333134651184,
        "pitch": 39,
        "velocity": 4
      }
    ],
    "crc32": 3212462424,
    "midiSize": 126,
    "midiSha1": "9d6e623c853108ed675384b2672ab40c5a6ecd38"
  },
  {
    "code": "FUNK_Mute_1",
    "kind": "drum",
    "family": "Drum",
    "modelType": "dmachine_model",
    "subtype": "proller",
    "bpm": 120,
    "beat": "4/4",
    "bnum": 44,
    "noteCount": 16,
    "midi": "pattern_midis/FUNK_Mute_1.mid",
    "notes": [
      {
        "beat": 0,
        "duration": 1,
        "pitch": 24,
        "velocity": 92
      },
      {
        "beat": 0,
        "duration": 0.25,
        "pitch": 41,
        "velocity": 70
      },
      {
        "beat": 0.5,
        "duration": 0.25,
        "pitch": 30,
        "velocity": 28
      },
      {
        "beat": 1,
        "duration": 1,
        "pitch": 24,
        "velocity": 66
      },
      {
        "beat": 1,
        "duration": 0.25,
        "pitch": 26,
        "velocity": 92
      },
      {
        "beat": 1,
        "duration": 0.25,
        "pitch": 30,
        "velocity": 67
      },
      {
        "beat": 1.5,
        "duration": 0.25,
        "pitch": 30,
        "velocity": 48
      },
      {
        "beat": 1.75,
        "duration": 0.25,
        "pitch": 30,
        "velocity": 70
      },
      {
        "beat": 2,
        "duration": 1,
        "pitch": 24,
        "velocity": 92
      },
      {
        "beat": 2,
        "duration": 0.25,
        "pitch": 30,
        "velocity": 70
      },
      {
        "beat": 2.5,
        "duration": 0.25,
        "pitch": 30,
        "velocity": 28
      },
      {
        "beat": 3,
        "duration": 1,
        "pitch": 24,
        "velocity": 66
      },
      {
        "beat": 3,
        "duration": 0.25,
        "pitch": 26,
        "velocity": 92
      },
      {
        "beat": 3,
        "duration": 0.25,
        "pitch": 30,
        "velocity": 67
      },
      {
        "beat": 3.5,
        "duration": 0.25,
        "pitch": 30,
        "velocity": 48
      },
      {
        "beat": 3.75,
        "duration": 0.25,
        "pitch": 34,
        "velocity": 70
      }
    ],
    "crc32": 3954474548,
    "midiSize": 168,
    "midiSha1": "d67090fd4c79d6ff15510f669aa00c430fc8f8bf"
  },
  {
    "code": "Funk_ChapMen_1",
    "kind": "drum",
    "family": "Drum",
    "modelType": "dmachine_model",
    "subtype": "proller",
    "bpm": 110,
    "beat": "4/4",
    "bnum": 44,
    "noteCount": 16,
    "midi": "pattern_midis/Funk_ChapMen_1.mid",
    "notes": [
      {
        "beat": 0,
        "duration": 0.15833333134651184,
        "pitch": 24,
        "velocity": 82
      },
      {
        "beat": 0,
        "duration": 0.15833333134651184,
        "pitch": 34,
        "velocity": 43
      },
      {
        "beat": 0.5,
        "duration": 0.15833333134651184,
        "pitch": 30,
        "velocity": 38
      },
      {
        "beat": 1,
        "duration": 0.15833333134651184,
        "pitch": 29,
        "velocity": 76
      },
      {
        "beat": 1,
        "duration": 0.15833333134651184,
        "pitch": 30,
        "velocity": 47
      },
      {
        "beat": 1.5,
        "duration": 0.15833333134651184,
        "pitch": 30,
        "velocity": 28
      },
      {
        "beat": 1.75,
        "duration": 0.15833333134651184,
        "pitch": 24,
        "velocity": 34
      },
      {
        "beat": 2,
        "duration": 0.15833333134651184,
        "pitch": 24,
        "velocity": 79
      },
      {
        "beat": 2,
        "duration": 0.15833333134651184,
        "pitch": 30,
        "velocity": 33
      },
      {
        "beat": 2.25,
        "duration": 0.15833333134651184,
        "pitch": 26,
        "velocity": 34
      },
      {
        "beat": 2.5,
        "duration": 0.15833333134651184,
        "pitch": 30,
        "velocity": 50
      },
      {
        "beat": 2.75,
        "duration": 0.15833333134651184,
        "pitch": 24,
        "velocity": 43
      },
      {
        "beat": 3,
        "duration": 0.15833333134651184,
        "pitch": 29,
        "velocity": 76
      },
      {
        "beat": 3,
        "duration": 0.15833333134651184,
        "pitch": 30,
        "velocity": 47
      },
      {
        "beat": 3.5,
        "duration": 0.15833333134651184,
        "pitch": 24,
        "velocity": 82
      },
      {
        "beat": 3.5,
        "duration": 0.15833333134651184,
        "pitch": 34,
        "velocity": 39
      }
    ],
    "crc32": 3696974130,
    "midiSize": 181,
    "midiSha1": "d28b652c152f429ff4f6260ba0ea2c07c35ff581"
  },
  {
    "code": "Funk_ChapMen_3",
    "kind": "drum",
    "family": "Drum",
    "modelType": "dmachine_model",
    "subtype": "proller",
    "bpm": 85,
    "beat": "4/4",
    "bnum": 44,
    "noteCount": 8,
    "midi": "pattern_midis/Funk_ChapMen_3.mid",
    "notes": [
      {
        "beat": 0,
        "duration": 0.762499988079071,
        "pitch": 24,
        "velocity": 92
      },
      {
        "beat": 0,
        "duration": 1.125,
        "pitch": 41,
        "velocity": 75
      },
      {
        "beat": 1,
        "duration": 0.6979166865348816,
        "pitch": 26,
        "velocity": 98
      },
      {
        "beat": 1,
        "duration": 0.7270833253860474,
        "pitch": 30,
        "velocity": 77
      },
      {
        "beat": 2,
        "duration": 0.675000011920929,
        "pitch": 24,
        "velocity": 95
      },
      {
        "beat": 2,
        "duration": 0.293749988079071,
        "pitch": 30,
        "velocity": 52
      },
      {
        "beat": 3,
        "duration": 0.6479166746139526,
        "pitch": 26,
        "velocity": 95
      },
      {
        "beat": 3,
        "duration": 0.693750023841858,
        "pitch": 30,
        "velocity": 83
      }
    ],
    "crc32": 864138284,
    "midiSize": 122,
    "midiSha1": "d70375a56c37210e5ecaa5b8d0b2c50085a61fa3"
  },
  {
    "code": "Funk_ChapMen_4",
    "kind": "drum",
    "family": "Drum",
    "modelType": "dmachine_model",
    "subtype": "proller",
    "bpm": 85,
    "beat": "4/4",
    "bnum": 44,
    "noteCount": 12,
    "midi": "pattern_midis/Funk_ChapMen_4.mid",
    "notes": [
      {
        "beat": 0,
        "duration": 0.762499988079071,
        "pitch": 24,
        "velocity": 92
      },
      {
        "beat": 0,
        "duration": 1.125,
        "pitch": 41,
        "velocity": 89
      },
      {
        "beat": 0.5,
        "duration": 0.24791666865348816,
        "pitch": 30,
        "velocity": 50
      },
      {
        "beat": 1,
        "duration": 0.6979166865348816,
        "pitch": 26,
        "velocity": 98
      },
      {
        "beat": 1,
        "duration": 0.34166666865348816,
        "pitch": 30,
        "velocity": 83
      },
      {
        "beat": 1.5,
        "duration": 0.3083333373069763,
        "pitch": 30,
        "velocity": 42
      },
      {
        "beat": 2,
        "duration": 0.675000011920929,
        "pitch": 24,
        "velocity": 95
      },
      {
        "beat": 2,
        "duration": 0.4166666567325592,
        "pitch": 30,
        "velocity": 75
      },
      {
        "beat": 2.5,
        "duration": 0.24791666865348816,
        "pitch": 30,
        "velocity": 50
      },
      {
        "beat": 3,
        "duration": 0.6479166746139526,
        "pitch": 26,
        "velocity": 95
      },
      {
        "beat": 3,
        "duration": 0.34375,
        "pitch": 30,
        "velocity": 76
      },
      {
        "beat": 3.5,
        "duration": 0.3083333373069763,
        "pitch": 30,
        "velocity": 42
      }
    ],
    "crc32": 3241630935,
    "midiSize": 148,
    "midiSha1": "118b3d378752b95c5c015fb70d9fbc4a13590be9"
  },
  {
    "code": "Funk_ChapMen_5",
    "kind": "drum",
    "family": "Drum",
    "modelType": "dmachine_model",
    "subtype": "proller",
    "bpm": 85,
    "beat": "4/4",
    "bnum": 44,
    "noteCount": 20,
    "midi": "pattern_midis/Funk_ChapMen_5.mid",
    "notes": [
      {
        "beat": 0,
        "duration": 0.762499988079071,
        "pitch": 24,
        "velocity": 92
      },
      {
        "beat": 0,
        "duration": 1.125,
        "pitch": 41,
        "velocity": 89
      },
      {
        "beat": 0.25,
        "duration": 0.18125000596046448,
        "pitch": 30,
        "velocity": 39
      },
      {
        "beat": 0.5,
        "duration": 0.18125000596046448,
        "pitch": 30,
        "velocity": 39
      },
      {
        "beat": 0.75,
        "duration": 0.15208333730697632,
        "pitch": 30,
        "velocity": 32
      },
      {
        "beat": 1,
        "duration": 0.6979166865348816,
        "pitch": 26,
        "velocity": 98
      },
      {
        "beat": 1,
        "duration": 0.21666666865348816,
        "pitch": 30,
        "velocity": 67
      },
      {
        "beat": 1.25,
        "duration": 0.18125000596046448,
        "pitch": 30,
        "velocity": 39
      },
      {
        "beat": 1.5,
        "duration": 0.23333333432674408,
        "pitch": 30,
        "velocity": 32
      },
      {
        "beat": 1.75,
        "duration": 0.18125000596046448,
        "pitch": 30,
        "velocity": 56
      },
      {
        "beat": 2,
        "duration": 0.675000011920929,
        "pitch": 24,
        "velocity": 95
      },
      {
        "beat": 2,
        "duration": 0.21666666865348816,
        "pitch": 30,
        "velocity": 40
      },
      {
        "beat": 2.25,
        "duration": 0.18125000596046448,
        "pitch": 30,
        "velocity": 55
      },
      {
        "beat": 2.5,
        "duration": 0.23333333432674408,
        "pitch": 30,
        "velocity": 32
      },
      {
        "beat": 2.75,
        "duration": 0.18125000596046448,
        "pitch": 30,
        "velocity": 39
      },
      {
        "beat": 3,
        "duration": 0.6479166746139526,
        "pitch": 26,
        "velocity": 95
      },
      {
        "beat": 3,
        "duration": 0.1979166716337204,
        "pitch": 30,
        "velocity": 60
      },
      {
        "beat": 3.25,
        "duration": 0.23333333432674408,
        "pitch": 30,
        "velocity": 32
      },
      {
        "beat": 3.5,
        "duration": 0.21458333730697632,
        "pitch": 30,
        "velocity": 51
      },
      {
        "beat": 3.75,
        "duration": 0.19583334028720856,
        "pitch": 30,
        "velocity": 28
      }
    ],
    "crc32": 2928499659,
    "midiSize": 209,
    "midiSha1": "287c8be7d8a09118044852b08062abdd17043e24"
  },
  {
    "code": "Funk_ChapMen_6",
    "kind": "drum",
    "family": "Drum",
    "modelType": "dmachine_model",
    "subtype": "proller",
    "bpm": 115,
    "beat": "4/4",
    "bnum": 43,
    "noteCount": 8,
    "midi": "pattern_midis/Funk_ChapMen_6.mid",
    "notes": [
      {
        "beat": 0,
        "duration": 0.837499976158142,
        "pitch": 24,
        "velocity": 100
      },
      {
        "beat": 0,
        "duration": 0.25,
        "pitch": 32,
        "velocity": 1
      },
      {
        "beat": 0,
        "duration": 0.912500023841858,
        "pitch": 41,
        "velocity": 61
      },
      {
        "beat": 1,
        "duration": 0.4583333432674408,
        "pitch": 30,
        "velocity": 46
      },
      {
        "beat": 2,
        "duration": 0.5333333611488342,
        "pitch": 26,
        "velocity": 92
      },
      {
        "beat": 2,
        "duration": 0.5104166865348816,
        "pitch": 30,
        "velocity": 58
      },
      {
        "beat": 3,
        "duration": 0.8729166388511658,
        "pitch": 24,
        "velocity": 106
      },
      {
        "beat": 3,
        "duration": 0.40416666865348816,
        "pitch": 30,
        "velocity": 41
      }
    ],
    "crc32": 4012669147,
    "midiSize": 122,
    "midiSha1": "80edfef298138101d68daf45688a92a5cc36443f"
  },
  {
    "code": "Funk_ChapMen_7",
    "kind": "drum",
    "family": "Drum",
    "modelType": "dmachine_model",
    "subtype": "proller",
    "bpm": 86,
    "beat": "4/4",
    "bnum": 86,
    "noteCount": 4,
    "midi": "pattern_midis/Funk_ChapMen_7.mid",
    "notes": [
      {
        "beat": 0,
        "duration": 1.5,
        "pitch": 24,
        "velocity": 103
      },
      {
        "beat": 1.5,
        "duration": 1,
        "pitch": 29,
        "velocity": 38
      },
      {
        "beat": 2.5,
        "duration": 0.5,
        "pitch": 24,
        "velocity": 98
      },
      {
        "beat": 3,
        "duration": 1.5,
        "pitch": 24,
        "velocity": 110
      }
    ],
    "crc32": 1579712993,
    "midiSize": 93,
    "midiSha1": "d58ffb7403239de18d3bb0f34d41b6e31c34f22d"
  },
  {
    "code": "Funk_ChapMen_8",
    "kind": "drum",
    "family": "Drum",
    "modelType": "dmachine_model",
    "subtype": "proller",
    "bpm": 115,
    "beat": "4/4",
    "bnum": 43,
    "noteCount": 9,
    "midi": "pattern_midis/Funk_ChapMen_8.mid",
    "notes": [
      {
        "beat": 0,
        "duration": 0.837499976158142,
        "pitch": 24,
        "velocity": 100
      },
      {
        "beat": 0,
        "duration": 0.25,
        "pitch": 32,
        "velocity": 1
      },
      {
        "beat": 0,
        "duration": 0.912500023841858,
        "pitch": 41,
        "velocity": 61
      },
      {
        "beat": 1,
        "duration": 0.5333333611488342,
        "pitch": 26,
        "velocity": 52
      },
      {
        "beat": 1,
        "duration": 0.4583333432674408,
        "pitch": 30,
        "velocity": 69
      },
      {
        "beat": 2,
        "duration": 0.5333333611488342,
        "pitch": 29,
        "velocity": 82
      },
      {
        "beat": 2,
        "duration": 0.5104166865348816,
        "pitch": 30,
        "velocity": 81
      },
      {
        "beat": 3,
        "duration": 0.8729166388511658,
        "pitch": 24,
        "velocity": 106
      },
      {
        "beat": 3,
        "duration": 0.40416666865348816,
        "pitch": 30,
        "velocity": 64
      }
    ],
    "crc32": 2129376538,
    "midiSize": 128,
    "midiSha1": "94acbc961946e7393d2107205139d58f8d8221e5"
  },
  {
    "code": "Funk_ChapMen_9",
    "kind": "drum",
    "family": "Drum",
    "modelType": "dmachine_model",
    "subtype": "proller",
    "bpm": 86,
    "beat": "4/4",
    "bnum": 86,
    "noteCount": 10,
    "midi": "pattern_midis/Funk_ChapMen_9.mid",
    "notes": [
      {
        "beat": 0,
        "duration": 1.5,
        "pitch": 24,
        "velocity": 103
      },
      {
        "beat": 0.5,
        "duration": 0.375,
        "pitch": 30,
        "velocity": 57
      },
      {
        "beat": 1,
        "duration": 0.375,
        "pitch": 30,
        "velocity": 37
      },
      {
        "beat": 1.5,
        "duration": 1,
        "pitch": 26,
        "velocity": 96
      },
      {
        "beat": 1.5,
        "duration": 0.375,
        "pitch": 30,
        "velocity": 57
      },
      {
        "beat": 2,
        "duration": 0.375,
        "pitch": 30,
        "velocity": 37
      },
      {
        "beat": 2.5,
        "duration": 0.375,
        "pitch": 30,
        "velocity": 57
      },
      {
        "beat": 3,
        "duration": 1.5,
        "pitch": 24,
        "velocity": 110
      },
      {
        "beat": 3,
        "duration": 0.375,
        "pitch": 30,
        "velocity": 37
      },
      {
        "beat": 3.5,
        "duration": 0.375,
        "pitch": 30,
        "velocity": 57
      }
    ],
    "crc32": 167519627,
    "midiSize": 142,
    "midiSha1": "343132536c27ed96c69893be52520789b3a8d1da"
  },
  {
    "code": "JAZZ_Mute_1",
    "kind": "drum",
    "family": "Drum",
    "modelType": "dmachine_model",
    "subtype": "proller",
    "bpm": 80,
    "beat": "4/4",
    "bnum": 44,
    "noteCount": 23,
    "midi": "pattern_midis/JAZZ_Mute_1.mid",
    "notes": [
      {
        "beat": 0,
        "duration": 0.03125,
        "pitch": 24,
        "velocity": 30
      },
      {
        "beat": 0,
        "duration": 0.03125,
        "pitch": 26,
        "velocity": 23
      },
      {
        "beat": 0.331250011920929,
        "duration": 0.03125,
        "pitch": 26,
        "velocity": 12
      },
      {
        "beat": 0.49791666865348816,
        "duration": 0.03125,
        "pitch": 28,
        "velocity": 51
      },
      {
        "beat": 0.5041666626930237,
        "duration": 0.03125,
        "pitch": 32,
        "velocity": 80
      },
      {
        "beat": 0.824999988079071,
        "duration": 0.03125,
        "pitch": 28,
        "velocity": 54
      },
      {
        "beat": 1.0083333253860474,
        "duration": 0.03125,
        "pitch": 24,
        "velocity": 20
      },
      {
        "beat": 1.3312499523162842,
        "duration": 0.03125,
        "pitch": 28,
        "velocity": 40
      },
      {
        "beat": 1.4979166984558105,
        "duration": 0.03125,
        "pitch": 32,
        "velocity": 43
      },
      {
        "beat": 1.6708333492279053,
        "duration": 0.03125,
        "pitch": 26,
        "velocity": 6
      },
      {
        "beat": 1.8354166746139526,
        "duration": 0.03125,
        "pitch": 26,
        "velocity": 16
      },
      {
        "beat": 1.993749976158142,
        "duration": 0.03125,
        "pitch": 26,
        "velocity": 54
      },
      {
        "beat": 1.9958332777023315,
        "duration": 0.03125,
        "pitch": 24,
        "velocity": 20
      },
      {
        "beat": 2.3270833492279053,
        "duration": 0.03125,
        "pitch": 26,
        "velocity": 5
      },
      {
        "beat": 2.4937500953674316,
        "duration": 0.03125,
        "pitch": 32,
        "velocity": 85
      },
      {
        "beat": 2.839583396911621,
        "duration": 0.03125,
        "pitch": 26,
        "velocity": 12
      },
      {
        "beat": 3,
        "duration": 0.03125,
        "pitch": 26,
        "velocity": 33
      },
      {
        "beat": 3.0062499046325684,
        "duration": 0.03125,
        "pitch": 24,
        "velocity": 29
      },
      {
        "beat": 3.3291666507720947,
        "duration": 0.03125,
        "pitch": 26,
        "velocity": 10
      },
      {
        "beat": 3.495833396911621,
        "duration": 0.03125,
        "pitch": 28,
        "velocity": 51
      },
      {
        "beat": 3.5,
        "duration": 0.03125,
        "pitch": 32,
        "velocity": 59
      },
      {
        "beat": 3.8375000953674316,
        "duration": 0.03125,
        "pitch": 28,
        "velocity": 59
      },
      {
        "beat": 3.99791669845581,
        "duration": 0.03125,
        "pitch": 24,
        "velocity": 30
      }
    ],
    "crc32": 1109104183,
    "midiSize": 237,
    "midiSha1": "232ac70943c836d391acff16a73a3b7c647d4598"
  },
  {
    "code": "JAZZ_Mute_2",
    "kind": "drum",
    "family": "Drum",
    "modelType": "dmachine_model",
    "subtype": "proller",
    "bpm": 65,
    "beat": "4/4",
    "bnum": 44,
    "noteCount": 15,
    "midi": "pattern_midis/JAZZ_Mute_2.mid",
    "notes": [
      {
        "beat": 0,
        "duration": 0.2083333283662796,
        "pitch": 24,
        "velocity": 45
      },
      {
        "beat": 0.5,
        "duration": 0.2645833194255829,
        "pitch": 25,
        "velocity": 59
      },
      {
        "beat": 0.75,
        "duration": 0.2083333283662796,
        "pitch": 24,
        "velocity": 45
      },
      {
        "beat": 1,
        "duration": 0.2083333283662796,
        "pitch": 24,
        "velocity": 29
      },
      {
        "beat": 1.25,
        "duration": 0.23125000298023224,
        "pitch": 25,
        "velocity": 54
      },
      {
        "beat": 1.5,
        "duration": 0.2083333283662796,
        "pitch": 32,
        "velocity": 55
      },
      {
        "beat": 1.75,
        "duration": 0.2083333283662796,
        "pitch": 24,
        "velocity": 45
      },
      {
        "beat": 1.75,
        "duration": 0.1875,
        "pitch": 25,
        "velocity": 17
      },
      {
        "beat": 2,
        "duration": 0.2083333283662796,
        "pitch": 24,
        "velocity": 29
      },
      {
        "beat": 2.5,
        "duration": 0.21875,
        "pitch": 25,
        "velocity": 50
      },
      {
        "beat": 2.75,
        "duration": 0.2083333283662796,
        "pitch": 24,
        "velocity": 45
      },
      {
        "beat": 3.25,
        "duration": 0.24166665971279144,
        "pitch": 25,
        "velocity": 50
      },
      {
        "beat": 3.25,
        "duration": 0.2083333283662796,
        "pitch": 32,
        "velocity": 55
      },
      {
        "beat": 3.75,
        "duration": 0.2083333283662796,
        "pitch": 24,
        "velocity": 29
      },
      {
        "beat": 3.75,
        "duration": 0.2083333283662796,
        "pitch": 25,
        "velocity": 6
      }
    ],
    "crc32": 1540541530,
    "midiSize": 171,
    "midiSha1": "d568fd590ba1d45abf1fe2a354d9106805d5663e"
  },
  {
    "code": "Jazz_Mute_10",
    "kind": "drum",
    "family": "Drum",
    "modelType": "dmachine_model",
    "subtype": "proller",
    "bpm": 100,
    "beat": "4/4",
    "bnum": 44,
    "noteCount": 13,
    "midi": "pattern_midis/Jazz_Mute_10.mid",
    "notes": [
      {
        "beat": 0,
        "duration": 0.6666666865348816,
        "pitch": 24,
        "velocity": 103
      },
      {
        "beat": 0.6666666865348816,
        "duration": 0.18541666865348816,
        "pitch": 37,
        "velocity": 23
      },
      {
        "beat": 1,
        "duration": 0.6666666865348816,
        "pitch": 26,
        "velocity": 79
      },
      {
        "beat": 1,
        "duration": 0.28958332538604736,
        "pitch": 37,
        "velocity": 34
      },
      {
        "beat": 1.6666666269302368,
        "duration": 0.3333333432674408,
        "pitch": 24,
        "velocity": 40
      },
      {
        "beat": 1.6666666269302368,
        "duration": 0.1979166716337204,
        "pitch": 37,
        "velocity": 23
      },
      {
        "beat": 2,
        "duration": 0.7916666865348816,
        "pitch": 24,
        "velocity": 98
      },
      {
        "beat": 2,
        "duration": 0.28958332538604736,
        "pitch": 37,
        "velocity": 34
      },
      {
        "beat": 2.6666667461395264,
        "duration": 0.1979166716337204,
        "pitch": 37,
        "velocity": 23
      },
      {
        "beat": 3,
        "duration": 0.6666666865348816,
        "pitch": 26,
        "velocity": 78
      },
      {
        "beat": 3,
        "duration": 0.28958332538604736,
        "pitch": 37,
        "velocity": 34
      },
      {
        "beat": 3.6666667461395264,
        "duration": 0.3333333432674408,
        "pitch": 24,
        "velocity": 30
      },
      {
        "beat": 3.6666667461395264,
        "duration": 0.1979166716337204,
        "pitch": 37,
        "velocity": 23
      }
    ],
    "crc32": 4005454492,
    "midiSize": 156,
    "midiSha1": "7e48b008d48c9613f6e852a527e6ac839f9ba5a9"
  },
  {
    "code": "Jazz_Mute_3",
    "kind": "drum",
    "family": "Drum",
    "modelType": "dmachine_model",
    "subtype": "proller",
    "bpm": 85,
    "beat": "4/4",
    "bnum": 44,
    "noteCount": 8,
    "midi": "pattern_midis/Jazz_Mute_3.mid",
    "notes": [
      {
        "beat": 0,
        "duration": 0.762499988079071,
        "pitch": 24,
        "velocity": 92
      },
      {
        "beat": 0,
        "duration": 1.125,
        "pitch": 41,
        "velocity": 89
      },
      {
        "beat": 1,
        "duration": 0.6979166865348816,
        "pitch": 26,
        "velocity": 76
      },
      {
        "beat": 1,
        "duration": 0.7270833253860474,
        "pitch": 30,
        "velocity": 71
      },
      {
        "beat": 2,
        "duration": 0.675000011920929,
        "pitch": 24,
        "velocity": 95
      },
      {
        "beat": 2,
        "duration": 0.293749988079071,
        "pitch": 30,
        "velocity": 46
      },
      {
        "beat": 3,
        "duration": 0.6479166746139526,
        "pitch": 26,
        "velocity": 73
      },
      {
        "beat": 3,
        "duration": 0.693750023841858,
        "pitch": 30,
        "velocity": 77
      }
    ],
    "crc32": 1798560418,
    "midiSize": 119,
    "midiSha1": "06210ff6e2d17c0a092dedc186f27c1afa47466b"
  },
  {
    "code": "Jazz_Mute_4",
    "kind": "drum",
    "family": "Drum",
    "modelType": "dmachine_model",
    "subtype": "proller",
    "bpm": 85,
    "beat": "4/4",
    "bnum": 44,
    "noteCount": 12,
    "midi": "pattern_midis/Jazz_Mute_4.mid",
    "notes": [
      {
        "beat": 0,
        "duration": 0.762499988079071,
        "pitch": 24,
        "velocity": 92
      },
      {
        "beat": 0,
        "duration": 1.125,
        "pitch": 41,
        "velocity": 89
      },
      {
        "beat": 0.5,
        "duration": 0.24791666865348816,
        "pitch": 30,
        "velocity": 49
      },
      {
        "beat": 1,
        "duration": 0.6979166865348816,
        "pitch": 26,
        "velocity": 78
      },
      {
        "beat": 1,
        "duration": 0.34166666865348816,
        "pitch": 30,
        "velocity": 82
      },
      {
        "beat": 1.5,
        "duration": 0.3083333373069763,
        "pitch": 30,
        "velocity": 41
      },
      {
        "beat": 2,
        "duration": 0.675000011920929,
        "pitch": 24,
        "velocity": 95
      },
      {
        "beat": 2,
        "duration": 0.4166666567325592,
        "pitch": 30,
        "velocity": 74
      },
      {
        "beat": 2.5,
        "duration": 0.24791666865348816,
        "pitch": 30,
        "velocity": 49
      },
      {
        "beat": 3,
        "duration": 0.6479166746139526,
        "pitch": 26,
        "velocity": 75
      },
      {
        "beat": 3,
        "duration": 0.34375,
        "pitch": 30,
        "velocity": 75
      },
      {
        "beat": 3.5,
        "duration": 0.3083333373069763,
        "pitch": 30,
        "velocity": 41
      }
    ],
    "crc32": 3133333355,
    "midiSize": 145,
    "midiSha1": "c7e32d5b9f9248a46b7d616568fee448047b52f5"
  },
  {
    "code": "Jazz_Mute_5",
    "kind": "drum",
    "family": "Drum",
    "modelType": "dmachine_model",
    "subtype": "proller",
    "bpm": 85,
    "beat": "4/4",
    "bnum": 44,
    "noteCount": 20,
    "midi": "pattern_midis/Jazz_Mute_5.mid",
    "notes": [
      {
        "beat": 0,
        "duration": 0.762499988079071,
        "pitch": 24,
        "velocity": 92
      },
      {
        "beat": 0,
        "duration": 1.125,
        "pitch": 41,
        "velocity": 89
      },
      {
        "beat": 0.25,
        "duration": 0.18125000596046448,
        "pitch": 30,
        "velocity": 40
      },
      {
        "beat": 0.5,
        "duration": 0.18125000596046448,
        "pitch": 30,
        "velocity": 40
      },
      {
        "beat": 0.75,
        "duration": 0.15208333730697632,
        "pitch": 30,
        "velocity": 33
      },
      {
        "beat": 1,
        "duration": 0.6979166865348816,
        "pitch": 26,
        "velocity": 78
      },
      {
        "beat": 1,
        "duration": 0.21666666865348816,
        "pitch": 30,
        "velocity": 68
      },
      {
        "beat": 1.25,
        "duration": 0.18125000596046448,
        "pitch": 30,
        "velocity": 40
      },
      {
        "beat": 1.5,
        "duration": 0.23333333432674408,
        "pitch": 30,
        "velocity": 33
      },
      {
        "beat": 1.75,
        "duration": 0.18125000596046448,
        "pitch": 30,
        "velocity": 57
      },
      {
        "beat": 2,
        "duration": 0.675000011920929,
        "pitch": 24,
        "velocity": 95
      },
      {
        "beat": 2,
        "duration": 0.21666666865348816,
        "pitch": 30,
        "velocity": 41
      },
      {
        "beat": 2.25,
        "duration": 0.18125000596046448,
        "pitch": 30,
        "velocity": 56
      },
      {
        "beat": 2.5,
        "duration": 0.23333333432674408,
        "pitch": 30,
        "velocity": 33
      },
      {
        "beat": 2.75,
        "duration": 0.18125000596046448,
        "pitch": 30,
        "velocity": 40
      },
      {
        "beat": 3,
        "duration": 0.6479166746139526,
        "pitch": 26,
        "velocity": 75
      },
      {
        "beat": 3,
        "duration": 0.1979166716337204,
        "pitch": 30,
        "velocity": 61
      },
      {
        "beat": 3.25,
        "duration": 0.23333333432674408,
        "pitch": 30,
        "velocity": 33
      },
      {
        "beat": 3.5,
        "duration": 0.21458333730697632,
        "pitch": 30,
        "velocity": 52
      },
      {
        "beat": 3.75,
        "duration": 0.19583334028720856,
        "pitch": 30,
        "velocity": 29
      }
    ],
    "crc32": 2505514290,
    "midiSize": 206,
    "midiSha1": "c27a17639ecce4b5dae7b7226976050867618f34"
  },
  {
    "code": "Jazz_Mute_6",
    "kind": "drum",
    "family": "Drum",
    "modelType": "dmachine_model",
    "subtype": "proller",
    "bpm": 115,
    "beat": "4/4",
    "bnum": 43,
    "noteCount": 8,
    "midi": "pattern_midis/Jazz_Mute_6.mid",
    "notes": [
      {
        "beat": 0,
        "duration": 0.837499976158142,
        "pitch": 24,
        "velocity": 100
      },
      {
        "beat": 0,
        "duration": 0.25,
        "pitch": 32,
        "velocity": 1
      },
      {
        "beat": 0,
        "duration": 0.912500023841858,
        "pitch": 41,
        "velocity": 61
      },
      {
        "beat": 1,
        "duration": 0.4583333432674408,
        "pitch": 30,
        "velocity": 46
      },
      {
        "beat": 2,
        "duration": 0.5333333611488342,
        "pitch": 26,
        "velocity": 75
      },
      {
        "beat": 2,
        "duration": 0.5104166865348816,
        "pitch": 30,
        "velocity": 58
      },
      {
        "beat": 3,
        "duration": 0.8729166388511658,
        "pitch": 24,
        "velocity": 106
      },
      {
        "beat": 3,
        "duration": 0.40416666865348816,
        "pitch": 30,
        "velocity": 41
      }
    ],
    "crc32": 1064074229,
    "midiSize": 119,
    "midiSha1": "f306b3d2cdf0079b7fe46ed30963636ceb49f26c"
  },
  {
    "code": "Jazz_Mute_7",
    "kind": "drum",
    "family": "Drum",
    "modelType": "dmachine_model",
    "subtype": "proller",
    "bpm": 86,
    "beat": "4/4",
    "bnum": 86,
    "noteCount": 4,
    "midi": "pattern_midis/Jazz_Mute_7.mid",
    "notes": [
      {
        "beat": 0,
        "duration": 1.5,
        "pitch": 24,
        "velocity": 103
      },
      {
        "beat": 1.5,
        "duration": 1,
        "pitch": 26,
        "velocity": 76
      },
      {
        "beat": 2.5,
        "duration": 0.5,
        "pitch": 24,
        "velocity": 98
      },
      {
        "beat": 3,
        "duration": 1.5,
        "pitch": 24,
        "velocity": 110
      }
    ],
    "crc32": 3905154948,
    "midiSize": 90,
    "midiSha1": "170e1153b98c754d9f5b8d0089482b8021764517"
  },
  {
    "code": "Jazz_Mute_8",
    "kind": "drum",
    "family": "Drum",
    "modelType": "dmachine_model",
    "subtype": "proller",
    "bpm": 115,
    "beat": "4/4",
    "bnum": 43,
    "noteCount": 9,
    "midi": "pattern_midis/Jazz_Mute_8.mid",
    "notes": [
      {
        "beat": 0,
        "duration": 0.837499976158142,
        "pitch": 24,
        "velocity": 100
      },
      {
        "beat": 0,
        "duration": 0.25,
        "pitch": 32,
        "velocity": 1
      },
      {
        "beat": 0,
        "duration": 0.912500023841858,
        "pitch": 41,
        "velocity": 61
      },
      {
        "beat": 1,
        "duration": 0.5333333611488342,
        "pitch": 26,
        "velocity": 66
      },
      {
        "beat": 1,
        "duration": 0.4583333432674408,
        "pitch": 30,
        "velocity": 50
      },
      {
        "beat": 2,
        "duration": 0.5333333611488342,
        "pitch": 26,
        "velocity": 79
      },
      {
        "beat": 2,
        "duration": 0.5104166865348816,
        "pitch": 30,
        "velocity": 62
      },
      {
        "beat": 3,
        "duration": 0.8729166388511658,
        "pitch": 24,
        "velocity": 106
      },
      {
        "beat": 3,
        "duration": 0.40416666865348816,
        "pitch": 30,
        "velocity": 45
      }
    ],
    "crc32": 3362633601,
    "midiSize": 125,
    "midiSha1": "8050fc07fcd3e25ce04317c86e9a7433d55cf7d4"
  },
  {
    "code": "Jazz_Mute_9",
    "kind": "drum",
    "family": "Drum",
    "modelType": "dmachine_model",
    "subtype": "proller",
    "bpm": 86,
    "beat": "4/4",
    "bnum": 86,
    "noteCount": 10,
    "midi": "pattern_midis/Jazz_Mute_9.mid",
    "notes": [
      {
        "beat": 0,
        "duration": 1.5,
        "pitch": 24,
        "velocity": 103
      },
      {
        "beat": 0.5,
        "duration": 0.375,
        "pitch": 30,
        "velocity": 41
      },
      {
        "beat": 1,
        "duration": 0.375,
        "pitch": 30,
        "velocity": 21
      },
      {
        "beat": 1.5,
        "duration": 1,
        "pitch": 26,
        "velocity": 74
      },
      {
        "beat": 1.5,
        "duration": 0.375,
        "pitch": 30,
        "velocity": 41
      },
      {
        "beat": 2,
        "duration": 0.375,
        "pitch": 30,
        "velocity": 21
      },
      {
        "beat": 2.5,
        "duration": 0.375,
        "pitch": 30,
        "velocity": 41
      },
      {
        "beat": 3,
        "duration": 1.5,
        "pitch": 24,
        "velocity": 110
      },
      {
        "beat": 3,
        "duration": 0.375,
        "pitch": 30,
        "velocity": 21
      },
      {
        "beat": 3.5,
        "duration": 0.375,
        "pitch": 30,
        "velocity": 41
      }
    ],
    "crc32": 3163931712,
    "midiSize": 139,
    "midiSha1": "a6d0ba8f94458305b80e5c8fee580c9a3d483055"
  },
  {
    "code": "METAL_Fender_1",
    "kind": "drum",
    "family": "Drum",
    "modelType": "dmachine_model",
    "subtype": "proller",
    "bpm": 120,
    "beat": "4/4",
    "bnum": 44,
    "noteCount": 15,
    "midi": "pattern_midis/METAL_Fender_1.mid",
    "notes": [
      {
        "beat": 0,
        "duration": 0.5354166626930237,
        "pitch": 24,
        "velocity": 127
      },
      {
        "beat": 0,
        "duration": 0.5354166626930237,
        "pitch": 41,
        "velocity": 127
      },
      {
        "beat": 1,
        "duration": 0.600000023841858,
        "pitch": 24,
        "velocity": 127
      },
      {
        "beat": 1,
        "duration": 0.600000023841858,
        "pitch": 29,
        "velocity": 127
      },
      {
        "beat": 1,
        "duration": 0.5354166626930237,
        "pitch": 45,
        "velocity": 127
      },
      {
        "beat": 1.75,
        "duration": 0.18541666865348816,
        "pitch": 24,
        "velocity": 39
      },
      {
        "beat": 2,
        "duration": 0.2708333432674408,
        "pitch": 24,
        "velocity": 127
      },
      {
        "beat": 2,
        "duration": 0.4166666567325592,
        "pitch": 34,
        "velocity": 127
      },
      {
        "beat": 2.25,
        "duration": 0.4166666567325592,
        "pitch": 26,
        "velocity": 57
      },
      {
        "beat": 2.5,
        "duration": 0.18541666865348816,
        "pitch": 24,
        "velocity": 39
      },
      {
        "beat": 2.5,
        "duration": 0.600000023841858,
        "pitch": 31,
        "velocity": 127
      },
      {
        "beat": 3,
        "duration": 0.6854166388511658,
        "pitch": 24,
        "velocity": 127
      },
      {
        "beat": 3,
        "duration": 0.46041667461395264,
        "pitch": 28,
        "velocity": 127
      },
      {
        "beat": 3,
        "duration": 0.5354166626930237,
        "pitch": 34,
        "velocity": 127
      },
      {
        "beat": 3.5,
        "duration": 0.004166666883975267,
        "pitch": 24,
        "velocity": 89
      }
    ],
    "crc32": 2956809486,
    "midiSize": 168,
    "midiSha1": "d912b4188c2fb2ac05f9fc15895d04d98679dccd"
  },
  {
    "code": "METAL_Fender_2",
    "kind": "drum",
    "family": "Drum",
    "modelType": "dmachine_model",
    "subtype": "proller",
    "bpm": 80,
    "beat": "4/4",
    "bnum": 44,
    "noteCount": 21,
    "midi": "pattern_midis/METAL_Fender_2.mid",
    "notes": [
      {
        "beat": 0,
        "duration": 0.5,
        "pitch": 24,
        "velocity": 127
      },
      {
        "beat": 0,
        "duration": 0.11874999850988388,
        "pitch": 45,
        "velocity": 127
      },
      {
        "beat": 0.5,
        "duration": 0.1145833358168602,
        "pitch": 39,
        "velocity": 59
      },
      {
        "beat": 0.75,
        "duration": 0.25,
        "pitch": 24,
        "velocity": 127
      },
      {
        "beat": 1,
        "duration": 0.25,
        "pitch": 29,
        "velocity": 127
      },
      {
        "beat": 1,
        "duration": 0.1145833358168602,
        "pitch": 34,
        "velocity": 59
      },
      {
        "beat": 1.25,
        "duration": 0.12083332985639572,
        "pitch": 24,
        "velocity": 127
      },
      {
        "beat": 1.5,
        "duration": 0.12083332985639572,
        "pitch": 24,
        "velocity": 127
      },
      {
        "beat": 1.5,
        "duration": 0.1145833358168602,
        "pitch": 39,
        "velocity": 38
      },
      {
        "beat": 2,
        "duration": 0.1145833358168602,
        "pitch": 34,
        "velocity": 59
      },
      {
        "beat": 2.25,
        "duration": 0.12083332985639572,
        "pitch": 29,
        "velocity": 127
      },
      {
        "beat": 2.5,
        "duration": 0.12083332985639572,
        "pitch": 24,
        "velocity": 127
      },
      {
        "beat": 2.5,
        "duration": 0.1145833358168602,
        "pitch": 39,
        "velocity": 38
      },
      {
        "beat": 2.75,
        "duration": 0.12083332985639572,
        "pitch": 24,
        "velocity": 127
      },
      {
        "beat": 3,
        "duration": 0.12083332985639572,
        "pitch": 29,
        "velocity": 127
      },
      {
        "beat": 3,
        "duration": 0.1145833358168602,
        "pitch": 34,
        "velocity": 59
      },
      {
        "beat": 3.25,
        "duration": 0.12083332985639572,
        "pitch": 24,
        "velocity": 127
      },
      {
        "beat": 3.4833333492279053,
        "duration": 0.11874999850988388,
        "pitch": 28,
        "velocity": 127
      },
      {
        "beat": 3.5,
        "duration": 0.1145833358168602,
        "pitch": 39,
        "velocity": 38
      },
      {
        "beat": 3.75,
        "duration": 0.11874999850988388,
        "pitch": 28,
        "velocity": 127
      },
      {
        "beat": 3.879166603088379,
        "duration": 0.11874999850988388,
        "pitch": 29,
        "velocity": 127
      }
    ],
    "crc32": 1969231344,
    "midiSize": 215,
    "midiSha1": "7866c75c3b1e9dbd51f2b475b89604ea3a9e545d"
  },
  {
    "code": "Metal_Chapman_10",
    "kind": "drum",
    "family": "Drum",
    "modelType": "dmachine_model",
    "subtype": "proller",
    "bpm": 130,
    "beat": "4/4",
    "bnum": 44,
    "noteCount": 7,
    "midi": "pattern_midis/Metal_Chapman_10.mid",
    "notes": [
      {
        "beat": 0,
        "duration": 1.3333333730697632,
        "pitch": 24,
        "velocity": 127
      },
      {
        "beat": 0,
        "duration": 1,
        "pitch": 43,
        "velocity": 101
      },
      {
        "beat": 0,
        "duration": 1,
        "pitch": 45,
        "velocity": 101
      },
      {
        "beat": 1,
        "duration": 1,
        "pitch": 41,
        "velocity": 38
      },
      {
        "beat": 2,
        "duration": 1,
        "pitch": 29,
        "velocity": 127
      },
      {
        "beat": 2,
        "duration": 0.9583333134651184,
        "pitch": 41,
        "velocity": 32
      },
      {
        "beat": 3,
        "duration": 1,
        "pitch": 41,
        "velocity": 32
      }
    ],
    "crc32": 2613251666,
    "midiSize": 114,
    "midiSha1": "744415bfeddef663b44443defcb6c44d9fb3d440"
  },
  {
    "code": "Metal_Chapman_11",
    "kind": "drum",
    "family": "Drum",
    "modelType": "dmachine_model",
    "subtype": "proller",
    "bpm": 150,
    "beat": "4/4",
    "bnum": 44,
    "noteCount": 10,
    "midi": "pattern_midis/Metal_Chapman_11.mid",
    "notes": [
      {
        "beat": 0,
        "duration": 1,
        "pitch": 24,
        "velocity": 127
      },
      {
        "beat": 0,
        "duration": 1,
        "pitch": 41,
        "velocity": 120
      },
      {
        "beat": 0,
        "duration": 1,
        "pitch": 43,
        "velocity": 120
      },
      {
        "beat": 1,
        "duration": 0.9604166746139526,
        "pitch": 29,
        "velocity": 127
      },
      {
        "beat": 1,
        "duration": 0.3395833373069763,
        "pitch": 34,
        "velocity": 127
      },
      {
        "beat": 2,
        "duration": 0.25,
        "pitch": 24,
        "velocity": 127
      },
      {
        "beat": 2,
        "duration": 0.3604166805744171,
        "pitch": 34,
        "velocity": 119
      },
      {
        "beat": 2.5,
        "duration": 0.5,
        "pitch": 24,
        "velocity": 127
      },
      {
        "beat": 3,
        "duration": 1,
        "pitch": 29,
        "velocity": 125
      },
      {
        "beat": 3,
        "duration": 0.2874999940395355,
        "pitch": 34,
        "velocity": 126
      }
    ],
    "crc32": 2405646904,
    "midiSize": 133,
    "midiSha1": "938e3847ddb11cdc6822bb61a7b61a46a9cb36ea"
  },
  {
    "code": "Metal_Chapman_12",
    "kind": "drum",
    "family": "Drum",
    "modelType": "dmachine_model",
    "subtype": "proller",
    "bpm": 130,
    "beat": "4/4",
    "bnum": 44,
    "noteCount": 14,
    "midi": "pattern_midis/Metal_Chapman_12.mid",
    "notes": [
      {
        "beat": 0,
        "duration": 0.675000011920929,
        "pitch": 24,
        "velocity": 127
      },
      {
        "beat": 0,
        "duration": 0.625,
        "pitch": 41,
        "velocity": 120
      },
      {
        "beat": 0,
        "duration": 0.625,
        "pitch": 43,
        "velocity": 120
      },
      {
        "beat": 0.75,
        "duration": 0.25,
        "pitch": 24,
        "velocity": 127
      },
      {
        "beat": 1,
        "duration": 0.3333333432674408,
        "pitch": 29,
        "velocity": 127
      },
      {
        "beat": 1,
        "duration": 0.75,
        "pitch": 43,
        "velocity": 93
      },
      {
        "beat": 1.5,
        "duration": 0.25,
        "pitch": 26,
        "velocity": 38
      },
      {
        "beat": 1.75,
        "duration": 0.4166666567325592,
        "pitch": 24,
        "velocity": 127
      },
      {
        "beat": 2,
        "duration": 0.7708333134651184,
        "pitch": 43,
        "velocity": 69
      },
      {
        "beat": 2.25,
        "duration": 0.25,
        "pitch": 28,
        "velocity": 127
      },
      {
        "beat": 2.5,
        "duration": 0.25,
        "pitch": 24,
        "velocity": 127
      },
      {
        "beat": 3,
        "duration": 0.25,
        "pitch": 29,
        "velocity": 125
      },
      {
        "beat": 3,
        "duration": 0.6979166865348816,
        "pitch": 43,
        "velocity": 85
      },
      {
        "beat": 3.75,
        "duration": 0.25,
        "pitch": 26,
        "velocity": 38
      }
    ],
    "crc32": 3238928152,
    "midiSize": 162,
    "midiSha1": "1f111eb2a5e93747f3d1b942914f03638a73861a"
  },
  {
    "code": "Metal_Chapman_13",
    "kind": "drum",
    "family": "Drum",
    "modelType": "dmachine_model",
    "subtype": "proller",
    "bpm": 63,
    "beat": "4/4",
    "bnum": 44,
    "noteCount": 13,
    "midi": "pattern_midis/Metal_Chapman_13.mid",
    "notes": [
      {
        "beat": 0,
        "duration": 0.5,
        "pitch": 24,
        "velocity": 127
      },
      {
        "beat": 0,
        "duration": 0.5,
        "pitch": 41,
        "velocity": 120
      },
      {
        "beat": 0.5,
        "duration": 0.17083333432674408,
        "pitch": 30,
        "velocity": 127
      },
      {
        "beat": 1,
        "duration": 0.125,
        "pitch": 28,
        "velocity": 127
      },
      {
        "beat": 1,
        "duration": 0.18125000596046448,
        "pitch": 30,
        "velocity": 119
      },
      {
        "beat": 1.5,
        "duration": 0.14374999701976776,
        "pitch": 30,
        "velocity": 45
      },
      {
        "beat": 2,
        "duration": 0.5,
        "pitch": 24,
        "velocity": 127
      },
      {
        "beat": 2,
        "duration": 0.17083333432674408,
        "pitch": 30,
        "velocity": 127
      },
      {
        "beat": 2.25,
        "duration": 0.17083333432674408,
        "pitch": 32,
        "velocity": 15
      },
      {
        "beat": 2.5,
        "duration": 0.18125000596046448,
        "pitch": 30,
        "velocity": 119
      },
      {
        "beat": 3,
        "duration": 0.4854166805744171,
        "pitch": 28,
        "velocity": 127
      },
      {
        "beat": 3,
        "duration": 0.14374999701976776,
        "pitch": 30,
        "velocity": 126
      },
      {
        "beat": 3.5,
        "duration": 0.17083333432674408,
        "pitch": 30,
        "velocity": 35
      }
    ],
    "crc32": 1957018792,
    "midiSize": 161,
    "midiSha1": "5e6c41245bb30502e0235ff435506df9f2746665"
  },
  {
    "code": "Metal_Chapman_14",
    "kind": "drum",
    "family": "Drum",
    "modelType": "dmachine_model",
    "subtype": "proller",
    "bpm": 63,
    "beat": "4/4",
    "bnum": 44,
    "noteCount": 16,
    "midi": "pattern_midis/Metal_Chapman_14.mid",
    "notes": [
      {
        "beat": 0,
        "duration": 0.5,
        "pitch": 24,
        "velocity": 127
      },
      {
        "beat": 0,
        "duration": 0.5,
        "pitch": 41,
        "velocity": 120
      },
      {
        "beat": 0.5,
        "duration": 0.17083333432674408,
        "pitch": 47,
        "velocity": 104
      },
      {
        "beat": 0.75,
        "duration": 0.2083333283662796,
        "pitch": 24,
        "velocity": 127
      },
      {
        "beat": 1,
        "duration": 0.125,
        "pitch": 29,
        "velocity": 127
      },
      {
        "beat": 1,
        "duration": 0.18125000596046448,
        "pitch": 47,
        "velocity": 96
      },
      {
        "beat": 1.5,
        "duration": 0.14374999701976776,
        "pitch": 47,
        "velocity": 21
      },
      {
        "beat": 1.75,
        "duration": 0.125,
        "pitch": 24,
        "velocity": 62
      },
      {
        "beat": 2,
        "duration": 0.4791666567325592,
        "pitch": 24,
        "velocity": 127
      },
      {
        "beat": 2,
        "duration": 0.17083333432674408,
        "pitch": 47,
        "velocity": 104
      },
      {
        "beat": 2.5,
        "duration": 0.125,
        "pitch": 24,
        "velocity": 127
      },
      {
        "beat": 2.5,
        "duration": 0.18125000596046448,
        "pitch": 47,
        "velocity": 28
      },
      {
        "beat": 3,
        "duration": 0.4854166805744171,
        "pitch": 29,
        "velocity": 127
      },
      {
        "beat": 3,
        "duration": 0.14374999701976776,
        "pitch": 47,
        "velocity": 103
      },
      {
        "beat": 3.5,
        "duration": 0.17083333432674408,
        "pitch": 47,
        "velocity": 23
      },
      {
        "beat": 3.75,
        "duration": 0.20208333432674408,
        "pitch": 24,
        "velocity": 47
      }
    ],
    "crc32": 4204531939,
    "midiSize": 182,
    "midiSha1": "59918718637c87fae91dcf182a20fa6349a8c25e"
  },
  {
    "code": "Metal_Chapman_3",
    "kind": "drum",
    "family": "Drum",
    "modelType": "dmachine_model",
    "subtype": "proller",
    "bpm": 85,
    "beat": "4/4",
    "bnum": 44,
    "noteCount": 8,
    "midi": "pattern_midis/Metal_Chapman_3.mid",
    "notes": [
      {
        "beat": 0,
        "duration": 0.762499988079071,
        "pitch": 24,
        "velocity": 121
      },
      {
        "beat": 0,
        "duration": 1.125,
        "pitch": 41,
        "velocity": 97
      },
      {
        "beat": 1,
        "duration": 0.6979166865348816,
        "pitch": 29,
        "velocity": 127
      },
      {
        "beat": 1,
        "duration": 0.7270833253860474,
        "pitch": 30,
        "velocity": 95
      },
      {
        "beat": 2,
        "duration": 0.675000011920929,
        "pitch": 24,
        "velocity": 124
      },
      {
        "beat": 2,
        "duration": 0.293749988079071,
        "pitch": 30,
        "velocity": 70
      },
      {
        "beat": 3,
        "duration": 0.6479166746139526,
        "pitch": 29,
        "velocity": 124
      },
      {
        "beat": 3,
        "duration": 0.693750023841858,
        "pitch": 30,
        "velocity": 102
      }
    ],
    "crc32": 435548835,
    "midiSize": 123,
    "midiSha1": "6cd1935d2e85a2248ef6b8d0827bb7e8eac64296"
  },
  {
    "code": "Metal_Chapman_4",
    "kind": "drum",
    "family": "Drum",
    "modelType": "dmachine_model",
    "subtype": "proller",
    "bpm": 85,
    "beat": "4/4",
    "bnum": 44,
    "noteCount": 12,
    "midi": "pattern_midis/Metal_Chapman_4.mid",
    "notes": [
      {
        "beat": 0,
        "duration": 0.762499988079071,
        "pitch": 24,
        "velocity": 121
      },
      {
        "beat": 0,
        "duration": 1.125,
        "pitch": 41,
        "velocity": 111
      },
      {
        "beat": 0.5,
        "duration": 0.24791666865348816,
        "pitch": 30,
        "velocity": 77
      },
      {
        "beat": 1,
        "duration": 0.6979166865348816,
        "pitch": 29,
        "velocity": 127
      },
      {
        "beat": 1,
        "duration": 0.34166666865348816,
        "pitch": 30,
        "velocity": 111
      },
      {
        "beat": 1.5,
        "duration": 0.3083333373069763,
        "pitch": 30,
        "velocity": 69
      },
      {
        "beat": 2,
        "duration": 0.675000011920929,
        "pitch": 24,
        "velocity": 124
      },
      {
        "beat": 2,
        "duration": 0.4166666567325592,
        "pitch": 30,
        "velocity": 103
      },
      {
        "beat": 2.5,
        "duration": 0.24791666865348816,
        "pitch": 30,
        "velocity": 77
      },
      {
        "beat": 3,
        "duration": 0.6479166746139526,
        "pitch": 29,
        "velocity": 124
      },
      {
        "beat": 3,
        "duration": 0.34375,
        "pitch": 30,
        "velocity": 104
      },
      {
        "beat": 3.5,
        "duration": 0.3083333373069763,
        "pitch": 30,
        "velocity": 69
      }
    ],
    "crc32": 2934160068,
    "midiSize": 149,
    "midiSha1": "d443398dd3749378d9ab9a7d209223147a87e016"
  },
  {
    "code": "Metal_Chapman_5",
    "kind": "drum",
    "family": "Drum",
    "modelType": "dmachine_model",
    "subtype": "proller",
    "bpm": 85,
    "beat": "4/4",
    "bnum": 44,
    "noteCount": 19,
    "midi": "pattern_midis/Metal_Chapman_5.mid",
    "notes": [
      {
        "beat": 0,
        "duration": 0.762499988079071,
        "pitch": 24,
        "velocity": 121
      },
      {
        "beat": 0,
        "duration": 1.125,
        "pitch": 41,
        "velocity": 111
      },
      {
        "beat": 0.25,
        "duration": 0.18125000596046448,
        "pitch": 30,
        "velocity": 52
      },
      {
        "beat": 0.5,
        "duration": 0.18125000596046448,
        "pitch": 30,
        "velocity": 78
      },
      {
        "beat": 0.75,
        "duration": 0.15208333730697632,
        "pitch": 30,
        "velocity": 45
      },
      {
        "beat": 1,
        "duration": 0.6979166865348816,
        "pitch": 29,
        "velocity": 127
      },
      {
        "beat": 1,
        "duration": 0.21666666865348816,
        "pitch": 30,
        "velocity": 106
      },
      {
        "beat": 1.25,
        "duration": 0.18125000596046448,
        "pitch": 30,
        "velocity": 52
      },
      {
        "beat": 1.5,
        "duration": 0.23333333432674408,
        "pitch": 30,
        "velocity": 71
      },
      {
        "beat": 1.75,
        "duration": 0.18125000596046448,
        "pitch": 30,
        "velocity": 37
      },
      {
        "beat": 2,
        "duration": 0.675000011920929,
        "pitch": 24,
        "velocity": 124
      },
      {
        "beat": 2,
        "duration": 0.21666666865348816,
        "pitch": 30,
        "velocity": 79
      },
      {
        "beat": 2.25,
        "duration": 0.18125000596046448,
        "pitch": 30,
        "velocity": 36
      },
      {
        "beat": 2.5,
        "duration": 0.23333333432674408,
        "pitch": 30,
        "velocity": 97
      },
      {
        "beat": 2.75,
        "duration": 0.18125000596046448,
        "pitch": 30,
        "velocity": 52
      },
      {
        "beat": 3,
        "duration": 0.6479166746139526,
        "pitch": 29,
        "velocity": 124
      },
      {
        "beat": 3,
        "duration": 0.1979166716337204,
        "pitch": 30,
        "velocity": 99
      },
      {
        "beat": 3.25,
        "duration": 0.23333333432674408,
        "pitch": 30,
        "velocity": 45
      },
      {
        "beat": 3.5,
        "duration": 0.21458333730697632,
        "pitch": 34,
        "velocity": 64
      }
    ],
    "crc32": 2817032643,
    "midiSize": 202,
    "midiSha1": "8645c0501d0139386b30484d61af7a90e92c69c7"
  },
  {
    "code": "Metal_Chapman_6",
    "kind": "drum",
    "family": "Drum",
    "modelType": "dmachine_model",
    "subtype": "proller",
    "bpm": 115,
    "beat": "4/4",
    "bnum": 43,
    "noteCount": 8,
    "midi": "pattern_midis/Metal_Chapman_6.mid",
    "notes": [
      {
        "beat": 0,
        "duration": 0.837499976158142,
        "pitch": 24,
        "velocity": 121
      },
      {
        "beat": 0,
        "duration": 0.25,
        "pitch": 32,
        "velocity": 18
      },
      {
        "beat": 0,
        "duration": 0.912500023841858,
        "pitch": 41,
        "velocity": 78
      },
      {
        "beat": 1,
        "duration": 0.4583333432674408,
        "pitch": 30,
        "velocity": 63
      },
      {
        "beat": 2,
        "duration": 0.5333333611488342,
        "pitch": 29,
        "velocity": 116
      },
      {
        "beat": 2,
        "duration": 0.5104166865348816,
        "pitch": 30,
        "velocity": 75
      },
      {
        "beat": 3,
        "duration": 0.8729166388511658,
        "pitch": 24,
        "velocity": 127
      },
      {
        "beat": 3,
        "duration": 0.40416666865348816,
        "pitch": 30,
        "velocity": 58
      }
    ],
    "crc32": 531956930,
    "midiSize": 123,
    "midiSha1": "534ed152d382da87dcd1d9dbd448ab1be37b4511"
  },
  {
    "code": "Metal_Chapman_7",
    "kind": "drum",
    "family": "Drum",
    "modelType": "dmachine_model",
    "subtype": "proller",
    "bpm": 86,
    "beat": "4/4",
    "bnum": 86,
    "noteCount": 6,
    "midi": "pattern_midis/Metal_Chapman_7.mid",
    "notes": [
      {
        "beat": 0,
        "duration": 1.5,
        "pitch": 24,
        "velocity": 120
      },
      {
        "beat": 0,
        "duration": 1.1604167222976685,
        "pitch": 41,
        "velocity": 94
      },
      {
        "beat": 1.5,
        "duration": 1,
        "pitch": 29,
        "velocity": 113
      },
      {
        "beat": 2.25,
        "duration": 0.5041666626930237,
        "pitch": 47,
        "velocity": 54
      },
      {
        "beat": 2.5,
        "duration": 0.5,
        "pitch": 24,
        "velocity": 115
      },
      {
        "beat": 3,
        "duration": 1.5,
        "pitch": 24,
        "velocity": 127
      }
    ],
    "crc32": 392765844,
    "midiSize": 108,
    "midiSha1": "56108c0ebc2b41b2836485a18582caa845feba70"
  },
  {
    "code": "Metal_Chapman_8",
    "kind": "drum",
    "family": "Drum",
    "modelType": "dmachine_model",
    "subtype": "proller",
    "bpm": 115,
    "beat": "4/4",
    "bnum": 43,
    "noteCount": 9,
    "midi": "pattern_midis/Metal_Chapman_8.mid",
    "notes": [
      {
        "beat": 0,
        "duration": 0.837499976158142,
        "pitch": 24,
        "velocity": 100
      },
      {
        "beat": 0,
        "duration": 0.25,
        "pitch": 32,
        "velocity": 1
      },
      {
        "beat": 0,
        "duration": 0.912500023841858,
        "pitch": 41,
        "velocity": 61
      },
      {
        "beat": 1,
        "duration": 0.5333333611488342,
        "pitch": 28,
        "velocity": 52
      },
      {
        "beat": 1,
        "duration": 0.4583333432674408,
        "pitch": 30,
        "velocity": 84
      },
      {
        "beat": 2,
        "duration": 0.5333333611488342,
        "pitch": 28,
        "velocity": 76
      },
      {
        "beat": 2,
        "duration": 0.5104166865348816,
        "pitch": 30,
        "velocity": 96
      },
      {
        "beat": 3,
        "duration": 0.8729166388511658,
        "pitch": 24,
        "velocity": 106
      },
      {
        "beat": 3,
        "duration": 0.40416666865348816,
        "pitch": 30,
        "velocity": 79
      }
    ],
    "crc32": 3583528653,
    "midiSize": 129,
    "midiSha1": "5ea24cd3b1581bc3765ffce1a49764380338b130"
  },
  {
    "code": "Metal_Chapman_9",
    "kind": "drum",
    "family": "Drum",
    "modelType": "dmachine_model",
    "subtype": "proller",
    "bpm": 86,
    "beat": "4/4",
    "bnum": 86,
    "noteCount": 11,
    "midi": "pattern_midis/Metal_Chapman_9.mid",
    "notes": [
      {
        "beat": 0,
        "duration": 1.5,
        "pitch": 24,
        "velocity": 103
      },
      {
        "beat": 0,
        "duration": 1.1604167222976685,
        "pitch": 41,
        "velocity": 71
      },
      {
        "beat": 0.5,
        "duration": 0.375,
        "pitch": 30,
        "velocity": 88
      },
      {
        "beat": 1,
        "duration": 0.375,
        "pitch": 30,
        "velocity": 68
      },
      {
        "beat": 1.5,
        "duration": 1,
        "pitch": 28,
        "velocity": 83
      },
      {
        "beat": 1.5,
        "duration": 0.375,
        "pitch": 30,
        "velocity": 88
      },
      {
        "beat": 2,
        "duration": 0.375,
        "pitch": 30,
        "velocity": 68
      },
      {
        "beat": 2.5,
        "duration": 0.375,
        "pitch": 30,
        "velocity": 88
      },
      {
        "beat": 3,
        "duration": 1.5,
        "pitch": 24,
        "velocity": 110
      },
      {
        "beat": 3,
        "duration": 0.375,
        "pitch": 30,
        "velocity": 68
      },
      {
        "beat": 3.5,
        "duration": 0.375,
        "pitch": 30,
        "velocity": 88
      }
    ],
    "crc32": 4047008637,
    "midiSize": 148,
    "midiSha1": "e66da144f51d08f14f80b5104e77985a936b4cca"
  },
  {
    "code": "POP_ChapMen_1",
    "kind": "drum",
    "family": "Drum",
    "modelType": "dmachine_model",
    "subtype": "proller",
    "bpm": 68,
    "beat": "4/4",
    "bnum": 44,
    "noteCount": 10,
    "midi": "pattern_midis/POP_ChapMen_1.mid",
    "notes": [
      {
        "beat": 0,
        "duration": 0.625,
        "pitch": 24,
        "velocity": 31
      },
      {
        "beat": 0,
        "duration": 0.8416666388511658,
        "pitch": 41,
        "velocity": 38
      },
      {
        "beat": 1,
        "duration": 0.5,
        "pitch": 30,
        "velocity": 27
      },
      {
        "beat": 1.75,
        "duration": 0.5333333611488342,
        "pitch": 24,
        "velocity": 33
      },
      {
        "beat": 2,
        "duration": 0.5,
        "pitch": 30,
        "velocity": 65
      },
      {
        "beat": 2.5,
        "duration": 0.24791666865348816,
        "pitch": 24,
        "velocity": 32
      },
      {
        "beat": 2.5,
        "duration": 0.2770833373069763,
        "pitch": 30,
        "velocity": 1
      },
      {
        "beat": 3,
        "duration": 0.6145833134651184,
        "pitch": 25,
        "velocity": 110
      },
      {
        "beat": 3,
        "duration": 0.5,
        "pitch": 30,
        "velocity": 72
      },
      {
        "beat": 3.5,
        "duration": 0.3479166626930237,
        "pitch": 30,
        "velocity": 12
      }
    ],
    "crc32": 3370514756,
    "midiSize": 132,
    "midiSha1": "97aad34ceef8bcd1d91782228f75c4edeaa3d790"
  },
  {
    "code": "POP_ChapMen_10",
    "kind": "drum",
    "family": "Drum",
    "modelType": "dmachine_model",
    "subtype": "proller",
    "bpm": 72,
    "beat": "4/4",
    "bnum": 44,
    "noteCount": 13,
    "midi": "pattern_midis/POP_ChapMen_10.mid",
    "notes": [
      {
        "beat": 0,
        "duration": 0.28333333134651184,
        "pitch": 24,
        "velocity": 63
      },
      {
        "beat": 0,
        "duration": 0.268750011920929,
        "pitch": 30,
        "velocity": 89
      },
      {
        "beat": 0.5,
        "duration": 0.25208333134651184,
        "pitch": 30,
        "velocity": 37
      },
      {
        "beat": 1,
        "duration": 0.19374999403953552,
        "pitch": 25,
        "velocity": 76
      },
      {
        "beat": 1,
        "duration": 0.21041665971279144,
        "pitch": 30,
        "velocity": 72
      },
      {
        "beat": 1.5,
        "duration": 0.28333333134651184,
        "pitch": 24,
        "velocity": 63
      },
      {
        "beat": 1.5,
        "duration": 0.31041666865348816,
        "pitch": 30,
        "velocity": 74
      },
      {
        "beat": 2,
        "duration": 0.23749999701976776,
        "pitch": 30,
        "velocity": 47
      },
      {
        "beat": 2.5,
        "duration": 0.1354166716337204,
        "pitch": 30,
        "velocity": 73
      },
      {
        "beat": 2.75,
        "duration": 0.15833333134651184,
        "pitch": 30,
        "velocity": 18
      },
      {
        "beat": 3,
        "duration": 0.18125000596046448,
        "pitch": 25,
        "velocity": 107
      },
      {
        "beat": 3,
        "duration": 0.1875,
        "pitch": 30,
        "velocity": 65
      },
      {
        "beat": 3.5,
        "duration": 0.17291666567325592,
        "pitch": 46,
        "velocity": 30
      }
    ],
    "crc32": 3571713648,
    "midiSize": 159,
    "midiSha1": "94245499021ac255a2aee08a2b762e2c9a0c00b2"
  },
  {
    "code": "POP_ChapMen_11",
    "kind": "drum",
    "family": "Drum",
    "modelType": "dmachine_model",
    "subtype": "proller",
    "bpm": 72,
    "beat": "4/4",
    "bnum": 44,
    "noteCount": 15,
    "midi": "pattern_midis/POP_ChapMen_11.mid",
    "notes": [
      {
        "beat": 0,
        "duration": 0.25,
        "pitch": 24,
        "velocity": 87
      },
      {
        "beat": 0,
        "duration": 0.25,
        "pitch": 41,
        "velocity": 87
      },
      {
        "beat": 0.5,
        "duration": 0.25,
        "pitch": 30,
        "velocity": 73
      },
      {
        "beat": 0.75,
        "duration": 0.25,
        "pitch": 24,
        "velocity": 50
      },
      {
        "beat": 1,
        "duration": 0.25,
        "pitch": 29,
        "velocity": 87
      },
      {
        "beat": 1,
        "duration": 0.25,
        "pitch": 30,
        "velocity": 89
      },
      {
        "beat": 1.5,
        "duration": 0.25,
        "pitch": 24,
        "velocity": 87
      },
      {
        "beat": 1.5,
        "duration": 0.25,
        "pitch": 30,
        "velocity": 73
      },
      {
        "beat": 2,
        "duration": 0.25,
        "pitch": 30,
        "velocity": 66
      },
      {
        "beat": 2.5,
        "duration": 0.25,
        "pitch": 30,
        "velocity": 53
      },
      {
        "beat": 2.75,
        "duration": 0.25,
        "pitch": 30,
        "velocity": 1
      },
      {
        "beat": 3,
        "duration": 0.25,
        "pitch": 29,
        "velocity": 87
      },
      {
        "beat": 3,
        "duration": 0.25,
        "pitch": 46,
        "velocity": 42
      },
      {
        "beat": 3.5,
        "duration": 0.25,
        "pitch": 30,
        "velocity": 53
      },
      {
        "beat": 3.75,
        "duration": 0.25,
        "pitch": 24,
        "velocity": 50
      }
    ],
    "crc32": 88513481,
    "midiSize": 165,
    "midiSha1": "4f3cd9d52931cc963f32bac4f5758a924e4e5b2d"
  },
  {
    "code": "POP_ChapMen_2",
    "kind": "drum",
    "family": "Drum",
    "modelType": "dmachine_model",
    "subtype": "proller",
    "bpm": 68,
    "beat": "4/4",
    "bnum": 44,
    "noteCount": 14,
    "midi": "pattern_midis/POP_ChapMen_2.mid",
    "notes": [
      {
        "beat": 0,
        "duration": 0.362500011920929,
        "pitch": 24,
        "velocity": 103
      },
      {
        "beat": 0,
        "duration": 0.16875000298023224,
        "pitch": 41,
        "velocity": 106
      },
      {
        "beat": 0.5,
        "duration": 0.2083333283662796,
        "pitch": 30,
        "velocity": 33
      },
      {
        "beat": 1,
        "duration": 0.5416666865348816,
        "pitch": 29,
        "velocity": 123
      },
      {
        "beat": 1,
        "duration": 0.2979166805744171,
        "pitch": 30,
        "velocity": 113
      },
      {
        "beat": 1.5,
        "duration": 0.3270833194255829,
        "pitch": 30,
        "velocity": 45
      },
      {
        "beat": 1.75,
        "duration": 0.39791667461395264,
        "pitch": 24,
        "velocity": 97
      },
      {
        "beat": 2,
        "duration": 0.3270833194255829,
        "pitch": 30,
        "velocity": 87
      },
      {
        "beat": 2.25,
        "duration": 0.18541666865348816,
        "pitch": 24,
        "velocity": 96
      },
      {
        "beat": 2.5,
        "duration": 0.262499988079071,
        "pitch": 24,
        "velocity": 102
      },
      {
        "beat": 2.5,
        "duration": 0.28125,
        "pitch": 30,
        "velocity": 47
      },
      {
        "beat": 3,
        "duration": 0.34583333134651184,
        "pitch": 29,
        "velocity": 127
      },
      {
        "beat": 3,
        "duration": 0.28125,
        "pitch": 30,
        "velocity": 127
      },
      {
        "beat": 3.5,
        "duration": 0.28958332538604736,
        "pitch": 30,
        "velocity": 37
      }
    ],
    "crc32": 2501820082,
    "midiSize": 166,
    "midiSha1": "ff6babe7a43c35d1416cab7aed624e64c87d21e2"
  },
  {
    "code": "Pop_Chapman_12",
    "kind": "drum",
    "family": "Drum",
    "modelType": "dmachine_model",
    "subtype": "proller",
    "bpm": 85,
    "beat": "4/4",
    "bnum": 44,
    "noteCount": 22,
    "midi": "pattern_midis/Pop_Chapman_12.mid",
    "notes": [
      {
        "beat": 0,
        "duration": 0.22291666269302368,
        "pitch": 24,
        "velocity": 93
      },
      {
        "beat": 0.5,
        "duration": 0.22291666269302368,
        "pitch": 31,
        "velocity": 68
      },
      {
        "beat": 0.5,
        "duration": 0.2083333283662796,
        "pitch": 32,
        "velocity": 13
      },
      {
        "beat": 0.975000023841858,
        "duration": 0.2083333283662796,
        "pitch": 32,
        "velocity": 29
      },
      {
        "beat": 1,
        "duration": 0.3333333432674408,
        "pitch": 26,
        "velocity": 66
      },
      {
        "beat": 1,
        "duration": 0.22291666269302368,
        "pitch": 31,
        "velocity": 104
      },
      {
        "beat": 1.4874999523162842,
        "duration": 0.22083333134651184,
        "pitch": 30,
        "velocity": 32
      },
      {
        "beat": 1.5,
        "duration": 0.22291666269302368,
        "pitch": 31,
        "velocity": 67
      },
      {
        "beat": 1.75,
        "duration": 0.24583333730697632,
        "pitch": 38,
        "velocity": 64
      },
      {
        "beat": 2,
        "duration": 0.22291666269302368,
        "pitch": 24,
        "velocity": 38
      },
      {
        "beat": 2,
        "duration": 0.2083333283662796,
        "pitch": 30,
        "velocity": 25
      },
      {
        "beat": 2,
        "duration": 0.22291666269302368,
        "pitch": 31,
        "velocity": 84
      },
      {
        "beat": 2.25,
        "duration": 0.24583333730697632,
        "pitch": 35,
        "velocity": 61
      },
      {
        "beat": 2.5,
        "duration": 0.22291666269302368,
        "pitch": 24,
        "velocity": 30
      },
      {
        "beat": 2.5,
        "duration": 0.2083333283662796,
        "pitch": 30,
        "velocity": 25
      },
      {
        "beat": 2.5,
        "duration": 0.22291666269302368,
        "pitch": 31,
        "velocity": 70
      },
      {
        "beat": 3,
        "duration": 0.2604166567325592,
        "pitch": 26,
        "velocity": 84
      },
      {
        "beat": 3,
        "duration": 0.22291666269302368,
        "pitch": 31,
        "velocity": 101
      },
      {
        "beat": 3,
        "duration": 0.2083333283662796,
        "pitch": 32,
        "velocity": 13
      },
      {
        "beat": 3.4833333492279053,
        "duration": 0.2083333283662796,
        "pitch": 32,
        "velocity": 3
      },
      {
        "beat": 3.5,
        "duration": 0.22291666269302368,
        "pitch": 31,
        "velocity": 66
      },
      {
        "beat": 3.75,
        "duration": 0.774999976158142,
        "pitch": 44,
        "velocity": 15
      }
    ],
    "crc32": 3001943144,
    "midiSize": 216,
    "midiSha1": "b497717b01424ccbcccaa9c7564dea0572c56d6b"
  },
  {
    "code": "Pop_Chapman_13",
    "kind": "drum",
    "family": "Drum",
    "modelType": "dmachine_model",
    "subtype": "proller",
    "bpm": 130,
    "beat": "4/4",
    "bnum": 44,
    "noteCount": 8,
    "midi": "pattern_midis/Pop_Chapman_13.mid",
    "notes": [
      {
        "beat": 0,
        "duration": 0.4833333194255829,
        "pitch": 24,
        "velocity": 47
      },
      {
        "beat": 0,
        "duration": 0.5,
        "pitch": 41,
        "velocity": 51
      },
      {
        "beat": 1,
        "duration": 0.6979166865348816,
        "pitch": 26,
        "velocity": 57
      },
      {
        "beat": 1,
        "duration": 0.25,
        "pitch": 32,
        "velocity": 19
      },
      {
        "beat": 2,
        "duration": 0.675000011920929,
        "pitch": 24,
        "velocity": 53
      },
      {
        "beat": 2,
        "duration": 0.25,
        "pitch": 32,
        "velocity": 19
      },
      {
        "beat": 3,
        "duration": 0.6479166746139526,
        "pitch": 26,
        "velocity": 47
      },
      {
        "beat": 3,
        "duration": 0.25,
        "pitch": 32,
        "velocity": 19
      }
    ],
    "crc32": 2609993320,
    "midiSize": 122,
    "midiSha1": "5caa2b534ce10dff3fad1e6cd219adcea5a84c72"
  },
  {
    "code": "Pop_Chapman_14",
    "kind": "drum",
    "family": "Drum",
    "modelType": "dmachine_model",
    "subtype": "proller",
    "bpm": 110,
    "beat": "4/4",
    "bnum": 44,
    "noteCount": 14,
    "midi": "pattern_midis/Pop_Chapman_14.mid",
    "notes": [
      {
        "beat": 0,
        "duration": 0.25,
        "pitch": 24,
        "velocity": 65
      },
      {
        "beat": 0,
        "duration": 0.5,
        "pitch": 41,
        "velocity": 51
      },
      {
        "beat": 0.5,
        "duration": 0.25,
        "pitch": 42,
        "velocity": 15
      },
      {
        "beat": 1,
        "duration": 0.25,
        "pitch": 26,
        "velocity": 65
      },
      {
        "beat": 1,
        "duration": 0.25,
        "pitch": 30,
        "velocity": 63
      },
      {
        "beat": 1.5,
        "duration": 0.25,
        "pitch": 37,
        "velocity": 25
      },
      {
        "beat": 1.75,
        "duration": 0.25,
        "pitch": 26,
        "velocity": 45
      },
      {
        "beat": 2,
        "duration": 0.25,
        "pitch": 37,
        "velocity": 25
      },
      {
        "beat": 2.25,
        "duration": 0.25,
        "pitch": 26,
        "velocity": 28
      },
      {
        "beat": 2.5,
        "duration": 0.23541666567325592,
        "pitch": 24,
        "velocity": 43
      },
      {
        "beat": 3,
        "duration": 0.25,
        "pitch": 26,
        "velocity": 65
      },
      {
        "beat": 3,
        "duration": 0.25,
        "pitch": 37,
        "velocity": 11
      },
      {
        "beat": 3.5,
        "duration": 0.25,
        "pitch": 37,
        "velocity": 25
      },
      {
        "beat": 3.75,
        "duration": 0.25,
        "pitch": 26,
        "velocity": 24
      }
    ],
    "crc32": 3333378460,
    "midiSize": 161,
    "midiSha1": "b93e1b8c225f30d081bb077c6de2c6fd6b8802ad"
  },
  {
    "code": "Pop_Chapman_3",
    "kind": "drum",
    "family": "Drum",
    "modelType": "dmachine_model",
    "subtype": "proller",
    "bpm": 85,
    "beat": "4/4",
    "bnum": 44,
    "noteCount": 8,
    "midi": "pattern_midis/Pop_Chapman_3.mid",
    "notes": [
      {
        "beat": 0,
        "duration": 0.762499988079071,
        "pitch": 24,
        "velocity": 92
      },
      {
        "beat": 0,
        "duration": 1.125,
        "pitch": 41,
        "velocity": 51
      },
      {
        "beat": 1,
        "duration": 0.6979166865348816,
        "pitch": 26,
        "velocity": 98
      },
      {
        "beat": 1,
        "duration": 0.7270833253860474,
        "pitch": 30,
        "velocity": 88
      },
      {
        "beat": 2,
        "duration": 0.675000011920929,
        "pitch": 24,
        "velocity": 95
      },
      {
        "beat": 2,
        "duration": 0.293749988079071,
        "pitch": 30,
        "velocity": 63
      },
      {
        "beat": 3,
        "duration": 0.6479166746139526,
        "pitch": 26,
        "velocity": 95
      },
      {
        "beat": 3,
        "duration": 0.693750023841858,
        "pitch": 30,
        "velocity": 94
      }
    ],
    "crc32": 1265713055,
    "midiSize": 121,
    "midiSha1": "b4656fe85628b09d22c6d9e3e79c564e024363d6"
  },
  {
    "code": "Pop_Chapman_4",
    "kind": "drum",
    "family": "Drum",
    "modelType": "dmachine_model",
    "subtype": "proller",
    "bpm": 85,
    "beat": "4/4",
    "bnum": 44,
    "noteCount": 12,
    "midi": "pattern_midis/Pop_Chapman_4.mid",
    "notes": [
      {
        "beat": 0,
        "duration": 0.762499988079071,
        "pitch": 24,
        "velocity": 92
      },
      {
        "beat": 0,
        "duration": 1.125,
        "pitch": 41,
        "velocity": 64
      },
      {
        "beat": 0.5,
        "duration": 0.24791666865348816,
        "pitch": 30,
        "velocity": 56
      },
      {
        "beat": 1,
        "duration": 0.6979166865348816,
        "pitch": 26,
        "velocity": 98
      },
      {
        "beat": 1,
        "duration": 0.34166666865348816,
        "pitch": 30,
        "velocity": 89
      },
      {
        "beat": 1.5,
        "duration": 0.3083333373069763,
        "pitch": 30,
        "velocity": 48
      },
      {
        "beat": 2,
        "duration": 0.675000011920929,
        "pitch": 24,
        "velocity": 95
      },
      {
        "beat": 2,
        "duration": 0.4166666567325592,
        "pitch": 30,
        "velocity": 81
      },
      {
        "beat": 2.5,
        "duration": 0.24791666865348816,
        "pitch": 30,
        "velocity": 56
      },
      {
        "beat": 3,
        "duration": 0.6479166746139526,
        "pitch": 26,
        "velocity": 95
      },
      {
        "beat": 3,
        "duration": 0.34375,
        "pitch": 30,
        "velocity": 82
      },
      {
        "beat": 3.5,
        "duration": 0.3083333373069763,
        "pitch": 30,
        "velocity": 48
      }
    ],
    "crc32": 2450175810,
    "midiSize": 147,
    "midiSha1": "ff885d0dbc7959bb381733b2bf2dd752768024a9"
  },
  {
    "code": "Pop_Chapman_5",
    "kind": "drum",
    "family": "Drum",
    "modelType": "dmachine_model",
    "subtype": "proller",
    "bpm": 85,
    "beat": "4/4",
    "bnum": 44,
    "noteCount": 20,
    "midi": "pattern_midis/Pop_Chapman_5.mid",
    "notes": [
      {
        "beat": 0,
        "duration": 0.762499988079071,
        "pitch": 24,
        "velocity": 92
      },
      {
        "beat": 0,
        "duration": 1.125,
        "pitch": 41,
        "velocity": 64
      },
      {
        "beat": 0.25,
        "duration": 0.18125000596046448,
        "pitch": 30,
        "velocity": 50
      },
      {
        "beat": 0.5,
        "duration": 0.18125000596046448,
        "pitch": 30,
        "velocity": 50
      },
      {
        "beat": 0.75,
        "duration": 0.15208333730697632,
        "pitch": 30,
        "velocity": 43
      },
      {
        "beat": 1,
        "duration": 0.6979166865348816,
        "pitch": 26,
        "velocity": 98
      },
      {
        "beat": 1,
        "duration": 0.21666666865348816,
        "pitch": 30,
        "velocity": 78
      },
      {
        "beat": 1.25,
        "duration": 0.18125000596046448,
        "pitch": 30,
        "velocity": 50
      },
      {
        "beat": 1.5,
        "duration": 0.23333333432674408,
        "pitch": 30,
        "velocity": 43
      },
      {
        "beat": 1.75,
        "duration": 0.18125000596046448,
        "pitch": 30,
        "velocity": 67
      },
      {
        "beat": 2,
        "duration": 0.675000011920929,
        "pitch": 24,
        "velocity": 95
      },
      {
        "beat": 2,
        "duration": 0.21666666865348816,
        "pitch": 30,
        "velocity": 51
      },
      {
        "beat": 2.25,
        "duration": 0.18125000596046448,
        "pitch": 30,
        "velocity": 66
      },
      {
        "beat": 2.5,
        "duration": 0.23333333432674408,
        "pitch": 30,
        "velocity": 43
      },
      {
        "beat": 2.75,
        "duration": 0.18125000596046448,
        "pitch": 30,
        "velocity": 50
      },
      {
        "beat": 3,
        "duration": 0.6479166746139526,
        "pitch": 26,
        "velocity": 95
      },
      {
        "beat": 3,
        "duration": 0.1979166716337204,
        "pitch": 30,
        "velocity": 71
      },
      {
        "beat": 3.25,
        "duration": 0.23333333432674408,
        "pitch": 30,
        "velocity": 43
      },
      {
        "beat": 3.5,
        "duration": 0.21458333730697632,
        "pitch": 30,
        "velocity": 62
      },
      {
        "beat": 3.75,
        "duration": 0.19583334028720856,
        "pitch": 30,
        "velocity": 39
      }
    ],
    "crc32": 2722968721,
    "midiSize": 208,
    "midiSha1": "2515d01eae2eff7a8840580cb96c9a31c88793c3"
  },
  {
    "code": "Pop_Chapman_6",
    "kind": "drum",
    "family": "Drum",
    "modelType": "dmachine_model",
    "subtype": "proller",
    "bpm": 115,
    "beat": "4/4",
    "bnum": 43,
    "noteCount": 8,
    "midi": "pattern_midis/Pop_Chapman_6.mid",
    "notes": [
      {
        "beat": 0,
        "duration": 0.837499976158142,
        "pitch": 24,
        "velocity": 100
      },
      {
        "beat": 0,
        "duration": 0.25,
        "pitch": 32,
        "velocity": 1
      },
      {
        "beat": 0,
        "duration": 0.912500023841858,
        "pitch": 41,
        "velocity": 61
      },
      {
        "beat": 1,
        "duration": 0.4583333432674408,
        "pitch": 30,
        "velocity": 46
      },
      {
        "beat": 2,
        "duration": 0.5333333611488342,
        "pitch": 26,
        "velocity": 99
      },
      {
        "beat": 2,
        "duration": 0.5104166865348816,
        "pitch": 30,
        "velocity": 58
      },
      {
        "beat": 3,
        "duration": 0.8729166388511658,
        "pitch": 24,
        "velocity": 106
      },
      {
        "beat": 3,
        "duration": 0.40416666865348816,
        "pitch": 30,
        "velocity": 41
      }
    ],
    "crc32": 3015041211,
    "midiSize": 121,
    "midiSha1": "8466fcd5c44eedbded9d38452a3f30fb9c916c18"
  },
  {
    "code": "Pop_Chapman_7",
    "kind": "drum",
    "family": "Drum",
    "modelType": "dmachine_model",
    "subtype": "proller",
    "bpm": 86,
    "beat": "4/4",
    "bnum": 86,
    "noteCount": 4,
    "midi": "pattern_midis/Pop_Chapman_7.mid",
    "notes": [
      {
        "beat": 0,
        "duration": 1.5,
        "pitch": 24,
        "velocity": 103
      },
      {
        "beat": 1.5,
        "duration": 1,
        "pitch": 29,
        "velocity": 96
      },
      {
        "beat": 2.5,
        "duration": 0.5,
        "pitch": 24,
        "velocity": 98
      },
      {
        "beat": 3,
        "duration": 1.5,
        "pitch": 24,
        "velocity": 110
      }
    ],
    "crc32": 3807127600,
    "midiSize": 92,
    "midiSha1": "caedc56a842771684f3eb99a6aba5e529d0b746e"
  },
  {
    "code": "Pop_Chapman_8",
    "kind": "drum",
    "family": "Drum",
    "modelType": "dmachine_model",
    "subtype": "proller",
    "bpm": 115,
    "beat": "4/4",
    "bnum": 43,
    "noteCount": 9,
    "midi": "pattern_midis/Pop_Chapman_8.mid",
    "notes": [
      {
        "beat": 0,
        "duration": 0.837499976158142,
        "pitch": 24,
        "velocity": 100
      },
      {
        "beat": 0,
        "duration": 0.25,
        "pitch": 32,
        "velocity": 1
      },
      {
        "beat": 0,
        "duration": 0.912500023841858,
        "pitch": 41,
        "velocity": 61
      },
      {
        "beat": 1,
        "duration": 0.5333333611488342,
        "pitch": 26,
        "velocity": 52
      },
      {
        "beat": 1,
        "duration": 0.4583333432674408,
        "pitch": 30,
        "velocity": 50
      },
      {
        "beat": 2,
        "duration": 0.5333333611488342,
        "pitch": 26,
        "velocity": 99
      },
      {
        "beat": 2,
        "duration": 0.5104166865348816,
        "pitch": 30,
        "velocity": 62
      },
      {
        "beat": 3,
        "duration": 0.8729166388511658,
        "pitch": 24,
        "velocity": 106
      },
      {
        "beat": 3,
        "duration": 0.40416666865348816,
        "pitch": 30,
        "velocity": 45
      }
    ],
    "crc32": 788669551,
    "midiSize": 127,
    "midiSha1": "c210eed0b3bd60f135b3cd541b57cb936d7e759b"
  },
  {
    "code": "Pop_Chapman_9",
    "kind": "drum",
    "family": "Drum",
    "modelType": "dmachine_model",
    "subtype": "proller",
    "bpm": 86,
    "beat": "4/4",
    "bnum": 86,
    "noteCount": 11,
    "midi": "pattern_midis/Pop_Chapman_9.mid",
    "notes": [
      {
        "beat": 0,
        "duration": 1.5,
        "pitch": 24,
        "velocity": 103
      },
      {
        "beat": 0,
        "duration": 1.1604167222976685,
        "pitch": 45,
        "velocity": 52
      },
      {
        "beat": 0.5,
        "duration": 0.375,
        "pitch": 30,
        "velocity": 51
      },
      {
        "beat": 1,
        "duration": 0.375,
        "pitch": 30,
        "velocity": 31
      },
      {
        "beat": 1.5,
        "duration": 1,
        "pitch": 26,
        "velocity": 96
      },
      {
        "beat": 1.5,
        "duration": 0.375,
        "pitch": 30,
        "velocity": 51
      },
      {
        "beat": 2,
        "duration": 0.375,
        "pitch": 30,
        "velocity": 31
      },
      {
        "beat": 2.5,
        "duration": 0.375,
        "pitch": 30,
        "velocity": 51
      },
      {
        "beat": 3,
        "duration": 1.5,
        "pitch": 24,
        "velocity": 110
      },
      {
        "beat": 3,
        "duration": 0.375,
        "pitch": 30,
        "velocity": 31
      },
      {
        "beat": 3.5,
        "duration": 0.375,
        "pitch": 30,
        "velocity": 51
      }
    ],
    "crc32": 2566794192,
    "midiSize": 146,
    "midiSha1": "51e213e77d3b927d0ae07d398e8ab8147a499b35"
  }
]