{
  "schema": "liberlive_ota_sound_c2_decoded_patterns.v1",
  "source": "rhythm_midi_patterns/ota_sound_c2/OTA-SOUND_C2/sub_files/files.json",
  "count": 354,
  "notes": "Decoded from OTA-SOUND_C2/sub_files/files.json. The .bin files are compiled payloads; files.json carries their clear note-event model with beat/duration/pitch/velocity.",
  "patterns": [
    {
      "code": "Cajon_ChapMen_1",
      "type": "dmachine_model",
      "subtype": "proller",
      "family": "Drum",
      "version": "0.0.0.1",
      "sizePagesOrUnits": 19,
      "crc32": 1418615017,
      "bpm": 85,
      "bnum": 44,
      "noteCount": 30,
      "notes": [
        {
          "beat": 0,
          "duration": 0.20000000298023224,
          "pitch": 25,
          "velocity": 123
        },
        {
          "beat": 0,
          "duration": 0.375,
          "pitch": 27,
          "velocity": 85
        },
        {
          "beat": 0,
          "duration": 0.5,
          "pitch": 35,
          "velocity": 100
        },
        {
          "beat": 0,
          "duration": 0.20000000298023224,
          "pitch": 41,
          "velocity": 68
        },
        {
          "beat": 0.300000011920929,
          "duration": 0.2645833194255829,
          "pitch": 44,
          "velocity": 55
        },
        {
          "beat": 0.5,
          "duration": 0.34583333134651184,
          "pitch": 38,
          "velocity": 54
        },
        {
          "beat": 0.5,
          "duration": 0.14791665971279144,
          "pitch": 43,
          "velocity": 78
        },
        {
          "beat": 0.75,
          "duration": 0.5,
          "pitch": 35,
          "velocity": 50
        },
        {
          "beat": 0.800000011920929,
          "duration": 0.25,
          "pitch": 44,
          "velocity": 49
        },
        {
          "beat": 1,
          "duration": 0.5083333253860474,
          "pitch": 36,
          "velocity": 101
        },
        {
          "beat": 1,
          "duration": 0.2395833283662796,
          "pitch": 41,
          "velocity": 65
        },
        {
          "beat": 1.2999999523162842,
          "duration": 0.268750011920929,
          "pitch": 44,
          "velocity": 57
        },
        {
          "beat": 1.5,
          "duration": 0.606249988079071,
          "pitch": 35,
          "velocity": 98
        },
        {
          "beat": 1.5,
          "duration": 2.535416603088379,
          "pitch": 38,
          "velocity": 56
        },
        {
          "beat": 1.5,
          "duration": 0.12083332985639572,
          "pitch": 43,
          "velocity": 24
        },
        {
          "beat": 1.7999999523162842,
          "duration": 0.22291666269302368,
          "pitch": 44,
          "velocity": 26
        },
        {
          "beat": 2,
          "duration": 0.18958333134651184,
          "pitch": 41,
          "velocity": 57
        },
        {
          "beat": 2.25,
          "duration": 0.5,
          "pitch": 36,
          "velocity": 50
        },
        {
          "beat": 2.299999952316284,
          "duration": 0.25833332538604736,
          "pitch": 44,
          "velocity": 53
        },
        {
          "beat": 2.5,
          "duration": 0.3499999940395355,
          "pitch": 27,
          "velocity": 85
        },
        {
          "beat": 2.5,
          "duration": 0.9708333611488342,
          "pitch": 35,
          "velocity": 96
        },
        {
          "beat": 2.5,
          "duration": 0.1979166716337204,
          "pitch": 43,
          "velocity": 53
        },
        {
          "beat": 2.799999952316284,
          "duration": 0.2291666716337204,
          "pitch": 44,
          "velocity": 27
        },
        {
          "beat": 3,
          "duration": 1.1416666507720947,
          "pitch": 25,
          "velocity": 120
        },
        {
          "beat": 3,
          "duration": 0.5541666746139526,
          "pitch": 36,
          "velocity": 101
        },
        {
          "beat": 3,
          "duration": 0.20000000298023224,
          "pitch": 41,
          "velocity": 68
        },
        {
          "beat": 3.299999952316284,
          "duration": 0.262499988079071,
          "pitch": 44,
          "velocity": 41
        },
        {
          "beat": 3.5,
          "duration": 0.5,
          "pitch": 35,
          "velocity": 50
        },
        {
          "beat": 3.5,
          "duration": 0.16249999403953552,
          "pitch": 43,
          "velocity": 41
        },
        {
          "beat": 3.799999952316284,
          "duration": 0.1666666716337204,
          "pitch": 44,
          "velocity": 17
        }
      ],
      "decodedMidiPath": "rhythm_midi_patterns/decoded_pattern_midis/Cajon_ChapMen_1.mid"
    },
    {
      "code": "Cajon_ChapMen_10",
      "type": "dmachine_model",
      "subtype": "proller",
      "family": "Drum",
      "version": "0.0.0.1",
      "sizePagesOrUnits": 12,
      "crc32": 3833663487,
      "bpm": 110,
      "bnum": 44,
      "noteCount": 13,
      "notes": [
        {
          "beat": 0,
          "duration": 0.4479166567325592,
          "pitch": 35,
          "velocity": 71
        },
        {
          "beat": 0.0020833334419876337,
          "duration": 0.4625000059604645,
          "pitch": 41,
          "velocity": 55
        },
        {
          "beat": 0.7520833611488342,
          "duration": 0.1458333283662796,
          "pitch": 41,
          "velocity": 35
        },
        {
          "beat": 1,
          "duration": 0.3499999940395355,
          "pitch": 36,
          "velocity": 72
        },
        {
          "beat": 1.0020833015441895,
          "duration": 0.4625000059604645,
          "pitch": 41,
          "velocity": 55
        },
        {
          "beat": 1.7520833015441895,
          "duration": 0.1458333283662796,
          "pitch": 41,
          "velocity": 35
        },
        {
          "beat": 2,
          "duration": 0.4479166567325592,
          "pitch": 35,
          "velocity": 71
        },
        {
          "beat": 2.00208330154419,
          "duration": 0.4625000059604645,
          "pitch": 41,
          "velocity": 55
        },
        {
          "beat": 2.75208330154419,
          "duration": 0.1458333283662796,
          "pitch": 41,
          "velocity": 35
        },
        {
          "beat": 3,
          "duration": 0.4625000059604645,
          "pitch": 41,
          "velocity": 55
        },
        {
          "beat": 3.00208330154419,
          "duration": 0.3499999940395355,
          "pitch": 36,
          "velocity": 72
        },
        {
          "beat": 3.00208330154419,
          "duration": 0.12916666269302368,
          "pitch": 38,
          "velocity": 55
        },
        {
          "beat": 3.75208330154419,
          "duration": 0.1458333283662796,
          "pitch": 41,
          "velocity": 35
        }
      ],
      "decodedMidiPath": "rhythm_midi_patterns/decoded_pattern_midis/Cajon_ChapMen_10.mid"
    },
    {
      "code": "Cajon_ChapMen_11",
      "type": "dmachine_model",
      "subtype": "proller",
      "family": "Drum",
      "version": "0.0.0.1",
      "sizePagesOrUnits": 13,
      "crc32": 3936417837,
      "bpm": 110,
      "bnum": 44,
      "noteCount": 19,
      "notes": [
        {
          "beat": 0,
          "duration": 0.4479166567325592,
          "pitch": 35,
          "velocity": 71
        },
        {
          "beat": 0,
          "duration": 0.1875,
          "pitch": 42,
          "velocity": 51
        },
        {
          "beat": 0.75,
          "duration": 0.1041666641831398,
          "pitch": 44,
          "velocity": 20
        },
        {
          "beat": 1,
          "duration": 0.3499999940395355,
          "pitch": 36,
          "velocity": 82
        },
        {
          "beat": 1,
          "duration": 0.1875,
          "pitch": 41,
          "velocity": 51
        },
        {
          "beat": 1.75,
          "duration": 0.1041666641831398,
          "pitch": 44,
          "velocity": 20
        },
        {
          "beat": 2,
          "duration": 0.4479166567325592,
          "pitch": 35,
          "velocity": 71
        },
        {
          "beat": 2,
          "duration": 0.1875,
          "pitch": 42,
          "velocity": 51
        },
        {
          "beat": 2.75,
          "duration": 0.1041666641831398,
          "pitch": 44,
          "velocity": 20
        },
        {
          "beat": 3,
          "duration": 0.1458333283662796,
          "pitch": 27,
          "velocity": 61
        },
        {
          "beat": 3,
          "duration": 0.19583334028720856,
          "pitch": 32,
          "velocity": 30
        },
        {
          "beat": 3,
          "duration": 0.125,
          "pitch": 36,
          "velocity": 82
        },
        {
          "beat": 3,
          "duration": 0.1875,
          "pitch": 41,
          "velocity": 51
        },
        {
          "beat": 3.00208330154419,
          "duration": 0.12916666269302368,
          "pitch": 29,
          "velocity": 55
        },
        {
          "beat": 3.25,
          "duration": 0.2291666716337204,
          "pitch": 33,
          "velocity": 50
        },
        {
          "beat": 3.75,
          "duration": 0.1458333283662796,
          "pitch": 26,
          "velocity": 56
        },
        {
          "beat": 3.75,
          "duration": 0.15625,
          "pitch": 33,
          "velocity": 43
        },
        {
          "beat": 3.75,
          "duration": 0.15000000596046448,
          "pitch": 35,
          "velocity": 35
        },
        {
          "beat": 3.75,
          "duration": 0.1041666641831398,
          "pitch": 44,
          "velocity": 20
        }
      ],
      "decodedMidiPath": "rhythm_midi_patterns/decoded_pattern_midis/Cajon_ChapMen_11.mid"
    },
    {
      "code": "Cajon_ChapMen_12",
      "type": "dmachine_model",
      "subtype": "proller",
      "family": "Drum",
      "version": "0.0.0.1",
      "sizePagesOrUnits": 15,
      "crc32": 2324570750,
      "bpm": 108,
      "bnum": 44,
      "noteCount": 17,
      "notes": [
        {
          "beat": 0,
          "duration": 0.20000000298023224,
          "pitch": 25,
          "velocity": 123
        },
        {
          "beat": 0,
          "duration": 0.375,
          "pitch": 27,
          "velocity": 85
        },
        {
          "beat": 0,
          "duration": 0.5,
          "pitch": 35,
          "velocity": 100
        },
        {
          "beat": 0,
          "duration": 0.34583333134651184,
          "pitch": 38,
          "velocity": 35
        },
        {
          "beat": 0.5,
          "duration": 0.25,
          "pitch": 35,
          "velocity": 15
        },
        {
          "beat": 0.75,
          "duration": 0.25,
          "pitch": 36,
          "velocity": 101
        },
        {
          "beat": 1,
          "duration": 0.25,
          "pitch": 35,
          "velocity": 1
        },
        {
          "beat": 1.5,
          "duration": 0.5,
          "pitch": 35,
          "velocity": 98
        },
        {
          "beat": 1.5,
          "duration": 2.3333332538604736,
          "pitch": 38,
          "velocity": 37
        },
        {
          "beat": 2,
          "duration": 0.25,
          "pitch": 35,
          "velocity": 1
        },
        {
          "beat": 2.25,
          "duration": 0.25,
          "pitch": 36,
          "velocity": 50
        },
        {
          "beat": 2.5,
          "duration": 0.3499999940395355,
          "pitch": 27,
          "velocity": 39
        },
        {
          "beat": 2.5,
          "duration": 0.5,
          "pitch": 35,
          "velocity": 96
        },
        {
          "beat": 2.5,
          "duration": 0.25,
          "pitch": 36,
          "velocity": 30
        },
        {
          "beat": 3,
          "duration": 1.1416666507720947,
          "pitch": 25,
          "velocity": 60
        },
        {
          "beat": 3,
          "duration": 0.5,
          "pitch": 36,
          "velocity": 101
        },
        {
          "beat": 3.5,
          "duration": 0.5,
          "pitch": 35,
          "velocity": 50
        }
      ],
      "decodedMidiPath": "rhythm_midi_patterns/decoded_pattern_midis/Cajon_ChapMen_12.mid"
    },
    {
      "code": "Cajon_ChapMen_13",
      "type": "dmachine_model",
      "subtype": "proller",
      "family": "Drum",
      "version": "0.0.0.1",
      "sizePagesOrUnits": 17,
      "crc32": 3194370127,
      "bpm": 108,
      "bnum": 44,
      "noteCount": 34,
      "notes": [
        {
          "beat": 0,
          "duration": 1,
          "pitch": 25,
          "velocity": 89
        },
        {
          "beat": 0,
          "duration": 0.5,
          "pitch": 27,
          "velocity": 90
        },
        {
          "beat": 0,
          "duration": 1.5,
          "pitch": 29,
          "velocity": 32
        },
        {
          "beat": 0,
          "duration": 0.46041667461395264,
          "pitch": 35,
          "velocity": 127
        },
        {
          "beat": 0,
          "duration": 0.46875,
          "pitch": 38,
          "velocity": 65
        },
        {
          "beat": 0,
          "duration": 0.25,
          "pitch": 42,
          "velocity": 12
        },
        {
          "beat": 0.25,
          "duration": 0.2645833194255829,
          "pitch": 41,
          "velocity": 23
        },
        {
          "beat": 0.5,
          "duration": 0.20000000298023224,
          "pitch": 36,
          "velocity": 1
        },
        {
          "beat": 0.5,
          "duration": 0.2708333432674408,
          "pitch": 44,
          "velocity": 21
        },
        {
          "beat": 0.75,
          "duration": 0.1354166716337204,
          "pitch": 35,
          "velocity": 7
        },
        {
          "beat": 0.75,
          "duration": 0.24791666865348816,
          "pitch": 43,
          "velocity": 16
        },
        {
          "beat": 1,
          "duration": 0.46041667461395264,
          "pitch": 28,
          "velocity": 48
        },
        {
          "beat": 1,
          "duration": 0.18958333134651184,
          "pitch": 36,
          "velocity": 90
        },
        {
          "beat": 1,
          "duration": 0.25,
          "pitch": 42,
          "velocity": 12
        },
        {
          "beat": 1.25,
          "duration": 0.2645833194255829,
          "pitch": 41,
          "velocity": 1
        },
        {
          "beat": 1.5,
          "duration": 0.18958333134651184,
          "pitch": 35,
          "velocity": 90
        },
        {
          "beat": 1.5,
          "duration": 0.2708333432674408,
          "pitch": 44,
          "velocity": 5
        },
        {
          "beat": 1.75,
          "duration": 0.24791666865348816,
          "pitch": 43,
          "velocity": 16
        },
        {
          "beat": 2,
          "duration": 0.46875,
          "pitch": 38,
          "velocity": 65
        },
        {
          "beat": 2,
          "duration": 0.25,
          "pitch": 42,
          "velocity": 12
        },
        {
          "beat": 2.25,
          "duration": 0.18958333134651184,
          "pitch": 36,
          "velocity": 7
        },
        {
          "beat": 2.25,
          "duration": 0.2645833194255829,
          "pitch": 41,
          "velocity": 23
        },
        {
          "beat": 2.5,
          "duration": 0.5,
          "pitch": 25,
          "velocity": 15
        },
        {
          "beat": 2.5,
          "duration": 0.1875,
          "pitch": 35,
          "velocity": 91
        },
        {
          "beat": 2.5,
          "duration": 0.2708333432674408,
          "pitch": 44,
          "velocity": 21
        },
        {
          "beat": 2.75,
          "duration": 0.18958333134651184,
          "pitch": 35,
          "velocity": 1
        },
        {
          "beat": 2.75,
          "duration": 0.24791666865348816,
          "pitch": 43,
          "velocity": 16
        },
        {
          "beat": 3,
          "duration": 1.5,
          "pitch": 29,
          "velocity": 32
        },
        {
          "beat": 3,
          "duration": 0.1875,
          "pitch": 36,
          "velocity": 90
        },
        {
          "beat": 3,
          "duration": 0.25,
          "pitch": 42,
          "velocity": 12
        },
        {
          "beat": 3.25,
          "duration": 0.2645833194255829,
          "pitch": 41,
          "velocity": 1
        },
        {
          "beat": 3.5,
          "duration": 0.18958333134651184,
          "pitch": 35,
          "velocity": 7
        },
        {
          "beat": 3.5,
          "duration": 0.2708333432674408,
          "pitch": 44,
          "velocity": 5
        },
        {
          "beat": 3.75,
          "duration": 0.24791666865348816,
          "pitch": 43,
          "velocity": 16
        }
      ],
      "decodedMidiPath": "rhythm_midi_patterns/decoded_pattern_midis/Cajon_ChapMen_13.mid"
    },
    {
      "code": "Cajon_ChapMen_14",
      "type": "dmachine_model",
      "subtype": "proller",
      "family": "Drum",
      "version": "0.0.0.1",
      "sizePagesOrUnits": 13,
      "crc32": 2535837427,
      "bpm": 70,
      "bnum": 44,
      "noteCount": 7,
      "notes": [
        {
          "beat": 0,
          "duration": 0.5,
          "pitch": 35,
          "velocity": 100
        },
        {
          "beat": 0.5,
          "duration": 0.5,
          "pitch": 35,
          "velocity": 1
        },
        {
          "beat": 1,
          "duration": 0.25,
          "pitch": 36,
          "velocity": 101
        },
        {
          "beat": 2.25,
          "duration": 0.25,
          "pitch": 35,
          "velocity": 50
        },
        {
          "beat": 2.5,
          "duration": 0.5,
          "pitch": 35,
          "velocity": 96
        },
        {
          "beat": 3,
          "duration": 0.5,
          "pitch": 36,
          "velocity": 101
        },
        {
          "beat": 3.5,
          "duration": 0.5,
          "pitch": 35,
          "velocity": 1
        }
      ],
      "decodedMidiPath": "rhythm_midi_patterns/decoded_pattern_midis/Cajon_ChapMen_14.mid"
    },
    {
      "code": "Cajon_ChapMen_15",
      "type": "dmachine_model",
      "subtype": "proller",
      "family": "Drum",
      "version": "0.0.0.1",
      "sizePagesOrUnits": 19,
      "crc32": 892234215,
      "bpm": 70,
      "bnum": 44,
      "noteCount": 29,
      "notes": [
        {
          "beat": 0,
          "duration": 0.20000000298023224,
          "pitch": 25,
          "velocity": 123
        },
        {
          "beat": 0,
          "duration": 0.375,
          "pitch": 27,
          "velocity": 71
        },
        {
          "beat": 0,
          "duration": 0.5,
          "pitch": 35,
          "velocity": 100
        },
        {
          "beat": 0,
          "duration": 0.34583333134651184,
          "pitch": 38,
          "velocity": 54
        },
        {
          "beat": 0,
          "duration": 0.20000000298023224,
          "pitch": 41,
          "velocity": 40
        },
        {
          "beat": 0.27916666865348816,
          "duration": 0.2645833194255829,
          "pitch": 44,
          "velocity": 11
        },
        {
          "beat": 0.5,
          "duration": 0.14791665971279144,
          "pitch": 43,
          "velocity": 20
        },
        {
          "beat": 0.75,
          "duration": 0.25,
          "pitch": 35,
          "velocity": 1
        },
        {
          "beat": 0.7791666388511658,
          "duration": 0.25,
          "pitch": 44,
          "velocity": 5
        },
        {
          "beat": 1,
          "duration": 0.5083333253860474,
          "pitch": 36,
          "velocity": 101
        },
        {
          "beat": 1,
          "duration": 0.2395833283662796,
          "pitch": 41,
          "velocity": 37
        },
        {
          "beat": 1.2791666984558105,
          "duration": 0.268750011920929,
          "pitch": 44,
          "velocity": 13
        },
        {
          "beat": 1.5,
          "duration": 0.12083332985639572,
          "pitch": 43,
          "velocity": 1
        },
        {
          "beat": 1.75,
          "duration": 0.25,
          "pitch": 36,
          "velocity": 50
        },
        {
          "beat": 1.7791666984558105,
          "duration": 0.22291666269302368,
          "pitch": 44,
          "velocity": 1
        },
        {
          "beat": 2,
          "duration": 0.18958333134651184,
          "pitch": 41,
          "velocity": 29
        },
        {
          "beat": 2.25,
          "duration": 0.25,
          "pitch": 36,
          "velocity": 79
        },
        {
          "beat": 2.27916669845581,
          "duration": 0.25833332538604736,
          "pitch": 44,
          "velocity": 9
        },
        {
          "beat": 2.5,
          "duration": 0.3499999940395355,
          "pitch": 27,
          "velocity": 71
        },
        {
          "beat": 2.5,
          "duration": 0.5,
          "pitch": 35,
          "velocity": 96
        },
        {
          "beat": 2.5,
          "duration": 0.1979166716337204,
          "pitch": 43,
          "velocity": 13
        },
        {
          "beat": 2.77916669845581,
          "duration": 0.2291666716337204,
          "pitch": 44,
          "velocity": 1
        },
        {
          "beat": 3,
          "duration": 1.1416666507720947,
          "pitch": 25,
          "velocity": 50
        },
        {
          "beat": 3,
          "duration": 0.5541666746139526,
          "pitch": 36,
          "velocity": 101
        },
        {
          "beat": 3,
          "duration": 0.20000000298023224,
          "pitch": 41,
          "velocity": 40
        },
        {
          "beat": 3.27916669845581,
          "duration": 0.262499988079071,
          "pitch": 44,
          "velocity": 15
        },
        {
          "beat": 3.5,
          "duration": 0.5,
          "pitch": 35,
          "velocity": 50
        },
        {
          "beat": 3.5,
          "duration": 0.16249999403953552,
          "pitch": 43,
          "velocity": 1
        },
        {
          "beat": 3.77916669845581,
          "duration": 0.1666666716337204,
          "pitch": 44,
          "velocity": 7
        }
      ],
      "decodedMidiPath": "rhythm_midi_patterns/decoded_pattern_midis/Cajon_ChapMen_15.mid"
    },
    {
      "code": "Cajon_ChapMen_2",
      "type": "dmachine_model",
      "subtype": "proller",
      "family": "Drum",
      "version": "0.0.0.0",
      "sizePagesOrUnits": 18,
      "crc32": 1110910360,
      "bpm": 96,
      "bnum": 44,
      "noteCount": 36,
      "notes": [
        {
          "beat": 0,
          "duration": 1,
          "pitch": 25,
          "velocity": 89
        },
        {
          "beat": 0,
          "duration": 0.46041667461395264,
          "pitch": 35,
          "velocity": 127
        },
        {
          "beat": 0,
          "duration": 0.46875,
          "pitch": 38,
          "velocity": 89
        },
        {
          "beat": 0,
          "duration": 0.25,
          "pitch": 42,
          "velocity": 20
        },
        {
          "beat": 0.25,
          "duration": 0.25,
          "pitch": 36,
          "velocity": 7
        },
        {
          "beat": 0.25,
          "duration": 0.2645833194255829,
          "pitch": 41,
          "velocity": 23
        },
        {
          "beat": 0.5,
          "duration": 0.20000000298023224,
          "pitch": 35,
          "velocity": 16
        },
        {
          "beat": 0.5,
          "duration": 0.2708333432674408,
          "pitch": 44,
          "velocity": 29
        },
        {
          "beat": 0.75,
          "duration": 0.1354166716337204,
          "pitch": 35,
          "velocity": 33
        },
        {
          "beat": 0.75,
          "duration": 0.24791666865348816,
          "pitch": 43,
          "velocity": 24
        },
        {
          "beat": 1,
          "duration": 1.5,
          "pitch": 29,
          "velocity": 48
        },
        {
          "beat": 1,
          "duration": 0.18958333134651184,
          "pitch": 36,
          "velocity": 76
        },
        {
          "beat": 1,
          "duration": 0.25,
          "pitch": 42,
          "velocity": 20
        },
        {
          "beat": 1.25,
          "duration": 0.18958333134651184,
          "pitch": 36,
          "velocity": 1
        },
        {
          "beat": 1.25,
          "duration": 0.2645833194255829,
          "pitch": 41,
          "velocity": 1
        },
        {
          "beat": 1.5,
          "duration": 0.18958333134651184,
          "pitch": 35,
          "velocity": 16
        },
        {
          "beat": 1.5,
          "duration": 0.2708333432674408,
          "pitch": 44,
          "velocity": 13
        },
        {
          "beat": 1.75,
          "duration": 0.1875,
          "pitch": 35,
          "velocity": 64
        },
        {
          "beat": 1.75,
          "duration": 0.24791666865348816,
          "pitch": 43,
          "velocity": 24
        },
        {
          "beat": 2,
          "duration": 0.46875,
          "pitch": 38,
          "velocity": 89
        },
        {
          "beat": 2,
          "duration": 0.25,
          "pitch": 42,
          "velocity": 20
        },
        {
          "beat": 2.25,
          "duration": 0.18958333134651184,
          "pitch": 36,
          "velocity": 7
        },
        {
          "beat": 2.25,
          "duration": 0.2645833194255829,
          "pitch": 41,
          "velocity": 23
        },
        {
          "beat": 2.5,
          "duration": 0.5,
          "pitch": 25,
          "velocity": 15
        },
        {
          "beat": 2.5,
          "duration": 0.1875,
          "pitch": 35,
          "velocity": 34
        },
        {
          "beat": 2.5,
          "duration": 0.2708333432674408,
          "pitch": 44,
          "velocity": 29
        },
        {
          "beat": 2.75,
          "duration": 0.11249999701976776,
          "pitch": 35,
          "velocity": 78
        },
        {
          "beat": 2.75,
          "duration": 0.24791666865348816,
          "pitch": 43,
          "velocity": 24
        },
        {
          "beat": 3,
          "duration": 1.5,
          "pitch": 29,
          "velocity": 50
        },
        {
          "beat": 3,
          "duration": 0.1875,
          "pitch": 36,
          "velocity": 76
        },
        {
          "beat": 3,
          "duration": 0.25,
          "pitch": 42,
          "velocity": 20
        },
        {
          "beat": 3.25,
          "duration": 0.18958333134651184,
          "pitch": 36,
          "velocity": 7
        },
        {
          "beat": 3.25,
          "duration": 0.2645833194255829,
          "pitch": 41,
          "velocity": 1
        },
        {
          "beat": 3.5,
          "duration": 0.15625,
          "pitch": 35,
          "velocity": 57
        },
        {
          "beat": 3.5,
          "duration": 0.2708333432674408,
          "pitch": 44,
          "velocity": 13
        },
        {
          "beat": 3.75,
          "duration": 0.24791666865348816,
          "pitch": 43,
          "velocity": 24
        }
      ],
      "decodedMidiPath": "rhythm_midi_patterns/decoded_pattern_midis/Cajon_ChapMen_2.mid"
    },
    {
      "code": "Cajon_ChapMen_3",
      "type": "dmachine_model",
      "subtype": "proller",
      "family": "Drum",
      "version": "0.0.0.0",
      "sizePagesOrUnits": 14,
      "crc32": 2655597958,
      "bpm": 85,
      "bnum": 44,
      "noteCount": 14,
      "notes": [
        {
          "beat": 0,
          "duration": 0.20000000298023224,
          "pitch": 25,
          "velocity": 123
        },
        {
          "beat": 0,
          "duration": 0.375,
          "pitch": 27,
          "velocity": 85
        },
        {
          "beat": 0,
          "duration": 0.20000000298023224,
          "pitch": 29,
          "velocity": 58
        },
        {
          "beat": 0,
          "duration": 0.5,
          "pitch": 35,
          "velocity": 100
        },
        {
          "beat": 0,
          "duration": 0.449999988079071,
          "pitch": 41,
          "velocity": 68
        },
        {
          "beat": 1,
          "duration": 0.3333333432674408,
          "pitch": 43,
          "velocity": 78
        },
        {
          "beat": 1,
          "duration": 0.5083333253860474,
          "pitch": 36,
          "velocity": 101
        },
        {
          "beat": 2,
          "duration": 0.3499999940395355,
          "pitch": 27,
          "velocity": 85
        },
        {
          "beat": 2,
          "duration": 0.9708333611488342,
          "pitch": 35,
          "velocity": 96
        },
        {
          "beat": 2,
          "duration": 2.035416603088379,
          "pitch": 38,
          "velocity": 23
        },
        {
          "beat": 2,
          "duration": 0.5395833253860474,
          "pitch": 41,
          "velocity": 65
        },
        {
          "beat": 3,
          "duration": 1.1416666507720947,
          "pitch": 25,
          "velocity": 120
        },
        {
          "beat": 3,
          "duration": 0.5541666746139526,
          "pitch": 36,
          "velocity": 101
        },
        {
          "beat": 3,
          "duration": 0.2708333432674408,
          "pitch": 43,
          "velocity": 24
        }
      ],
      "decodedMidiPath": "rhythm_midi_patterns/decoded_pattern_midis/Cajon_ChapMen_3.mid"
    },
    {
      "code": "Cajon_ChapMen_4",
      "type": "dmachine_model",
      "subtype": "proller",
      "family": "Drum",
      "version": "0.0.0.0",
      "sizePagesOrUnits": 16,
      "crc32": 3170352343,
      "bpm": 85,
      "bnum": 44,
      "noteCount": 20,
      "notes": [
        {
          "beat": 0,
          "duration": 0.20000000298023224,
          "pitch": 25,
          "velocity": 123
        },
        {
          "beat": 0,
          "duration": 0.375,
          "pitch": 27,
          "velocity": 85
        },
        {
          "beat": 0,
          "duration": 0.20000000298023224,
          "pitch": 29,
          "velocity": 58
        },
        {
          "beat": 0,
          "duration": 0.5,
          "pitch": 35,
          "velocity": 100
        },
        {
          "beat": 0,
          "duration": 0.449999988079071,
          "pitch": 41,
          "velocity": 68
        },
        {
          "beat": 0.4749999940395355,
          "duration": 0.5958333611488342,
          "pitch": 44,
          "velocity": 55
        },
        {
          "beat": 0.5,
          "duration": 0.34583333134651184,
          "pitch": 38,
          "velocity": 54
        },
        {
          "beat": 1,
          "duration": 0.3333333432674408,
          "pitch": 43,
          "velocity": 78
        },
        {
          "beat": 1,
          "duration": 0.5083333253860474,
          "pitch": 36,
          "velocity": 101
        },
        {
          "beat": 1.5,
          "duration": 0.5625,
          "pitch": 44,
          "velocity": 49
        },
        {
          "beat": 2,
          "duration": 0.3499999940395355,
          "pitch": 27,
          "velocity": 85
        },
        {
          "beat": 2,
          "duration": 0.9708333611488342,
          "pitch": 35,
          "velocity": 96
        },
        {
          "beat": 2,
          "duration": 2.035416603088379,
          "pitch": 38,
          "velocity": 56
        },
        {
          "beat": 2,
          "duration": 0.5395833253860474,
          "pitch": 41,
          "velocity": 65
        },
        {
          "beat": 2.5,
          "duration": 0.6041666865348816,
          "pitch": 44,
          "velocity": 57
        },
        {
          "beat": 3,
          "duration": 1.1416666507720947,
          "pitch": 25,
          "velocity": 120
        },
        {
          "beat": 3,
          "duration": 0.5541666746139526,
          "pitch": 36,
          "velocity": 101
        },
        {
          "beat": 3,
          "duration": 0.2708333432674408,
          "pitch": 43,
          "velocity": 24
        },
        {
          "beat": 3.5,
          "duration": 0.5,
          "pitch": 35,
          "velocity": 25
        },
        {
          "beat": 3.5,
          "duration": 0.5,
          "pitch": 44,
          "velocity": 26
        }
      ],
      "decodedMidiPath": "rhythm_midi_patterns/decoded_pattern_midis/Cajon_ChapMen_4.mid"
    },
    {
      "code": "Cajon_ChapMen_5",
      "type": "dmachine_model",
      "subtype": "proller",
      "family": "Drum",
      "version": "0.0.0.0",
      "sizePagesOrUnits": 18,
      "crc32": 1037102087,
      "bpm": 85,
      "bnum": 44,
      "noteCount": 28,
      "notes": [
        {
          "beat": 0,
          "duration": 0.20000000298023224,
          "pitch": 25,
          "velocity": 123
        },
        {
          "beat": 0,
          "duration": 0.375,
          "pitch": 27,
          "velocity": 85
        },
        {
          "beat": 0,
          "duration": 0.20000000298023224,
          "pitch": 29,
          "velocity": 61
        },
        {
          "beat": 0,
          "duration": 0.5,
          "pitch": 35,
          "velocity": 100
        },
        {
          "beat": 0,
          "duration": 0.20000000298023224,
          "pitch": 41,
          "velocity": 62
        },
        {
          "beat": 0.300000011920929,
          "duration": 0.2645833194255829,
          "pitch": 44,
          "velocity": 49
        },
        {
          "beat": 0.5,
          "duration": 0.34583333134651184,
          "pitch": 38,
          "velocity": 54
        },
        {
          "beat": 0.5,
          "duration": 0.14791665971279144,
          "pitch": 43,
          "velocity": 72
        },
        {
          "beat": 0.800000011920929,
          "duration": 0.25,
          "pitch": 44,
          "velocity": 43
        },
        {
          "beat": 1,
          "duration": 0.5083333253860474,
          "pitch": 36,
          "velocity": 101
        },
        {
          "beat": 1,
          "duration": 0.2395833283662796,
          "pitch": 41,
          "velocity": 59
        },
        {
          "beat": 1.2999999523162842,
          "duration": 0.268750011920929,
          "pitch": 44,
          "velocity": 51
        },
        {
          "beat": 1.5,
          "duration": 0.12083332985639572,
          "pitch": 43,
          "velocity": 18
        },
        {
          "beat": 1.7999999523162842,
          "duration": 0.22291666269302368,
          "pitch": 44,
          "velocity": 20
        },
        {
          "beat": 2,
          "duration": 0.3499999940395355,
          "pitch": 27,
          "velocity": 85
        },
        {
          "beat": 2,
          "duration": 0.9708333611488342,
          "pitch": 35,
          "velocity": 96
        },
        {
          "beat": 2,
          "duration": 2.035416603088379,
          "pitch": 38,
          "velocity": 56
        },
        {
          "beat": 2,
          "duration": 0.18958333134651184,
          "pitch": 41,
          "velocity": 51
        },
        {
          "beat": 2.299999952316284,
          "duration": 0.25833332538604736,
          "pitch": 44,
          "velocity": 47
        },
        {
          "beat": 2.5,
          "duration": 0.1979166716337204,
          "pitch": 43,
          "velocity": 47
        },
        {
          "beat": 2.799999952316284,
          "duration": 0.2291666716337204,
          "pitch": 44,
          "velocity": 21
        },
        {
          "beat": 3,
          "duration": 1.1416666507720947,
          "pitch": 25,
          "velocity": 120
        },
        {
          "beat": 3,
          "duration": 0.5541666746139526,
          "pitch": 36,
          "velocity": 101
        },
        {
          "beat": 3,
          "duration": 0.20000000298023224,
          "pitch": 41,
          "velocity": 62
        },
        {
          "beat": 3.299999952316284,
          "duration": 0.262499988079071,
          "pitch": 44,
          "velocity": 35
        },
        {
          "beat": 3.5,
          "duration": 0.5,
          "pitch": 35,
          "velocity": 25
        },
        {
          "beat": 3.5,
          "duration": 0.16249999403953552,
          "pitch": 43,
          "velocity": 35
        },
        {
          "beat": 3.799999952316284,
          "duration": 0.1666666716337204,
          "pitch": 44,
          "velocity": 11
        }
      ],
      "decodedMidiPath": "rhythm_midi_patterns/decoded_pattern_midis/Cajon_ChapMen_5.mid"
    },
    {
      "code": "Cajon_ChapMen_6",
      "type": "dmachine_model",
      "subtype": "proller",
      "family": "Drum",
      "version": "0.0.0.0",
      "sizePagesOrUnits": 13,
      "crc32": 1832257887,
      "bpm": 115,
      "bnum": 43,
      "noteCount": 14,
      "notes": [
        {
          "beat": 0,
          "duration": 0.6666666865348816,
          "pitch": 25,
          "velocity": 33
        },
        {
          "beat": 0,
          "duration": 0.6666666865348816,
          "pitch": 27,
          "velocity": 33
        },
        {
          "beat": 0,
          "duration": 0.6666666865348816,
          "pitch": 29,
          "velocity": 56
        },
        {
          "beat": 0,
          "duration": 0.837499976158142,
          "pitch": 35,
          "velocity": 100
        },
        {
          "beat": 0,
          "duration": 0.912500023841858,
          "pitch": 41,
          "velocity": 61
        },
        {
          "beat": 1,
          "duration": 0.625,
          "pitch": 43,
          "velocity": 35
        },
        {
          "beat": 1.5,
          "duration": 1.2270833253860474,
          "pitch": 44,
          "velocity": 26
        },
        {
          "beat": 2,
          "duration": 0.6666666865348816,
          "pitch": 25,
          "velocity": 1
        },
        {
          "beat": 2,
          "duration": 0.5333333611488342,
          "pitch": 36,
          "velocity": 99
        },
        {
          "beat": 2,
          "duration": 0.5104166865348816,
          "pitch": 42,
          "velocity": 47
        },
        {
          "beat": 3,
          "duration": 0.6666666865348816,
          "pitch": 25,
          "velocity": 33
        },
        {
          "beat": 3,
          "duration": 0.6666666865348816,
          "pitch": 27,
          "velocity": 33
        },
        {
          "beat": 3,
          "duration": 0.8729166388511658,
          "pitch": 35,
          "velocity": 106
        },
        {
          "beat": 3,
          "duration": 1.0416666269302368,
          "pitch": 41,
          "velocity": 60
        }
      ],
      "decodedMidiPath": "rhythm_midi_patterns/decoded_pattern_midis/Cajon_ChapMen_6.mid"
    },
    {
      "code": "Cajon_ChapMen_7",
      "type": "dmachine_model",
      "subtype": "proller",
      "family": "Drum",
      "version": "0.0.0.0",
      "sizePagesOrUnits": 14,
      "crc32": 3121281902,
      "bpm": 86,
      "bnum": 86,
      "noteCount": 25,
      "notes": [
        {
          "beat": 0,
          "duration": 0.7458333373069763,
          "pitch": 27,
          "velocity": 26
        },
        {
          "beat": 0,
          "duration": 1.1604167222976685,
          "pitch": 29,
          "velocity": 127
        },
        {
          "beat": 0,
          "duration": 1,
          "pitch": 35,
          "velocity": 120
        },
        {
          "beat": 0,
          "duration": 0.5,
          "pitch": 42,
          "velocity": 35
        },
        {
          "beat": 0.5,
          "duration": 0.1979166716337204,
          "pitch": 41,
          "velocity": 31
        },
        {
          "beat": 0.75,
          "duration": 0.18541666865348816,
          "pitch": 44,
          "velocity": 33
        },
        {
          "beat": 1,
          "duration": 0.5,
          "pitch": 35,
          "velocity": 32
        },
        {
          "beat": 1,
          "duration": 0.18541666865348816,
          "pitch": 43,
          "velocity": 12
        },
        {
          "beat": 1.25,
          "duration": 0.18541666865348816,
          "pitch": 44,
          "velocity": 12
        },
        {
          "beat": 1.5,
          "duration": 0.7458333373069763,
          "pitch": 25,
          "velocity": 77
        },
        {
          "beat": 1.5,
          "duration": 1,
          "pitch": 36,
          "velocity": 96
        },
        {
          "beat": 1.5,
          "duration": 0.5,
          "pitch": 42,
          "velocity": 35
        },
        {
          "beat": 2,
          "duration": 0.1979166716337204,
          "pitch": 41,
          "velocity": 31
        },
        {
          "beat": 2.25,
          "duration": 0.18541666865348816,
          "pitch": 44,
          "velocity": 33
        },
        {
          "beat": 2.5,
          "duration": 0.5,
          "pitch": 35,
          "velocity": 55
        },
        {
          "beat": 2.5,
          "duration": 0.5041666626930237,
          "pitch": 37,
          "velocity": 54
        },
        {
          "beat": 2.5,
          "duration": 0.18541666865348816,
          "pitch": 43,
          "velocity": 12
        },
        {
          "beat": 2.75,
          "duration": 0.18541666865348816,
          "pitch": 44,
          "velocity": 12
        },
        {
          "beat": 3,
          "duration": 0.7458333373069763,
          "pitch": 27,
          "velocity": 26
        },
        {
          "beat": 3,
          "duration": 1,
          "pitch": 35,
          "velocity": 127
        },
        {
          "beat": 3,
          "duration": 0.21041665971279144,
          "pitch": 38,
          "velocity": 38
        },
        {
          "beat": 3,
          "duration": 0.5,
          "pitch": 42,
          "velocity": 35
        },
        {
          "beat": 3.5,
          "duration": 0.1979166716337204,
          "pitch": 41,
          "velocity": 31
        },
        {
          "beat": 3.75,
          "duration": 0.5041666626930237,
          "pitch": 36,
          "velocity": 26
        },
        {
          "beat": 3.75,
          "duration": 0.18541666865348816,
          "pitch": 44,
          "velocity": 33
        }
      ],
      "decodedMidiPath": "rhythm_midi_patterns/decoded_pattern_midis/Cajon_ChapMen_7.mid"
    },
    {
      "code": "Cajon_ChapMen_8",
      "type": "dmachine_model",
      "subtype": "proller",
      "family": "Drum",
      "version": "0.0.0.0",
      "sizePagesOrUnits": 13,
      "crc32": 1555536175,
      "bpm": 115,
      "bnum": 43,
      "noteCount": 15,
      "notes": [
        {
          "beat": 0,
          "duration": 0.6666666865348816,
          "pitch": 25,
          "velocity": 33
        },
        {
          "beat": 0,
          "duration": 0.6666666865348816,
          "pitch": 27,
          "velocity": 33
        },
        {
          "beat": 0,
          "duration": 0.6666666865348816,
          "pitch": 29,
          "velocity": 56
        },
        {
          "beat": 0,
          "duration": 0.837499976158142,
          "pitch": 35,
          "velocity": 100
        },
        {
          "beat": 0,
          "duration": 0.912500023841858,
          "pitch": 41,
          "velocity": 61
        },
        {
          "beat": 1,
          "duration": 0.5333333611488342,
          "pitch": 36,
          "velocity": 69
        },
        {
          "beat": 1,
          "duration": 0.625,
          "pitch": 43,
          "velocity": 35
        },
        {
          "beat": 1.5,
          "duration": 1.2270833253860474,
          "pitch": 44,
          "velocity": 26
        },
        {
          "beat": 2,
          "duration": 0.6666666865348816,
          "pitch": 25,
          "velocity": 1
        },
        {
          "beat": 2,
          "duration": 0.5333333611488342,
          "pitch": 36,
          "velocity": 99
        },
        {
          "beat": 2,
          "duration": 0.5104166865348816,
          "pitch": 42,
          "velocity": 47
        },
        {
          "beat": 3,
          "duration": 0.6666666865348816,
          "pitch": 25,
          "velocity": 33
        },
        {
          "beat": 3,
          "duration": 0.6666666865348816,
          "pitch": 27,
          "velocity": 33
        },
        {
          "beat": 3,
          "duration": 0.8729166388511658,
          "pitch": 35,
          "velocity": 106
        },
        {
          "beat": 3,
          "duration": 1.0416666269302368,
          "pitch": 41,
          "velocity": 60
        }
      ],
      "decodedMidiPath": "rhythm_midi_patterns/decoded_pattern_midis/Cajon_ChapMen_8.mid"
    },
    {
      "code": "Cajon_ChapMen_9",
      "type": "dmachine_model",
      "subtype": "proller",
      "family": "Drum",
      "version": "0.0.0.0",
      "sizePagesOrUnits": 13,
      "crc32": 1861408347,
      "bpm": 86,
      "bnum": 86,
      "noteCount": 16,
      "notes": [
        {
          "beat": 0,
          "duration": 0.7458333373069763,
          "pitch": 27,
          "velocity": 26
        },
        {
          "beat": 0,
          "duration": 1.1604167222976685,
          "pitch": 29,
          "velocity": 127
        },
        {
          "beat": 0,
          "duration": 1,
          "pitch": 35,
          "velocity": 120
        },
        {
          "beat": 0,
          "duration": 0.5,
          "pitch": 42,
          "velocity": 35
        },
        {
          "beat": 0.5,
          "duration": 0.1979166716337204,
          "pitch": 41,
          "velocity": 31
        },
        {
          "beat": 1,
          "duration": 0.18541666865348816,
          "pitch": 44,
          "velocity": 33
        },
        {
          "beat": 1.5,
          "duration": 0.7458333373069763,
          "pitch": 25,
          "velocity": 77
        },
        {
          "beat": 1.5,
          "duration": 1,
          "pitch": 36,
          "velocity": 96
        },
        {
          "beat": 1.5,
          "duration": 0.5,
          "pitch": 42,
          "velocity": 35
        },
        {
          "beat": 2,
          "duration": 0.1979166716337204,
          "pitch": 41,
          "velocity": 31
        },
        {
          "beat": 2.5,
          "duration": 0.18541666865348816,
          "pitch": 44,
          "velocity": 33
        },
        {
          "beat": 3,
          "duration": 0.7458333373069763,
          "pitch": 27,
          "velocity": 26
        },
        {
          "beat": 3,
          "duration": 1,
          "pitch": 35,
          "velocity": 127
        },
        {
          "beat": 3,
          "duration": 0.21041665971279144,
          "pitch": 38,
          "velocity": 38
        },
        {
          "beat": 3,
          "duration": 0.5,
          "pitch": 42,
          "velocity": 35
        },
        {
          "beat": 3.5,
          "duration": 0.1979166716337204,
          "pitch": 41,
          "velocity": 31
        }
      ],
      "decodedMidiPath": "rhythm_midi_patterns/decoded_pattern_midis/Cajon_ChapMen_9.mid"
    },
    {
      "code": "CityPOP_ChapMen_1",
      "type": "dmachine_model",
      "subtype": "proller",
      "family": "Drum",
      "version": "1.0.0.1",
      "sizePagesOrUnits": 16,
      "crc32": 182035594,
      "bpm": 70,
      "bnum": 44,
      "noteCount": 12,
      "notes": [
        {
          "beat": 0.010416666977107525,
          "duration": 0.125,
          "pitch": 25,
          "velocity": 80
        },
        {
          "beat": 0.010416666977107525,
          "duration": 0.125,
          "pitch": 33,
          "velocity": 74
        },
        {
          "beat": 0.5104166865348816,
          "duration": 0.125,
          "pitch": 34,
          "velocity": 42
        },
        {
          "beat": 1.0104166269302368,
          "duration": 0.125,
          "pitch": 35,
          "velocity": 66
        },
        {
          "beat": 1.5104166269302368,
          "duration": 0.125,
          "pitch": 34,
          "velocity": 51
        },
        {
          "beat": 2.0104167461395264,
          "duration": 0.125,
          "pitch": 34,
          "velocity": 14
        },
        {
          "beat": 2.2604167461395264,
          "duration": 0.125,
          "pitch": 33,
          "velocity": 74
        },
        {
          "beat": 2.5104167461395264,
          "duration": 0.125,
          "pitch": 34,
          "velocity": 51
        },
        {
          "beat": 3.0104167461395264,
          "duration": 0.125,
          "pitch": 27,
          "velocity": 67
        },
        {
          "beat": 3.0104167461395264,
          "duration": 0.125,
          "pitch": 29,
          "velocity": 38
        },
        {
          "beat": 3.0104167461395264,
          "duration": 0.125,
          "pitch": 35,
          "velocity": 74
        },
        {
          "beat": 3.5104167461395264,
          "duration": 0.125,
          "pitch": 34,
          "velocity": 51
        }
      ],
      "decodedMidiPath": "rhythm_midi_patterns/decoded_pattern_midis/CityPOP_ChapMen_1.mid"
    },
    {
      "code": "CityPOP_ChapMen_10",
      "type": "dmachine_model",
      "subtype": "proller",
      "family": "Drum",
      "version": "1.0.0.1",
      "sizePagesOrUnits": 14,
      "crc32": 3504759510,
      "bpm": 102,
      "bnum": 44,
      "noteCount": 25,
      "notes": [
        {
          "beat": 0,
          "duration": 0.18125000596046448,
          "pitch": 24,
          "velocity": 63
        },
        {
          "beat": 0,
          "duration": 0.23749999701976776,
          "pitch": 48,
          "velocity": 57
        },
        {
          "beat": 0.25,
          "duration": 0.3166666626930237,
          "pitch": 32,
          "velocity": 15
        },
        {
          "beat": 0.5,
          "duration": 0.4625000059604645,
          "pitch": 24,
          "velocity": 62
        },
        {
          "beat": 0.5020833611488342,
          "duration": 0.2770833373069763,
          "pitch": 34,
          "velocity": 42
        },
        {
          "beat": 0.7520833611488342,
          "duration": 0.27916666865348816,
          "pitch": 32,
          "velocity": 16
        },
        {
          "beat": 1,
          "duration": 0.1979166716337204,
          "pitch": 26,
          "velocity": 63
        },
        {
          "beat": 1,
          "duration": 0.1979166716337204,
          "pitch": 27,
          "velocity": 44
        },
        {
          "beat": 1.0020833015441895,
          "duration": 0.24791666865348816,
          "pitch": 34,
          "velocity": 41
        },
        {
          "beat": 1.25,
          "duration": 0.293749988079071,
          "pitch": 24,
          "velocity": 64
        },
        {
          "beat": 1.2520833015441895,
          "duration": 0.331250011920929,
          "pitch": 32,
          "velocity": 16
        },
        {
          "beat": 1.5020833015441895,
          "duration": 0.24791666865348816,
          "pitch": 34,
          "velocity": 40
        },
        {
          "beat": 1.75,
          "duration": 0.13124999403953552,
          "pitch": 24,
          "velocity": 57
        },
        {
          "beat": 1.7520833015441895,
          "duration": 0.2395833283662796,
          "pitch": 32,
          "velocity": 15
        },
        {
          "beat": 2,
          "duration": 0.2083333283662796,
          "pitch": 24,
          "velocity": 56
        },
        {
          "beat": 2.00208330154419,
          "duration": 0.2666666805744171,
          "pitch": 34,
          "velocity": 42
        },
        {
          "beat": 2.25208330154419,
          "duration": 0.268750011920929,
          "pitch": 32,
          "velocity": 15
        },
        {
          "beat": 2.50208330154419,
          "duration": 0.24583333730697632,
          "pitch": 34,
          "velocity": 43
        },
        {
          "beat": 2.75,
          "duration": 0.268750011920929,
          "pitch": 32,
          "velocity": 15
        },
        {
          "beat": 3,
          "duration": 0.1979166716337204,
          "pitch": 26,
          "velocity": 63
        },
        {
          "beat": 3,
          "duration": 0.1979166716337204,
          "pitch": 27,
          "velocity": 44
        },
        {
          "beat": 3,
          "duration": 0.1979166716337204,
          "pitch": 36,
          "velocity": 42
        },
        {
          "beat": 3.25,
          "duration": 0.3125,
          "pitch": 32,
          "velocity": 15
        },
        {
          "beat": 3.50208330154419,
          "duration": 0.22291666269302368,
          "pitch": 34,
          "velocity": 42
        },
        {
          "beat": 3.75,
          "duration": 0.21041665971279144,
          "pitch": 32,
          "velocity": 16
        }
      ],
      "decodedMidiPath": "rhythm_midi_patterns/decoded_pattern_midis/CityPOP_ChapMen_10.mid"
    },
    {
      "code": "CityPOP_ChapMen_11",
      "type": "dmachine_model",
      "subtype": "proller",
      "family": "Drum",
      "version": "1.0.0.1",
      "sizePagesOrUnits": 15,
      "crc32": 2309977815,
      "bpm": 102,
      "bnum": 44,
      "noteCount": 26,
      "notes": [
        {
          "beat": 0,
          "duration": 0.18125000596046448,
          "pitch": 24,
          "velocity": 63
        },
        {
          "beat": 0,
          "duration": 0.23749999701976776,
          "pitch": 48,
          "velocity": 57
        },
        {
          "beat": 0.25,
          "duration": 0.3166666626930237,
          "pitch": 32,
          "velocity": 15
        },
        {
          "beat": 0.5,
          "duration": 0.25,
          "pitch": 24,
          "velocity": 62
        },
        {
          "beat": 0.5020833611488342,
          "duration": 0.2770833373069763,
          "pitch": 34,
          "velocity": 42
        },
        {
          "beat": 0.75,
          "duration": 0.21250000596046448,
          "pitch": 24,
          "velocity": 43
        },
        {
          "beat": 0.7520833611488342,
          "duration": 0.27916666865348816,
          "pitch": 32,
          "velocity": 16
        },
        {
          "beat": 1,
          "duration": 0.1979166716337204,
          "pitch": 26,
          "velocity": 63
        },
        {
          "beat": 1,
          "duration": 0.1979166716337204,
          "pitch": 27,
          "velocity": 44
        },
        {
          "beat": 1.0020833015441895,
          "duration": 0.24791666865348816,
          "pitch": 34,
          "velocity": 41
        },
        {
          "beat": 1.25,
          "duration": 0.293749988079071,
          "pitch": 24,
          "velocity": 64
        },
        {
          "beat": 1.2520833015441895,
          "duration": 0.331250011920929,
          "pitch": 32,
          "velocity": 16
        },
        {
          "beat": 1.5020833015441895,
          "duration": 0.24791666865348816,
          "pitch": 34,
          "velocity": 40
        },
        {
          "beat": 1.75,
          "duration": 0.13124999403953552,
          "pitch": 24,
          "velocity": 57
        },
        {
          "beat": 1.7520833015441895,
          "duration": 0.2395833283662796,
          "pitch": 32,
          "velocity": 15
        },
        {
          "beat": 2,
          "duration": 0.2083333283662796,
          "pitch": 24,
          "velocity": 56
        },
        {
          "beat": 2.00208330154419,
          "duration": 0.2666666805744171,
          "pitch": 34,
          "velocity": 42
        },
        {
          "beat": 2.25208330154419,
          "duration": 0.268750011920929,
          "pitch": 32,
          "velocity": 15
        },
        {
          "beat": 2.50208330154419,
          "duration": 0.24583333730697632,
          "pitch": 35,
          "velocity": 50
        },
        {
          "beat": 2.75,
          "duration": 0.268750011920929,
          "pitch": 32,
          "velocity": 15
        },
        {
          "beat": 3,
          "duration": 0.1979166716337204,
          "pitch": 26,
          "velocity": 63
        },
        {
          "beat": 3,
          "duration": 0.1979166716337204,
          "pitch": 27,
          "velocity": 44
        },
        {
          "beat": 3,
          "duration": 0.1979166716337204,
          "pitch": 36,
          "velocity": 42
        },
        {
          "beat": 3.25,
          "duration": 0.3125,
          "pitch": 32,
          "velocity": 15
        },
        {
          "beat": 3.50208330154419,
          "duration": 0.22291666269302368,
          "pitch": 34,
          "velocity": 42
        },
        {
          "beat": 3.75,
          "duration": 0.21041665971279144,
          "pitch": 32,
          "velocity": 16
        }
      ],
      "decodedMidiPath": "rhythm_midi_patterns/decoded_pattern_midis/CityPOP_ChapMen_11.mid"
    },
    {
      "code": "CityPOP_ChapMen_2",
      "type": "dmachine_model",
      "subtype": "proller",
      "family": "Drum",
      "version": "1.0.0.1",
      "sizePagesOrUnits": 18,
      "crc32": 3527947009,
      "bpm": 70,
      "bnum": 44,
      "noteCount": 26,
      "notes": [
        {
          "beat": 0.010416666977107525,
          "duration": 0.125,
          "pitch": 25,
          "velocity": 80
        },
        {
          "beat": 0.010416666977107525,
          "duration": 0.125,
          "pitch": 33,
          "velocity": 74
        },
        {
          "beat": 0.2604166567325592,
          "duration": 0.125,
          "pitch": 34,
          "velocity": 14
        },
        {
          "beat": 0.5104166865348816,
          "duration": 0.125,
          "pitch": 34,
          "velocity": 14
        },
        {
          "beat": 0.5104166865348816,
          "duration": 0.125,
          "pitch": 38,
          "velocity": 48
        },
        {
          "beat": 0.7604166865348816,
          "duration": 0.125,
          "pitch": 34,
          "velocity": 37
        },
        {
          "beat": 1.0104166269302368,
          "duration": 0.125,
          "pitch": 27,
          "velocity": 67
        },
        {
          "beat": 1.0104166269302368,
          "duration": 0.125,
          "pitch": 29,
          "velocity": 38
        },
        {
          "beat": 1.0104166269302368,
          "duration": 0.125,
          "pitch": 35,
          "velocity": 74
        },
        {
          "beat": 1.2604166269302368,
          "duration": 0.125,
          "pitch": 34,
          "velocity": 51
        },
        {
          "beat": 1.5104166269302368,
          "duration": 0.125,
          "pitch": 34,
          "velocity": 37
        },
        {
          "beat": 1.6354166269302368,
          "duration": 0.125,
          "pitch": 34,
          "velocity": 37
        },
        {
          "beat": 1.7604166269302368,
          "duration": 0.125,
          "pitch": 34,
          "velocity": 51
        },
        {
          "beat": 2.0104167461395264,
          "duration": 0.125,
          "pitch": 34,
          "velocity": 14
        },
        {
          "beat": 2.2604167461395264,
          "duration": 0.125,
          "pitch": 25,
          "velocity": 58
        },
        {
          "beat": 2.2604167461395264,
          "duration": 0.125,
          "pitch": 33,
          "velocity": 74
        },
        {
          "beat": 2.5104167461395264,
          "duration": 0.125,
          "pitch": 25,
          "velocity": 80
        },
        {
          "beat": 2.5104167461395264,
          "duration": 0.125,
          "pitch": 34,
          "velocity": 51
        },
        {
          "beat": 2.5104167461395264,
          "duration": 0.125,
          "pitch": 38,
          "velocity": 48
        },
        {
          "beat": 3.0104167461395264,
          "duration": 0.125,
          "pitch": 27,
          "velocity": 67
        },
        {
          "beat": 3.0104167461395264,
          "duration": 0.125,
          "pitch": 29,
          "velocity": 38
        },
        {
          "beat": 3.0104167461395264,
          "duration": 0.125,
          "pitch": 35,
          "velocity": 74
        },
        {
          "beat": 3.2604167461395264,
          "duration": 0.125,
          "pitch": 34,
          "velocity": 51
        },
        {
          "beat": 3.5104167461395264,
          "duration": 0.125,
          "pitch": 34,
          "velocity": 51
        },
        {
          "beat": 3.6354167461395264,
          "duration": 0.125,
          "pitch": 34,
          "velocity": 51
        },
        {
          "beat": 3.7604167461395264,
          "duration": 0.125,
          "pitch": 35,
          "velocity": 74
        }
      ],
      "decodedMidiPath": "rhythm_midi_patterns/decoded_pattern_midis/CityPOP_ChapMen_2.mid"
    },
    {
      "code": "CityPOP_ChapMen_3",
      "type": "dmachine_model",
      "subtype": "proller",
      "family": "Drum",
      "version": "1.0.0.1",
      "sizePagesOrUnits": 19,
      "crc32": 1626323020,
      "bpm": 78,
      "bnum": 44,
      "noteCount": 29,
      "notes": [
        {
          "beat": 0,
          "duration": 0.25,
          "pitch": 25,
          "velocity": 80
        },
        {
          "beat": 0,
          "duration": 0.25,
          "pitch": 32,
          "velocity": 34
        },
        {
          "beat": 0,
          "duration": 0.25,
          "pitch": 48,
          "velocity": 37
        },
        {
          "beat": 0.25,
          "duration": 0.25,
          "pitch": 34,
          "velocity": 1
        },
        {
          "beat": 0.5,
          "duration": 0.25,
          "pitch": 28,
          "velocity": 48
        },
        {
          "beat": 0.5,
          "duration": 0.25,
          "pitch": 32,
          "velocity": 34
        },
        {
          "beat": 0.75,
          "duration": 0.25,
          "pitch": 33,
          "velocity": 1
        },
        {
          "beat": 1,
          "duration": 0.25,
          "pitch": 26,
          "velocity": 80
        },
        {
          "beat": 1,
          "duration": 0.25,
          "pitch": 32,
          "velocity": 34
        },
        {
          "beat": 1.25,
          "duration": 0.25,
          "pitch": 25,
          "velocity": 80
        },
        {
          "beat": 1.25,
          "duration": 0.25,
          "pitch": 34,
          "velocity": 1
        },
        {
          "beat": 1.5,
          "duration": 0.25,
          "pitch": 25,
          "velocity": 80
        },
        {
          "beat": 1.5,
          "duration": 0.25,
          "pitch": 32,
          "velocity": 34
        },
        {
          "beat": 1.75,
          "duration": 0.25,
          "pitch": 33,
          "velocity": 1
        },
        {
          "beat": 2,
          "duration": 0.25,
          "pitch": 25,
          "velocity": 80
        },
        {
          "beat": 2,
          "duration": 0.25,
          "pitch": 32,
          "velocity": 34
        },
        {
          "beat": 2,
          "duration": 0.25,
          "pitch": 43,
          "velocity": 15
        },
        {
          "beat": 2.25,
          "duration": 0.25,
          "pitch": 34,
          "velocity": 1
        },
        {
          "beat": 2.25,
          "duration": 0.25,
          "pitch": 43,
          "velocity": 15
        },
        {
          "beat": 2.5,
          "duration": 0.25,
          "pitch": 32,
          "velocity": 34
        },
        {
          "beat": 2.75,
          "duration": 0.25,
          "pitch": 33,
          "velocity": 1
        },
        {
          "beat": 2.75,
          "duration": 0.25,
          "pitch": 43,
          "velocity": 15
        },
        {
          "beat": 3,
          "duration": 0.25,
          "pitch": 26,
          "velocity": 80
        },
        {
          "beat": 3,
          "duration": 0.25,
          "pitch": 32,
          "velocity": 34
        },
        {
          "beat": 3,
          "duration": 0.25,
          "pitch": 36,
          "velocity": 41
        },
        {
          "beat": 3.25,
          "duration": 0.25,
          "pitch": 34,
          "velocity": 1
        },
        {
          "beat": 3.5,
          "duration": 0.25,
          "pitch": 32,
          "velocity": 34
        },
        {
          "beat": 3.5,
          "duration": 0.25,
          "pitch": 42,
          "velocity": 46
        },
        {
          "beat": 3.75,
          "duration": 0.25,
          "pitch": 35,
          "velocity": 1
        }
      ],
      "decodedMidiPath": "rhythm_midi_patterns/decoded_pattern_midis/CityPOP_ChapMen_3.mid"
    },
    {
      "code": "CityPop_ChapMen_4",
      "type": "dmachine_model",
      "subtype": "proller",
      "family": "Drum",
      "version": "0.0.0.0",
      "sizePagesOrUnits": 14,
      "crc32": 606632002,
      "bpm": 85,
      "bnum": 44,
      "noteCount": 8,
      "notes": [
        {
          "beat": 0,
          "duration": 0.20000000298023224,
          "pitch": 25,
          "velocity": 85
        },
        {
          "beat": 0,
          "duration": 0.3499999940395355,
          "pitch": 48,
          "velocity": 36
        },
        {
          "beat": 1,
          "duration": 0.3333333432674408,
          "pitch": 26,
          "velocity": 85
        },
        {
          "beat": 1,
          "duration": 0.3499999940395355,
          "pitch": 34,
          "velocity": 36
        },
        {
          "beat": 2,
          "duration": 0.3499999940395355,
          "pitch": 25,
          "velocity": 85
        },
        {
          "beat": 2,
          "duration": 0.3499999940395355,
          "pitch": 34,
          "velocity": 36
        },
        {
          "beat": 3,
          "duration": 0.3499999940395355,
          "pitch": 26,
          "velocity": 85
        },
        {
          "beat": 3,
          "duration": 0.3499999940395355,
          "pitch": 34,
          "velocity": 36
        }
      ],
      "decodedMidiPath": "rhythm_midi_patterns/decoded_pattern_midis/CityPop_ChapMen_4.mid"
    },
    {
      "code": "CityPop_ChapMen_5",
      "type": "dmachine_model",
      "subtype": "proller",
      "family": "Drum",
      "version": "0.0.0.0",
      "sizePagesOrUnits": 15,
      "crc32": 1329003995,
      "bpm": 85,
      "bnum": 44,
      "noteCount": 12,
      "notes": [
        {
          "beat": 0,
          "duration": 0.20000000298023224,
          "pitch": 25,
          "velocity": 85
        },
        {
          "beat": 0,
          "duration": 0.3499999940395355,
          "pitch": 48,
          "velocity": 36
        },
        {
          "beat": 0.5,
          "duration": 0.3499999940395355,
          "pitch": 32,
          "velocity": 36
        },
        {
          "beat": 1,
          "duration": 0.3333333432674408,
          "pitch": 26,
          "velocity": 85
        },
        {
          "beat": 1,
          "duration": 0.3499999940395355,
          "pitch": 34,
          "velocity": 36
        },
        {
          "beat": 1.5,
          "duration": 0.3499999940395355,
          "pitch": 32,
          "velocity": 36
        },
        {
          "beat": 2,
          "duration": 0.3499999940395355,
          "pitch": 25,
          "velocity": 85
        },
        {
          "beat": 2,
          "duration": 0.3499999940395355,
          "pitch": 34,
          "velocity": 36
        },
        {
          "beat": 2.5,
          "duration": 0.3499999940395355,
          "pitch": 32,
          "velocity": 36
        },
        {
          "beat": 3,
          "duration": 0.3499999940395355,
          "pitch": 26,
          "velocity": 85
        },
        {
          "beat": 3,
          "duration": 0.3499999940395355,
          "pitch": 34,
          "velocity": 36
        },
        {
          "beat": 3.5,
          "duration": 0.3499999940395355,
          "pitch": 32,
          "velocity": 36
        }
      ],
      "decodedMidiPath": "rhythm_midi_patterns/decoded_pattern_midis/CityPop_ChapMen_5.mid"
    },
    {
      "code": "CityPop_ChapMen_6",
      "type": "dmachine_model",
      "subtype": "proller",
      "family": "Drum",
      "version": "0.0.0.0",
      "sizePagesOrUnits": 17,
      "crc32": 3458462110,
      "bpm": 85,
      "bnum": 44,
      "noteCount": 20,
      "notes": [
        {
          "beat": 0,
          "duration": 0.20000000298023224,
          "pitch": 25,
          "velocity": 85
        },
        {
          "beat": 0,
          "duration": 0.3499999940395355,
          "pitch": 48,
          "velocity": 36
        },
        {
          "beat": 0.25,
          "duration": 0.21666666865348816,
          "pitch": 34,
          "velocity": 17
        },
        {
          "beat": 0.5,
          "duration": 0.3499999940395355,
          "pitch": 32,
          "velocity": 26
        },
        {
          "beat": 0.75,
          "duration": 0.21666666865348816,
          "pitch": 34,
          "velocity": 42
        },
        {
          "beat": 1,
          "duration": 0.3333333432674408,
          "pitch": 26,
          "velocity": 85
        },
        {
          "beat": 1,
          "duration": 0.2708333432674408,
          "pitch": 34,
          "velocity": 1
        },
        {
          "beat": 1.25,
          "duration": 0.3499999940395355,
          "pitch": 32,
          "velocity": 13
        },
        {
          "beat": 1.5,
          "duration": 0.2708333432674408,
          "pitch": 34,
          "velocity": 21
        },
        {
          "beat": 1.75,
          "duration": 0.2708333432674408,
          "pitch": 32,
          "velocity": 44
        },
        {
          "beat": 2,
          "duration": 0.3499999940395355,
          "pitch": 25,
          "velocity": 85
        },
        {
          "beat": 2,
          "duration": 0.3499999940395355,
          "pitch": 34,
          "velocity": 1
        },
        {
          "beat": 2.25,
          "duration": 0.2083333283662796,
          "pitch": 32,
          "velocity": 15
        },
        {
          "beat": 2.5,
          "duration": 0.3499999940395355,
          "pitch": 32,
          "velocity": 25
        },
        {
          "beat": 2.75,
          "duration": 0.18125000596046448,
          "pitch": 34,
          "velocity": 42
        },
        {
          "beat": 3,
          "duration": 0.3499999940395355,
          "pitch": 26,
          "velocity": 85
        },
        {
          "beat": 3,
          "duration": 0.3499999940395355,
          "pitch": 34,
          "velocity": 1
        },
        {
          "beat": 3.25,
          "duration": 0.18125000596046448,
          "pitch": 32,
          "velocity": 17
        },
        {
          "beat": 3.5,
          "duration": 0.3499999940395355,
          "pitch": 32,
          "velocity": 26
        },
        {
          "beat": 3.75,
          "duration": 0.18125000596046448,
          "pitch": 34,
          "velocity": 42
        }
      ],
      "decodedMidiPath": "rhythm_midi_patterns/decoded_pattern_midis/CityPop_ChapMen_6.mid"
    },
    {
      "code": "CityPop_ChapMen_7",
      "type": "dmachine_model",
      "subtype": "proller",
      "family": "Drum",
      "version": "0.0.0.0",
      "sizePagesOrUnits": 14,
      "crc32": 3315803896,
      "bpm": 86,
      "bnum": 86,
      "noteCount": 18,
      "notes": [
        {
          "beat": 0,
          "duration": 0.5,
          "pitch": 25,
          "velocity": 78
        },
        {
          "beat": 0,
          "duration": 0.5,
          "pitch": 48,
          "velocity": 34
        },
        {
          "beat": 0.5,
          "duration": 0.5,
          "pitch": 34,
          "velocity": 34
        },
        {
          "beat": 1,
          "duration": 0.5,
          "pitch": 25,
          "velocity": 60
        },
        {
          "beat": 1,
          "duration": 0.5,
          "pitch": 32,
          "velocity": 34
        },
        {
          "beat": 1.5,
          "duration": 0.5,
          "pitch": 26,
          "velocity": 78
        },
        {
          "beat": 1.5,
          "duration": 0.5,
          "pitch": 28,
          "velocity": 60
        },
        {
          "beat": 1.5,
          "duration": 0.5,
          "pitch": 29,
          "velocity": 34
        },
        {
          "beat": 1.5,
          "duration": 0.5,
          "pitch": 35,
          "velocity": 34
        },
        {
          "beat": 2,
          "duration": 0.5,
          "pitch": 34,
          "velocity": 34
        },
        {
          "beat": 2,
          "duration": 0.4583333432674408,
          "pitch": 42,
          "velocity": 48
        },
        {
          "beat": 2.5,
          "duration": 0.5,
          "pitch": 25,
          "velocity": 78
        },
        {
          "beat": 2.5,
          "duration": 0.5,
          "pitch": 32,
          "velocity": 34
        },
        {
          "beat": 3,
          "duration": 0.5,
          "pitch": 25,
          "velocity": 60
        },
        {
          "beat": 3,
          "duration": 0.5,
          "pitch": 33,
          "velocity": 34
        },
        {
          "beat": 3.5,
          "duration": 0.5,
          "pitch": 34,
          "velocity": 34
        },
        {
          "beat": 3.75,
          "duration": 0.5,
          "pitch": 26,
          "velocity": 17
        },
        {
          "beat": 3.75,
          "duration": 0.5,
          "pitch": 28,
          "velocity": 17
        }
      ],
      "decodedMidiPath": "rhythm_midi_patterns/decoded_pattern_midis/CityPop_ChapMen_7.mid"
    },
    {
      "code": "CityPop_ChapMen_8",
      "type": "dmachine_model",
      "subtype": "proller",
      "family": "Drum",
      "version": "0.0.0.0",
      "sizePagesOrUnits": 13,
      "crc32": 718515827,
      "bpm": 86,
      "bnum": 86,
      "noteCount": 11,
      "notes": [
        {
          "beat": 0,
          "duration": 0.5,
          "pitch": 25,
          "velocity": 78
        },
        {
          "beat": 0,
          "duration": 0.5,
          "pitch": 48,
          "velocity": 34
        },
        {
          "beat": 0.5,
          "duration": 0.5,
          "pitch": 34,
          "velocity": 34
        },
        {
          "beat": 1,
          "duration": 0.5,
          "pitch": 32,
          "velocity": 34
        },
        {
          "beat": 1.5,
          "duration": 0.5,
          "pitch": 26,
          "velocity": 78
        },
        {
          "beat": 1.5,
          "duration": 0.5,
          "pitch": 35,
          "velocity": 34
        },
        {
          "beat": 2,
          "duration": 0.5,
          "pitch": 34,
          "velocity": 34
        },
        {
          "beat": 2.5,
          "duration": 0.5,
          "pitch": 32,
          "velocity": 34
        },
        {
          "beat": 3,
          "duration": 0.5,
          "pitch": 25,
          "velocity": 60
        },
        {
          "beat": 3,
          "duration": 0.5,
          "pitch": 33,
          "velocity": 34
        },
        {
          "beat": 3.5,
          "duration": 0.5,
          "pitch": 34,
          "velocity": 34
        }
      ],
      "decodedMidiPath": "rhythm_midi_patterns/decoded_pattern_midis/CityPop_ChapMen_8.mid"
    },
    {
      "code": "CityPop_ChapMen_9",
      "type": "dmachine_model",
      "subtype": "proller",
      "family": "Drum",
      "version": "0.0.0.0",
      "sizePagesOrUnits": 12,
      "crc32": 1541017556,
      "bpm": 115,
      "bnum": 43,
      "noteCount": 8,
      "notes": [
        {
          "beat": 0,
          "duration": 0.6666666865348816,
          "pitch": 25,
          "velocity": 90
        },
        {
          "beat": 0,
          "duration": 0.625,
          "pitch": 48,
          "velocity": 38
        },
        {
          "beat": 1,
          "duration": 0.5333333611488342,
          "pitch": 26,
          "velocity": 75
        },
        {
          "beat": 1,
          "duration": 0.5,
          "pitch": 31,
          "velocity": 28
        },
        {
          "beat": 2,
          "duration": 0.5333333611488342,
          "pitch": 26,
          "velocity": 79
        },
        {
          "beat": 2,
          "duration": 0.5,
          "pitch": 31,
          "velocity": 35
        },
        {
          "beat": 3,
          "duration": 0.6666666865348816,
          "pitch": 25,
          "velocity": 90
        },
        {
          "beat": 3,
          "duration": 0.5,
          "pitch": 32,
          "velocity": 35
        }
      ],
      "decodedMidiPath": "rhythm_midi_patterns/decoded_pattern_midis/CityPop_ChapMen_9.mid"
    },
    {
      "code": "Djembe_ChapMen_1",
      "type": "dmachine_model",
      "subtype": "proller",
      "family": "Drum",
      "version": "1.0.0.0",
      "sizePagesOrUnits": 13,
      "crc32": 578172710,
      "bpm": 60,
      "bnum": 44,
      "noteCount": 7,
      "notes": [
        {
          "beat": 0,
          "duration": 0.5583333373069763,
          "pitch": 36,
          "velocity": 89
        },
        {
          "beat": 0,
          "duration": 0.19583334028720856,
          "pitch": 48,
          "velocity": 83
        },
        {
          "beat": 0.75,
          "duration": 0.21458333730697632,
          "pitch": 36,
          "velocity": 55
        },
        {
          "beat": 1,
          "duration": 0.20000000298023224,
          "pitch": 42,
          "velocity": 55
        },
        {
          "beat": 1.5,
          "duration": 0.4541666805744171,
          "pitch": 36,
          "velocity": 46
        },
        {
          "beat": 2.5,
          "duration": 0.5,
          "pitch": 36,
          "velocity": 89
        },
        {
          "beat": 3,
          "duration": 0.5,
          "pitch": 42,
          "velocity": 89
        }
      ],
      "decodedMidiPath": "rhythm_midi_patterns/decoded_pattern_midis/Djembe_ChapMen_1.mid"
    },
    {
      "code": "Djembe_ChapMen_2",
      "type": "dmachine_model",
      "subtype": "proller",
      "family": "Drum",
      "version": "1.0.0.0",
      "sizePagesOrUnits": 14,
      "crc32": 2841462698,
      "bpm": 80,
      "bnum": 44,
      "noteCount": 6,
      "notes": [
        {
          "beat": 0,
          "duration": 0.862500011920929,
          "pitch": 36,
          "velocity": 86
        },
        {
          "beat": 1,
          "duration": 1,
          "pitch": 42,
          "velocity": 61
        },
        {
          "beat": 1.75,
          "duration": 0.25,
          "pitch": 36,
          "velocity": 65
        },
        {
          "beat": 2,
          "duration": 0.5,
          "pitch": 36,
          "velocity": 68
        },
        {
          "beat": 2.5,
          "duration": 0.5,
          "pitch": 36,
          "velocity": 68
        },
        {
          "beat": 3,
          "duration": 1,
          "pitch": 38,
          "velocity": 68
        }
      ],
      "decodedMidiPath": "rhythm_midi_patterns/decoded_pattern_midis/Djembe_ChapMen_2.mid"
    },
    {
      "code": "Djembe_ChapMen_3",
      "type": "dmachine_model",
      "subtype": "proller",
      "family": "Drum",
      "version": "0.0.0.0",
      "sizePagesOrUnits": 15,
      "crc32": 3668615166,
      "bpm": 70,
      "bnum": 44,
      "noteCount": 16,
      "notes": [
        {
          "beat": 0,
          "duration": 0.2750000059604645,
          "pitch": 36,
          "velocity": 61
        },
        {
          "beat": 0,
          "duration": 0.2395833283662796,
          "pitch": 48,
          "velocity": 50
        },
        {
          "beat": 0.375,
          "duration": 0.2750000059604645,
          "pitch": 36,
          "velocity": 1
        },
        {
          "beat": 0.5,
          "duration": 0.2395833283662796,
          "pitch": 38,
          "velocity": 50
        },
        {
          "beat": 0.75,
          "duration": 0.2291666716337204,
          "pitch": 36,
          "velocity": 30
        },
        {
          "beat": 1,
          "duration": 0.13958333432674408,
          "pitch": 36,
          "velocity": 80
        },
        {
          "beat": 1.25,
          "duration": 0.21250000596046448,
          "pitch": 38,
          "velocity": 2
        },
        {
          "beat": 1.5,
          "duration": 0.23333333432674408,
          "pitch": 42,
          "velocity": 80
        },
        {
          "beat": 2,
          "duration": 0.2750000059604645,
          "pitch": 36,
          "velocity": 61
        },
        {
          "beat": 2,
          "duration": 0.2395833283662796,
          "pitch": 48,
          "velocity": 50
        },
        {
          "beat": 2.375,
          "duration": 0.2750000059604645,
          "pitch": 36,
          "velocity": 1
        },
        {
          "beat": 2.5,
          "duration": 0.2395833283662796,
          "pitch": 38,
          "velocity": 50
        },
        {
          "beat": 2.75,
          "duration": 0.2291666716337204,
          "pitch": 36,
          "velocity": 30
        },
        {
          "beat": 3,
          "duration": 0.13958333432674408,
          "pitch": 36,
          "velocity": 80
        },
        {
          "beat": 3.25,
          "duration": 0.21250000596046448,
          "pitch": 36,
          "velocity": 2
        },
        {
          "beat": 3.5,
          "duration": 0.23333333432674408,
          "pitch": 42,
          "velocity": 80
        }
      ],
      "decodedMidiPath": "rhythm_midi_patterns/decoded_pattern_midis/Djembe_ChapMen_3.mid"
    },
    {
      "code": "Djembe_ChapMen_4",
      "type": "dmachine_model",
      "subtype": "proller",
      "family": "Drum",
      "version": "0.0.0.0",
      "sizePagesOrUnits": 12,
      "crc32": 2744811865,
      "bpm": 70,
      "bnum": 44,
      "noteCount": 6,
      "notes": [
        {
          "beat": 0,
          "duration": 0.5,
          "pitch": 36,
          "velocity": 100
        },
        {
          "beat": 0,
          "duration": 0.5,
          "pitch": 48,
          "velocity": 73
        },
        {
          "beat": 1,
          "duration": 0.25,
          "pitch": 42,
          "velocity": 101
        },
        {
          "beat": 2.25,
          "duration": 0.25,
          "pitch": 36,
          "velocity": 50
        },
        {
          "beat": 2.5,
          "duration": 0.5,
          "pitch": 36,
          "velocity": 96
        },
        {
          "beat": 3,
          "duration": 0.5,
          "pitch": 42,
          "velocity": 101
        }
      ],
      "decodedMidiPath": "rhythm_midi_patterns/decoded_pattern_midis/Djembe_ChapMen_4.mid"
    },
    {
      "code": "Djembe_ChapMen_5",
      "type": "dmachine_model",
      "subtype": "proller",
      "family": "Drum",
      "version": "0.0.0.0",
      "sizePagesOrUnits": 14,
      "crc32": 1806336365,
      "bpm": 70,
      "bnum": 44,
      "noteCount": 9,
      "notes": [
        {
          "beat": 0,
          "duration": 0.5,
          "pitch": 36,
          "velocity": 100
        },
        {
          "beat": 0,
          "duration": 0.20000000298023224,
          "pitch": 48,
          "velocity": 80
        },
        {
          "beat": 0.75,
          "duration": 0.25,
          "pitch": 36,
          "velocity": 1
        },
        {
          "beat": 1,
          "duration": 0.5083333253860474,
          "pitch": 42,
          "velocity": 101
        },
        {
          "beat": 1.75,
          "duration": 0.25,
          "pitch": 42,
          "velocity": 50
        },
        {
          "beat": 2.25,
          "duration": 0.25,
          "pitch": 38,
          "velocity": 44
        },
        {
          "beat": 2.5,
          "duration": 0.5,
          "pitch": 36,
          "velocity": 96
        },
        {
          "beat": 3,
          "duration": 0.5541666746139526,
          "pitch": 42,
          "velocity": 101
        },
        {
          "beat": 3.5,
          "duration": 0.5,
          "pitch": 36,
          "velocity": 50
        }
      ],
      "decodedMidiPath": "rhythm_midi_patterns/decoded_pattern_midis/Djembe_ChapMen_5.mid"
    },
    {
      "code": "Djembe_ChapMen_6",
      "type": "dmachine_model",
      "subtype": "proller",
      "family": "Drum",
      "version": "0.0.0.0",
      "sizePagesOrUnits": 13,
      "crc32": 3742799739,
      "bpm": 82,
      "bnum": 44,
      "noteCount": 6,
      "notes": [
        {
          "beat": 0,
          "duration": 0.5,
          "pitch": 36,
          "velocity": 100
        },
        {
          "beat": 0,
          "duration": 0.20000000298023224,
          "pitch": 48,
          "velocity": 80
        },
        {
          "beat": 1,
          "duration": 0.5083333253860474,
          "pitch": 42,
          "velocity": 101
        },
        {
          "beat": 2,
          "duration": 0.25,
          "pitch": 36,
          "velocity": 44
        },
        {
          "beat": 2.5,
          "duration": 0.5,
          "pitch": 36,
          "velocity": 96
        },
        {
          "beat": 3,
          "duration": 0.5541666746139526,
          "pitch": 42,
          "velocity": 101
        }
      ],
      "decodedMidiPath": "rhythm_midi_patterns/decoded_pattern_midis/Djembe_ChapMen_6.mid"
    },
    {
      "code": "Djembe_ChapMen_7",
      "type": "dmachine_model",
      "subtype": "proller",
      "family": "Drum",
      "version": "0.0.0.0",
      "sizePagesOrUnits": 14,
      "crc32": 1004041045,
      "bpm": 82,
      "bnum": 44,
      "noteCount": 10,
      "notes": [
        {
          "beat": 0,
          "duration": 0.5,
          "pitch": 36,
          "velocity": 100
        },
        {
          "beat": 0,
          "duration": 0.20000000298023224,
          "pitch": 48,
          "velocity": 80
        },
        {
          "beat": 0.75,
          "duration": 0.25,
          "pitch": 36,
          "velocity": 1
        },
        {
          "beat": 1,
          "duration": 0.5083333253860474,
          "pitch": 42,
          "velocity": 101
        },
        {
          "beat": 1.75,
          "duration": 0.25,
          "pitch": 36,
          "velocity": 44
        },
        {
          "beat": 2.25,
          "duration": 0.25,
          "pitch": 38,
          "velocity": 1
        },
        {
          "beat": 2.5,
          "duration": 0.5,
          "pitch": 36,
          "velocity": 96
        },
        {
          "beat": 3,
          "duration": 0.5541666746139526,
          "pitch": 42,
          "velocity": 101
        },
        {
          "beat": 3.5,
          "duration": 0.25,
          "pitch": 38,
          "velocity": 1
        },
        {
          "beat": 3.75,
          "duration": 0.25,
          "pitch": 36,
          "velocity": 1
        }
      ],
      "decodedMidiPath": "rhythm_midi_patterns/decoded_pattern_midis/Djembe_ChapMen_7.mid"
    },
    {
      "code": "EJB_ChapMen_1",
      "type": "dmachine_model",
      "subtype": "proller",
      "family": "Drum",
      "version": "1.0.0.1",
      "sizePagesOrUnits": 17,
      "crc32": 1065441407,
      "bpm": 63,
      "bnum": 44,
      "noteCount": 22,
      "notes": [
        {
          "beat": 0,
          "duration": 0.4479166567325592,
          "pitch": 24,
          "velocity": 104
        },
        {
          "beat": 0,
          "duration": 0.24166665971279144,
          "pitch": 41,
          "velocity": 26
        },
        {
          "beat": 0.25,
          "duration": 0.24166665971279144,
          "pitch": 30,
          "velocity": 6
        },
        {
          "beat": 0.5,
          "duration": 0.24166665971279144,
          "pitch": 30,
          "velocity": 26
        },
        {
          "beat": 0.75,
          "duration": 0.24166665971279144,
          "pitch": 30,
          "velocity": 6
        },
        {
          "beat": 1,
          "duration": 0.4479166567325592,
          "pitch": 26,
          "velocity": 104
        },
        {
          "beat": 1,
          "duration": 0.24166665971279144,
          "pitch": 30,
          "velocity": 26
        },
        {
          "beat": 1.25,
          "duration": 0.4479166567325592,
          "pitch": 24,
          "velocity": 104
        },
        {
          "beat": 1.25,
          "duration": 0.24166665971279144,
          "pitch": 30,
          "velocity": 6
        },
        {
          "beat": 1.5,
          "duration": 0.24166665971279144,
          "pitch": 30,
          "velocity": 26
        },
        {
          "beat": 1.75,
          "duration": 0.4479166567325592,
          "pitch": 24,
          "velocity": 104
        },
        {
          "beat": 1.75,
          "duration": 0.24166665971279144,
          "pitch": 30,
          "velocity": 6
        },
        {
          "beat": 2,
          "duration": 0.24166665971279144,
          "pitch": 30,
          "velocity": 26
        },
        {
          "beat": 2.25,
          "duration": 0.24166665971279144,
          "pitch": 30,
          "velocity": 6
        },
        {
          "beat": 2.5,
          "duration": 0.24166665971279144,
          "pitch": 30,
          "velocity": 26
        },
        {
          "beat": 2.75,
          "duration": 0.24166665971279144,
          "pitch": 30,
          "velocity": 6
        },
        {
          "beat": 3,
          "duration": 0.4479166567325592,
          "pitch": 26,
          "velocity": 104
        },
        {
          "beat": 3,
          "duration": 0.24166665971279144,
          "pitch": 30,
          "velocity": 26
        },
        {
          "beat": 3.25,
          "duration": 0.24166665971279144,
          "pitch": 30,
          "velocity": 6
        },
        {
          "beat": 3.5,
          "duration": 0.24166665971279144,
          "pitch": 34,
          "velocity": 15
        },
        {
          "beat": 3.75,
          "duration": 0.2083333283662796,
          "pitch": 24,
          "velocity": 60
        },
        {
          "beat": 3.75,
          "duration": 0.24166665971279144,
          "pitch": 32,
          "velocity": 6
        }
      ],
      "decodedMidiPath": "rhythm_midi_patterns/decoded_pattern_midis/EJB_ChapMen_1.mid"
    },
    {
      "code": "EJB_ChapMen_10",
      "type": "dmachine_model",
      "subtype": "proller",
      "family": "Drum",
      "version": "0.0.0.0",
      "sizePagesOrUnits": 12,
      "crc32": 3674450286,
      "bpm": 115,
      "bnum": 43,
      "noteCount": 9,
      "notes": [
        {
          "beat": 0,
          "duration": 0.837499976158142,
          "pitch": 24,
          "velocity": 100
        },
        {
          "beat": 0,
          "duration": 0.25,
          "pitch": 32,
          "velocity": 1
        },
        {
          "beat": 0,
          "duration": 0.912500023841858,
          "pitch": 41,
          "velocity": 61
        },
        {
          "beat": 1,
          "duration": 0.5333333611488342,
          "pitch": 26,
          "velocity": 52
        },
        {
          "beat": 1,
          "duration": 0.4583333432674408,
          "pitch": 30,
          "velocity": 50
        },
        {
          "beat": 2,
          "duration": 0.5333333611488342,
          "pitch": 26,
          "velocity": 99
        },
        {
          "beat": 2,
          "duration": 0.5104166865348816,
          "pitch": 30,
          "velocity": 62
        },
        {
          "beat": 3,
          "duration": 0.8729166388511658,
          "pitch": 24,
          "velocity": 106
        },
        {
          "beat": 3,
          "duration": 0.40416666865348816,
          "pitch": 30,
          "velocity": 45
        }
      ],
      "decodedMidiPath": "rhythm_midi_patterns/decoded_pattern_midis/EJB_ChapMen_10.mid"
    },
    {
      "code": "EJB_ChapMen_11",
      "type": "dmachine_model",
      "subtype": "proller",
      "family": "Drum",
      "version": "0.0.0.0",
      "sizePagesOrUnits": 11,
      "crc32": 4137291354,
      "bpm": 86,
      "bnum": 86,
      "noteCount": 5,
      "notes": [
        {
          "beat": 0,
          "duration": 1.5,
          "pitch": 24,
          "velocity": 103
        },
        {
          "beat": 1.5,
          "duration": 1,
          "pitch": 26,
          "velocity": 96
        },
        {
          "beat": 1.5,
          "duration": 0.5,
          "pitch": 30,
          "velocity": 57
        },
        {
          "beat": 3,
          "duration": 1.5,
          "pitch": 24,
          "velocity": 110
        },
        {
          "beat": 3,
          "duration": 0.5,
          "pitch": 30,
          "velocity": 57
        }
      ],
      "decodedMidiPath": "rhythm_midi_patterns/decoded_pattern_midis/EJB_ChapMen_11.mid"
    },
    {
      "code": "EJB_ChapMen_12",
      "type": "dmachine_model",
      "subtype": "proller",
      "family": "Drum",
      "version": "1.0.0.1",
      "sizePagesOrUnits": 13,
      "crc32": 23559353,
      "bpm": 75,
      "bnum": 44,
      "noteCount": 22,
      "notes": [
        {
          "beat": 0,
          "duration": 0.14166666567325592,
          "pitch": 24,
          "velocity": 67
        },
        {
          "beat": 0.0020833334419876337,
          "duration": 0.0770833343267441,
          "pitch": 34,
          "velocity": 40
        },
        {
          "beat": 0.25208333134651184,
          "duration": 0.06458333134651184,
          "pitch": 30,
          "velocity": 15
        },
        {
          "beat": 0.5020833611488342,
          "duration": 0.0770833343267441,
          "pitch": 30,
          "velocity": 35
        },
        {
          "beat": 0.7520833611488342,
          "duration": 0.06458333134651184,
          "pitch": 30,
          "velocity": 15
        },
        {
          "beat": 1,
          "duration": 0.1458333283662796,
          "pitch": 26,
          "velocity": 76
        },
        {
          "beat": 1.0020833015441895,
          "duration": 0.0770833343267441,
          "pitch": 30,
          "velocity": 35
        },
        {
          "beat": 1.2520833015441895,
          "duration": 0.06458333134651184,
          "pitch": 30,
          "velocity": 15
        },
        {
          "beat": 1.5020833015441895,
          "duration": 0.0770833343267441,
          "pitch": 30,
          "velocity": 35
        },
        {
          "beat": 1.75,
          "duration": 0.10625000298023224,
          "pitch": 24,
          "velocity": 36
        },
        {
          "beat": 1.7520833015441895,
          "duration": 0.06458333134651184,
          "pitch": 30,
          "velocity": 15
        },
        {
          "beat": 2,
          "duration": 0.10833333432674408,
          "pitch": 24,
          "velocity": 67
        },
        {
          "beat": 2.00208330154419,
          "duration": 0.0770833343267441,
          "pitch": 30,
          "velocity": 35
        },
        {
          "beat": 2.25208330154419,
          "duration": 0.06458333134651184,
          "pitch": 30,
          "velocity": 15
        },
        {
          "beat": 2.50208330154419,
          "duration": 0.0770833343267441,
          "pitch": 30,
          "velocity": 35
        },
        {
          "beat": 2.75208330154419,
          "duration": 0.06458333134651184,
          "pitch": 30,
          "velocity": 15
        },
        {
          "beat": 3,
          "duration": 0.09166666865348816,
          "pitch": 26,
          "velocity": 76
        },
        {
          "beat": 3.00208330154419,
          "duration": 0.0770833343267441,
          "pitch": 30,
          "velocity": 35
        },
        {
          "beat": 3.25208330154419,
          "duration": 0.06458333134651184,
          "pitch": 30,
          "velocity": 15
        },
        {
          "beat": 3.50208330154419,
          "duration": 0.0770833343267441,
          "pitch": 30,
          "velocity": 35
        },
        {
          "beat": 3.75,
          "duration": 0.10625000298023224,
          "pitch": 24,
          "velocity": 36
        },
        {
          "beat": 3.75208330154419,
          "duration": 0.06458333134651184,
          "pitch": 30,
          "velocity": 15
        }
      ],
      "decodedMidiPath": "rhythm_midi_patterns/decoded_pattern_midis/EJB_ChapMen_12.mid"
    },
    {
      "code": "EJB_ChapMen_13",
      "type": "dmachine_model",
      "subtype": "proller",
      "family": "Drum",
      "version": "1.0.0.1",
      "sizePagesOrUnits": 13,
      "crc32": 3564991097,
      "bpm": 75,
      "bnum": 44,
      "noteCount": 22,
      "notes": [
        {
          "beat": 0,
          "duration": 0.14166666567325592,
          "pitch": 24,
          "velocity": 67
        },
        {
          "beat": 0.25208333134651184,
          "duration": 0.06458333134651184,
          "pitch": 30,
          "velocity": 15
        },
        {
          "beat": 0.5020833611488342,
          "duration": 0.0770833343267441,
          "pitch": 30,
          "velocity": 35
        },
        {
          "beat": 0.7520833611488342,
          "duration": 0.06458333134651184,
          "pitch": 30,
          "velocity": 15
        },
        {
          "beat": 1,
          "duration": 0.1458333283662796,
          "pitch": 26,
          "velocity": 76
        },
        {
          "beat": 1.0020833015441895,
          "duration": 0.0770833343267441,
          "pitch": 30,
          "velocity": 35
        },
        {
          "beat": 1.2520833015441895,
          "duration": 0.06458333134651184,
          "pitch": 30,
          "velocity": 15
        },
        {
          "beat": 1.5020833015441895,
          "duration": 0.0770833343267441,
          "pitch": 30,
          "velocity": 35
        },
        {
          "beat": 1.75,
          "duration": 0.10625000298023224,
          "pitch": 24,
          "velocity": 36
        },
        {
          "beat": 1.7520833015441895,
          "duration": 0.06458333134651184,
          "pitch": 30,
          "velocity": 15
        },
        {
          "beat": 2,
          "duration": 0.10833333432674408,
          "pitch": 24,
          "velocity": 67
        },
        {
          "beat": 2.00208330154419,
          "duration": 0.0770833343267441,
          "pitch": 30,
          "velocity": 35
        },
        {
          "beat": 2.25208330154419,
          "duration": 0.06458333134651184,
          "pitch": 30,
          "velocity": 15
        },
        {
          "beat": 2.50208330154419,
          "duration": 0.0770833343267441,
          "pitch": 30,
          "velocity": 35
        },
        {
          "beat": 2.75208330154419,
          "duration": 0.06458333134651184,
          "pitch": 30,
          "velocity": 15
        },
        {
          "beat": 3,
          "duration": 0.09166666865348816,
          "pitch": 26,
          "velocity": 76
        },
        {
          "beat": 3.00208330154419,
          "duration": 0.0770833343267441,
          "pitch": 30,
          "velocity": 35
        },
        {
          "beat": 3.25,
          "duration": 0.10625000298023224,
          "pitch": 24,
          "velocity": 41
        },
        {
          "beat": 3.25208330154419,
          "duration": 0.06458333134651184,
          "pitch": 30,
          "velocity": 15
        },
        {
          "beat": 3.50208330154419,
          "duration": 0.0770833343267441,
          "pitch": 30,
          "velocity": 35
        },
        {
          "beat": 3.75,
          "duration": 0.10625000298023224,
          "pitch": 24,
          "velocity": 36
        },
        {
          "beat": 3.75208330154419,
          "duration": 0.06458333134651184,
          "pitch": 30,
          "velocity": 15
        }
      ],
      "decodedMidiPath": "rhythm_midi_patterns/decoded_pattern_midis/EJB_ChapMen_13.mid"
    },
    {
      "code": "EJB_ChapMen_14",
      "type": "dmachine_model",
      "subtype": "proller",
      "family": "Drum",
      "version": "1.0.0.1",
      "sizePagesOrUnits": 12,
      "crc32": 1459062215,
      "bpm": 115,
      "bnum": 44,
      "noteCount": 11,
      "notes": [
        {
          "beat": 0,
          "duration": 0.21666666865348816,
          "pitch": 24,
          "velocity": 61
        },
        {
          "beat": 0.5,
          "duration": 0.1145833358168602,
          "pitch": 30,
          "velocity": 22
        },
        {
          "beat": 1,
          "duration": 0.20000000298023224,
          "pitch": 26,
          "velocity": 74
        },
        {
          "beat": 1.5,
          "duration": 0.1145833358168602,
          "pitch": 30,
          "velocity": 22
        },
        {
          "beat": 1.75,
          "duration": 0.1145833358168602,
          "pitch": 30,
          "velocity": 11
        },
        {
          "beat": 2,
          "duration": 0.17291666567325592,
          "pitch": 24,
          "velocity": 60
        },
        {
          "beat": 2,
          "duration": 0.15416666865348816,
          "pitch": 30,
          "velocity": 53
        },
        {
          "beat": 2.5,
          "duration": 0.1145833358168602,
          "pitch": 30,
          "velocity": 22
        },
        {
          "beat": 3,
          "duration": 0.18958333134651184,
          "pitch": 26,
          "velocity": 74
        },
        {
          "beat": 3.5,
          "duration": 0.1145833358168602,
          "pitch": 30,
          "velocity": 22
        },
        {
          "beat": 3.75,
          "duration": 0.1145833358168602,
          "pitch": 30,
          "velocity": 11
        }
      ],
      "decodedMidiPath": "rhythm_midi_patterns/decoded_pattern_midis/EJB_ChapMen_14.mid"
    },
    {
      "code": "EJB_ChapMen_15",
      "type": "dmachine_model",
      "subtype": "proller",
      "family": "Drum",
      "version": "1.0.0.1",
      "sizePagesOrUnits": 14,
      "crc32": 4273402180,
      "bpm": 120,
      "bnum": 44,
      "noteCount": 10,
      "notes": [
        {
          "beat": 0,
          "duration": 0.4833333194255829,
          "pitch": 24,
          "velocity": 62
        },
        {
          "beat": 0,
          "duration": 0.5,
          "pitch": 41,
          "velocity": 51
        },
        {
          "beat": 1,
          "duration": 0.4833333194255829,
          "pitch": 24,
          "velocity": 71
        },
        {
          "beat": 1,
          "duration": 0.6979166865348816,
          "pitch": 29,
          "velocity": 59
        },
        {
          "beat": 1,
          "duration": 0.25,
          "pitch": 32,
          "velocity": 19
        },
        {
          "beat": 2,
          "duration": 0.675000011920929,
          "pitch": 24,
          "velocity": 68
        },
        {
          "beat": 2,
          "duration": 0.25,
          "pitch": 32,
          "velocity": 19
        },
        {
          "beat": 3,
          "duration": 0.675000011920929,
          "pitch": 24,
          "velocity": 77
        },
        {
          "beat": 3,
          "duration": 0.6479166746139526,
          "pitch": 29,
          "velocity": 64
        },
        {
          "beat": 3,
          "duration": 0.25,
          "pitch": 32,
          "velocity": 19
        }
      ],
      "decodedMidiPath": "rhythm_midi_patterns/decoded_pattern_midis/EJB_ChapMen_15.mid"
    },
    {
      "code": "EJB_ChapMen_2",
      "type": "dmachine_model",
      "subtype": "proller",
      "family": "Drum",
      "version": "1.0.0.1",
      "sizePagesOrUnits": 13,
      "crc32": 2428872482,
      "bpm": 130,
      "bnum": 44,
      "noteCount": 13,
      "notes": [
        {
          "beat": 0,
          "duration": 0.38333332538604736,
          "pitch": 24,
          "velocity": 97
        },
        {
          "beat": 0,
          "duration": 0.387499988079071,
          "pitch": 41,
          "velocity": 57
        },
        {
          "beat": 0.5,
          "duration": 0.2083333283662796,
          "pitch": 30,
          "velocity": 35
        },
        {
          "beat": 1,
          "duration": 0.3375000059604645,
          "pitch": 29,
          "velocity": 100
        },
        {
          "beat": 1,
          "duration": 0.23749999701976776,
          "pitch": 30,
          "velocity": 72
        },
        {
          "beat": 1.5,
          "duration": 0.25,
          "pitch": 30,
          "velocity": 29
        },
        {
          "beat": 2,
          "duration": 0.33541667461395264,
          "pitch": 24,
          "velocity": 94
        },
        {
          "beat": 2,
          "duration": 0.24791666865348816,
          "pitch": 30,
          "velocity": 65
        },
        {
          "beat": 2.5,
          "duration": 0.34166666865348816,
          "pitch": 24,
          "velocity": 89
        },
        {
          "beat": 2.5,
          "duration": 0.2562499940395355,
          "pitch": 30,
          "velocity": 24
        },
        {
          "beat": 3,
          "duration": 0.34166666865348816,
          "pitch": 29,
          "velocity": 99
        },
        {
          "beat": 3,
          "duration": 0.2645833194255829,
          "pitch": 30,
          "velocity": 61
        },
        {
          "beat": 3.5,
          "duration": 0.21458333730697632,
          "pitch": 30,
          "velocity": 8
        }
      ],
      "decodedMidiPath": "rhythm_midi_patterns/decoded_pattern_midis/EJB_ChapMen_2.mid"
    },
    {
      "code": "EJB_ChapMen_3",
      "type": "dmachine_model",
      "subtype": "proller",
      "family": "Drum",
      "version": "1.0.0.1",
      "sizePagesOrUnits": 14,
      "crc32": 2989821645,
      "bpm": 90,
      "bnum": 44,
      "noteCount": 11,
      "notes": [
        {
          "beat": 0,
          "duration": 0.34166666865348816,
          "pitch": 24,
          "velocity": 97
        },
        {
          "beat": 0,
          "duration": 0.2562499940395355,
          "pitch": 41,
          "velocity": 30
        },
        {
          "beat": 1,
          "duration": 0.30416667461395264,
          "pitch": 29,
          "velocity": 96
        },
        {
          "beat": 1,
          "duration": 0.25,
          "pitch": 34,
          "velocity": 1
        },
        {
          "beat": 1.75,
          "duration": 0.25,
          "pitch": 27,
          "velocity": 30
        },
        {
          "beat": 2,
          "duration": 0.17083333432674408,
          "pitch": 24,
          "velocity": 70
        },
        {
          "beat": 2,
          "duration": 0.25,
          "pitch": 44,
          "velocity": 1
        },
        {
          "beat": 2.5,
          "duration": 0.20208333432674408,
          "pitch": 24,
          "velocity": 109
        },
        {
          "beat": 3,
          "duration": 0.268750011920929,
          "pitch": 29,
          "velocity": 115
        },
        {
          "beat": 3,
          "duration": 0.25,
          "pitch": 34,
          "velocity": 1
        },
        {
          "beat": 3.75,
          "duration": 0.20416666567325592,
          "pitch": 26,
          "velocity": 18
        }
      ],
      "decodedMidiPath": "rhythm_midi_patterns/decoded_pattern_midis/EJB_ChapMen_3.mid"
    },
    {
      "code": "EJB_ChapMen_4",
      "type": "dmachine_model",
      "subtype": "proller",
      "family": "Drum",
      "version": "0.0.0.0",
      "sizePagesOrUnits": 11,
      "crc32": 2814198832,
      "bpm": 86,
      "bnum": 86,
      "noteCount": 4,
      "notes": [
        {
          "beat": 0,
          "duration": 1.5,
          "pitch": 24,
          "velocity": 103
        },
        {
          "beat": 1.5,
          "duration": 1,
          "pitch": 29,
          "velocity": 96
        },
        {
          "beat": 2.5,
          "duration": 0.5,
          "pitch": 24,
          "velocity": 98
        },
        {
          "beat": 3,
          "duration": 1.5,
          "pitch": 24,
          "velocity": 110
        }
      ],
      "decodedMidiPath": "rhythm_midi_patterns/decoded_pattern_midis/EJB_ChapMen_4.mid"
    },
    {
      "code": "EJB_ChapMen_5",
      "type": "dmachine_model",
      "subtype": "proller",
      "family": "Drum",
      "version": "0.0.0.0",
      "sizePagesOrUnits": 13,
      "crc32": 3933820404,
      "bpm": 85,
      "bnum": 44,
      "noteCount": 8,
      "notes": [
        {
          "beat": 0,
          "duration": 0.762499988079071,
          "pitch": 24,
          "velocity": 92
        },
        {
          "beat": 0,
          "duration": 1.125,
          "pitch": 41,
          "velocity": 89
        },
        {
          "beat": 1,
          "duration": 0.6979166865348816,
          "pitch": 26,
          "velocity": 98
        },
        {
          "beat": 1,
          "duration": 0.7270833253860474,
          "pitch": 30,
          "velocity": 75
        },
        {
          "beat": 2,
          "duration": 0.675000011920929,
          "pitch": 24,
          "velocity": 95
        },
        {
          "beat": 2,
          "duration": 0.293749988079071,
          "pitch": 30,
          "velocity": 50
        },
        {
          "beat": 3,
          "duration": 0.6479166746139526,
          "pitch": 26,
          "velocity": 95
        },
        {
          "beat": 3,
          "duration": 0.693750023841858,
          "pitch": 30,
          "velocity": 81
        }
      ],
      "decodedMidiPath": "rhythm_midi_patterns/decoded_pattern_midis/EJB_ChapMen_5.mid"
    },
    {
      "code": "EJB_ChapMen_6",
      "type": "dmachine_model",
      "subtype": "proller",
      "family": "Drum",
      "version": "0.0.0.0",
      "sizePagesOrUnits": 14,
      "crc32": 1201319453,
      "bpm": 85,
      "bnum": 44,
      "noteCount": 12,
      "notes": [
        {
          "beat": 0,
          "duration": 0.762499988079071,
          "pitch": 24,
          "velocity": 92
        },
        {
          "beat": 0,
          "duration": 1.125,
          "pitch": 41,
          "velocity": 89
        },
        {
          "beat": 0.5,
          "duration": 0.24791666865348816,
          "pitch": 30,
          "velocity": 38
        },
        {
          "beat": 1,
          "duration": 0.6979166865348816,
          "pitch": 26,
          "velocity": 98
        },
        {
          "beat": 1,
          "duration": 0.34166666865348816,
          "pitch": 30,
          "velocity": 71
        },
        {
          "beat": 1.5,
          "duration": 0.3083333373069763,
          "pitch": 30,
          "velocity": 30
        },
        {
          "beat": 2,
          "duration": 0.675000011920929,
          "pitch": 24,
          "velocity": 95
        },
        {
          "beat": 2,
          "duration": 0.4166666567325592,
          "pitch": 30,
          "velocity": 63
        },
        {
          "beat": 2.5,
          "duration": 0.24791666865348816,
          "pitch": 30,
          "velocity": 38
        },
        {
          "beat": 3,
          "duration": 0.6479166746139526,
          "pitch": 26,
          "velocity": 95
        },
        {
          "beat": 3,
          "duration": 0.34375,
          "pitch": 30,
          "velocity": 64
        },
        {
          "beat": 3.5,
          "duration": 0.3083333373069763,
          "pitch": 30,
          "velocity": 30
        }
      ],
      "decodedMidiPath": "rhythm_midi_patterns/decoded_pattern_midis/EJB_ChapMen_6.mid"
    },
    {
      "code": "EJB_ChapMen_7",
      "type": "dmachine_model",
      "subtype": "proller",
      "family": "Drum",
      "version": "0.0.0.0",
      "sizePagesOrUnits": 16,
      "crc32": 2027086941,
      "bpm": 85,
      "bnum": 44,
      "noteCount": 20,
      "notes": [
        {
          "beat": 0,
          "duration": 0.762499988079071,
          "pitch": 24,
          "velocity": 92
        },
        {
          "beat": 0,
          "duration": 1.125,
          "pitch": 41,
          "velocity": 89
        },
        {
          "beat": 0.25,
          "duration": 0.18125000596046448,
          "pitch": 30,
          "velocity": 34
        },
        {
          "beat": 0.5,
          "duration": 0.18125000596046448,
          "pitch": 30,
          "velocity": 34
        },
        {
          "beat": 0.75,
          "duration": 0.15208333730697632,
          "pitch": 30,
          "velocity": 27
        },
        {
          "beat": 1,
          "duration": 0.6979166865348816,
          "pitch": 26,
          "velocity": 98
        },
        {
          "beat": 1,
          "duration": 0.21666666865348816,
          "pitch": 30,
          "velocity": 62
        },
        {
          "beat": 1.25,
          "duration": 0.18125000596046448,
          "pitch": 30,
          "velocity": 34
        },
        {
          "beat": 1.5,
          "duration": 0.23333333432674408,
          "pitch": 30,
          "velocity": 27
        },
        {
          "beat": 1.75,
          "duration": 0.18125000596046448,
          "pitch": 30,
          "velocity": 51
        },
        {
          "beat": 2,
          "duration": 0.675000011920929,
          "pitch": 24,
          "velocity": 95
        },
        {
          "beat": 2,
          "duration": 0.21666666865348816,
          "pitch": 30,
          "velocity": 35
        },
        {
          "beat": 2.25,
          "duration": 0.18125000596046448,
          "pitch": 30,
          "velocity": 50
        },
        {
          "beat": 2.5,
          "duration": 0.23333333432674408,
          "pitch": 30,
          "velocity": 27
        },
        {
          "beat": 2.75,
          "duration": 0.18125000596046448,
          "pitch": 30,
          "velocity": 34
        },
        {
          "beat": 3,
          "duration": 0.6479166746139526,
          "pitch": 26,
          "velocity": 95
        },
        {
          "beat": 3,
          "duration": 0.1979166716337204,
          "pitch": 30,
          "velocity": 55
        },
        {
          "beat": 3.25,
          "duration": 0.23333333432674408,
          "pitch": 30,
          "velocity": 27
        },
        {
          "beat": 3.5,
          "duration": 0.21458333730697632,
          "pitch": 30,
          "velocity": 46
        },
        {
          "beat": 3.75,
          "duration": 0.19583334028720856,
          "pitch": 30,
          "velocity": 23
        }
      ],
      "decodedMidiPath": "rhythm_midi_patterns/decoded_pattern_midis/EJB_ChapMen_7.mid"
    },
    {
      "code": "EJB_ChapMen_8",
      "type": "dmachine_model",
      "subtype": "proller",
      "family": "Drum",
      "version": "0.0.0.0",
      "sizePagesOrUnits": 11,
      "crc32": 3445643448,
      "bpm": 115,
      "bnum": 43,
      "noteCount": 8,
      "notes": [
        {
          "beat": 0,
          "duration": 0.837499976158142,
          "pitch": 24,
          "velocity": 100
        },
        {
          "beat": 0,
          "duration": 0.25,
          "pitch": 32,
          "velocity": 1
        },
        {
          "beat": 0,
          "duration": 0.912500023841858,
          "pitch": 41,
          "velocity": 61
        },
        {
          "beat": 1,
          "duration": 0.4583333432674408,
          "pitch": 30,
          "velocity": 46
        },
        {
          "beat": 2,
          "duration": 0.5333333611488342,
          "pitch": 26,
          "velocity": 99
        },
        {
          "beat": 2,
          "duration": 0.5104166865348816,
          "pitch": 30,
          "velocity": 58
        },
        {
          "beat": 3,
          "duration": 0.8729166388511658,
          "pitch": 24,
          "velocity": 106
        },
        {
          "beat": 3,
          "duration": 0.40416666865348816,
          "pitch": 30,
          "velocity": 41
        }
      ],
      "decodedMidiPath": "rhythm_midi_patterns/decoded_pattern_midis/EJB_ChapMen_8.mid"
    },
    {
      "code": "EJB_ChapMen_9",
      "type": "dmachine_model",
      "subtype": "proller",
      "family": "Drum",
      "version": "0.0.0.0",
      "sizePagesOrUnits": 12,
      "crc32": 3098357437,
      "bpm": 86,
      "bnum": 86,
      "noteCount": 10,
      "notes": [
        {
          "beat": 0,
          "duration": 1.5,
          "pitch": 24,
          "velocity": 103
        },
        {
          "beat": 0.5,
          "duration": 0.375,
          "pitch": 30,
          "velocity": 41
        },
        {
          "beat": 1,
          "duration": 0.375,
          "pitch": 30,
          "velocity": 21
        },
        {
          "beat": 1.5,
          "duration": 1,
          "pitch": 26,
          "velocity": 96
        },
        {
          "beat": 1.5,
          "duration": 0.375,
          "pitch": 30,
          "velocity": 41
        },
        {
          "beat": 2,
          "duration": 0.375,
          "pitch": 30,
          "velocity": 21
        },
        {
          "beat": 2.5,
          "duration": 0.375,
          "pitch": 30,
          "velocity": 41
        },
        {
          "beat": 3,
          "duration": 1.5,
          "pitch": 24,
          "velocity": 110
        },
        {
          "beat": 3,
          "duration": 0.375,
          "pitch": 30,
          "velocity": 21
        },
        {
          "beat": 3.5,
          "duration": 0.375,
          "pitch": 30,
          "velocity": 41
        }
      ],
      "decodedMidiPath": "rhythm_midi_patterns/decoded_pattern_midis/EJB_ChapMen_9.mid"
    },
    {
      "code": "EMO_ChapMen_1",
      "type": "dmachine_model",
      "subtype": "proller",
      "family": "Drum",
      "version": "1.0.0.1",
      "sizePagesOrUnits": 15,
      "crc32": 1391832751,
      "bpm": 75,
      "bnum": 44,
      "noteCount": 22,
      "notes": [
        {
          "beat": 0,
          "duration": 0.22083333134651184,
          "pitch": 24,
          "velocity": 92
        },
        {
          "beat": 0,
          "duration": 0.22083333134651184,
          "pitch": 35,
          "velocity": 40
        },
        {
          "beat": 0,
          "duration": 0.22083333134651184,
          "pitch": 41,
          "velocity": 15
        },
        {
          "beat": 0.5,
          "duration": 0.22083333134651184,
          "pitch": 35,
          "velocity": 12
        },
        {
          "beat": 1,
          "duration": 0.22083333134651184,
          "pitch": 31,
          "velocity": 65
        },
        {
          "beat": 1,
          "duration": 0.22083333134651184,
          "pitch": 35,
          "velocity": 12
        },
        {
          "beat": 1.5,
          "duration": 0.22083333134651184,
          "pitch": 24,
          "velocity": 92
        },
        {
          "beat": 1.5,
          "duration": 0.22083333134651184,
          "pitch": 35,
          "velocity": 40
        },
        {
          "beat": 1.75,
          "duration": 0.22083333134651184,
          "pitch": 28,
          "velocity": 20
        },
        {
          "beat": 2,
          "duration": 0.22083333134651184,
          "pitch": 35,
          "velocity": 12
        },
        {
          "beat": 2.25,
          "duration": 0.22083333134651184,
          "pitch": 30,
          "velocity": 24
        },
        {
          "beat": 2.5,
          "duration": 0.22083333134651184,
          "pitch": 24,
          "velocity": 92
        },
        {
          "beat": 2.5,
          "duration": 0.22083333134651184,
          "pitch": 35,
          "velocity": 12
        },
        {
          "beat": 3,
          "duration": 0.22083333134651184,
          "pitch": 31,
          "velocity": 65
        },
        {
          "beat": 3,
          "duration": 0.03541666641831398,
          "pitch": 35,
          "velocity": 30
        },
        {
          "beat": 3.035416603088379,
          "duration": 0.03541666641831398,
          "pitch": 36,
          "velocity": 12
        },
        {
          "beat": 3.075000047683716,
          "duration": 0.03541666641831398,
          "pitch": 36,
          "velocity": 7
        },
        {
          "beat": 3.116666555404663,
          "duration": 0.03541666641831398,
          "pitch": 37,
          "velocity": 6
        },
        {
          "beat": 3.160416603088379,
          "duration": 0.03541666641831398,
          "pitch": 37,
          "velocity": 1
        },
        {
          "beat": 3.206249952316284,
          "duration": 0.03541666641831398,
          "pitch": 38,
          "velocity": 1
        },
        {
          "beat": 3.25,
          "duration": 0.22083333134651184,
          "pitch": 24,
          "velocity": 92
        },
        {
          "beat": 3.5,
          "duration": 0.22083333134651184,
          "pitch": 35,
          "velocity": 40
        }
      ],
      "decodedMidiPath": "rhythm_midi_patterns/decoded_pattern_midis/EMO_ChapMen_1.mid"
    },
    {
      "code": "EMO_ChapMen_10",
      "type": "dmachine_model",
      "subtype": "proller",
      "family": "Drum",
      "version": "1.0.0.1",
      "sizePagesOrUnits": 12,
      "crc32": 2399651651,
      "bpm": 67,
      "bnum": 86,
      "noteCount": 15,
      "notes": [
        {
          "beat": 0,
          "duration": 0.1354166716337204,
          "pitch": 24,
          "velocity": 60
        },
        {
          "beat": 0,
          "duration": 0.09375,
          "pitch": 42,
          "velocity": 35
        },
        {
          "beat": 0.5020833611488342,
          "duration": 0.05416666716337204,
          "pitch": 37,
          "velocity": 10
        },
        {
          "beat": 1.0020833015441895,
          "duration": 0.0770833343267441,
          "pitch": 37,
          "velocity": 5
        },
        {
          "beat": 1.350000023841858,
          "duration": 0.10625000298023224,
          "pitch": 24,
          "velocity": 25
        },
        {
          "beat": 1.5,
          "duration": 0.11666666716337204,
          "pitch": 30,
          "velocity": 51
        },
        {
          "beat": 1.5,
          "duration": 0.11666666716337204,
          "pitch": 34,
          "velocity": 51
        },
        {
          "beat": 1.5,
          "duration": 0.09375,
          "pitch": 37,
          "velocity": 35
        },
        {
          "beat": 2.00208330154419,
          "duration": 0.05416666716337204,
          "pitch": 37,
          "velocity": 10
        },
        {
          "beat": 2.5,
          "duration": 0.1354166716337204,
          "pitch": 24,
          "velocity": 60
        },
        {
          "beat": 2.50208330154419,
          "duration": 0.0770833343267441,
          "pitch": 37,
          "velocity": 5
        },
        {
          "beat": 2.847916603088379,
          "duration": 0.10625000298023224,
          "pitch": 24,
          "velocity": 25
        },
        {
          "beat": 3,
          "duration": 0.10625000298023224,
          "pitch": 24,
          "velocity": 59
        },
        {
          "beat": 3,
          "duration": 0.09375,
          "pitch": 37,
          "velocity": 35
        },
        {
          "beat": 3.50208330154419,
          "duration": 0.05416666716337204,
          "pitch": 37,
          "velocity": 10
        }
      ],
      "decodedMidiPath": "rhythm_midi_patterns/decoded_pattern_midis/EMO_ChapMen_10.mid"
    },
    {
      "code": "EMO_ChapMen_11",
      "type": "dmachine_model",
      "subtype": "proller",
      "family": "Drum",
      "version": "1.0.0.1",
      "sizePagesOrUnits": 12,
      "crc32": 2136859117,
      "bpm": 81,
      "bnum": 44,
      "noteCount": 14,
      "notes": [
        {
          "beat": 0,
          "duration": 0.4124999940395355,
          "pitch": 24,
          "velocity": 74
        },
        {
          "beat": 0,
          "duration": 0.09791667014360428,
          "pitch": 37,
          "velocity": 51
        },
        {
          "beat": 0.5,
          "duration": 0.08541666716337204,
          "pitch": 37,
          "velocity": 15
        },
        {
          "beat": 1,
          "duration": 0.37291666865348816,
          "pitch": 30,
          "velocity": 76
        },
        {
          "beat": 1,
          "duration": 0.37291666865348816,
          "pitch": 32,
          "velocity": 36
        },
        {
          "beat": 1,
          "duration": 0.09791667014360428,
          "pitch": 37,
          "velocity": 51
        },
        {
          "beat": 1.5,
          "duration": 0.7541666626930237,
          "pitch": 24,
          "velocity": 64
        },
        {
          "beat": 1.5,
          "duration": 0.08541666716337204,
          "pitch": 37,
          "velocity": 15
        },
        {
          "beat": 2,
          "duration": 0.09791667014360428,
          "pitch": 37,
          "velocity": 51
        },
        {
          "beat": 2.5,
          "duration": 0.08541666716337204,
          "pitch": 37,
          "velocity": 15
        },
        {
          "beat": 3,
          "duration": 0.1666666716337204,
          "pitch": 30,
          "velocity": 80
        },
        {
          "beat": 3,
          "duration": 0.1666666716337204,
          "pitch": 32,
          "velocity": 40
        },
        {
          "beat": 3,
          "duration": 0.09791667014360428,
          "pitch": 37,
          "velocity": 51
        },
        {
          "beat": 3.5,
          "duration": 0.08541666716337204,
          "pitch": 37,
          "velocity": 15
        }
      ],
      "decodedMidiPath": "rhythm_midi_patterns/decoded_pattern_midis/EMO_ChapMen_11.mid"
    },
    {
      "code": "EMO_ChapMen_12",
      "type": "dmachine_model",
      "subtype": "proller",
      "family": "Drum",
      "version": "1.0.0.1",
      "sizePagesOrUnits": 13,
      "crc32": 975008300,
      "bpm": 81,
      "bnum": 44,
      "noteCount": 15,
      "notes": [
        {
          "beat": 0,
          "duration": 0.4124999940395355,
          "pitch": 24,
          "velocity": 74
        },
        {
          "beat": 0,
          "duration": 0.09791667014360428,
          "pitch": 42,
          "velocity": 38
        },
        {
          "beat": 0.5,
          "duration": 0.08541666716337204,
          "pitch": 37,
          "velocity": 15
        },
        {
          "beat": 1,
          "duration": 0.37291666865348816,
          "pitch": 30,
          "velocity": 76
        },
        {
          "beat": 1,
          "duration": 0.37291666865348816,
          "pitch": 32,
          "velocity": 36
        },
        {
          "beat": 1,
          "duration": 0.09791667014360428,
          "pitch": 37,
          "velocity": 51
        },
        {
          "beat": 1.5,
          "duration": 0.7541666626930237,
          "pitch": 24,
          "velocity": 64
        },
        {
          "beat": 1.5,
          "duration": 0.08541666716337204,
          "pitch": 37,
          "velocity": 15
        },
        {
          "beat": 2,
          "duration": 0.08541666716337204,
          "pitch": 37,
          "velocity": 10
        },
        {
          "beat": 2.5,
          "duration": 0.08541666716337204,
          "pitch": 37,
          "velocity": 15
        },
        {
          "beat": 3,
          "duration": 0.1666666716337204,
          "pitch": 30,
          "velocity": 80
        },
        {
          "beat": 3,
          "duration": 0.1666666716337204,
          "pitch": 32,
          "velocity": 40
        },
        {
          "beat": 3,
          "duration": 0.09791667014360428,
          "pitch": 37,
          "velocity": 51
        },
        {
          "beat": 3.25,
          "duration": 0.08541666716337204,
          "pitch": 37,
          "velocity": 15
        },
        {
          "beat": 3.75,
          "duration": 0.08541666716337204,
          "pitch": 37,
          "velocity": 15
        }
      ],
      "decodedMidiPath": "rhythm_midi_patterns/decoded_pattern_midis/EMO_ChapMen_12.mid"
    },
    {
      "code": "EMO_ChapMen_13",
      "type": "dmachine_model",
      "subtype": "proller",
      "family": "Drum",
      "version": "1.0.0.1",
      "sizePagesOrUnits": 17,
      "crc32": 1674220013,
      "bpm": 73,
      "bnum": 44,
      "noteCount": 13,
      "notes": [
        {
          "beat": 0,
          "duration": 0.5,
          "pitch": 25,
          "velocity": 73
        },
        {
          "beat": 0,
          "duration": 0.25,
          "pitch": 39,
          "velocity": 1
        },
        {
          "beat": 0.5,
          "duration": 0.25,
          "pitch": 39,
          "velocity": 42
        },
        {
          "beat": 0.75,
          "duration": 0.25,
          "pitch": 38,
          "velocity": 42
        },
        {
          "beat": 1,
          "duration": 0.75,
          "pitch": 31,
          "velocity": 73
        },
        {
          "beat": 1,
          "duration": 0.25,
          "pitch": 39,
          "velocity": 1
        },
        {
          "beat": 1.75,
          "duration": 0.25,
          "pitch": 25,
          "velocity": 73
        },
        {
          "beat": 2,
          "duration": 0.25,
          "pitch": 25,
          "velocity": 73
        },
        {
          "beat": 2.75,
          "duration": 0.25,
          "pitch": 31,
          "velocity": 73
        },
        {
          "beat": 3,
          "duration": 0.25,
          "pitch": 35,
          "velocity": 42
        },
        {
          "beat": 3.25,
          "duration": 0.25,
          "pitch": 38,
          "velocity": 1
        },
        {
          "beat": 3.5,
          "duration": 0.25,
          "pitch": 39,
          "velocity": 1
        },
        {
          "beat": 3.75,
          "duration": 0.25,
          "pitch": 38,
          "velocity": 1
        }
      ],
      "decodedMidiPath": "rhythm_midi_patterns/decoded_pattern_midis/EMO_ChapMen_13.mid"
    },
    {
      "code": "EMO_ChapMen_14",
      "type": "dmachine_model",
      "subtype": "proller",
      "family": "Drum",
      "version": "1.0.0.1",
      "sizePagesOrUnits": 22,
      "crc32": 3769445389,
      "bpm": 73,
      "bnum": 44,
      "noteCount": 31,
      "notes": [
        {
          "beat": 0,
          "duration": 0.5,
          "pitch": 24,
          "velocity": 73
        },
        {
          "beat": 0,
          "duration": 0.125,
          "pitch": 36,
          "velocity": 18
        },
        {
          "beat": 0,
          "duration": 0.25,
          "pitch": 42,
          "velocity": 1
        },
        {
          "beat": 0,
          "duration": 0.25,
          "pitch": 47,
          "velocity": 1
        },
        {
          "beat": 0.125,
          "duration": 0.125,
          "pitch": 35,
          "velocity": 18
        },
        {
          "beat": 0.25,
          "duration": 0.25,
          "pitch": 37,
          "velocity": 18
        },
        {
          "beat": 0.5,
          "duration": 0.25,
          "pitch": 36,
          "velocity": 18
        },
        {
          "beat": 0.5,
          "duration": 0.25,
          "pitch": 39,
          "velocity": 42
        },
        {
          "beat": 0.75,
          "duration": 0.25,
          "pitch": 38,
          "velocity": 18
        },
        {
          "beat": 1,
          "duration": 0.5,
          "pitch": 27,
          "velocity": 73
        },
        {
          "beat": 1,
          "duration": 0.75,
          "pitch": 31,
          "velocity": 37
        },
        {
          "beat": 1,
          "duration": 0.25,
          "pitch": 36,
          "velocity": 18
        },
        {
          "beat": 1,
          "duration": 0.25,
          "pitch": 39,
          "velocity": 1
        },
        {
          "beat": 1.25,
          "duration": 0.25,
          "pitch": 37,
          "velocity": 18
        },
        {
          "beat": 1.5,
          "duration": 0.25,
          "pitch": 36,
          "velocity": 18
        },
        {
          "beat": 1.75,
          "duration": 0.25,
          "pitch": 24,
          "velocity": 73
        },
        {
          "beat": 1.75,
          "duration": 0.25,
          "pitch": 38,
          "velocity": 18
        },
        {
          "beat": 2,
          "duration": 0.25,
          "pitch": 24,
          "velocity": 73
        },
        {
          "beat": 2,
          "duration": 0.25,
          "pitch": 36,
          "velocity": 18
        },
        {
          "beat": 2.25,
          "duration": 0.25,
          "pitch": 37,
          "velocity": 18
        },
        {
          "beat": 2.5,
          "duration": 0.25,
          "pitch": 36,
          "velocity": 18
        },
        {
          "beat": 2.75,
          "duration": 0.25,
          "pitch": 31,
          "velocity": 37
        },
        {
          "beat": 2.75,
          "duration": 0.25,
          "pitch": 38,
          "velocity": 18
        },
        {
          "beat": 3,
          "duration": 0.5,
          "pitch": 27,
          "velocity": 73
        },
        {
          "beat": 3,
          "duration": 0.25,
          "pitch": 37,
          "velocity": 18
        },
        {
          "beat": 3.25,
          "duration": 0.125,
          "pitch": 37,
          "velocity": 18
        },
        {
          "beat": 3.375,
          "duration": 0.125,
          "pitch": 38,
          "velocity": 18
        },
        {
          "beat": 3.5,
          "duration": 0.25,
          "pitch": 36,
          "velocity": 18
        },
        {
          "beat": 3.5,
          "duration": 0.25,
          "pitch": 39,
          "velocity": 1
        },
        {
          "beat": 3.75,
          "duration": 0.125,
          "pitch": 37,
          "velocity": 18
        },
        {
          "beat": 3.875,
          "duration": 0.125,
          "pitch": 38,
          "velocity": 18
        }
      ],
      "decodedMidiPath": "rhythm_midi_patterns/decoded_pattern_midis/EMO_ChapMen_14.mid"
    },
    {
      "code": "EMO_ChapMen_15",
      "type": "dmachine_model",
      "subtype": "proller",
      "family": "Drum",
      "version": "1.0.0.1",
      "sizePagesOrUnits": 17,
      "crc32": 2722919920,
      "bpm": 96,
      "bnum": 44,
      "noteCount": 11,
      "notes": [
        {
          "beat": 0,
          "duration": 0.387499988079071,
          "pitch": 25,
          "velocity": 73
        },
        {
          "beat": 0.5,
          "duration": 0.13750000298023224,
          "pitch": 35,
          "velocity": 1
        },
        {
          "beat": 0.824999988079071,
          "duration": 0.13750000298023224,
          "pitch": 25,
          "velocity": 73
        },
        {
          "beat": 0.8333333134651184,
          "duration": 0.13750000298023224,
          "pitch": 37,
          "velocity": 1
        },
        {
          "beat": 1,
          "duration": 0.637499988079071,
          "pitch": 31,
          "velocity": 73
        },
        {
          "beat": 1,
          "duration": 0.13750000298023224,
          "pitch": 38,
          "velocity": 1
        },
        {
          "beat": 2,
          "duration": 0.387499988079071,
          "pitch": 25,
          "velocity": 73
        },
        {
          "beat": 2.5,
          "duration": 0.13750000298023224,
          "pitch": 35,
          "velocity": 1
        },
        {
          "beat": 2.825000047683716,
          "duration": 0.13750000298023224,
          "pitch": 25,
          "velocity": 73
        },
        {
          "beat": 3,
          "duration": 0.637499988079071,
          "pitch": 31,
          "velocity": 73
        },
        {
          "beat": 3,
          "duration": 0.13750000298023224,
          "pitch": 38,
          "velocity": 1
        }
      ],
      "decodedMidiPath": "rhythm_midi_patterns/decoded_pattern_midis/EMO_ChapMen_15.mid"
    },
    {
      "code": "EMO_ChapMen_16",
      "type": "dmachine_model",
      "subtype": "proller",
      "family": "Drum",
      "version": "1.0.0.1",
      "sizePagesOrUnits": 19,
      "crc32": 3951359767,
      "bpm": 96,
      "bnum": 44,
      "noteCount": 16,
      "notes": [
        {
          "beat": 0,
          "duration": 0.387499988079071,
          "pitch": 24,
          "velocity": 73
        },
        {
          "beat": 0,
          "duration": 0.13750000298023224,
          "pitch": 41,
          "velocity": 5
        },
        {
          "beat": 0.5,
          "duration": 0.13750000298023224,
          "pitch": 35,
          "velocity": 1
        },
        {
          "beat": 0.824999988079071,
          "duration": 0.13750000298023224,
          "pitch": 24,
          "velocity": 73
        },
        {
          "beat": 0.8333333134651184,
          "duration": 0.13750000298023224,
          "pitch": 37,
          "velocity": 1
        },
        {
          "beat": 1,
          "duration": 0.637499988079071,
          "pitch": 27,
          "velocity": 25
        },
        {
          "beat": 1,
          "duration": 0.637499988079071,
          "pitch": 31,
          "velocity": 73
        },
        {
          "beat": 1,
          "duration": 0.13750000298023224,
          "pitch": 38,
          "velocity": 1
        },
        {
          "beat": 1.5,
          "duration": 0.13750000298023224,
          "pitch": 36,
          "velocity": 1
        },
        {
          "beat": 2,
          "duration": 0.387499988079071,
          "pitch": 24,
          "velocity": 73
        },
        {
          "beat": 2.5,
          "duration": 0.13750000298023224,
          "pitch": 35,
          "velocity": 1
        },
        {
          "beat": 2.825000047683716,
          "duration": 0.13750000298023224,
          "pitch": 24,
          "velocity": 73
        },
        {
          "beat": 3,
          "duration": 0.637499988079071,
          "pitch": 27,
          "velocity": 25
        },
        {
          "beat": 3,
          "duration": 0.637499988079071,
          "pitch": 31,
          "velocity": 73
        },
        {
          "beat": 3,
          "duration": 0.13750000298023224,
          "pitch": 38,
          "velocity": 1
        },
        {
          "beat": 3.5,
          "duration": 0.13750000298023224,
          "pitch": 36,
          "velocity": 1
        }
      ],
      "decodedMidiPath": "rhythm_midi_patterns/decoded_pattern_midis/EMO_ChapMen_16.mid"
    },
    {
      "code": "EMO_ChapMen_2",
      "type": "dmachine_model",
      "subtype": "proller",
      "family": "Drum",
      "version": "1.0.0.1",
      "sizePagesOrUnits": 16,
      "crc32": 1832960557,
      "bpm": 95,
      "bnum": 44,
      "noteCount": 23,
      "notes": [
        {
          "beat": 0,
          "duration": 0.22083333134651184,
          "pitch": 24,
          "velocity": 66
        },
        {
          "beat": 0,
          "duration": 0.1666666716337204,
          "pitch": 35,
          "velocity": 1
        },
        {
          "beat": 0,
          "duration": 0.4020833373069763,
          "pitch": 39,
          "velocity": 36
        },
        {
          "beat": 0.5,
          "duration": 0.22083333134651184,
          "pitch": 24,
          "velocity": 36
        },
        {
          "beat": 0.5,
          "duration": 0.15208333730697632,
          "pitch": 38,
          "velocity": 1
        },
        {
          "beat": 0.5,
          "duration": 0.4020833373069763,
          "pitch": 39,
          "velocity": 9
        },
        {
          "beat": 1,
          "duration": 0.22083333134651184,
          "pitch": 27,
          "velocity": 66
        },
        {
          "beat": 1,
          "duration": 0.1666666716337204,
          "pitch": 35,
          "velocity": 1
        },
        {
          "beat": 1,
          "duration": 0.4020833373069763,
          "pitch": 39,
          "velocity": 36
        },
        {
          "beat": 1.5,
          "duration": 0.15208333730697632,
          "pitch": 38,
          "velocity": 1
        },
        {
          "beat": 1.5,
          "duration": 0.4020833373069763,
          "pitch": 39,
          "velocity": 9
        },
        {
          "beat": 1.850000023841858,
          "duration": 0.15000000596046448,
          "pitch": 24,
          "velocity": 47
        },
        {
          "beat": 2,
          "duration": 0.25,
          "pitch": 24,
          "velocity": 66
        },
        {
          "beat": 2,
          "duration": 0.1666666716337204,
          "pitch": 35,
          "velocity": 1
        },
        {
          "beat": 2,
          "duration": 0.4020833373069763,
          "pitch": 39,
          "velocity": 36
        },
        {
          "beat": 2.5,
          "duration": 0.25,
          "pitch": 24,
          "velocity": 66
        },
        {
          "beat": 2.5,
          "duration": 0.15208333730697632,
          "pitch": 38,
          "velocity": 1
        },
        {
          "beat": 2.5,
          "duration": 0.4020833373069763,
          "pitch": 39,
          "velocity": 9
        },
        {
          "beat": 3,
          "duration": 0.25,
          "pitch": 27,
          "velocity": 66
        },
        {
          "beat": 3,
          "duration": 0.1666666716337204,
          "pitch": 35,
          "velocity": 1
        },
        {
          "beat": 3,
          "duration": 0.4020833373069763,
          "pitch": 39,
          "velocity": 36
        },
        {
          "beat": 3.5,
          "duration": 0.15208333730697632,
          "pitch": 38,
          "velocity": 1
        },
        {
          "beat": 3.5,
          "duration": 0.4020833373069763,
          "pitch": 39,
          "velocity": 9
        }
      ],
      "decodedMidiPath": "rhythm_midi_patterns/decoded_pattern_midis/EMO_ChapMen_2.mid"
    },
    {
      "code": "EMO_ChapMen_3",
      "type": "dmachine_model",
      "subtype": "proller",
      "family": "Drum",
      "version": "0.0.0.0",
      "sizePagesOrUnits": 14,
      "crc32": 1133504501,
      "bpm": 85,
      "bnum": 44,
      "noteCount": 8,
      "notes": [
        {
          "beat": 0,
          "duration": 0.20000000298023224,
          "pitch": 24,
          "velocity": 85
        },
        {
          "beat": 0,
          "duration": 0.3499999940395355,
          "pitch": 42,
          "velocity": 36
        },
        {
          "beat": 1,
          "duration": 0.3333333432674408,
          "pitch": 27,
          "velocity": 64
        },
        {
          "beat": 1,
          "duration": 0.3499999940395355,
          "pitch": 37,
          "velocity": 53
        },
        {
          "beat": 2,
          "duration": 0.3499999940395355,
          "pitch": 24,
          "velocity": 85
        },
        {
          "beat": 2,
          "duration": 0.3499999940395355,
          "pitch": 35,
          "velocity": 53
        },
        {
          "beat": 3,
          "duration": 0.3499999940395355,
          "pitch": 27,
          "velocity": 64
        },
        {
          "beat": 3,
          "duration": 0.3499999940395355,
          "pitch": 37,
          "velocity": 53
        }
      ],
      "decodedMidiPath": "rhythm_midi_patterns/decoded_pattern_midis/EMO_ChapMen_3.mid"
    },
    {
      "code": "EMO_ChapMen_4",
      "type": "dmachine_model",
      "subtype": "proller",
      "family": "Drum",
      "version": "0.0.0.0",
      "sizePagesOrUnits": 14,
      "crc32": 1103079553,
      "bpm": 85,
      "bnum": 44,
      "noteCount": 12,
      "notes": [
        {
          "beat": 0,
          "duration": 0.20000000298023224,
          "pitch": 24,
          "velocity": 85
        },
        {
          "beat": 0,
          "duration": 0.3499999940395355,
          "pitch": 42,
          "velocity": 36
        },
        {
          "beat": 0.5,
          "duration": 0.3499999940395355,
          "pitch": 38,
          "velocity": 21
        },
        {
          "beat": 1,
          "duration": 0.3333333432674408,
          "pitch": 27,
          "velocity": 64
        },
        {
          "beat": 1,
          "duration": 0.3499999940395355,
          "pitch": 35,
          "velocity": 36
        },
        {
          "beat": 1.5,
          "duration": 0.3499999940395355,
          "pitch": 38,
          "velocity": 21
        },
        {
          "beat": 2,
          "duration": 0.3499999940395355,
          "pitch": 24,
          "velocity": 85
        },
        {
          "beat": 2,
          "duration": 0.3499999940395355,
          "pitch": 38,
          "velocity": 36
        },
        {
          "beat": 2.5,
          "duration": 0.34583333134651184,
          "pitch": 38,
          "velocity": 21
        },
        {
          "beat": 3,
          "duration": 0.3499999940395355,
          "pitch": 27,
          "velocity": 64
        },
        {
          "beat": 3,
          "duration": 0.3499999940395355,
          "pitch": 35,
          "velocity": 36
        },
        {
          "beat": 3.5,
          "duration": 0.34583333134651184,
          "pitch": 38,
          "velocity": 21
        }
      ],
      "decodedMidiPath": "rhythm_midi_patterns/decoded_pattern_midis/EMO_ChapMen_4.mid"
    },
    {
      "code": "EMO_ChapMen_5",
      "type": "dmachine_model",
      "subtype": "proller",
      "family": "Drum",
      "version": "0.0.0.0",
      "sizePagesOrUnits": 16,
      "crc32": 3307605990,
      "bpm": 85,
      "bnum": 44,
      "noteCount": 20,
      "notes": [
        {
          "beat": 0,
          "duration": 0.20000000298023224,
          "pitch": 24,
          "velocity": 85
        },
        {
          "beat": 0,
          "duration": 0.3499999940395355,
          "pitch": 42,
          "velocity": 36
        },
        {
          "beat": 0.25,
          "duration": 0.17916665971279144,
          "pitch": 35,
          "velocity": 36
        },
        {
          "beat": 0.5,
          "duration": 0.17916665971279144,
          "pitch": 35,
          "velocity": 36
        },
        {
          "beat": 0.75,
          "duration": 0.17916665971279144,
          "pitch": 35,
          "velocity": 36
        },
        {
          "beat": 1,
          "duration": 0.3333333432674408,
          "pitch": 27,
          "velocity": 64
        },
        {
          "beat": 1,
          "duration": 0.17916665971279144,
          "pitch": 35,
          "velocity": 43
        },
        {
          "beat": 1.25,
          "duration": 0.17916665971279144,
          "pitch": 35,
          "velocity": 36
        },
        {
          "beat": 1.5,
          "duration": 0.17916665971279144,
          "pitch": 35,
          "velocity": 30
        },
        {
          "beat": 1.75,
          "duration": 0.17916665971279144,
          "pitch": 35,
          "velocity": 23
        },
        {
          "beat": 2,
          "duration": 0.3499999940395355,
          "pitch": 24,
          "velocity": 85
        },
        {
          "beat": 2,
          "duration": 0.17916665971279144,
          "pitch": 35,
          "velocity": 31
        },
        {
          "beat": 2.25,
          "duration": 0.17916665971279144,
          "pitch": 35,
          "velocity": 37
        },
        {
          "beat": 2.5,
          "duration": 0.17916665971279144,
          "pitch": 35,
          "velocity": 43
        },
        {
          "beat": 2.75,
          "duration": 0.17916665971279144,
          "pitch": 35,
          "velocity": 49
        },
        {
          "beat": 3,
          "duration": 0.3499999940395355,
          "pitch": 27,
          "velocity": 64
        },
        {
          "beat": 3,
          "duration": 0.17916665971279144,
          "pitch": 35,
          "velocity": 53
        },
        {
          "beat": 3.25,
          "duration": 0.17916665971279144,
          "pitch": 35,
          "velocity": 46
        },
        {
          "beat": 3.5,
          "duration": 0.17916665971279144,
          "pitch": 35,
          "velocity": 38
        },
        {
          "beat": 3.75,
          "duration": 0.17916665971279144,
          "pitch": 35,
          "velocity": 31
        }
      ],
      "decodedMidiPath": "rhythm_midi_patterns/decoded_pattern_midis/EMO_ChapMen_5.mid"
    },
    {
      "code": "EMO_ChapMen_6",
      "type": "dmachine_model",
      "subtype": "proller",
      "family": "Drum",
      "version": "0.0.0.0",
      "sizePagesOrUnits": 12,
      "crc32": 3667962848,
      "bpm": 115,
      "bnum": 43,
      "noteCount": 8,
      "notes": [
        {
          "beat": 0,
          "duration": 0.6666666865348816,
          "pitch": 24,
          "velocity": 90
        },
        {
          "beat": 0,
          "duration": 0.625,
          "pitch": 42,
          "velocity": 42
        },
        {
          "beat": 1,
          "duration": 0.5333333611488342,
          "pitch": 27,
          "velocity": 75
        },
        {
          "beat": 1,
          "duration": 0.5,
          "pitch": 35,
          "velocity": 57
        },
        {
          "beat": 2,
          "duration": 0.5333333611488342,
          "pitch": 27,
          "velocity": 79
        },
        {
          "beat": 2,
          "duration": 0.5,
          "pitch": 35,
          "velocity": 64
        },
        {
          "beat": 3,
          "duration": 0.6666666865348816,
          "pitch": 24,
          "velocity": 90
        },
        {
          "beat": 3,
          "duration": 0.5,
          "pitch": 36,
          "velocity": 64
        }
      ],
      "decodedMidiPath": "rhythm_midi_patterns/decoded_pattern_midis/EMO_ChapMen_6.mid"
    },
    {
      "code": "EMO_ChapMen_7",
      "type": "dmachine_model",
      "subtype": "proller",
      "family": "Drum",
      "version": "0.0.0.0",
      "sizePagesOrUnits": 13,
      "crc32": 3441378403,
      "bpm": 86,
      "bnum": 86,
      "noteCount": 11,
      "notes": [
        {
          "beat": 0,
          "duration": 0.5,
          "pitch": 24,
          "velocity": 109
        },
        {
          "beat": 0,
          "duration": 0.5,
          "pitch": 42,
          "velocity": 34
        },
        {
          "beat": 0.5,
          "duration": 0.5,
          "pitch": 35,
          "velocity": 34
        },
        {
          "beat": 1,
          "duration": 0.5,
          "pitch": 35,
          "velocity": 34
        },
        {
          "beat": 1.5,
          "duration": 0.5,
          "pitch": 28,
          "velocity": 109
        },
        {
          "beat": 1.5,
          "duration": 0.5,
          "pitch": 38,
          "velocity": 34
        },
        {
          "beat": 2,
          "duration": 0.5,
          "pitch": 37,
          "velocity": 34
        },
        {
          "beat": 2.5,
          "duration": 0.5,
          "pitch": 35,
          "velocity": 34
        },
        {
          "beat": 3,
          "duration": 0.5,
          "pitch": 24,
          "velocity": 90
        },
        {
          "beat": 3,
          "duration": 0.5,
          "pitch": 36,
          "velocity": 34
        },
        {
          "beat": 3.5,
          "duration": 0.5,
          "pitch": 37,
          "velocity": 34
        }
      ],
      "decodedMidiPath": "rhythm_midi_patterns/decoded_pattern_midis/EMO_ChapMen_7.mid"
    },
    {
      "code": "EMO_ChapMen_8",
      "type": "dmachine_model",
      "subtype": "proller",
      "family": "Drum",
      "version": "1.0.0.1",
      "sizePagesOrUnits": 13,
      "crc32": 2040176222,
      "bpm": 79,
      "bnum": 44,
      "noteCount": 15,
      "notes": [
        {
          "beat": 0,
          "duration": 0.11249999701976776,
          "pitch": 24,
          "velocity": 77
        },
        {
          "beat": 0,
          "duration": 0.12708333134651184,
          "pitch": 41,
          "velocity": 22
        },
        {
          "beat": 0.5,
          "duration": 0.08124999701976776,
          "pitch": 35,
          "velocity": 11
        },
        {
          "beat": 1,
          "duration": 0.12291666865348816,
          "pitch": 29,
          "velocity": 79
        },
        {
          "beat": 1,
          "duration": 0.09791667014360428,
          "pitch": 35,
          "velocity": 22
        },
        {
          "beat": 1.5,
          "duration": 0.10833333432674408,
          "pitch": 24,
          "velocity": 53
        },
        {
          "beat": 1.5,
          "duration": 0.10000000149011612,
          "pitch": 35,
          "velocity": 22
        },
        {
          "beat": 1.75,
          "duration": 0.10625000298023224,
          "pitch": 24,
          "velocity": 79
        },
        {
          "beat": 2,
          "duration": 0.10833333432674408,
          "pitch": 35,
          "velocity": 11
        },
        {
          "beat": 2.5,
          "duration": 0.1041666641831398,
          "pitch": 24,
          "velocity": 77
        },
        {
          "beat": 2.5,
          "duration": 0.10625000298023224,
          "pitch": 35,
          "velocity": 11
        },
        {
          "beat": 3,
          "duration": 0.11666666716337204,
          "pitch": 29,
          "velocity": 79
        },
        {
          "beat": 3,
          "duration": 0.12083332985639572,
          "pitch": 35,
          "velocity": 22
        },
        {
          "beat": 3.5,
          "duration": 0.09791667014360428,
          "pitch": 35,
          "velocity": 11
        },
        {
          "beat": 3.75,
          "duration": 0.09791667014360428,
          "pitch": 35,
          "velocity": 6
        }
      ],
      "decodedMidiPath": "rhythm_midi_patterns/decoded_pattern_midis/EMO_ChapMen_8.mid"
    },
    {
      "code": "EMO_ChapMen_9",
      "type": "dmachine_model",
      "subtype": "proller",
      "family": "Drum",
      "version": "1.0.0.1",
      "sizePagesOrUnits": 11,
      "crc32": 3845710584,
      "bpm": 67,
      "bnum": 86,
      "noteCount": 12,
      "notes": [
        {
          "beat": 0,
          "duration": 0.1354166716337204,
          "pitch": 24,
          "velocity": 60
        },
        {
          "beat": 0,
          "duration": 0.09375,
          "pitch": 37,
          "velocity": 35
        },
        {
          "beat": 0.5020833611488342,
          "duration": 0.05416666716337204,
          "pitch": 37,
          "velocity": 10
        },
        {
          "beat": 1.0020833015441895,
          "duration": 0.0770833343267441,
          "pitch": 37,
          "velocity": 5
        },
        {
          "beat": 1.5,
          "duration": 0.11666666716337204,
          "pitch": 32,
          "velocity": 51
        },
        {
          "beat": 1.5,
          "duration": 0.09375,
          "pitch": 37,
          "velocity": 35
        },
        {
          "beat": 2.00208330154419,
          "duration": 0.05416666716337204,
          "pitch": 37,
          "velocity": 10
        },
        {
          "beat": 2.50208330154419,
          "duration": 0.0770833343267441,
          "pitch": 37,
          "velocity": 5
        },
        {
          "beat": 2.847916603088379,
          "duration": 0.10625000298023224,
          "pitch": 24,
          "velocity": 25
        },
        {
          "beat": 3,
          "duration": 0.10625000298023224,
          "pitch": 24,
          "velocity": 59
        },
        {
          "beat": 3,
          "duration": 0.09375,
          "pitch": 37,
          "velocity": 35
        },
        {
          "beat": 3.50208330154419,
          "duration": 0.05416666716337204,
          "pitch": 37,
          "velocity": 10
        }
      ],
      "decodedMidiPath": "rhythm_midi_patterns/decoded_pattern_midis/EMO_ChapMen_9.mid"
    },
    {
      "code": "ElcDrum01_Chapman_5",
      "type": "dmachine_model",
      "subtype": "proller",
      "family": "Drum",
      "version": "1.0.0.1",
      "sizePagesOrUnits": 13,
      "crc32": 987897880,
      "bpm": 109,
      "bnum": 44,
      "noteCount": 13,
      "notes": [
        {
          "beat": 0,
          "duration": 0.2770833373069763,
          "pitch": 25,
          "velocity": 127
        },
        {
          "beat": 0,
          "duration": 0.18958333134651184,
          "pitch": 35,
          "velocity": 127
        },
        {
          "beat": 0.5,
          "duration": 0.125,
          "pitch": 27,
          "velocity": 27
        },
        {
          "beat": 1,
          "duration": 0.23749999701976776,
          "pitch": 28,
          "velocity": 122
        },
        {
          "beat": 1.5,
          "duration": 0.2958333194255829,
          "pitch": 25,
          "velocity": 121
        },
        {
          "beat": 1.5,
          "duration": 0.125,
          "pitch": 27,
          "velocity": 27
        },
        {
          "beat": 2,
          "duration": 0.125,
          "pitch": 27,
          "velocity": 23
        },
        {
          "beat": 2.5,
          "duration": 0.125,
          "pitch": 27,
          "velocity": 1
        },
        {
          "beat": 3,
          "duration": 0.125,
          "pitch": 27,
          "velocity": 23
        },
        {
          "beat": 3,
          "duration": 0.18958333134651184,
          "pitch": 28,
          "velocity": 127
        },
        {
          "beat": 3.299999952316284,
          "duration": 0.125,
          "pitch": 27,
          "velocity": 3
        },
        {
          "beat": 3.5,
          "duration": 0.2770833373069763,
          "pitch": 25,
          "velocity": 127
        },
        {
          "beat": 3.799999952316284,
          "duration": 0.125,
          "pitch": 27,
          "velocity": 1
        }
      ],
      "decodedMidiPath": "rhythm_midi_patterns/decoded_pattern_midis/ElcDrum01_Chapman_5.mid"
    },
    {
      "code": "ElcDrum01_Chapman_6",
      "type": "dmachine_model",
      "subtype": "proller",
      "family": "Drum",
      "version": "1.0.0.1",
      "sizePagesOrUnits": 15,
      "crc32": 216495814,
      "bpm": 109,
      "bnum": 44,
      "noteCount": 21,
      "notes": [
        {
          "beat": 0,
          "duration": 0.2770833373069763,
          "pitch": 25,
          "velocity": 127
        },
        {
          "beat": 0,
          "duration": 0.2770833373069763,
          "pitch": 35,
          "velocity": 66
        },
        {
          "beat": 0.5,
          "duration": 0.125,
          "pitch": 27,
          "velocity": 27
        },
        {
          "beat": 0.5,
          "duration": 0.125,
          "pitch": 32,
          "velocity": 27
        },
        {
          "beat": 1,
          "duration": 0.23749999701976776,
          "pitch": 26,
          "velocity": 122
        },
        {
          "beat": 1,
          "duration": 0.125,
          "pitch": 32,
          "velocity": 37
        },
        {
          "beat": 1.5,
          "duration": 0.125,
          "pitch": 27,
          "velocity": 27
        },
        {
          "beat": 1.5,
          "duration": 0.125,
          "pitch": 32,
          "velocity": 27
        },
        {
          "beat": 1.75,
          "duration": 0.2958333194255829,
          "pitch": 25,
          "velocity": 121
        },
        {
          "beat": 2,
          "duration": 0.125,
          "pitch": 27,
          "velocity": 23
        },
        {
          "beat": 2,
          "duration": 0.125,
          "pitch": 32,
          "velocity": 37
        },
        {
          "beat": 2.25,
          "duration": 0.13333334028720856,
          "pitch": 25,
          "velocity": 20
        },
        {
          "beat": 2.5,
          "duration": 0.3333333432674408,
          "pitch": 25,
          "velocity": 97
        },
        {
          "beat": 2.5,
          "duration": 0.125,
          "pitch": 27,
          "velocity": 1
        },
        {
          "beat": 2.5,
          "duration": 0.125,
          "pitch": 32,
          "velocity": 27
        },
        {
          "beat": 3,
          "duration": 0.18958333134651184,
          "pitch": 26,
          "velocity": 127
        },
        {
          "beat": 3,
          "duration": 0.125,
          "pitch": 27,
          "velocity": 23
        },
        {
          "beat": 3,
          "duration": 0.125,
          "pitch": 32,
          "velocity": 37
        },
        {
          "beat": 3.299999952316284,
          "duration": 0.125,
          "pitch": 27,
          "velocity": 3
        },
        {
          "beat": 3.5,
          "duration": 0.125,
          "pitch": 32,
          "velocity": 27
        },
        {
          "beat": 3.799999952316284,
          "duration": 0.125,
          "pitch": 27,
          "velocity": 1
        }
      ],
      "decodedMidiPath": "rhythm_midi_patterns/decoded_pattern_midis/ElcDrum01_Chapman_6.mid"
    },
    {
      "code": "ElcDrum01_ElcBass01_1",
      "type": "dmachine_model",
      "subtype": "proller",
      "family": "Drum",
      "version": "0.0.0.0",
      "sizePagesOrUnits": 16,
      "crc32": 563249588,
      "bpm": 68,
      "bnum": 44,
      "noteCount": 17,
      "notes": [
        {
          "beat": 0,
          "duration": 0.22083333134651184,
          "pitch": 24,
          "velocity": 91
        },
        {
          "beat": 0.25,
          "duration": 0.22083333134651184,
          "pitch": 30,
          "velocity": 13
        },
        {
          "beat": 0.5,
          "duration": 0.22083333134651184,
          "pitch": 30,
          "velocity": 28
        },
        {
          "beat": 0.75,
          "duration": 0.20624999701976776,
          "pitch": 30,
          "velocity": 68
        },
        {
          "beat": 1,
          "duration": 0.22083333134651184,
          "pitch": 25,
          "velocity": 72
        },
        {
          "beat": 1.25,
          "duration": 0.22083333134651184,
          "pitch": 30,
          "velocity": 15
        },
        {
          "beat": 1.5,
          "duration": 0.22083333134651184,
          "pitch": 30,
          "velocity": 43
        },
        {
          "beat": 1.75,
          "duration": 0.2083333283662796,
          "pitch": 30,
          "velocity": 86
        },
        {
          "beat": 2,
          "duration": 0.22083333134651184,
          "pitch": 24,
          "velocity": 91
        },
        {
          "beat": 2.25,
          "duration": 0.22083333134651184,
          "pitch": 30,
          "velocity": 13
        },
        {
          "beat": 2.5,
          "duration": 0.22083333134651184,
          "pitch": 30,
          "velocity": 28
        },
        {
          "beat": 2.75,
          "duration": 0.20624999701976776,
          "pitch": 30,
          "velocity": 68
        },
        {
          "beat": 3,
          "duration": 0.22083333134651184,
          "pitch": 25,
          "velocity": 72
        },
        {
          "beat": 3,
          "duration": 0.25,
          "pitch": 29,
          "velocity": 32
        },
        {
          "beat": 3.25,
          "duration": 0.22083333134651184,
          "pitch": 30,
          "velocity": 15
        },
        {
          "beat": 3.5,
          "duration": 0.22083333134651184,
          "pitch": 30,
          "velocity": 43
        },
        {
          "beat": 3.75,
          "duration": 0.20624999701976776,
          "pitch": 30,
          "velocity": 86
        }
      ],
      "decodedMidiPath": "rhythm_midi_patterns/decoded_pattern_midis/ElcDrum01_ElcBass01_1.mid"
    },
    {
      "code": "ElcDrum01_ElcBass01_2",
      "type": "dmachine_model",
      "subtype": "proller",
      "family": "Drum",
      "version": "0.0.0.0",
      "sizePagesOrUnits": 14,
      "crc32": 2922419860,
      "bpm": 115,
      "bnum": 44,
      "noteCount": 11,
      "notes": [
        {
          "beat": 0,
          "duration": 0.75,
          "pitch": 24,
          "velocity": 92
        },
        {
          "beat": 0,
          "duration": 0.5,
          "pitch": 35,
          "velocity": 22
        },
        {
          "beat": 0.5,
          "duration": 0.5,
          "pitch": 30,
          "velocity": 48
        },
        {
          "beat": 0.9979166388511658,
          "duration": 0.5020833611488342,
          "pitch": 29,
          "velocity": 48
        },
        {
          "beat": 1,
          "duration": 0.5,
          "pitch": 26,
          "velocity": 78
        },
        {
          "beat": 1.5,
          "duration": 0.5,
          "pitch": 30,
          "velocity": 26
        },
        {
          "beat": 2,
          "duration": 0.5,
          "pitch": 25,
          "velocity": 92
        },
        {
          "beat": 2.5,
          "duration": 0.5,
          "pitch": 32,
          "velocity": 28
        },
        {
          "beat": 2.99791669845581,
          "duration": 0.5,
          "pitch": 29,
          "velocity": 48
        },
        {
          "beat": 3,
          "duration": 0.5,
          "pitch": 26,
          "velocity": 78
        },
        {
          "beat": 3.5,
          "duration": 0.5,
          "pitch": 30,
          "velocity": 16
        }
      ],
      "decodedMidiPath": "rhythm_midi_patterns/decoded_pattern_midis/ElcDrum01_ElcBass01_2.mid"
    },
    {
      "code": "ElcDrum01_ElcBass01_3",
      "type": "dmachine_model",
      "subtype": "proller",
      "family": "Drum",
      "version": "0.0.0.0",
      "sizePagesOrUnits": 15,
      "crc32": 2035892163,
      "bpm": 115,
      "bnum": 44,
      "noteCount": 11,
      "notes": [
        {
          "beat": 0,
          "duration": 0.75,
          "pitch": 24,
          "velocity": 66
        },
        {
          "beat": 0,
          "duration": 0.5,
          "pitch": 35,
          "velocity": 22
        },
        {
          "beat": 0.5,
          "duration": 0.25,
          "pitch": 30,
          "velocity": 26
        },
        {
          "beat": 1,
          "duration": 0.25,
          "pitch": 30,
          "velocity": 55
        },
        {
          "beat": 1.5,
          "duration": 0.5,
          "pitch": 27,
          "velocity": 48
        },
        {
          "beat": 2,
          "duration": 0.5,
          "pitch": 29,
          "velocity": 78
        },
        {
          "beat": 2,
          "duration": 0.5,
          "pitch": 26,
          "velocity": 43
        },
        {
          "beat": 2.5,
          "duration": 0.25,
          "pitch": 30,
          "velocity": 48
        },
        {
          "beat": 3,
          "duration": 0.25,
          "pitch": 30,
          "velocity": 48
        },
        {
          "beat": 3.5,
          "duration": 0.5,
          "pitch": 25,
          "velocity": 38
        },
        {
          "beat": 3.5,
          "duration": 0.5,
          "pitch": 27,
          "velocity": 32
        }
      ],
      "decodedMidiPath": "rhythm_midi_patterns/decoded_pattern_midis/ElcDrum01_ElcBass01_3.mid"
    },
    {
      "code": "ElcDrum01_ElcBass01_4",
      "type": "dmachine_model",
      "subtype": "proller",
      "family": "Drum",
      "version": "0.0.0.0",
      "sizePagesOrUnits": 17,
      "crc32": 1507390657,
      "bpm": 78,
      "bnum": 44,
      "noteCount": 23,
      "notes": [
        {
          "beat": 0,
          "duration": 0.25,
          "pitch": 24,
          "velocity": 79
        },
        {
          "beat": 0,
          "duration": 0.25,
          "pitch": 31,
          "velocity": 45
        },
        {
          "beat": 0.25,
          "duration": 0.49791666865348816,
          "pitch": 30,
          "velocity": 16
        },
        {
          "beat": 0.49791666865348816,
          "duration": 0.0020833334419876337,
          "pitch": 30,
          "velocity": 27
        },
        {
          "beat": 0.75,
          "duration": 0.25,
          "pitch": 30,
          "velocity": 46
        },
        {
          "beat": 1,
          "duration": 0.25,
          "pitch": 26,
          "velocity": 74
        },
        {
          "beat": 1.25,
          "duration": 0.0833333358168602,
          "pitch": 32,
          "velocity": 15
        },
        {
          "beat": 1.3333333730697632,
          "duration": 0.0833333358168602,
          "pitch": 32,
          "velocity": 22
        },
        {
          "beat": 1.4166666269302368,
          "duration": 0.0833333358168602,
          "pitch": 32,
          "velocity": 29
        },
        {
          "beat": 1.5,
          "duration": 0.25,
          "pitch": 30,
          "velocity": 53
        },
        {
          "beat": 1.75,
          "duration": 0.0833333358168602,
          "pitch": 32,
          "velocity": 15
        },
        {
          "beat": 1.8333333730697632,
          "duration": 0.0833333358168602,
          "pitch": 32,
          "velocity": 22
        },
        {
          "beat": 1.9166666269302368,
          "duration": 0.0833333358168602,
          "pitch": 32,
          "velocity": 29
        },
        {
          "beat": 2,
          "duration": 0.25,
          "pitch": 24,
          "velocity": 79
        },
        {
          "beat": 2.25,
          "duration": 0.49791666865348816,
          "pitch": 30,
          "velocity": 16
        },
        {
          "beat": 2.49791669845581,
          "duration": 0.0020833334419876337,
          "pitch": 30,
          "velocity": 27
        },
        {
          "beat": 2.75,
          "duration": 0.25,
          "pitch": 30,
          "velocity": 46
        },
        {
          "beat": 3,
          "duration": 0.25,
          "pitch": 26,
          "velocity": 74
        },
        {
          "beat": 3.25,
          "duration": 0.5,
          "pitch": 30,
          "velocity": 16
        },
        {
          "beat": 3.5,
          "duration": 0,
          "pitch": 30,
          "velocity": 53
        },
        {
          "beat": 3.75,
          "duration": 0.0833333358168602,
          "pitch": 32,
          "velocity": 15
        },
        {
          "beat": 3.8333332538604736,
          "duration": 0.0833333358168602,
          "pitch": 32,
          "velocity": 22
        },
        {
          "beat": 3.9166667461395264,
          "duration": 0.0833333358168602,
          "pitch": 32,
          "velocity": 29
        }
      ],
      "decodedMidiPath": "rhythm_midi_patterns/decoded_pattern_midis/ElcDrum01_ElcBass01_4.mid"
    },
    {
      "code": "ElcTrap_Chapmen_1",
      "type": "dmachine_model",
      "subtype": "proller",
      "family": "Drum",
      "version": "0.0.0.0",
      "sizePagesOrUnits": 15,
      "crc32": 2986092851,
      "bpm": 104,
      "bnum": 44,
      "noteCount": 13,
      "notes": [
        {
          "beat": 0,
          "duration": 1,
          "pitch": 36,
          "velocity": 69
        },
        {
          "beat": 0.5,
          "duration": 0.125,
          "pitch": 42,
          "velocity": 49
        },
        {
          "beat": 0.75,
          "duration": 0.125,
          "pitch": 42,
          "velocity": 49
        },
        {
          "beat": 1,
          "duration": 1,
          "pitch": 36,
          "velocity": 69
        },
        {
          "beat": 1,
          "duration": 1,
          "pitch": 40,
          "velocity": 69
        },
        {
          "beat": 1.5,
          "duration": 0.125,
          "pitch": 42,
          "velocity": 49
        },
        {
          "beat": 2,
          "duration": 1,
          "pitch": 36,
          "velocity": 69
        },
        {
          "beat": 2,
          "duration": 1,
          "pitch": 44,
          "velocity": 69
        },
        {
          "beat": 2.5,
          "duration": 0.125,
          "pitch": 42,
          "velocity": 49
        },
        {
          "beat": 2.75,
          "duration": 0.125,
          "pitch": 42,
          "velocity": 49
        },
        {
          "beat": 3,
          "duration": 1,
          "pitch": 36,
          "velocity": 69
        },
        {
          "beat": 3,
          "duration": 1,
          "pitch": 40,
          "velocity": 69
        },
        {
          "beat": 3.5,
          "duration": 0.125,
          "pitch": 42,
          "velocity": 49
        }
      ],
      "decodedMidiPath": "rhythm_midi_patterns/decoded_pattern_midis/ElcTrap_Chapmen_1.mid"
    },
    {
      "code": "ElcTrap_Chapmen_2",
      "type": "dmachine_model",
      "subtype": "proller",
      "family": "Drum",
      "version": "0.0.0.0",
      "sizePagesOrUnits": 11,
      "crc32": 3212462424,
      "bpm": 151,
      "bnum": 44,
      "noteCount": 8,
      "notes": [
        {
          "beat": 0,
          "duration": 3.0479166507720947,
          "pitch": 36,
          "velocity": 70
        },
        {
          "beat": 0.5,
          "duration": 0.25,
          "pitch": 42,
          "velocity": 50
        },
        {
          "beat": 0.75,
          "duration": 0.2979166805744171,
          "pitch": 44,
          "velocity": 70
        },
        {
          "beat": 1.25,
          "duration": 0.25,
          "pitch": 42,
          "velocity": 50
        },
        {
          "beat": 1.5,
          "duration": 0.28125,
          "pitch": 44,
          "velocity": 75
        },
        {
          "beat": 2,
          "duration": 3.0479166507720947,
          "pitch": 38,
          "velocity": 70
        },
        {
          "beat": 2.75,
          "duration": 0.6104166507720947,
          "pitch": 39,
          "velocity": 24
        },
        {
          "beat": 3.5,
          "duration": 0.5208333134651184,
          "pitch": 39,
          "velocity": 4
        }
      ],
      "decodedMidiPath": "rhythm_midi_patterns/decoded_pattern_midis/ElcTrap_Chapmen_2.mid"
    },
    {
      "code": "FUNK_Mute_1",
      "type": "dmachine_model",
      "subtype": "proller",
      "family": "Drum",
      "version": "0.0.0.0",
      "sizePagesOrUnits": 16,
      "crc32": 3954474548,
      "bpm": 120,
      "bnum": 44,
      "noteCount": 16,
      "notes": [
        {
          "beat": 0,
          "duration": 1,
          "pitch": 24,
          "velocity": 92
        },
        {
          "beat": 0,
          "duration": 0.25,
          "pitch": 41,
          "velocity": 70
        },
        {
          "beat": 0.5,
          "duration": 0.25,
          "pitch": 30,
          "velocity": 28
        },
        {
          "beat": 1,
          "duration": 1,
          "pitch": 24,
          "velocity": 66
        },
        {
          "beat": 1,
          "duration": 0.25,
          "pitch": 26,
          "velocity": 92
        },
        {
          "beat": 1,
          "duration": 0.25,
          "pitch": 30,
          "velocity": 67
        },
        {
          "beat": 1.5,
          "duration": 0.25,
          "pitch": 30,
          "velocity": 48
        },
        {
          "beat": 1.75,
          "duration": 0.25,
          "pitch": 30,
          "velocity": 70
        },
        {
          "beat": 2,
          "duration": 1,
          "pitch": 24,
          "velocity": 92
        },
        {
          "beat": 2,
          "duration": 0.25,
          "pitch": 30,
          "velocity": 70
        },
        {
          "beat": 2.5,
          "duration": 0.25,
          "pitch": 30,
          "velocity": 28
        },
        {
          "beat": 3,
          "duration": 1,
          "pitch": 24,
          "velocity": 66
        },
        {
          "beat": 3,
          "duration": 0.25,
          "pitch": 26,
          "velocity": 92
        },
        {
          "beat": 3,
          "duration": 0.25,
          "pitch": 30,
          "velocity": 67
        },
        {
          "beat": 3.5,
          "duration": 0.25,
          "pitch": 30,
          "velocity": 48
        },
        {
          "beat": 3.75,
          "duration": 0.25,
          "pitch": 34,
          "velocity": 70
        }
      ],
      "decodedMidiPath": "rhythm_midi_patterns/decoded_pattern_midis/FUNK_Mute_1.mid"
    },
    {
      "code": "Funk_ChapMen_1",
      "type": "dmachine_model",
      "subtype": "proller",
      "family": "Drum",
      "version": "0.0.0.0",
      "sizePagesOrUnits": 16,
      "crc32": 3696974130,
      "bpm": 110,
      "bnum": 44,
      "noteCount": 16,
      "notes": [
        {
          "beat": 0,
          "duration": 0.15833333134651184,
          "pitch": 24,
          "velocity": 82
        },
        {
          "beat": 0,
          "duration": 0.15833333134651184,
          "pitch": 34,
          "velocity": 43
        },
        {
          "beat": 0.5,
          "duration": 0.15833333134651184,
          "pitch": 30,
          "velocity": 38
        },
        {
          "beat": 1,
          "duration": 0.15833333134651184,
          "pitch": 29,
          "velocity": 76
        },
        {
          "beat": 1,
          "duration": 0.15833333134651184,
          "pitch": 30,
          "velocity": 47
        },
        {
          "beat": 1.5,
          "duration": 0.15833333134651184,
          "pitch": 30,
          "velocity": 28
        },
        {
          "beat": 1.75,
          "duration": 0.15833333134651184,
          "pitch": 24,
          "velocity": 34
        },
        {
          "beat": 2,
          "duration": 0.15833333134651184,
          "pitch": 24,
          "velocity": 79
        },
        {
          "beat": 2,
          "duration": 0.15833333134651184,
          "pitch": 30,
          "velocity": 33
        },
        {
          "beat": 2.25,
          "duration": 0.15833333134651184,
          "pitch": 26,
          "velocity": 34
        },
        {
          "beat": 2.5,
          "duration": 0.15833333134651184,
          "pitch": 30,
          "velocity": 50
        },
        {
          "beat": 2.75,
          "duration": 0.15833333134651184,
          "pitch": 24,
          "velocity": 43
        },
        {
          "beat": 3,
          "duration": 0.15833333134651184,
          "pitch": 29,
          "velocity": 76
        },
        {
          "beat": 3,
          "duration": 0.15833333134651184,
          "pitch": 30,
          "velocity": 47
        },
        {
          "beat": 3.5,
          "duration": 0.15833333134651184,
          "pitch": 24,
          "velocity": 82
        },
        {
          "beat": 3.5,
          "duration": 0.15833333134651184,
          "pitch": 34,
          "velocity": 39
        }
      ],
      "decodedMidiPath": "rhythm_midi_patterns/decoded_pattern_midis/Funk_ChapMen_1.mid"
    },
    {
      "code": "Funk_ChapMen_3",
      "type": "dmachine_model",
      "subtype": "proller",
      "family": "Drum",
      "version": "0.0.0.0",
      "sizePagesOrUnits": 13,
      "crc32": 864138284,
      "bpm": 85,
      "bnum": 44,
      "noteCount": 8,
      "notes": [
        {
          "beat": 0,
          "duration": 0.762499988079071,
          "pitch": 24,
          "velocity": 92
        },
        {
          "beat": 0,
          "duration": 1.125,
          "pitch": 41,
          "velocity": 75
        },
        {
          "beat": 1,
          "duration": 0.6979166865348816,
          "pitch": 26,
          "velocity": 98
        },
        {
          "beat": 1,
          "duration": 0.7270833253860474,
          "pitch": 30,
          "velocity": 77
        },
        {
          "beat": 2,
          "duration": 0.675000011920929,
          "pitch": 24,
          "velocity": 95
        },
        {
          "beat": 2,
          "duration": 0.293749988079071,
          "pitch": 30,
          "velocity": 52
        },
        {
          "beat": 3,
          "duration": 0.6479166746139526,
          "pitch": 26,
          "velocity": 95
        },
        {
          "beat": 3,
          "duration": 0.693750023841858,
          "pitch": 30,
          "velocity": 83
        }
      ],
      "decodedMidiPath": "rhythm_midi_patterns/decoded_pattern_midis/Funk_ChapMen_3.mid"
    },
    {
      "code": "Funk_ChapMen_4",
      "type": "dmachine_model",
      "subtype": "proller",
      "family": "Drum",
      "version": "0.0.0.0",
      "sizePagesOrUnits": 14,
      "crc32": 3241630935,
      "bpm": 85,
      "bnum": 44,
      "noteCount": 12,
      "notes": [
        {
          "beat": 0,
          "duration": 0.762499988079071,
          "pitch": 24,
          "velocity": 92
        },
        {
          "beat": 0,
          "duration": 1.125,
          "pitch": 41,
          "velocity": 89
        },
        {
          "beat": 0.5,
          "duration": 0.24791666865348816,
          "pitch": 30,
          "velocity": 50
        },
        {
          "beat": 1,
          "duration": 0.6979166865348816,
          "pitch": 26,
          "velocity": 98
        },
        {
          "beat": 1,
          "duration": 0.34166666865348816,
          "pitch": 30,
          "velocity": 83
        },
        {
          "beat": 1.5,
          "duration": 0.3083333373069763,
          "pitch": 30,
          "velocity": 42
        },
        {
          "beat": 2,
          "duration": 0.675000011920929,
          "pitch": 24,
          "velocity": 95
        },
        {
          "beat": 2,
          "duration": 0.4166666567325592,
          "pitch": 30,
          "velocity": 75
        },
        {
          "beat": 2.5,
          "duration": 0.24791666865348816,
          "pitch": 30,
          "velocity": 50
        },
        {
          "beat": 3,
          "duration": 0.6479166746139526,
          "pitch": 26,
          "velocity": 95
        },
        {
          "beat": 3,
          "duration": 0.34375,
          "pitch": 30,
          "velocity": 76
        },
        {
          "beat": 3.5,
          "duration": 0.3083333373069763,
          "pitch": 30,
          "velocity": 42
        }
      ],
      "decodedMidiPath": "rhythm_midi_patterns/decoded_pattern_midis/Funk_ChapMen_4.mid"
    },
    {
      "code": "Funk_ChapMen_5",
      "type": "dmachine_model",
      "subtype": "proller",
      "family": "Drum",
      "version": "0.0.0.0",
      "sizePagesOrUnits": 16,
      "crc32": 2928499659,
      "bpm": 85,
      "bnum": 44,
      "noteCount": 20,
      "notes": [
        {
          "beat": 0,
          "duration": 0.762499988079071,
          "pitch": 24,
          "velocity": 92
        },
        {
          "beat": 0,
          "duration": 1.125,
          "pitch": 41,
          "velocity": 89
        },
        {
          "beat": 0.25,
          "duration": 0.18125000596046448,
          "pitch": 30,
          "velocity": 39
        },
        {
          "beat": 0.5,
          "duration": 0.18125000596046448,
          "pitch": 30,
          "velocity": 39
        },
        {
          "beat": 0.75,
          "duration": 0.15208333730697632,
          "pitch": 30,
          "velocity": 32
        },
        {
          "beat": 1,
          "duration": 0.6979166865348816,
          "pitch": 26,
          "velocity": 98
        },
        {
          "beat": 1,
          "duration": 0.21666666865348816,
          "pitch": 30,
          "velocity": 67
        },
        {
          "beat": 1.25,
          "duration": 0.18125000596046448,
          "pitch": 30,
          "velocity": 39
        },
        {
          "beat": 1.5,
          "duration": 0.23333333432674408,
          "pitch": 30,
          "velocity": 32
        },
        {
          "beat": 1.75,
          "duration": 0.18125000596046448,
          "pitch": 30,
          "velocity": 56
        },
        {
          "beat": 2,
          "duration": 0.675000011920929,
          "pitch": 24,
          "velocity": 95
        },
        {
          "beat": 2,
          "duration": 0.21666666865348816,
          "pitch": 30,
          "velocity": 40
        },
        {
          "beat": 2.25,
          "duration": 0.18125000596046448,
          "pitch": 30,
          "velocity": 55
        },
        {
          "beat": 2.5,
          "duration": 0.23333333432674408,
          "pitch": 30,
          "velocity": 32
        },
        {
          "beat": 2.75,
          "duration": 0.18125000596046448,
          "pitch": 30,
          "velocity": 39
        },
        {
          "beat": 3,
          "duration": 0.6479166746139526,
          "pitch": 26,
          "velocity": 95
        },
        {
          "beat": 3,
          "duration": 0.1979166716337204,
          "pitch": 30,
          "velocity": 60
        },
        {
          "beat": 3.25,
          "duration": 0.23333333432674408,
          "pitch": 30,
          "velocity": 32
        },
        {
          "beat": 3.5,
          "duration": 0.21458333730697632,
          "pitch": 30,
          "velocity": 51
        },
        {
          "beat": 3.75,
          "duration": 0.19583334028720856,
          "pitch": 30,
          "velocity": 28
        }
      ],
      "decodedMidiPath": "rhythm_midi_patterns/decoded_pattern_midis/Funk_ChapMen_5.mid"
    },
    {
      "code": "Funk_ChapMen_6",
      "type": "dmachine_model",
      "subtype": "proller",
      "family": "Drum",
      "version": "0.0.0.0",
      "sizePagesOrUnits": 11,
      "crc32": 4012669147,
      "bpm": 115,
      "bnum": 43,
      "noteCount": 8,
      "notes": [
        {
          "beat": 0,
          "duration": 0.837499976158142,
          "pitch": 24,
          "velocity": 100
        },
        {
          "beat": 0,
          "duration": 0.25,
          "pitch": 32,
          "velocity": 1
        },
        {
          "beat": 0,
          "duration": 0.912500023841858,
          "pitch": 41,
          "velocity": 61
        },
        {
          "beat": 1,
          "duration": 0.4583333432674408,
          "pitch": 30,
          "velocity": 46
        },
        {
          "beat": 2,
          "duration": 0.5333333611488342,
          "pitch": 26,
          "velocity": 92
        },
        {
          "beat": 2,
          "duration": 0.5104166865348816,
          "pitch": 30,
          "velocity": 58
        },
        {
          "beat": 3,
          "duration": 0.8729166388511658,
          "pitch": 24,
          "velocity": 106
        },
        {
          "beat": 3,
          "duration": 0.40416666865348816,
          "pitch": 30,
          "velocity": 41
        }
      ],
      "decodedMidiPath": "rhythm_midi_patterns/decoded_pattern_midis/Funk_ChapMen_6.mid"
    },
    {
      "code": "Funk_ChapMen_7",
      "type": "dmachine_model",
      "subtype": "proller",
      "family": "Drum",
      "version": "0.0.0.0",
      "sizePagesOrUnits": 12,
      "crc32": 1579712993,
      "bpm": 86,
      "bnum": 86,
      "noteCount": 4,
      "notes": [
        {
          "beat": 0,
          "duration": 1.5,
          "pitch": 24,
          "velocity": 103
        },
        {
          "beat": 1.5,
          "duration": 1,
          "pitch": 29,
          "velocity": 38
        },
        {
          "beat": 2.5,
          "duration": 0.5,
          "pitch": 24,
          "velocity": 98
        },
        {
          "beat": 3,
          "duration": 1.5,
          "pitch": 24,
          "velocity": 110
        }
      ],
      "decodedMidiPath": "rhythm_midi_patterns/decoded_pattern_midis/Funk_ChapMen_7.mid"
    },
    {
      "code": "Funk_ChapMen_8",
      "type": "dmachine_model",
      "subtype": "proller",
      "family": "Drum",
      "version": "0.0.0.0",
      "sizePagesOrUnits": 12,
      "crc32": 2129376538,
      "bpm": 115,
      "bnum": 43,
      "noteCount": 9,
      "notes": [
        {
          "beat": 0,
          "duration": 0.837499976158142,
          "pitch": 24,
          "velocity": 100
        },
        {
          "beat": 0,
          "duration": 0.25,
          "pitch": 32,
          "velocity": 1
        },
        {
          "beat": 0,
          "duration": 0.912500023841858,
          "pitch": 41,
          "velocity": 61
        },
        {
          "beat": 1,
          "duration": 0.5333333611488342,
          "pitch": 26,
          "velocity": 52
        },
        {
          "beat": 1,
          "duration": 0.4583333432674408,
          "pitch": 30,
          "velocity": 69
        },
        {
          "beat": 2,
          "duration": 0.5333333611488342,
          "pitch": 29,
          "velocity": 82
        },
        {
          "beat": 2,
          "duration": 0.5104166865348816,
          "pitch": 30,
          "velocity": 81
        },
        {
          "beat": 3,
          "duration": 0.8729166388511658,
          "pitch": 24,
          "velocity": 106
        },
        {
          "beat": 3,
          "duration": 0.40416666865348816,
          "pitch": 30,
          "velocity": 64
        }
      ],
      "decodedMidiPath": "rhythm_midi_patterns/decoded_pattern_midis/Funk_ChapMen_8.mid"
    },
    {
      "code": "Funk_ChapMen_9",
      "type": "dmachine_model",
      "subtype": "proller",
      "family": "Drum",
      "version": "0.0.0.0",
      "sizePagesOrUnits": 12,
      "crc32": 167519627,
      "bpm": 86,
      "bnum": 86,
      "noteCount": 10,
      "notes": [
        {
          "beat": 0,
          "duration": 1.5,
          "pitch": 24,
          "velocity": 103
        },
        {
          "beat": 0.5,
          "duration": 0.375,
          "pitch": 30,
          "velocity": 57
        },
        {
          "beat": 1,
          "duration": 0.375,
          "pitch": 30,
          "velocity": 37
        },
        {
          "beat": 1.5,
          "duration": 1,
          "pitch": 26,
          "velocity": 96
        },
        {
          "beat": 1.5,
          "duration": 0.375,
          "pitch": 30,
          "velocity": 57
        },
        {
          "beat": 2,
          "duration": 0.375,
          "pitch": 30,
          "velocity": 37
        },
        {
          "beat": 2.5,
          "duration": 0.375,
          "pitch": 30,
          "velocity": 57
        },
        {
          "beat": 3,
          "duration": 1.5,
          "pitch": 24,
          "velocity": 110
        },
        {
          "beat": 3,
          "duration": 0.375,
          "pitch": 30,
          "velocity": 37
        },
        {
          "beat": 3.5,
          "duration": 0.375,
          "pitch": 30,
          "velocity": 57
        }
      ],
      "decodedMidiPath": "rhythm_midi_patterns/decoded_pattern_midis/Funk_ChapMen_9.mid"
    },
    {
      "code": "GEC1_1",
      "type": "chord_model_str",
      "subtype": "strings",
      "family": "GuitarEC",
      "version": "0.0.0.1",
      "sizePagesOrUnits": 34,
      "crc32": 3460515332,
      "bpm": 60,
      "bnum": 44,
      "noteCount": 6,
      "notes": [
        {
          "beat": 0,
          "duration": 4.15625,
          "pitch": 31,
          "velocity": 30
        },
        {
          "beat": 0.5,
          "duration": 3.539583444595337,
          "pitch": 33,
          "velocity": 40
        },
        {
          "beat": 1,
          "duration": 1.9583333730697632,
          "pitch": 35,
          "velocity": 50
        },
        {
          "beat": 1.5,
          "duration": 2.558333396911621,
          "pitch": 34,
          "velocity": 28
        },
        {
          "beat": 2,
          "duration": 2.15625,
          "pitch": 36,
          "velocity": 30
        },
        {
          "beat": 3,
          "duration": 1.0604166984558105,
          "pitch": 35,
          "velocity": 30
        }
      ],
      "decodedMidiPath": "rhythm_midi_patterns/decoded_pattern_midis/GEC1_1.mid"
    },
    {
      "code": "GEC1_10",
      "type": "chord_model_str",
      "subtype": "strings",
      "family": "GuitarEC",
      "version": "0.0.0.0",
      "sizePagesOrUnits": 34,
      "crc32": 3150282882,
      "bpm": 120,
      "bnum": 43,
      "noteCount": 7,
      "notes": [
        {
          "beat": 0,
          "duration": 3,
          "pitch": 31,
          "velocity": 41
        },
        {
          "beat": 1.0020833015441895,
          "duration": 0.34583333134651184,
          "pitch": 35,
          "velocity": 36
        },
        {
          "beat": 1.006250023841858,
          "duration": 0.34166666865348816,
          "pitch": 34,
          "velocity": 35
        },
        {
          "beat": 1.006250023841858,
          "duration": 0.34166666865348816,
          "pitch": 36,
          "velocity": 33
        },
        {
          "beat": 2,
          "duration": 1,
          "pitch": 34,
          "velocity": 50
        },
        {
          "beat": 2,
          "duration": 1,
          "pitch": 36,
          "velocity": 33
        },
        {
          "beat": 2.008333444595337,
          "duration": 0.9916666746139526,
          "pitch": 35,
          "velocity": 35
        }
      ],
      "decodedMidiPath": "rhythm_midi_patterns/decoded_pattern_midis/GEC1_10.mid"
    },
    {
      "code": "GEC1_11",
      "type": "chord_model_str",
      "subtype": "strings",
      "family": "GuitarEC",
      "version": "0.0.0.0",
      "sizePagesOrUnits": 35,
      "crc32": 2984204633,
      "bpm": 67,
      "bnum": 44,
      "noteCount": 7,
      "notes": [
        {
          "beat": 0,
          "duration": 4.15625,
          "pitch": 31,
          "velocity": 30
        },
        {
          "beat": 0.5,
          "duration": 2,
          "pitch": 33,
          "velocity": 30
        },
        {
          "beat": 1,
          "duration": 3,
          "pitch": 35,
          "velocity": 43
        },
        {
          "beat": 1.5,
          "duration": 1.5,
          "pitch": 34,
          "velocity": 28
        },
        {
          "beat": 2.5,
          "duration": 1,
          "pitch": 33,
          "velocity": 30
        },
        {
          "beat": 3,
          "duration": 1,
          "pitch": 34,
          "velocity": 34
        },
        {
          "beat": 3.5,
          "duration": 0.5,
          "pitch": 33,
          "velocity": 30
        }
      ],
      "decodedMidiPath": "rhythm_midi_patterns/decoded_pattern_midis/GEC1_11.mid"
    },
    {
      "code": "GEC1_12",
      "type": "chord_model_str",
      "subtype": "strings",
      "family": "GuitarEC",
      "version": "0.0.0.0",
      "sizePagesOrUnits": 109,
      "crc32": 3704854443,
      "bpm": 122,
      "bnum": 44,
      "noteCount": 23,
      "notes": [
        {
          "beat": 0,
          "duration": 1,
          "pitch": 31,
          "velocity": 41
        },
        {
          "beat": 0.01666666753590107,
          "duration": 0.9833333492279053,
          "pitch": 32,
          "velocity": 28
        },
        {
          "beat": 0.03958333283662796,
          "duration": 0.506250023841858,
          "pitch": 33,
          "velocity": 34
        },
        {
          "beat": 0.06041666492819786,
          "duration": 0.4625000059604645,
          "pitch": 34,
          "velocity": 38
        },
        {
          "beat": 0.0833333358168602,
          "duration": 0.9166666865348816,
          "pitch": 35,
          "velocity": 41
        },
        {
          "beat": 0.10833333432674408,
          "duration": 0.3812499940395355,
          "pitch": 36,
          "velocity": 38
        },
        {
          "beat": 0.5,
          "duration": 0.5,
          "pitch": 36,
          "velocity": 33
        },
        {
          "beat": 0.53125,
          "duration": 0.46875,
          "pitch": 34,
          "velocity": 33
        },
        {
          "beat": 0.5541666746139526,
          "duration": 0.44583332538604736,
          "pitch": 33,
          "velocity": 34
        },
        {
          "beat": 1.5,
          "duration": 0.550000011920929,
          "pitch": 36,
          "velocity": 33
        },
        {
          "beat": 1.5187499523162842,
          "duration": 0.5145833492279053,
          "pitch": 35,
          "velocity": 32
        },
        {
          "beat": 1.537500023841858,
          "duration": 0.4729166626930237,
          "pitch": 34,
          "velocity": 33
        },
        {
          "beat": 1.5666667222976685,
          "duration": 1.4333332777023315,
          "pitch": 33,
          "velocity": 34
        },
        {
          "beat": 1.5854166746139526,
          "duration": 1.4145833253860474,
          "pitch": 32,
          "velocity": 28
        },
        {
          "beat": 2,
          "duration": 1,
          "pitch": 31,
          "velocity": 35
        },
        {
          "beat": 2.0166666507720947,
          "duration": 0.9833333492279053,
          "pitch": 34,
          "velocity": 32
        },
        {
          "beat": 2.035416603088379,
          "duration": 0.9645833373069763,
          "pitch": 35,
          "velocity": 32
        },
        {
          "beat": 2.054166555404663,
          "duration": 0.9458333253860474,
          "pitch": 36,
          "velocity": 30
        },
        {
          "beat": 3.5,
          "duration": 0.5,
          "pitch": 36,
          "velocity": 33
        },
        {
          "beat": 3.518749952316284,
          "duration": 0.481249988079071,
          "pitch": 35,
          "velocity": 32
        },
        {
          "beat": 3.53125,
          "duration": 0.46875,
          "pitch": 34,
          "velocity": 33
        },
        {
          "beat": 3.5479166507720947,
          "duration": 0.4520833194255829,
          "pitch": 33,
          "velocity": 34
        },
        {
          "beat": 3.56458330154419,
          "duration": 0.43541666865348816,
          "pitch": 32,
          "velocity": 28
        }
      ],
      "decodedMidiPath": "rhythm_midi_patterns/decoded_pattern_midis/GEC1_12.mid"
    },
    {
      "code": "GEC1_13",
      "type": "chord_model_str",
      "subtype": "strings",
      "family": "GuitarEC",
      "version": "0.0.0.0",
      "sizePagesOrUnits": 43,
      "crc32": 628367433,
      "bpm": 70,
      "bnum": 44,
      "noteCount": 12,
      "notes": [
        {
          "beat": 0,
          "duration": 1.5208333730697632,
          "pitch": 24,
          "velocity": 30
        },
        {
          "beat": 0,
          "duration": 2,
          "pitch": 31,
          "velocity": 40
        },
        {
          "beat": 0,
          "duration": 2,
          "pitch": 33,
          "velocity": 40
        },
        {
          "beat": 0,
          "duration": 2,
          "pitch": 34,
          "velocity": 40
        },
        {
          "beat": 0,
          "duration": 2,
          "pitch": 35,
          "velocity": 31
        },
        {
          "beat": 0,
          "duration": 2,
          "pitch": 36,
          "velocity": 40
        },
        {
          "beat": 2,
          "duration": 1.5208333730697632,
          "pitch": 24,
          "velocity": 30
        },
        {
          "beat": 2,
          "duration": 2,
          "pitch": 31,
          "velocity": 40
        },
        {
          "beat": 2,
          "duration": 2,
          "pitch": 33,
          "velocity": 33
        },
        {
          "beat": 2,
          "duration": 2,
          "pitch": 34,
          "velocity": 33
        },
        {
          "beat": 2,
          "duration": 2,
          "pitch": 35,
          "velocity": 25
        },
        {
          "beat": 2,
          "duration": 2,
          "pitch": 36,
          "velocity": 33
        }
      ],
      "decodedMidiPath": "rhythm_midi_patterns/decoded_pattern_midis/GEC1_13.mid"
    },
    {
      "code": "GEC1_14",
      "type": "chord_model_str",
      "subtype": "strings",
      "family": "GuitarEC",
      "version": "0.0.0.0",
      "sizePagesOrUnits": 41,
      "crc32": 1759525011,
      "bpm": 70,
      "bnum": 44,
      "noteCount": 14,
      "notes": [
        {
          "beat": 0,
          "duration": 0.25,
          "pitch": 24,
          "velocity": 111
        },
        {
          "beat": 0,
          "duration": 2,
          "pitch": 31,
          "velocity": 23
        },
        {
          "beat": 0.01875000074505806,
          "duration": 1.9812500476837158,
          "pitch": 32,
          "velocity": 21
        },
        {
          "beat": 0.0416666679084301,
          "duration": 1.9583333730697632,
          "pitch": 33,
          "velocity": 27
        },
        {
          "beat": 0.06458333134651184,
          "duration": 1.9354166984558105,
          "pitch": 34,
          "velocity": 29
        },
        {
          "beat": 0.0833333358168602,
          "duration": 1.9166666269302368,
          "pitch": 35,
          "velocity": 20
        },
        {
          "beat": 0.10208333283662796,
          "duration": 1.8979166746139526,
          "pitch": 36,
          "velocity": 27
        },
        {
          "beat": 2,
          "duration": 0.25,
          "pitch": 24,
          "velocity": 111
        },
        {
          "beat": 2,
          "duration": 2,
          "pitch": 31,
          "velocity": 23
        },
        {
          "beat": 2.018749952316284,
          "duration": 1.9812500476837158,
          "pitch": 32,
          "velocity": 21
        },
        {
          "beat": 2.0416667461395264,
          "duration": 1.9583333730697632,
          "pitch": 33,
          "velocity": 27
        },
        {
          "beat": 2.06458330154419,
          "duration": 1.9354166984558105,
          "pitch": 34,
          "velocity": 29
        },
        {
          "beat": 2.0833332538604736,
          "duration": 1.9166666269302368,
          "pitch": 35,
          "velocity": 20
        },
        {
          "beat": 2.102083444595337,
          "duration": 1.8979166746139526,
          "pitch": 36,
          "velocity": 27
        }
      ],
      "decodedMidiPath": "rhythm_midi_patterns/decoded_pattern_midis/GEC1_14.mid"
    },
    {
      "code": "GEC1_15",
      "type": "chord_model_str",
      "subtype": "strings",
      "family": "GuitarEC",
      "version": "0.0.0.0",
      "sizePagesOrUnits": 99,
      "crc32": 218801000,
      "bpm": 80,
      "bnum": 44,
      "noteCount": 18,
      "notes": [
        {
          "beat": 0,
          "duration": 0.643750011920929,
          "pitch": 31,
          "velocity": 15
        },
        {
          "beat": 0.01666666753590107,
          "duration": 0.6270833611488342,
          "pitch": 32,
          "velocity": 15
        },
        {
          "beat": 0.5,
          "duration": 0.15416666865348816,
          "pitch": 33,
          "velocity": 46
        },
        {
          "beat": 0.5145833492279053,
          "duration": 0.13958333432674408,
          "pitch": 34,
          "velocity": 42
        },
        {
          "beat": 0.53125,
          "duration": 0.12291666865348816,
          "pitch": 35,
          "velocity": 45
        },
        {
          "beat": 0.5479166507720947,
          "duration": 0.10625000298023224,
          "pitch": 36,
          "velocity": 60
        },
        {
          "beat": 1.5,
          "duration": 0.15208333730697632,
          "pitch": 33,
          "velocity": 46
        },
        {
          "beat": 1.5145833492279053,
          "duration": 0.13750000298023224,
          "pitch": 34,
          "velocity": 42
        },
        {
          "beat": 1.53125,
          "duration": 0.12083332985639572,
          "pitch": 35,
          "velocity": 45
        },
        {
          "beat": 1.5479166507720947,
          "duration": 0.1041666641831398,
          "pitch": 36,
          "velocity": 60
        },
        {
          "beat": 2.5,
          "duration": 0.16249999403953552,
          "pitch": 33,
          "velocity": 46
        },
        {
          "beat": 2.5145833492279053,
          "duration": 0.14791665971279144,
          "pitch": 34,
          "velocity": 42
        },
        {
          "beat": 2.53125,
          "duration": 0.13124999403953552,
          "pitch": 35,
          "velocity": 45
        },
        {
          "beat": 2.5479166507720947,
          "duration": 0.1145833358168602,
          "pitch": 36,
          "velocity": 60
        },
        {
          "beat": 3.5,
          "duration": 0.15208333730697632,
          "pitch": 33,
          "velocity": 46
        },
        {
          "beat": 3.5145833492279053,
          "duration": 0.13750000298023224,
          "pitch": 34,
          "velocity": 42
        },
        {
          "beat": 3.53125,
          "duration": 0.12083332985639572,
          "pitch": 35,
          "velocity": 45
        },
        {
          "beat": 3.5479166507720947,
          "duration": 0.1041666641831398,
          "pitch": 36,
          "velocity": 60
        }
      ],
      "decodedMidiPath": "rhythm_midi_patterns/decoded_pattern_midis/GEC1_15.mid"
    },
    {
      "code": "GEC1_16",
      "type": "chord_model_str",
      "subtype": "strings",
      "family": "GuitarEC",
      "version": "0.0.0.0",
      "sizePagesOrUnits": 55,
      "crc32": 279067917,
      "bpm": 100,
      "bnum": 86,
      "noteCount": 10,
      "notes": [
        {
          "beat": 0,
          "duration": 1.493749976158142,
          "pitch": 31,
          "velocity": 37
        },
        {
          "beat": 0.012500000186264515,
          "duration": 1.4812500476837158,
          "pitch": 32,
          "velocity": 35
        },
        {
          "beat": 0.03125,
          "duration": 1.462499976158142,
          "pitch": 33,
          "velocity": 28
        },
        {
          "beat": 0.04791666567325592,
          "duration": 1.4458333253860474,
          "pitch": 34,
          "velocity": 28
        },
        {
          "beat": 1.5,
          "duration": 0.18958333134651184,
          "pitch": 31,
          "velocity": 37
        },
        {
          "beat": 1.5,
          "duration": 0.18958333134651184,
          "pitch": 32,
          "velocity": 35
        },
        {
          "beat": 1.5,
          "duration": 0.1875,
          "pitch": 33,
          "velocity": 56
        },
        {
          "beat": 1.506250023841858,
          "duration": 0.18125000596046448,
          "pitch": 34,
          "velocity": 64
        },
        {
          "beat": 1.5145833492279053,
          "duration": 0.17291666567325592,
          "pitch": 35,
          "velocity": 67
        },
        {
          "beat": 1.524999976158142,
          "duration": 0.16249999403953552,
          "pitch": 36,
          "velocity": 85
        }
      ],
      "decodedMidiPath": "rhythm_midi_patterns/decoded_pattern_midis/GEC1_16.mid"
    },
    {
      "code": "GEC1_17",
      "type": "chord_model_str",
      "subtype": "strings",
      "family": "GuitarEC",
      "version": "0.0.0.1",
      "sizePagesOrUnits": 99,
      "crc32": 2762129951,
      "bpm": 100,
      "bnum": 44,
      "noteCount": 31,
      "notes": [
        {
          "beat": 0,
          "duration": 0.6666666865348816,
          "pitch": 26,
          "velocity": 29
        },
        {
          "beat": 0,
          "duration": 0.6666666865348816,
          "pitch": 31,
          "velocity": 127
        },
        {
          "beat": 0.008333333767950535,
          "duration": 0.6583333611488342,
          "pitch": 32,
          "velocity": 125
        },
        {
          "beat": 0.6666666865348816,
          "duration": 0.3333333432674408,
          "pitch": 31,
          "velocity": 127
        },
        {
          "beat": 0.675000011920929,
          "duration": 0.324999988079071,
          "pitch": 32,
          "velocity": 125
        },
        {
          "beat": 1,
          "duration": 0.6666666865348816,
          "pitch": 24,
          "velocity": 29
        },
        {
          "beat": 1,
          "duration": 0.649999976158142,
          "pitch": 31,
          "velocity": 45
        },
        {
          "beat": 1.0083333253860474,
          "duration": 0.6479166746139526,
          "pitch": 32,
          "velocity": 43
        },
        {
          "beat": 1.0145833492279053,
          "duration": 0.649999976158142,
          "pitch": 33,
          "velocity": 55
        },
        {
          "beat": 1.0229166746139526,
          "duration": 0.643750011920929,
          "pitch": 34,
          "velocity": 55
        },
        {
          "beat": 1.0333333015441895,
          "duration": 0.6416666507720947,
          "pitch": 35,
          "velocity": 46
        },
        {
          "beat": 1.0437500476837158,
          "duration": 0.6458333134651184,
          "pitch": 36,
          "velocity": 42
        },
        {
          "beat": 1.6666666269302368,
          "duration": 0.3333333432674408,
          "pitch": 26,
          "velocity": 29
        },
        {
          "beat": 1.6666666269302368,
          "duration": 0.3333333432674408,
          "pitch": 31,
          "velocity": 124
        },
        {
          "beat": 1.6749999523162842,
          "duration": 0.324999988079071,
          "pitch": 32,
          "velocity": 123
        },
        {
          "beat": 2,
          "duration": 0.3333333432674408,
          "pitch": 26,
          "velocity": 29
        },
        {
          "beat": 2,
          "duration": 0.6666666865348816,
          "pitch": 31,
          "velocity": 126
        },
        {
          "beat": 2.008333444595337,
          "duration": 0.6583333611488342,
          "pitch": 32,
          "velocity": 124
        },
        {
          "beat": 2.0145833492279053,
          "duration": 0.9854166507720947,
          "pitch": 33,
          "velocity": 117
        },
        {
          "beat": 2.6666667461395264,
          "duration": 0.3333333432674408,
          "pitch": 31,
          "velocity": 126
        },
        {
          "beat": 2.674999952316284,
          "duration": 0.324999988079071,
          "pitch": 32,
          "velocity": 124
        },
        {
          "beat": 3,
          "duration": 0.6666666865348816,
          "pitch": 24,
          "velocity": 29
        },
        {
          "beat": 3,
          "duration": 0.6666666865348816,
          "pitch": 31,
          "velocity": 37
        },
        {
          "beat": 3.008333444595337,
          "duration": 0.6583333611488342,
          "pitch": 32,
          "velocity": 35
        },
        {
          "beat": 3.0145833492279053,
          "duration": 0.6520833373069763,
          "pitch": 33,
          "velocity": 46
        },
        {
          "beat": 3.022916555404663,
          "duration": 0.643750011920929,
          "pitch": 34,
          "velocity": 39
        },
        {
          "beat": 3.03333330154419,
          "duration": 0.6416666507720947,
          "pitch": 35,
          "velocity": 39
        },
        {
          "beat": 3.043750047683716,
          "duration": 0.6458333134651184,
          "pitch": 36,
          "velocity": 33
        },
        {
          "beat": 3.6666667461395264,
          "duration": 0.3333333432674408,
          "pitch": 26,
          "velocity": 34
        },
        {
          "beat": 3.6666667461395264,
          "duration": 0.3333333432674408,
          "pitch": 31,
          "velocity": 117
        },
        {
          "beat": 3.674999952316284,
          "duration": 0.324999988079071,
          "pitch": 32,
          "velocity": 115
        }
      ],
      "decodedMidiPath": "rhythm_midi_patterns/decoded_pattern_midis/GEC1_17.mid"
    },
    {
      "code": "GEC1_18",
      "type": "chord_model_str",
      "subtype": "strings",
      "family": "GuitarEC",
      "version": "0.0.0.1",
      "sizePagesOrUnits": 50,
      "crc32": 2776105797,
      "bpm": 63,
      "bnum": 44,
      "noteCount": 13,
      "notes": [
        {
          "beat": 0,
          "duration": 2,
          "pitch": 31,
          "velocity": 27
        },
        {
          "beat": 0.5,
          "duration": 1.2416666746139526,
          "pitch": 33,
          "velocity": 28
        },
        {
          "beat": 0.75,
          "duration": 0.7416666746139526,
          "pitch": 34,
          "velocity": 21
        },
        {
          "beat": 1,
          "duration": 1.9958332777023315,
          "pitch": 36,
          "velocity": 36
        },
        {
          "beat": 1.25,
          "duration": 1.9916666746139526,
          "pitch": 35,
          "velocity": 23
        },
        {
          "beat": 1.5,
          "duration": 1.2479166984558105,
          "pitch": 34,
          "velocity": 19
        },
        {
          "beat": 1.75,
          "duration": 0.7395833134651184,
          "pitch": 33,
          "velocity": 25
        },
        {
          "beat": 2,
          "duration": 2.054166555404663,
          "pitch": 31,
          "velocity": 27
        },
        {
          "beat": 2.5,
          "duration": 1.53125,
          "pitch": 33,
          "velocity": 28
        },
        {
          "beat": 2.74791669845581,
          "duration": 0.743749976158142,
          "pitch": 34,
          "velocity": 21
        },
        {
          "beat": 3,
          "duration": 1.056249976158142,
          "pitch": 36,
          "velocity": 36
        },
        {
          "beat": 3.25,
          "duration": 0.7854166626930237,
          "pitch": 35,
          "velocity": 23
        },
        {
          "beat": 3.5,
          "duration": 0.53125,
          "pitch": 34,
          "velocity": 18
        }
      ],
      "decodedMidiPath": "rhythm_midi_patterns/decoded_pattern_midis/GEC1_18.mid"
    },
    {
      "code": "GEC1_2",
      "type": "chord_model_str",
      "subtype": "strings",
      "family": "GuitarEC",
      "version": "0.0.0.1",
      "sizePagesOrUnits": 33,
      "crc32": 2765645639,
      "bpm": 95,
      "bnum": 44,
      "noteCount": 8,
      "notes": [
        {
          "beat": 0,
          "duration": 4.072916507720947,
          "pitch": 31,
          "velocity": 30
        },
        {
          "beat": 0.5,
          "duration": 0.9729166626930237,
          "pitch": 33,
          "velocity": 34
        },
        {
          "beat": 1,
          "duration": 1.9729167222976685,
          "pitch": 34,
          "velocity": 48
        },
        {
          "beat": 1.5,
          "duration": 0.9729166626930237,
          "pitch": 33,
          "velocity": 29
        },
        {
          "beat": 2,
          "duration": 1.4729167222976685,
          "pitch": 35,
          "velocity": 31
        },
        {
          "beat": 2.5,
          "duration": 1.5229166746139526,
          "pitch": 33,
          "velocity": 34
        },
        {
          "beat": 3,
          "duration": 1.0187499523162842,
          "pitch": 34,
          "velocity": 31
        },
        {
          "beat": 3.5,
          "duration": 0.5729166865348816,
          "pitch": 35,
          "velocity": 30
        }
      ],
      "decodedMidiPath": "rhythm_midi_patterns/decoded_pattern_midis/GEC1_2.mid"
    },
    {
      "code": "GEC1_3",
      "type": "chord_model_str",
      "subtype": "strings",
      "family": "GuitarEC",
      "version": "0.0.0.1",
      "sizePagesOrUnits": 29,
      "crc32": 2915691791,
      "bpm": 86,
      "bnum": 86,
      "noteCount": 5,
      "notes": [
        {
          "beat": 0,
          "duration": 3,
          "pitch": 31,
          "velocity": 30
        },
        {
          "beat": 0.5,
          "duration": 2.5,
          "pitch": 33,
          "velocity": 34
        },
        {
          "beat": 1,
          "duration": 1.4833333492279053,
          "pitch": 34,
          "velocity": 46
        },
        {
          "beat": 1.5,
          "duration": 1.5,
          "pitch": 35,
          "velocity": 41
        },
        {
          "beat": 2.5,
          "duration": 0.5291666388511658,
          "pitch": 34,
          "velocity": 20
        }
      ],
      "decodedMidiPath": "rhythm_midi_patterns/decoded_pattern_midis/GEC1_3.mid"
    },
    {
      "code": "GEC1_4",
      "type": "chord_model_str",
      "subtype": "strings",
      "family": "GuitarEC",
      "version": "0.0.0.0",
      "sizePagesOrUnits": 35,
      "crc32": 2402113141,
      "bpm": 70,
      "bnum": 44,
      "noteCount": 8,
      "notes": [
        {
          "beat": 0,
          "duration": 4.110416889190674,
          "pitch": 31,
          "velocity": 30
        },
        {
          "beat": 0.5,
          "duration": 0.9770833253860474,
          "pitch": 34,
          "velocity": 28
        },
        {
          "beat": 1,
          "duration": 1.9770833253860474,
          "pitch": 35,
          "velocity": 50
        },
        {
          "beat": 1.5,
          "duration": 0.9770833253860474,
          "pitch": 34,
          "velocity": 25
        },
        {
          "beat": 2,
          "duration": 2.1104166507720947,
          "pitch": 36,
          "velocity": 30
        },
        {
          "beat": 2.5,
          "duration": 0.9770833253860474,
          "pitch": 34,
          "velocity": 20
        },
        {
          "beat": 3,
          "duration": 1.0145833492279053,
          "pitch": 35,
          "velocity": 30
        },
        {
          "beat": 3.5,
          "duration": 0.512499988079071,
          "pitch": 34,
          "velocity": 20
        }
      ],
      "decodedMidiPath": "rhythm_midi_patterns/decoded_pattern_midis/GEC1_4.mid"
    },
    {
      "code": "GEC1_5",
      "type": "chord_model_str",
      "subtype": "strings",
      "family": "GuitarEC",
      "version": "0.0.0.0",
      "sizePagesOrUnits": 29,
      "crc32": 348386294,
      "bpm": 80,
      "bnum": 86,
      "noteCount": 6,
      "notes": [
        {
          "beat": 0,
          "duration": 3,
          "pitch": 31,
          "velocity": 30
        },
        {
          "beat": 0.5,
          "duration": 2,
          "pitch": 33,
          "velocity": 25
        },
        {
          "beat": 1,
          "duration": 0.9729166626930237,
          "pitch": 34,
          "velocity": 25
        },
        {
          "beat": 1.5,
          "duration": 1.5,
          "pitch": 35,
          "velocity": 46
        },
        {
          "beat": 2,
          "duration": 1,
          "pitch": 34,
          "velocity": 25
        },
        {
          "beat": 2.5,
          "duration": 0.5270833373069763,
          "pitch": 33,
          "velocity": 25
        }
      ],
      "decodedMidiPath": "rhythm_midi_patterns/decoded_pattern_midis/GEC1_5.mid"
    },
    {
      "code": "GEC1_6",
      "type": "chord_model_str",
      "subtype": "strings",
      "family": "GuitarEC",
      "version": "0.0.0.0",
      "sizePagesOrUnits": 99,
      "crc32": 2423567224,
      "bpm": 70,
      "bnum": 44,
      "noteCount": 28,
      "notes": [
        {
          "beat": 0,
          "duration": 2,
          "pitch": 31,
          "velocity": 37
        },
        {
          "beat": 0.008333333767950535,
          "duration": 1.9979166984558105,
          "pitch": 32,
          "velocity": 35
        },
        {
          "beat": 0.014583333395421505,
          "duration": 2,
          "pitch": 33,
          "velocity": 47
        },
        {
          "beat": 0.02291666716337204,
          "duration": 0.9770833253860474,
          "pitch": 34,
          "velocity": 47
        },
        {
          "beat": 0.03333333507180214,
          "duration": 0.975000023841858,
          "pitch": 35,
          "velocity": 38
        },
        {
          "beat": 0.04374999925494194,
          "duration": 0.9791666865348816,
          "pitch": 36,
          "velocity": 34
        },
        {
          "beat": 1,
          "duration": 0.5,
          "pitch": 34,
          "velocity": 34
        },
        {
          "beat": 1.0083333253860474,
          "duration": 0.49166667461395264,
          "pitch": 35,
          "velocity": 31
        },
        {
          "beat": 1.0229166746139526,
          "duration": 0.7270833253860474,
          "pitch": 36,
          "velocity": 30
        },
        {
          "beat": 1.5,
          "duration": 0.25,
          "pitch": 34,
          "velocity": 19
        },
        {
          "beat": 1.5083333253860474,
          "duration": 0.24166665971279144,
          "pitch": 35,
          "velocity": 21
        },
        {
          "beat": 1.75,
          "duration": 0.25,
          "pitch": 36,
          "velocity": 30
        },
        {
          "beat": 1.756250023841858,
          "duration": 0.2750000059604645,
          "pitch": 35,
          "velocity": 33
        },
        {
          "beat": 1.7625000476837158,
          "duration": 0.25833332538604736,
          "pitch": 34,
          "velocity": 27
        },
        {
          "beat": 2,
          "duration": 2,
          "pitch": 31,
          "velocity": 29
        },
        {
          "beat": 2.008333444595337,
          "duration": 1.9916666746139526,
          "pitch": 32,
          "velocity": 27
        },
        {
          "beat": 2.0145833492279053,
          "duration": 1.9895833730697632,
          "pitch": 33,
          "velocity": 38
        },
        {
          "beat": 2.022916555404663,
          "duration": 0.9770833253860474,
          "pitch": 34,
          "velocity": 31
        },
        {
          "beat": 2.03333330154419,
          "duration": 0.975000023841858,
          "pitch": 35,
          "velocity": 31
        },
        {
          "beat": 2.043750047683716,
          "duration": 0.9791666865348816,
          "pitch": 36,
          "velocity": 25
        },
        {
          "beat": 3,
          "duration": 0.5,
          "pitch": 34,
          "velocity": 23
        },
        {
          "beat": 3.008333444595337,
          "duration": 0.49166667461395264,
          "pitch": 35,
          "velocity": 31
        },
        {
          "beat": 3.022916555404663,
          "duration": 0.7270833253860474,
          "pitch": 36,
          "velocity": 30
        },
        {
          "beat": 3.5,
          "duration": 0.25,
          "pitch": 34,
          "velocity": 21
        },
        {
          "beat": 3.508333444595337,
          "duration": 0.24166665971279144,
          "pitch": 35,
          "velocity": 20
        },
        {
          "beat": 3.75,
          "duration": 0.27916666865348816,
          "pitch": 36,
          "velocity": 25
        },
        {
          "beat": 3.7562499046325684,
          "duration": 0.2562499940395355,
          "pitch": 35,
          "velocity": 31
        },
        {
          "beat": 3.762500047683716,
          "duration": 0.25833332538604736,
          "pitch": 34,
          "velocity": 24
        }
      ],
      "decodedMidiPath": "rhythm_midi_patterns/decoded_pattern_midis/GEC1_6.mid"
    },
    {
      "code": "GEC1_7",
      "type": "chord_model_str",
      "subtype": "strings",
      "family": "GuitarEC",
      "version": "0.0.0.0",
      "sizePagesOrUnits": 36,
      "crc32": 3363481600,
      "bpm": 85,
      "bnum": 44,
      "noteCount": 8,
      "notes": [
        {
          "beat": 0,
          "duration": 4.110416889190674,
          "pitch": 31,
          "velocity": 30
        },
        {
          "beat": 0.5,
          "duration": 2.987499952316284,
          "pitch": 33,
          "velocity": 29
        },
        {
          "beat": 1,
          "duration": 1.9770833253860474,
          "pitch": 34,
          "velocity": 35
        },
        {
          "beat": 1.5,
          "duration": 0.987500011920929,
          "pitch": 35,
          "velocity": 25
        },
        {
          "beat": 2,
          "duration": 2.1104166507720947,
          "pitch": 36,
          "velocity": 34
        },
        {
          "beat": 2.5,
          "duration": 1.5187499523162842,
          "pitch": 35,
          "velocity": 23
        },
        {
          "beat": 3,
          "duration": 1.0145833492279053,
          "pitch": 34,
          "velocity": 37
        },
        {
          "beat": 3.5,
          "duration": 0.512499988079071,
          "pitch": 33,
          "velocity": 29
        }
      ],
      "decodedMidiPath": "rhythm_midi_patterns/decoded_pattern_midis/GEC1_7.mid"
    },
    {
      "code": "GEC1_8",
      "type": "chord_model_str",
      "subtype": "strings",
      "family": "GuitarEC",
      "version": "0.0.0.0",
      "sizePagesOrUnits": 54,
      "crc32": 2024267258,
      "bpm": 70,
      "bnum": 44,
      "noteCount": 14,
      "notes": [
        {
          "beat": 0,
          "duration": 2,
          "pitch": 31,
          "velocity": 36
        },
        {
          "beat": 0,
          "duration": 0.9895833134651184,
          "pitch": 34,
          "velocity": 39
        },
        {
          "beat": 0,
          "duration": 0.9895833134651184,
          "pitch": 36,
          "velocity": 31
        },
        {
          "beat": 0.008333333767950535,
          "duration": 0.9708333611488342,
          "pitch": 35,
          "velocity": 34
        },
        {
          "beat": 1.0020833015441895,
          "duration": 0.9979166388511658,
          "pitch": 35,
          "velocity": 25
        },
        {
          "beat": 1.006250023841858,
          "duration": 0.993749976158142,
          "pitch": 34,
          "velocity": 34
        },
        {
          "beat": 1.006250023841858,
          "duration": 0.993749976158142,
          "pitch": 36,
          "velocity": 24
        },
        {
          "beat": 2,
          "duration": 2.0458333492279053,
          "pitch": 31,
          "velocity": 26
        },
        {
          "beat": 2.008333444595337,
          "duration": 0.987500011920929,
          "pitch": 34,
          "velocity": 37
        },
        {
          "beat": 2.0104167461395264,
          "duration": 0.981249988079071,
          "pitch": 36,
          "velocity": 25
        },
        {
          "beat": 2.0145833492279053,
          "duration": 0.9708333611488342,
          "pitch": 35,
          "velocity": 29
        },
        {
          "beat": 3,
          "duration": 1.0125000476837158,
          "pitch": 34,
          "velocity": 42
        },
        {
          "beat": 3.0062499046325684,
          "duration": 1.006250023841858,
          "pitch": 35,
          "velocity": 23
        },
        {
          "beat": 3.008333444595337,
          "duration": 1.0395833253860474,
          "pitch": 36,
          "velocity": 20
        }
      ],
      "decodedMidiPath": "rhythm_midi_patterns/decoded_pattern_midis/GEC1_8.mid"
    },
    {
      "code": "GEC1_9",
      "type": "chord_model_str",
      "subtype": "strings",
      "family": "GuitarEC",
      "version": "0.0.0.0",
      "sizePagesOrUnits": 57,
      "crc32": 2778461174,
      "bpm": 70,
      "bnum": 44,
      "noteCount": 15,
      "notes": [
        {
          "beat": 0,
          "duration": 2,
          "pitch": 31,
          "velocity": 37
        },
        {
          "beat": 0,
          "duration": 0.4937500059604645,
          "pitch": 34,
          "velocity": 36
        },
        {
          "beat": 0,
          "duration": 0.9895833134651184,
          "pitch": 36,
          "velocity": 30
        },
        {
          "beat": 0.008333333767950535,
          "duration": 0.9708333611488342,
          "pitch": 35,
          "velocity": 31
        },
        {
          "beat": 0.5,
          "duration": 0.9916666746139526,
          "pitch": 34,
          "velocity": 28
        },
        {
          "beat": 1.0020833015441895,
          "duration": 0.9979166388511658,
          "pitch": 35,
          "velocity": 28
        },
        {
          "beat": 1.006250023841858,
          "duration": 0.993749976158142,
          "pitch": 36,
          "velocity": 25
        },
        {
          "beat": 1.5,
          "duration": 0.9916666746139526,
          "pitch": 34,
          "velocity": 27
        },
        {
          "beat": 2,
          "duration": 2.0458333492279053,
          "pitch": 31,
          "velocity": 27
        },
        {
          "beat": 2,
          "duration": 0.9916666746139526,
          "pitch": 36,
          "velocity": 28
        },
        {
          "beat": 2.0145833492279053,
          "duration": 0.9708333611488342,
          "pitch": 35,
          "velocity": 31
        },
        {
          "beat": 2.5,
          "duration": 0.9916666746139526,
          "pitch": 34,
          "velocity": 34
        },
        {
          "beat": 3,
          "duration": 1.0083333253860474,
          "pitch": 35,
          "velocity": 20
        },
        {
          "beat": 3,
          "duration": 1.0395833253860474,
          "pitch": 36,
          "velocity": 26
        },
        {
          "beat": 3.5,
          "duration": 0.512499988079071,
          "pitch": 34,
          "velocity": 35
        }
      ],
      "decodedMidiPath": "rhythm_midi_patterns/decoded_pattern_midis/GEC1_9.mid"
    },
    {
      "code": "GEC2_1",
      "type": "chord_model_str",
      "subtype": "strings",
      "family": "GuitarEC",
      "version": "0.0.0.1",
      "sizePagesOrUnits": 34,
      "crc32": 3382934907,
      "bpm": 95,
      "bnum": 44,
      "noteCount": 6,
      "notes": [
        {
          "beat": 0,
          "duration": 4.054166793823242,
          "pitch": 31,
          "velocity": 20
        },
        {
          "beat": 0.02708333358168602,
          "duration": 1.4541666507720947,
          "pitch": 36,
          "velocity": 20
        },
        {
          "beat": 0.5,
          "duration": 2.4833333492279053,
          "pitch": 34,
          "velocity": 12
        },
        {
          "beat": 1,
          "duration": 3.012500047683716,
          "pitch": 35,
          "velocity": 21
        },
        {
          "beat": 1.5,
          "duration": 2.554166555404663,
          "pitch": 36,
          "velocity": 20
        },
        {
          "beat": 3,
          "duration": 1.0125000476837158,
          "pitch": 34,
          "velocity": 12
        }
      ],
      "decodedMidiPath": "rhythm_midi_patterns/decoded_pattern_midis/GEC2_1.mid"
    },
    {
      "code": "GEC2_10",
      "type": "chord_model_str",
      "subtype": "strings",
      "family": "GuitarEC",
      "version": "0.0.0.0",
      "sizePagesOrUnits": 34,
      "crc32": 4097813422,
      "bpm": 120,
      "bnum": 43,
      "noteCount": 7,
      "notes": [
        {
          "beat": 0,
          "duration": 3,
          "pitch": 31,
          "velocity": 27
        },
        {
          "beat": 1.0020833015441895,
          "duration": 0.34583333134651184,
          "pitch": 35,
          "velocity": 12
        },
        {
          "beat": 1.006250023841858,
          "duration": 0.34166666865348816,
          "pitch": 34,
          "velocity": 21
        },
        {
          "beat": 1.006250023841858,
          "duration": 0.34166666865348816,
          "pitch": 36,
          "velocity": 9
        },
        {
          "beat": 2,
          "duration": 1,
          "pitch": 34,
          "velocity": 36
        },
        {
          "beat": 2,
          "duration": 1,
          "pitch": 36,
          "velocity": 19
        },
        {
          "beat": 2.008333444595337,
          "duration": 0.9916666746139526,
          "pitch": 35,
          "velocity": 21
        }
      ],
      "decodedMidiPath": "rhythm_midi_patterns/decoded_pattern_midis/GEC2_10.mid"
    },
    {
      "code": "GEC2_11",
      "type": "chord_model_str",
      "subtype": "strings",
      "family": "GuitarEC",
      "version": "0.0.0.0",
      "sizePagesOrUnits": 40,
      "crc32": 4274313385,
      "bpm": 69,
      "bnum": 44,
      "noteCount": 5,
      "notes": [
        {
          "beat": 0,
          "duration": 4,
          "pitch": 31,
          "velocity": 22
        },
        {
          "beat": 0.5,
          "duration": 3.5,
          "pitch": 32,
          "velocity": 19
        },
        {
          "beat": 0.75,
          "duration": 3.25,
          "pitch": 34,
          "velocity": 29
        },
        {
          "beat": 1.25,
          "duration": 2.75,
          "pitch": 33,
          "velocity": 29
        },
        {
          "beat": 2,
          "duration": 2,
          "pitch": 35,
          "velocity": 22
        }
      ],
      "decodedMidiPath": "rhythm_midi_patterns/decoded_pattern_midis/GEC2_11.mid"
    },
    {
      "code": "GEC2_12",
      "type": "chord_model_str",
      "subtype": "strings",
      "family": "GuitarEC",
      "version": "0.0.0.0",
      "sizePagesOrUnits": 93,
      "crc32": 2548072167,
      "bpm": 70,
      "bnum": 44,
      "noteCount": 29,
      "notes": [
        {
          "beat": 0,
          "duration": 1.5,
          "pitch": 31,
          "velocity": 26
        },
        {
          "beat": 0.012500000186264515,
          "duration": 1.4874999523162842,
          "pitch": 32,
          "velocity": 24
        },
        {
          "beat": 0.02291666716337204,
          "duration": 0.9770833253860474,
          "pitch": 33,
          "velocity": 30
        },
        {
          "beat": 0.03750000149011612,
          "duration": 0.962499976158142,
          "pitch": 34,
          "velocity": 32
        },
        {
          "beat": 0.0520833320915699,
          "duration": 0.9666666388511658,
          "pitch": 35,
          "velocity": 23
        },
        {
          "beat": 0.06666667014360428,
          "duration": 0.9645833373069763,
          "pitch": 36,
          "velocity": 30
        },
        {
          "beat": 1,
          "duration": 0.8125,
          "pitch": 33,
          "velocity": 30
        },
        {
          "beat": 1.0104166269302368,
          "duration": 0.7645833492279053,
          "pitch": 34,
          "velocity": 29
        },
        {
          "beat": 1.0208333730697632,
          "duration": 0.7291666865348816,
          "pitch": 35,
          "velocity": 20
        },
        {
          "beat": 1.0395833253860474,
          "duration": 0.7104166746139526,
          "pitch": 36,
          "velocity": 30
        },
        {
          "beat": 1.5,
          "duration": 1,
          "pitch": 31,
          "velocity": 19
        },
        {
          "beat": 1.5083333253860474,
          "duration": 0.9916666746139526,
          "pitch": 32,
          "velocity": 17
        },
        {
          "beat": 1.75,
          "duration": 1.2666666507720947,
          "pitch": 36,
          "velocity": 25
        },
        {
          "beat": 1.7687499523162842,
          "duration": 0.487500011920929,
          "pitch": 35,
          "velocity": 14
        },
        {
          "beat": 1.787500023841858,
          "duration": 0.4729166626930237,
          "pitch": 34,
          "velocity": 27
        },
        {
          "beat": 1.8166667222976685,
          "duration": 0.4479166567325592,
          "pitch": 33,
          "velocity": 30
        },
        {
          "beat": 2.2562499046325684,
          "duration": 0.743749976158142,
          "pitch": 35,
          "velocity": 14
        },
        {
          "beat": 2.2604167461395264,
          "duration": 0.7395833134651184,
          "pitch": 34,
          "velocity": 26
        },
        {
          "beat": 2.2708332538604736,
          "duration": 0.7291666865348816,
          "pitch": 33,
          "velocity": 21
        },
        {
          "beat": 2.5,
          "duration": 1.5,
          "pitch": 31,
          "velocity": 26
        },
        {
          "beat": 2.5104167461395264,
          "duration": 1.4895833730697632,
          "pitch": 32,
          "velocity": 24
        },
        {
          "beat": 3,
          "duration": 0.7604166865348816,
          "pitch": 33,
          "velocity": 21
        },
        {
          "beat": 3,
          "duration": 0.7583333253860474,
          "pitch": 34,
          "velocity": 18
        },
        {
          "beat": 3.0104167461395264,
          "duration": 0.7395833134651184,
          "pitch": 35,
          "velocity": 14
        },
        {
          "beat": 3.027083396911621,
          "duration": 0.71875,
          "pitch": 36,
          "velocity": 27
        },
        {
          "beat": 3.75,
          "duration": 0.25,
          "pitch": 36,
          "velocity": 16
        },
        {
          "beat": 3.7562499046325684,
          "duration": 0.24375000596046448,
          "pitch": 35,
          "velocity": 14
        },
        {
          "beat": 3.7604167461395264,
          "duration": 0.2395833283662796,
          "pitch": 34,
          "velocity": 16
        },
        {
          "beat": 3.7645833492279053,
          "duration": 0.23541666567325592,
          "pitch": 33,
          "velocity": 14
        }
      ],
      "decodedMidiPath": "rhythm_midi_patterns/decoded_pattern_midis/GEC2_12.mid"
    },
    {
      "code": "GEC2_13",
      "type": "chord_model_str",
      "subtype": "strings",
      "family": "GuitarEC",
      "version": "0.0.0.0",
      "sizePagesOrUnits": 43,
      "crc32": 3007944689,
      "bpm": 70,
      "bnum": 44,
      "noteCount": 12,
      "notes": [
        {
          "beat": 0,
          "duration": 1.5208333730697632,
          "pitch": 24,
          "velocity": 20
        },
        {
          "beat": 0,
          "duration": 2,
          "pitch": 31,
          "velocity": 30
        },
        {
          "beat": 0,
          "duration": 2,
          "pitch": 33,
          "velocity": 30
        },
        {
          "beat": 0,
          "duration": 2,
          "pitch": 34,
          "velocity": 30
        },
        {
          "beat": 0,
          "duration": 2,
          "pitch": 35,
          "velocity": 21
        },
        {
          "beat": 0,
          "duration": 2,
          "pitch": 36,
          "velocity": 30
        },
        {
          "beat": 2,
          "duration": 1.5208333730697632,
          "pitch": 24,
          "velocity": 20
        },
        {
          "beat": 2,
          "duration": 2,
          "pitch": 31,
          "velocity": 30
        },
        {
          "beat": 2,
          "duration": 2,
          "pitch": 33,
          "velocity": 23
        },
        {
          "beat": 2,
          "duration": 2,
          "pitch": 34,
          "velocity": 23
        },
        {
          "beat": 2,
          "duration": 2,
          "pitch": 35,
          "velocity": 15
        },
        {
          "beat": 2,
          "duration": 2,
          "pitch": 36,
          "velocity": 23
        }
      ],
      "decodedMidiPath": "rhythm_midi_patterns/decoded_pattern_midis/GEC2_13.mid"
    },
    {
      "code": "GEC2_14",
      "type": "chord_model_str",
      "subtype": "strings",
      "family": "GuitarEC",
      "version": "0.0.0.0",
      "sizePagesOrUnits": 37,
      "crc32": 1494578764,
      "bpm": 70,
      "bnum": 44,
      "noteCount": 12,
      "notes": [
        {
          "beat": 0,
          "duration": 2,
          "pitch": 31,
          "velocity": 29
        },
        {
          "beat": 0.01875000074505806,
          "duration": 1.9812500476837158,
          "pitch": 32,
          "velocity": 27
        },
        {
          "beat": 0.0416666679084301,
          "duration": 1.9583333730697632,
          "pitch": 33,
          "velocity": 33
        },
        {
          "beat": 0.06458333134651184,
          "duration": 1.9354166984558105,
          "pitch": 34,
          "velocity": 35
        },
        {
          "beat": 0.0833333358168602,
          "duration": 1.9166666269302368,
          "pitch": 35,
          "velocity": 26
        },
        {
          "beat": 0.10208333283662796,
          "duration": 1.8979166746139526,
          "pitch": 36,
          "velocity": 30
        },
        {
          "beat": 2,
          "duration": 2,
          "pitch": 31,
          "velocity": 29
        },
        {
          "beat": 2.018749952316284,
          "duration": 1.9812500476837158,
          "pitch": 32,
          "velocity": 27
        },
        {
          "beat": 2.0416667461395264,
          "duration": 1.9583333730697632,
          "pitch": 33,
          "velocity": 33
        },
        {
          "beat": 2.06458330154419,
          "duration": 1.9354166984558105,
          "pitch": 34,
          "velocity": 35
        },
        {
          "beat": 2.0833332538604736,
          "duration": 1.9166666269302368,
          "pitch": 35,
          "velocity": 26
        },
        {
          "beat": 2.102083444595337,
          "duration": 1.8979166746139526,
          "pitch": 36,
          "velocity": 30
        }
      ],
      "decodedMidiPath": "rhythm_midi_patterns/decoded_pattern_midis/GEC2_14.mid"
    },
    {
      "code": "GEC2_15",
      "type": "chord_model_str",
      "subtype": "strings",
      "family": "GuitarEC",
      "version": "0.0.0.0",
      "sizePagesOrUnits": 89,
      "crc32": 3702247256,
      "bpm": 105,
      "bnum": 44,
      "noteCount": 28,
      "notes": [
        {
          "beat": 0,
          "duration": 0.1458333283662796,
          "pitch": 24,
          "velocity": 10
        },
        {
          "beat": 0,
          "duration": 1,
          "pitch": 31,
          "velocity": 7
        },
        {
          "beat": 0,
          "duration": 0.5,
          "pitch": 33,
          "velocity": 12
        },
        {
          "beat": 0,
          "duration": 0.5,
          "pitch": 34,
          "velocity": 12
        },
        {
          "beat": 0.008333333767950535,
          "duration": 0.49166667461395264,
          "pitch": 35,
          "velocity": 36
        },
        {
          "beat": 0.01875000074505806,
          "duration": 0.481249988079071,
          "pitch": 36,
          "velocity": 59
        },
        {
          "beat": 0.5,
          "duration": 0.5,
          "pitch": 33,
          "velocity": 1
        },
        {
          "beat": 0.5,
          "duration": 0.5,
          "pitch": 34,
          "velocity": 1
        },
        {
          "beat": 0.506250023841858,
          "duration": 0.24375000596046448,
          "pitch": 35,
          "velocity": 4
        },
        {
          "beat": 0.5166666507720947,
          "duration": 0.23333333432674408,
          "pitch": 36,
          "velocity": 5
        },
        {
          "beat": 0.75,
          "duration": 0.25,
          "pitch": 35,
          "velocity": 27
        },
        {
          "beat": 0.75,
          "duration": 0.25,
          "pitch": 36,
          "velocity": 32
        },
        {
          "beat": 1,
          "duration": 0.1458333283662796,
          "pitch": 26,
          "velocity": 10
        },
        {
          "beat": 1,
          "duration": 0.25,
          "pitch": 35,
          "velocity": 16
        },
        {
          "beat": 1.25,
          "duration": 0.1458333283662796,
          "pitch": 24,
          "velocity": 10
        },
        {
          "beat": 1.25,
          "duration": 0.25,
          "pitch": 35,
          "velocity": 43
        },
        {
          "beat": 1.25,
          "duration": 0.25,
          "pitch": 36,
          "velocity": 61
        },
        {
          "beat": 1.2604166269302368,
          "duration": 0.2395833283662796,
          "pitch": 34,
          "velocity": 5
        },
        {
          "beat": 1.2625000476837158,
          "duration": 0.23749999701976776,
          "pitch": 33,
          "velocity": 5
        },
        {
          "beat": 1.5,
          "duration": 0.1458333283662796,
          "pitch": 26,
          "velocity": 10
        },
        {
          "beat": 1.5,
          "duration": 0.25,
          "pitch": 35,
          "velocity": 16
        },
        {
          "beat": 1.75,
          "duration": 0.25,
          "pitch": 35,
          "velocity": 16
        },
        {
          "beat": 2,
          "duration": 0.1458333283662796,
          "pitch": 24,
          "velocity": 10
        },
        {
          "beat": 2,
          "duration": 0.28125,
          "pitch": 31,
          "velocity": 1
        },
        {
          "beat": 2,
          "duration": 0.28125,
          "pitch": 33,
          "velocity": 1
        },
        {
          "beat": 2,
          "duration": 0.28125,
          "pitch": 34,
          "velocity": 1
        },
        {
          "beat": 2.0062499046325684,
          "duration": 0.2750000059604645,
          "pitch": 35,
          "velocity": 38
        },
        {
          "beat": 2.0166666507720947,
          "duration": 0.2645833194255829,
          "pitch": 36,
          "velocity": 64
        }
      ],
      "decodedMidiPath": "rhythm_midi_patterns/decoded_pattern_midis/GEC2_15.mid"
    },
    {
      "code": "GEC2_16",
      "type": "chord_model_str",
      "subtype": "strings",
      "family": "GuitarEC",
      "version": "0.0.0.0",
      "sizePagesOrUnits": 152,
      "crc32": 3650621753,
      "bpm": 115,
      "bnum": 44,
      "noteCount": 44,
      "notes": [
        {
          "beat": 0,
          "duration": 0.75,
          "pitch": 24,
          "velocity": 10
        },
        {
          "beat": 0,
          "duration": 0.25,
          "pitch": 31,
          "velocity": 1
        },
        {
          "beat": 0.5,
          "duration": 0.21250000596046448,
          "pitch": 31,
          "velocity": 1
        },
        {
          "beat": 0.5,
          "duration": 0.21250000596046448,
          "pitch": 33,
          "velocity": 27
        },
        {
          "beat": 0.506250023841858,
          "duration": 0.20624999701976776,
          "pitch": 34,
          "velocity": 26
        },
        {
          "beat": 0.5083333253860474,
          "duration": 0.20416666567325592,
          "pitch": 35,
          "velocity": 41
        },
        {
          "beat": 0.5145833492279053,
          "duration": 0.1979166716337204,
          "pitch": 36,
          "velocity": 48
        },
        {
          "beat": 0.75,
          "duration": 0.5,
          "pitch": 26,
          "velocity": 26
        },
        {
          "beat": 0.75,
          "duration": 0.25,
          "pitch": 34,
          "velocity": 26
        },
        {
          "beat": 1.006250023841858,
          "duration": 0.24375000596046448,
          "pitch": 34,
          "velocity": 32
        },
        {
          "beat": 1.25,
          "duration": 0.2708333432674408,
          "pitch": 24,
          "velocity": 10
        },
        {
          "beat": 1.25,
          "duration": 0.21875,
          "pitch": 31,
          "velocity": 1
        },
        {
          "beat": 1.25,
          "duration": 0.21875,
          "pitch": 36,
          "velocity": 30
        },
        {
          "beat": 1.256250023841858,
          "duration": 0.21250000596046448,
          "pitch": 35,
          "velocity": 32
        },
        {
          "beat": 1.2604166269302368,
          "duration": 0.2083333283662796,
          "pitch": 34,
          "velocity": 17
        },
        {
          "beat": 1.2604166269302368,
          "duration": 0.2083333283662796,
          "pitch": 33,
          "velocity": 6
        },
        {
          "beat": 1.5,
          "duration": 0.5,
          "pitch": 26,
          "velocity": 26
        },
        {
          "beat": 2,
          "duration": 0.2083333283662796,
          "pitch": 24,
          "velocity": 10
        },
        {
          "beat": 2,
          "duration": 0.23125000298023224,
          "pitch": 31,
          "velocity": 1
        },
        {
          "beat": 2,
          "duration": 0.23125000298023224,
          "pitch": 33,
          "velocity": 27
        },
        {
          "beat": 2,
          "duration": 0.23125000298023224,
          "pitch": 34,
          "velocity": 22
        },
        {
          "beat": 2.008333444595337,
          "duration": 0.22291666269302368,
          "pitch": 35,
          "velocity": 35
        },
        {
          "beat": 2.0145833492279053,
          "duration": 0.21666666865348816,
          "pitch": 36,
          "velocity": 43
        },
        {
          "beat": 2.25,
          "duration": 0.5,
          "pitch": 26,
          "velocity": 26
        },
        {
          "beat": 2.25,
          "duration": 0.25,
          "pitch": 34,
          "velocity": 27
        },
        {
          "beat": 2.2562499046325684,
          "duration": 0.24375000596046448,
          "pitch": 33,
          "velocity": 27
        },
        {
          "beat": 2.5,
          "duration": 0.25,
          "pitch": 33,
          "velocity": 30
        },
        {
          "beat": 2.5062499046325684,
          "duration": 0.24375000596046448,
          "pitch": 34,
          "velocity": 32
        },
        {
          "beat": 2.75,
          "duration": 0.25,
          "pitch": 24,
          "velocity": 26
        },
        {
          "beat": 2.75,
          "duration": 0.1666666716337204,
          "pitch": 31,
          "velocity": 1
        },
        {
          "beat": 2.75,
          "duration": 0.1666666716337204,
          "pitch": 35,
          "velocity": 19
        },
        {
          "beat": 2.75,
          "duration": 0.1666666716337204,
          "pitch": 36,
          "velocity": 35
        },
        {
          "beat": 2.7604167461395264,
          "duration": 0.15625,
          "pitch": 34,
          "velocity": 20
        },
        {
          "beat": 2.762500047683716,
          "duration": 0.15416666865348816,
          "pitch": 33,
          "velocity": 32
        },
        {
          "beat": 3,
          "duration": 0.5,
          "pitch": 26,
          "velocity": 26
        },
        {
          "beat": 3.4937500953674316,
          "duration": 0.3062500059604645,
          "pitch": 24,
          "velocity": 26
        },
        {
          "beat": 3.5,
          "duration": 0.5,
          "pitch": 31,
          "velocity": 1
        },
        {
          "beat": 3.5,
          "duration": 0.5,
          "pitch": 33,
          "velocity": 27
        },
        {
          "beat": 3.5,
          "duration": 0.24375000596046448,
          "pitch": 34,
          "velocity": 27
        },
        {
          "beat": 3.508333444595337,
          "duration": 0.24166665971279144,
          "pitch": 35,
          "velocity": 41
        },
        {
          "beat": 3.518749952316284,
          "duration": 0.23125000298023224,
          "pitch": 36,
          "velocity": 35
        },
        {
          "beat": 3.75,
          "duration": 0.25,
          "pitch": 36,
          "velocity": 23
        },
        {
          "beat": 3.7562499046325684,
          "duration": 0.24375000596046448,
          "pitch": 35,
          "velocity": 29
        },
        {
          "beat": 3.762500047683716,
          "duration": 0.23749999701976776,
          "pitch": 34,
          "velocity": 10
        }
      ],
      "decodedMidiPath": "rhythm_midi_patterns/decoded_pattern_midis/GEC2_16.mid"
    },
    {
      "code": "GEC2_17",
      "type": "chord_model_str",
      "subtype": "strings",
      "family": "GuitarEC",
      "version": "0.0.0.0",
      "sizePagesOrUnits": 113,
      "crc32": 2215776463,
      "bpm": 109,
      "bnum": 44,
      "noteCount": 23,
      "notes": [
        {
          "beat": 0,
          "duration": 0.75,
          "pitch": 24,
          "velocity": 10
        },
        {
          "beat": 0,
          "duration": 0.21250000596046448,
          "pitch": 33,
          "velocity": 27
        },
        {
          "beat": 0.0062500000931322575,
          "duration": 0.20000000298023224,
          "pitch": 34,
          "velocity": 26
        },
        {
          "beat": 0.012500000186264515,
          "duration": 0.16458334028720856,
          "pitch": 35,
          "velocity": 41
        },
        {
          "beat": 0.774999976158142,
          "duration": 0.5,
          "pitch": 26,
          "velocity": 26
        },
        {
          "beat": 0.774999976158142,
          "duration": 0.21250000596046448,
          "pitch": 35,
          "velocity": 32
        },
        {
          "beat": 0.78125,
          "duration": 0.20208333432674408,
          "pitch": 34,
          "velocity": 17
        },
        {
          "beat": 0.787500023841858,
          "duration": 0.19583334028720856,
          "pitch": 33,
          "velocity": 30
        },
        {
          "beat": 1.274999976158142,
          "duration": 0.2708333432674408,
          "pitch": 24,
          "velocity": 10
        },
        {
          "beat": 1.274999976158142,
          "duration": 0.14166666567325592,
          "pitch": 34,
          "velocity": 26
        },
        {
          "beat": 1.5,
          "duration": 0.25,
          "pitch": 26,
          "velocity": 26
        },
        {
          "beat": 1.774999976158142,
          "duration": 0.4583333432674408,
          "pitch": 24,
          "velocity": 10
        },
        {
          "beat": 1.774999976158142,
          "duration": 0.5979166626930237,
          "pitch": 35,
          "velocity": 41
        },
        {
          "beat": 1.7791666984558105,
          "duration": 0.5541666746139526,
          "pitch": 34,
          "velocity": 26
        },
        {
          "beat": 1.78125,
          "duration": 0.6770833134651184,
          "pitch": 33,
          "velocity": 27
        },
        {
          "beat": 2.2750000953674316,
          "duration": 0.25,
          "pitch": 26,
          "velocity": 26
        },
        {
          "beat": 2.5,
          "duration": 0.5,
          "pitch": 24,
          "velocity": 26
        },
        {
          "beat": 2.5,
          "duration": 0.15833333134651184,
          "pitch": 33,
          "velocity": 6
        },
        {
          "beat": 2.504166603088379,
          "duration": 0.09583333134651184,
          "pitch": 34,
          "velocity": 17
        },
        {
          "beat": 2.5104167461395264,
          "duration": 0.09375,
          "pitch": 35,
          "velocity": 32
        },
        {
          "beat": 3,
          "duration": 0.75,
          "pitch": 24,
          "velocity": 26
        },
        {
          "beat": 3.277083396911621,
          "duration": 0.18333333730697632,
          "pitch": 33,
          "velocity": 1
        },
        {
          "beat": 3.5,
          "duration": 0.25,
          "pitch": 32,
          "velocity": 27
        }
      ],
      "decodedMidiPath": "rhythm_midi_patterns/decoded_pattern_midis/GEC2_17.mid"
    },
    {
      "code": "GEC2_2",
      "type": "chord_model_str",
      "subtype": "strings",
      "family": "GuitarEC",
      "version": "0.0.0.1",
      "sizePagesOrUnits": 43,
      "crc32": 2278963612,
      "bpm": 95,
      "bnum": 44,
      "noteCount": 11,
      "notes": [
        {
          "beat": 0,
          "duration": 1.0270832777023315,
          "pitch": 31,
          "velocity": 20
        },
        {
          "beat": 0.4958333373069763,
          "duration": 0.524999976158142,
          "pitch": 34,
          "velocity": 13
        },
        {
          "beat": 0.5020833611488342,
          "duration": 0.518750011920929,
          "pitch": 35,
          "velocity": 13
        },
        {
          "beat": 0.5104166865348816,
          "duration": 0.5104166865348816,
          "pitch": 36,
          "velocity": 12
        },
        {
          "beat": 1.4979166984558105,
          "duration": 0.9541666507720947,
          "pitch": 34,
          "velocity": 9
        },
        {
          "beat": 1.5,
          "duration": 1.5,
          "pitch": 31,
          "velocity": 16
        },
        {
          "beat": 1.5,
          "duration": 0.962499976158142,
          "pitch": 36,
          "velocity": 11
        },
        {
          "beat": 1.5041667222976685,
          "duration": 0.9583333134651184,
          "pitch": 35,
          "velocity": 8
        },
        {
          "beat": 2.49791669845581,
          "duration": 0.5020833611488342,
          "pitch": 34,
          "velocity": 20
        },
        {
          "beat": 2.5,
          "duration": 0.5,
          "pitch": 35,
          "velocity": 18
        },
        {
          "beat": 2.5,
          "duration": 0.5,
          "pitch": 36,
          "velocity": 11
        }
      ],
      "decodedMidiPath": "rhythm_midi_patterns/decoded_pattern_midis/GEC2_2.mid"
    },
    {
      "code": "GEC2_3",
      "type": "chord_model_str",
      "subtype": "strings",
      "family": "GuitarEC",
      "version": "0.0.0.1",
      "sizePagesOrUnits": 54,
      "crc32": 2093282386,
      "bpm": 97,
      "bnum": 44,
      "noteCount": 9,
      "notes": [
        {
          "beat": 0,
          "duration": 1,
          "pitch": 31,
          "velocity": 20
        },
        {
          "beat": 0.02708333358168602,
          "duration": 0.4583333432674408,
          "pitch": 34,
          "velocity": 20
        },
        {
          "beat": 0.25,
          "duration": 0.75,
          "pitch": 33,
          "velocity": 21
        },
        {
          "beat": 0.5,
          "duration": 0.5,
          "pitch": 34,
          "velocity": 20
        },
        {
          "beat": 0.75,
          "duration": 0.25,
          "pitch": 35,
          "velocity": 20
        },
        {
          "beat": 1.5,
          "duration": 1.5,
          "pitch": 31,
          "velocity": 20
        },
        {
          "beat": 1.5208333730697632,
          "duration": 1.4791666269302368,
          "pitch": 34,
          "velocity": 20
        },
        {
          "beat": 1.5291666984558105,
          "duration": 1.4708333015441895,
          "pitch": 35,
          "velocity": 20
        },
        {
          "beat": 1.537500023841858,
          "duration": 1.462499976158142,
          "pitch": 33,
          "velocity": 21
        }
      ],
      "decodedMidiPath": "rhythm_midi_patterns/decoded_pattern_midis/GEC2_3.mid"
    },
    {
      "code": "GEC2_4",
      "type": "chord_model_str",
      "subtype": "strings",
      "family": "GuitarEC",
      "version": "0.0.0.0",
      "sizePagesOrUnits": 34,
      "crc32": 3900479308,
      "bpm": 70,
      "bnum": 44,
      "noteCount": 8,
      "notes": [
        {
          "beat": 0,
          "duration": 4.110416889190674,
          "pitch": 31,
          "velocity": 30
        },
        {
          "beat": 0.5,
          "duration": 0.9770833253860474,
          "pitch": 34,
          "velocity": 26
        },
        {
          "beat": 1,
          "duration": 1.9770833253860474,
          "pitch": 35,
          "velocity": 23
        },
        {
          "beat": 1.5,
          "duration": 0.9770833253860474,
          "pitch": 34,
          "velocity": 23
        },
        {
          "beat": 2,
          "duration": 2.1104166507720947,
          "pitch": 36,
          "velocity": 27
        },
        {
          "beat": 2.5,
          "duration": 0.9770833253860474,
          "pitch": 34,
          "velocity": 19
        },
        {
          "beat": 3,
          "duration": 1.0145833492279053,
          "pitch": 35,
          "velocity": 19
        },
        {
          "beat": 3.5,
          "duration": 0.512499988079071,
          "pitch": 34,
          "velocity": 25
        }
      ],
      "decodedMidiPath": "rhythm_midi_patterns/decoded_pattern_midis/GEC2_4.mid"
    },
    {
      "code": "GEC2_5",
      "type": "chord_model_str",
      "subtype": "strings",
      "family": "GuitarEC",
      "version": "0.0.0.0",
      "sizePagesOrUnits": 29,
      "crc32": 689500897,
      "bpm": 80,
      "bnum": 86,
      "noteCount": 6,
      "notes": [
        {
          "beat": 0,
          "duration": 3.0416667461395264,
          "pitch": 31,
          "velocity": 28
        },
        {
          "beat": 0.5,
          "duration": 1.9791666269302368,
          "pitch": 34,
          "velocity": 28
        },
        {
          "beat": 1,
          "duration": 0.9770833253860474,
          "pitch": 35,
          "velocity": 29
        },
        {
          "beat": 1.5,
          "duration": 1.5458333492279053,
          "pitch": 36,
          "velocity": 30
        },
        {
          "beat": 2,
          "duration": 1.0145833492279053,
          "pitch": 35,
          "velocity": 27
        },
        {
          "beat": 2.5,
          "duration": 0.5166666507720947,
          "pitch": 34,
          "velocity": 21
        }
      ],
      "decodedMidiPath": "rhythm_midi_patterns/decoded_pattern_midis/GEC2_5.mid"
    },
    {
      "code": "GEC2_6",
      "type": "chord_model_str",
      "subtype": "strings",
      "family": "GuitarEC",
      "version": "0.0.0.0",
      "sizePagesOrUnits": 100,
      "crc32": 2812582420,
      "bpm": 70,
      "bnum": 44,
      "noteCount": 28,
      "notes": [
        {
          "beat": 0,
          "duration": 2,
          "pitch": 31,
          "velocity": 27
        },
        {
          "beat": 0.012500000186264515,
          "duration": 1.9916666746139526,
          "pitch": 32,
          "velocity": 25
        },
        {
          "beat": 0.02916666679084301,
          "duration": 1.9916666746139526,
          "pitch": 33,
          "velocity": 31
        },
        {
          "beat": 0.04583333432674408,
          "duration": 0.9541666507720947,
          "pitch": 34,
          "velocity": 33
        },
        {
          "beat": 0.0687500014901161,
          "duration": 0.949999988079071,
          "pitch": 35,
          "velocity": 34
        },
        {
          "beat": 0.08958332985639572,
          "duration": 0.9416666626930237,
          "pitch": 36,
          "velocity": 21
        },
        {
          "beat": 1,
          "duration": 0.5,
          "pitch": 34,
          "velocity": 30
        },
        {
          "beat": 1.0208333730697632,
          "duration": 0.4958333373069763,
          "pitch": 35,
          "velocity": 30
        },
        {
          "beat": 1.0395833253860474,
          "duration": 0.7104166746139526,
          "pitch": 36,
          "velocity": 15
        },
        {
          "beat": 1.5,
          "duration": 0.25,
          "pitch": 34,
          "velocity": 28
        },
        {
          "beat": 1.5229166746139526,
          "duration": 0.22708334028720856,
          "pitch": 35,
          "velocity": 24
        },
        {
          "beat": 1.75,
          "duration": 0.3333333432674408,
          "pitch": 36,
          "velocity": 19
        },
        {
          "beat": 1.7687499523162842,
          "duration": 0.2979166805744171,
          "pitch": 35,
          "velocity": 24
        },
        {
          "beat": 1.787500023841858,
          "duration": 0.2562499940395355,
          "pitch": 34,
          "velocity": 28
        },
        {
          "beat": 2,
          "duration": 2,
          "pitch": 31,
          "velocity": 17
        },
        {
          "beat": 2.0145833492279053,
          "duration": 1.9854166507720947,
          "pitch": 32,
          "velocity": 17
        },
        {
          "beat": 2.02916669845581,
          "duration": 1.975000023841858,
          "pitch": 33,
          "velocity": 30
        },
        {
          "beat": 2.0479166507720947,
          "duration": 0.9520833492279053,
          "pitch": 34,
          "velocity": 27
        },
        {
          "beat": 2.0687499046325684,
          "duration": 0.9479166865348816,
          "pitch": 35,
          "velocity": 27
        },
        {
          "beat": 2.089583396911621,
          "duration": 0.9416666626930237,
          "pitch": 36,
          "velocity": 20
        },
        {
          "beat": 3,
          "duration": 0.5,
          "pitch": 34,
          "velocity": 19
        },
        {
          "beat": 3.018749952316284,
          "duration": 0.49166667461395264,
          "pitch": 35,
          "velocity": 29
        },
        {
          "beat": 3.0374999046325684,
          "duration": 0.712499976158142,
          "pitch": 36,
          "velocity": 16
        },
        {
          "beat": 3.5,
          "duration": 0.2708333432674408,
          "pitch": 34,
          "velocity": 17
        },
        {
          "beat": 3.518749952316284,
          "duration": 0.24166665971279144,
          "pitch": 35,
          "velocity": 27
        },
        {
          "beat": 3.75,
          "duration": 0.25,
          "pitch": 36,
          "velocity": 19
        },
        {
          "beat": 3.7645833492279053,
          "duration": 0.2562499940395355,
          "pitch": 35,
          "velocity": 27
        },
        {
          "beat": 3.772916555404663,
          "duration": 0.2562499940395355,
          "pitch": 34,
          "velocity": 17
        }
      ],
      "decodedMidiPath": "rhythm_midi_patterns/decoded_pattern_midis/GEC2_6.mid"
    },
    {
      "code": "GEC2_7",
      "type": "chord_model_str",
      "subtype": "strings",
      "family": "GuitarEC",
      "version": "0.0.0.0",
      "sizePagesOrUnits": 36,
      "crc32": 1320679906,
      "bpm": 85,
      "bnum": 44,
      "noteCount": 8,
      "notes": [
        {
          "beat": 0,
          "duration": 4.110416889190674,
          "pitch": 31,
          "velocity": 29
        },
        {
          "beat": 0.5,
          "duration": 2.987499952316284,
          "pitch": 33,
          "velocity": 17
        },
        {
          "beat": 1,
          "duration": 1.9770833253860474,
          "pitch": 34,
          "velocity": 23
        },
        {
          "beat": 1.5,
          "duration": 0.987500011920929,
          "pitch": 35,
          "velocity": 25
        },
        {
          "beat": 2,
          "duration": 2.1104166507720947,
          "pitch": 36,
          "velocity": 31
        },
        {
          "beat": 2.5,
          "duration": 1.5187499523162842,
          "pitch": 35,
          "velocity": 25
        },
        {
          "beat": 3,
          "duration": 1.0145833492279053,
          "pitch": 34,
          "velocity": 27
        },
        {
          "beat": 3.5,
          "duration": 0.512499988079071,
          "pitch": 33,
          "velocity": 21
        }
      ],
      "decodedMidiPath": "rhythm_midi_patterns/decoded_pattern_midis/GEC2_7.mid"
    },
    {
      "code": "GEC2_8",
      "type": "chord_model_str",
      "subtype": "strings",
      "family": "GuitarEC",
      "version": "0.0.0.0",
      "sizePagesOrUnits": 56,
      "crc32": 551272994,
      "bpm": 70,
      "bnum": 44,
      "noteCount": 14,
      "notes": [
        {
          "beat": 0,
          "duration": 2,
          "pitch": 31,
          "velocity": 27
        },
        {
          "beat": 0,
          "duration": 0.9895833134651184,
          "pitch": 34,
          "velocity": 26
        },
        {
          "beat": 0,
          "duration": 0.9895833134651184,
          "pitch": 36,
          "velocity": 18
        },
        {
          "beat": 0.008333333767950535,
          "duration": 0.9708333611488342,
          "pitch": 35,
          "velocity": 21
        },
        {
          "beat": 1.0020833015441895,
          "duration": 0.9979166388511658,
          "pitch": 35,
          "velocity": 12
        },
        {
          "beat": 1.006250023841858,
          "duration": 0.993749976158142,
          "pitch": 34,
          "velocity": 21
        },
        {
          "beat": 1.006250023841858,
          "duration": 0.993749976158142,
          "pitch": 36,
          "velocity": 1
        },
        {
          "beat": 2,
          "duration": 2.0458333492279053,
          "pitch": 31,
          "velocity": 17
        },
        {
          "beat": 2.008333444595337,
          "duration": 0.987500011920929,
          "pitch": 34,
          "velocity": 24
        },
        {
          "beat": 2.0104167461395264,
          "duration": 0.981249988079071,
          "pitch": 36,
          "velocity": 12
        },
        {
          "beat": 2.0145833492279053,
          "duration": 0.9708333611488342,
          "pitch": 35,
          "velocity": 16
        },
        {
          "beat": 3,
          "duration": 1.0125000476837158,
          "pitch": 34,
          "velocity": 29
        },
        {
          "beat": 3.0062499046325684,
          "duration": 1.006250023841858,
          "pitch": 35,
          "velocity": 10
        },
        {
          "beat": 3.008333444595337,
          "duration": 1.0395833253860474,
          "pitch": 36,
          "velocity": 7
        }
      ],
      "decodedMidiPath": "rhythm_midi_patterns/decoded_pattern_midis/GEC2_8.mid"
    },
    {
      "code": "GEC2_9",
      "type": "chord_model_str",
      "subtype": "strings",
      "family": "GuitarEC",
      "version": "0.0.0.0",
      "sizePagesOrUnits": 61,
      "crc32": 2605382757,
      "bpm": 70,
      "bnum": 44,
      "noteCount": 17,
      "notes": [
        {
          "beat": 0,
          "duration": 0.25,
          "pitch": 24,
          "velocity": 100
        },
        {
          "beat": 0,
          "duration": 2,
          "pitch": 31,
          "velocity": 27
        },
        {
          "beat": 0,
          "duration": 0.4937500059604645,
          "pitch": 34,
          "velocity": 26
        },
        {
          "beat": 0,
          "duration": 0.9895833134651184,
          "pitch": 36,
          "velocity": 25
        },
        {
          "beat": 0.008333333767950535,
          "duration": 0.9708333611488342,
          "pitch": 35,
          "velocity": 21
        },
        {
          "beat": 0.5,
          "duration": 0.9916666746139526,
          "pitch": 34,
          "velocity": 18
        },
        {
          "beat": 1.0020833015441895,
          "duration": 0.9979166388511658,
          "pitch": 35,
          "velocity": 12
        },
        {
          "beat": 1.006250023841858,
          "duration": 0.993749976158142,
          "pitch": 36,
          "velocity": 9
        },
        {
          "beat": 1.5,
          "duration": 0.9916666746139526,
          "pitch": 34,
          "velocity": 17
        },
        {
          "beat": 2,
          "duration": 0.25,
          "pitch": 24,
          "velocity": 100
        },
        {
          "beat": 2,
          "duration": 2.0458333492279053,
          "pitch": 31,
          "velocity": 17
        },
        {
          "beat": 2,
          "duration": 0.9916666746139526,
          "pitch": 36,
          "velocity": 18
        },
        {
          "beat": 2.0145833492279053,
          "duration": 0.9708333611488342,
          "pitch": 35,
          "velocity": 21
        },
        {
          "beat": 2.5,
          "duration": 0.9916666746139526,
          "pitch": 34,
          "velocity": 24
        },
        {
          "beat": 3,
          "duration": 1.0083333253860474,
          "pitch": 35,
          "velocity": 10
        },
        {
          "beat": 3,
          "duration": 1.0395833253860474,
          "pitch": 36,
          "velocity": 16
        },
        {
          "beat": 3.5,
          "duration": 0.512499988079071,
          "pitch": 34,
          "velocity": 25
        }
      ],
      "decodedMidiPath": "rhythm_midi_patterns/decoded_pattern_midis/GEC2_9.mid"
    },
    {
      "code": "GED1_1",
      "type": "chord_model_str",
      "subtype": "strings",
      "family": "GuitarED",
      "version": "0.0.0.0",
      "sizePagesOrUnits": 19,
      "crc32": 2512283270,
      "bpm": 170,
      "bnum": 44,
      "noteCount": 16,
      "notes": [
        {
          "beat": 0,
          "duration": 0.4958333373069763,
          "pitch": 7,
          "velocity": 70
        },
        {
          "beat": 0.0625,
          "duration": 0.46875,
          "pitch": 8,
          "velocity": 51
        },
        {
          "beat": 0.5,
          "duration": 0.4854166805744171,
          "pitch": 7,
          "velocity": 10
        },
        {
          "beat": 0.5479166507720947,
          "duration": 0.4729166626930237,
          "pitch": 8,
          "velocity": 10
        },
        {
          "beat": 1,
          "duration": 0.49791666865348816,
          "pitch": 7,
          "velocity": 20
        },
        {
          "beat": 1.0437500476837158,
          "duration": 0.487500011920929,
          "pitch": 8,
          "velocity": 20
        },
        {
          "beat": 1.5,
          "duration": 0.5,
          "pitch": 7,
          "velocity": 60
        },
        {
          "beat": 1.5437500476837158,
          "duration": 0.4791666567325592,
          "pitch": 8,
          "velocity": 60
        },
        {
          "beat": 2,
          "duration": 0.49166667461395264,
          "pitch": 7,
          "velocity": 10
        },
        {
          "beat": 2.0374999046325684,
          "duration": 0.4895833432674408,
          "pitch": 8,
          "velocity": 10
        },
        {
          "beat": 2.5,
          "duration": 0.49791666865348816,
          "pitch": 7,
          "velocity": 20
        },
        {
          "beat": 2.543750047683716,
          "duration": 0.4937500059604645,
          "pitch": 8,
          "velocity": 20
        },
        {
          "beat": 3,
          "duration": 0.4854166805744171,
          "pitch": 7,
          "velocity": 80
        },
        {
          "beat": 3.043750047683716,
          "duration": 0.487500011920929,
          "pitch": 8,
          "velocity": 80
        },
        {
          "beat": 3.5,
          "duration": 0.53125,
          "pitch": 7,
          "velocity": 20
        },
        {
          "beat": 3.543750047683716,
          "duration": 0.487500011920929,
          "pitch": 8,
          "velocity": 10
        }
      ],
      "decodedMidiPath": "rhythm_midi_patterns/decoded_pattern_midis/GED1_1.mid"
    },
    {
      "code": "GED1_2",
      "type": "chord_model_str",
      "subtype": "strings",
      "family": "GuitarED",
      "version": "0.0.0.0",
      "sizePagesOrUnits": 17,
      "crc32": 2774461547,
      "bpm": 155,
      "bnum": 44,
      "noteCount": 13,
      "notes": [
        {
          "beat": 0,
          "duration": 0.4958333373069763,
          "pitch": 7,
          "velocity": 29
        },
        {
          "beat": 0.0416666679084301,
          "duration": 0.4958333373069763,
          "pitch": 8,
          "velocity": 29
        },
        {
          "beat": 0.5,
          "duration": 0.5,
          "pitch": 7,
          "velocity": 29
        },
        {
          "beat": 0.5416666865348816,
          "duration": 0.43541666865348816,
          "pitch": 8,
          "velocity": 29
        },
        {
          "beat": 1,
          "duration": 0.5145833492279053,
          "pitch": 8,
          "velocity": 56
        },
        {
          "beat": 1.5,
          "duration": 0.5,
          "pitch": 7,
          "velocity": 28
        },
        {
          "beat": 1.5229166746139526,
          "duration": 0.47708332538604736,
          "pitch": 8,
          "velocity": 28
        },
        {
          "beat": 2,
          "duration": 0.5,
          "pitch": 7,
          "velocity": 28
        },
        {
          "beat": 2.008333444595337,
          "duration": 0.46875,
          "pitch": 8,
          "velocity": 28
        },
        {
          "beat": 2.50208330154419,
          "duration": 0.4937500059604645,
          "pitch": 9,
          "velocity": 68
        },
        {
          "beat": 3.043750047683716,
          "duration": 0.487500011920929,
          "pitch": 8,
          "velocity": 68
        },
        {
          "beat": 3.5,
          "duration": 0.512499988079071,
          "pitch": 7,
          "velocity": 28
        },
        {
          "beat": 3.543750047683716,
          "duration": 0.4833333194255829,
          "pitch": 8,
          "velocity": 29
        }
      ],
      "decodedMidiPath": "rhythm_midi_patterns/decoded_pattern_midis/GED1_2.mid"
    },
    {
      "code": "GED1_3",
      "type": "chord_model_str",
      "subtype": "strings",
      "family": "GuitarED",
      "version": "0.0.0.0",
      "sizePagesOrUnits": 18,
      "crc32": 647188031,
      "bpm": 140,
      "bnum": 44,
      "noteCount": 16,
      "notes": [
        {
          "beat": 0,
          "duration": 0.4958333373069763,
          "pitch": 7,
          "velocity": 61
        },
        {
          "beat": 0.0625,
          "duration": 0.46875,
          "pitch": 8,
          "velocity": 61
        },
        {
          "beat": 0.5,
          "duration": 0.4854166805744171,
          "pitch": 7,
          "velocity": 10
        },
        {
          "beat": 0.5479166507720947,
          "duration": 0.4729166626930237,
          "pitch": 8,
          "velocity": 10
        },
        {
          "beat": 1,
          "duration": 0.49791666865348816,
          "pitch": 7,
          "velocity": 20
        },
        {
          "beat": 1.0437500476837158,
          "duration": 0.487500011920929,
          "pitch": 8,
          "velocity": 20
        },
        {
          "beat": 1.5,
          "duration": 0.5,
          "pitch": 7,
          "velocity": 20
        },
        {
          "beat": 1.5437500476837158,
          "duration": 0.4895833432674408,
          "pitch": 8,
          "velocity": 20
        },
        {
          "beat": 2,
          "duration": 0.49166667461395264,
          "pitch": 7,
          "velocity": 10
        },
        {
          "beat": 2.0374999046325684,
          "duration": 0.4895833432674408,
          "pitch": 8,
          "velocity": 10
        },
        {
          "beat": 2.5,
          "duration": 0.49791666865348816,
          "pitch": 7,
          "velocity": 20
        },
        {
          "beat": 2.543750047683716,
          "duration": 0.4937500059604645,
          "pitch": 8,
          "velocity": 20
        },
        {
          "beat": 3,
          "duration": 0.49166667461395264,
          "pitch": 7,
          "velocity": 10
        },
        {
          "beat": 3.0374999046325684,
          "duration": 0.4895833432674408,
          "pitch": 8,
          "velocity": 10
        },
        {
          "beat": 3.5,
          "duration": 0.5104166865348816,
          "pitch": 7,
          "velocity": 20
        },
        {
          "beat": 3.543750047683716,
          "duration": 0.49166667461395264,
          "pitch": 8,
          "velocity": 10
        }
      ],
      "decodedMidiPath": "rhythm_midi_patterns/decoded_pattern_midis/GED1_3.mid"
    },
    {
      "code": "GED1_4",
      "type": "chord_model_str",
      "subtype": "strings",
      "family": "GuitarED",
      "version": "0.0.0.0",
      "sizePagesOrUnits": 17,
      "crc32": 3975527191,
      "bpm": 165,
      "bnum": 44,
      "noteCount": 16,
      "notes": [
        {
          "beat": 0,
          "duration": 0.4958333373069763,
          "pitch": 7,
          "velocity": 24
        },
        {
          "beat": 0.008333333767950535,
          "duration": 0.5229166746139526,
          "pitch": 8,
          "velocity": 22
        },
        {
          "beat": 0.5,
          "duration": 0.4854166805744171,
          "pitch": 7,
          "velocity": 22
        },
        {
          "beat": 0.537500023841858,
          "duration": 0.4749999940395355,
          "pitch": 8,
          "velocity": 22
        },
        {
          "beat": 1,
          "duration": 0.49791666865348816,
          "pitch": 7,
          "velocity": 20
        },
        {
          "beat": 1.0229166746139526,
          "duration": 0.4937500059604645,
          "pitch": 8,
          "velocity": 20
        },
        {
          "beat": 1.5,
          "duration": 0.5,
          "pitch": 7,
          "velocity": 20
        },
        {
          "beat": 1.5187499523162842,
          "duration": 0.5041666626930237,
          "pitch": 8,
          "velocity": 20
        },
        {
          "beat": 2,
          "duration": 0.49166667461395264,
          "pitch": 7,
          "velocity": 17
        },
        {
          "beat": 2.027083396911621,
          "duration": 0.49166667461395264,
          "pitch": 8,
          "velocity": 17
        },
        {
          "beat": 2.5,
          "duration": 0.49791666865348816,
          "pitch": 7,
          "velocity": 16
        },
        {
          "beat": 2.5208332538604736,
          "duration": 0.4895833432674408,
          "pitch": 8,
          "velocity": 16
        },
        {
          "beat": 3,
          "duration": 0.5,
          "pitch": 7,
          "velocity": 18
        },
        {
          "beat": 3.0166666507720947,
          "duration": 0.5,
          "pitch": 8,
          "velocity": 18
        },
        {
          "beat": 3.5,
          "duration": 0.53125,
          "pitch": 7,
          "velocity": 20
        },
        {
          "beat": 3.5208332538604736,
          "duration": 0.5104166865348816,
          "pitch": 8,
          "velocity": 13
        }
      ],
      "decodedMidiPath": "rhythm_midi_patterns/decoded_pattern_midis/GED1_4.mid"
    },
    {
      "code": "GED1_5",
      "type": "chord_model_str",
      "subtype": "strings",
      "family": "GuitarED",
      "version": "0.0.0.0",
      "sizePagesOrUnits": 12,
      "crc32": 1285263426,
      "bpm": 165,
      "bnum": 44,
      "noteCount": 4,
      "notes": [
        {
          "beat": 0,
          "duration": 2,
          "pitch": 7,
          "velocity": 86
        },
        {
          "beat": 0.02916666679084301,
          "duration": 1.9833333492279053,
          "pitch": 8,
          "velocity": 61
        },
        {
          "beat": 2,
          "duration": 2,
          "pitch": 7,
          "velocity": 86
        },
        {
          "beat": 2.022916555404663,
          "duration": 1.9770833253860474,
          "pitch": 8,
          "velocity": 61
        }
      ],
      "decodedMidiPath": "rhythm_midi_patterns/decoded_pattern_midis/GED1_5.mid"
    },
    {
      "code": "GED1_6",
      "type": "chord_model_str",
      "subtype": "strings",
      "family": "GuitarED",
      "version": "0.0.0.0",
      "sizePagesOrUnits": 12,
      "crc32": 121759741,
      "bpm": 165,
      "bnum": 44,
      "noteCount": 4,
      "notes": [
        {
          "beat": 0,
          "duration": 2,
          "pitch": 7,
          "velocity": 29
        },
        {
          "beat": 0.02916666679084301,
          "duration": 1.9833333492279053,
          "pitch": 8,
          "velocity": 29
        },
        {
          "beat": 2,
          "duration": 2,
          "pitch": 7,
          "velocity": 29
        },
        {
          "beat": 2.022916555404663,
          "duration": 1.9770833253860474,
          "pitch": 8,
          "velocity": 29
        }
      ],
      "decodedMidiPath": "rhythm_midi_patterns/decoded_pattern_midis/GED1_6.mid"
    },
    {
      "code": "GED2_1",
      "type": "chord_model_str",
      "subtype": "strings",
      "family": "GuitarED",
      "version": "0.0.0.0",
      "sizePagesOrUnits": 12,
      "crc32": 3199393831,
      "bpm": 81,
      "bnum": 44,
      "noteCount": 4,
      "notes": [
        {
          "beat": 0,
          "duration": 2,
          "pitch": 7,
          "velocity": 60
        },
        {
          "beat": 0.03125,
          "duration": 1.96875,
          "pitch": 8,
          "velocity": 50
        },
        {
          "beat": 2,
          "duration": 2,
          "pitch": 7,
          "velocity": 60
        },
        {
          "beat": 2.03125,
          "duration": 1.96875,
          "pitch": 8,
          "velocity": 50
        }
      ],
      "decodedMidiPath": "rhythm_midi_patterns/decoded_pattern_midis/GED2_1.mid"
    },
    {
      "code": "GED2_2",
      "type": "chord_model_str",
      "subtype": "strings",
      "family": "GuitarED",
      "version": "0.0.0.0",
      "sizePagesOrUnits": 12,
      "crc32": 1476955126,
      "bpm": 140,
      "bnum": 44,
      "noteCount": 4,
      "notes": [
        {
          "beat": 0,
          "duration": 2,
          "pitch": 7,
          "velocity": 28
        },
        {
          "beat": 0.03750000149011612,
          "duration": 1.9833333492279053,
          "pitch": 8,
          "velocity": 29
        },
        {
          "beat": 2,
          "duration": 2,
          "pitch": 7,
          "velocity": 28
        },
        {
          "beat": 2.0416667461395264,
          "duration": 1.9583333730697632,
          "pitch": 8,
          "velocity": 29
        }
      ],
      "decodedMidiPath": "rhythm_midi_patterns/decoded_pattern_midis/GED2_2.mid"
    },
    {
      "code": "GED2_3",
      "type": "chord_model_str",
      "subtype": "strings",
      "family": "GuitarED",
      "version": "0.0.0.0",
      "sizePagesOrUnits": 18,
      "crc32": 3527759050,
      "bpm": 165,
      "bnum": 44,
      "noteCount": 16,
      "notes": [
        {
          "beat": 0,
          "duration": 0.4958333373069763,
          "pitch": 7,
          "velocity": 24
        },
        {
          "beat": 0.008333333767950535,
          "duration": 0.5229166746139526,
          "pitch": 8,
          "velocity": 22
        },
        {
          "beat": 0.5,
          "duration": 0.4854166805744171,
          "pitch": 7,
          "velocity": 22
        },
        {
          "beat": 0.537500023841858,
          "duration": 0.4749999940395355,
          "pitch": 8,
          "velocity": 22
        },
        {
          "beat": 1,
          "duration": 0.49791666865348816,
          "pitch": 7,
          "velocity": 20
        },
        {
          "beat": 1.0229166746139526,
          "duration": 0.4937500059604645,
          "pitch": 8,
          "velocity": 20
        },
        {
          "beat": 1.5,
          "duration": 0.5,
          "pitch": 7,
          "velocity": 20
        },
        {
          "beat": 1.5187499523162842,
          "duration": 0.5041666626930237,
          "pitch": 8,
          "velocity": 20
        },
        {
          "beat": 2,
          "duration": 0.49166667461395264,
          "pitch": 7,
          "velocity": 17
        },
        {
          "beat": 2.027083396911621,
          "duration": 0.49166667461395264,
          "pitch": 8,
          "velocity": 17
        },
        {
          "beat": 2.5,
          "duration": 0.49791666865348816,
          "pitch": 7,
          "velocity": 16
        },
        {
          "beat": 2.5208332538604736,
          "duration": 0.4895833432674408,
          "pitch": 8,
          "velocity": 16
        },
        {
          "beat": 3,
          "duration": 0.5,
          "pitch": 7,
          "velocity": 18
        },
        {
          "beat": 3.0166666507720947,
          "duration": 0.5,
          "pitch": 8,
          "velocity": 18
        },
        {
          "beat": 3.5,
          "duration": 0.53125,
          "pitch": 7,
          "velocity": 20
        },
        {
          "beat": 3.5208332538604736,
          "duration": 0.5104166865348816,
          "pitch": 8,
          "velocity": 13
        }
      ],
      "decodedMidiPath": "rhythm_midi_patterns/decoded_pattern_midis/GED2_3.mid"
    },
    {
      "code": "GED2_4",
      "type": "chord_model_str",
      "subtype": "strings",
      "family": "GuitarED",
      "version": "0.0.0.0",
      "sizePagesOrUnits": 17,
      "crc32": 1767084275,
      "bpm": 150,
      "bnum": 44,
      "noteCount": 16,
      "notes": [
        {
          "beat": 0,
          "duration": 0.5,
          "pitch": 7,
          "velocity": 63
        },
        {
          "beat": 0.0416666679084301,
          "duration": 0.4583333432674408,
          "pitch": 8,
          "velocity": 65
        },
        {
          "beat": 0.5,
          "duration": 0.512499988079071,
          "pitch": 8,
          "velocity": 66
        },
        {
          "beat": 0.5104166865348816,
          "duration": 0.4895833432674408,
          "pitch": 7,
          "velocity": 64
        },
        {
          "beat": 1,
          "duration": 0.49791666865348816,
          "pitch": 7,
          "velocity": 64
        },
        {
          "beat": 1.0166666507720947,
          "duration": 0.47708332538604736,
          "pitch": 8,
          "velocity": 65
        },
        {
          "beat": 1.506250023841858,
          "duration": 0.506250023841858,
          "pitch": 8,
          "velocity": 64
        },
        {
          "beat": 1.5083333253860474,
          "duration": 0.49166667461395264,
          "pitch": 7,
          "velocity": 63
        },
        {
          "beat": 2,
          "duration": 0.506250023841858,
          "pitch": 7,
          "velocity": 64
        },
        {
          "beat": 2.0145833492279053,
          "duration": 0.4854166805744171,
          "pitch": 8,
          "velocity": 66
        },
        {
          "beat": 2.5062499046325684,
          "duration": 0.5,
          "pitch": 8,
          "velocity": 64
        },
        {
          "beat": 2.512500047683716,
          "duration": 0.487500011920929,
          "pitch": 7,
          "velocity": 64
        },
        {
          "beat": 3,
          "duration": 0.506250023841858,
          "pitch": 7,
          "velocity": 63
        },
        {
          "beat": 3.012500047683716,
          "duration": 0.487500011920929,
          "pitch": 8,
          "velocity": 65
        },
        {
          "beat": 3.5062499046325684,
          "duration": 0.4937500059604645,
          "pitch": 8,
          "velocity": 65
        },
        {
          "beat": 3.512500047683716,
          "duration": 0.487500011920929,
          "pitch": 7,
          "velocity": 64
        }
      ],
      "decodedMidiPath": "rhythm_midi_patterns/decoded_pattern_midis/GED2_4.mid"
    },
    {
      "code": "GED2_5",
      "type": "chord_model_str",
      "subtype": "strings",
      "family": "GuitarED",
      "version": "0.0.0.0",
      "sizePagesOrUnits": 12,
      "crc32": 2975046255,
      "bpm": 140,
      "bnum": 44,
      "noteCount": 4,
      "notes": [
        {
          "beat": 0,
          "duration": 2,
          "pitch": 7,
          "velocity": 76
        },
        {
          "beat": 0.03750000149011612,
          "duration": 1.975000023841858,
          "pitch": 8,
          "velocity": 53
        },
        {
          "beat": 2,
          "duration": 2,
          "pitch": 7,
          "velocity": 76
        },
        {
          "beat": 2.022916555404663,
          "duration": 1.9770833253860474,
          "pitch": 8,
          "velocity": 53
        }
      ],
      "decodedMidiPath": "rhythm_midi_patterns/decoded_pattern_midis/GED2_5.mid"
    },
    {
      "code": "GED2_6",
      "type": "chord_model_str",
      "subtype": "strings",
      "family": "GuitarED",
      "version": "1.0.0.0",
      "sizePagesOrUnits": 12,
      "crc32": 3818964184,
      "bpm": 130,
      "bnum": 44,
      "noteCount": 4,
      "notes": [
        {
          "beat": 0,
          "duration": 2,
          "pitch": 7,
          "velocity": 76
        },
        {
          "beat": 0.03750000149011612,
          "duration": 1.975000023841858,
          "pitch": 8,
          "velocity": 53
        },
        {
          "beat": 2,
          "duration": 2,
          "pitch": 7,
          "velocity": 76
        },
        {
          "beat": 2.022916555404663,
          "duration": 1.9770833253860474,
          "pitch": 8,
          "velocity": 53
        }
      ],
      "decodedMidiPath": "rhythm_midi_patterns/decoded_pattern_midis/GED2_6.mid"
    },
    {
      "code": "GN_1",
      "type": "chord_model_str",
      "subtype": "strings",
      "family": "GuitarN",
      "version": "0.0.0.1",
      "sizePagesOrUnits": 34,
      "crc32": 1830566591,
      "bpm": 110,
      "bnum": 44,
      "noteCount": 8,
      "notes": [
        {
          "beat": 0,
          "duration": 4.09375,
          "pitch": 31,
          "velocity": 23
        },
        {
          "beat": 0.5,
          "duration": 1.4583333730697632,
          "pitch": 34,
          "velocity": 33
        },
        {
          "beat": 1,
          "duration": 2.4583332538604736,
          "pitch": 35,
          "velocity": 30
        },
        {
          "beat": 1.5,
          "duration": 1.4583333730697632,
          "pitch": 33,
          "velocity": 21
        },
        {
          "beat": 2,
          "duration": 2.0208332538604736,
          "pitch": 34,
          "velocity": 33
        },
        {
          "beat": 2.5,
          "duration": 1.59375,
          "pitch": 36,
          "velocity": 40
        },
        {
          "beat": 3,
          "duration": 1.0104166269302368,
          "pitch": 33,
          "velocity": 21
        },
        {
          "beat": 3.5,
          "duration": 0.5104166865348816,
          "pitch": 35,
          "velocity": 32
        }
      ],
      "decodedMidiPath": "rhythm_midi_patterns/decoded_pattern_midis/GN_1.mid"
    },
    {
      "code": "GN_10",
      "type": "chord_model_str",
      "subtype": "strings",
      "family": "GuitarN",
      "version": "0.0.0.0",
      "sizePagesOrUnits": 92,
      "crc32": 4240564148,
      "bpm": 70,
      "bnum": 44,
      "noteCount": 24,
      "notes": [
        {
          "beat": 0,
          "duration": 0.25,
          "pitch": 24,
          "velocity": 100
        },
        {
          "beat": 0,
          "duration": 2,
          "pitch": 31,
          "velocity": 33
        },
        {
          "beat": 0.008333333767950535,
          "duration": 1.9979166984558105,
          "pitch": 32,
          "velocity": 31
        },
        {
          "beat": 0.012500000186264515,
          "duration": 1.9958332777023315,
          "pitch": 33,
          "velocity": 37
        },
        {
          "beat": 0.01666666753590107,
          "duration": 0.9833333492279053,
          "pitch": 34,
          "velocity": 37
        },
        {
          "beat": 0.02083333395421505,
          "duration": 0.987500011920929,
          "pitch": 35,
          "velocity": 28
        },
        {
          "beat": 0.02916666679084301,
          "duration": 0.993749976158142,
          "pitch": 36,
          "velocity": 44
        },
        {
          "beat": 1,
          "duration": 0.75,
          "pitch": 34,
          "velocity": 41
        },
        {
          "beat": 1.0083333253860474,
          "duration": 0.75,
          "pitch": 35,
          "velocity": 40
        },
        {
          "beat": 1.0229166746139526,
          "duration": 1.0041667222976685,
          "pitch": 36,
          "velocity": 23
        },
        {
          "beat": 1.75,
          "duration": 0.262499988079071,
          "pitch": 34,
          "velocity": 45
        },
        {
          "beat": 1.7583333253860474,
          "duration": 0.25833332538604736,
          "pitch": 35,
          "velocity": 28
        },
        {
          "beat": 2,
          "duration": 0.25,
          "pitch": 24,
          "velocity": 100
        },
        {
          "beat": 2,
          "duration": 2.043750047683716,
          "pitch": 31,
          "velocity": 33
        },
        {
          "beat": 2.008333444595337,
          "duration": 2.00208330154419,
          "pitch": 32,
          "velocity": 31
        },
        {
          "beat": 2.012500047683716,
          "duration": 0.987500011920929,
          "pitch": 33,
          "velocity": 37
        },
        {
          "beat": 2.0166666507720947,
          "duration": 0.9833333492279053,
          "pitch": 34,
          "velocity": 37
        },
        {
          "beat": 2.0208332538604736,
          "duration": 0.987500011920929,
          "pitch": 35,
          "velocity": 28
        },
        {
          "beat": 2.02916669845581,
          "duration": 2.0145833492279053,
          "pitch": 36,
          "velocity": 44
        },
        {
          "beat": 3,
          "duration": 0.75,
          "pitch": 33,
          "velocity": 23
        },
        {
          "beat": 3.008333444595337,
          "duration": 0.75,
          "pitch": 34,
          "velocity": 22
        },
        {
          "beat": 3.022916555404663,
          "duration": 0.987500011920929,
          "pitch": 35,
          "velocity": 21
        },
        {
          "beat": 3.75,
          "duration": 0.2604166567325592,
          "pitch": 33,
          "velocity": 28
        },
        {
          "beat": 3.758333444595337,
          "duration": 0.25208333134651184,
          "pitch": 34,
          "velocity": 19
        }
      ],
      "decodedMidiPath": "rhythm_midi_patterns/decoded_pattern_midis/GN_10.mid"
    },
    {
      "code": "GN_11",
      "type": "chord_model_str",
      "subtype": "strings",
      "family": "GuitarN",
      "version": "0.0.0.1",
      "sizePagesOrUnits": 48,
      "crc32": 1193291266,
      "bpm": 70,
      "bnum": 44,
      "noteCount": 14,
      "notes": [
        {
          "beat": 0,
          "duration": 0.25,
          "pitch": 24,
          "velocity": 27
        },
        {
          "beat": 0,
          "duration": 2,
          "pitch": 31,
          "velocity": 33
        },
        {
          "beat": 0.008333333767950535,
          "duration": 1.9916666746139526,
          "pitch": 32,
          "velocity": 31
        },
        {
          "beat": 0.012500000186264515,
          "duration": 1.9874999523162842,
          "pitch": 33,
          "velocity": 37
        },
        {
          "beat": 0.01666666753590107,
          "duration": 1.9833333492279053,
          "pitch": 34,
          "velocity": 37
        },
        {
          "beat": 0.02083333395421505,
          "duration": 1.9791666269302368,
          "pitch": 35,
          "velocity": 28
        },
        {
          "beat": 0.02916666679084301,
          "duration": 1.9708333015441895,
          "pitch": 36,
          "velocity": 44
        },
        {
          "beat": 2,
          "duration": 0.25,
          "pitch": 24,
          "velocity": 27
        },
        {
          "beat": 2,
          "duration": 2,
          "pitch": 31,
          "velocity": 33
        },
        {
          "beat": 2.008333444595337,
          "duration": 1.9916666746139526,
          "pitch": 32,
          "velocity": 31
        },
        {
          "beat": 2.012500047683716,
          "duration": 1.9874999523162842,
          "pitch": 33,
          "velocity": 37
        },
        {
          "beat": 2.0166666507720947,
          "duration": 1.9833333492279053,
          "pitch": 34,
          "velocity": 37
        },
        {
          "beat": 2.0208332538604736,
          "duration": 1.9791666269302368,
          "pitch": 35,
          "velocity": 28
        },
        {
          "beat": 2.02916669845581,
          "duration": 1.9708333015441895,
          "pitch": 36,
          "velocity": 44
        }
      ],
      "decodedMidiPath": "rhythm_midi_patterns/decoded_pattern_midis/GN_11.mid"
    },
    {
      "code": "GN_12",
      "type": "chord_model_str",
      "subtype": "strings",
      "family": "GuitarN",
      "version": "0.0.0.1",
      "sizePagesOrUnits": 41,
      "crc32": 915278605,
      "bpm": 70,
      "bnum": 44,
      "noteCount": 10,
      "notes": [
        {
          "beat": 0,
          "duration": 0.25,
          "pitch": 24,
          "velocity": 27
        },
        {
          "beat": 0,
          "duration": 2,
          "pitch": 31,
          "velocity": 23
        },
        {
          "beat": 0,
          "duration": 2,
          "pitch": 34,
          "velocity": 47
        },
        {
          "beat": 0,
          "duration": 2,
          "pitch": 36,
          "velocity": 46
        },
        {
          "beat": 0.008333333767950535,
          "duration": 1.9916666746139526,
          "pitch": 35,
          "velocity": 21
        },
        {
          "beat": 2,
          "duration": 0.25,
          "pitch": 24,
          "velocity": 27
        },
        {
          "beat": 2,
          "duration": 2,
          "pitch": 31,
          "velocity": 23
        },
        {
          "beat": 2,
          "duration": 2,
          "pitch": 34,
          "velocity": 47
        },
        {
          "beat": 2,
          "duration": 2,
          "pitch": 36,
          "velocity": 46
        },
        {
          "beat": 2.008333444595337,
          "duration": 1.9916666746139526,
          "pitch": 35,
          "velocity": 21
        }
      ],
      "decodedMidiPath": "rhythm_midi_patterns/decoded_pattern_midis/GN_12.mid"
    },
    {
      "code": "GN_13",
      "type": "chord_model_str",
      "subtype": "strings",
      "family": "GuitarN",
      "version": "0.0.0.1",
      "sizePagesOrUnits": 38,
      "crc32": 1186880410,
      "bpm": 120,
      "bnum": 44,
      "noteCount": 6,
      "notes": [
        {
          "beat": 0,
          "duration": 0.125,
          "pitch": 26,
          "velocity": 100
        },
        {
          "beat": 0,
          "duration": 2,
          "pitch": 31,
          "velocity": 60
        },
        {
          "beat": 0.004166666883975267,
          "duration": 1.9958332777023315,
          "pitch": 32,
          "velocity": 58
        },
        {
          "beat": 2,
          "duration": 0.125,
          "pitch": 26,
          "velocity": 100
        },
        {
          "beat": 2,
          "duration": 2,
          "pitch": 31,
          "velocity": 60
        },
        {
          "beat": 2.004166603088379,
          "duration": 1.9958332777023315,
          "pitch": 32,
          "velocity": 58
        }
      ],
      "decodedMidiPath": "rhythm_midi_patterns/decoded_pattern_midis/GN_13.mid"
    },
    {
      "code": "GN_14",
      "type": "chord_model_str",
      "subtype": "strings",
      "family": "GuitarN",
      "version": "0.0.0.1",
      "sizePagesOrUnits": 34,
      "crc32": 2598117472,
      "bpm": 67,
      "bnum": 44,
      "noteCount": 8,
      "notes": [
        {
          "beat": 0,
          "duration": 4.110416889190674,
          "pitch": 31,
          "velocity": 23
        },
        {
          "beat": 0.5,
          "duration": 0.9770833253860474,
          "pitch": 33,
          "velocity": 20
        },
        {
          "beat": 1,
          "duration": 1.9770833253860474,
          "pitch": 34,
          "velocity": 30
        },
        {
          "beat": 1.5,
          "duration": 0.9770833253860474,
          "pitch": 33,
          "velocity": 23
        },
        {
          "beat": 2,
          "duration": 2.1104166507720947,
          "pitch": 35,
          "velocity": 36
        },
        {
          "beat": 2.5,
          "duration": 0.9770833253860474,
          "pitch": 33,
          "velocity": 13
        },
        {
          "beat": 3,
          "duration": 1.0145833492279053,
          "pitch": 34,
          "velocity": 32
        },
        {
          "beat": 3.5,
          "duration": 0.512499988079071,
          "pitch": 33,
          "velocity": 19
        }
      ],
      "decodedMidiPath": "rhythm_midi_patterns/decoded_pattern_midis/GN_14.mid"
    },
    {
      "code": "GN_15",
      "type": "chord_model_str",
      "subtype": "strings",
      "family": "GuitarN",
      "version": "0.0.0.0",
      "sizePagesOrUnits": 36,
      "crc32": 1395979937,
      "bpm": 73,
      "bnum": 44,
      "noteCount": 8,
      "notes": [
        {
          "beat": 0,
          "duration": 2,
          "pitch": 31,
          "velocity": 23
        },
        {
          "beat": 0.25,
          "duration": 1.993749976158142,
          "pitch": 33,
          "velocity": 20
        },
        {
          "beat": 0.5,
          "duration": 1.9958332777023315,
          "pitch": 34,
          "velocity": 30
        },
        {
          "beat": 0.75,
          "duration": 1.993749976158142,
          "pitch": 35,
          "velocity": 36
        },
        {
          "beat": 2,
          "duration": 2.06041669845581,
          "pitch": 31,
          "velocity": 1
        },
        {
          "beat": 2.25,
          "duration": 1.7833333015441895,
          "pitch": 33,
          "velocity": 20
        },
        {
          "beat": 2.5,
          "duration": 1.5333333015441895,
          "pitch": 34,
          "velocity": 30
        },
        {
          "beat": 2.75,
          "duration": 1.3104166984558105,
          "pitch": 35,
          "velocity": 36
        }
      ],
      "decodedMidiPath": "rhythm_midi_patterns/decoded_pattern_midis/GN_15.mid"
    },
    {
      "code": "GN_16",
      "type": "chord_model_str",
      "subtype": "strings",
      "family": "GuitarN",
      "version": "0.0.0.0",
      "sizePagesOrUnits": 55,
      "crc32": 2562800518,
      "bpm": 96,
      "bnum": 44,
      "noteCount": 8,
      "notes": [
        {
          "beat": 0,
          "duration": 1.0145833492279053,
          "pitch": 31,
          "velocity": 23
        },
        {
          "beat": 0.324999988079071,
          "duration": 0.675000011920929,
          "pitch": 33,
          "velocity": 20
        },
        {
          "beat": 0.5,
          "duration": 0.5,
          "pitch": 34,
          "velocity": 30
        },
        {
          "beat": 0.824999988079071,
          "duration": 0.18958333134651184,
          "pitch": 35,
          "velocity": 36
        },
        {
          "beat": 2,
          "duration": 1.0125000476837158,
          "pitch": 31,
          "velocity": 1
        },
        {
          "beat": 2.325000047683716,
          "duration": 0.681249976158142,
          "pitch": 34,
          "velocity": 30
        },
        {
          "beat": 2.5,
          "duration": 0.506250023841858,
          "pitch": 33,
          "velocity": 20
        },
        {
          "beat": 2.825000047683716,
          "duration": 0.1875,
          "pitch": 35,
          "velocity": 36
        }
      ],
      "decodedMidiPath": "rhythm_midi_patterns/decoded_pattern_midis/GN_16.mid"
    },
    {
      "code": "GN_17",
      "type": "chord_model_str",
      "subtype": "strings",
      "family": "GuitarN",
      "version": "0.0.0.0",
      "sizePagesOrUnits": 62,
      "crc32": 1970753914,
      "bpm": 96,
      "bnum": 44,
      "noteCount": 12,
      "notes": [
        {
          "beat": 0,
          "duration": 1.0145833492279053,
          "pitch": 31,
          "velocity": 23
        },
        {
          "beat": 0.324999988079071,
          "duration": 0.675000011920929,
          "pitch": 33,
          "velocity": 20
        },
        {
          "beat": 0.5,
          "duration": 0.5,
          "pitch": 34,
          "velocity": 30
        },
        {
          "beat": 0.824999988079071,
          "duration": 0.18958333134651184,
          "pitch": 35,
          "velocity": 36
        },
        {
          "beat": 1.3250000476837158,
          "duration": 0.22499999403953552,
          "pitch": 34,
          "velocity": 30
        },
        {
          "beat": 1.8250000476837158,
          "duration": 0.6520833373069763,
          "pitch": 33,
          "velocity": 25
        },
        {
          "beat": 2,
          "duration": 1.0125000476837158,
          "pitch": 31,
          "velocity": 1
        },
        {
          "beat": 2.325000047683716,
          "duration": 0.681249976158142,
          "pitch": 34,
          "velocity": 30
        },
        {
          "beat": 2.5,
          "duration": 0.506250023841858,
          "pitch": 33,
          "velocity": 20
        },
        {
          "beat": 2.825000047683716,
          "duration": 0.1875,
          "pitch": 35,
          "velocity": 36
        },
        {
          "beat": 3.325000047683716,
          "duration": 0.22499999403953552,
          "pitch": 34,
          "velocity": 26
        },
        {
          "beat": 3.825000047683716,
          "duration": 0.23125000298023224,
          "pitch": 33,
          "velocity": 26
        }
      ],
      "decodedMidiPath": "rhythm_midi_patterns/decoded_pattern_midis/GN_17.mid"
    },
    {
      "code": "GN_2",
      "type": "chord_model_str",
      "subtype": "strings",
      "family": "GuitarN",
      "version": "0.0.0.1",
      "sizePagesOrUnits": 95,
      "crc32": 1708242332,
      "bpm": 70,
      "bnum": 44,
      "noteCount": 27,
      "notes": [
        {
          "beat": 0,
          "duration": 0.25,
          "pitch": 24,
          "velocity": 27
        },
        {
          "beat": 0,
          "duration": 2.5,
          "pitch": 31,
          "velocity": 33
        },
        {
          "beat": 0.008333333767950535,
          "duration": 2.491666555404663,
          "pitch": 32,
          "velocity": 31
        },
        {
          "beat": 0.012500000186264515,
          "duration": 2.491666555404663,
          "pitch": 33,
          "velocity": 37
        },
        {
          "beat": 0.01666666753590107,
          "duration": 0.9833333492279053,
          "pitch": 34,
          "velocity": 37
        },
        {
          "beat": 0.02083333395421505,
          "duration": 0.987500011920929,
          "pitch": 35,
          "velocity": 28
        },
        {
          "beat": 0.02916666679084301,
          "duration": 0.993749976158142,
          "pitch": 36,
          "velocity": 44
        },
        {
          "beat": 1,
          "duration": 0.75,
          "pitch": 34,
          "velocity": 41
        },
        {
          "beat": 1.0083333253860474,
          "duration": 0.75,
          "pitch": 35,
          "velocity": 40
        },
        {
          "beat": 1.0229166746139526,
          "duration": 1.9895833730697632,
          "pitch": 36,
          "velocity": 23
        },
        {
          "beat": 1.75,
          "duration": 0.2708333432674408,
          "pitch": 34,
          "velocity": 45
        },
        {
          "beat": 1.7583333253860474,
          "duration": 0.2541666626930237,
          "pitch": 35,
          "velocity": 28
        },
        {
          "beat": 2,
          "duration": 0.25,
          "pitch": 24,
          "velocity": 27
        },
        {
          "beat": 2.012500047683716,
          "duration": 0.24583333730697632,
          "pitch": 35,
          "velocity": 1
        },
        {
          "beat": 2.0208332538604736,
          "duration": 0.2291666716337204,
          "pitch": 34,
          "velocity": 1
        },
        {
          "beat": 2.25,
          "duration": 0.2645833194255829,
          "pitch": 34,
          "velocity": 37
        },
        {
          "beat": 2.258333444595337,
          "duration": 0.7416666746139526,
          "pitch": 35,
          "velocity": 37
        },
        {
          "beat": 2.5,
          "duration": 1.6124999523162842,
          "pitch": 31,
          "velocity": 28
        },
        {
          "beat": 2.5,
          "duration": 1.6124999523162842,
          "pitch": 32,
          "velocity": 33
        },
        {
          "beat": 2.504166603088379,
          "duration": 1.506250023841858,
          "pitch": 33,
          "velocity": 33
        },
        {
          "beat": 2.5145833492279053,
          "duration": 0.4854166805744171,
          "pitch": 34,
          "velocity": 35
        },
        {
          "beat": 3,
          "duration": 0.5145833492279053,
          "pitch": 34,
          "velocity": 42
        },
        {
          "beat": 3.004166603088379,
          "duration": 0.5020833611488342,
          "pitch": 35,
          "velocity": 44
        },
        {
          "beat": 3.0166666507720947,
          "duration": 0.481249988079071,
          "pitch": 36,
          "velocity": 37
        },
        {
          "beat": 3.5,
          "duration": 0.612500011920929,
          "pitch": 36,
          "velocity": 29
        },
        {
          "beat": 3.5062499046325684,
          "duration": 0.5229166746139526,
          "pitch": 35,
          "velocity": 24
        },
        {
          "beat": 3.5166666507720947,
          "duration": 0.5041666626930237,
          "pitch": 34,
          "velocity": 36
        }
      ],
      "decodedMidiPath": "rhythm_midi_patterns/decoded_pattern_midis/GN_2.mid"
    },
    {
      "code": "GN_3",
      "type": "chord_model_str",
      "subtype": "strings",
      "family": "GuitarN",
      "version": "0.0.0.1",
      "sizePagesOrUnits": 96,
      "crc32": 3277258474,
      "bpm": 65,
      "bnum": 44,
      "noteCount": 31,
      "notes": [
        {
          "beat": 0,
          "duration": 0.2979166805744171,
          "pitch": 31,
          "velocity": 29
        },
        {
          "beat": 0,
          "duration": 0.2604166567325592,
          "pitch": 33,
          "velocity": 21
        },
        {
          "beat": 0.004166666883975267,
          "duration": 0.2604166567325592,
          "pitch": 35,
          "velocity": 30
        },
        {
          "beat": 0.010416666977107525,
          "duration": 0.24583333730697632,
          "pitch": 34,
          "velocity": 33
        },
        {
          "beat": 0.2604166567325592,
          "duration": 0.014583333395421505,
          "pitch": 34,
          "velocity": 1
        },
        {
          "beat": 0.262499988079071,
          "duration": 0.01666666753590107,
          "pitch": 33,
          "velocity": 1
        },
        {
          "beat": 0.2645833194255829,
          "duration": 0.01666666753590107,
          "pitch": 35,
          "velocity": 1
        },
        {
          "beat": 0.5,
          "duration": 0.7458333373069763,
          "pitch": 33,
          "velocity": 21
        },
        {
          "beat": 0.5041666626930237,
          "duration": 0.737500011920929,
          "pitch": 35,
          "velocity": 30
        },
        {
          "beat": 0.5104166865348816,
          "duration": 0.7395833134651184,
          "pitch": 34,
          "velocity": 33
        },
        {
          "beat": 0.75,
          "duration": 0.23749999701976776,
          "pitch": 32,
          "velocity": 12
        },
        {
          "beat": 1,
          "duration": 0.987500011920929,
          "pitch": 31,
          "velocity": 27
        },
        {
          "beat": 1.25,
          "duration": 0.4937500059604645,
          "pitch": 33,
          "velocity": 21
        },
        {
          "beat": 1.2541667222976685,
          "duration": 0.4958333373069763,
          "pitch": 35,
          "velocity": 30
        },
        {
          "beat": 1.2604166269302368,
          "duration": 0.4937500059604645,
          "pitch": 34,
          "velocity": 33
        },
        {
          "beat": 1.75,
          "duration": 0.4958333373069763,
          "pitch": 33,
          "velocity": 21
        },
        {
          "beat": 1.7541667222976685,
          "duration": 0.4958333373069763,
          "pitch": 35,
          "velocity": 16
        },
        {
          "beat": 1.7604166269302368,
          "duration": 0.4895833432674408,
          "pitch": 34,
          "velocity": 33
        },
        {
          "beat": 2,
          "duration": 0.743749976158142,
          "pitch": 32,
          "velocity": 20
        },
        {
          "beat": 2.25,
          "duration": 0.4937500059604645,
          "pitch": 33,
          "velocity": 21
        },
        {
          "beat": 2.254166603088379,
          "duration": 0.4895833432674408,
          "pitch": 35,
          "velocity": 30
        },
        {
          "beat": 2.2604167461395264,
          "duration": 0.4937500059604645,
          "pitch": 34,
          "velocity": 20
        },
        {
          "beat": 2.75,
          "duration": 0.23541666567325592,
          "pitch": 32,
          "velocity": 17
        },
        {
          "beat": 2.75,
          "duration": 0.7479166388511658,
          "pitch": 33,
          "velocity": 21
        },
        {
          "beat": 2.754166603088379,
          "duration": 0.743749976158142,
          "pitch": 35,
          "velocity": 13
        },
        {
          "beat": 2.7604167461395264,
          "duration": 0.743749976158142,
          "pitch": 34,
          "velocity": 33
        },
        {
          "beat": 3,
          "duration": 0.731249988079071,
          "pitch": 31,
          "velocity": 27
        },
        {
          "beat": 3.5,
          "duration": 0.518750011920929,
          "pitch": 33,
          "velocity": 21
        },
        {
          "beat": 3.504166603088379,
          "duration": 0.5333333611488342,
          "pitch": 35,
          "velocity": 30
        },
        {
          "beat": 3.5104167461395264,
          "duration": 0.5,
          "pitch": 34,
          "velocity": 33
        },
        {
          "beat": 3.75,
          "duration": 0.2874999940395355,
          "pitch": 31,
          "velocity": 12
        }
      ],
      "decodedMidiPath": "rhythm_midi_patterns/decoded_pattern_midis/GN_3.mid"
    },
    {
      "code": "GN_4",
      "type": "chord_model_str",
      "subtype": "strings",
      "family": "GuitarN",
      "version": "0.0.0.0",
      "sizePagesOrUnits": 34,
      "crc32": 747133694,
      "bpm": 70,
      "bnum": 44,
      "noteCount": 8,
      "notes": [
        {
          "beat": 0,
          "duration": 4.110416889190674,
          "pitch": 31,
          "velocity": 23
        },
        {
          "beat": 0.5,
          "duration": 0.9770833253860474,
          "pitch": 34,
          "velocity": 31
        },
        {
          "beat": 1,
          "duration": 1.9770833253860474,
          "pitch": 35,
          "velocity": 21
        },
        {
          "beat": 1.5,
          "duration": 0.9770833253860474,
          "pitch": 34,
          "velocity": 23
        },
        {
          "beat": 2,
          "duration": 2.1104166507720947,
          "pitch": 36,
          "velocity": 36
        },
        {
          "beat": 2.5,
          "duration": 0.9770833253860474,
          "pitch": 34,
          "velocity": 13
        },
        {
          "beat": 3,
          "duration": 1.0145833492279053,
          "pitch": 35,
          "velocity": 32
        },
        {
          "beat": 3.5,
          "duration": 0.512499988079071,
          "pitch": 34,
          "velocity": 19
        }
      ],
      "decodedMidiPath": "rhythm_midi_patterns/decoded_pattern_midis/GN_4.mid"
    },
    {
      "code": "GN_5",
      "type": "chord_model_str",
      "subtype": "strings",
      "family": "GuitarN",
      "version": "0.0.0.0",
      "sizePagesOrUnits": 36,
      "crc32": 2282089143,
      "bpm": 85,
      "bnum": 44,
      "noteCount": 8,
      "notes": [
        {
          "beat": 0,
          "duration": 4.110416889190674,
          "pitch": 31,
          "velocity": 23
        },
        {
          "beat": 0.5,
          "duration": 2.987499952316284,
          "pitch": 33,
          "velocity": 29
        },
        {
          "beat": 1,
          "duration": 1.9770833253860474,
          "pitch": 34,
          "velocity": 21
        },
        {
          "beat": 1.5,
          "duration": 0.987500011920929,
          "pitch": 35,
          "velocity": 23
        },
        {
          "beat": 2,
          "duration": 2.1104166507720947,
          "pitch": 36,
          "velocity": 37
        },
        {
          "beat": 2.5,
          "duration": 1.5187499523162842,
          "pitch": 35,
          "velocity": 23
        },
        {
          "beat": 3,
          "duration": 1.0145833492279053,
          "pitch": 34,
          "velocity": 41
        },
        {
          "beat": 3.5,
          "duration": 0.512499988079071,
          "pitch": 33,
          "velocity": 19
        }
      ],
      "decodedMidiPath": "rhythm_midi_patterns/decoded_pattern_midis/GN_5.mid"
    },
    {
      "code": "GN_6",
      "type": "chord_model_str",
      "subtype": "strings",
      "family": "GuitarN",
      "version": "0.0.0.0",
      "sizePagesOrUnits": 60,
      "crc32": 715782649,
      "bpm": 70,
      "bnum": 44,
      "noteCount": 16,
      "notes": [
        {
          "beat": 0,
          "duration": 0.25,
          "pitch": 24,
          "velocity": 27
        },
        {
          "beat": 0,
          "duration": 2,
          "pitch": 31,
          "velocity": 23
        },
        {
          "beat": 0,
          "duration": 0.9895833134651184,
          "pitch": 34,
          "velocity": 47
        },
        {
          "beat": 0,
          "duration": 0.9895833134651184,
          "pitch": 36,
          "velocity": 46
        },
        {
          "beat": 0.008333333767950535,
          "duration": 0.9708333611488342,
          "pitch": 35,
          "velocity": 21
        },
        {
          "beat": 1.0020833015441895,
          "duration": 0.9979166388511658,
          "pitch": 35,
          "velocity": 12
        },
        {
          "beat": 1.006250023841858,
          "duration": 0.993749976158142,
          "pitch": 34,
          "velocity": 21
        },
        {
          "beat": 1.006250023841858,
          "duration": 0.993749976158142,
          "pitch": 36,
          "velocity": 19
        },
        {
          "beat": 2,
          "duration": 0.25,
          "pitch": 24,
          "velocity": 27
        },
        {
          "beat": 2,
          "duration": 2.0458333492279053,
          "pitch": 31,
          "velocity": 13
        },
        {
          "beat": 2.008333444595337,
          "duration": 0.987500011920929,
          "pitch": 34,
          "velocity": 29
        },
        {
          "beat": 2.0104167461395264,
          "duration": 0.981249988079071,
          "pitch": 36,
          "velocity": 46
        },
        {
          "beat": 2.0145833492279053,
          "duration": 0.9708333611488342,
          "pitch": 35,
          "velocity": 21
        },
        {
          "beat": 3,
          "duration": 1.0125000476837158,
          "pitch": 34,
          "velocity": 29
        },
        {
          "beat": 3.0062499046325684,
          "duration": 1.006250023841858,
          "pitch": 35,
          "velocity": 10
        },
        {
          "beat": 3.008333444595337,
          "duration": 1.0395833253860474,
          "pitch": 36,
          "velocity": 26
        }
      ],
      "decodedMidiPath": "rhythm_midi_patterns/decoded_pattern_midis/GN_6.mid"
    },
    {
      "code": "GN_7",
      "type": "chord_model_str",
      "subtype": "strings",
      "family": "GuitarN",
      "version": "0.0.0.0",
      "sizePagesOrUnits": 62,
      "crc32": 65826888,
      "bpm": 70,
      "bnum": 44,
      "noteCount": 17,
      "notes": [
        {
          "beat": 0,
          "duration": 0.25,
          "pitch": 24,
          "velocity": 27
        },
        {
          "beat": 0,
          "duration": 2,
          "pitch": 31,
          "velocity": 23
        },
        {
          "beat": 0,
          "duration": 0.4937500059604645,
          "pitch": 34,
          "velocity": 47
        },
        {
          "beat": 0,
          "duration": 0.9895833134651184,
          "pitch": 36,
          "velocity": 46
        },
        {
          "beat": 0.008333333767950535,
          "duration": 0.9708333611488342,
          "pitch": 35,
          "velocity": 21
        },
        {
          "beat": 0.5,
          "duration": 0.9916666746139526,
          "pitch": 34,
          "velocity": 23
        },
        {
          "beat": 1.0020833015441895,
          "duration": 0.9979166388511658,
          "pitch": 35,
          "velocity": 12
        },
        {
          "beat": 1.006250023841858,
          "duration": 0.993749976158142,
          "pitch": 36,
          "velocity": 19
        },
        {
          "beat": 1.5,
          "duration": 0.9916666746139526,
          "pitch": 34,
          "velocity": 22
        },
        {
          "beat": 2,
          "duration": 0.25,
          "pitch": 24,
          "velocity": 27
        },
        {
          "beat": 2,
          "duration": 2.0458333492279053,
          "pitch": 31,
          "velocity": 13
        },
        {
          "beat": 2.0104167461395264,
          "duration": 0.981249988079071,
          "pitch": 36,
          "velocity": 46
        },
        {
          "beat": 2.0145833492279053,
          "duration": 0.9708333611488342,
          "pitch": 35,
          "velocity": 21
        },
        {
          "beat": 2.5,
          "duration": 0.9916666746139526,
          "pitch": 34,
          "velocity": 29
        },
        {
          "beat": 3.0062499046325684,
          "duration": 1.006250023841858,
          "pitch": 35,
          "velocity": 10
        },
        {
          "beat": 3.008333444595337,
          "duration": 1.0395833253860474,
          "pitch": 36,
          "velocity": 26
        },
        {
          "beat": 3.5,
          "duration": 0.512499988079071,
          "pitch": 34,
          "velocity": 30
        }
      ],
      "decodedMidiPath": "rhythm_midi_patterns/decoded_pattern_midis/GN_7.mid"
    },
    {
      "code": "GN_8",
      "type": "chord_model_str",
      "subtype": "strings",
      "family": "GuitarN",
      "version": "0.0.0.0",
      "sizePagesOrUnits": 35,
      "crc32": 1560632995,
      "bpm": 120,
      "bnum": 43,
      "noteCount": 8,
      "notes": [
        {
          "beat": 0,
          "duration": 0.5,
          "pitch": 24,
          "velocity": 27
        },
        {
          "beat": 0,
          "duration": 1.3479167222976685,
          "pitch": 31,
          "velocity": 23
        },
        {
          "beat": 1.0020833015441895,
          "duration": 0.34583333134651184,
          "pitch": 35,
          "velocity": 22
        },
        {
          "beat": 1.006250023841858,
          "duration": 0.34166666865348816,
          "pitch": 34,
          "velocity": 31
        },
        {
          "beat": 1.006250023841858,
          "duration": 0.34166666865348816,
          "pitch": 36,
          "velocity": 29
        },
        {
          "beat": 2,
          "duration": 1.0208333730697632,
          "pitch": 34,
          "velocity": 30
        },
        {
          "beat": 2,
          "duration": 1.0208333730697632,
          "pitch": 36,
          "velocity": 45
        },
        {
          "beat": 2.008333444595337,
          "duration": 1.0125000476837158,
          "pitch": 35,
          "velocity": 21
        }
      ],
      "decodedMidiPath": "rhythm_midi_patterns/decoded_pattern_midis/GN_8.mid"
    },
    {
      "code": "GN_9",
      "type": "chord_model_str",
      "subtype": "strings",
      "family": "GuitarN",
      "version": "0.0.0.0",
      "sizePagesOrUnits": 29,
      "crc32": 2808241544,
      "bpm": 82,
      "bnum": 86,
      "noteCount": 6,
      "notes": [
        {
          "beat": 0,
          "duration": 3.0416667461395264,
          "pitch": 31,
          "velocity": 23
        },
        {
          "beat": 0.5,
          "duration": 1.9791666269302368,
          "pitch": 34,
          "velocity": 31
        },
        {
          "beat": 1,
          "duration": 0.9770833253860474,
          "pitch": 35,
          "velocity": 21
        },
        {
          "beat": 1.5,
          "duration": 1.5458333492279053,
          "pitch": 36,
          "velocity": 41
        },
        {
          "beat": 2,
          "duration": 1.0145833492279053,
          "pitch": 35,
          "velocity": 28
        },
        {
          "beat": 2.5,
          "duration": 0.5166666507720947,
          "pitch": 34,
          "velocity": 13
        }
      ],
      "decodedMidiPath": "rhythm_midi_patterns/decoded_pattern_midis/GN_9.mid"
    },
    {
      "code": "GS_1",
      "type": "chord_model_str",
      "subtype": "strings",
      "family": "GuitarS",
      "version": "0.0.0.1",
      "sizePagesOrUnits": 34,
      "crc32": 2443737600,
      "bpm": 70,
      "bnum": 44,
      "noteCount": 8,
      "notes": [
        {
          "beat": 0,
          "duration": 4.110416889190674,
          "pitch": 31,
          "velocity": 27
        },
        {
          "beat": 0.5,
          "duration": 0.9770833253860474,
          "pitch": 34,
          "velocity": 31
        },
        {
          "beat": 1,
          "duration": 1.9770833253860474,
          "pitch": 35,
          "velocity": 21
        },
        {
          "beat": 1.5,
          "duration": 0.9770833253860474,
          "pitch": 34,
          "velocity": 23
        },
        {
          "beat": 2,
          "duration": 2.1104166507720947,
          "pitch": 36,
          "velocity": 36
        },
        {
          "beat": 2.5,
          "duration": 0.9770833253860474,
          "pitch": 34,
          "velocity": 13
        },
        {
          "beat": 3,
          "duration": 1.0145833492279053,
          "pitch": 35,
          "velocity": 41
        },
        {
          "beat": 3.5,
          "duration": 0.512499988079071,
          "pitch": 34,
          "velocity": 19
        }
      ],
      "decodedMidiPath": "rhythm_midi_patterns/decoded_pattern_midis/GS_1.mid"
    },
    {
      "code": "GS_10",
      "type": "chord_model_str",
      "subtype": "strings",
      "family": "GuitarS",
      "version": "0.0.0.0",
      "sizePagesOrUnits": 71,
      "crc32": 3999271061,
      "bpm": 82,
      "bnum": 86,
      "noteCount": 17,
      "notes": [
        {
          "beat": 0,
          "duration": 0.25,
          "pitch": 24,
          "velocity": 100
        },
        {
          "beat": 0,
          "duration": 0.9979166388511658,
          "pitch": 31,
          "velocity": 21
        },
        {
          "beat": 0.008333333767950535,
          "duration": 0.9979166388511658,
          "pitch": 32,
          "velocity": 19
        },
        {
          "beat": 0.014583333395421505,
          "duration": 1.4895833730697632,
          "pitch": 33,
          "velocity": 25
        },
        {
          "beat": 0.02291666716337204,
          "duration": 1.4833333492279053,
          "pitch": 34,
          "velocity": 25
        },
        {
          "beat": 0.03333333507180214,
          "duration": 1.4770833253860474,
          "pitch": 35,
          "velocity": 16
        },
        {
          "beat": 0.04374999925494194,
          "duration": 1.4729167222976685,
          "pitch": 36,
          "velocity": 9
        },
        {
          "beat": 1,
          "duration": 0.5,
          "pitch": 31,
          "velocity": 21
        },
        {
          "beat": 1.006250023841858,
          "duration": 0.4937500059604645,
          "pitch": 32,
          "velocity": 19
        },
        {
          "beat": 1.5,
          "duration": 1.5583332777023315,
          "pitch": 31,
          "velocity": 16
        },
        {
          "beat": 1.5,
          "duration": 1.5145833492279053,
          "pitch": 32,
          "velocity": 10
        },
        {
          "beat": 1.5041667222976685,
          "duration": 1.5104166269302368,
          "pitch": 33,
          "velocity": 10
        },
        {
          "beat": 1.506250023841858,
          "duration": 0.75,
          "pitch": 34,
          "velocity": 24
        },
        {
          "beat": 1.5125000476837158,
          "duration": 0.7354166507720947,
          "pitch": 35,
          "velocity": 12
        },
        {
          "beat": 1.5187499523162842,
          "duration": 1.5437500476837158,
          "pitch": 36,
          "velocity": 17
        },
        {
          "beat": 2.25,
          "duration": 0.7520833611488342,
          "pitch": 35,
          "velocity": 17
        },
        {
          "beat": 2.258333444595337,
          "duration": 0.7458333373069763,
          "pitch": 34,
          "velocity": 20
        }
      ],
      "decodedMidiPath": "rhythm_midi_patterns/decoded_pattern_midis/GS_10.mid"
    },
    {
      "code": "GS_11",
      "type": "chord_model_str",
      "subtype": "strings",
      "family": "GuitarS",
      "version": "0.0.0.0",
      "sizePagesOrUnits": 33,
      "crc32": 3180359536,
      "bpm": 82,
      "bnum": 86,
      "noteCount": 5,
      "notes": [
        {
          "beat": 0,
          "duration": 3.0416667461395264,
          "pitch": 31,
          "velocity": 27
        },
        {
          "beat": 0.5,
          "duration": 1.9791666269302368,
          "pitch": 34,
          "velocity": 27
        },
        {
          "beat": 1,
          "duration": 2.022916555404663,
          "pitch": 35,
          "velocity": 21
        },
        {
          "beat": 1.5,
          "duration": 1.5458333492279053,
          "pitch": 36,
          "velocity": 36
        },
        {
          "beat": 2.5,
          "duration": 0.5166666507720947,
          "pitch": 34,
          "velocity": 13
        }
      ],
      "decodedMidiPath": "rhythm_midi_patterns/decoded_pattern_midis/GS_11.mid"
    },
    {
      "code": "GS_12",
      "type": "chord_model_str",
      "subtype": "strings",
      "family": "GuitarS",
      "version": "0.0.0.0",
      "sizePagesOrUnits": 36,
      "crc32": 2691849204,
      "bpm": 85,
      "bnum": 44,
      "noteCount": 8,
      "notes": [
        {
          "beat": 0,
          "duration": 4.110416889190674,
          "pitch": 31,
          "velocity": 27
        },
        {
          "beat": 0.5,
          "duration": 2.987499952316284,
          "pitch": 33,
          "velocity": 29
        },
        {
          "beat": 1,
          "duration": 1.9770833253860474,
          "pitch": 34,
          "velocity": 21
        },
        {
          "beat": 1.5,
          "duration": 0.987500011920929,
          "pitch": 35,
          "velocity": 23
        },
        {
          "beat": 2,
          "duration": 2.1104166507720947,
          "pitch": 36,
          "velocity": 36
        },
        {
          "beat": 2.5,
          "duration": 1.5187499523162842,
          "pitch": 35,
          "velocity": 23
        },
        {
          "beat": 3,
          "duration": 1.0145833492279053,
          "pitch": 34,
          "velocity": 41
        },
        {
          "beat": 3.5,
          "duration": 0.512499988079071,
          "pitch": 33,
          "velocity": 19
        }
      ],
      "decodedMidiPath": "rhythm_midi_patterns/decoded_pattern_midis/GS_12.mid"
    },
    {
      "code": "GS_13",
      "type": "chord_model_str",
      "subtype": "strings",
      "family": "GuitarS",
      "version": "0.0.0.0",
      "sizePagesOrUnits": 60,
      "crc32": 2508488807,
      "bpm": 70,
      "bnum": 44,
      "noteCount": 16,
      "notes": [
        {
          "beat": 0,
          "duration": 0.25,
          "pitch": 24,
          "velocity": 27
        },
        {
          "beat": 0,
          "duration": 2,
          "pitch": 31,
          "velocity": 27
        },
        {
          "beat": 0,
          "duration": 0.9895833134651184,
          "pitch": 34,
          "velocity": 47
        },
        {
          "beat": 0,
          "duration": 0.9895833134651184,
          "pitch": 36,
          "velocity": 36
        },
        {
          "beat": 0.008333333767950535,
          "duration": 0.9708333611488342,
          "pitch": 35,
          "velocity": 21
        },
        {
          "beat": 1.0020833015441895,
          "duration": 0.9979166388511658,
          "pitch": 35,
          "velocity": 12
        },
        {
          "beat": 1.006250023841858,
          "duration": 0.993749976158142,
          "pitch": 34,
          "velocity": 21
        },
        {
          "beat": 1.006250023841858,
          "duration": 0.993749976158142,
          "pitch": 36,
          "velocity": 9
        },
        {
          "beat": 2,
          "duration": 0.25,
          "pitch": 24,
          "velocity": 27
        },
        {
          "beat": 2,
          "duration": 2.0458333492279053,
          "pitch": 31,
          "velocity": 17
        },
        {
          "beat": 2.008333444595337,
          "duration": 0.987500011920929,
          "pitch": 34,
          "velocity": 29
        },
        {
          "beat": 2.0104167461395264,
          "duration": 0.981249988079071,
          "pitch": 36,
          "velocity": 36
        },
        {
          "beat": 2.0145833492279053,
          "duration": 0.9708333611488342,
          "pitch": 35,
          "velocity": 21
        },
        {
          "beat": 3,
          "duration": 1.0125000476837158,
          "pitch": 34,
          "velocity": 29
        },
        {
          "beat": 3.0062499046325684,
          "duration": 1.006250023841858,
          "pitch": 35,
          "velocity": 10
        },
        {
          "beat": 3.008333444595337,
          "duration": 1.0395833253860474,
          "pitch": 36,
          "velocity": 16
        }
      ],
      "decodedMidiPath": "rhythm_midi_patterns/decoded_pattern_midis/GS_13.mid"
    },
    {
      "code": "GS_14",
      "type": "chord_model_str",
      "subtype": "strings",
      "family": "GuitarS",
      "version": "0.0.0.0",
      "sizePagesOrUnits": 62,
      "crc32": 1976958462,
      "bpm": 70,
      "bnum": 44,
      "noteCount": 17,
      "notes": [
        {
          "beat": 0,
          "duration": 0.25,
          "pitch": 24,
          "velocity": 27
        },
        {
          "beat": 0,
          "duration": 2,
          "pitch": 31,
          "velocity": 27
        },
        {
          "beat": 0,
          "duration": 0.4937500059604645,
          "pitch": 34,
          "velocity": 47
        },
        {
          "beat": 0,
          "duration": 0.9895833134651184,
          "pitch": 36,
          "velocity": 36
        },
        {
          "beat": 0.008333333767950535,
          "duration": 0.9708333611488342,
          "pitch": 35,
          "velocity": 21
        },
        {
          "beat": 0.5,
          "duration": 0.9916666746139526,
          "pitch": 34,
          "velocity": 23
        },
        {
          "beat": 1.0020833015441895,
          "duration": 0.9979166388511658,
          "pitch": 35,
          "velocity": 12
        },
        {
          "beat": 1.006250023841858,
          "duration": 0.993749976158142,
          "pitch": 36,
          "velocity": 9
        },
        {
          "beat": 1.5,
          "duration": 0.9916666746139526,
          "pitch": 34,
          "velocity": 22
        },
        {
          "beat": 2,
          "duration": 0.25,
          "pitch": 24,
          "velocity": 27
        },
        {
          "beat": 2,
          "duration": 2.0458333492279053,
          "pitch": 31,
          "velocity": 17
        },
        {
          "beat": 2.0104167461395264,
          "duration": 0.981249988079071,
          "pitch": 36,
          "velocity": 36
        },
        {
          "beat": 2.0145833492279053,
          "duration": 0.9708333611488342,
          "pitch": 35,
          "velocity": 21
        },
        {
          "beat": 2.5,
          "duration": 0.9916666746139526,
          "pitch": 34,
          "velocity": 29
        },
        {
          "beat": 3,
          "duration": 1.0083333253860474,
          "pitch": 35,
          "velocity": 10
        },
        {
          "beat": 3,
          "duration": 1.0395833253860474,
          "pitch": 36,
          "velocity": 16
        },
        {
          "beat": 3.5,
          "duration": 0.512499988079071,
          "pitch": 34,
          "velocity": 30
        }
      ],
      "decodedMidiPath": "rhythm_midi_patterns/decoded_pattern_midis/GS_14.mid"
    },
    {
      "code": "GS_15",
      "type": "chord_model_str",
      "subtype": "strings",
      "family": "GuitarS",
      "version": "0.0.0.0",
      "sizePagesOrUnits": 35,
      "crc32": 1608957505,
      "bpm": 120,
      "bnum": 43,
      "noteCount": 8,
      "notes": [
        {
          "beat": 0,
          "duration": 0.5,
          "pitch": 24,
          "velocity": 27
        },
        {
          "beat": 0,
          "duration": 1.3479167222976685,
          "pitch": 31,
          "velocity": 27
        },
        {
          "beat": 1,
          "duration": 0.34166666865348816,
          "pitch": 34,
          "velocity": 21
        },
        {
          "beat": 1,
          "duration": 0.34583333134651184,
          "pitch": 35,
          "velocity": 12
        },
        {
          "beat": 1,
          "duration": 0.34166666865348816,
          "pitch": 36,
          "velocity": 9
        },
        {
          "beat": 2,
          "duration": 1.0291666984558105,
          "pitch": 34,
          "velocity": 47
        },
        {
          "beat": 2,
          "duration": 1.0291666984558105,
          "pitch": 36,
          "velocity": 36
        },
        {
          "beat": 2.008333444595337,
          "duration": 1.0208333730697632,
          "pitch": 35,
          "velocity": 21
        }
      ],
      "decodedMidiPath": "rhythm_midi_patterns/decoded_pattern_midis/GS_15.mid"
    },
    {
      "code": "GS_16",
      "type": "chord_model_str",
      "subtype": "strings",
      "family": "GuitarS",
      "version": "0.0.0.0",
      "sizePagesOrUnits": 29,
      "crc32": 2404713198,
      "bpm": 82,
      "bnum": 86,
      "noteCount": 6,
      "notes": [
        {
          "beat": 0,
          "duration": 3.0416667461395264,
          "pitch": 31,
          "velocity": 27
        },
        {
          "beat": 0.5,
          "duration": 1.9791666269302368,
          "pitch": 34,
          "velocity": 31
        },
        {
          "beat": 1,
          "duration": 0.9770833253860474,
          "pitch": 35,
          "velocity": 21
        },
        {
          "beat": 1.5,
          "duration": 1.5458333492279053,
          "pitch": 36,
          "velocity": 36
        },
        {
          "beat": 2,
          "duration": 1.0145833492279053,
          "pitch": 35,
          "velocity": 28
        },
        {
          "beat": 2.5,
          "duration": 0.5166666507720947,
          "pitch": 34,
          "velocity": 13
        }
      ],
      "decodedMidiPath": "rhythm_midi_patterns/decoded_pattern_midis/GS_16.mid"
    },
    {
      "code": "GS_17",
      "type": "chord_model_str",
      "subtype": "strings",
      "family": "GuitarS",
      "version": "0.0.0.0",
      "sizePagesOrUnits": 95,
      "crc32": 3713788815,
      "bpm": 70,
      "bnum": 44,
      "noteCount": 24,
      "notes": [
        {
          "beat": 0,
          "duration": 0.25,
          "pitch": 24,
          "velocity": 100
        },
        {
          "beat": 0,
          "duration": 2,
          "pitch": 31,
          "velocity": 21
        },
        {
          "beat": 0.008333333767950535,
          "duration": 2.00208330154419,
          "pitch": 32,
          "velocity": 19
        },
        {
          "beat": 0.014583333395421505,
          "duration": 2.00208330154419,
          "pitch": 33,
          "velocity": 25
        },
        {
          "beat": 0.02291666716337204,
          "duration": 0.9770833253860474,
          "pitch": 34,
          "velocity": 25
        },
        {
          "beat": 0.03333333507180214,
          "duration": 0.975000023841858,
          "pitch": 35,
          "velocity": 16
        },
        {
          "beat": 0.04374999925494194,
          "duration": 0.9791666865348816,
          "pitch": 36,
          "velocity": 9
        },
        {
          "beat": 1,
          "duration": 0.75,
          "pitch": 34,
          "velocity": 29
        },
        {
          "beat": 1.0083333253860474,
          "duration": 0.75,
          "pitch": 35,
          "velocity": 28
        },
        {
          "beat": 1.0229166746139526,
          "duration": 1.024999976158142,
          "pitch": 36,
          "velocity": 11
        },
        {
          "beat": 1.75,
          "duration": 0.2750000059604645,
          "pitch": 34,
          "velocity": 33
        },
        {
          "beat": 1.7583333253860474,
          "duration": 0.27916666865348816,
          "pitch": 35,
          "velocity": 16
        },
        {
          "beat": 2,
          "duration": 0.25,
          "pitch": 24,
          "velocity": 100
        },
        {
          "beat": 2,
          "duration": 2.054166555404663,
          "pitch": 31,
          "velocity": 4
        },
        {
          "beat": 2.012500047683716,
          "duration": 2.0104167461395264,
          "pitch": 32,
          "velocity": 7
        },
        {
          "beat": 2.018749952316284,
          "duration": 0.981249988079071,
          "pitch": 33,
          "velocity": 22
        },
        {
          "beat": 2.02916669845581,
          "duration": 0.9791666865348816,
          "pitch": 34,
          "velocity": 22
        },
        {
          "beat": 2.039583444595337,
          "duration": 0.975000023841858,
          "pitch": 35,
          "velocity": 16
        },
        {
          "beat": 2.049999952316284,
          "duration": 2.004166603088379,
          "pitch": 36,
          "velocity": 9
        },
        {
          "beat": 3.004166603088379,
          "duration": 1.0145833492279053,
          "pitch": 33,
          "velocity": 1
        },
        {
          "beat": 3.0104167461395264,
          "duration": 0.7395833134651184,
          "pitch": 34,
          "velocity": 1
        },
        {
          "beat": 3.018749952316284,
          "duration": 0.7395833134651184,
          "pitch": 35,
          "velocity": 3
        },
        {
          "beat": 3.75,
          "duration": 0.268750011920929,
          "pitch": 34,
          "velocity": 1
        },
        {
          "beat": 3.758333444595337,
          "duration": 0.2604166567325592,
          "pitch": 35,
          "velocity": 1
        }
      ],
      "decodedMidiPath": "rhythm_midi_patterns/decoded_pattern_midis/GS_17.mid"
    },
    {
      "code": "GS_18",
      "type": "chord_model_str",
      "subtype": "strings",
      "family": "GuitarS",
      "version": "0.0.0.1",
      "sizePagesOrUnits": 48,
      "crc32": 700825284,
      "bpm": 70,
      "bnum": 44,
      "noteCount": 14,
      "notes": [
        {
          "beat": 0,
          "duration": 0.25,
          "pitch": 24,
          "velocity": 27
        },
        {
          "beat": 0,
          "duration": 2,
          "pitch": 31,
          "velocity": 21
        },
        {
          "beat": 0.008333333767950535,
          "duration": 1.9916666746139526,
          "pitch": 32,
          "velocity": 19
        },
        {
          "beat": 0.014583333395421505,
          "duration": 1.9854166507720947,
          "pitch": 33,
          "velocity": 25
        },
        {
          "beat": 0.02291666716337204,
          "duration": 1.9770833253860474,
          "pitch": 34,
          "velocity": 25
        },
        {
          "beat": 0.03333333507180214,
          "duration": 1.9666666984558105,
          "pitch": 35,
          "velocity": 16
        },
        {
          "beat": 0.04374999925494194,
          "duration": 1.9562499523162842,
          "pitch": 36,
          "velocity": 9
        },
        {
          "beat": 2,
          "duration": 0.25,
          "pitch": 24,
          "velocity": 27
        },
        {
          "beat": 2,
          "duration": 2,
          "pitch": 31,
          "velocity": 21
        },
        {
          "beat": 2.008333444595337,
          "duration": 1.9916666746139526,
          "pitch": 32,
          "velocity": 19
        },
        {
          "beat": 2.0145833492279053,
          "duration": 1.9854166507720947,
          "pitch": 33,
          "velocity": 25
        },
        {
          "beat": 2.022916555404663,
          "duration": 1.9770833253860474,
          "pitch": 34,
          "velocity": 25
        },
        {
          "beat": 2.03333330154419,
          "duration": 1.9666666984558105,
          "pitch": 35,
          "velocity": 16
        },
        {
          "beat": 2.043750047683716,
          "duration": 1.9562499523162842,
          "pitch": 36,
          "velocity": 9
        }
      ],
      "decodedMidiPath": "rhythm_midi_patterns/decoded_pattern_midis/GS_18.mid"
    },
    {
      "code": "GS_19",
      "type": "chord_model_str",
      "subtype": "strings",
      "family": "GuitarS",
      "version": "0.0.0.1",
      "sizePagesOrUnits": 41,
      "crc32": 2569792270,
      "bpm": 70,
      "bnum": 44,
      "noteCount": 10,
      "notes": [
        {
          "beat": 0,
          "duration": 0.25,
          "pitch": 24,
          "velocity": 27
        },
        {
          "beat": 0,
          "duration": 2,
          "pitch": 31,
          "velocity": 27
        },
        {
          "beat": 0,
          "duration": 2,
          "pitch": 34,
          "velocity": 47
        },
        {
          "beat": 0,
          "duration": 2,
          "pitch": 36,
          "velocity": 36
        },
        {
          "beat": 0.008333333767950535,
          "duration": 1.9916666746139526,
          "pitch": 35,
          "velocity": 21
        },
        {
          "beat": 2,
          "duration": 0.25,
          "pitch": 24,
          "velocity": 27
        },
        {
          "beat": 2,
          "duration": 2,
          "pitch": 31,
          "velocity": 27
        },
        {
          "beat": 2,
          "duration": 2,
          "pitch": 34,
          "velocity": 47
        },
        {
          "beat": 2,
          "duration": 2,
          "pitch": 36,
          "velocity": 36
        },
        {
          "beat": 2.008333444595337,
          "duration": 1.9916666746139526,
          "pitch": 35,
          "velocity": 21
        }
      ],
      "decodedMidiPath": "rhythm_midi_patterns/decoded_pattern_midis/GS_19.mid"
    },
    {
      "code": "GS_2",
      "type": "chord_model_str",
      "subtype": "strings",
      "family": "GuitarS",
      "version": "0.0.0.1",
      "sizePagesOrUnits": 36,
      "crc32": 3529237170,
      "bpm": 70,
      "bnum": 44,
      "noteCount": 6,
      "notes": [
        {
          "beat": 0,
          "duration": 4.05833339691162,
          "pitch": 31,
          "velocity": 24
        },
        {
          "beat": 0.02708333358168602,
          "duration": 1.4541666507720947,
          "pitch": 36,
          "velocity": 23
        },
        {
          "beat": 0.5,
          "duration": 2.4833333492279053,
          "pitch": 34,
          "velocity": 18
        },
        {
          "beat": 1,
          "duration": 3.0166666507720947,
          "pitch": 35,
          "velocity": 21
        },
        {
          "beat": 1.5,
          "duration": 2.558333396911621,
          "pitch": 36,
          "velocity": 23
        },
        {
          "beat": 3,
          "duration": 1.0166666507720947,
          "pitch": 34,
          "velocity": 15
        }
      ],
      "decodedMidiPath": "rhythm_midi_patterns/decoded_pattern_midis/GS_2.mid"
    },
    {
      "code": "GS_20",
      "type": "chord_model_str",
      "subtype": "strings",
      "family": "GuitarS",
      "version": "0.0.0.1",
      "sizePagesOrUnits": 38,
      "crc32": 2453645137,
      "bpm": 120,
      "bnum": 44,
      "noteCount": 6,
      "notes": [
        {
          "beat": 0,
          "duration": 0.125,
          "pitch": 26,
          "velocity": 100
        },
        {
          "beat": 0,
          "duration": 2,
          "pitch": 31,
          "velocity": 30
        },
        {
          "beat": 0.004166666883975267,
          "duration": 1.9958332777023315,
          "pitch": 32,
          "velocity": 28
        },
        {
          "beat": 2,
          "duration": 0.125,
          "pitch": 26,
          "velocity": 100
        },
        {
          "beat": 2,
          "duration": 2,
          "pitch": 31,
          "velocity": 30
        },
        {
          "beat": 2.004166603088379,
          "duration": 1.9958332777023315,
          "pitch": 32,
          "velocity": 28
        }
      ],
      "decodedMidiPath": "rhythm_midi_patterns/decoded_pattern_midis/GS_20.mid"
    },
    {
      "code": "GS_21",
      "type": "chord_model_str",
      "subtype": "strings",
      "family": "GuitarS",
      "version": "0.0.0.1",
      "sizePagesOrUnits": 26,
      "crc32": 76524922,
      "bpm": 115,
      "bnum": 86,
      "noteCount": 6,
      "notes": [
        {
          "beat": 0,
          "duration": 1.4916666746139526,
          "pitch": 31,
          "velocity": 17
        },
        {
          "beat": 0.5,
          "duration": 1.4874999523162842,
          "pitch": 32,
          "velocity": 27
        },
        {
          "beat": 1,
          "duration": 1.4854166507720947,
          "pitch": 33,
          "velocity": 21
        },
        {
          "beat": 1.5,
          "duration": 1.5520833730697632,
          "pitch": 31,
          "velocity": 8
        },
        {
          "beat": 2,
          "duration": 1.0291666984558105,
          "pitch": 32,
          "velocity": 11
        },
        {
          "beat": 2.5,
          "duration": 0.5520833134651184,
          "pitch": 33,
          "velocity": 28
        }
      ],
      "decodedMidiPath": "rhythm_midi_patterns/decoded_pattern_midis/GS_21.mid"
    },
    {
      "code": "GS_22",
      "type": "chord_model_str",
      "subtype": "strings",
      "family": "GuitarS",
      "version": "0.0.0.1",
      "sizePagesOrUnits": 45,
      "crc32": 1528656539,
      "bpm": 60,
      "bnum": 44,
      "noteCount": 12,
      "notes": [
        {
          "beat": 0,
          "duration": 2,
          "pitch": 31,
          "velocity": 27
        },
        {
          "beat": 0.25,
          "duration": 1.4833333492279053,
          "pitch": 33,
          "velocity": 31
        },
        {
          "beat": 0.5,
          "duration": 0.7333333492279053,
          "pitch": 34,
          "velocity": 21
        },
        {
          "beat": 0.75,
          "duration": 1.9895833730697632,
          "pitch": 35,
          "velocity": 36
        },
        {
          "beat": 1.25,
          "duration": 1.2374999523162842,
          "pitch": 34,
          "velocity": 23
        },
        {
          "beat": 1.75,
          "duration": 0.4937500059604645,
          "pitch": 33,
          "velocity": 13
        },
        {
          "beat": 2,
          "duration": 2.1104166507720947,
          "pitch": 31,
          "velocity": 27
        },
        {
          "beat": 2.25,
          "duration": 1.4833333492279053,
          "pitch": 33,
          "velocity": 31
        },
        {
          "beat": 2.5,
          "duration": 0.7354166507720947,
          "pitch": 34,
          "velocity": 23
        },
        {
          "beat": 2.75,
          "duration": 1.3624999523162842,
          "pitch": 35,
          "velocity": 23
        },
        {
          "beat": 3.25,
          "duration": 0.8020833134651184,
          "pitch": 34,
          "velocity": 19
        },
        {
          "beat": 3.75,
          "duration": 0.3020833432674408,
          "pitch": 33,
          "velocity": 13
        }
      ],
      "decodedMidiPath": "rhythm_midi_patterns/decoded_pattern_midis/GS_22.mid"
    },
    {
      "code": "GS_23",
      "type": "chord_model_str",
      "subtype": "strings",
      "family": "GuitarS",
      "version": "0.0.0.1",
      "sizePagesOrUnits": 93,
      "crc32": 293166885,
      "bpm": 72,
      "bnum": 44,
      "noteCount": 23,
      "notes": [
        {
          "beat": 0,
          "duration": 0.25,
          "pitch": 24,
          "velocity": 100
        },
        {
          "beat": 0,
          "duration": 2.5,
          "pitch": 31,
          "velocity": 21
        },
        {
          "beat": 0.008333333767950535,
          "duration": 1.4895833730697632,
          "pitch": 32,
          "velocity": 19
        },
        {
          "beat": 0.014583333395421505,
          "duration": 0.7541666626930237,
          "pitch": 33,
          "velocity": 25
        },
        {
          "beat": 0.02291666716337204,
          "duration": 0.7333333492279053,
          "pitch": 34,
          "velocity": 25
        },
        {
          "beat": 0.03125,
          "duration": 0.712499976158142,
          "pitch": 35,
          "velocity": 16
        },
        {
          "beat": 0.04583333432674408,
          "duration": 2.964583396911621,
          "pitch": 36,
          "velocity": 9
        },
        {
          "beat": 0.75,
          "duration": 1.493749976158142,
          "pitch": 35,
          "velocity": 28
        },
        {
          "beat": 0.7583333253860474,
          "duration": 0.7520833611488342,
          "pitch": 34,
          "velocity": 29
        },
        {
          "beat": 0.7708333134651184,
          "duration": 0.7354166507720947,
          "pitch": 33,
          "velocity": 25
        },
        {
          "beat": 1.5,
          "duration": 1.0083333253860474,
          "pitch": 32,
          "velocity": 19
        },
        {
          "beat": 1.5083333253860474,
          "duration": 2.5250000953674316,
          "pitch": 33,
          "velocity": 25
        },
        {
          "beat": 1.5145833492279053,
          "duration": 0.743749976158142,
          "pitch": 34,
          "velocity": 17
        },
        {
          "beat": 2,
          "duration": 0.25,
          "pitch": 24,
          "velocity": 100
        },
        {
          "beat": 2.25,
          "duration": 0.756250023841858,
          "pitch": 35,
          "velocity": 17
        },
        {
          "beat": 2.2604167461395264,
          "duration": 0.737500011920929,
          "pitch": 34,
          "velocity": 20
        },
        {
          "beat": 2.5,
          "duration": 1.6166666746139526,
          "pitch": 31,
          "velocity": 16
        },
        {
          "beat": 2.512500047683716,
          "duration": 1.5979167222976685,
          "pitch": 32,
          "velocity": 21
        },
        {
          "beat": 3,
          "duration": 0.4937500059604645,
          "pitch": 34,
          "velocity": 18
        },
        {
          "beat": 3.0104167461395264,
          "duration": 0.4937500059604645,
          "pitch": 35,
          "velocity": 20
        },
        {
          "beat": 3.0166666507720947,
          "duration": 1.0770833492279053,
          "pitch": 36,
          "velocity": 25
        },
        {
          "beat": 3.5,
          "duration": 0.518750011920929,
          "pitch": 34,
          "velocity": 8
        },
        {
          "beat": 3.508333444595337,
          "duration": 0.5333333611488342,
          "pitch": 35,
          "velocity": 8
        }
      ],
      "decodedMidiPath": "rhythm_midi_patterns/decoded_pattern_midis/GS_23.mid"
    },
    {
      "code": "GS_24",
      "type": "chord_model_str",
      "subtype": "strings",
      "family": "GuitarS",
      "version": "0.0.0.1",
      "sizePagesOrUnits": 63,
      "crc32": 1731540106,
      "bpm": 115,
      "bnum": 86,
      "noteCount": 16,
      "notes": [
        {
          "beat": 0,
          "duration": 0.25,
          "pitch": 24,
          "velocity": 100
        },
        {
          "beat": 0,
          "duration": 0.9979166388511658,
          "pitch": 31,
          "velocity": 5
        },
        {
          "beat": 0.008333333767950535,
          "duration": 1.4916666746139526,
          "pitch": 32,
          "velocity": 19
        },
        {
          "beat": 0.014583333395421505,
          "duration": 1.4895833730697632,
          "pitch": 33,
          "velocity": 25
        },
        {
          "beat": 0.02291666716337204,
          "duration": 1.4833333492279053,
          "pitch": 34,
          "velocity": 25
        },
        {
          "beat": 0.03333333507180214,
          "duration": 1.4770833253860474,
          "pitch": 35,
          "velocity": 16
        },
        {
          "beat": 0.04374999925494194,
          "duration": 1.4729167222976685,
          "pitch": 36,
          "velocity": 9
        },
        {
          "beat": 1,
          "duration": 0.5,
          "pitch": 31,
          "velocity": 5
        },
        {
          "beat": 1.5,
          "duration": 1.5583332777023315,
          "pitch": 31,
          "velocity": 1
        },
        {
          "beat": 1.5,
          "duration": 1.5145833492279053,
          "pitch": 32,
          "velocity": 10
        },
        {
          "beat": 1.5041667222976685,
          "duration": 1.0020833015441895,
          "pitch": 33,
          "velocity": 10
        },
        {
          "beat": 1.506250023841858,
          "duration": 0.9916666746139526,
          "pitch": 34,
          "velocity": 24
        },
        {
          "beat": 1.5125000476837158,
          "duration": 1.5,
          "pitch": 35,
          "velocity": 12
        },
        {
          "beat": 1.5187499523162842,
          "duration": 1.5437500476837158,
          "pitch": 36,
          "velocity": 17
        },
        {
          "beat": 2.5,
          "duration": 0.512499988079071,
          "pitch": 34,
          "velocity": 17
        },
        {
          "beat": 2.508333444595337,
          "duration": 0.4958333373069763,
          "pitch": 33,
          "velocity": 20
        }
      ],
      "decodedMidiPath": "rhythm_midi_patterns/decoded_pattern_midis/GS_24.mid"
    },
    {
      "code": "GS_25",
      "type": "chord_model_str",
      "subtype": "strings",
      "family": "GuitarS",
      "version": "0.0.0.1",
      "sizePagesOrUnits": 43,
      "crc32": 2472213792,
      "bpm": 68,
      "bnum": 44,
      "noteCount": 8,
      "notes": [
        {
          "beat": 0,
          "duration": 4.110416889190674,
          "pitch": 31,
          "velocity": 27
        },
        {
          "beat": 0.5,
          "duration": 2.2395832538604736,
          "pitch": 33,
          "velocity": 9
        },
        {
          "beat": 0.75,
          "duration": 2.241666555404663,
          "pitch": 35,
          "velocity": 32
        },
        {
          "beat": 1.25,
          "duration": 2.2395832538604736,
          "pitch": 34,
          "velocity": 23
        },
        {
          "beat": 2,
          "duration": 2.1104166507720947,
          "pitch": 36,
          "velocity": 36
        },
        {
          "beat": 2.75,
          "duration": 1.2708333730697632,
          "pitch": 33,
          "velocity": 1
        },
        {
          "beat": 3,
          "duration": 1.0145833492279053,
          "pitch": 35,
          "velocity": 41
        },
        {
          "beat": 3.5,
          "duration": 0.512499988079071,
          "pitch": 34,
          "velocity": 19
        }
      ],
      "decodedMidiPath": "rhythm_midi_patterns/decoded_pattern_midis/GS_25.mid"
    },
    {
      "code": "GS_26",
      "type": "chord_model_str",
      "subtype": "strings",
      "family": "GuitarS",
      "version": "0.0.0.1",
      "sizePagesOrUnits": 32,
      "crc32": 1664144023,
      "bpm": 108,
      "bnum": 44,
      "noteCount": 7,
      "notes": [
        {
          "beat": 0,
          "duration": 4.108333110809326,
          "pitch": 31,
          "velocity": 27
        },
        {
          "beat": 0.5,
          "duration": 2.4583332538604736,
          "pitch": 33,
          "velocity": 31
        },
        {
          "beat": 1,
          "duration": 1.4666666984558105,
          "pitch": 34,
          "velocity": 21
        },
        {
          "beat": 1.5,
          "duration": 2.6083333492279053,
          "pitch": 35,
          "velocity": 36
        },
        {
          "beat": 2.5,
          "duration": 1.5645833015441895,
          "pitch": 34,
          "velocity": 23
        },
        {
          "beat": 3,
          "duration": 1.0645833015441895,
          "pitch": 33,
          "velocity": 13
        },
        {
          "beat": 3.5,
          "duration": 0.5645833611488342,
          "pitch": 32,
          "velocity": 1
        }
      ],
      "decodedMidiPath": "rhythm_midi_patterns/decoded_pattern_midis/GS_26.mid"
    },
    {
      "code": "GS_27",
      "type": "chord_model_str",
      "subtype": "strings",
      "family": "GuitarS",
      "version": "0.0.0.1",
      "sizePagesOrUnits": 100,
      "crc32": 1674660149,
      "bpm": 108,
      "bnum": 44,
      "noteCount": 30,
      "notes": [
        {
          "beat": 0,
          "duration": 0.25,
          "pitch": 24,
          "velocity": 100
        },
        {
          "beat": 0,
          "duration": 1,
          "pitch": 31,
          "velocity": 21
        },
        {
          "beat": 0.008333333767950535,
          "duration": 0.981249988079071,
          "pitch": 32,
          "velocity": 19
        },
        {
          "beat": 0.014583333395421505,
          "duration": 0.7541666626930237,
          "pitch": 33,
          "velocity": 25
        },
        {
          "beat": 0.02291666716337204,
          "duration": 0.7333333492279053,
          "pitch": 34,
          "velocity": 25
        },
        {
          "beat": 0.03125,
          "duration": 0.712499976158142,
          "pitch": 35,
          "velocity": 16
        },
        {
          "beat": 0.04583333432674408,
          "duration": 1.4770833253860474,
          "pitch": 36,
          "velocity": 9
        },
        {
          "beat": 0.75,
          "duration": 0.756250023841858,
          "pitch": 35,
          "velocity": 28
        },
        {
          "beat": 0.7583333253860474,
          "duration": 0.7479166388511658,
          "pitch": 34,
          "velocity": 29
        },
        {
          "beat": 0.7708333134651184,
          "duration": 0.7291666865348816,
          "pitch": 33,
          "velocity": 25
        },
        {
          "beat": 1,
          "duration": 0.5,
          "pitch": 26,
          "velocity": 1
        },
        {
          "beat": 1,
          "duration": 0.5,
          "pitch": 31,
          "velocity": 22
        },
        {
          "beat": 1.0104166269302368,
          "duration": 0.4895833432674408,
          "pitch": 32,
          "velocity": 6
        },
        {
          "beat": 1.5,
          "duration": 0.25,
          "pitch": 24,
          "velocity": 100
        },
        {
          "beat": 1.5,
          "duration": 0.993749976158142,
          "pitch": 31,
          "velocity": 21
        },
        {
          "beat": 1.5083333253860474,
          "duration": 2.56458330154419,
          "pitch": 32,
          "velocity": 19
        },
        {
          "beat": 1.5145833492279053,
          "duration": 2.53125,
          "pitch": 33,
          "velocity": 25
        },
        {
          "beat": 1.5187499523162842,
          "duration": 0.731249988079071,
          "pitch": 34,
          "velocity": 17
        },
        {
          "beat": 1.524999976158142,
          "duration": 0.7166666388511658,
          "pitch": 35,
          "velocity": 16
        },
        {
          "beat": 1.53125,
          "duration": 1.4812500476837158,
          "pitch": 36,
          "velocity": 9
        },
        {
          "beat": 2,
          "duration": 0.25,
          "pitch": 24,
          "velocity": 100
        },
        {
          "beat": 2.25,
          "duration": 0.756250023841858,
          "pitch": 35,
          "velocity": 17
        },
        {
          "beat": 2.2604167461395264,
          "duration": 0.737500011920929,
          "pitch": 34,
          "velocity": 20
        },
        {
          "beat": 2.5,
          "duration": 1.6166666746139526,
          "pitch": 31,
          "velocity": 8
        },
        {
          "beat": 3,
          "duration": 0.4958333373069763,
          "pitch": 34,
          "velocity": 18
        },
        {
          "beat": 3.0104167461395264,
          "duration": 0.4958333373069763,
          "pitch": 35,
          "velocity": 20
        },
        {
          "beat": 3.0166666507720947,
          "duration": 1.0770833492279053,
          "pitch": 36,
          "velocity": 25
        },
        {
          "beat": 3.5,
          "duration": 0.24583333730697632,
          "pitch": 34,
          "velocity": 8
        },
        {
          "beat": 3.512500047683716,
          "duration": 0.543749988079071,
          "pitch": 35,
          "velocity": 8
        },
        {
          "beat": 3.75,
          "duration": 0.28333333134651184,
          "pitch": 34,
          "velocity": 1
        }
      ],
      "decodedMidiPath": "rhythm_midi_patterns/decoded_pattern_midis/GS_27.mid"
    },
    {
      "code": "GS_28",
      "type": "chord_model_str",
      "subtype": "strings",
      "family": "GuitarS",
      "version": "0.0.0.1",
      "sizePagesOrUnits": 82,
      "crc32": 647588742,
      "bpm": 130,
      "bnum": 44,
      "noteCount": 24,
      "notes": [
        {
          "beat": 0,
          "duration": 0.25,
          "pitch": 24,
          "velocity": 27
        },
        {
          "beat": 0,
          "duration": 4.108333110809326,
          "pitch": 31,
          "velocity": 21
        },
        {
          "beat": 0.008333333767950535,
          "duration": 4.05833339691162,
          "pitch": 32,
          "velocity": 19
        },
        {
          "beat": 0.014583333395421505,
          "duration": 0.9854166507720947,
          "pitch": 33,
          "velocity": 25
        },
        {
          "beat": 0.02291666716337204,
          "duration": 0.9833333492279053,
          "pitch": 34,
          "velocity": 25
        },
        {
          "beat": 0.03333333507180214,
          "duration": 0.981249988079071,
          "pitch": 35,
          "velocity": 16
        },
        {
          "beat": 0.04374999925494194,
          "duration": 1.46875,
          "pitch": 36,
          "velocity": 9
        },
        {
          "beat": 1,
          "duration": 1.53125,
          "pitch": 33,
          "velocity": 25
        },
        {
          "beat": 1.0083333253860474,
          "duration": 0.487500011920929,
          "pitch": 34,
          "velocity": 29
        },
        {
          "beat": 1.0166666507720947,
          "duration": 0.487500011920929,
          "pitch": 35,
          "velocity": 28
        },
        {
          "beat": 1.5,
          "duration": 1.0083333253860474,
          "pitch": 34,
          "velocity": 33
        },
        {
          "beat": 1.5083333253860474,
          "duration": 1,
          "pitch": 35,
          "velocity": 16
        },
        {
          "beat": 1.5145833492279053,
          "duration": 0.9729166626930237,
          "pitch": 36,
          "velocity": 11
        },
        {
          "beat": 2,
          "duration": 0.25,
          "pitch": 24,
          "velocity": 27
        },
        {
          "beat": 2.5,
          "duration": 0.5104166865348816,
          "pitch": 36,
          "velocity": 17
        },
        {
          "beat": 2.5145833492279053,
          "duration": 0.4854166805744171,
          "pitch": 35,
          "velocity": 12
        },
        {
          "beat": 2.5208332538604736,
          "duration": 0.47083333134651184,
          "pitch": 34,
          "velocity": 24
        },
        {
          "beat": 2.5416667461395264,
          "duration": 0.9895833134651184,
          "pitch": 33,
          "velocity": 21
        },
        {
          "beat": 3,
          "duration": 0.512499988079071,
          "pitch": 34,
          "velocity": 30
        },
        {
          "beat": 3.008333444595337,
          "duration": 0.5041666626930237,
          "pitch": 35,
          "velocity": 32
        },
        {
          "beat": 3.022916555404663,
          "duration": 1.0708333253860474,
          "pitch": 36,
          "velocity": 25
        },
        {
          "beat": 3.512500047683716,
          "duration": 0.5208333134651184,
          "pitch": 35,
          "velocity": 12
        },
        {
          "beat": 3.5208332538604736,
          "duration": 0.5041666626930237,
          "pitch": 34,
          "velocity": 10
        },
        {
          "beat": 3.5374999046325684,
          "duration": 0.4958333373069763,
          "pitch": 33,
          "velocity": 7
        }
      ],
      "decodedMidiPath": "rhythm_midi_patterns/decoded_pattern_midis/GS_28.mid"
    },
    {
      "code": "GS_29",
      "type": "chord_model_str",
      "subtype": "strings",
      "family": "GuitarS",
      "version": "0.0.0.1",
      "sizePagesOrUnits": 50,
      "crc32": 3459406891,
      "bpm": 63,
      "bnum": 44,
      "noteCount": 13,
      "notes": [
        {
          "beat": 0,
          "duration": 2,
          "pitch": 31,
          "velocity": 27
        },
        {
          "beat": 0.5,
          "duration": 1.2416666746139526,
          "pitch": 33,
          "velocity": 28
        },
        {
          "beat": 0.75,
          "duration": 0.7416666746139526,
          "pitch": 34,
          "velocity": 21
        },
        {
          "beat": 1,
          "duration": 1.9958332777023315,
          "pitch": 36,
          "velocity": 36
        },
        {
          "beat": 1.25,
          "duration": 1.9916666746139526,
          "pitch": 35,
          "velocity": 23
        },
        {
          "beat": 1.5,
          "duration": 1.2479166984558105,
          "pitch": 34,
          "velocity": 13
        },
        {
          "beat": 1.75,
          "duration": 0.7395833134651184,
          "pitch": 33,
          "velocity": 19
        },
        {
          "beat": 2,
          "duration": 2.054166555404663,
          "pitch": 31,
          "velocity": 27
        },
        {
          "beat": 2.5,
          "duration": 1.53125,
          "pitch": 33,
          "velocity": 28
        },
        {
          "beat": 2.74791669845581,
          "duration": 0.743749976158142,
          "pitch": 34,
          "velocity": 21
        },
        {
          "beat": 3,
          "duration": 1.056249976158142,
          "pitch": 36,
          "velocity": 36
        },
        {
          "beat": 3.25,
          "duration": 0.7854166626930237,
          "pitch": 35,
          "velocity": 23
        },
        {
          "beat": 3.5,
          "duration": 0.53125,
          "pitch": 34,
          "velocity": 13
        }
      ],
      "decodedMidiPath": "rhythm_midi_patterns/decoded_pattern_midis/GS_29.mid"
    },
    {
      "code": "GS_3",
      "type": "chord_model_str",
      "subtype": "strings",
      "family": "GuitarS",
      "version": "0.0.0.1",
      "sizePagesOrUnits": 96,
      "crc32": 646655199,
      "bpm": 70,
      "bnum": 44,
      "noteCount": 27,
      "notes": [
        {
          "beat": 0,
          "duration": 0.25,
          "pitch": 24,
          "velocity": 27
        },
        {
          "beat": 0,
          "duration": 2.5,
          "pitch": 31,
          "velocity": 21
        },
        {
          "beat": 0.008333333767950535,
          "duration": 2.491666555404663,
          "pitch": 32,
          "velocity": 19
        },
        {
          "beat": 0.014583333395421505,
          "duration": 2.4895832538604736,
          "pitch": 33,
          "velocity": 25
        },
        {
          "beat": 0.02291666716337204,
          "duration": 0.9770833253860474,
          "pitch": 34,
          "velocity": 25
        },
        {
          "beat": 0.03333333507180214,
          "duration": 0.975000023841858,
          "pitch": 35,
          "velocity": 16
        },
        {
          "beat": 0.04374999925494194,
          "duration": 0.9791666865348816,
          "pitch": 36,
          "velocity": 9
        },
        {
          "beat": 1,
          "duration": 0.75,
          "pitch": 34,
          "velocity": 29
        },
        {
          "beat": 1.0083333253860474,
          "duration": 0.75,
          "pitch": 35,
          "velocity": 28
        },
        {
          "beat": 1.0229166746139526,
          "duration": 2,
          "pitch": 36,
          "velocity": 11
        },
        {
          "beat": 1.75,
          "duration": 0.2708333432674408,
          "pitch": 34,
          "velocity": 33
        },
        {
          "beat": 1.7583333253860474,
          "duration": 0.2541666626930237,
          "pitch": 35,
          "velocity": 16
        },
        {
          "beat": 2,
          "duration": 0.25,
          "pitch": 24,
          "velocity": 27
        },
        {
          "beat": 2.012500047683716,
          "duration": 0.24583333730697632,
          "pitch": 35,
          "velocity": 17
        },
        {
          "beat": 2.0208332538604736,
          "duration": 0.2291666716337204,
          "pitch": 34,
          "velocity": 20
        },
        {
          "beat": 2.25,
          "duration": 0.2645833194255829,
          "pitch": 34,
          "velocity": 25
        },
        {
          "beat": 2.258333444595337,
          "duration": 0.75,
          "pitch": 35,
          "velocity": 25
        },
        {
          "beat": 2.5,
          "duration": 1.6166666746139526,
          "pitch": 31,
          "velocity": 16
        },
        {
          "beat": 2.5,
          "duration": 1.6166666746139526,
          "pitch": 32,
          "velocity": 21
        },
        {
          "beat": 2.504166603088379,
          "duration": 1.5104166269302368,
          "pitch": 33,
          "velocity": 21
        },
        {
          "beat": 2.5145833492279053,
          "duration": 0.4854166805744171,
          "pitch": 34,
          "velocity": 23
        },
        {
          "beat": 3,
          "duration": 0.5208333134651184,
          "pitch": 34,
          "velocity": 30
        },
        {
          "beat": 3.008333444595337,
          "duration": 0.506250023841858,
          "pitch": 35,
          "velocity": 32
        },
        {
          "beat": 3.022916555404663,
          "duration": 0.47708332538604736,
          "pitch": 36,
          "velocity": 25
        },
        {
          "beat": 3.5,
          "duration": 0.6166666746139526,
          "pitch": 36,
          "velocity": 17
        },
        {
          "beat": 3.5145833492279053,
          "duration": 0.518750011920929,
          "pitch": 35,
          "velocity": 12
        },
        {
          "beat": 3.5208332538604736,
          "duration": 0.5041666626930237,
          "pitch": 34,
          "velocity": 24
        }
      ],
      "decodedMidiPath": "rhythm_midi_patterns/decoded_pattern_midis/GS_3.mid"
    },
    {
      "code": "GS_30",
      "type": "chord_model_str",
      "subtype": "strings",
      "family": "GuitarS",
      "version": "0.0.0.1",
      "sizePagesOrUnits": 42,
      "crc32": 3638174050,
      "bpm": 120,
      "bnum": 44,
      "noteCount": 9,
      "notes": [
        {
          "beat": 0,
          "duration": 1.4604166746139526,
          "pitch": 31,
          "velocity": 27
        },
        {
          "beat": 1,
          "duration": 0.43958333134651184,
          "pitch": 34,
          "velocity": 39
        },
        {
          "beat": 1.0083333253860474,
          "duration": 0.425000011920929,
          "pitch": 36,
          "velocity": 33
        },
        {
          "beat": 1.0187499523162842,
          "duration": 0.4166666567325592,
          "pitch": 35,
          "velocity": 21
        },
        {
          "beat": 2.5,
          "duration": 0.9833333492279053,
          "pitch": 31,
          "velocity": 21
        },
        {
          "beat": 3,
          "duration": 1.0541666746139526,
          "pitch": 35,
          "velocity": 21
        },
        {
          "beat": 3.004166603088379,
          "duration": 1.0666667222976685,
          "pitch": 34,
          "velocity": 39
        },
        {
          "beat": 3.004166603088379,
          "duration": 1.0916666984558105,
          "pitch": 36,
          "velocity": 33
        },
        {
          "beat": 3.5,
          "duration": 0.5395833253860474,
          "pitch": 31,
          "velocity": 21
        }
      ],
      "decodedMidiPath": "rhythm_midi_patterns/decoded_pattern_midis/GS_30.mid"
    },
    {
      "code": "GS_31",
      "type": "chord_model_str",
      "subtype": "strings",
      "family": "GuitarS",
      "version": "0.0.0.1",
      "sizePagesOrUnits": 39,
      "crc32": 343768481,
      "bpm": 120,
      "bnum": 44,
      "noteCount": 9,
      "notes": [
        {
          "beat": 0,
          "duration": 1.4604166746139526,
          "pitch": 31,
          "velocity": 27
        },
        {
          "beat": 1,
          "duration": 2.4895832538604736,
          "pitch": 34,
          "velocity": 29
        },
        {
          "beat": 1.0083333253860474,
          "duration": 1.9895833730697632,
          "pitch": 36,
          "velocity": 23
        },
        {
          "beat": 1.0187499523162842,
          "duration": 1.975000023841858,
          "pitch": 35,
          "velocity": 21
        },
        {
          "beat": 1.5,
          "duration": 0.9604166746139526,
          "pitch": 31,
          "velocity": 21
        },
        {
          "beat": 2.5,
          "duration": 1.5979167222976685,
          "pitch": 31,
          "velocity": 21
        },
        {
          "beat": 3,
          "duration": 1.0541666746139526,
          "pitch": 35,
          "velocity": 21
        },
        {
          "beat": 3.004166603088379,
          "duration": 1.0916666984558105,
          "pitch": 36,
          "velocity": 33
        },
        {
          "beat": 3.5,
          "duration": 0.5708333253860474,
          "pitch": 34,
          "velocity": 12
        }
      ],
      "decodedMidiPath": "rhythm_midi_patterns/decoded_pattern_midis/GS_31.mid"
    },
    {
      "code": "GS_32",
      "type": "chord_model_str",
      "subtype": "strings",
      "family": "GuitarS",
      "version": "0.0.0.1",
      "sizePagesOrUnits": 34,
      "crc32": 820641667,
      "bpm": 115,
      "bnum": 44,
      "noteCount": 8,
      "notes": [
        {
          "beat": 0,
          "duration": 1.475000023841858,
          "pitch": 31,
          "velocity": 17
        },
        {
          "beat": 0.5,
          "duration": 1.4729167222976685,
          "pitch": 32,
          "velocity": 27
        },
        {
          "beat": 1,
          "duration": 1.4708333015441895,
          "pitch": 33,
          "velocity": 21
        },
        {
          "beat": 1.5,
          "duration": 1.9854166507720947,
          "pitch": 31,
          "velocity": 8
        },
        {
          "beat": 2,
          "duration": 0.9979166388511658,
          "pitch": 32,
          "velocity": 11
        },
        {
          "beat": 2.5,
          "duration": 1.6666666269302368,
          "pitch": 33,
          "velocity": 28
        },
        {
          "beat": 3.00208330154419,
          "duration": 1.1229166984558105,
          "pitch": 32,
          "velocity": 11
        },
        {
          "beat": 3.50208330154419,
          "duration": 0.681249976158142,
          "pitch": 31,
          "velocity": 1
        }
      ],
      "decodedMidiPath": "rhythm_midi_patterns/decoded_pattern_midis/GS_32.mid"
    },
    {
      "code": "GS_4",
      "type": "chord_model_str",
      "subtype": "strings",
      "family": "GuitarS",
      "version": "0.0.0.1",
      "sizePagesOrUnits": 56,
      "crc32": 2804550627,
      "bpm": 80,
      "bnum": 44,
      "noteCount": 11,
      "notes": [
        {
          "beat": 0,
          "duration": 1.0145833492279053,
          "pitch": 31,
          "velocity": 27
        },
        {
          "beat": 0.5,
          "duration": 0.5208333134651184,
          "pitch": 34,
          "velocity": 47
        },
        {
          "beat": 0.506250023841858,
          "duration": 0.5083333253860474,
          "pitch": 36,
          "velocity": 36
        },
        {
          "beat": 0.5166666507720947,
          "duration": 0.5,
          "pitch": 35,
          "velocity": 21
        },
        {
          "beat": 1.5,
          "duration": 1.5,
          "pitch": 31,
          "velocity": 21
        },
        {
          "beat": 1.506250023841858,
          "duration": 0.9708333611488342,
          "pitch": 35,
          "velocity": 21
        },
        {
          "beat": 1.5104166269302368,
          "duration": 0.9520833492279053,
          "pitch": 34,
          "velocity": 39
        },
        {
          "beat": 1.5104166269302368,
          "duration": 0.9645833373069763,
          "pitch": 36,
          "velocity": 36
        },
        {
          "beat": 2.4895832538604736,
          "duration": 0.5104166865348816,
          "pitch": 36,
          "velocity": 20
        },
        {
          "beat": 2.5,
          "duration": 0.47708332538604736,
          "pitch": 35,
          "velocity": 33
        },
        {
          "beat": 2.5166666507720947,
          "duration": 0.4833333194255829,
          "pitch": 34,
          "velocity": 29
        }
      ],
      "decodedMidiPath": "rhythm_midi_patterns/decoded_pattern_midis/GS_4.mid"
    },
    {
      "code": "GS_5",
      "type": "chord_model_str",
      "subtype": "strings",
      "family": "GuitarS",
      "version": "0.0.0.1",
      "sizePagesOrUnits": 65,
      "crc32": 3473029247,
      "bpm": 72,
      "bnum": 44,
      "noteCount": 15,
      "notes": [
        {
          "beat": 0,
          "duration": 0.25,
          "pitch": 24,
          "velocity": 27
        },
        {
          "beat": 0,
          "duration": 1.5,
          "pitch": 31,
          "velocity": 14
        },
        {
          "beat": 0.75,
          "duration": 2.25208330154419,
          "pitch": 33,
          "velocity": 7
        },
        {
          "beat": 0.756250023841858,
          "duration": 0.743749976158142,
          "pitch": 35,
          "velocity": 28
        },
        {
          "beat": 0.762499988079071,
          "duration": 0.737500011920929,
          "pitch": 34,
          "velocity": 29
        },
        {
          "beat": 1.5,
          "duration": 2.53333330154419,
          "pitch": 31,
          "velocity": 1
        },
        {
          "beat": 1.5,
          "duration": 0.75,
          "pitch": 34,
          "velocity": 1
        },
        {
          "beat": 1.5104166269302368,
          "duration": 0.7395833134651184,
          "pitch": 35,
          "velocity": 1
        },
        {
          "beat": 1.5208333730697632,
          "duration": 2.512500047683716,
          "pitch": 36,
          "velocity": 1
        },
        {
          "beat": 2,
          "duration": 0.25,
          "pitch": 24,
          "velocity": 27
        },
        {
          "beat": 2.25,
          "duration": 1.7604166269302368,
          "pitch": 35,
          "velocity": 24
        },
        {
          "beat": 2.2562499046325684,
          "duration": 0.75,
          "pitch": 34,
          "velocity": 24
        },
        {
          "beat": 3,
          "duration": 1.0187499523162842,
          "pitch": 32,
          "velocity": 1
        },
        {
          "beat": 3.00208330154419,
          "duration": 1.0166666507720947,
          "pitch": 33,
          "velocity": 8
        },
        {
          "beat": 3.0062499046325684,
          "duration": 1.0104166269302368,
          "pitch": 34,
          "velocity": 9
        }
      ],
      "decodedMidiPath": "rhythm_midi_patterns/decoded_pattern_midis/GS_5.mid"
    },
    {
      "code": "GS_6",
      "type": "chord_model_str",
      "subtype": "strings",
      "family": "GuitarS",
      "version": "0.0.0.1",
      "sizePagesOrUnits": 135,
      "crc32": 568153141,
      "bpm": 88,
      "bnum": 44,
      "noteCount": 35,
      "notes": [
        {
          "beat": 0,
          "duration": 0.125,
          "pitch": 26,
          "velocity": 100
        },
        {
          "beat": 0,
          "duration": 0.5,
          "pitch": 31,
          "velocity": 30
        },
        {
          "beat": 0.004166666883975267,
          "duration": 0.5,
          "pitch": 32,
          "velocity": 28
        },
        {
          "beat": 0.5,
          "duration": 1.5,
          "pitch": 31,
          "velocity": 30
        },
        {
          "beat": 0.5041666626930237,
          "duration": 1.4958332777023315,
          "pitch": 32,
          "velocity": 28
        },
        {
          "beat": 1,
          "duration": 0.125,
          "pitch": 24,
          "velocity": 100
        },
        {
          "beat": 1,
          "duration": 0.962499976158142,
          "pitch": 33,
          "velocity": 21
        },
        {
          "beat": 1.006250023841858,
          "duration": 0.5,
          "pitch": 34,
          "velocity": 20
        },
        {
          "beat": 1.006250023841858,
          "duration": 0.5041666626930237,
          "pitch": 35,
          "velocity": 17
        },
        {
          "beat": 1.0104166269302368,
          "duration": 0.7395833134651184,
          "pitch": 36,
          "velocity": 11
        },
        {
          "beat": 1.506250023841858,
          "duration": 0.2541666626930237,
          "pitch": 34,
          "velocity": 1
        },
        {
          "beat": 1.5104166269302368,
          "duration": 0.24791666865348816,
          "pitch": 35,
          "velocity": 3
        },
        {
          "beat": 1.75,
          "duration": 0.25,
          "pitch": 36,
          "velocity": 1
        },
        {
          "beat": 1.7583333253860474,
          "duration": 0.21250000596046448,
          "pitch": 35,
          "velocity": 12
        },
        {
          "beat": 1.7604166269302368,
          "duration": 0.20624999701976776,
          "pitch": 34,
          "velocity": 25
        },
        {
          "beat": 2,
          "duration": 0.125,
          "pitch": 26,
          "velocity": 100
        },
        {
          "beat": 2,
          "duration": 0.5,
          "pitch": 31,
          "velocity": 30
        },
        {
          "beat": 2.004166603088379,
          "duration": 0.5,
          "pitch": 32,
          "velocity": 28
        },
        {
          "beat": 2.25,
          "duration": 0.125,
          "pitch": 24,
          "velocity": 100
        },
        {
          "beat": 2.25,
          "duration": 0.756250023841858,
          "pitch": 35,
          "velocity": 1
        },
        {
          "beat": 2.258333444595337,
          "duration": 0.7458333373069763,
          "pitch": 34,
          "velocity": 1
        },
        {
          "beat": 2.2604167461395264,
          "duration": 0.7395833134651184,
          "pitch": 33,
          "velocity": 1
        },
        {
          "beat": 2.5,
          "duration": 0.125,
          "pitch": 26,
          "velocity": 100
        },
        {
          "beat": 2.5,
          "duration": 1.5625,
          "pitch": 31,
          "velocity": 30
        },
        {
          "beat": 2.504166603088379,
          "duration": 1.5583332777023315,
          "pitch": 32,
          "velocity": 28
        },
        {
          "beat": 3,
          "duration": 0.125,
          "pitch": 24,
          "velocity": 100
        },
        {
          "beat": 3,
          "duration": 1.024999976158142,
          "pitch": 33,
          "velocity": 21
        },
        {
          "beat": 3.0062499046325684,
          "duration": 0.5,
          "pitch": 34,
          "velocity": 20
        },
        {
          "beat": 3.0062499046325684,
          "duration": 0.5041666626930237,
          "pitch": 35,
          "velocity": 17
        },
        {
          "beat": 3.0104167461395264,
          "duration": 0.7395833134651184,
          "pitch": 36,
          "velocity": 11
        },
        {
          "beat": 3.5062499046325684,
          "duration": 0.2541666626930237,
          "pitch": 34,
          "velocity": 1
        },
        {
          "beat": 3.5104167461395264,
          "duration": 0.24791666865348816,
          "pitch": 35,
          "velocity": 3
        },
        {
          "beat": 3.75,
          "duration": 0.3125,
          "pitch": 36,
          "velocity": 1
        },
        {
          "beat": 3.758333444595337,
          "duration": 0.2750000059604645,
          "pitch": 35,
          "velocity": 12
        },
        {
          "beat": 3.7604167461395264,
          "duration": 0.268750011920929,
          "pitch": 34,
          "velocity": 25
        }
      ],
      "decodedMidiPath": "rhythm_midi_patterns/decoded_pattern_midis/GS_6.mid"
    },
    {
      "code": "GS_7",
      "type": "chord_model_str",
      "subtype": "strings",
      "family": "GuitarS",
      "version": "0.0.0.1",
      "sizePagesOrUnits": 106,
      "crc32": 3314682622,
      "bpm": 120,
      "bnum": 44,
      "noteCount": 28,
      "notes": [
        {
          "beat": 0,
          "duration": 0.125,
          "pitch": 26,
          "velocity": 100
        },
        {
          "beat": 0,
          "duration": 0.4937500059604645,
          "pitch": 31,
          "velocity": 30
        },
        {
          "beat": 0.004166666883975267,
          "duration": 0.4937500059604645,
          "pitch": 32,
          "velocity": 28
        },
        {
          "beat": 0.5,
          "duration": 0.4937500059604645,
          "pitch": 31,
          "velocity": 30
        },
        {
          "beat": 0.5041666626930237,
          "duration": 0.4937500059604645,
          "pitch": 32,
          "velocity": 28
        },
        {
          "beat": 1,
          "duration": 0.125,
          "pitch": 24,
          "velocity": 100
        },
        {
          "beat": 1,
          "duration": 0.4937500059604645,
          "pitch": 31,
          "velocity": 2
        },
        {
          "beat": 1.0041667222976685,
          "duration": 0.4895833432674408,
          "pitch": 32,
          "velocity": 1
        },
        {
          "beat": 1.0104166269302368,
          "duration": 0.5520833134651184,
          "pitch": 33,
          "velocity": 21
        },
        {
          "beat": 1.0187499523162842,
          "duration": 0.550000011920929,
          "pitch": 34,
          "velocity": 20
        },
        {
          "beat": 1.5,
          "duration": 0.125,
          "pitch": 26,
          "velocity": 100
        },
        {
          "beat": 1.5,
          "duration": 0.4937500059604645,
          "pitch": 31,
          "velocity": 2
        },
        {
          "beat": 1.5041667222976685,
          "duration": 0.4937500059604645,
          "pitch": 32,
          "velocity": 1
        },
        {
          "beat": 2,
          "duration": 0.4937500059604645,
          "pitch": 31,
          "velocity": 30
        },
        {
          "beat": 2.004166603088379,
          "duration": 0.4895833432674408,
          "pitch": 32,
          "velocity": 28
        },
        {
          "beat": 2.5,
          "duration": 0.125,
          "pitch": 24,
          "velocity": 100
        },
        {
          "beat": 2.5,
          "duration": 0.4937500059604645,
          "pitch": 31,
          "velocity": 2
        },
        {
          "beat": 2.50208330154419,
          "duration": 0.49166667461395264,
          "pitch": 32,
          "velocity": 1
        },
        {
          "beat": 2.5062499046325684,
          "duration": 0.524999976158142,
          "pitch": 33,
          "velocity": 21
        },
        {
          "beat": 2.512500047683716,
          "duration": 0.524999976158142,
          "pitch": 34,
          "velocity": 20
        },
        {
          "beat": 3,
          "duration": 0.125,
          "pitch": 26,
          "velocity": 100
        },
        {
          "beat": 3,
          "duration": 0.4937500059604645,
          "pitch": 31,
          "velocity": 30
        },
        {
          "beat": 3.004166603088379,
          "duration": 0.4895833432674408,
          "pitch": 32,
          "velocity": 28
        },
        {
          "beat": 3.5,
          "duration": 0.125,
          "pitch": 24,
          "velocity": 100
        },
        {
          "beat": 3.5,
          "duration": 0.5145833492279053,
          "pitch": 31,
          "velocity": 2
        },
        {
          "beat": 3.50208330154419,
          "duration": 0.512499988079071,
          "pitch": 32,
          "velocity": 1
        },
        {
          "beat": 3.504166603088379,
          "duration": 0.5104166865348816,
          "pitch": 33,
          "velocity": 21
        },
        {
          "beat": 3.508333444595337,
          "duration": 0.506250023841858,
          "pitch": 34,
          "velocity": 20
        }
      ],
      "decodedMidiPath": "rhythm_midi_patterns/decoded_pattern_midis/GS_7.mid"
    },
    {
      "code": "GS_8",
      "type": "chord_model_str",
      "subtype": "strings",
      "family": "GuitarS",
      "version": "0.0.0.0",
      "sizePagesOrUnits": 111,
      "crc32": 2986314273,
      "bpm": 110,
      "bnum": 44,
      "noteCount": 30,
      "notes": [
        {
          "beat": 0,
          "duration": 0.25,
          "pitch": 24,
          "velocity": 100
        },
        {
          "beat": 0.5,
          "duration": 0.25,
          "pitch": 33,
          "velocity": 25
        },
        {
          "beat": 0.5083333253860474,
          "duration": 0.24166665971279144,
          "pitch": 34,
          "velocity": 25
        },
        {
          "beat": 0.518750011920929,
          "duration": 0.23125000298023224,
          "pitch": 35,
          "velocity": 16
        },
        {
          "beat": 0.5291666388511658,
          "duration": 0.24583333730697632,
          "pitch": 36,
          "velocity": 9
        },
        {
          "beat": 1,
          "duration": 0.537500023841858,
          "pitch": 31,
          "velocity": 2
        },
        {
          "beat": 1.0083333253860474,
          "duration": 0.49166667461395264,
          "pitch": 32,
          "velocity": 1
        },
        {
          "beat": 1.0145833492279053,
          "duration": 0.4854166805744171,
          "pitch": 33,
          "velocity": 6
        },
        {
          "beat": 1.0229166746139526,
          "duration": 0.47708332538604736,
          "pitch": 34,
          "velocity": 6
        },
        {
          "beat": 1.0333333015441895,
          "duration": 0.46666666865348816,
          "pitch": 35,
          "velocity": 16
        },
        {
          "beat": 1.0437500476837158,
          "duration": 0.4937500059604645,
          "pitch": 36,
          "velocity": 9
        },
        {
          "beat": 2,
          "duration": 0.25,
          "pitch": 24,
          "velocity": 100
        },
        {
          "beat": 2,
          "duration": 0.9895833134651184,
          "pitch": 31,
          "velocity": 6
        },
        {
          "beat": 2.008333444595337,
          "duration": 1.0041667222976685,
          "pitch": 32,
          "velocity": 4
        },
        {
          "beat": 2.0145833492279053,
          "duration": 0.9979166388511658,
          "pitch": 33,
          "velocity": 25
        },
        {
          "beat": 2.022916555404663,
          "duration": 0.7416666746139526,
          "pitch": 34,
          "velocity": 25
        },
        {
          "beat": 2.03333330154419,
          "duration": 0.7270833253860474,
          "pitch": 35,
          "velocity": 16
        },
        {
          "beat": 2.043750047683716,
          "duration": 0.706250011920929,
          "pitch": 36,
          "velocity": 9
        },
        {
          "beat": 2.75,
          "duration": 0.25,
          "pitch": 36,
          "velocity": 17
        },
        {
          "beat": 2.7645833492279053,
          "duration": 0.2562499940395355,
          "pitch": 35,
          "velocity": 12
        },
        {
          "beat": 2.7708332538604736,
          "duration": 0.24166665971279144,
          "pitch": 34,
          "velocity": 24
        },
        {
          "beat": 3.5,
          "duration": 0.5666666626930237,
          "pitch": 31,
          "velocity": 21
        },
        {
          "beat": 3.508333444595337,
          "duration": 0.5229166746139526,
          "pitch": 32,
          "velocity": 19
        },
        {
          "beat": 3.5145833492279053,
          "duration": 0.5166666507720947,
          "pitch": 33,
          "velocity": 25
        },
        {
          "beat": 3.522916555404663,
          "duration": 0.22083333134651184,
          "pitch": 34,
          "velocity": 25
        },
        {
          "beat": 3.53333330154419,
          "duration": 0.2083333283662796,
          "pitch": 35,
          "velocity": 16
        },
        {
          "beat": 3.543750047683716,
          "duration": 0.18333333730697632,
          "pitch": 36,
          "velocity": 9
        },
        {
          "beat": 3.7291667461395264,
          "duration": 0.34166666865348816,
          "pitch": 36,
          "velocity": 17
        },
        {
          "beat": 3.7437500953674316,
          "duration": 0.2750000059604645,
          "pitch": 35,
          "velocity": 12
        },
        {
          "beat": 3.75,
          "duration": 0.2604166567325592,
          "pitch": 34,
          "velocity": 24
        }
      ],
      "decodedMidiPath": "rhythm_midi_patterns/decoded_pattern_midis/GS_8.mid"
    },
    {
      "code": "GS_9",
      "type": "chord_model_str",
      "subtype": "strings",
      "family": "GuitarS",
      "version": "0.0.0.0",
      "sizePagesOrUnits": 116,
      "crc32": 773055045,
      "bpm": 75,
      "bnum": 44,
      "noteCount": 30,
      "notes": [
        {
          "beat": 0,
          "duration": 0.25,
          "pitch": 24,
          "velocity": 100
        },
        {
          "beat": 0,
          "duration": 2,
          "pitch": 31,
          "velocity": 21
        },
        {
          "beat": 0.008333333767950535,
          "duration": 1.9916666746139526,
          "pitch": 32,
          "velocity": 1
        },
        {
          "beat": 0.5,
          "duration": 1.3520833253860474,
          "pitch": 33,
          "velocity": 25
        },
        {
          "beat": 0.5083333253860474,
          "duration": 0.8166666626930237,
          "pitch": 34,
          "velocity": 25
        },
        {
          "beat": 0.518750011920929,
          "duration": 0.8020833134651184,
          "pitch": 35,
          "velocity": 16
        },
        {
          "beat": 0.5291666388511658,
          "duration": 0.9791666865348816,
          "pitch": 36,
          "velocity": 9
        },
        {
          "beat": 1.3208333253860474,
          "duration": 0.1875,
          "pitch": 35,
          "velocity": 7
        },
        {
          "beat": 1.3250000476837158,
          "duration": 0.17291666567325592,
          "pitch": 34,
          "velocity": 10
        },
        {
          "beat": 1.5,
          "duration": 0.34166666865348816,
          "pitch": 34,
          "velocity": 25
        },
        {
          "beat": 1.5083333253860474,
          "duration": 0.3270833194255829,
          "pitch": 35,
          "velocity": 25
        },
        {
          "beat": 1.5125000476837158,
          "duration": 1.0125000476837158,
          "pitch": 36,
          "velocity": 1
        },
        {
          "beat": 1.8395832777023315,
          "duration": 0.6770833134651184,
          "pitch": 35,
          "velocity": 12
        },
        {
          "beat": 1.8458333015441895,
          "duration": 0.6604166626930237,
          "pitch": 34,
          "velocity": 24
        },
        {
          "beat": 1.8520833253860474,
          "duration": 0.6458333134651184,
          "pitch": 33,
          "velocity": 12
        },
        {
          "beat": 2,
          "duration": 0.25,
          "pitch": 24,
          "velocity": 100
        },
        {
          "beat": 2,
          "duration": 2.039583444595337,
          "pitch": 31,
          "velocity": 16
        },
        {
          "beat": 2,
          "duration": 2.0104167461395264,
          "pitch": 32,
          "velocity": 1
        },
        {
          "beat": 2.5,
          "duration": 1,
          "pitch": 33,
          "velocity": 12
        },
        {
          "beat": 2.508333444595337,
          "duration": 0.8166666626930237,
          "pitch": 34,
          "velocity": 12
        },
        {
          "beat": 2.518749952316284,
          "duration": 0.8020833134651184,
          "pitch": 35,
          "velocity": 16
        },
        {
          "beat": 2.52916669845581,
          "duration": 1.5125000476837158,
          "pitch": 36,
          "velocity": 4
        },
        {
          "beat": 3.320833444595337,
          "duration": 0.18958333134651184,
          "pitch": 35,
          "velocity": 7
        },
        {
          "beat": 3.325000047683716,
          "duration": 0.17916665971279144,
          "pitch": 34,
          "velocity": 10
        },
        {
          "beat": 3.5,
          "duration": 0.35208332538604736,
          "pitch": 33,
          "velocity": 25
        },
        {
          "beat": 3.5062499046325684,
          "duration": 0.33541667461395264,
          "pitch": 34,
          "velocity": 25
        },
        {
          "beat": 3.512500047683716,
          "duration": 0.3229166567325592,
          "pitch": 35,
          "velocity": 25
        },
        {
          "beat": 3.839583396911621,
          "duration": 0.17499999701976776,
          "pitch": 35,
          "velocity": 12
        },
        {
          "beat": 3.84583330154419,
          "duration": 0.17291666567325592,
          "pitch": 34,
          "velocity": 24
        },
        {
          "beat": 3.852083444595337,
          "duration": 0.15833333134651184,
          "pitch": 33,
          "velocity": 12
        }
      ],
      "decodedMidiPath": "rhythm_midi_patterns/decoded_pattern_midis/GS_9.mid"
    },
    {
      "code": "JAZZ_Mute_1",
      "type": "dmachine_model",
      "subtype": "proller",
      "family": "Drum",
      "version": "1.0.0.1",
      "sizePagesOrUnits": 18,
      "crc32": 1109104183,
      "bpm": 80,
      "bnum": 44,
      "noteCount": 23,
      "notes": [
        {
          "beat": 0,
          "duration": 0.03125,
          "pitch": 24,
          "velocity": 30
        },
        {
          "beat": 0,
          "duration": 0.03125,
          "pitch": 26,
          "velocity": 23
        },
        {
          "beat": 0.331250011920929,
          "duration": 0.03125,
          "pitch": 26,
          "velocity": 12
        },
        {
          "beat": 0.49791666865348816,
          "duration": 0.03125,
          "pitch": 28,
          "velocity": 51
        },
        {
          "beat": 0.5041666626930237,
          "duration": 0.03125,
          "pitch": 32,
          "velocity": 80
        },
        {
          "beat": 0.824999988079071,
          "duration": 0.03125,
          "pitch": 28,
          "velocity": 54
        },
        {
          "beat": 1.0083333253860474,
          "duration": 0.03125,
          "pitch": 24,
          "velocity": 20
        },
        {
          "beat": 1.3312499523162842,
          "duration": 0.03125,
          "pitch": 28,
          "velocity": 40
        },
        {
          "beat": 1.4979166984558105,
          "duration": 0.03125,
          "pitch": 32,
          "velocity": 43
        },
        {
          "beat": 1.6708333492279053,
          "duration": 0.03125,
          "pitch": 26,
          "velocity": 6
        },
        {
          "beat": 1.8354166746139526,
          "duration": 0.03125,
          "pitch": 26,
          "velocity": 16
        },
        {
          "beat": 1.993749976158142,
          "duration": 0.03125,
          "pitch": 26,
          "velocity": 54
        },
        {
          "beat": 1.9958332777023315,
          "duration": 0.03125,
          "pitch": 24,
          "velocity": 20
        },
        {
          "beat": 2.3270833492279053,
          "duration": 0.03125,
          "pitch": 26,
          "velocity": 5
        },
        {
          "beat": 2.4937500953674316,
          "duration": 0.03125,
          "pitch": 32,
          "velocity": 85
        },
        {
          "beat": 2.839583396911621,
          "duration": 0.03125,
          "pitch": 26,
          "velocity": 12
        },
        {
          "beat": 3,
          "duration": 0.03125,
          "pitch": 26,
          "velocity": 33
        },
        {
          "beat": 3.0062499046325684,
          "duration": 0.03125,
          "pitch": 24,
          "velocity": 29
        },
        {
          "beat": 3.3291666507720947,
          "duration": 0.03125,
          "pitch": 26,
          "velocity": 10
        },
        {
          "beat": 3.495833396911621,
          "duration": 0.03125,
          "pitch": 28,
          "velocity": 51
        },
        {
          "beat": 3.5,
          "duration": 0.03125,
          "pitch": 32,
          "velocity": 59
        },
        {
          "beat": 3.8375000953674316,
          "duration": 0.03125,
          "pitch": 28,
          "velocity": 59
        },
        {
          "beat": 3.99791669845581,
          "duration": 0.03125,
          "pitch": 24,
          "velocity": 30
        }
      ],
      "decodedMidiPath": "rhythm_midi_patterns/decoded_pattern_midis/JAZZ_Mute_1.mid"
    },
    {
      "code": "JAZZ_Mute_2",
      "type": "dmachine_model",
      "subtype": "proller",
      "family": "Drum",
      "version": "1.0.0.1",
      "sizePagesOrUnits": 17,
      "crc32": 1540541530,
      "bpm": 65,
      "bnum": 44,
      "noteCount": 15,
      "notes": [
        {
          "beat": 0,
          "duration": 0.2083333283662796,
          "pitch": 24,
          "velocity": 45
        },
        {
          "beat": 0.5,
          "duration": 0.2645833194255829,
          "pitch": 25,
          "velocity": 59
        },
        {
          "beat": 0.75,
          "duration": 0.2083333283662796,
          "pitch": 24,
          "velocity": 45
        },
        {
          "beat": 1,
          "duration": 0.2083333283662796,
          "pitch": 24,
          "velocity": 29
        },
        {
          "beat": 1.25,
          "duration": 0.23125000298023224,
          "pitch": 25,
          "velocity": 54
        },
        {
          "beat": 1.5,
          "duration": 0.2083333283662796,
          "pitch": 32,
          "velocity": 55
        },
        {
          "beat": 1.75,
          "duration": 0.2083333283662796,
          "pitch": 24,
          "velocity": 45
        },
        {
          "beat": 1.75,
          "duration": 0.1875,
          "pitch": 25,
          "velocity": 17
        },
        {
          "beat": 2,
          "duration": 0.2083333283662796,
          "pitch": 24,
          "velocity": 29
        },
        {
          "beat": 2.5,
          "duration": 0.21875,
          "pitch": 25,
          "velocity": 50
        },
        {
          "beat": 2.75,
          "duration": 0.2083333283662796,
          "pitch": 24,
          "velocity": 45
        },
        {
          "beat": 3.25,
          "duration": 0.24166665971279144,
          "pitch": 25,
          "velocity": 50
        },
        {
          "beat": 3.25,
          "duration": 0.2083333283662796,
          "pitch": 32,
          "velocity": 55
        },
        {
          "beat": 3.75,
          "duration": 0.2083333283662796,
          "pitch": 24,
          "velocity": 29
        },
        {
          "beat": 3.75,
          "duration": 0.2083333283662796,
          "pitch": 25,
          "velocity": 6
        }
      ],
      "decodedMidiPath": "rhythm_midi_patterns/decoded_pattern_midis/JAZZ_Mute_2.mid"
    },
    {
      "code": "Jazz_Mute_10",
      "type": "dmachine_model",
      "subtype": "proller",
      "family": "Drum",
      "version": "0.0.0.0",
      "sizePagesOrUnits": 14,
      "crc32": 4005454492,
      "bpm": 100,
      "bnum": 44,
      "noteCount": 13,
      "notes": [
        {
          "beat": 0,
          "duration": 0.6666666865348816,
          "pitch": 24,
          "velocity": 103
        },
        {
          "beat": 0.6666666865348816,
          "duration": 0.18541666865348816,
          "pitch": 37,
          "velocity": 23
        },
        {
          "beat": 1,
          "duration": 0.6666666865348816,
          "pitch": 26,
          "velocity": 79
        },
        {
          "beat": 1,
          "duration": 0.28958332538604736,
          "pitch": 37,
          "velocity": 34
        },
        {
          "beat": 1.6666666269302368,
          "duration": 0.3333333432674408,
          "pitch": 24,
          "velocity": 40
        },
        {
          "beat": 1.6666666269302368,
          "duration": 0.1979166716337204,
          "pitch": 37,
          "velocity": 23
        },
        {
          "beat": 2,
          "duration": 0.7916666865348816,
          "pitch": 24,
          "velocity": 98
        },
        {
          "beat": 2,
          "duration": 0.28958332538604736,
          "pitch": 37,
          "velocity": 34
        },
        {
          "beat": 2.6666667461395264,
          "duration": 0.1979166716337204,
          "pitch": 37,
          "velocity": 23
        },
        {
          "beat": 3,
          "duration": 0.6666666865348816,
          "pitch": 26,
          "velocity": 78
        },
        {
          "beat": 3,
          "duration": 0.28958332538604736,
          "pitch": 37,
          "velocity": 34
        },
        {
          "beat": 3.6666667461395264,
          "duration": 0.3333333432674408,
          "pitch": 24,
          "velocity": 30
        },
        {
          "beat": 3.6666667461395264,
          "duration": 0.1979166716337204,
          "pitch": 37,
          "velocity": 23
        }
      ],
      "decodedMidiPath": "rhythm_midi_patterns/decoded_pattern_midis/Jazz_Mute_10.mid"
    },
    {
      "code": "Jazz_Mute_3",
      "type": "dmachine_model",
      "subtype": "proller",
      "family": "Drum",
      "version": "0.0.0.0",
      "sizePagesOrUnits": 13,
      "crc32": 1798560418,
      "bpm": 85,
      "bnum": 44,
      "noteCount": 8,
      "notes": [
        {
          "beat": 0,
          "duration": 0.762499988079071,
          "pitch": 24,
          "velocity": 92
        },
        {
          "beat": 0,
          "duration": 1.125,
          "pitch": 41,
          "velocity": 89
        },
        {
          "beat": 1,
          "duration": 0.6979166865348816,
          "pitch": 26,
          "velocity": 76
        },
        {
          "beat": 1,
          "duration": 0.7270833253860474,
          "pitch": 30,
          "velocity": 71
        },
        {
          "beat": 2,
          "duration": 0.675000011920929,
          "pitch": 24,
          "velocity": 95
        },
        {
          "beat": 2,
          "duration": 0.293749988079071,
          "pitch": 30,
          "velocity": 46
        },
        {
          "beat": 3,
          "duration": 0.6479166746139526,
          "pitch": 26,
          "velocity": 73
        },
        {
          "beat": 3,
          "duration": 0.693750023841858,
          "pitch": 30,
          "velocity": 77
        }
      ],
      "decodedMidiPath": "rhythm_midi_patterns/decoded_pattern_midis/Jazz_Mute_3.mid"
    },
    {
      "code": "Jazz_Mute_4",
      "type": "dmachine_model",
      "subtype": "proller",
      "family": "Drum",
      "version": "0.0.0.0",
      "sizePagesOrUnits": 14,
      "crc32": 3133333355,
      "bpm": 85,
      "bnum": 44,
      "noteCount": 12,
      "notes": [
        {
          "beat": 0,
          "duration": 0.762499988079071,
          "pitch": 24,
          "velocity": 92
        },
        {
          "beat": 0,
          "duration": 1.125,
          "pitch": 41,
          "velocity": 89
        },
        {
          "beat": 0.5,
          "duration": 0.24791666865348816,
          "pitch": 30,
          "velocity": 49
        },
        {
          "beat": 1,
          "duration": 0.6979166865348816,
          "pitch": 26,
          "velocity": 78
        },
        {
          "beat": 1,
          "duration": 0.34166666865348816,
          "pitch": 30,
          "velocity": 82
        },
        {
          "beat": 1.5,
          "duration": 0.3083333373069763,
          "pitch": 30,
          "velocity": 41
        },
        {
          "beat": 2,
          "duration": 0.675000011920929,
          "pitch": 24,
          "velocity": 95
        },
        {
          "beat": 2,
          "duration": 0.4166666567325592,
          "pitch": 30,
          "velocity": 74
        },
        {
          "beat": 2.5,
          "duration": 0.24791666865348816,
          "pitch": 30,
          "velocity": 49
        },
        {
          "beat": 3,
          "duration": 0.6479166746139526,
          "pitch": 26,
          "velocity": 75
        },
        {
          "beat": 3,
          "duration": 0.34375,
          "pitch": 30,
          "velocity": 75
        },
        {
          "beat": 3.5,
          "duration": 0.3083333373069763,
          "pitch": 30,
          "velocity": 41
        }
      ],
      "decodedMidiPath": "rhythm_midi_patterns/decoded_pattern_midis/Jazz_Mute_4.mid"
    },
    {
      "code": "Jazz_Mute_5",
      "type": "dmachine_model",
      "subtype": "proller",
      "family": "Drum",
      "version": "0.0.0.0",
      "sizePagesOrUnits": 16,
      "crc32": 2505514290,
      "bpm": 85,
      "bnum": 44,
      "noteCount": 20,
      "notes": [
        {
          "beat": 0,
          "duration": 0.762499988079071,
          "pitch": 24,
          "velocity": 92
        },
        {
          "beat": 0,
          "duration": 1.125,
          "pitch": 41,
          "velocity": 89
        },
        {
          "beat": 0.25,
          "duration": 0.18125000596046448,
          "pitch": 30,
          "velocity": 40
        },
        {
          "beat": 0.5,
          "duration": 0.18125000596046448,
          "pitch": 30,
          "velocity": 40
        },
        {
          "beat": 0.75,
          "duration": 0.15208333730697632,
          "pitch": 30,
          "velocity": 33
        },
        {
          "beat": 1,
          "duration": 0.6979166865348816,
          "pitch": 26,
          "velocity": 78
        },
        {
          "beat": 1,
          "duration": 0.21666666865348816,
          "pitch": 30,
          "velocity": 68
        },
        {
          "beat": 1.25,
          "duration": 0.18125000596046448,
          "pitch": 30,
          "velocity": 40
        },
        {
          "beat": 1.5,
          "duration": 0.23333333432674408,
          "pitch": 30,
          "velocity": 33
        },
        {
          "beat": 1.75,
          "duration": 0.18125000596046448,
          "pitch": 30,
          "velocity": 57
        },
        {
          "beat": 2,
          "duration": 0.675000011920929,
          "pitch": 24,
          "velocity": 95
        },
        {
          "beat": 2,
          "duration": 0.21666666865348816,
          "pitch": 30,
          "velocity": 41
        },
        {
          "beat": 2.25,
          "duration": 0.18125000596046448,
          "pitch": 30,
          "velocity": 56
        },
        {
          "beat": 2.5,
          "duration": 0.23333333432674408,
          "pitch": 30,
          "velocity": 33
        },
        {
          "beat": 2.75,
          "duration": 0.18125000596046448,
          "pitch": 30,
          "velocity": 40
        },
        {
          "beat": 3,
          "duration": 0.6479166746139526,
          "pitch": 26,
          "velocity": 75
        },
        {
          "beat": 3,
          "duration": 0.1979166716337204,
          "pitch": 30,
          "velocity": 61
        },
        {
          "beat": 3.25,
          "duration": 0.23333333432674408,
          "pitch": 30,
          "velocity": 33
        },
        {
          "beat": 3.5,
          "duration": 0.21458333730697632,
          "pitch": 30,
          "velocity": 52
        },
        {
          "beat": 3.75,
          "duration": 0.19583334028720856,
          "pitch": 30,
          "velocity": 29
        }
      ],
      "decodedMidiPath": "rhythm_midi_patterns/decoded_pattern_midis/Jazz_Mute_5.mid"
    },
    {
      "code": "Jazz_Mute_6",
      "type": "dmachine_model",
      "subtype": "proller",
      "family": "Drum",
      "version": "0.0.0.0",
      "sizePagesOrUnits": 11,
      "crc32": 1064074229,
      "bpm": 115,
      "bnum": 43,
      "noteCount": 8,
      "notes": [
        {
          "beat": 0,
          "duration": 0.837499976158142,
          "pitch": 24,
          "velocity": 100
        },
        {
          "beat": 0,
          "duration": 0.25,
          "pitch": 32,
          "velocity": 1
        },
        {
          "beat": 0,
          "duration": 0.912500023841858,
          "pitch": 41,
          "velocity": 61
        },
        {
          "beat": 1,
          "duration": 0.4583333432674408,
          "pitch": 30,
          "velocity": 46
        },
        {
          "beat": 2,
          "duration": 0.5333333611488342,
          "pitch": 26,
          "velocity": 75
        },
        {
          "beat": 2,
          "duration": 0.5104166865348816,
          "pitch": 30,
          "velocity": 58
        },
        {
          "beat": 3,
          "duration": 0.8729166388511658,
          "pitch": 24,
          "velocity": 106
        },
        {
          "beat": 3,
          "duration": 0.40416666865348816,
          "pitch": 30,
          "velocity": 41
        }
      ],
      "decodedMidiPath": "rhythm_midi_patterns/decoded_pattern_midis/Jazz_Mute_6.mid"
    },
    {
      "code": "Jazz_Mute_7",
      "type": "dmachine_model",
      "subtype": "proller",
      "family": "Drum",
      "version": "0.0.0.0",
      "sizePagesOrUnits": 12,
      "crc32": 3905154948,
      "bpm": 86,
      "bnum": 86,
      "noteCount": 4,
      "notes": [
        {
          "beat": 0,
          "duration": 1.5,
          "pitch": 24,
          "velocity": 103
        },
        {
          "beat": 1.5,
          "duration": 1,
          "pitch": 26,
          "velocity": 76
        },
        {
          "beat": 2.5,
          "duration": 0.5,
          "pitch": 24,
          "velocity": 98
        },
        {
          "beat": 3,
          "duration": 1.5,
          "pitch": 24,
          "velocity": 110
        }
      ],
      "decodedMidiPath": "rhythm_midi_patterns/decoded_pattern_midis/Jazz_Mute_7.mid"
    },
    {
      "code": "Jazz_Mute_8",
      "type": "dmachine_model",
      "subtype": "proller",
      "family": "Drum",
      "version": "0.0.0.0",
      "sizePagesOrUnits": 12,
      "crc32": 3362633601,
      "bpm": 115,
      "bnum": 43,
      "noteCount": 9,
      "notes": [
        {
          "beat": 0,
          "duration": 0.837499976158142,
          "pitch": 24,
          "velocity": 100
        },
        {
          "beat": 0,
          "duration": 0.25,
          "pitch": 32,
          "velocity": 1
        },
        {
          "beat": 0,
          "duration": 0.912500023841858,
          "pitch": 41,
          "velocity": 61
        },
        {
          "beat": 1,
          "duration": 0.5333333611488342,
          "pitch": 26,
          "velocity": 66
        },
        {
          "beat": 1,
          "duration": 0.4583333432674408,
          "pitch": 30,
          "velocity": 50
        },
        {
          "beat": 2,
          "duration": 0.5333333611488342,
          "pitch": 26,
          "velocity": 79
        },
        {
          "beat": 2,
          "duration": 0.5104166865348816,
          "pitch": 30,
          "velocity": 62
        },
        {
          "beat": 3,
          "duration": 0.8729166388511658,
          "pitch": 24,
          "velocity": 106
        },
        {
          "beat": 3,
          "duration": 0.40416666865348816,
          "pitch": 30,
          "velocity": 45
        }
      ],
      "decodedMidiPath": "rhythm_midi_patterns/decoded_pattern_midis/Jazz_Mute_8.mid"
    },
    {
      "code": "Jazz_Mute_9",
      "type": "dmachine_model",
      "subtype": "proller",
      "family": "Drum",
      "version": "0.0.0.0",
      "sizePagesOrUnits": 12,
      "crc32": 3163931712,
      "bpm": 86,
      "bnum": 86,
      "noteCount": 10,
      "notes": [
        {
          "beat": 0,
          "duration": 1.5,
          "pitch": 24,
          "velocity": 103
        },
        {
          "beat": 0.5,
          "duration": 0.375,
          "pitch": 30,
          "velocity": 41
        },
        {
          "beat": 1,
          "duration": 0.375,
          "pitch": 30,
          "velocity": 21
        },
        {
          "beat": 1.5,
          "duration": 1,
          "pitch": 26,
          "velocity": 74
        },
        {
          "beat": 1.5,
          "duration": 0.375,
          "pitch": 30,
          "velocity": 41
        },
        {
          "beat": 2,
          "duration": 0.375,
          "pitch": 30,
          "velocity": 21
        },
        {
          "beat": 2.5,
          "duration": 0.375,
          "pitch": 30,
          "velocity": 41
        },
        {
          "beat": 3,
          "duration": 1.5,
          "pitch": 24,
          "velocity": 110
        },
        {
          "beat": 3,
          "duration": 0.375,
          "pitch": 30,
          "velocity": 21
        },
        {
          "beat": 3.5,
          "duration": 0.375,
          "pitch": 30,
          "velocity": 41
        }
      ],
      "decodedMidiPath": "rhythm_midi_patterns/decoded_pattern_midis/Jazz_Mute_9.mid"
    },
    {
      "code": "METAL_Fender_1",
      "type": "dmachine_model",
      "subtype": "proller",
      "family": "Drum",
      "version": "0.0.0.0",
      "sizePagesOrUnits": 13,
      "crc32": 2956809486,
      "bpm": 120,
      "bnum": 44,
      "noteCount": 15,
      "notes": [
        {
          "beat": 0,
          "duration": 0.5354166626930237,
          "pitch": 24,
          "velocity": 127
        },
        {
          "beat": 0,
          "duration": 0.5354166626930237,
          "pitch": 41,
          "velocity": 127
        },
        {
          "beat": 1,
          "duration": 0.600000023841858,
          "pitch": 24,
          "velocity": 127
        },
        {
          "beat": 1,
          "duration": 0.600000023841858,
          "pitch": 29,
          "velocity": 127
        },
        {
          "beat": 1,
          "duration": 0.5354166626930237,
          "pitch": 45,
          "velocity": 127
        },
        {
          "beat": 1.75,
          "duration": 0.18541666865348816,
          "pitch": 24,
          "velocity": 39
        },
        {
          "beat": 2,
          "duration": 0.2708333432674408,
          "pitch": 24,
          "velocity": 127
        },
        {
          "beat": 2,
          "duration": 0.4166666567325592,
          "pitch": 34,
          "velocity": 127
        },
        {
          "beat": 2.25,
          "duration": 0.4166666567325592,
          "pitch": 26,
          "velocity": 57
        },
        {
          "beat": 2.5,
          "duration": 0.18541666865348816,
          "pitch": 24,
          "velocity": 39
        },
        {
          "beat": 2.5,
          "duration": 0.600000023841858,
          "pitch": 31,
          "velocity": 127
        },
        {
          "beat": 3,
          "duration": 0.6854166388511658,
          "pitch": 24,
          "velocity": 127
        },
        {
          "beat": 3,
          "duration": 0.46041667461395264,
          "pitch": 28,
          "velocity": 127
        },
        {
          "beat": 3,
          "duration": 0.5354166626930237,
          "pitch": 34,
          "velocity": 127
        },
        {
          "beat": 3.5,
          "duration": 0.004166666883975267,
          "pitch": 24,
          "velocity": 89
        }
      ],
      "decodedMidiPath": "rhythm_midi_patterns/decoded_pattern_midis/METAL_Fender_1.mid"
    },
    {
      "code": "METAL_Fender_2",
      "type": "dmachine_model",
      "subtype": "proller",
      "family": "Drum",
      "version": "0.0.0.0",
      "sizePagesOrUnits": 17,
      "crc32": 1969231344,
      "bpm": 80,
      "bnum": 44,
      "noteCount": 21,
      "notes": [
        {
          "beat": 0,
          "duration": 0.5,
          "pitch": 24,
          "velocity": 127
        },
        {
          "beat": 0,
          "duration": 0.11874999850988388,
          "pitch": 45,
          "velocity": 127
        },
        {
          "beat": 0.5,
          "duration": 0.1145833358168602,
          "pitch": 39,
          "velocity": 59
        },
        {
          "beat": 0.75,
          "duration": 0.25,
          "pitch": 24,
          "velocity": 127
        },
        {
          "beat": 1,
          "duration": 0.25,
          "pitch": 29,
          "velocity": 127
        },
        {
          "beat": 1,
          "duration": 0.1145833358168602,
          "pitch": 34,
          "velocity": 59
        },
        {
          "beat": 1.25,
          "duration": 0.12083332985639572,
          "pitch": 24,
          "velocity": 127
        },
        {
          "beat": 1.5,
          "duration": 0.12083332985639572,
          "pitch": 24,
          "velocity": 127
        },
        {
          "beat": 1.5,
          "duration": 0.1145833358168602,
          "pitch": 39,
          "velocity": 38
        },
        {
          "beat": 2,
          "duration": 0.1145833358168602,
          "pitch": 34,
          "velocity": 59
        },
        {
          "beat": 2.25,
          "duration": 0.12083332985639572,
          "pitch": 29,
          "velocity": 127
        },
        {
          "beat": 2.5,
          "duration": 0.12083332985639572,
          "pitch": 24,
          "velocity": 127
        },
        {
          "beat": 2.5,
          "duration": 0.1145833358168602,
          "pitch": 39,
          "velocity": 38
        },
        {
          "beat": 2.75,
          "duration": 0.12083332985639572,
          "pitch": 24,
          "velocity": 127
        },
        {
          "beat": 3,
          "duration": 0.12083332985639572,
          "pitch": 29,
          "velocity": 127
        },
        {
          "beat": 3,
          "duration": 0.1145833358168602,
          "pitch": 34,
          "velocity": 59
        },
        {
          "beat": 3.25,
          "duration": 0.12083332985639572,
          "pitch": 24,
          "velocity": 127
        },
        {
          "beat": 3.4833333492279053,
          "duration": 0.11874999850988388,
          "pitch": 28,
          "velocity": 127
        },
        {
          "beat": 3.5,
          "duration": 0.1145833358168602,
          "pitch": 39,
          "velocity": 38
        },
        {
          "beat": 3.75,
          "duration": 0.11874999850988388,
          "pitch": 28,
          "velocity": 127
        },
        {
          "beat": 3.879166603088379,
          "duration": 0.11874999850988388,
          "pitch": 29,
          "velocity": 127
        }
      ],
      "decodedMidiPath": "rhythm_midi_patterns/decoded_pattern_midis/METAL_Fender_2.mid"
    },
    {
      "code": "Metal_Chapman_10",
      "type": "dmachine_model",
      "subtype": "proller",
      "family": "Drum",
      "version": "0.0.0.0",
      "sizePagesOrUnits": 12,
      "crc32": 2613251666,
      "bpm": 130,
      "bnum": 44,
      "noteCount": 7,
      "notes": [
        {
          "beat": 0,
          "duration": 1.3333333730697632,
          "pitch": 24,
          "velocity": 127
        },
        {
          "beat": 0,
          "duration": 1,
          "pitch": 43,
          "velocity": 101
        },
        {
          "beat": 0,
          "duration": 1,
          "pitch": 45,
          "velocity": 101
        },
        {
          "beat": 1,
          "duration": 1,
          "pitch": 41,
          "velocity": 38
        },
        {
          "beat": 2,
          "duration": 1,
          "pitch": 29,
          "velocity": 127
        },
        {
          "beat": 2,
          "duration": 0.9583333134651184,
          "pitch": 41,
          "velocity": 32
        },
        {
          "beat": 3,
          "duration": 1,
          "pitch": 41,
          "velocity": 32
        }
      ],
      "decodedMidiPath": "rhythm_midi_patterns/decoded_pattern_midis/Metal_Chapman_10.mid"
    },
    {
      "code": "Metal_Chapman_11",
      "type": "dmachine_model",
      "subtype": "proller",
      "family": "Drum",
      "version": "0.0.0.0",
      "sizePagesOrUnits": 14,
      "crc32": 2405646904,
      "bpm": 150,
      "bnum": 44,
      "noteCount": 10,
      "notes": [
        {
          "beat": 0,
          "duration": 1,
          "pitch": 24,
          "velocity": 127
        },
        {
          "beat": 0,
          "duration": 1,
          "pitch": 41,
          "velocity": 120
        },
        {
          "beat": 0,
          "duration": 1,
          "pitch": 43,
          "velocity": 120
        },
        {
          "beat": 1,
          "duration": 0.9604166746139526,
          "pitch": 29,
          "velocity": 127
        },
        {
          "beat": 1,
          "duration": 0.3395833373069763,
          "pitch": 34,
          "velocity": 127
        },
        {
          "beat": 2,
          "duration": 0.25,
          "pitch": 24,
          "velocity": 127
        },
        {
          "beat": 2,
          "duration": 0.3604166805744171,
          "pitch": 34,
          "velocity": 119
        },
        {
          "beat": 2.5,
          "duration": 0.5,
          "pitch": 24,
          "velocity": 127
        },
        {
          "beat": 3,
          "duration": 1,
          "pitch": 29,
          "velocity": 125
        },
        {
          "beat": 3,
          "duration": 0.2874999940395355,
          "pitch": 34,
          "velocity": 126
        }
      ],
      "decodedMidiPath": "rhythm_midi_patterns/decoded_pattern_midis/Metal_Chapman_11.mid"
    },
    {
      "code": "Metal_Chapman_12",
      "type": "dmachine_model",
      "subtype": "proller",
      "family": "Drum",
      "version": "0.0.0.0",
      "sizePagesOrUnits": 14,
      "crc32": 3238928152,
      "bpm": 130,
      "bnum": 44,
      "noteCount": 14,
      "notes": [
        {
          "beat": 0,
          "duration": 0.675000011920929,
          "pitch": 24,
          "velocity": 127
        },
        {
          "beat": 0,
          "duration": 0.625,
          "pitch": 41,
          "velocity": 120
        },
        {
          "beat": 0,
          "duration": 0.625,
          "pitch": 43,
          "velocity": 120
        },
        {
          "beat": 0.75,
          "duration": 0.25,
          "pitch": 24,
          "velocity": 127
        },
        {
          "beat": 1,
          "duration": 0.3333333432674408,
          "pitch": 29,
          "velocity": 127
        },
        {
          "beat": 1,
          "duration": 0.75,
          "pitch": 43,
          "velocity": 93
        },
        {
          "beat": 1.5,
          "duration": 0.25,
          "pitch": 26,
          "velocity": 38
        },
        {
          "beat": 1.75,
          "duration": 0.4166666567325592,
          "pitch": 24,
          "velocity": 127
        },
        {
          "beat": 2,
          "duration": 0.7708333134651184,
          "pitch": 43,
          "velocity": 69
        },
        {
          "beat": 2.25,
          "duration": 0.25,
          "pitch": 28,
          "velocity": 127
        },
        {
          "beat": 2.5,
          "duration": 0.25,
          "pitch": 24,
          "velocity": 127
        },
        {
          "beat": 3,
          "duration": 0.25,
          "pitch": 29,
          "velocity": 125
        },
        {
          "beat": 3,
          "duration": 0.6979166865348816,
          "pitch": 43,
          "velocity": 85
        },
        {
          "beat": 3.75,
          "duration": 0.25,
          "pitch": 26,
          "velocity": 38
        }
      ],
      "decodedMidiPath": "rhythm_midi_patterns/decoded_pattern_midis/Metal_Chapman_12.mid"
    },
    {
      "code": "Metal_Chapman_13",
      "type": "dmachine_model",
      "subtype": "proller",
      "family": "Drum",
      "version": "0.0.0.0",
      "sizePagesOrUnits": 14,
      "crc32": 1957018792,
      "bpm": 63,
      "bnum": 44,
      "noteCount": 13,
      "notes": [
        {
          "beat": 0,
          "duration": 0.5,
          "pitch": 24,
          "velocity": 127
        },
        {
          "beat": 0,
          "duration": 0.5,
          "pitch": 41,
          "velocity": 120
        },
        {
          "beat": 0.5,
          "duration": 0.17083333432674408,
          "pitch": 30,
          "velocity": 127
        },
        {
          "beat": 1,
          "duration": 0.125,
          "pitch": 28,
          "velocity": 127
        },
        {
          "beat": 1,
          "duration": 0.18125000596046448,
          "pitch": 30,
          "velocity": 119
        },
        {
          "beat": 1.5,
          "duration": 0.14374999701976776,
          "pitch": 30,
          "velocity": 45
        },
        {
          "beat": 2,
          "duration": 0.5,
          "pitch": 24,
          "velocity": 127
        },
        {
          "beat": 2,
          "duration": 0.17083333432674408,
          "pitch": 30,
          "velocity": 127
        },
        {
          "beat": 2.25,
          "duration": 0.17083333432674408,
          "pitch": 32,
          "velocity": 15
        },
        {
          "beat": 2.5,
          "duration": 0.18125000596046448,
          "pitch": 30,
          "velocity": 119
        },
        {
          "beat": 3,
          "duration": 0.4854166805744171,
          "pitch": 28,
          "velocity": 127
        },
        {
          "beat": 3,
          "duration": 0.14374999701976776,
          "pitch": 30,
          "velocity": 126
        },
        {
          "beat": 3.5,
          "duration": 0.17083333432674408,
          "pitch": 30,
          "velocity": 35
        }
      ],
      "decodedMidiPath": "rhythm_midi_patterns/decoded_pattern_midis/Metal_Chapman_13.mid"
    },
    {
      "code": "Metal_Chapman_14",
      "type": "dmachine_model",
      "subtype": "proller",
      "family": "Drum",
      "version": "0.0.0.0",
      "sizePagesOrUnits": 16,
      "crc32": 4204531939,
      "bpm": 63,
      "bnum": 44,
      "noteCount": 16,
      "notes": [
        {
          "beat": 0,
          "duration": 0.5,
          "pitch": 24,
          "velocity": 127
        },
        {
          "beat": 0,
          "duration": 0.5,
          "pitch": 41,
          "velocity": 120
        },
        {
          "beat": 0.5,
          "duration": 0.17083333432674408,
          "pitch": 47,
          "velocity": 104
        },
        {
          "beat": 0.75,
          "duration": 0.2083333283662796,
          "pitch": 24,
          "velocity": 127
        },
        {
          "beat": 1,
          "duration": 0.125,
          "pitch": 29,
          "velocity": 127
        },
        {
          "beat": 1,
          "duration": 0.18125000596046448,
          "pitch": 47,
          "velocity": 96
        },
        {
          "beat": 1.5,
          "duration": 0.14374999701976776,
          "pitch": 47,
          "velocity": 21
        },
        {
          "beat": 1.75,
          "duration": 0.125,
          "pitch": 24,
          "velocity": 62
        },
        {
          "beat": 2,
          "duration": 0.4791666567325592,
          "pitch": 24,
          "velocity": 127
        },
        {
          "beat": 2,
          "duration": 0.17083333432674408,
          "pitch": 47,
          "velocity": 104
        },
        {
          "beat": 2.5,
          "duration": 0.125,
          "pitch": 24,
          "velocity": 127
        },
        {
          "beat": 2.5,
          "duration": 0.18125000596046448,
          "pitch": 47,
          "velocity": 28
        },
        {
          "beat": 3,
          "duration": 0.4854166805744171,
          "pitch": 29,
          "velocity": 127
        },
        {
          "beat": 3,
          "duration": 0.14374999701976776,
          "pitch": 47,
          "velocity": 103
        },
        {
          "beat": 3.5,
          "duration": 0.17083333432674408,
          "pitch": 47,
          "velocity": 23
        },
        {
          "beat": 3.75,
          "duration": 0.20208333432674408,
          "pitch": 24,
          "velocity": 47
        }
      ],
      "decodedMidiPath": "rhythm_midi_patterns/decoded_pattern_midis/Metal_Chapman_14.mid"
    },
    {
      "code": "Metal_Chapman_3",
      "type": "dmachine_model",
      "subtype": "proller",
      "family": "Drum",
      "version": "0.0.0.0",
      "sizePagesOrUnits": 13,
      "crc32": 435548835,
      "bpm": 85,
      "bnum": 44,
      "noteCount": 8,
      "notes": [
        {
          "beat": 0,
          "duration": 0.762499988079071,
          "pitch": 24,
          "velocity": 121
        },
        {
          "beat": 0,
          "duration": 1.125,
          "pitch": 41,
          "velocity": 97
        },
        {
          "beat": 1,
          "duration": 0.6979166865348816,
          "pitch": 29,
          "velocity": 127
        },
        {
          "beat": 1,
          "duration": 0.7270833253860474,
          "pitch": 30,
          "velocity": 95
        },
        {
          "beat": 2,
          "duration": 0.675000011920929,
          "pitch": 24,
          "velocity": 124
        },
        {
          "beat": 2,
          "duration": 0.293749988079071,
          "pitch": 30,
          "velocity": 70
        },
        {
          "beat": 3,
          "duration": 0.6479166746139526,
          "pitch": 29,
          "velocity": 124
        },
        {
          "beat": 3,
          "duration": 0.693750023841858,
          "pitch": 30,
          "velocity": 102
        }
      ],
      "decodedMidiPath": "rhythm_midi_patterns/decoded_pattern_midis/Metal_Chapman_3.mid"
    },
    {
      "code": "Metal_Chapman_4",
      "type": "dmachine_model",
      "subtype": "proller",
      "family": "Drum",
      "version": "0.0.0.0",
      "sizePagesOrUnits": 14,
      "crc32": 2934160068,
      "bpm": 85,
      "bnum": 44,
      "noteCount": 12,
      "notes": [
        {
          "beat": 0,
          "duration": 0.762499988079071,
          "pitch": 24,
          "velocity": 121
        },
        {
          "beat": 0,
          "duration": 1.125,
          "pitch": 41,
          "velocity": 111
        },
        {
          "beat": 0.5,
          "duration": 0.24791666865348816,
          "pitch": 30,
          "velocity": 77
        },
        {
          "beat": 1,
          "duration": 0.6979166865348816,
          "pitch": 29,
          "velocity": 127
        },
        {
          "beat": 1,
          "duration": 0.34166666865348816,
          "pitch": 30,
          "velocity": 111
        },
        {
          "beat": 1.5,
          "duration": 0.3083333373069763,
          "pitch": 30,
          "velocity": 69
        },
        {
          "beat": 2,
          "duration": 0.675000011920929,
          "pitch": 24,
          "velocity": 124
        },
        {
          "beat": 2,
          "duration": 0.4166666567325592,
          "pitch": 30,
          "velocity": 103
        },
        {
          "beat": 2.5,
          "duration": 0.24791666865348816,
          "pitch": 30,
          "velocity": 77
        },
        {
          "beat": 3,
          "duration": 0.6479166746139526,
          "pitch": 29,
          "velocity": 124
        },
        {
          "beat": 3,
          "duration": 0.34375,
          "pitch": 30,
          "velocity": 104
        },
        {
          "beat": 3.5,
          "duration": 0.3083333373069763,
          "pitch": 30,
          "velocity": 69
        }
      ],
      "decodedMidiPath": "rhythm_midi_patterns/decoded_pattern_midis/Metal_Chapman_4.mid"
    },
    {
      "code": "Metal_Chapman_5",
      "type": "dmachine_model",
      "subtype": "proller",
      "family": "Drum",
      "version": "0.0.0.0",
      "sizePagesOrUnits": 16,
      "crc32": 2817032643,
      "bpm": 85,
      "bnum": 44,
      "noteCount": 19,
      "notes": [
        {
          "beat": 0,
          "duration": 0.762499988079071,
          "pitch": 24,
          "velocity": 121
        },
        {
          "beat": 0,
          "duration": 1.125,
          "pitch": 41,
          "velocity": 111
        },
        {
          "beat": 0.25,
          "duration": 0.18125000596046448,
          "pitch": 30,
          "velocity": 52
        },
        {
          "beat": 0.5,
          "duration": 0.18125000596046448,
          "pitch": 30,
          "velocity": 78
        },
        {
          "beat": 0.75,
          "duration": 0.15208333730697632,
          "pitch": 30,
          "velocity": 45
        },
        {
          "beat": 1,
          "duration": 0.6979166865348816,
          "pitch": 29,
          "velocity": 127
        },
        {
          "beat": 1,
          "duration": 0.21666666865348816,
          "pitch": 30,
          "velocity": 106
        },
        {
          "beat": 1.25,
          "duration": 0.18125000596046448,
          "pitch": 30,
          "velocity": 52
        },
        {
          "beat": 1.5,
          "duration": 0.23333333432674408,
          "pitch": 30,
          "velocity": 71
        },
        {
          "beat": 1.75,
          "duration": 0.18125000596046448,
          "pitch": 30,
          "velocity": 37
        },
        {
          "beat": 2,
          "duration": 0.675000011920929,
          "pitch": 24,
          "velocity": 124
        },
        {
          "beat": 2,
          "duration": 0.21666666865348816,
          "pitch": 30,
          "velocity": 79
        },
        {
          "beat": 2.25,
          "duration": 0.18125000596046448,
          "pitch": 30,
          "velocity": 36
        },
        {
          "beat": 2.5,
          "duration": 0.23333333432674408,
          "pitch": 30,
          "velocity": 97
        },
        {
          "beat": 2.75,
          "duration": 0.18125000596046448,
          "pitch": 30,
          "velocity": 52
        },
        {
          "beat": 3,
          "duration": 0.6479166746139526,
          "pitch": 29,
          "velocity": 124
        },
        {
          "beat": 3,
          "duration": 0.1979166716337204,
          "pitch": 30,
          "velocity": 99
        },
        {
          "beat": 3.25,
          "duration": 0.23333333432674408,
          "pitch": 30,
          "velocity": 45
        },
        {
          "beat": 3.5,
          "duration": 0.21458333730697632,
          "pitch": 34,
          "velocity": 64
        }
      ],
      "decodedMidiPath": "rhythm_midi_patterns/decoded_pattern_midis/Metal_Chapman_5.mid"
    },
    {
      "code": "Metal_Chapman_6",
      "type": "dmachine_model",
      "subtype": "proller",
      "family": "Drum",
      "version": "0.0.0.0",
      "sizePagesOrUnits": 11,
      "crc32": 531956930,
      "bpm": 115,
      "bnum": 43,
      "noteCount": 8,
      "notes": [
        {
          "beat": 0,
          "duration": 0.837499976158142,
          "pitch": 24,
          "velocity": 121
        },
        {
          "beat": 0,
          "duration": 0.25,
          "pitch": 32,
          "velocity": 18
        },
        {
          "beat": 0,
          "duration": 0.912500023841858,
          "pitch": 41,
          "velocity": 78
        },
        {
          "beat": 1,
          "duration": 0.4583333432674408,
          "pitch": 30,
          "velocity": 63
        },
        {
          "beat": 2,
          "duration": 0.5333333611488342,
          "pitch": 29,
          "velocity": 116
        },
        {
          "beat": 2,
          "duration": 0.5104166865348816,
          "pitch": 30,
          "velocity": 75
        },
        {
          "beat": 3,
          "duration": 0.8729166388511658,
          "pitch": 24,
          "velocity": 127
        },
        {
          "beat": 3,
          "duration": 0.40416666865348816,
          "pitch": 30,
          "velocity": 58
        }
      ],
      "decodedMidiPath": "rhythm_midi_patterns/decoded_pattern_midis/Metal_Chapman_6.mid"
    },
    {
      "code": "Metal_Chapman_7",
      "type": "dmachine_model",
      "subtype": "proller",
      "family": "Drum",
      "version": "0.0.0.0",
      "sizePagesOrUnits": 11,
      "crc32": 392765844,
      "bpm": 86,
      "bnum": 86,
      "noteCount": 6,
      "notes": [
        {
          "beat": 0,
          "duration": 1.5,
          "pitch": 24,
          "velocity": 120
        },
        {
          "beat": 0,
          "duration": 1.1604167222976685,
          "pitch": 41,
          "velocity": 94
        },
        {
          "beat": 1.5,
          "duration": 1,
          "pitch": 29,
          "velocity": 113
        },
        {
          "beat": 2.25,
          "duration": 0.5041666626930237,
          "pitch": 47,
          "velocity": 54
        },
        {
          "beat": 2.5,
          "duration": 0.5,
          "pitch": 24,
          "velocity": 115
        },
        {
          "beat": 3,
          "duration": 1.5,
          "pitch": 24,
          "velocity": 127
        }
      ],
      "decodedMidiPath": "rhythm_midi_patterns/decoded_pattern_midis/Metal_Chapman_7.mid"
    },
    {
      "code": "Metal_Chapman_8",
      "type": "dmachine_model",
      "subtype": "proller",
      "family": "Drum",
      "version": "0.0.0.0",
      "sizePagesOrUnits": 12,
      "crc32": 3583528653,
      "bpm": 115,
      "bnum": 43,
      "noteCount": 9,
      "notes": [
        {
          "beat": 0,
          "duration": 0.837499976158142,
          "pitch": 24,
          "velocity": 100
        },
        {
          "beat": 0,
          "duration": 0.25,
          "pitch": 32,
          "velocity": 1
        },
        {
          "beat": 0,
          "duration": 0.912500023841858,
          "pitch": 41,
          "velocity": 61
        },
        {
          "beat": 1,
          "duration": 0.5333333611488342,
          "pitch": 28,
          "velocity": 52
        },
        {
          "beat": 1,
          "duration": 0.4583333432674408,
          "pitch": 30,
          "velocity": 84
        },
        {
          "beat": 2,
          "duration": 0.5333333611488342,
          "pitch": 28,
          "velocity": 76
        },
        {
          "beat": 2,
          "duration": 0.5104166865348816,
          "pitch": 30,
          "velocity": 96
        },
        {
          "beat": 3,
          "duration": 0.8729166388511658,
          "pitch": 24,
          "velocity": 106
        },
        {
          "beat": 3,
          "duration": 0.40416666865348816,
          "pitch": 30,
          "velocity": 79
        }
      ],
      "decodedMidiPath": "rhythm_midi_patterns/decoded_pattern_midis/Metal_Chapman_8.mid"
    },
    {
      "code": "Metal_Chapman_9",
      "type": "dmachine_model",
      "subtype": "proller",
      "family": "Drum",
      "version": "0.0.0.0",
      "sizePagesOrUnits": 12,
      "crc32": 4047008637,
      "bpm": 86,
      "bnum": 86,
      "noteCount": 11,
      "notes": [
        {
          "beat": 0,
          "duration": 1.5,
          "pitch": 24,
          "velocity": 103
        },
        {
          "beat": 0,
          "duration": 1.1604167222976685,
          "pitch": 41,
          "velocity": 71
        },
        {
          "beat": 0.5,
          "duration": 0.375,
          "pitch": 30,
          "velocity": 88
        },
        {
          "beat": 1,
          "duration": 0.375,
          "pitch": 30,
          "velocity": 68
        },
        {
          "beat": 1.5,
          "duration": 1,
          "pitch": 28,
          "velocity": 83
        },
        {
          "beat": 1.5,
          "duration": 0.375,
          "pitch": 30,
          "velocity": 88
        },
        {
          "beat": 2,
          "duration": 0.375,
          "pitch": 30,
          "velocity": 68
        },
        {
          "beat": 2.5,
          "duration": 0.375,
          "pitch": 30,
          "velocity": 88
        },
        {
          "beat": 3,
          "duration": 1.5,
          "pitch": 24,
          "velocity": 110
        },
        {
          "beat": 3,
          "duration": 0.375,
          "pitch": 30,
          "velocity": 68
        },
        {
          "beat": 3.5,
          "duration": 0.375,
          "pitch": 30,
          "velocity": 88
        }
      ],
      "decodedMidiPath": "rhythm_midi_patterns/decoded_pattern_midis/Metal_Chapman_9.mid"
    },
    {
      "code": "POP_ChapMen_1",
      "type": "dmachine_model",
      "subtype": "proller",
      "family": "Drum",
      "version": "0.0.0.0",
      "sizePagesOrUnits": 12,
      "crc32": 3370514756,
      "bpm": 68,
      "bnum": 44,
      "noteCount": 10,
      "notes": [
        {
          "beat": 0,
          "duration": 0.625,
          "pitch": 24,
          "velocity": 31
        },
        {
          "beat": 0,
          "duration": 0.8416666388511658,
          "pitch": 41,
          "velocity": 38
        },
        {
          "beat": 1,
          "duration": 0.5,
          "pitch": 30,
          "velocity": 27
        },
        {
          "beat": 1.75,
          "duration": 0.5333333611488342,
          "pitch": 24,
          "velocity": 33
        },
        {
          "beat": 2,
          "duration": 0.5,
          "pitch": 30,
          "velocity": 65
        },
        {
          "beat": 2.5,
          "duration": 0.24791666865348816,
          "pitch": 24,
          "velocity": 32
        },
        {
          "beat": 2.5,
          "duration": 0.2770833373069763,
          "pitch": 30,
          "velocity": 1
        },
        {
          "beat": 3,
          "duration": 0.6145833134651184,
          "pitch": 25,
          "velocity": 110
        },
        {
          "beat": 3,
          "duration": 0.5,
          "pitch": 30,
          "velocity": 72
        },
        {
          "beat": 3.5,
          "duration": 0.3479166626930237,
          "pitch": 30,
          "velocity": 12
        }
      ],
      "decodedMidiPath": "rhythm_midi_patterns/decoded_pattern_midis/POP_ChapMen_1.mid"
    },
    {
      "code": "POP_ChapMen_10",
      "type": "dmachine_model",
      "subtype": "proller",
      "family": "Drum",
      "version": "0.0.0.0",
      "sizePagesOrUnits": 13,
      "crc32": 3571713648,
      "bpm": 72,
      "bnum": 44,
      "noteCount": 13,
      "notes": [
        {
          "beat": 0,
          "duration": 0.28333333134651184,
          "pitch": 24,
          "velocity": 63
        },
        {
          "beat": 0,
          "duration": 0.268750011920929,
          "pitch": 30,
          "velocity": 89
        },
        {
          "beat": 0.5,
          "duration": 0.25208333134651184,
          "pitch": 30,
          "velocity": 37
        },
        {
          "beat": 1,
          "duration": 0.19374999403953552,
          "pitch": 25,
          "velocity": 76
        },
        {
          "beat": 1,
          "duration": 0.21041665971279144,
          "pitch": 30,
          "velocity": 72
        },
        {
          "beat": 1.5,
          "duration": 0.28333333134651184,
          "pitch": 24,
          "velocity": 63
        },
        {
          "beat": 1.5,
          "duration": 0.31041666865348816,
          "pitch": 30,
          "velocity": 74
        },
        {
          "beat": 2,
          "duration": 0.23749999701976776,
          "pitch": 30,
          "velocity": 47
        },
        {
          "beat": 2.5,
          "duration": 0.1354166716337204,
          "pitch": 30,
          "velocity": 73
        },
        {
          "beat": 2.75,
          "duration": 0.15833333134651184,
          "pitch": 30,
          "velocity": 18
        },
        {
          "beat": 3,
          "duration": 0.18125000596046448,
          "pitch": 25,
          "velocity": 107
        },
        {
          "beat": 3,
          "duration": 0.1875,
          "pitch": 30,
          "velocity": 65
        },
        {
          "beat": 3.5,
          "duration": 0.17291666567325592,
          "pitch": 46,
          "velocity": 30
        }
      ],
      "decodedMidiPath": "rhythm_midi_patterns/decoded_pattern_midis/POP_ChapMen_10.mid"
    },
    {
      "code": "POP_ChapMen_11",
      "type": "dmachine_model",
      "subtype": "proller",
      "family": "Drum",
      "version": "0.0.0.0",
      "sizePagesOrUnits": 16,
      "crc32": 88513481,
      "bpm": 72,
      "bnum": 44,
      "noteCount": 15,
      "notes": [
        {
          "beat": 0,
          "duration": 0.25,
          "pitch": 24,
          "velocity": 87
        },
        {
          "beat": 0,
          "duration": 0.25,
          "pitch": 41,
          "velocity": 87
        },
        {
          "beat": 0.5,
          "duration": 0.25,
          "pitch": 30,
          "velocity": 73
        },
        {
          "beat": 0.75,
          "duration": 0.25,
          "pitch": 24,
          "velocity": 50
        },
        {
          "beat": 1,
          "duration": 0.25,
          "pitch": 29,
          "velocity": 87
        },
        {
          "beat": 1,
          "duration": 0.25,
          "pitch": 30,
          "velocity": 89
        },
        {
          "beat": 1.5,
          "duration": 0.25,
          "pitch": 24,
          "velocity": 87
        },
        {
          "beat": 1.5,
          "duration": 0.25,
          "pitch": 30,
          "velocity": 73
        },
        {
          "beat": 2,
          "duration": 0.25,
          "pitch": 30,
          "velocity": 66
        },
        {
          "beat": 2.5,
          "duration": 0.25,
          "pitch": 30,
          "velocity": 53
        },
        {
          "beat": 2.75,
          "duration": 0.25,
          "pitch": 30,
          "velocity": 1
        },
        {
          "beat": 3,
          "duration": 0.25,
          "pitch": 29,
          "velocity": 87
        },
        {
          "beat": 3,
          "duration": 0.25,
          "pitch": 46,
          "velocity": 42
        },
        {
          "beat": 3.5,
          "duration": 0.25,
          "pitch": 30,
          "velocity": 53
        },
        {
          "beat": 3.75,
          "duration": 0.25,
          "pitch": 24,
          "velocity": 50
        }
      ],
      "decodedMidiPath": "rhythm_midi_patterns/decoded_pattern_midis/POP_ChapMen_11.mid"
    },
    {
      "code": "POP_ChapMen_2",
      "type": "dmachine_model",
      "subtype": "proller",
      "family": "Drum",
      "version": "0.0.0.0",
      "sizePagesOrUnits": 13,
      "crc32": 2501820082,
      "bpm": 68,
      "bnum": 44,
      "noteCount": 14,
      "notes": [
        {
          "beat": 0,
          "duration": 0.362500011920929,
          "pitch": 24,
          "velocity": 103
        },
        {
          "beat": 0,
          "duration": 0.16875000298023224,
          "pitch": 41,
          "velocity": 106
        },
        {
          "beat": 0.5,
          "duration": 0.2083333283662796,
          "pitch": 30,
          "velocity": 33
        },
        {
          "beat": 1,
          "duration": 0.5416666865348816,
          "pitch": 29,
          "velocity": 123
        },
        {
          "beat": 1,
          "duration": 0.2979166805744171,
          "pitch": 30,
          "velocity": 113
        },
        {
          "beat": 1.5,
          "duration": 0.3270833194255829,
          "pitch": 30,
          "velocity": 45
        },
        {
          "beat": 1.75,
          "duration": 0.39791667461395264,
          "pitch": 24,
          "velocity": 97
        },
        {
          "beat": 2,
          "duration": 0.3270833194255829,
          "pitch": 30,
          "velocity": 87
        },
        {
          "beat": 2.25,
          "duration": 0.18541666865348816,
          "pitch": 24,
          "velocity": 96
        },
        {
          "beat": 2.5,
          "duration": 0.262499988079071,
          "pitch": 24,
          "velocity": 102
        },
        {
          "beat": 2.5,
          "duration": 0.28125,
          "pitch": 30,
          "velocity": 47
        },
        {
          "beat": 3,
          "duration": 0.34583333134651184,
          "pitch": 29,
          "velocity": 127
        },
        {
          "beat": 3,
          "duration": 0.28125,
          "pitch": 30,
          "velocity": 127
        },
        {
          "beat": 3.5,
          "duration": 0.28958332538604736,
          "pitch": 30,
          "velocity": 37
        }
      ],
      "decodedMidiPath": "rhythm_midi_patterns/decoded_pattern_midis/POP_ChapMen_2.mid"
    },
    {
      "code": "PianoMKS20_1",
      "type": "chord_model_379",
      "subtype": "proller",
      "family": "PianoMKS20",
      "version": "0.0.0.0",
      "sizePagesOrUnits": 63,
      "crc32": 811109590,
      "bpm": 70,
      "bnum": 44,
      "noteCount": 9,
      "notes": [
        {
          "beat": 0,
          "duration": 4,
          "pitch": 48,
          "velocity": 59
        },
        {
          "beat": 0.5,
          "duration": 1,
          "pitch": 60,
          "velocity": 43
        },
        {
          "beat": 1,
          "duration": 0.949999988079071,
          "pitch": 64,
          "velocity": 51
        },
        {
          "beat": 1.5,
          "duration": 1,
          "pitch": 60,
          "velocity": 33
        },
        {
          "beat": 1.9645832777023315,
          "duration": 0.9708333611488342,
          "pitch": 64,
          "velocity": 29
        },
        {
          "beat": 2,
          "duration": 2,
          "pitch": 67,
          "velocity": 44
        },
        {
          "beat": 2.5,
          "duration": 1,
          "pitch": 60,
          "velocity": 28
        },
        {
          "beat": 3,
          "duration": 1,
          "pitch": 64,
          "velocity": 44
        },
        {
          "beat": 3.5,
          "duration": 0.5,
          "pitch": 60,
          "velocity": 33
        }
      ],
      "decodedMidiPath": "rhythm_midi_patterns/decoded_pattern_midis/PianoMKS20_1.mid"
    },
    {
      "code": "PianoMKS20_10",
      "type": "chord_model_379",
      "subtype": "proller",
      "family": "PianoMKS20",
      "version": "0.0.0.0",
      "sizePagesOrUnits": 49,
      "crc32": 1122039096,
      "bpm": 72,
      "bnum": 44,
      "noteCount": 14,
      "notes": [
        {
          "beat": 0,
          "duration": 2,
          "pitch": 48,
          "velocity": 20
        },
        {
          "beat": 0.25,
          "duration": 0.5,
          "pitch": 55,
          "velocity": 34
        },
        {
          "beat": 0.5,
          "duration": 1.25,
          "pitch": 60,
          "velocity": 30
        },
        {
          "beat": 0.75,
          "duration": 1.5,
          "pitch": 55,
          "velocity": 29
        },
        {
          "beat": 1,
          "duration": 3,
          "pitch": 67,
          "velocity": 25
        },
        {
          "beat": 1.5,
          "duration": 1.5,
          "pitch": 64,
          "velocity": 18
        },
        {
          "beat": 1.75,
          "duration": 0.75,
          "pitch": 60,
          "velocity": 13
        },
        {
          "beat": 2,
          "duration": 2,
          "pitch": 48,
          "velocity": 21
        },
        {
          "beat": 2.25,
          "duration": 0.5,
          "pitch": 55,
          "velocity": 31
        },
        {
          "beat": 2.5,
          "duration": 1,
          "pitch": 60,
          "velocity": 30
        },
        {
          "beat": 2.75,
          "duration": 1,
          "pitch": 55,
          "velocity": 20
        },
        {
          "beat": 3,
          "duration": 1,
          "pitch": 64,
          "velocity": 25
        },
        {
          "beat": 3.5,
          "duration": 0.5,
          "pitch": 60,
          "velocity": 20
        },
        {
          "beat": 3.75,
          "duration": 0.25,
          "pitch": 55,
          "velocity": 10
        }
      ],
      "decodedMidiPath": "rhythm_midi_patterns/decoded_pattern_midis/PianoMKS20_10.mid"
    },
    {
      "code": "PianoMKS20_11",
      "type": "chord_model_379",
      "subtype": "proller",
      "family": "PianoMKS20",
      "version": "0.0.0.0",
      "sizePagesOrUnits": 53,
      "crc32": 648148424,
      "bpm": 72,
      "bnum": 44,
      "noteCount": 14,
      "notes": [
        {
          "beat": 0,
          "duration": 1.5,
          "pitch": 48,
          "velocity": 30
        },
        {
          "beat": 0.0416666679084301,
          "duration": 0.7083333134651184,
          "pitch": 60,
          "velocity": 25
        },
        {
          "beat": 0.0625,
          "duration": 1.4375,
          "pitch": 64,
          "velocity": 36
        },
        {
          "beat": 0.08541666716337204,
          "duration": 1.4145833253860474,
          "pitch": 67,
          "velocity": 37
        },
        {
          "beat": 0.75,
          "duration": 0.75,
          "pitch": 60,
          "velocity": 27
        },
        {
          "beat": 1.25,
          "duration": 0.25,
          "pitch": 55,
          "velocity": 22
        },
        {
          "beat": 1.5,
          "duration": 1.5,
          "pitch": 48,
          "velocity": 26
        },
        {
          "beat": 1.5,
          "duration": 2,
          "pitch": 60,
          "velocity": 22
        },
        {
          "beat": 1.5,
          "duration": 2.5,
          "pitch": 64,
          "velocity": 21
        },
        {
          "beat": 1.5,
          "duration": 2.25,
          "pitch": 67,
          "velocity": 27
        },
        {
          "beat": 3,
          "duration": 1.0020833015441895,
          "pitch": 48,
          "velocity": 25
        },
        {
          "beat": 3.25,
          "duration": 0.75,
          "pitch": 55,
          "velocity": 31
        },
        {
          "beat": 3.5,
          "duration": 0.5,
          "pitch": 60,
          "velocity": 22
        },
        {
          "beat": 3.75,
          "duration": 0.25,
          "pitch": 67,
          "velocity": 22
        }
      ],
      "decodedMidiPath": "rhythm_midi_patterns/decoded_pattern_midis/PianoMKS20_11.mid"
    },
    {
      "code": "PianoMKS20_12",
      "type": "chord_model_379",
      "subtype": "proller",
      "family": "PianoMKS20",
      "version": "0.0.0.0",
      "sizePagesOrUnits": 48,
      "crc32": 2828672909,
      "bpm": 78,
      "bnum": 44,
      "noteCount": 4,
      "notes": [
        {
          "beat": 0,
          "duration": 4.03333330154419,
          "pitch": 48,
          "velocity": 30
        },
        {
          "beat": 0.5,
          "duration": 3.53333330154419,
          "pitch": 64,
          "velocity": 30
        },
        {
          "beat": 1,
          "duration": 3.03333330154419,
          "pitch": 72,
          "velocity": 30
        },
        {
          "beat": 1.5,
          "duration": 2.53333330154419,
          "pitch": 67,
          "velocity": 27
        }
      ],
      "decodedMidiPath": "rhythm_midi_patterns/decoded_pattern_midis/PianoMKS20_12.mid"
    },
    {
      "code": "PianoMKS20_13",
      "type": "chord_model_379",
      "subtype": "proller",
      "family": "PianoMKS20",
      "version": "0.0.0.0",
      "sizePagesOrUnits": 80,
      "crc32": 2491590467,
      "bpm": 68,
      "bnum": 44,
      "noteCount": 13,
      "notes": [
        {
          "beat": 0,
          "duration": 4,
          "pitch": 48,
          "velocity": 30
        },
        {
          "beat": 0,
          "duration": 0.9916666746139526,
          "pitch": 55,
          "velocity": 30
        },
        {
          "beat": 0.3333333432674408,
          "duration": 0.9916666746139526,
          "pitch": 60,
          "velocity": 27
        },
        {
          "beat": 0.6666666865348816,
          "duration": 0.9916666746139526,
          "pitch": 64,
          "velocity": 27
        },
        {
          "beat": 1,
          "duration": 0.9916666746139526,
          "pitch": 55,
          "velocity": 30
        },
        {
          "beat": 1.3333333730697632,
          "duration": 0.9916666746139526,
          "pitch": 60,
          "velocity": 27
        },
        {
          "beat": 1.6666666269302368,
          "duration": 0.9916666746139526,
          "pitch": 64,
          "velocity": 27
        },
        {
          "beat": 2,
          "duration": 0.9916666746139526,
          "pitch": 55,
          "velocity": 30
        },
        {
          "beat": 2.3333332538604736,
          "duration": 0.9916666746139526,
          "pitch": 60,
          "velocity": 27
        },
        {
          "beat": 2.6666667461395264,
          "duration": 0.9916666746139526,
          "pitch": 64,
          "velocity": 27
        },
        {
          "beat": 3,
          "duration": 1,
          "pitch": 55,
          "velocity": 30
        },
        {
          "beat": 3.3333332538604736,
          "duration": 0.6666666865348816,
          "pitch": 60,
          "velocity": 27
        },
        {
          "beat": 3.6666667461395264,
          "duration": 0.3333333432674408,
          "pitch": 64,
          "velocity": 27
        }
      ],
      "decodedMidiPath": "rhythm_midi_patterns/decoded_pattern_midis/PianoMKS20_13.mid"
    },
    {
      "code": "PianoMKS20_14",
      "type": "chord_model_379",
      "subtype": "proller",
      "family": "PianoMKS20",
      "version": "0.0.0.0",
      "sizePagesOrUnits": 95,
      "crc32": 900367122,
      "bpm": 54,
      "bnum": 44,
      "noteCount": 16,
      "notes": [
        {
          "beat": 0,
          "duration": 2,
          "pitch": 48,
          "velocity": 28
        },
        {
          "beat": 0.25,
          "duration": 1.75,
          "pitch": 55,
          "velocity": 23
        },
        {
          "beat": 0.5,
          "duration": 0.7458333373069763,
          "pitch": 60,
          "velocity": 28
        },
        {
          "beat": 0.75,
          "duration": 0.7458333373069763,
          "pitch": 64,
          "velocity": 26
        },
        {
          "beat": 1,
          "duration": 0.7458333373069763,
          "pitch": 67,
          "velocity": 30
        },
        {
          "beat": 1.25,
          "duration": 0.75,
          "pitch": 60,
          "velocity": 26
        },
        {
          "beat": 1.5,
          "duration": 0.5,
          "pitch": 64,
          "velocity": 26
        },
        {
          "beat": 1.75,
          "duration": 0.25,
          "pitch": 67,
          "velocity": 21
        },
        {
          "beat": 2,
          "duration": 2,
          "pitch": 48,
          "velocity": 28
        },
        {
          "beat": 2.25,
          "duration": 1.75,
          "pitch": 55,
          "velocity": 23
        },
        {
          "beat": 2.5,
          "duration": 0.7458333373069763,
          "pitch": 60,
          "velocity": 28
        },
        {
          "beat": 2.75,
          "duration": 0.7458333373069763,
          "pitch": 64,
          "velocity": 26
        },
        {
          "beat": 3,
          "duration": 0.7458333373069763,
          "pitch": 67,
          "velocity": 30
        },
        {
          "beat": 3.25,
          "duration": 0.75,
          "pitch": 60,
          "velocity": 26
        },
        {
          "beat": 3.5,
          "duration": 0.5,
          "pitch": 64,
          "velocity": 26
        },
        {
          "beat": 3.75,
          "duration": 0.25,
          "pitch": 67,
          "velocity": 21
        }
      ],
      "decodedMidiPath": "rhythm_midi_patterns/decoded_pattern_midis/PianoMKS20_14.mid"
    },
    {
      "code": "PianoMKS20_15",
      "type": "chord_model_379",
      "subtype": "proller",
      "family": "PianoMKS20",
      "version": "0.0.0.0",
      "sizePagesOrUnits": 70,
      "crc32": 3935779059,
      "bpm": 100,
      "bnum": 44,
      "noteCount": 20,
      "notes": [
        {
          "beat": 0,
          "duration": 0.5,
          "pitch": 48,
          "velocity": 27
        },
        {
          "beat": 0.9583333134651184,
          "duration": 0.4833333194255829,
          "pitch": 55,
          "velocity": 19
        },
        {
          "beat": 0.975000023841858,
          "duration": 0.4833333194255829,
          "pitch": 60,
          "velocity": 35
        },
        {
          "beat": 1,
          "duration": 0.4833333194255829,
          "pitch": 64,
          "velocity": 48
        },
        {
          "beat": 1.5,
          "duration": 0.05833333358168602,
          "pitch": 55,
          "velocity": 36
        },
        {
          "beat": 1.75,
          "duration": 0.12916666269302368,
          "pitch": 55,
          "velocity": 28
        },
        {
          "beat": 1.75,
          "duration": 0.12916666269302368,
          "pitch": 60,
          "velocity": 34
        },
        {
          "beat": 1.75,
          "duration": 0.12916666269302368,
          "pitch": 64,
          "velocity": 38
        },
        {
          "beat": 2.25,
          "duration": 0.125,
          "pitch": 55,
          "velocity": 37
        },
        {
          "beat": 2.25,
          "duration": 0.125,
          "pitch": 60,
          "velocity": 36
        },
        {
          "beat": 2.25,
          "duration": 0.125,
          "pitch": 64,
          "velocity": 48
        },
        {
          "beat": 2.75,
          "duration": 0.09583333134651184,
          "pitch": 55,
          "velocity": 32
        },
        {
          "beat": 2.96666669845581,
          "duration": 0.3166666626930237,
          "pitch": 55,
          "velocity": 38
        },
        {
          "beat": 2.9749999046325684,
          "duration": 0.4583333432674408,
          "pitch": 60,
          "velocity": 38
        },
        {
          "beat": 3,
          "duration": 0.4583333432674408,
          "pitch": 64,
          "velocity": 40
        },
        {
          "beat": 3.3333332538604736,
          "duration": 0.11249999701976776,
          "pitch": 55,
          "velocity": 24
        },
        {
          "beat": 3.46666669845581,
          "duration": 0.3125,
          "pitch": 55,
          "velocity": 25
        },
        {
          "beat": 3.4749999046325684,
          "duration": 0.524999976158142,
          "pitch": 60,
          "velocity": 42
        },
        {
          "beat": 3.5,
          "duration": 0.5,
          "pitch": 64,
          "velocity": 44
        },
        {
          "beat": 3.8333332538604736,
          "duration": 0.08541666716337204,
          "pitch": 55,
          "velocity": 37
        }
      ],
      "decodedMidiPath": "rhythm_midi_patterns/decoded_pattern_midis/PianoMKS20_15.mid"
    },
    {
      "code": "PianoMKS20_16",
      "type": "chord_model_379",
      "subtype": "proller",
      "family": "PianoMKS20",
      "version": "0.0.0.0",
      "sizePagesOrUnits": 33,
      "crc32": 362484742,
      "bpm": 80,
      "bnum": 44,
      "noteCount": 5,
      "notes": [
        {
          "beat": 0,
          "duration": 4.041666507720947,
          "pitch": 48,
          "velocity": 33
        },
        {
          "beat": 0.5,
          "duration": 3.5416667461395264,
          "pitch": 55,
          "velocity": 38
        },
        {
          "beat": 1,
          "duration": 3.0416667461395264,
          "pitch": 60,
          "velocity": 39
        },
        {
          "beat": 1.5,
          "duration": 2.5416667461395264,
          "pitch": 64,
          "velocity": 37
        },
        {
          "beat": 2,
          "duration": 2.0416667461395264,
          "pitch": 67,
          "velocity": 39
        }
      ],
      "decodedMidiPath": "rhythm_midi_patterns/decoded_pattern_midis/PianoMKS20_16.mid"
    },
    {
      "code": "PianoMKS20_17",
      "type": "chord_model_379",
      "subtype": "proller",
      "family": "PianoMKS20",
      "version": "0.0.0.0",
      "sizePagesOrUnits": 53,
      "crc32": 1651116751,
      "bpm": 96,
      "bnum": 44,
      "noteCount": 13,
      "notes": [
        {
          "beat": 0,
          "duration": 4,
          "pitch": 48,
          "velocity": 39
        },
        {
          "beat": 0,
          "duration": 0.75,
          "pitch": 60,
          "velocity": 40
        },
        {
          "beat": 0,
          "duration": 0.75,
          "pitch": 64,
          "velocity": 42
        },
        {
          "beat": 0.75,
          "duration": 0.25,
          "pitch": 55,
          "velocity": 33
        },
        {
          "beat": 1,
          "duration": 0.75,
          "pitch": 60,
          "velocity": 40
        },
        {
          "beat": 1,
          "duration": 0.75,
          "pitch": 64,
          "velocity": 42
        },
        {
          "beat": 1.75,
          "duration": 0.25,
          "pitch": 55,
          "velocity": 33
        },
        {
          "beat": 2,
          "duration": 0.75,
          "pitch": 60,
          "velocity": 40
        },
        {
          "beat": 2,
          "duration": 0.75,
          "pitch": 64,
          "velocity": 42
        },
        {
          "beat": 2.75,
          "duration": 0.25,
          "pitch": 55,
          "velocity": 33
        },
        {
          "beat": 3,
          "duration": 0.75,
          "pitch": 60,
          "velocity": 40
        },
        {
          "beat": 3,
          "duration": 0.75,
          "pitch": 64,
          "velocity": 42
        },
        {
          "beat": 3.75,
          "duration": 0.25,
          "pitch": 55,
          "velocity": 33
        }
      ],
      "decodedMidiPath": "rhythm_midi_patterns/decoded_pattern_midis/PianoMKS20_17.mid"
    },
    {
      "code": "PianoMKS20_18",
      "type": "chord_model_379",
      "subtype": "proller",
      "family": "PianoMKS20",
      "version": "0.0.0.0",
      "sizePagesOrUnits": 41,
      "crc32": 544323127,
      "bpm": 88,
      "bnum": 44,
      "noteCount": 9,
      "notes": [
        {
          "beat": 0,
          "duration": 3.9791667461395264,
          "pitch": 48,
          "velocity": 25
        },
        {
          "beat": 0,
          "duration": 1.975000023841858,
          "pitch": 64,
          "velocity": 36
        },
        {
          "beat": 0.5,
          "duration": 0.9791666865348816,
          "pitch": 55,
          "velocity": 24
        },
        {
          "beat": 1,
          "duration": 1.975000023841858,
          "pitch": 60,
          "velocity": 27
        },
        {
          "beat": 1.5,
          "duration": 0.9791666865348816,
          "pitch": 55,
          "velocity": 26
        },
        {
          "beat": 2,
          "duration": 1.975000023841858,
          "pitch": 64,
          "velocity": 33
        },
        {
          "beat": 2.5,
          "duration": 0.9791666865348816,
          "pitch": 55,
          "velocity": 23
        },
        {
          "beat": 3,
          "duration": 0.975000023841858,
          "pitch": 60,
          "velocity": 25
        },
        {
          "beat": 3.5,
          "duration": 0.4791666567325592,
          "pitch": 55,
          "velocity": 29
        }
      ],
      "decodedMidiPath": "rhythm_midi_patterns/decoded_pattern_midis/PianoMKS20_18.mid"
    },
    {
      "code": "PianoMKS20_19",
      "type": "chord_model_379",
      "subtype": "proller",
      "family": "PianoMKS20",
      "version": "0.0.0.0",
      "sizePagesOrUnits": 44,
      "crc32": 3737506868,
      "bpm": 120,
      "bnum": 86,
      "noteCount": 6,
      "notes": [
        {
          "beat": 0,
          "duration": 3,
          "pitch": 48,
          "velocity": 45
        },
        {
          "beat": 0.5,
          "duration": 2,
          "pitch": 60,
          "velocity": 25
        },
        {
          "beat": 1,
          "duration": 1,
          "pitch": 64,
          "velocity": 20
        },
        {
          "beat": 1.5,
          "duration": 1.5,
          "pitch": 67,
          "velocity": 40
        },
        {
          "beat": 2,
          "duration": 1,
          "pitch": 64,
          "velocity": 15
        },
        {
          "beat": 2.5,
          "duration": 0.5,
          "pitch": 60,
          "velocity": 20
        }
      ],
      "decodedMidiPath": "rhythm_midi_patterns/decoded_pattern_midis/PianoMKS20_19.mid"
    },
    {
      "code": "PianoMKS20_2",
      "type": "chord_model_379",
      "subtype": "proller",
      "family": "PianoMKS20",
      "version": "0.0.0.0",
      "sizePagesOrUnits": 59,
      "crc32": 1562459550,
      "bpm": 70,
      "bnum": 44,
      "noteCount": 8,
      "notes": [
        {
          "beat": 0,
          "duration": 4,
          "pitch": 48,
          "velocity": 44
        },
        {
          "beat": 0.5,
          "duration": 3.5,
          "pitch": 52,
          "velocity": 38
        },
        {
          "beat": 1,
          "duration": 2.5,
          "pitch": 55,
          "velocity": 35
        },
        {
          "beat": 1.5,
          "duration": 1.5,
          "pitch": 60,
          "velocity": 49
        },
        {
          "beat": 2,
          "duration": 2,
          "pitch": 67,
          "velocity": 45
        },
        {
          "beat": 2.5,
          "duration": 1.5,
          "pitch": 64,
          "velocity": 31
        },
        {
          "beat": 3,
          "duration": 1,
          "pitch": 60,
          "velocity": 47
        },
        {
          "beat": 3.5,
          "duration": 0.5,
          "pitch": 55,
          "velocity": 26
        }
      ],
      "decodedMidiPath": "rhythm_midi_patterns/decoded_pattern_midis/PianoMKS20_2.mid"
    },
    {
      "code": "PianoMKS20_20",
      "type": "chord_model_379",
      "subtype": "proller",
      "family": "PianoMKS20",
      "version": "0.0.0.0",
      "sizePagesOrUnits": 61,
      "crc32": 2088759690,
      "bpm": 73,
      "bnum": 44,
      "noteCount": 16,
      "notes": [
        {
          "beat": 0,
          "duration": 4.02916669845581,
          "pitch": 48,
          "velocity": 22
        },
        {
          "beat": 0,
          "duration": 0.9958333373069763,
          "pitch": 67,
          "velocity": 29
        },
        {
          "beat": 0.5,
          "duration": 0.9958333373069763,
          "pitch": 64,
          "velocity": 27
        },
        {
          "beat": 0.5,
          "duration": 0.9958333373069763,
          "pitch": 72,
          "velocity": 27
        },
        {
          "beat": 1,
          "duration": 0.9958333373069763,
          "pitch": 60,
          "velocity": 23
        },
        {
          "beat": 1,
          "duration": 0.9958333373069763,
          "pitch": 67,
          "velocity": 29
        },
        {
          "beat": 1.5,
          "duration": 0.9958333373069763,
          "pitch": 64,
          "velocity": 26
        },
        {
          "beat": 1.5,
          "duration": 0.9958333373069763,
          "pitch": 72,
          "velocity": 27
        },
        {
          "beat": 2,
          "duration": 0.9958333373069763,
          "pitch": 60,
          "velocity": 29
        },
        {
          "beat": 2,
          "duration": 0.9958333373069763,
          "pitch": 67,
          "velocity": 29
        },
        {
          "beat": 2.5,
          "duration": 0.9958333373069763,
          "pitch": 64,
          "velocity": 24
        },
        {
          "beat": 2.5,
          "duration": 0.9958333373069763,
          "pitch": 72,
          "velocity": 27
        },
        {
          "beat": 3,
          "duration": 1.0291666984558105,
          "pitch": 60,
          "velocity": 28
        },
        {
          "beat": 3,
          "duration": 1.0291666984558105,
          "pitch": 67,
          "velocity": 29
        },
        {
          "beat": 3.5,
          "duration": 0.5291666388511658,
          "pitch": 64,
          "velocity": 25
        },
        {
          "beat": 3.5,
          "duration": 0.5291666388511658,
          "pitch": 72,
          "velocity": 27
        }
      ],
      "decodedMidiPath": "rhythm_midi_patterns/decoded_pattern_midis/PianoMKS20_20.mid"
    },
    {
      "code": "PianoMKS20_21",
      "type": "chord_model_379",
      "subtype": "proller",
      "family": "PianoMKS20",
      "version": "0.0.0.0",
      "sizePagesOrUnits": 59,
      "crc32": 2382533700,
      "bpm": 66,
      "bnum": 44,
      "noteCount": 17,
      "notes": [
        {
          "beat": 0,
          "duration": 3.991666555404663,
          "pitch": 48,
          "velocity": 27
        },
        {
          "beat": 0,
          "duration": 0.9916666746139526,
          "pitch": 64,
          "velocity": 28
        },
        {
          "beat": 0.25,
          "duration": 0.49166667461395264,
          "pitch": 60,
          "velocity": 30
        },
        {
          "beat": 0.5,
          "duration": 0.9916666746139526,
          "pitch": 55,
          "velocity": 26
        },
        {
          "beat": 0.75,
          "duration": 0.49166667461395264,
          "pitch": 60,
          "velocity": 29
        },
        {
          "beat": 1,
          "duration": 0.9916666746139526,
          "pitch": 64,
          "velocity": 33
        },
        {
          "beat": 1.25,
          "duration": 0.49166667461395264,
          "pitch": 60,
          "velocity": 29
        },
        {
          "beat": 1.5,
          "duration": 0.9916666746139526,
          "pitch": 55,
          "velocity": 25
        },
        {
          "beat": 1.75,
          "duration": 0.49166667461395264,
          "pitch": 60,
          "velocity": 29
        },
        {
          "beat": 2,
          "duration": 0.9916666746139526,
          "pitch": 64,
          "velocity": 34
        },
        {
          "beat": 2.25,
          "duration": 0.49166667461395264,
          "pitch": 60,
          "velocity": 29
        },
        {
          "beat": 2.5,
          "duration": 0.9916666746139526,
          "pitch": 55,
          "velocity": 25
        },
        {
          "beat": 2.75,
          "duration": 0.49166667461395264,
          "pitch": 60,
          "velocity": 27
        },
        {
          "beat": 3,
          "duration": 0.9916666746139526,
          "pitch": 64,
          "velocity": 34
        },
        {
          "beat": 3.25,
          "duration": 0.49166667461395264,
          "pitch": 60,
          "velocity": 27
        },
        {
          "beat": 3.5,
          "duration": 0.49166667461395264,
          "pitch": 55,
          "velocity": 27
        },
        {
          "beat": 3.75,
          "duration": 0.24166665971279144,
          "pitch": 60,
          "velocity": 27
        }
      ],
      "decodedMidiPath": "rhythm_midi_patterns/decoded_pattern_midis/PianoMKS20_21.mid"
    },
    {
      "code": "PianoMKS20_22",
      "type": "chord_model_379",
      "subtype": "proller",
      "family": "PianoMKS20",
      "version": "0.0.0.0",
      "sizePagesOrUnits": 51,
      "crc32": 1169956449,
      "bpm": 125,
      "bnum": 44,
      "noteCount": 10,
      "notes": [
        {
          "beat": 0,
          "duration": 4,
          "pitch": 48,
          "velocity": 29
        },
        {
          "beat": 0,
          "duration": 1.5,
          "pitch": 55,
          "velocity": 26
        },
        {
          "beat": 0,
          "duration": 1.5,
          "pitch": 60,
          "velocity": 31
        },
        {
          "beat": 0,
          "duration": 1.5,
          "pitch": 64,
          "velocity": 36
        },
        {
          "beat": 1.5,
          "duration": 1.5,
          "pitch": 55,
          "velocity": 18
        },
        {
          "beat": 1.5,
          "duration": 1.5,
          "pitch": 60,
          "velocity": 26
        },
        {
          "beat": 1.5,
          "duration": 1.5,
          "pitch": 64,
          "velocity": 31
        },
        {
          "beat": 3,
          "duration": 1,
          "pitch": 55,
          "velocity": 22
        },
        {
          "beat": 3,
          "duration": 1,
          "pitch": 60,
          "velocity": 30
        },
        {
          "beat": 3,
          "duration": 1,
          "pitch": 64,
          "velocity": 33
        }
      ],
      "decodedMidiPath": "rhythm_midi_patterns/decoded_pattern_midis/PianoMKS20_22.mid"
    },
    {
      "code": "PianoMKS20_24",
      "type": "chord_model_379",
      "subtype": "proller",
      "family": "PianoMKS20",
      "version": "0.0.0.0",
      "sizePagesOrUnits": 79,
      "crc32": 2405395,
      "bpm": 87,
      "bnum": 44,
      "noteCount": 22,
      "notes": [
        {
          "beat": 0,
          "duration": 0.6666666865348816,
          "pitch": 48,
          "velocity": 37
        },
        {
          "beat": 0.6666666865348816,
          "duration": 0.1041666641831398,
          "pitch": 48,
          "velocity": 15
        },
        {
          "beat": 0.6666666865348816,
          "duration": 0.1041666641831398,
          "pitch": 60,
          "velocity": 20
        },
        {
          "beat": 0.6666666865348816,
          "duration": 0.1041666641831398,
          "pitch": 64,
          "velocity": 10
        },
        {
          "beat": 1,
          "duration": 0.662500023841858,
          "pitch": 55,
          "velocity": 36
        },
        {
          "beat": 1,
          "duration": 0.662500023841858,
          "pitch": 60,
          "velocity": 35
        },
        {
          "beat": 1,
          "duration": 0.662500023841858,
          "pitch": 64,
          "velocity": 33
        },
        {
          "beat": 1,
          "duration": 0.662500023841858,
          "pitch": 67,
          "velocity": 38
        },
        {
          "beat": 1.6666666269302368,
          "duration": 0.1041666641831398,
          "pitch": 55,
          "velocity": 25
        },
        {
          "beat": 1.6666666269302368,
          "duration": 0.1041666641831398,
          "pitch": 60,
          "velocity": 25
        },
        {
          "beat": 1.6666666269302368,
          "duration": 0.1041666641831398,
          "pitch": 64,
          "velocity": 20
        },
        {
          "beat": 2,
          "duration": 0.662500023841858,
          "pitch": 48,
          "velocity": 37
        },
        {
          "beat": 2.6666667461395264,
          "duration": 0.1041666641831398,
          "pitch": 48,
          "velocity": 30
        },
        {
          "beat": 2.6666667461395264,
          "duration": 0.1041666641831398,
          "pitch": 60,
          "velocity": 30
        },
        {
          "beat": 2.6666667461395264,
          "duration": 0.1041666641831398,
          "pitch": 64,
          "velocity": 26
        },
        {
          "beat": 3,
          "duration": 0.6666666865348816,
          "pitch": 55,
          "velocity": 35
        },
        {
          "beat": 3,
          "duration": 0.6666666865348816,
          "pitch": 60,
          "velocity": 38
        },
        {
          "beat": 3,
          "duration": 0.6666666865348816,
          "pitch": 64,
          "velocity": 30
        },
        {
          "beat": 3,
          "duration": 0.6666666865348816,
          "pitch": 67,
          "velocity": 31
        },
        {
          "beat": 3.6666667461395264,
          "duration": 0.1041666641831398,
          "pitch": 55,
          "velocity": 20
        },
        {
          "beat": 3.6666667461395264,
          "duration": 0.1041666641831398,
          "pitch": 60,
          "velocity": 20
        },
        {
          "beat": 3.6666667461395264,
          "duration": 0.1041666641831398,
          "pitch": 64,
          "velocity": 15
        }
      ],
      "decodedMidiPath": "rhythm_midi_patterns/decoded_pattern_midis/PianoMKS20_24.mid"
    },
    {
      "code": "PianoMKS20_26",
      "type": "chord_model_379",
      "subtype": "proller",
      "family": "PianoMKS20",
      "version": "1.0.0.0",
      "sizePagesOrUnits": 48,
      "crc32": 2007720262,
      "bpm": 126,
      "bnum": 44,
      "noteCount": 4,
      "notes": [
        {
          "beat": 0,
          "duration": 4,
          "pitch": 48,
          "velocity": 50
        },
        {
          "beat": 0,
          "duration": 4,
          "pitch": 60,
          "velocity": 38
        },
        {
          "beat": 0,
          "duration": 4,
          "pitch": 64,
          "velocity": 35
        },
        {
          "beat": 0,
          "duration": 4,
          "pitch": 67,
          "velocity": 37
        }
      ],
      "decodedMidiPath": "rhythm_midi_patterns/decoded_pattern_midis/PianoMKS20_26.mid"
    },
    {
      "code": "PianoMKS20_29",
      "type": "chord_model_379",
      "subtype": "proller",
      "family": "PianoMKS20",
      "version": "1.0.0.0",
      "sizePagesOrUnits": 113,
      "crc32": 4239920793,
      "bpm": 80,
      "bnum": 44,
      "noteCount": 15,
      "notes": [
        {
          "beat": 0,
          "duration": 0.5,
          "pitch": 48,
          "velocity": 35
        },
        {
          "beat": 0.5,
          "duration": 0.1666666716337204,
          "pitch": 60,
          "velocity": 37
        },
        {
          "beat": 0.5,
          "duration": 0.1666666716337204,
          "pitch": 64,
          "velocity": 48
        },
        {
          "beat": 0.5,
          "duration": 0.1666666716337204,
          "pitch": 67,
          "velocity": 35
        },
        {
          "beat": 1.5,
          "duration": 0.1666666716337204,
          "pitch": 60,
          "velocity": 35
        },
        {
          "beat": 1.5,
          "duration": 0.1666666716337204,
          "pitch": 64,
          "velocity": 45
        },
        {
          "beat": 1.5,
          "duration": 0.1666666716337204,
          "pitch": 67,
          "velocity": 34
        },
        {
          "beat": 2.5,
          "duration": 0.1666666716337204,
          "pitch": 60,
          "velocity": 37
        },
        {
          "beat": 2.5,
          "duration": 0.1666666716337204,
          "pitch": 64,
          "velocity": 44
        },
        {
          "beat": 2.5,
          "duration": 0.1666666716337204,
          "pitch": 67,
          "velocity": 37
        },
        {
          "beat": 3,
          "duration": 0.3333333432674408,
          "pitch": 48,
          "velocity": 19
        },
        {
          "beat": 3.3333332538604736,
          "duration": 0.1666666716337204,
          "pitch": 48,
          "velocity": 25
        },
        {
          "beat": 3.5,
          "duration": 0.1666666716337204,
          "pitch": 60,
          "velocity": 38
        },
        {
          "beat": 3.5,
          "duration": 0.1666666716337204,
          "pitch": 64,
          "velocity": 44
        },
        {
          "beat": 3.5,
          "duration": 0.1666666716337204,
          "pitch": 67,
          "velocity": 37
        }
      ],
      "decodedMidiPath": "rhythm_midi_patterns/decoded_pattern_midis/PianoMKS20_29.mid"
    },
    {
      "code": "PianoMKS20_3",
      "type": "chord_model_379",
      "subtype": "proller",
      "family": "PianoMKS20",
      "version": "0.0.0.0",
      "sizePagesOrUnits": 85,
      "crc32": 894565343,
      "bpm": 72,
      "bnum": 44,
      "noteCount": 13,
      "notes": [
        {
          "beat": 0,
          "duration": 4,
          "pitch": 48,
          "velocity": 31
        },
        {
          "beat": 0,
          "duration": 1,
          "pitch": 60,
          "velocity": 36
        },
        {
          "beat": 0,
          "duration": 1,
          "pitch": 64,
          "velocity": 43
        },
        {
          "beat": 0,
          "duration": 1,
          "pitch": 67,
          "velocity": 46
        },
        {
          "beat": 1,
          "duration": 1,
          "pitch": 60,
          "velocity": 32
        },
        {
          "beat": 1,
          "duration": 1,
          "pitch": 64,
          "velocity": 36
        },
        {
          "beat": 1,
          "duration": 1,
          "pitch": 67,
          "velocity": 24
        },
        {
          "beat": 2,
          "duration": 1,
          "pitch": 60,
          "velocity": 36
        },
        {
          "beat": 2,
          "duration": 1,
          "pitch": 64,
          "velocity": 35
        },
        {
          "beat": 2,
          "duration": 1,
          "pitch": 67,
          "velocity": 36
        },
        {
          "beat": 3,
          "duration": 1,
          "pitch": 60,
          "velocity": 18
        },
        {
          "beat": 3,
          "duration": 1,
          "pitch": 64,
          "velocity": 24
        },
        {
          "beat": 3,
          "duration": 1,
          "pitch": 67,
          "velocity": 15
        }
      ],
      "decodedMidiPath": "rhythm_midi_patterns/decoded_pattern_midis/PianoMKS20_3.mid"
    },
    {
      "code": "PianoMKS20_33",
      "type": "chord_model_379",
      "subtype": "proller",
      "family": "PianoMKS20",
      "version": "0.0.0.0",
      "sizePagesOrUnits": 101,
      "crc32": 2357572592,
      "bpm": 92,
      "bnum": 44,
      "noteCount": 18,
      "notes": [
        {
          "beat": 0,
          "duration": 3,
          "pitch": 48,
          "velocity": 35
        },
        {
          "beat": 0,
          "duration": 1.5,
          "pitch": 72,
          "velocity": 41
        },
        {
          "beat": 0.25,
          "duration": 0.5,
          "pitch": 64,
          "velocity": 18
        },
        {
          "beat": 0.5,
          "duration": 0.5,
          "pitch": 60,
          "velocity": 31
        },
        {
          "beat": 0.75,
          "duration": 0.5,
          "pitch": 64,
          "velocity": 22
        },
        {
          "beat": 1,
          "duration": 1,
          "pitch": 60,
          "velocity": 30
        },
        {
          "beat": 1.25,
          "duration": 0.5,
          "pitch": 64,
          "velocity": 18
        },
        {
          "beat": 1.5,
          "duration": 1.5,
          "pitch": 72,
          "velocity": 40
        },
        {
          "beat": 1.75,
          "duration": 0.5,
          "pitch": 64,
          "velocity": 20
        },
        {
          "beat": 2,
          "duration": 0.5,
          "pitch": 60,
          "velocity": 31
        },
        {
          "beat": 2.25,
          "duration": 0.5,
          "pitch": 64,
          "velocity": 15
        },
        {
          "beat": 2.5,
          "duration": 1,
          "pitch": 60,
          "velocity": 31
        },
        {
          "beat": 2.75,
          "duration": 0.5,
          "pitch": 64,
          "velocity": 24
        },
        {
          "beat": 3,
          "duration": 1,
          "pitch": 48,
          "velocity": 35
        },
        {
          "beat": 3,
          "duration": 1,
          "pitch": 72,
          "velocity": 41
        },
        {
          "beat": 3.25,
          "duration": 0.5,
          "pitch": 64,
          "velocity": 15
        },
        {
          "beat": 3.5,
          "duration": 0.5,
          "pitch": 60,
          "velocity": 31
        },
        {
          "beat": 3.75,
          "duration": 0.25,
          "pitch": 64,
          "velocity": 24
        }
      ],
      "decodedMidiPath": "rhythm_midi_patterns/decoded_pattern_midis/PianoMKS20_33.mid"
    },
    {
      "code": "PianoMKS20_4",
      "type": "chord_model_379",
      "subtype": "proller",
      "family": "PianoMKS20",
      "version": "0.0.0.0",
      "sizePagesOrUnits": 109,
      "crc32": 2523243372,
      "bpm": 80,
      "bnum": 44,
      "noteCount": 17,
      "notes": [
        {
          "beat": 0,
          "duration": 4,
          "pitch": 48,
          "velocity": 50
        },
        {
          "beat": 0,
          "duration": 1,
          "pitch": 55,
          "velocity": 31
        },
        {
          "beat": 0,
          "duration": 1,
          "pitch": 64,
          "velocity": 33
        },
        {
          "beat": 0,
          "duration": 1,
          "pitch": 67,
          "velocity": 42
        },
        {
          "beat": 0.5,
          "duration": 1,
          "pitch": 60,
          "velocity": 34
        },
        {
          "beat": 1,
          "duration": 1,
          "pitch": 55,
          "velocity": 21
        },
        {
          "beat": 1,
          "duration": 1,
          "pitch": 64,
          "velocity": 22
        },
        {
          "beat": 1,
          "duration": 1,
          "pitch": 67,
          "velocity": 29
        },
        {
          "beat": 1.5,
          "duration": 1,
          "pitch": 60,
          "velocity": 18
        },
        {
          "beat": 2,
          "duration": 1,
          "pitch": 55,
          "velocity": 27
        },
        {
          "beat": 2,
          "duration": 1,
          "pitch": 64,
          "velocity": 37
        },
        {
          "beat": 2,
          "duration": 1,
          "pitch": 67,
          "velocity": 39
        },
        {
          "beat": 2.5,
          "duration": 1,
          "pitch": 60,
          "velocity": 33
        },
        {
          "beat": 3,
          "duration": 1,
          "pitch": 55,
          "velocity": 23
        },
        {
          "beat": 3,
          "duration": 1,
          "pitch": 64,
          "velocity": 25
        },
        {
          "beat": 3,
          "duration": 1,
          "pitch": 67,
          "velocity": 28
        },
        {
          "beat": 3.5,
          "duration": 0.5,
          "pitch": 60,
          "velocity": 14
        }
      ],
      "decodedMidiPath": "rhythm_midi_patterns/decoded_pattern_midis/PianoMKS20_4.mid"
    },
    {
      "code": "PianoMKS20_42",
      "type": "chord_model_379",
      "subtype": "proller",
      "family": "PianoMKS20",
      "version": "0.0.0.0",
      "sizePagesOrUnits": 95,
      "crc32": 3474087057,
      "bpm": 104,
      "bnum": 44,
      "noteCount": 12,
      "notes": [
        {
          "beat": 0,
          "duration": 4,
          "pitch": 48,
          "velocity": 34
        },
        {
          "beat": 0,
          "duration": 2,
          "pitch": 55,
          "velocity": 49
        },
        {
          "beat": 0,
          "duration": 2,
          "pitch": 60,
          "velocity": 53
        },
        {
          "beat": 0,
          "duration": 2,
          "pitch": 64,
          "velocity": 53
        },
        {
          "beat": 0,
          "duration": 2,
          "pitch": 67,
          "velocity": 48
        },
        {
          "beat": 2,
          "duration": 0.75,
          "pitch": 55,
          "velocity": 38
        },
        {
          "beat": 2,
          "duration": 1.5,
          "pitch": 60,
          "velocity": 42
        },
        {
          "beat": 2,
          "duration": 1.5,
          "pitch": 64,
          "velocity": 42
        },
        {
          "beat": 2,
          "duration": 2,
          "pitch": 67,
          "velocity": 37
        },
        {
          "beat": 2.75,
          "duration": 1.25,
          "pitch": 55,
          "velocity": 41
        },
        {
          "beat": 3.5,
          "duration": 0.5,
          "pitch": 60,
          "velocity": 42
        },
        {
          "beat": 3.5,
          "duration": 0.5,
          "pitch": 64,
          "velocity": 42
        }
      ],
      "decodedMidiPath": "rhythm_midi_patterns/decoded_pattern_midis/PianoMKS20_42.mid"
    },
    {
      "code": "PianoMKS20_5",
      "type": "chord_model_379",
      "subtype": "proller",
      "family": "PianoMKS20",
      "version": "0.0.0.0",
      "sizePagesOrUnits": 34,
      "crc32": 2397927965,
      "bpm": 120,
      "bnum": 44,
      "noteCount": 7,
      "notes": [
        {
          "beat": 0,
          "duration": 4,
          "pitch": 48,
          "velocity": 50
        },
        {
          "beat": 0,
          "duration": 2,
          "pitch": 60,
          "velocity": 35
        },
        {
          "beat": 0.06458333134651184,
          "duration": 2.93541669845581,
          "pitch": 64,
          "velocity": 30
        },
        {
          "beat": 0.125,
          "duration": 3.875,
          "pitch": 67,
          "velocity": 40
        },
        {
          "beat": 2,
          "duration": 1.5,
          "pitch": 60,
          "velocity": 23
        },
        {
          "beat": 3,
          "duration": 1,
          "pitch": 64,
          "velocity": 30
        },
        {
          "beat": 3.5,
          "duration": 0.5,
          "pitch": 60,
          "velocity": 15
        }
      ],
      "decodedMidiPath": "rhythm_midi_patterns/decoded_pattern_midis/PianoMKS20_5.mid"
    },
    {
      "code": "PianoMKS20_6",
      "type": "chord_model_379",
      "subtype": "proller",
      "family": "PianoMKS20",
      "version": "0.0.0.0",
      "sizePagesOrUnits": 43,
      "crc32": 1312909358,
      "bpm": 90,
      "bnum": 43,
      "noteCount": 4,
      "notes": [
        {
          "beat": 0,
          "duration": 3,
          "pitch": 48,
          "velocity": 48
        },
        {
          "beat": 1,
          "duration": 2,
          "pitch": 60,
          "velocity": 25
        },
        {
          "beat": 2,
          "duration": 1,
          "pitch": 64,
          "velocity": 35
        },
        {
          "beat": 2,
          "duration": 1,
          "pitch": 67,
          "velocity": 28
        }
      ],
      "decodedMidiPath": "rhythm_midi_patterns/decoded_pattern_midis/PianoMKS20_6.mid"
    },
    {
      "code": "PianoMKS20_61",
      "type": "chord_model_379",
      "subtype": "proller",
      "family": "PianoMKS20",
      "version": "0.0.0.0",
      "sizePagesOrUnits": 41,
      "crc32": 4071035974,
      "bpm": 125,
      "bnum": 44,
      "noteCount": 9,
      "notes": [
        {
          "beat": 0,
          "duration": 4,
          "pitch": 48,
          "velocity": 24
        },
        {
          "beat": 0,
          "duration": 1.5,
          "pitch": 67,
          "velocity": 21
        },
        {
          "beat": 0.5,
          "duration": 1.5,
          "pitch": 60,
          "velocity": 20
        },
        {
          "beat": 1,
          "duration": 1.5,
          "pitch": 64,
          "velocity": 34
        },
        {
          "beat": 1.5,
          "duration": 1.5,
          "pitch": 67,
          "velocity": 22
        },
        {
          "beat": 2,
          "duration": 1.5,
          "pitch": 60,
          "velocity": 12
        },
        {
          "beat": 2.5,
          "duration": 1.5,
          "pitch": 64,
          "velocity": 31
        },
        {
          "beat": 3,
          "duration": 1,
          "pitch": 67,
          "velocity": 31
        },
        {
          "beat": 3.5,
          "duration": 0.5,
          "pitch": 60,
          "velocity": 9
        }
      ],
      "decodedMidiPath": "rhythm_midi_patterns/decoded_pattern_midis/PianoMKS20_61.mid"
    },
    {
      "code": "PianoMKS20_62",
      "type": "chord_model_379",
      "subtype": "proller",
      "family": "PianoMKS20",
      "version": "0.0.0.0",
      "sizePagesOrUnits": 43,
      "crc32": 2302986733,
      "bpm": 70,
      "bnum": 44,
      "noteCount": 9,
      "notes": [
        {
          "beat": 0,
          "duration": 4,
          "pitch": 48,
          "velocity": 30
        },
        {
          "beat": 0,
          "duration": 1.25,
          "pitch": 60,
          "velocity": 29
        },
        {
          "beat": 0,
          "duration": 1.5,
          "pitch": 64,
          "velocity": 23
        },
        {
          "beat": 0,
          "duration": 1.75,
          "pitch": 67,
          "velocity": 28
        },
        {
          "beat": 1.25,
          "duration": 1.75,
          "pitch": 60,
          "velocity": 29
        },
        {
          "beat": 1.5,
          "duration": 0.5,
          "pitch": 64,
          "velocity": 27
        },
        {
          "beat": 1.75,
          "duration": 2.25,
          "pitch": 67,
          "velocity": 35
        },
        {
          "beat": 2,
          "duration": 2,
          "pitch": 64,
          "velocity": 23
        },
        {
          "beat": 3,
          "duration": 1,
          "pitch": 60,
          "velocity": 17
        }
      ],
      "decodedMidiPath": "rhythm_midi_patterns/decoded_pattern_midis/PianoMKS20_62.mid"
    },
    {
      "code": "PianoMKS20_63",
      "type": "chord_model_379",
      "subtype": "proller",
      "family": "PianoMKS20",
      "version": "0.0.0.0",
      "sizePagesOrUnits": 47,
      "crc32": 1288156449,
      "bpm": 78,
      "bnum": 44,
      "noteCount": 14,
      "notes": [
        {
          "beat": 0,
          "duration": 1.75,
          "pitch": 48,
          "velocity": 36
        },
        {
          "beat": 0.02291666716337204,
          "duration": 1.2270833253860474,
          "pitch": 60,
          "velocity": 35
        },
        {
          "beat": 0.0416666679084301,
          "duration": 0.7083333134651184,
          "pitch": 64,
          "velocity": 32
        },
        {
          "beat": 0.05624999850988388,
          "duration": 1.443750023841858,
          "pitch": 67,
          "velocity": 35
        },
        {
          "beat": 0.75,
          "duration": 1.25,
          "pitch": 64,
          "velocity": 24
        },
        {
          "beat": 1.25,
          "duration": 0.75,
          "pitch": 60,
          "velocity": 20
        },
        {
          "beat": 1.5,
          "duration": 1.75,
          "pitch": 67,
          "velocity": 35
        },
        {
          "beat": 1.75,
          "duration": 0.25,
          "pitch": 48,
          "velocity": 35
        },
        {
          "beat": 2,
          "duration": 2,
          "pitch": 48,
          "velocity": 36
        },
        {
          "beat": 2,
          "duration": 1.75,
          "pitch": 60,
          "velocity": 35
        },
        {
          "beat": 2,
          "duration": 1.5,
          "pitch": 64,
          "velocity": 32
        },
        {
          "beat": 3.25,
          "duration": 0.75,
          "pitch": 67,
          "velocity": 25
        },
        {
          "beat": 3.5,
          "duration": 0.5,
          "pitch": 64,
          "velocity": 30
        },
        {
          "beat": 3.75,
          "duration": 0.25,
          "pitch": 60,
          "velocity": 20
        }
      ],
      "decodedMidiPath": "rhythm_midi_patterns/decoded_pattern_midis/PianoMKS20_63.mid"
    },
    {
      "code": "PianoMKS20_64",
      "type": "chord_model_379",
      "subtype": "proller",
      "family": "PianoMKS20",
      "version": "0.0.0.0",
      "sizePagesOrUnits": 54,
      "crc32": 4270781553,
      "bpm": 108,
      "bnum": 44,
      "noteCount": 8,
      "notes": [
        {
          "beat": 0,
          "duration": 4,
          "pitch": 48,
          "velocity": 33
        },
        {
          "beat": 0.5,
          "duration": 3.5,
          "pitch": 55,
          "velocity": 20
        },
        {
          "beat": 1,
          "duration": 1.5,
          "pitch": 60,
          "velocity": 31
        },
        {
          "beat": 1.5,
          "duration": 1.5,
          "pitch": 64,
          "velocity": 22
        },
        {
          "beat": 2,
          "duration": 1.5,
          "pitch": 67,
          "velocity": 38
        },
        {
          "beat": 2.5,
          "duration": 1.5,
          "pitch": 60,
          "velocity": 20
        },
        {
          "beat": 3,
          "duration": 1,
          "pitch": 64,
          "velocity": 20
        },
        {
          "beat": 3.5,
          "duration": 0.5,
          "pitch": 67,
          "velocity": 25
        }
      ],
      "decodedMidiPath": "rhythm_midi_patterns/decoded_pattern_midis/PianoMKS20_64.mid"
    },
    {
      "code": "PianoMKS20_65",
      "type": "chord_model_379",
      "subtype": "proller",
      "family": "PianoMKS20",
      "version": "0.0.0.0",
      "sizePagesOrUnits": 70,
      "crc32": 662916645,
      "bpm": 90,
      "bnum": 44,
      "noteCount": 11,
      "notes": [
        {
          "beat": 0,
          "duration": 4,
          "pitch": 48,
          "velocity": 37
        },
        {
          "beat": 0.25,
          "duration": 3.25,
          "pitch": 55,
          "velocity": 32
        },
        {
          "beat": 0.5,
          "duration": 1,
          "pitch": 60,
          "velocity": 36
        },
        {
          "beat": 0.75,
          "duration": 0.75,
          "pitch": 64,
          "velocity": 36
        },
        {
          "beat": 1.5,
          "duration": 1.75,
          "pitch": 60,
          "velocity": 38
        },
        {
          "beat": 1.5,
          "duration": 1.5,
          "pitch": 64,
          "velocity": 38
        },
        {
          "beat": 1.5,
          "duration": 2.5,
          "pitch": 67,
          "velocity": 31
        },
        {
          "beat": 3,
          "duration": 1,
          "pitch": 64,
          "velocity": 36
        },
        {
          "beat": 3.25,
          "duration": 0.5,
          "pitch": 60,
          "velocity": 29
        },
        {
          "beat": 3.5,
          "duration": 0.5,
          "pitch": 55,
          "velocity": 23
        },
        {
          "beat": 3.75,
          "duration": 0.25,
          "pitch": 60,
          "velocity": 22
        }
      ],
      "decodedMidiPath": "rhythm_midi_patterns/decoded_pattern_midis/PianoMKS20_65.mid"
    },
    {
      "code": "PianoMKS20_66",
      "type": "chord_model_379",
      "subtype": "proller",
      "family": "PianoMKS20",
      "version": "0.0.0.0",
      "sizePagesOrUnits": 102,
      "crc32": 3166005793,
      "bpm": 72,
      "bnum": 44,
      "noteCount": 17,
      "notes": [
        {
          "beat": 0,
          "duration": 4,
          "pitch": 48,
          "velocity": 34
        },
        {
          "beat": 0,
          "duration": 1.5,
          "pitch": 55,
          "velocity": 32
        },
        {
          "beat": 0,
          "duration": 1.5,
          "pitch": 60,
          "velocity": 36
        },
        {
          "beat": 0,
          "duration": 1.5,
          "pitch": 64,
          "velocity": 36
        },
        {
          "beat": 0,
          "duration": 1.5,
          "pitch": 67,
          "velocity": 31
        },
        {
          "beat": 1.5,
          "duration": 0.75,
          "pitch": 55,
          "velocity": 18
        },
        {
          "beat": 1.5,
          "duration": 1,
          "pitch": 60,
          "velocity": 22
        },
        {
          "beat": 1.5,
          "duration": 1.25,
          "pitch": 64,
          "velocity": 22
        },
        {
          "beat": 1.5,
          "duration": 2,
          "pitch": 67,
          "velocity": 17
        },
        {
          "beat": 2,
          "duration": 2,
          "pitch": 52,
          "velocity": 38
        },
        {
          "beat": 2.25,
          "duration": 1.25,
          "pitch": 55,
          "velocity": 38
        },
        {
          "beat": 2.5,
          "duration": 1,
          "pitch": 60,
          "velocity": 38
        },
        {
          "beat": 2.75,
          "duration": 0.75,
          "pitch": 64,
          "velocity": 36
        },
        {
          "beat": 3.5,
          "duration": 0.5,
          "pitch": 55,
          "velocity": 18
        },
        {
          "beat": 3.5,
          "duration": 0.5,
          "pitch": 60,
          "velocity": 22
        },
        {
          "beat": 3.5,
          "duration": 0.5,
          "pitch": 64,
          "velocity": 22
        },
        {
          "beat": 3.5,
          "duration": 0.5,
          "pitch": 67,
          "velocity": 17
        }
      ],
      "decodedMidiPath": "rhythm_midi_patterns/decoded_pattern_midis/PianoMKS20_66.mid"
    },
    {
      "code": "PianoMKS20_67",
      "type": "chord_model_379",
      "subtype": "proller",
      "family": "PianoMKS20",
      "version": "0.0.0.0",
      "sizePagesOrUnits": 35,
      "crc32": 3658691160,
      "bpm": 67,
      "bnum": 44,
      "noteCount": 6,
      "notes": [
        {
          "beat": 0,
          "duration": 4,
          "pitch": 48,
          "velocity": 20
        },
        {
          "beat": 0.5,
          "duration": 2,
          "pitch": 60,
          "velocity": 22
        },
        {
          "beat": 1,
          "duration": 2,
          "pitch": 67,
          "velocity": 35
        },
        {
          "beat": 1.5,
          "duration": 2.5,
          "pitch": 64,
          "velocity": 25
        },
        {
          "beat": 2.5,
          "duration": 1.5,
          "pitch": 60,
          "velocity": 28
        },
        {
          "beat": 3,
          "duration": 1,
          "pitch": 67,
          "velocity": 25
        }
      ],
      "decodedMidiPath": "rhythm_midi_patterns/decoded_pattern_midis/PianoMKS20_67.mid"
    },
    {
      "code": "PianoMKS20_68",
      "type": "chord_model_379",
      "subtype": "proller",
      "family": "PianoMKS20",
      "version": "0.0.0.0",
      "sizePagesOrUnits": 35,
      "crc32": 4075919237,
      "bpm": 67,
      "bnum": 44,
      "noteCount": 8,
      "notes": [
        {
          "beat": 0,
          "duration": 2,
          "pitch": 48,
          "velocity": 40
        },
        {
          "beat": 0,
          "duration": 2,
          "pitch": 60,
          "velocity": 46
        },
        {
          "beat": 0,
          "duration": 2,
          "pitch": 64,
          "velocity": 55
        },
        {
          "beat": 0,
          "duration": 2,
          "pitch": 67,
          "velocity": 44
        },
        {
          "beat": 2,
          "duration": 2,
          "pitch": 48,
          "velocity": 43
        },
        {
          "beat": 2,
          "duration": 2,
          "pitch": 60,
          "velocity": 40
        },
        {
          "beat": 2,
          "duration": 2,
          "pitch": 64,
          "velocity": 51
        },
        {
          "beat": 2,
          "duration": 2,
          "pitch": 67,
          "velocity": 47
        }
      ],
      "decodedMidiPath": "rhythm_midi_patterns/decoded_pattern_midis/PianoMKS20_68.mid"
    },
    {
      "code": "PianoMKS20_69",
      "type": "chord_model_379",
      "subtype": "proller",
      "family": "PianoMKS20",
      "version": "0.0.0.0",
      "sizePagesOrUnits": 39,
      "crc32": 228671110,
      "bpm": 90,
      "bnum": 86,
      "noteCount": 9,
      "notes": [
        {
          "beat": 0,
          "duration": 1.5,
          "pitch": 48,
          "velocity": 37
        },
        {
          "beat": 0.5,
          "duration": 1,
          "pitch": 55,
          "velocity": 27
        },
        {
          "beat": 1,
          "duration": 0.5,
          "pitch": 60,
          "velocity": 22
        },
        {
          "beat": 1.5,
          "duration": 0.1666666716337204,
          "pitch": 48,
          "velocity": 30
        },
        {
          "beat": 1.5,
          "duration": 0.1666666716337204,
          "pitch": 55,
          "velocity": 20
        },
        {
          "beat": 1.5,
          "duration": 0.1666666716337204,
          "pitch": 60,
          "velocity": 15
        },
        {
          "beat": 1.5,
          "duration": 0.1666666716337204,
          "pitch": 64,
          "velocity": 41
        },
        {
          "beat": 1.5,
          "duration": 0.1666666716337204,
          "pitch": 67,
          "velocity": 47
        },
        {
          "beat": 1.5,
          "duration": 0.1666666716337204,
          "pitch": 72,
          "velocity": 50
        }
      ],
      "decodedMidiPath": "rhythm_midi_patterns/decoded_pattern_midis/PianoMKS20_69.mid"
    },
    {
      "code": "PianoMKS20_7",
      "type": "chord_model_379",
      "subtype": "proller",
      "family": "PianoMKS20",
      "version": "0.0.0.0",
      "sizePagesOrUnits": 54,
      "crc32": 2606081714,
      "bpm": 72,
      "bnum": 86,
      "noteCount": 7,
      "notes": [
        {
          "beat": 0,
          "duration": 3,
          "pitch": 48,
          "velocity": 51
        },
        {
          "beat": 0,
          "duration": 1.5,
          "pitch": 52,
          "velocity": 25
        },
        {
          "beat": 0.5,
          "duration": 1,
          "pitch": 55,
          "velocity": 21
        },
        {
          "beat": 1,
          "duration": 0.5,
          "pitch": 60,
          "velocity": 56
        },
        {
          "beat": 1.5,
          "duration": 1.5,
          "pitch": 64,
          "velocity": 47
        },
        {
          "beat": 2,
          "duration": 1,
          "pitch": 60,
          "velocity": 41
        },
        {
          "beat": 2.5,
          "duration": 0.5083333253860474,
          "pitch": 55,
          "velocity": 18
        }
      ],
      "decodedMidiPath": "rhythm_midi_patterns/decoded_pattern_midis/PianoMKS20_7.mid"
    },
    {
      "code": "PianoMKS20_70",
      "type": "chord_model_379",
      "subtype": "proller",
      "family": "PianoMKS20",
      "version": "0.0.0.0",
      "sizePagesOrUnits": 71,
      "crc32": 875237182,
      "bpm": 90,
      "bnum": 86,
      "noteCount": 21,
      "notes": [
        {
          "beat": 0,
          "duration": 1.5,
          "pitch": 48,
          "velocity": 36
        },
        {
          "beat": 0,
          "duration": 0.1145833358168602,
          "pitch": 64,
          "velocity": 26
        },
        {
          "beat": 0,
          "duration": 0.10833333432674408,
          "pitch": 67,
          "velocity": 38
        },
        {
          "beat": 0,
          "duration": 0.10625000298023224,
          "pitch": 72,
          "velocity": 43
        },
        {
          "beat": 0.5,
          "duration": 0.09375,
          "pitch": 64,
          "velocity": 31
        },
        {
          "beat": 0.5,
          "duration": 0.10208333283662796,
          "pitch": 67,
          "velocity": 45
        },
        {
          "beat": 0.5,
          "duration": 0.09375,
          "pitch": 72,
          "velocity": 38
        },
        {
          "beat": 1,
          "duration": 0.11041666567325592,
          "pitch": 64,
          "velocity": 26
        },
        {
          "beat": 1,
          "duration": 0.1145833358168602,
          "pitch": 67,
          "velocity": 41
        },
        {
          "beat": 1,
          "duration": 0.11041666567325592,
          "pitch": 72,
          "velocity": 36
        },
        {
          "beat": 1.5,
          "duration": 0.1666666716337204,
          "pitch": 48,
          "velocity": 16
        },
        {
          "beat": 1.5,
          "duration": 0.1666666716337204,
          "pitch": 55,
          "velocity": 31
        },
        {
          "beat": 1.5,
          "duration": 0.11041666567325592,
          "pitch": 64,
          "velocity": 44
        },
        {
          "beat": 1.5,
          "duration": 0.11249999701976776,
          "pitch": 67,
          "velocity": 51
        },
        {
          "beat": 1.5,
          "duration": 0.09583333134651184,
          "pitch": 72,
          "velocity": 47
        },
        {
          "beat": 2,
          "duration": 0.09375,
          "pitch": 64,
          "velocity": 31
        },
        {
          "beat": 2,
          "duration": 0.10208333283662796,
          "pitch": 67,
          "velocity": 45
        },
        {
          "beat": 2,
          "duration": 0.09375,
          "pitch": 72,
          "velocity": 38
        },
        {
          "beat": 2.5,
          "duration": 0.11041666567325592,
          "pitch": 64,
          "velocity": 26
        },
        {
          "beat": 2.5,
          "duration": 0.1145833358168602,
          "pitch": 67,
          "velocity": 41
        },
        {
          "beat": 2.5,
          "duration": 0.11041666567325592,
          "pitch": 72,
          "velocity": 36
        }
      ],
      "decodedMidiPath": "rhythm_midi_patterns/decoded_pattern_midis/PianoMKS20_70.mid"
    },
    {
      "code": "PianoMKS20_72",
      "type": "chord_model_379",
      "subtype": "proller",
      "family": "PianoMKS20",
      "version": "0.0.0.0",
      "sizePagesOrUnits": 140,
      "crc32": 1534254905,
      "bpm": 125,
      "bnum": 44,
      "noteCount": 20,
      "notes": [
        {
          "beat": 0,
          "duration": 0.737500011920929,
          "pitch": 48,
          "velocity": 40
        },
        {
          "beat": 0,
          "duration": 0.737500011920929,
          "pitch": 60,
          "velocity": 40
        },
        {
          "beat": 0,
          "duration": 0.737500011920929,
          "pitch": 64,
          "velocity": 40
        },
        {
          "beat": 0,
          "duration": 0.737500011920929,
          "pitch": 67,
          "velocity": 40
        },
        {
          "beat": 1,
          "duration": 0.737500011920929,
          "pitch": 48,
          "velocity": 35
        },
        {
          "beat": 1,
          "duration": 0.737500011920929,
          "pitch": 60,
          "velocity": 35
        },
        {
          "beat": 1,
          "duration": 0.737500011920929,
          "pitch": 64,
          "velocity": 35
        },
        {
          "beat": 1,
          "duration": 0.737500011920929,
          "pitch": 67,
          "velocity": 35
        },
        {
          "beat": 2,
          "duration": 0.612500011920929,
          "pitch": 48,
          "velocity": 40
        },
        {
          "beat": 2,
          "duration": 0.612500011920929,
          "pitch": 60,
          "velocity": 40
        },
        {
          "beat": 2,
          "duration": 0.612500011920929,
          "pitch": 64,
          "velocity": 40
        },
        {
          "beat": 2,
          "duration": 0.612500011920929,
          "pitch": 67,
          "velocity": 40
        },
        {
          "beat": 2.75,
          "duration": 0.23749999701976776,
          "pitch": 48,
          "velocity": 35
        },
        {
          "beat": 2.75,
          "duration": 0.23749999701976776,
          "pitch": 60,
          "velocity": 35
        },
        {
          "beat": 2.75,
          "duration": 0.23749999701976776,
          "pitch": 64,
          "velocity": 35
        },
        {
          "beat": 2.75,
          "duration": 0.23749999701976776,
          "pitch": 67,
          "velocity": 35
        },
        {
          "beat": 3.25,
          "duration": 0.625,
          "pitch": 48,
          "velocity": 35
        },
        {
          "beat": 3.25,
          "duration": 0.625,
          "pitch": 60,
          "velocity": 35
        },
        {
          "beat": 3.25,
          "duration": 0.625,
          "pitch": 64,
          "velocity": 35
        },
        {
          "beat": 3.25,
          "duration": 0.625,
          "pitch": 67,
          "velocity": 35
        }
      ],
      "decodedMidiPath": "rhythm_midi_patterns/decoded_pattern_midis/PianoMKS20_72.mid"
    },
    {
      "code": "PianoMKS20_73",
      "type": "chord_model_379",
      "subtype": "proller",
      "family": "PianoMKS20",
      "version": "0.0.0.0",
      "sizePagesOrUnits": 111,
      "crc32": 2365938358,
      "bpm": 70,
      "bnum": 44,
      "noteCount": 16,
      "notes": [
        {
          "beat": 0,
          "duration": 0.23749999701976776,
          "pitch": 48,
          "velocity": 35
        },
        {
          "beat": 0.5,
          "duration": 0.23749999701976776,
          "pitch": 60,
          "velocity": 40
        },
        {
          "beat": 0.5,
          "duration": 0.23749999701976776,
          "pitch": 64,
          "velocity": 40
        },
        {
          "beat": 0.5,
          "duration": 0.23749999701976776,
          "pitch": 67,
          "velocity": 40
        },
        {
          "beat": 0.75,
          "duration": 0.23333333432674408,
          "pitch": 48,
          "velocity": 35
        },
        {
          "beat": 1.25,
          "duration": 0.23749999701976776,
          "pitch": 60,
          "velocity": 40
        },
        {
          "beat": 1.25,
          "duration": 0.23749999701976776,
          "pitch": 64,
          "velocity": 40
        },
        {
          "beat": 1.25,
          "duration": 0.23749999701976776,
          "pitch": 67,
          "velocity": 40
        },
        {
          "beat": 1.75,
          "duration": 0.23125000298023224,
          "pitch": 48,
          "velocity": 35
        },
        {
          "beat": 2.25,
          "duration": 0.23749999701976776,
          "pitch": 60,
          "velocity": 40
        },
        {
          "beat": 2.25,
          "duration": 0.23749999701976776,
          "pitch": 64,
          "velocity": 40
        },
        {
          "beat": 2.25,
          "duration": 0.23749999701976776,
          "pitch": 67,
          "velocity": 40
        },
        {
          "beat": 2.75,
          "duration": 0.23749999701976776,
          "pitch": 48,
          "velocity": 35
        },
        {
          "beat": 3.25,
          "duration": 0.23749999701976776,
          "pitch": 60,
          "velocity": 40
        },
        {
          "beat": 3.25,
          "duration": 0.23749999701976776,
          "pitch": 64,
          "velocity": 40
        },
        {
          "beat": 3.25,
          "duration": 0.23749999701976776,
          "pitch": 67,
          "velocity": 40
        }
      ],
      "decodedMidiPath": "rhythm_midi_patterns/decoded_pattern_midis/PianoMKS20_73.mid"
    },
    {
      "code": "PianoMKS20_74",
      "type": "chord_model_379",
      "subtype": "proller",
      "family": "PianoMKS20",
      "version": "0.0.0.0",
      "sizePagesOrUnits": 149,
      "crc32": 2946571437,
      "bpm": 93,
      "bnum": 44,
      "noteCount": 27,
      "notes": [
        {
          "beat": 0,
          "duration": 0.25,
          "pitch": 48,
          "velocity": 43
        },
        {
          "beat": 0.25,
          "duration": 0.25,
          "pitch": 55,
          "velocity": 43
        },
        {
          "beat": 0.5,
          "duration": 0.11249999701976776,
          "pitch": 64,
          "velocity": 33
        },
        {
          "beat": 0.5,
          "duration": 0.13958333432674408,
          "pitch": 67,
          "velocity": 42
        },
        {
          "beat": 0.5,
          "duration": 0.13124999403953552,
          "pitch": 72,
          "velocity": 33
        },
        {
          "beat": 0.75,
          "duration": 0.0729166641831398,
          "pitch": 48,
          "velocity": 41
        },
        {
          "beat": 1,
          "duration": 0.04791666567325592,
          "pitch": 64,
          "velocity": 50
        },
        {
          "beat": 1.25,
          "duration": 0.10208333283662796,
          "pitch": 64,
          "velocity": 47
        },
        {
          "beat": 1.25,
          "duration": 0.11249999701976776,
          "pitch": 67,
          "velocity": 57
        },
        {
          "beat": 1.25,
          "duration": 0.09791667014360428,
          "pitch": 72,
          "velocity": 47
        },
        {
          "beat": 1.75,
          "duration": 0.0520833320915699,
          "pitch": 55,
          "velocity": 22
        },
        {
          "beat": 2,
          "duration": 0.12083332985639572,
          "pitch": 64,
          "velocity": 51
        },
        {
          "beat": 2,
          "duration": 0.15416666865348816,
          "pitch": 67,
          "velocity": 42
        },
        {
          "beat": 2,
          "duration": 0.16041666269302368,
          "pitch": 72,
          "velocity": 39
        },
        {
          "beat": 2.25,
          "duration": 0.06666667014360428,
          "pitch": 60,
          "velocity": 30
        },
        {
          "beat": 2.5,
          "duration": 0.04583333432674408,
          "pitch": 64,
          "velocity": 30
        },
        {
          "beat": 2.75,
          "duration": 0.11249999701976776,
          "pitch": 64,
          "velocity": 43
        },
        {
          "beat": 2.75,
          "duration": 0.1458333283662796,
          "pitch": 67,
          "velocity": 49
        },
        {
          "beat": 2.75,
          "duration": 0.11666666716337204,
          "pitch": 72,
          "velocity": 46
        },
        {
          "beat": 3,
          "duration": 0.0625,
          "pitch": 60,
          "velocity": 37
        },
        {
          "beat": 3.25,
          "duration": 0.05000000074505806,
          "pitch": 60,
          "velocity": 36
        },
        {
          "beat": 3.5,
          "duration": 0.23333333432674408,
          "pitch": 64,
          "velocity": 53
        },
        {
          "beat": 3.5,
          "duration": 0.21458333730697632,
          "pitch": 67,
          "velocity": 49
        },
        {
          "beat": 3.5,
          "duration": 0.19583334028720856,
          "pitch": 72,
          "velocity": 43
        },
        {
          "beat": 3.75,
          "duration": 0.13958333432674408,
          "pitch": 64,
          "velocity": 50
        },
        {
          "beat": 3.75,
          "duration": 0.10208333283662796,
          "pitch": 67,
          "velocity": 38
        },
        {
          "beat": 3.75,
          "duration": 0.13333334028720856,
          "pitch": 72,
          "velocity": 36
        }
      ],
      "decodedMidiPath": "rhythm_midi_patterns/decoded_pattern_midis/PianoMKS20_74.mid"
    },
    {
      "code": "PianoMKS20_75",
      "type": "chord_model_379",
      "subtype": "proller",
      "family": "PianoMKS20",
      "version": "0.0.0.0",
      "sizePagesOrUnits": 126,
      "crc32": 615473028,
      "bpm": 126,
      "bnum": 44,
      "noteCount": 20,
      "notes": [
        {
          "beat": 0,
          "duration": 0.75,
          "pitch": 48,
          "velocity": 30
        },
        {
          "beat": 0.5,
          "duration": 0.5,
          "pitch": 60,
          "velocity": 35
        },
        {
          "beat": 0.5,
          "duration": 0.5,
          "pitch": 64,
          "velocity": 35
        },
        {
          "beat": 0.5,
          "duration": 0.5,
          "pitch": 67,
          "velocity": 35
        },
        {
          "beat": 1,
          "duration": 0.5,
          "pitch": 55,
          "velocity": 30
        },
        {
          "beat": 1.25,
          "duration": 0.5,
          "pitch": 60,
          "velocity": 35
        },
        {
          "beat": 1.25,
          "duration": 0.5,
          "pitch": 64,
          "velocity": 35
        },
        {
          "beat": 1.25,
          "duration": 0.5,
          "pitch": 67,
          "velocity": 35
        },
        {
          "beat": 1.75,
          "duration": 0.5,
          "pitch": 48,
          "velocity": 30
        },
        {
          "beat": 2,
          "duration": 0.5,
          "pitch": 60,
          "velocity": 35
        },
        {
          "beat": 2,
          "duration": 0.5,
          "pitch": 64,
          "velocity": 35
        },
        {
          "beat": 2,
          "duration": 0.5,
          "pitch": 67,
          "velocity": 35
        },
        {
          "beat": 2.5,
          "duration": 0.5,
          "pitch": 55,
          "velocity": 30
        },
        {
          "beat": 2.75,
          "duration": 0.5,
          "pitch": 60,
          "velocity": 35
        },
        {
          "beat": 2.75,
          "duration": 0.5,
          "pitch": 64,
          "velocity": 35
        },
        {
          "beat": 2.75,
          "duration": 0.5,
          "pitch": 67,
          "velocity": 35
        },
        {
          "beat": 3.25,
          "duration": 0.5,
          "pitch": 48,
          "velocity": 30
        },
        {
          "beat": 3.5,
          "duration": 0.4375,
          "pitch": 60,
          "velocity": 35
        },
        {
          "beat": 3.5,
          "duration": 0.4375,
          "pitch": 64,
          "velocity": 35
        },
        {
          "beat": 3.5,
          "duration": 0.4375,
          "pitch": 67,
          "velocity": 35
        }
      ],
      "decodedMidiPath": "rhythm_midi_patterns/decoded_pattern_midis/PianoMKS20_75.mid"
    },
    {
      "code": "PianoMKS20_76",
      "type": "chord_model_379",
      "subtype": "proller",
      "family": "PianoMKS20",
      "version": "0.0.0.0",
      "sizePagesOrUnits": 60,
      "crc32": 1280127572,
      "bpm": 75,
      "bnum": 44,
      "noteCount": 13,
      "notes": [
        {
          "beat": 0,
          "duration": 4.043749809265137,
          "pitch": 48,
          "velocity": 23
        },
        {
          "beat": 0,
          "duration": 0.9604166746139526,
          "pitch": 60,
          "velocity": 19
        },
        {
          "beat": 0.25,
          "duration": 1,
          "pitch": 67,
          "velocity": 21
        },
        {
          "beat": 0.5,
          "duration": 1,
          "pitch": 72,
          "velocity": 25
        },
        {
          "beat": 1,
          "duration": 0.9604166746139526,
          "pitch": 60,
          "velocity": 7
        },
        {
          "beat": 1.25,
          "duration": 1,
          "pitch": 67,
          "velocity": 17
        },
        {
          "beat": 1.5,
          "duration": 1,
          "pitch": 72,
          "velocity": 23
        },
        {
          "beat": 2,
          "duration": 0.9604166746139526,
          "pitch": 60,
          "velocity": 28
        },
        {
          "beat": 2.25,
          "duration": 1,
          "pitch": 67,
          "velocity": 7
        },
        {
          "beat": 2.5,
          "duration": 1,
          "pitch": 72,
          "velocity": 25
        },
        {
          "beat": 3,
          "duration": 0.9604166746139526,
          "pitch": 60,
          "velocity": 20
        },
        {
          "beat": 3.25,
          "duration": 0.75,
          "pitch": 67,
          "velocity": 5
        },
        {
          "beat": 3.5,
          "duration": 0.5,
          "pitch": 72,
          "velocity": 29
        }
      ],
      "decodedMidiPath": "rhythm_midi_patterns/decoded_pattern_midis/PianoMKS20_76.mid"
    },
    {
      "code": "PianoMKS20_8",
      "type": "chord_model_379",
      "subtype": "proller",
      "family": "PianoMKS20",
      "version": "0.0.0.0",
      "sizePagesOrUnits": 88,
      "crc32": 2497300106,
      "bpm": 72,
      "bnum": 44,
      "noteCount": 15,
      "notes": [
        {
          "beat": 0,
          "duration": 4,
          "pitch": 48,
          "velocity": 32
        },
        {
          "beat": 0,
          "duration": 1,
          "pitch": 60,
          "velocity": 42
        },
        {
          "beat": 0,
          "duration": 1,
          "pitch": 64,
          "velocity": 52
        },
        {
          "beat": 0,
          "duration": 1,
          "pitch": 67,
          "velocity": 40
        },
        {
          "beat": 1,
          "duration": 1,
          "pitch": 60,
          "velocity": 32
        },
        {
          "beat": 1,
          "duration": 1,
          "pitch": 64,
          "velocity": 43
        },
        {
          "beat": 1,
          "duration": 1,
          "pitch": 67,
          "velocity": 30
        },
        {
          "beat": 1.5,
          "duration": 2,
          "pitch": 55,
          "velocity": 32
        },
        {
          "beat": 2,
          "duration": 1,
          "pitch": 60,
          "velocity": 32
        },
        {
          "beat": 2,
          "duration": 1,
          "pitch": 64,
          "velocity": 43
        },
        {
          "beat": 2,
          "duration": 1,
          "pitch": 67,
          "velocity": 30
        },
        {
          "beat": 3,
          "duration": 1,
          "pitch": 60,
          "velocity": 35
        },
        {
          "beat": 3,
          "duration": 1,
          "pitch": 64,
          "velocity": 41
        },
        {
          "beat": 3,
          "duration": 1,
          "pitch": 67,
          "velocity": 28
        },
        {
          "beat": 3.5,
          "duration": 0.5,
          "pitch": 55,
          "velocity": 26
        }
      ],
      "decodedMidiPath": "rhythm_midi_patterns/decoded_pattern_midis/PianoMKS20_8.mid"
    },
    {
      "code": "PianoMKS20_9",
      "type": "chord_model_379",
      "subtype": "proller",
      "family": "PianoMKS20",
      "version": "0.0.0.0",
      "sizePagesOrUnits": 44,
      "crc32": 1667638933,
      "bpm": 67,
      "bnum": 44,
      "noteCount": 9,
      "notes": [
        {
          "beat": 0,
          "duration": 2,
          "pitch": 48,
          "velocity": 50
        },
        {
          "beat": 0.014583333395421505,
          "duration": 1.9854166507720947,
          "pitch": 60,
          "velocity": 37
        },
        {
          "beat": 0.02083333395421505,
          "duration": 1.9791666269302368,
          "pitch": 64,
          "velocity": 43
        },
        {
          "beat": 0.03125,
          "duration": 1.96875,
          "pitch": 67,
          "velocity": 48
        },
        {
          "beat": 2,
          "duration": 2,
          "pitch": 48,
          "velocity": 40
        },
        {
          "beat": 2,
          "duration": 2,
          "pitch": 60,
          "velocity": 35
        },
        {
          "beat": 2,
          "duration": 2,
          "pitch": 64,
          "velocity": 32
        },
        {
          "beat": 2,
          "duration": 2,
          "pitch": 67,
          "velocity": 27
        },
        {
          "beat": 3,
          "duration": 1,
          "pitch": 55,
          "velocity": 25
        }
      ],
      "decodedMidiPath": "rhythm_midi_patterns/decoded_pattern_midis/PianoMKS20_9.mid"
    },
    {
      "code": "PianoRhodesWarm_1",
      "type": "chord_model_379",
      "subtype": "proller",
      "family": "PianoRhodesWarm",
      "version": "0.0.0.0",
      "sizePagesOrUnits": 60,
      "crc32": 4211172873,
      "bpm": 75,
      "bnum": 44,
      "noteCount": 9,
      "notes": [
        {
          "beat": 0,
          "duration": 4,
          "pitch": 48,
          "velocity": 53
        },
        {
          "beat": 0.5,
          "duration": 1,
          "pitch": 55,
          "velocity": 46
        },
        {
          "beat": 1,
          "duration": 2,
          "pitch": 64,
          "velocity": 64
        },
        {
          "beat": 1.5,
          "duration": 1,
          "pitch": 55,
          "velocity": 33
        },
        {
          "beat": 2,
          "duration": 2,
          "pitch": 60,
          "velocity": 50
        },
        {
          "beat": 2,
          "duration": 2,
          "pitch": 67,
          "velocity": 43
        },
        {
          "beat": 2.5,
          "duration": 1,
          "pitch": 55,
          "velocity": 42
        },
        {
          "beat": 3,
          "duration": 1,
          "pitch": 64,
          "velocity": 55
        },
        {
          "beat": 3.5,
          "duration": 0.5,
          "pitch": 55,
          "velocity": 33
        }
      ],
      "decodedMidiPath": "rhythm_midi_patterns/decoded_pattern_midis/PianoRhodesWarm_1.mid"
    },
    {
      "code": "PianoRhodesWarm_10",
      "type": "chord_model_379",
      "subtype": "proller",
      "family": "PianoRhodesWarm",
      "version": "0.0.0.0",
      "sizePagesOrUnits": 49,
      "crc32": 1140141296,
      "bpm": 72,
      "bnum": 44,
      "noteCount": 14,
      "notes": [
        {
          "beat": 0,
          "duration": 2,
          "pitch": 48,
          "velocity": 20
        },
        {
          "beat": 0.25,
          "duration": 0.5,
          "pitch": 55,
          "velocity": 34
        },
        {
          "beat": 0.5,
          "duration": 1.25,
          "pitch": 60,
          "velocity": 30
        },
        {
          "beat": 0.75,
          "duration": 1.5,
          "pitch": 55,
          "velocity": 29
        },
        {
          "beat": 1,
          "duration": 3,
          "pitch": 67,
          "velocity": 25
        },
        {
          "beat": 1.5,
          "duration": 1.5,
          "pitch": 64,
          "velocity": 18
        },
        {
          "beat": 1.75,
          "duration": 0.75,
          "pitch": 60,
          "velocity": 13
        },
        {
          "beat": 2,
          "duration": 2,
          "pitch": 48,
          "velocity": 21
        },
        {
          "beat": 2.25,
          "duration": 0.5,
          "pitch": 55,
          "velocity": 31
        },
        {
          "beat": 2.5,
          "duration": 1,
          "pitch": 60,
          "velocity": 30
        },
        {
          "beat": 2.75,
          "duration": 1,
          "pitch": 55,
          "velocity": 20
        },
        {
          "beat": 3,
          "duration": 1,
          "pitch": 64,
          "velocity": 25
        },
        {
          "beat": 3.5,
          "duration": 0.5,
          "pitch": 60,
          "velocity": 20
        },
        {
          "beat": 3.75,
          "duration": 0.25,
          "pitch": 55,
          "velocity": 10
        }
      ],
      "decodedMidiPath": "rhythm_midi_patterns/decoded_pattern_midis/PianoRhodesWarm_10.mid"
    },
    {
      "code": "PianoRhodesWarm_11",
      "type": "chord_model_379",
      "subtype": "proller",
      "family": "PianoRhodesWarm",
      "version": "0.0.0.0",
      "sizePagesOrUnits": 54,
      "crc32": 2083065751,
      "bpm": 72,
      "bnum": 44,
      "noteCount": 14,
      "notes": [
        {
          "beat": 0,
          "duration": 1.5,
          "pitch": 48,
          "velocity": 25
        },
        {
          "beat": 0.0416666679084301,
          "duration": 0.7083333134651184,
          "pitch": 60,
          "velocity": 25
        },
        {
          "beat": 0.0625,
          "duration": 1.4375,
          "pitch": 64,
          "velocity": 36
        },
        {
          "beat": 0.08541666716337204,
          "duration": 1.4145833253860474,
          "pitch": 67,
          "velocity": 37
        },
        {
          "beat": 0.75,
          "duration": 0.75,
          "pitch": 60,
          "velocity": 27
        },
        {
          "beat": 1.25,
          "duration": 0.25,
          "pitch": 55,
          "velocity": 22
        },
        {
          "beat": 1.5,
          "duration": 1.5,
          "pitch": 48,
          "velocity": 20
        },
        {
          "beat": 1.5,
          "duration": 2,
          "pitch": 60,
          "velocity": 22
        },
        {
          "beat": 1.5,
          "duration": 2.5,
          "pitch": 64,
          "velocity": 21
        },
        {
          "beat": 1.5,
          "duration": 2.25,
          "pitch": 67,
          "velocity": 27
        },
        {
          "beat": 3,
          "duration": 1.0020833015441895,
          "pitch": 48,
          "velocity": 20
        },
        {
          "beat": 3.25,
          "duration": 0.75,
          "pitch": 55,
          "velocity": 31
        },
        {
          "beat": 3.5,
          "duration": 0.5,
          "pitch": 60,
          "velocity": 22
        },
        {
          "beat": 3.75,
          "duration": 0.25,
          "pitch": 67,
          "velocity": 22
        }
      ],
      "decodedMidiPath": "rhythm_midi_patterns/decoded_pattern_midis/PianoRhodesWarm_11.mid"
    },
    {
      "code": "PianoRhodesWarm_12",
      "type": "chord_model_379",
      "subtype": "proller",
      "family": "PianoRhodesWarm",
      "version": "0.0.0.0",
      "sizePagesOrUnits": 70,
      "crc32": 3925138988,
      "bpm": 100,
      "bnum": 44,
      "noteCount": 20,
      "notes": [
        {
          "beat": 0,
          "duration": 0.5,
          "pitch": 48,
          "velocity": 27
        },
        {
          "beat": 0.9583333134651184,
          "duration": 0.4833333194255829,
          "pitch": 55,
          "velocity": 19
        },
        {
          "beat": 0.975000023841858,
          "duration": 0.4833333194255829,
          "pitch": 60,
          "velocity": 35
        },
        {
          "beat": 1,
          "duration": 0.4833333194255829,
          "pitch": 64,
          "velocity": 48
        },
        {
          "beat": 1.5,
          "duration": 0.05833333358168602,
          "pitch": 55,
          "velocity": 36
        },
        {
          "beat": 1.75,
          "duration": 0.12916666269302368,
          "pitch": 55,
          "velocity": 28
        },
        {
          "beat": 1.75,
          "duration": 0.12916666269302368,
          "pitch": 60,
          "velocity": 34
        },
        {
          "beat": 1.75,
          "duration": 0.12916666269302368,
          "pitch": 64,
          "velocity": 38
        },
        {
          "beat": 2.25,
          "duration": 0.125,
          "pitch": 55,
          "velocity": 37
        },
        {
          "beat": 2.25,
          "duration": 0.125,
          "pitch": 60,
          "velocity": 36
        },
        {
          "beat": 2.25,
          "duration": 0.125,
          "pitch": 64,
          "velocity": 48
        },
        {
          "beat": 2.75,
          "duration": 0.09583333134651184,
          "pitch": 55,
          "velocity": 32
        },
        {
          "beat": 2.96666669845581,
          "duration": 0.3166666626930237,
          "pitch": 55,
          "velocity": 38
        },
        {
          "beat": 2.9749999046325684,
          "duration": 0.4583333432674408,
          "pitch": 60,
          "velocity": 38
        },
        {
          "beat": 3,
          "duration": 0.4583333432674408,
          "pitch": 64,
          "velocity": 40
        },
        {
          "beat": 3.3333332538604736,
          "duration": 0.11249999701976776,
          "pitch": 55,
          "velocity": 24
        },
        {
          "beat": 3.46666669845581,
          "duration": 0.3125,
          "pitch": 55,
          "velocity": 25
        },
        {
          "beat": 3.4749999046325684,
          "duration": 0.524999976158142,
          "pitch": 60,
          "velocity": 42
        },
        {
          "beat": 3.5,
          "duration": 0.5,
          "pitch": 64,
          "velocity": 44
        },
        {
          "beat": 3.8333332538604736,
          "duration": 0.08541666716337204,
          "pitch": 55,
          "velocity": 37
        }
      ],
      "decodedMidiPath": "rhythm_midi_patterns/decoded_pattern_midis/PianoRhodesWarm_12.mid"
    },
    {
      "code": "PianoRhodesWarm_13",
      "type": "chord_model_379",
      "subtype": "proller",
      "family": "PianoRhodesWarm",
      "version": "0.0.0.0",
      "sizePagesOrUnits": 33,
      "crc32": 3777829949,
      "bpm": 80,
      "bnum": 44,
      "noteCount": 5,
      "notes": [
        {
          "beat": 0,
          "duration": 4.041666507720947,
          "pitch": 48,
          "velocity": 33
        },
        {
          "beat": 0.5,
          "duration": 3.5416667461395264,
          "pitch": 55,
          "velocity": 38
        },
        {
          "beat": 1,
          "duration": 3.0416667461395264,
          "pitch": 60,
          "velocity": 39
        },
        {
          "beat": 1.5,
          "duration": 2.5416667461395264,
          "pitch": 64,
          "velocity": 37
        },
        {
          "beat": 2,
          "duration": 2.0416667461395264,
          "pitch": 67,
          "velocity": 39
        }
      ],
      "decodedMidiPath": "rhythm_midi_patterns/decoded_pattern_midis/PianoRhodesWarm_13.mid"
    },
    {
      "code": "PianoRhodesWarm_14",
      "type": "chord_model_379",
      "subtype": "proller",
      "family": "PianoRhodesWarm",
      "version": "0.0.0.0",
      "sizePagesOrUnits": 53,
      "crc32": 1004018231,
      "bpm": 96,
      "bnum": 44,
      "noteCount": 13,
      "notes": [
        {
          "beat": 0,
          "duration": 4,
          "pitch": 48,
          "velocity": 39
        },
        {
          "beat": 0,
          "duration": 0.75,
          "pitch": 60,
          "velocity": 40
        },
        {
          "beat": 0,
          "duration": 0.75,
          "pitch": 64,
          "velocity": 42
        },
        {
          "beat": 0.75,
          "duration": 0.25,
          "pitch": 55,
          "velocity": 33
        },
        {
          "beat": 1,
          "duration": 0.75,
          "pitch": 60,
          "velocity": 40
        },
        {
          "beat": 1,
          "duration": 0.75,
          "pitch": 64,
          "velocity": 42
        },
        {
          "beat": 1.75,
          "duration": 0.25,
          "pitch": 55,
          "velocity": 33
        },
        {
          "beat": 2,
          "duration": 0.75,
          "pitch": 60,
          "velocity": 40
        },
        {
          "beat": 2,
          "duration": 0.75,
          "pitch": 64,
          "velocity": 42
        },
        {
          "beat": 2.75,
          "duration": 0.25,
          "pitch": 55,
          "velocity": 33
        },
        {
          "beat": 3,
          "duration": 0.75,
          "pitch": 60,
          "velocity": 40
        },
        {
          "beat": 3,
          "duration": 0.75,
          "pitch": 64,
          "velocity": 42
        },
        {
          "beat": 3.75,
          "duration": 0.25,
          "pitch": 55,
          "velocity": 33
        }
      ],
      "decodedMidiPath": "rhythm_midi_patterns/decoded_pattern_midis/PianoRhodesWarm_14.mid"
    },
    {
      "code": "PianoRhodesWarm_15",
      "type": "chord_model_379",
      "subtype": "proller",
      "family": "PianoRhodesWarm",
      "version": "0.0.0.0",
      "sizePagesOrUnits": 95,
      "crc32": 3280066273,
      "bpm": 54,
      "bnum": 44,
      "noteCount": 16,
      "notes": [
        {
          "beat": 0,
          "duration": 2,
          "pitch": 48,
          "velocity": 28
        },
        {
          "beat": 0.25,
          "duration": 1.75,
          "pitch": 55,
          "velocity": 23
        },
        {
          "beat": 0.5,
          "duration": 0.7458333373069763,
          "pitch": 60,
          "velocity": 28
        },
        {
          "beat": 0.75,
          "duration": 0.7458333373069763,
          "pitch": 64,
          "velocity": 26
        },
        {
          "beat": 1,
          "duration": 0.7458333373069763,
          "pitch": 67,
          "velocity": 30
        },
        {
          "beat": 1.25,
          "duration": 0.75,
          "pitch": 60,
          "velocity": 26
        },
        {
          "beat": 1.5,
          "duration": 0.5,
          "pitch": 64,
          "velocity": 26
        },
        {
          "beat": 1.75,
          "duration": 0.25,
          "pitch": 67,
          "velocity": 21
        },
        {
          "beat": 2,
          "duration": 2,
          "pitch": 48,
          "velocity": 28
        },
        {
          "beat": 2.25,
          "duration": 1.75,
          "pitch": 55,
          "velocity": 23
        },
        {
          "beat": 2.5,
          "duration": 0.7458333373069763,
          "pitch": 60,
          "velocity": 28
        },
        {
          "beat": 2.75,
          "duration": 0.7458333373069763,
          "pitch": 64,
          "velocity": 26
        },
        {
          "beat": 3,
          "duration": 0.7458333373069763,
          "pitch": 67,
          "velocity": 30
        },
        {
          "beat": 3.25,
          "duration": 0.75,
          "pitch": 60,
          "velocity": 26
        },
        {
          "beat": 3.5,
          "duration": 0.5,
          "pitch": 64,
          "velocity": 26
        },
        {
          "beat": 3.75,
          "duration": 0.25,
          "pitch": 67,
          "velocity": 21
        }
      ],
      "decodedMidiPath": "rhythm_midi_patterns/decoded_pattern_midis/PianoRhodesWarm_15.mid"
    },
    {
      "code": "PianoRhodesWarm_16",
      "type": "chord_model_379",
      "subtype": "proller",
      "family": "PianoRhodesWarm",
      "version": "0.0.0.0",
      "sizePagesOrUnits": 48,
      "crc32": 2526192654,
      "bpm": 78,
      "bnum": 44,
      "noteCount": 4,
      "notes": [
        {
          "beat": 0,
          "duration": 4.03333330154419,
          "pitch": 48,
          "velocity": 30
        },
        {
          "beat": 0.5,
          "duration": 3.53333330154419,
          "pitch": 64,
          "velocity": 30
        },
        {
          "beat": 1,
          "duration": 3.03333330154419,
          "pitch": 72,
          "velocity": 30
        },
        {
          "beat": 1.5,
          "duration": 2.53333330154419,
          "pitch": 67,
          "velocity": 27
        }
      ],
      "decodedMidiPath": "rhythm_midi_patterns/decoded_pattern_midis/PianoRhodesWarm_16.mid"
    },
    {
      "code": "PianoRhodesWarm_17",
      "type": "chord_model_379",
      "subtype": "proller",
      "family": "PianoRhodesWarm",
      "version": "0.0.0.0",
      "sizePagesOrUnits": 80,
      "crc32": 1628268102,
      "bpm": 68,
      "bnum": 44,
      "noteCount": 13,
      "notes": [
        {
          "beat": 0,
          "duration": 4,
          "pitch": 48,
          "velocity": 30
        },
        {
          "beat": 0,
          "duration": 0.9916666746139526,
          "pitch": 55,
          "velocity": 30
        },
        {
          "beat": 0.3333333432674408,
          "duration": 0.9916666746139526,
          "pitch": 60,
          "velocity": 27
        },
        {
          "beat": 0.6666666865348816,
          "duration": 0.9916666746139526,
          "pitch": 64,
          "velocity": 27
        },
        {
          "beat": 1,
          "duration": 0.9916666746139526,
          "pitch": 55,
          "velocity": 30
        },
        {
          "beat": 1.3333333730697632,
          "duration": 0.9916666746139526,
          "pitch": 60,
          "velocity": 27
        },
        {
          "beat": 1.6666666269302368,
          "duration": 0.9916666746139526,
          "pitch": 64,
          "velocity": 27
        },
        {
          "beat": 2,
          "duration": 0.9916666746139526,
          "pitch": 55,
          "velocity": 30
        },
        {
          "beat": 2.3333332538604736,
          "duration": 0.9916666746139526,
          "pitch": 60,
          "velocity": 27
        },
        {
          "beat": 2.6666667461395264,
          "duration": 0.9916666746139526,
          "pitch": 64,
          "velocity": 27
        },
        {
          "beat": 3,
          "duration": 1,
          "pitch": 55,
          "velocity": 30
        },
        {
          "beat": 3.3333332538604736,
          "duration": 0.6666666865348816,
          "pitch": 60,
          "velocity": 27
        },
        {
          "beat": 3.6666667461395264,
          "duration": 0.3333333432674408,
          "pitch": 64,
          "velocity": 27
        }
      ],
      "decodedMidiPath": "rhythm_midi_patterns/decoded_pattern_midis/PianoRhodesWarm_17.mid"
    },
    {
      "code": "PianoRhodesWarm_18",
      "type": "chord_model_379",
      "subtype": "proller",
      "family": "PianoRhodesWarm",
      "version": "0.0.0.0",
      "sizePagesOrUnits": 60,
      "crc32": 3994890636,
      "bpm": 75,
      "bnum": 44,
      "noteCount": 13,
      "notes": [
        {
          "beat": 0,
          "duration": 4.043749809265137,
          "pitch": 48,
          "velocity": 23
        },
        {
          "beat": 0,
          "duration": 0.9604166746139526,
          "pitch": 60,
          "velocity": 19
        },
        {
          "beat": 0.25,
          "duration": 1,
          "pitch": 67,
          "velocity": 21
        },
        {
          "beat": 0.5,
          "duration": 1,
          "pitch": 72,
          "velocity": 25
        },
        {
          "beat": 1,
          "duration": 0.9604166746139526,
          "pitch": 60,
          "velocity": 7
        },
        {
          "beat": 1.25,
          "duration": 1,
          "pitch": 67,
          "velocity": 17
        },
        {
          "beat": 1.5,
          "duration": 1,
          "pitch": 72,
          "velocity": 23
        },
        {
          "beat": 2,
          "duration": 0.9604166746139526,
          "pitch": 60,
          "velocity": 28
        },
        {
          "beat": 2.25,
          "duration": 1,
          "pitch": 67,
          "velocity": 7
        },
        {
          "beat": 2.5,
          "duration": 1,
          "pitch": 72,
          "velocity": 25
        },
        {
          "beat": 3,
          "duration": 0.9604166746139526,
          "pitch": 60,
          "velocity": 20
        },
        {
          "beat": 3.25,
          "duration": 0.75,
          "pitch": 67,
          "velocity": 5
        },
        {
          "beat": 3.5,
          "duration": 0.5,
          "pitch": 72,
          "velocity": 29
        }
      ],
      "decodedMidiPath": "rhythm_midi_patterns/decoded_pattern_midis/PianoRhodesWarm_18.mid"
    },
    {
      "code": "PianoRhodesWarm_19",
      "type": "chord_model_379",
      "subtype": "proller",
      "family": "PianoRhodesWarm",
      "version": "0.0.0.0",
      "sizePagesOrUnits": 51,
      "crc32": 4174913408,
      "bpm": 125,
      "bnum": 44,
      "noteCount": 10,
      "notes": [
        {
          "beat": 0,
          "duration": 4,
          "pitch": 48,
          "velocity": 29
        },
        {
          "beat": 0,
          "duration": 1.5,
          "pitch": 55,
          "velocity": 26
        },
        {
          "beat": 0,
          "duration": 1.5,
          "pitch": 60,
          "velocity": 31
        },
        {
          "beat": 0,
          "duration": 1.5,
          "pitch": 64,
          "velocity": 36
        },
        {
          "beat": 1.5,
          "duration": 1.5,
          "pitch": 55,
          "velocity": 18
        },
        {
          "beat": 1.5,
          "duration": 1.5,
          "pitch": 60,
          "velocity": 26
        },
        {
          "beat": 1.5,
          "duration": 1.5,
          "pitch": 64,
          "velocity": 31
        },
        {
          "beat": 3,
          "duration": 1,
          "pitch": 55,
          "velocity": 22
        },
        {
          "beat": 3,
          "duration": 1,
          "pitch": 60,
          "velocity": 30
        },
        {
          "beat": 3,
          "duration": 1,
          "pitch": 64,
          "velocity": 33
        }
      ],
      "decodedMidiPath": "rhythm_midi_patterns/decoded_pattern_midis/PianoRhodesWarm_19.mid"
    },
    {
      "code": "PianoRhodesWarm_2",
      "type": "chord_model_379",
      "subtype": "proller",
      "family": "PianoRhodesWarm",
      "version": "0.0.0.0",
      "sizePagesOrUnits": 56,
      "crc32": 1112518689,
      "bpm": 75,
      "bnum": 44,
      "noteCount": 8,
      "notes": [
        {
          "beat": 0,
          "duration": 3.995833396911621,
          "pitch": 48,
          "velocity": 34
        },
        {
          "beat": 0.5,
          "duration": 3.5,
          "pitch": 52,
          "velocity": 46
        },
        {
          "beat": 1,
          "duration": 2.5,
          "pitch": 55,
          "velocity": 37
        },
        {
          "beat": 1.5,
          "duration": 1.5,
          "pitch": 60,
          "velocity": 51
        },
        {
          "beat": 2,
          "duration": 2,
          "pitch": 67,
          "velocity": 47
        },
        {
          "beat": 2.5,
          "duration": 1.5,
          "pitch": 64,
          "velocity": 33
        },
        {
          "beat": 3,
          "duration": 1,
          "pitch": 60,
          "velocity": 49
        },
        {
          "beat": 3.5,
          "duration": 0.5,
          "pitch": 55,
          "velocity": 28
        }
      ],
      "decodedMidiPath": "rhythm_midi_patterns/decoded_pattern_midis/PianoRhodesWarm_2.mid"
    },
    {
      "code": "PianoRhodesWarm_20",
      "type": "chord_model_379",
      "subtype": "proller",
      "family": "PianoRhodesWarm",
      "version": "0.0.0.0",
      "sizePagesOrUnits": 88,
      "crc32": 651139519,
      "bpm": 87,
      "bnum": 44,
      "noteCount": 15,
      "notes": [
        {
          "beat": 0,
          "duration": 2,
          "pitch": 48,
          "velocity": 16
        },
        {
          "beat": 0.25,
          "duration": 1.75,
          "pitch": 55,
          "velocity": 14
        },
        {
          "beat": 0.5,
          "duration": 1,
          "pitch": 64,
          "velocity": 23
        },
        {
          "beat": 1,
          "duration": 0.75,
          "pitch": 60,
          "velocity": 34
        },
        {
          "beat": 1,
          "duration": 1,
          "pitch": 67,
          "velocity": 6
        },
        {
          "beat": 1.5,
          "duration": 0.5,
          "pitch": 64,
          "velocity": 24
        },
        {
          "beat": 1.75,
          "duration": 0.25,
          "pitch": 60,
          "velocity": 34
        },
        {
          "beat": 2,
          "duration": 2,
          "pitch": 48,
          "velocity": 4
        },
        {
          "beat": 2.25,
          "duration": 1.75,
          "pitch": 55,
          "velocity": 1
        },
        {
          "beat": 2.5,
          "duration": 0.5,
          "pitch": 64,
          "velocity": 23
        },
        {
          "beat": 3,
          "duration": 0.5,
          "pitch": 64,
          "velocity": 23
        },
        {
          "beat": 3,
          "duration": 1,
          "pitch": 67,
          "velocity": 6
        },
        {
          "beat": 3.25,
          "duration": 0.5,
          "pitch": 60,
          "velocity": 20
        },
        {
          "beat": 3.5,
          "duration": 0.5,
          "pitch": 64,
          "velocity": 23
        },
        {
          "beat": 3.75,
          "duration": 0.25,
          "pitch": 60,
          "velocity": 20
        }
      ],
      "decodedMidiPath": "rhythm_midi_patterns/decoded_pattern_midis/PianoRhodesWarm_20.mid"
    },
    {
      "code": "PianoRhodesWarm_21",
      "type": "chord_model_379",
      "subtype": "proller",
      "family": "PianoRhodesWarm",
      "version": "0.0.0.0",
      "sizePagesOrUnits": 41,
      "crc32": 1539630269,
      "bpm": 88,
      "bnum": 44,
      "noteCount": 9,
      "notes": [
        {
          "beat": 0,
          "duration": 3.9791667461395264,
          "pitch": 48,
          "velocity": 25
        },
        {
          "beat": 0,
          "duration": 1.975000023841858,
          "pitch": 64,
          "velocity": 36
        },
        {
          "beat": 0.5,
          "duration": 0.9791666865348816,
          "pitch": 55,
          "velocity": 24
        },
        {
          "beat": 1,
          "duration": 1.975000023841858,
          "pitch": 60,
          "velocity": 27
        },
        {
          "beat": 1.5,
          "duration": 0.9791666865348816,
          "pitch": 55,
          "velocity": 26
        },
        {
          "beat": 2,
          "duration": 1.975000023841858,
          "pitch": 64,
          "velocity": 33
        },
        {
          "beat": 2.5,
          "duration": 0.9791666865348816,
          "pitch": 55,
          "velocity": 23
        },
        {
          "beat": 3,
          "duration": 0.975000023841858,
          "pitch": 60,
          "velocity": 25
        },
        {
          "beat": 3.5,
          "duration": 0.4791666567325592,
          "pitch": 55,
          "velocity": 29
        }
      ],
      "decodedMidiPath": "rhythm_midi_patterns/decoded_pattern_midis/PianoRhodesWarm_21.mid"
    },
    {
      "code": "PianoRhodesWarm_22",
      "type": "chord_model_379",
      "subtype": "proller",
      "family": "PianoRhodesWarm",
      "version": "0.0.0.0",
      "sizePagesOrUnits": 61,
      "crc32": 1196528121,
      "bpm": 73,
      "bnum": 44,
      "noteCount": 16,
      "notes": [
        {
          "beat": 0,
          "duration": 4.02916669845581,
          "pitch": 48,
          "velocity": 22
        },
        {
          "beat": 0,
          "duration": 0.9958333373069763,
          "pitch": 67,
          "velocity": 29
        },
        {
          "beat": 0.5,
          "duration": 0.9958333373069763,
          "pitch": 64,
          "velocity": 27
        },
        {
          "beat": 0.5,
          "duration": 0.9958333373069763,
          "pitch": 72,
          "velocity": 27
        },
        {
          "beat": 1,
          "duration": 0.9958333373069763,
          "pitch": 60,
          "velocity": 23
        },
        {
          "beat": 1,
          "duration": 0.9958333373069763,
          "pitch": 67,
          "velocity": 29
        },
        {
          "beat": 1.5,
          "duration": 0.9958333373069763,
          "pitch": 64,
          "velocity": 26
        },
        {
          "beat": 1.5,
          "duration": 0.9958333373069763,
          "pitch": 72,
          "velocity": 27
        },
        {
          "beat": 2,
          "duration": 0.9958333373069763,
          "pitch": 60,
          "velocity": 29
        },
        {
          "beat": 2,
          "duration": 0.9958333373069763,
          "pitch": 67,
          "velocity": 29
        },
        {
          "beat": 2.5,
          "duration": 0.9958333373069763,
          "pitch": 64,
          "velocity": 24
        },
        {
          "beat": 2.5,
          "duration": 0.9958333373069763,
          "pitch": 72,
          "velocity": 27
        },
        {
          "beat": 3,
          "duration": 1.0291666984558105,
          "pitch": 60,
          "velocity": 28
        },
        {
          "beat": 3,
          "duration": 1.0291666984558105,
          "pitch": 67,
          "velocity": 29
        },
        {
          "beat": 3.5,
          "duration": 0.5291666388511658,
          "pitch": 64,
          "velocity": 25
        },
        {
          "beat": 3.5,
          "duration": 0.5291666388511658,
          "pitch": 72,
          "velocity": 27
        }
      ],
      "decodedMidiPath": "rhythm_midi_patterns/decoded_pattern_midis/PianoRhodesWarm_22.mid"
    },
    {
      "code": "PianoRhodesWarm_23",
      "type": "chord_model_379",
      "subtype": "proller",
      "family": "PianoRhodesWarm",
      "version": "0.0.0.0",
      "sizePagesOrUnits": 59,
      "crc32": 2824484928,
      "bpm": 66,
      "bnum": 44,
      "noteCount": 17,
      "notes": [
        {
          "beat": 0,
          "duration": 3.991666555404663,
          "pitch": 48,
          "velocity": 27
        },
        {
          "beat": 0,
          "duration": 0.9916666746139526,
          "pitch": 64,
          "velocity": 28
        },
        {
          "beat": 0.25,
          "duration": 0.49166667461395264,
          "pitch": 60,
          "velocity": 30
        },
        {
          "beat": 0.5,
          "duration": 0.9916666746139526,
          "pitch": 55,
          "velocity": 26
        },
        {
          "beat": 0.75,
          "duration": 0.49166667461395264,
          "pitch": 60,
          "velocity": 29
        },
        {
          "beat": 1,
          "duration": 0.9916666746139526,
          "pitch": 64,
          "velocity": 33
        },
        {
          "beat": 1.25,
          "duration": 0.49166667461395264,
          "pitch": 60,
          "velocity": 29
        },
        {
          "beat": 1.5,
          "duration": 0.9916666746139526,
          "pitch": 55,
          "velocity": 25
        },
        {
          "beat": 1.75,
          "duration": 0.49166667461395264,
          "pitch": 60,
          "velocity": 29
        },
        {
          "beat": 2,
          "duration": 0.9916666746139526,
          "pitch": 64,
          "velocity": 34
        },
        {
          "beat": 2.25,
          "duration": 0.49166667461395264,
          "pitch": 60,
          "velocity": 29
        },
        {
          "beat": 2.5,
          "duration": 0.9916666746139526,
          "pitch": 55,
          "velocity": 25
        },
        {
          "beat": 2.75,
          "duration": 0.49166667461395264,
          "pitch": 60,
          "velocity": 27
        },
        {
          "beat": 3,
          "duration": 0.9916666746139526,
          "pitch": 64,
          "velocity": 34
        },
        {
          "beat": 3.25,
          "duration": 0.49166667461395264,
          "pitch": 60,
          "velocity": 27
        },
        {
          "beat": 3.5,
          "duration": 0.49166667461395264,
          "pitch": 55,
          "velocity": 27
        },
        {
          "beat": 3.75,
          "duration": 0.24166665971279144,
          "pitch": 60,
          "velocity": 27
        }
      ],
      "decodedMidiPath": "rhythm_midi_patterns/decoded_pattern_midis/PianoRhodesWarm_23.mid"
    },
    {
      "code": "PianoRhodesWarm_24",
      "type": "chord_model_379",
      "subtype": "proller",
      "family": "PianoRhodesWarm",
      "version": "0.0.0.0",
      "sizePagesOrUnits": 79,
      "crc32": 2986843985,
      "bpm": 87,
      "bnum": 44,
      "noteCount": 22,
      "notes": [
        {
          "beat": 0,
          "duration": 0.6666666865348816,
          "pitch": 48,
          "velocity": 40
        },
        {
          "beat": 0.6666666865348816,
          "duration": 0.1041666641831398,
          "pitch": 48,
          "velocity": 5
        },
        {
          "beat": 0.6666666865348816,
          "duration": 0.1041666641831398,
          "pitch": 60,
          "velocity": 20
        },
        {
          "beat": 0.6666666865348816,
          "duration": 0.1041666641831398,
          "pitch": 64,
          "velocity": 10
        },
        {
          "beat": 1,
          "duration": 0.662500023841858,
          "pitch": 55,
          "velocity": 36
        },
        {
          "beat": 1,
          "duration": 0.662500023841858,
          "pitch": 60,
          "velocity": 35
        },
        {
          "beat": 1,
          "duration": 0.662500023841858,
          "pitch": 64,
          "velocity": 33
        },
        {
          "beat": 1,
          "duration": 0.662500023841858,
          "pitch": 67,
          "velocity": 38
        },
        {
          "beat": 1.6666666269302368,
          "duration": 0.1041666641831398,
          "pitch": 55,
          "velocity": 25
        },
        {
          "beat": 1.6666666269302368,
          "duration": 0.1041666641831398,
          "pitch": 60,
          "velocity": 25
        },
        {
          "beat": 1.6666666269302368,
          "duration": 0.1041666641831398,
          "pitch": 64,
          "velocity": 20
        },
        {
          "beat": 2,
          "duration": 0.662500023841858,
          "pitch": 48,
          "velocity": 40
        },
        {
          "beat": 2.6666667461395264,
          "duration": 0.1041666641831398,
          "pitch": 48,
          "velocity": 20
        },
        {
          "beat": 2.6666667461395264,
          "duration": 0.1041666641831398,
          "pitch": 60,
          "velocity": 30
        },
        {
          "beat": 2.6666667461395264,
          "duration": 0.1041666641831398,
          "pitch": 64,
          "velocity": 26
        },
        {
          "beat": 3,
          "duration": 0.6666666865348816,
          "pitch": 55,
          "velocity": 35
        },
        {
          "beat": 3,
          "duration": 0.6666666865348816,
          "pitch": 60,
          "velocity": 38
        },
        {
          "beat": 3,
          "duration": 0.6666666865348816,
          "pitch": 64,
          "velocity": 30
        },
        {
          "beat": 3,
          "duration": 0.6666666865348816,
          "pitch": 67,
          "velocity": 31
        },
        {
          "beat": 3.6666667461395264,
          "duration": 0.1041666641831398,
          "pitch": 55,
          "velocity": 20
        },
        {
          "beat": 3.6666667461395264,
          "duration": 0.1041666641831398,
          "pitch": 60,
          "velocity": 20
        },
        {
          "beat": 3.6666667461395264,
          "duration": 0.1041666641831398,
          "pitch": 64,
          "velocity": 15
        }
      ],
      "decodedMidiPath": "rhythm_midi_patterns/decoded_pattern_midis/PianoRhodesWarm_24.mid"
    },
    {
      "code": "PianoRhodesWarm_26",
      "type": "chord_model_379",
      "subtype": "proller",
      "family": "PianoRhodesWarm",
      "version": "0.0.0.0",
      "sizePagesOrUnits": 47,
      "crc32": 3298410192,
      "bpm": 126,
      "bnum": 44,
      "noteCount": 4,
      "notes": [
        {
          "beat": 0,
          "duration": 4,
          "pitch": 48,
          "velocity": 50
        },
        {
          "beat": 0,
          "duration": 4,
          "pitch": 60,
          "velocity": 38
        },
        {
          "beat": 0,
          "duration": 4,
          "pitch": 64,
          "velocity": 35
        },
        {
          "beat": 0,
          "duration": 4,
          "pitch": 67,
          "velocity": 37
        }
      ],
      "decodedMidiPath": "rhythm_midi_patterns/decoded_pattern_midis/PianoRhodesWarm_26.mid"
    },
    {
      "code": "PianoRhodesWarm_29",
      "type": "chord_model_379",
      "subtype": "proller",
      "family": "PianoRhodesWarm",
      "version": "1.0.0.0",
      "sizePagesOrUnits": 113,
      "crc32": 2720007102,
      "bpm": 80,
      "bnum": 44,
      "noteCount": 15,
      "notes": [
        {
          "beat": 0,
          "duration": 0.5,
          "pitch": 48,
          "velocity": 43
        },
        {
          "beat": 0.5,
          "duration": 0.1666666716337204,
          "pitch": 60,
          "velocity": 40
        },
        {
          "beat": 0.5,
          "duration": 0.1666666716337204,
          "pitch": 64,
          "velocity": 50
        },
        {
          "beat": 0.5,
          "duration": 0.1666666716337204,
          "pitch": 67,
          "velocity": 37
        },
        {
          "beat": 1.5,
          "duration": 0.1666666716337204,
          "pitch": 60,
          "velocity": 37
        },
        {
          "beat": 1.5,
          "duration": 0.1666666716337204,
          "pitch": 64,
          "velocity": 48
        },
        {
          "beat": 1.5,
          "duration": 0.1666666716337204,
          "pitch": 67,
          "velocity": 36
        },
        {
          "beat": 2.5,
          "duration": 0.1666666716337204,
          "pitch": 60,
          "velocity": 40
        },
        {
          "beat": 2.5,
          "duration": 0.1666666716337204,
          "pitch": 64,
          "velocity": 47
        },
        {
          "beat": 2.5,
          "duration": 0.1666666716337204,
          "pitch": 67,
          "velocity": 40
        },
        {
          "beat": 3,
          "duration": 0.3333333432674408,
          "pitch": 48,
          "velocity": 28
        },
        {
          "beat": 3.3333332538604736,
          "duration": 0.1666666716337204,
          "pitch": 48,
          "velocity": 34
        },
        {
          "beat": 3.5,
          "duration": 0.1666666716337204,
          "pitch": 60,
          "velocity": 41
        },
        {
          "beat": 3.5,
          "duration": 0.1666666716337204,
          "pitch": 64,
          "velocity": 47
        },
        {
          "beat": 3.5,
          "duration": 0.1666666716337204,
          "pitch": 67,
          "velocity": 40
        }
      ],
      "decodedMidiPath": "rhythm_midi_patterns/decoded_pattern_midis/PianoRhodesWarm_29.mid"
    },
    {
      "code": "PianoRhodesWarm_33",
      "type": "chord_model_379",
      "subtype": "proller",
      "family": "PianoRhodesWarm",
      "version": "0.0.0.0",
      "sizePagesOrUnits": 101,
      "crc32": 1044523109,
      "bpm": 92,
      "bnum": 44,
      "noteCount": 18,
      "notes": [
        {
          "beat": 0,
          "duration": 3,
          "pitch": 48,
          "velocity": 35
        },
        {
          "beat": 0,
          "duration": 1.5,
          "pitch": 72,
          "velocity": 41
        },
        {
          "beat": 0.25,
          "duration": 0.5,
          "pitch": 64,
          "velocity": 18
        },
        {
          "beat": 0.5,
          "duration": 0.5,
          "pitch": 60,
          "velocity": 31
        },
        {
          "beat": 0.75,
          "duration": 0.5,
          "pitch": 64,
          "velocity": 22
        },
        {
          "beat": 1,
          "duration": 1,
          "pitch": 60,
          "velocity": 30
        },
        {
          "beat": 1.25,
          "duration": 0.5,
          "pitch": 64,
          "velocity": 18
        },
        {
          "beat": 1.5,
          "duration": 1.5,
          "pitch": 72,
          "velocity": 40
        },
        {
          "beat": 1.75,
          "duration": 0.5,
          "pitch": 64,
          "velocity": 20
        },
        {
          "beat": 2,
          "duration": 0.5,
          "pitch": 60,
          "velocity": 31
        },
        {
          "beat": 2.25,
          "duration": 0.5,
          "pitch": 64,
          "velocity": 15
        },
        {
          "beat": 2.5,
          "duration": 1,
          "pitch": 60,
          "velocity": 31
        },
        {
          "beat": 2.75,
          "duration": 0.5,
          "pitch": 64,
          "velocity": 24
        },
        {
          "beat": 3,
          "duration": 1,
          "pitch": 48,
          "velocity": 35
        },
        {
          "beat": 3,
          "duration": 1,
          "pitch": 72,
          "velocity": 41
        },
        {
          "beat": 3.25,
          "duration": 0.5,
          "pitch": 64,
          "velocity": 15
        },
        {
          "beat": 3.5,
          "duration": 0.5,
          "pitch": 60,
          "velocity": 31
        },
        {
          "beat": 3.75,
          "duration": 0.25,
          "pitch": 64,
          "velocity": 24
        }
      ],
      "decodedMidiPath": "rhythm_midi_patterns/decoded_pattern_midis/PianoRhodesWarm_33.mid"
    },
    {
      "code": "PianoRhodesWarm_41",
      "type": "chord_model_379",
      "subtype": "proller",
      "family": "PianoRhodesWarm",
      "version": "0.0.0.0",
      "sizePagesOrUnits": 141,
      "crc32": 1064490778,
      "bpm": 100,
      "bnum": 44,
      "noteCount": 23,
      "notes": [
        {
          "beat": 0,
          "duration": 2.7333333492279053,
          "pitch": 48,
          "velocity": 37
        },
        {
          "beat": 0,
          "duration": 0.9791666865348816,
          "pitch": 60,
          "velocity": 44
        },
        {
          "beat": 0,
          "duration": 0.9791666865348816,
          "pitch": 64,
          "velocity": 38
        },
        {
          "beat": 0,
          "duration": 0.9791666865348816,
          "pitch": 67,
          "velocity": 43
        },
        {
          "beat": 1,
          "duration": 0.7333333492279053,
          "pitch": 60,
          "velocity": 32
        },
        {
          "beat": 1,
          "duration": 0.731249988079071,
          "pitch": 64,
          "velocity": 36
        },
        {
          "beat": 1,
          "duration": 0.731249988079071,
          "pitch": 67,
          "velocity": 41
        },
        {
          "beat": 1.5,
          "duration": 1.7333333492279053,
          "pitch": 55,
          "velocity": 23
        },
        {
          "beat": 1.75,
          "duration": 0.4833333194255829,
          "pitch": 60,
          "velocity": 35
        },
        {
          "beat": 1.75,
          "duration": 0.47708332538604736,
          "pitch": 64,
          "velocity": 29
        },
        {
          "beat": 1.75,
          "duration": 0.4833333194255829,
          "pitch": 67,
          "velocity": 34
        },
        {
          "beat": 2.25,
          "duration": 0.7333333492279053,
          "pitch": 60,
          "velocity": 26
        },
        {
          "beat": 2.25,
          "duration": 0.731249988079071,
          "pitch": 64,
          "velocity": 20
        },
        {
          "beat": 2.25,
          "duration": 0.731249988079071,
          "pitch": 67,
          "velocity": 25
        },
        {
          "beat": 2.75,
          "duration": 1.2333333492279053,
          "pitch": 48,
          "velocity": 24
        },
        {
          "beat": 3,
          "duration": 0.4833333194255829,
          "pitch": 60,
          "velocity": 42
        },
        {
          "beat": 3,
          "duration": 0.4833333194255829,
          "pitch": 64,
          "velocity": 36
        },
        {
          "beat": 3,
          "duration": 0.4833333194255829,
          "pitch": 67,
          "velocity": 41
        },
        {
          "beat": 3.25,
          "duration": 0.7333333492279053,
          "pitch": 55,
          "velocity": 28
        },
        {
          "beat": 3.5,
          "duration": 0.4833333194255829,
          "pitch": 60,
          "velocity": 22
        },
        {
          "beat": 3.5,
          "duration": 0.4833333194255829,
          "pitch": 64,
          "velocity": 11
        },
        {
          "beat": 3.5,
          "duration": 0.4833333194255829,
          "pitch": 67,
          "velocity": 21
        },
        {
          "beat": 3.5,
          "duration": 0.4833333194255829,
          "pitch": 72,
          "velocity": 22
        }
      ],
      "decodedMidiPath": "rhythm_midi_patterns/decoded_pattern_midis/PianoRhodesWarm_41.mid"
    },
    {
      "code": "PianoRhodesWarm_42",
      "type": "chord_model_379",
      "subtype": "proller",
      "family": "PianoRhodesWarm",
      "version": "0.0.0.0",
      "sizePagesOrUnits": 95,
      "crc32": 2016582285,
      "bpm": 104,
      "bnum": 44,
      "noteCount": 12,
      "notes": [
        {
          "beat": 0,
          "duration": 4,
          "pitch": 48,
          "velocity": 19
        },
        {
          "beat": 0,
          "duration": 2,
          "pitch": 55,
          "velocity": 57
        },
        {
          "beat": 0,
          "duration": 2,
          "pitch": 60,
          "velocity": 61
        },
        {
          "beat": 0,
          "duration": 2,
          "pitch": 64,
          "velocity": 61
        },
        {
          "beat": 0,
          "duration": 2,
          "pitch": 67,
          "velocity": 56
        },
        {
          "beat": 2,
          "duration": 0.75,
          "pitch": 55,
          "velocity": 47
        },
        {
          "beat": 2,
          "duration": 1.5,
          "pitch": 60,
          "velocity": 51
        },
        {
          "beat": 2,
          "duration": 1.5,
          "pitch": 64,
          "velocity": 51
        },
        {
          "beat": 2,
          "duration": 2,
          "pitch": 67,
          "velocity": 46
        },
        {
          "beat": 2.75,
          "duration": 1.25,
          "pitch": 55,
          "velocity": 49
        },
        {
          "beat": 3.5,
          "duration": 0.5,
          "pitch": 60,
          "velocity": 50
        },
        {
          "beat": 3.5,
          "duration": 0.5,
          "pitch": 64,
          "velocity": 50
        }
      ],
      "decodedMidiPath": "rhythm_midi_patterns/decoded_pattern_midis/PianoRhodesWarm_42.mid"
    },
    {
      "code": "PianoRhodesWarm_61",
      "type": "chord_model_379",
      "subtype": "proller",
      "family": "PianoRhodesWarm",
      "version": "0.0.0.0",
      "sizePagesOrUnits": 41,
      "crc32": 3005927798,
      "bpm": 125,
      "bnum": 44,
      "noteCount": 9,
      "notes": [
        {
          "beat": 0,
          "duration": 4,
          "pitch": 48,
          "velocity": 25
        },
        {
          "beat": 0,
          "duration": 1.5,
          "pitch": 67,
          "velocity": 26
        },
        {
          "beat": 0.5,
          "duration": 1.5,
          "pitch": 60,
          "velocity": 25
        },
        {
          "beat": 1,
          "duration": 1.5,
          "pitch": 64,
          "velocity": 39
        },
        {
          "beat": 1.5,
          "duration": 1.5,
          "pitch": 67,
          "velocity": 25
        },
        {
          "beat": 2,
          "duration": 1.5,
          "pitch": 60,
          "velocity": 17
        },
        {
          "beat": 2.5,
          "duration": 1.5,
          "pitch": 64,
          "velocity": 36
        },
        {
          "beat": 3,
          "duration": 1,
          "pitch": 67,
          "velocity": 34
        },
        {
          "beat": 3.5,
          "duration": 0.5,
          "pitch": 60,
          "velocity": 14
        }
      ],
      "decodedMidiPath": "rhythm_midi_patterns/decoded_pattern_midis/PianoRhodesWarm_61.mid"
    },
    {
      "code": "PianoRhodesWarm_62",
      "type": "chord_model_379",
      "subtype": "proller",
      "family": "PianoRhodesWarm",
      "version": "0.0.0.0",
      "sizePagesOrUnits": 43,
      "crc32": 2024803918,
      "bpm": 70,
      "bnum": 44,
      "noteCount": 9,
      "notes": [
        {
          "beat": 0,
          "duration": 4,
          "pitch": 48,
          "velocity": 28
        },
        {
          "beat": 0,
          "duration": 1.25,
          "pitch": 60,
          "velocity": 26
        },
        {
          "beat": 0,
          "duration": 1.5,
          "pitch": 64,
          "velocity": 20
        },
        {
          "beat": 0,
          "duration": 1.75,
          "pitch": 67,
          "velocity": 25
        },
        {
          "beat": 1.25,
          "duration": 1.75,
          "pitch": 60,
          "velocity": 26
        },
        {
          "beat": 1.5,
          "duration": 0.5,
          "pitch": 64,
          "velocity": 24
        },
        {
          "beat": 1.75,
          "duration": 2.25,
          "pitch": 67,
          "velocity": 33
        },
        {
          "beat": 2,
          "duration": 2,
          "pitch": 64,
          "velocity": 20
        },
        {
          "beat": 3,
          "duration": 1,
          "pitch": 60,
          "velocity": 15
        }
      ],
      "decodedMidiPath": "rhythm_midi_patterns/decoded_pattern_midis/PianoRhodesWarm_62.mid"
    },
    {
      "code": "PianoRhodesWarm_63",
      "type": "chord_model_379",
      "subtype": "proller",
      "family": "PianoRhodesWarm",
      "version": "0.0.0.0",
      "sizePagesOrUnits": 47,
      "crc32": 3848191558,
      "bpm": 78,
      "bnum": 44,
      "noteCount": 14,
      "notes": [
        {
          "beat": 0,
          "duration": 1.75,
          "pitch": 48,
          "velocity": 36
        },
        {
          "beat": 0.02291666716337204,
          "duration": 1.2270833253860474,
          "pitch": 60,
          "velocity": 35
        },
        {
          "beat": 0.0416666679084301,
          "duration": 0.7083333134651184,
          "pitch": 64,
          "velocity": 32
        },
        {
          "beat": 0.05624999850988388,
          "duration": 1.443750023841858,
          "pitch": 67,
          "velocity": 35
        },
        {
          "beat": 0.75,
          "duration": 1.25,
          "pitch": 64,
          "velocity": 31
        },
        {
          "beat": 1.25,
          "duration": 0.75,
          "pitch": 60,
          "velocity": 20
        },
        {
          "beat": 1.5,
          "duration": 1.75,
          "pitch": 67,
          "velocity": 35
        },
        {
          "beat": 1.75,
          "duration": 0.25,
          "pitch": 48,
          "velocity": 35
        },
        {
          "beat": 2,
          "duration": 2,
          "pitch": 48,
          "velocity": 36
        },
        {
          "beat": 2,
          "duration": 1.75,
          "pitch": 60,
          "velocity": 35
        },
        {
          "beat": 2,
          "duration": 1.5,
          "pitch": 64,
          "velocity": 32
        },
        {
          "beat": 3.25,
          "duration": 0.75,
          "pitch": 67,
          "velocity": 25
        },
        {
          "beat": 3.5,
          "duration": 0.5,
          "pitch": 64,
          "velocity": 30
        },
        {
          "beat": 3.75,
          "duration": 0.25,
          "pitch": 60,
          "velocity": 20
        }
      ],
      "decodedMidiPath": "rhythm_midi_patterns/decoded_pattern_midis/PianoRhodesWarm_63.mid"
    },
    {
      "code": "PianoRhodesWarm_64",
      "type": "chord_model_379",
      "subtype": "proller",
      "family": "PianoRhodesWarm",
      "version": "0.0.0.0",
      "sizePagesOrUnits": 54,
      "crc32": 3125367989,
      "bpm": 108,
      "bnum": 44,
      "noteCount": 8,
      "notes": [
        {
          "beat": 0,
          "duration": 4,
          "pitch": 48,
          "velocity": 25
        },
        {
          "beat": 0.5,
          "duration": 3.5,
          "pitch": 55,
          "velocity": 20
        },
        {
          "beat": 1,
          "duration": 1.5,
          "pitch": 60,
          "velocity": 31
        },
        {
          "beat": 1.5,
          "duration": 1.5,
          "pitch": 64,
          "velocity": 22
        },
        {
          "beat": 2,
          "duration": 1.5,
          "pitch": 67,
          "velocity": 38
        },
        {
          "beat": 2.5,
          "duration": 1.5,
          "pitch": 60,
          "velocity": 20
        },
        {
          "beat": 3,
          "duration": 1,
          "pitch": 64,
          "velocity": 20
        },
        {
          "beat": 3.5,
          "duration": 0.5,
          "pitch": 67,
          "velocity": 25
        }
      ],
      "decodedMidiPath": "rhythm_midi_patterns/decoded_pattern_midis/PianoRhodesWarm_64.mid"
    },
    {
      "code": "PianoRhodesWarm_65",
      "type": "chord_model_379",
      "subtype": "proller",
      "family": "PianoRhodesWarm",
      "version": "0.0.0.0",
      "sizePagesOrUnits": 70,
      "crc32": 3744172111,
      "bpm": 90,
      "bnum": 44,
      "noteCount": 11,
      "notes": [
        {
          "beat": 0,
          "duration": 4,
          "pitch": 48,
          "velocity": 37
        },
        {
          "beat": 0.25,
          "duration": 3.25,
          "pitch": 55,
          "velocity": 32
        },
        {
          "beat": 0.5,
          "duration": 1,
          "pitch": 60,
          "velocity": 36
        },
        {
          "beat": 0.75,
          "duration": 0.75,
          "pitch": 64,
          "velocity": 36
        },
        {
          "beat": 1.5,
          "duration": 1.75,
          "pitch": 60,
          "velocity": 38
        },
        {
          "beat": 1.5,
          "duration": 1.5,
          "pitch": 64,
          "velocity": 38
        },
        {
          "beat": 1.5,
          "duration": 2.5,
          "pitch": 67,
          "velocity": 31
        },
        {
          "beat": 3,
          "duration": 1,
          "pitch": 64,
          "velocity": 36
        },
        {
          "beat": 3.25,
          "duration": 0.5,
          "pitch": 60,
          "velocity": 29
        },
        {
          "beat": 3.5,
          "duration": 0.5,
          "pitch": 55,
          "velocity": 23
        },
        {
          "beat": 3.75,
          "duration": 0.25,
          "pitch": 60,
          "velocity": 22
        }
      ],
      "decodedMidiPath": "rhythm_midi_patterns/decoded_pattern_midis/PianoRhodesWarm_65.mid"
    },
    {
      "code": "PianoRhodesWarm_66",
      "type": "chord_model_379",
      "subtype": "proller",
      "family": "PianoRhodesWarm",
      "version": "0.0.0.0",
      "sizePagesOrUnits": 104,
      "crc32": 2619453700,
      "bpm": 72,
      "bnum": 44,
      "noteCount": 17,
      "notes": [
        {
          "beat": 0,
          "duration": 4,
          "pitch": 48,
          "velocity": 34
        },
        {
          "beat": 0,
          "duration": 1.5,
          "pitch": 55,
          "velocity": 32
        },
        {
          "beat": 0,
          "duration": 1.5,
          "pitch": 60,
          "velocity": 36
        },
        {
          "beat": 0,
          "duration": 1.5,
          "pitch": 64,
          "velocity": 36
        },
        {
          "beat": 0,
          "duration": 1.5,
          "pitch": 67,
          "velocity": 31
        },
        {
          "beat": 1.5,
          "duration": 0.75,
          "pitch": 55,
          "velocity": 18
        },
        {
          "beat": 1.5,
          "duration": 1,
          "pitch": 60,
          "velocity": 22
        },
        {
          "beat": 1.5,
          "duration": 1.25,
          "pitch": 64,
          "velocity": 22
        },
        {
          "beat": 1.5,
          "duration": 2,
          "pitch": 67,
          "velocity": 17
        },
        {
          "beat": 2,
          "duration": 2,
          "pitch": 52,
          "velocity": 38
        },
        {
          "beat": 2.25,
          "duration": 1.25,
          "pitch": 55,
          "velocity": 38
        },
        {
          "beat": 2.5,
          "duration": 1,
          "pitch": 60,
          "velocity": 38
        },
        {
          "beat": 2.75,
          "duration": 0.75,
          "pitch": 64,
          "velocity": 36
        },
        {
          "beat": 3.5,
          "duration": 0.5,
          "pitch": 55,
          "velocity": 18
        },
        {
          "beat": 3.5,
          "duration": 0.5,
          "pitch": 60,
          "velocity": 22
        },
        {
          "beat": 3.5,
          "duration": 0.5,
          "pitch": 64,
          "velocity": 22
        },
        {
          "beat": 3.5,
          "duration": 0.5,
          "pitch": 67,
          "velocity": 17
        }
      ],
      "decodedMidiPath": "rhythm_midi_patterns/decoded_pattern_midis/PianoRhodesWarm_66.mid"
    },
    {
      "code": "PianoRhodesWarm_67",
      "type": "chord_model_379",
      "subtype": "proller",
      "family": "PianoRhodesWarm",
      "version": "0.0.0.0",
      "sizePagesOrUnits": 35,
      "crc32": 211937791,
      "bpm": 67,
      "bnum": 44,
      "noteCount": 6,
      "notes": [
        {
          "beat": 0,
          "duration": 4,
          "pitch": 48,
          "velocity": 30
        },
        {
          "beat": 0.5,
          "duration": 2,
          "pitch": 60,
          "velocity": 32
        },
        {
          "beat": 1,
          "duration": 2,
          "pitch": 67,
          "velocity": 45
        },
        {
          "beat": 1.5,
          "duration": 2.5,
          "pitch": 64,
          "velocity": 41
        },
        {
          "beat": 2.5,
          "duration": 1.5,
          "pitch": 60,
          "velocity": 38
        },
        {
          "beat": 3,
          "duration": 1,
          "pitch": 67,
          "velocity": 35
        }
      ],
      "decodedMidiPath": "rhythm_midi_patterns/decoded_pattern_midis/PianoRhodesWarm_67.mid"
    },
    {
      "code": "PianoRhodesWarm_68",
      "type": "chord_model_379",
      "subtype": "proller",
      "family": "PianoRhodesWarm",
      "version": "0.0.0.0",
      "sizePagesOrUnits": 35,
      "crc32": 702592545,
      "bpm": 67,
      "bnum": 44,
      "noteCount": 8,
      "notes": [
        {
          "beat": 0,
          "duration": 2,
          "pitch": 48,
          "velocity": 40
        },
        {
          "beat": 0,
          "duration": 2,
          "pitch": 60,
          "velocity": 46
        },
        {
          "beat": 0,
          "duration": 2,
          "pitch": 64,
          "velocity": 55
        },
        {
          "beat": 0,
          "duration": 2,
          "pitch": 67,
          "velocity": 44
        },
        {
          "beat": 2,
          "duration": 2,
          "pitch": 48,
          "velocity": 43
        },
        {
          "beat": 2,
          "duration": 2,
          "pitch": 60,
          "velocity": 40
        },
        {
          "beat": 2,
          "duration": 2,
          "pitch": 64,
          "velocity": 51
        },
        {
          "beat": 2,
          "duration": 2,
          "pitch": 67,
          "velocity": 47
        }
      ],
      "decodedMidiPath": "rhythm_midi_patterns/decoded_pattern_midis/PianoRhodesWarm_68.mid"
    },
    {
      "code": "PianoRhodesWarm_69",
      "type": "chord_model_379",
      "subtype": "proller",
      "family": "PianoRhodesWarm",
      "version": "0.0.0.0",
      "sizePagesOrUnits": 39,
      "crc32": 486790807,
      "bpm": 90,
      "bnum": 86,
      "noteCount": 9,
      "notes": [
        {
          "beat": 0,
          "duration": 1.5,
          "pitch": 48,
          "velocity": 32
        },
        {
          "beat": 0.5,
          "duration": 1,
          "pitch": 55,
          "velocity": 22
        },
        {
          "beat": 1,
          "duration": 0.5,
          "pitch": 60,
          "velocity": 17
        },
        {
          "beat": 1.5,
          "duration": 0.1666666716337204,
          "pitch": 48,
          "velocity": 25
        },
        {
          "beat": 1.5,
          "duration": 0.1666666716337204,
          "pitch": 55,
          "velocity": 15
        },
        {
          "beat": 1.5,
          "duration": 0.1666666716337204,
          "pitch": 60,
          "velocity": 10
        },
        {
          "beat": 1.5,
          "duration": 0.1666666716337204,
          "pitch": 64,
          "velocity": 36
        },
        {
          "beat": 1.5,
          "duration": 0.1666666716337204,
          "pitch": 67,
          "velocity": 42
        },
        {
          "beat": 1.5,
          "duration": 0.1666666716337204,
          "pitch": 72,
          "velocity": 44
        }
      ],
      "decodedMidiPath": "rhythm_midi_patterns/decoded_pattern_midis/PianoRhodesWarm_69.mid"
    },
    {
      "code": "PianoRhodesWarm_7",
      "type": "chord_model_379",
      "subtype": "proller",
      "family": "PianoRhodesWarm",
      "version": "1.0.0.0",
      "sizePagesOrUnits": 50,
      "crc32": 2901469706,
      "bpm": 72,
      "bnum": 86,
      "noteCount": 6,
      "notes": [
        {
          "beat": 0,
          "duration": 2.99791669845581,
          "pitch": 48,
          "velocity": 38
        },
        {
          "beat": 0.5,
          "duration": 1.9854166507720947,
          "pitch": 55,
          "velocity": 43
        },
        {
          "beat": 1,
          "duration": 1,
          "pitch": 60,
          "velocity": 41
        },
        {
          "beat": 1.5,
          "duration": 1.5,
          "pitch": 64,
          "velocity": 38
        },
        {
          "beat": 2,
          "duration": 1,
          "pitch": 60,
          "velocity": 41
        },
        {
          "beat": 2.5,
          "duration": 0.506250023841858,
          "pitch": 55,
          "velocity": 31
        }
      ],
      "decodedMidiPath": "rhythm_midi_patterns/decoded_pattern_midis/PianoRhodesWarm_7.mid"
    },
    {
      "code": "PianoRhodesWarm_70",
      "type": "chord_model_379",
      "subtype": "proller",
      "family": "PianoRhodesWarm",
      "version": "0.0.0.0",
      "sizePagesOrUnits": 71,
      "crc32": 3362595371,
      "bpm": 90,
      "bnum": 86,
      "noteCount": 21,
      "notes": [
        {
          "beat": 0,
          "duration": 1.5,
          "pitch": 48,
          "velocity": 30
        },
        {
          "beat": 0,
          "duration": 0.1145833358168602,
          "pitch": 64,
          "velocity": 20
        },
        {
          "beat": 0,
          "duration": 0.10833333432674408,
          "pitch": 67,
          "velocity": 32
        },
        {
          "beat": 0,
          "duration": 0.10625000298023224,
          "pitch": 72,
          "velocity": 37
        },
        {
          "beat": 0.5,
          "duration": 0.09375,
          "pitch": 64,
          "velocity": 25
        },
        {
          "beat": 0.5,
          "duration": 0.10208333283662796,
          "pitch": 67,
          "velocity": 39
        },
        {
          "beat": 0.5,
          "duration": 0.09375,
          "pitch": 72,
          "velocity": 32
        },
        {
          "beat": 1,
          "duration": 0.11041666567325592,
          "pitch": 64,
          "velocity": 20
        },
        {
          "beat": 1,
          "duration": 0.1145833358168602,
          "pitch": 67,
          "velocity": 35
        },
        {
          "beat": 1,
          "duration": 0.11041666567325592,
          "pitch": 72,
          "velocity": 30
        },
        {
          "beat": 1.5,
          "duration": 0.1666666716337204,
          "pitch": 48,
          "velocity": 10
        },
        {
          "beat": 1.5,
          "duration": 0.1666666716337204,
          "pitch": 55,
          "velocity": 25
        },
        {
          "beat": 1.5,
          "duration": 0.11041666567325592,
          "pitch": 64,
          "velocity": 38
        },
        {
          "beat": 1.5,
          "duration": 0.11249999701976776,
          "pitch": 67,
          "velocity": 45
        },
        {
          "beat": 1.5,
          "duration": 0.09583333134651184,
          "pitch": 72,
          "velocity": 41
        },
        {
          "beat": 2,
          "duration": 0.09375,
          "pitch": 64,
          "velocity": 25
        },
        {
          "beat": 2,
          "duration": 0.10208333283662796,
          "pitch": 67,
          "velocity": 39
        },
        {
          "beat": 2,
          "duration": 0.09375,
          "pitch": 72,
          "velocity": 32
        },
        {
          "beat": 2.5,
          "duration": 0.11041666567325592,
          "pitch": 64,
          "velocity": 20
        },
        {
          "beat": 2.5,
          "duration": 0.1145833358168602,
          "pitch": 67,
          "velocity": 35
        },
        {
          "beat": 2.5,
          "duration": 0.11041666567325592,
          "pitch": 72,
          "velocity": 30
        }
      ],
      "decodedMidiPath": "rhythm_midi_patterns/decoded_pattern_midis/PianoRhodesWarm_70.mid"
    },
    {
      "code": "PianoRhodesWarm_71",
      "type": "chord_model_379",
      "subtype": "proller",
      "family": "PianoRhodesWarm",
      "version": "0.0.0.0",
      "sizePagesOrUnits": 41,
      "crc32": 4112261305,
      "bpm": 109,
      "bnum": 44,
      "noteCount": 8,
      "notes": [
        {
          "beat": 0,
          "duration": 4,
          "pitch": 48,
          "velocity": 22
        },
        {
          "beat": 0,
          "duration": 0.7416666746139526,
          "pitch": 60,
          "velocity": 35
        },
        {
          "beat": 0,
          "duration": 1.5,
          "pitch": 64,
          "velocity": 43
        },
        {
          "beat": 0,
          "duration": 1.5,
          "pitch": 67,
          "velocity": 39
        },
        {
          "beat": 0.75,
          "duration": 0.7416666746139526,
          "pitch": 60,
          "velocity": 25
        },
        {
          "beat": 1.5,
          "duration": 2.5,
          "pitch": 60,
          "velocity": 34
        },
        {
          "beat": 1.5,
          "duration": 2.5,
          "pitch": 64,
          "velocity": 39
        },
        {
          "beat": 1.5,
          "duration": 2.5,
          "pitch": 67,
          "velocity": 40
        }
      ],
      "decodedMidiPath": "rhythm_midi_patterns/decoded_pattern_midis/PianoRhodesWarm_71.mid"
    },
    {
      "code": "PianoRhodesWarm_8",
      "type": "chord_model_379",
      "subtype": "proller",
      "family": "PianoRhodesWarm",
      "version": "1.0.0.0",
      "sizePagesOrUnits": 89,
      "crc32": 3628460140,
      "bpm": 72,
      "bnum": 44,
      "noteCount": 14,
      "notes": [
        {
          "beat": 0,
          "duration": 4,
          "pitch": 48,
          "velocity": 37
        },
        {
          "beat": 0,
          "duration": 3.5,
          "pitch": 60,
          "velocity": 25
        },
        {
          "beat": 0,
          "duration": 1,
          "pitch": 64,
          "velocity": 39
        },
        {
          "beat": 0,
          "duration": 1,
          "pitch": 67,
          "velocity": 38
        },
        {
          "beat": 0.5,
          "duration": 1,
          "pitch": 55,
          "velocity": 25
        },
        {
          "beat": 1,
          "duration": 1,
          "pitch": 64,
          "velocity": 28
        },
        {
          "beat": 1,
          "duration": 1,
          "pitch": 67,
          "velocity": 27
        },
        {
          "beat": 1.5,
          "duration": 1,
          "pitch": 55,
          "velocity": 18
        },
        {
          "beat": 2,
          "duration": 1,
          "pitch": 64,
          "velocity": 38
        },
        {
          "beat": 2,
          "duration": 1,
          "pitch": 67,
          "velocity": 37
        },
        {
          "beat": 2.5,
          "duration": 1.5,
          "pitch": 55,
          "velocity": 24
        },
        {
          "beat": 3,
          "duration": 1,
          "pitch": 64,
          "velocity": 38
        },
        {
          "beat": 3,
          "duration": 1,
          "pitch": 67,
          "velocity": 37
        },
        {
          "beat": 3.5,
          "duration": 0.5,
          "pitch": 60,
          "velocity": 23
        }
      ],
      "decodedMidiPath": "rhythm_midi_patterns/decoded_pattern_midis/PianoRhodesWarm_8.mid"
    },
    {
      "code": "PianoRhodesWarm_9",
      "type": "chord_model_379",
      "subtype": "proller",
      "family": "PianoRhodesWarm",
      "version": "0.0.0.0",
      "sizePagesOrUnits": 44,
      "crc32": 730278399,
      "bpm": 67,
      "bnum": 44,
      "noteCount": 9,
      "notes": [
        {
          "beat": 0,
          "duration": 2,
          "pitch": 48,
          "velocity": 40
        },
        {
          "beat": 0.014583333395421505,
          "duration": 1.9854166507720947,
          "pitch": 60,
          "velocity": 32
        },
        {
          "beat": 0.02083333395421505,
          "duration": 1.9791666269302368,
          "pitch": 64,
          "velocity": 38
        },
        {
          "beat": 0.03125,
          "duration": 1.96875,
          "pitch": 67,
          "velocity": 43
        },
        {
          "beat": 2,
          "duration": 2,
          "pitch": 48,
          "velocity": 30
        },
        {
          "beat": 2,
          "duration": 2,
          "pitch": 60,
          "velocity": 30
        },
        {
          "beat": 2,
          "duration": 2,
          "pitch": 64,
          "velocity": 27
        },
        {
          "beat": 2,
          "duration": 2,
          "pitch": 67,
          "velocity": 22
        },
        {
          "beat": 3,
          "duration": 1,
          "pitch": 55,
          "velocity": 20
        }
      ],
      "decodedMidiPath": "rhythm_midi_patterns/decoded_pattern_midis/PianoRhodesWarm_9.mid"
    },
    {
      "code": "PianoRhosdesWarm_3",
      "type": "chord_model_379",
      "subtype": "proller",
      "family": "PianoRhodesWarm",
      "version": "0.0.0.0",
      "sizePagesOrUnits": 102,
      "crc32": 3069311749,
      "bpm": 72,
      "bnum": 44,
      "noteCount": 14,
      "notes": [
        {
          "beat": 0,
          "duration": 2,
          "pitch": 48,
          "velocity": 42
        },
        {
          "beat": 0,
          "duration": 1,
          "pitch": 60,
          "velocity": 42
        },
        {
          "beat": 0,
          "duration": 1,
          "pitch": 64,
          "velocity": 49
        },
        {
          "beat": 0,
          "duration": 1,
          "pitch": 67,
          "velocity": 38
        },
        {
          "beat": 1,
          "duration": 1,
          "pitch": 67,
          "velocity": 37
        },
        {
          "beat": 1,
          "duration": 1,
          "pitch": 60,
          "velocity": 36
        },
        {
          "beat": 1,
          "duration": 1,
          "pitch": 64,
          "velocity": 31
        },
        {
          "beat": 2,
          "duration": 2,
          "pitch": 48,
          "velocity": 37
        },
        {
          "beat": 2,
          "duration": 1,
          "pitch": 67,
          "velocity": 33
        },
        {
          "beat": 2,
          "duration": 1,
          "pitch": 60,
          "velocity": 43
        },
        {
          "beat": 2,
          "duration": 1,
          "pitch": 64,
          "velocity": 42
        },
        {
          "beat": 3,
          "duration": 1,
          "pitch": 67,
          "velocity": 28
        },
        {
          "beat": 3,
          "duration": 1,
          "pitch": 60,
          "velocity": 32
        },
        {
          "beat": 3,
          "duration": 1,
          "pitch": 64,
          "velocity": 27
        }
      ],
      "decodedMidiPath": "rhythm_midi_patterns/decoded_pattern_midis/PianoRhosdesWarm_3.mid"
    },
    {
      "code": "PianoRhosdesWarm_4",
      "type": "chord_model_379",
      "subtype": "proller",
      "family": "PianoRhodesWarm",
      "version": "1.0.0.0",
      "sizePagesOrUnits": 109,
      "crc32": 634369536,
      "bpm": 80,
      "bnum": 44,
      "noteCount": 17,
      "notes": [
        {
          "beat": 0,
          "duration": 4,
          "pitch": 48,
          "velocity": 50
        },
        {
          "beat": 0,
          "duration": 1,
          "pitch": 55,
          "velocity": 31
        },
        {
          "beat": 0,
          "duration": 1,
          "pitch": 64,
          "velocity": 33
        },
        {
          "beat": 0,
          "duration": 1,
          "pitch": 67,
          "velocity": 42
        },
        {
          "beat": 0.5,
          "duration": 1,
          "pitch": 60,
          "velocity": 34
        },
        {
          "beat": 1,
          "duration": 1,
          "pitch": 55,
          "velocity": 23
        },
        {
          "beat": 1,
          "duration": 1,
          "pitch": 64,
          "velocity": 30
        },
        {
          "beat": 1,
          "duration": 1,
          "pitch": 67,
          "velocity": 31
        },
        {
          "beat": 1.5,
          "duration": 1,
          "pitch": 60,
          "velocity": 20
        },
        {
          "beat": 2,
          "duration": 1,
          "pitch": 55,
          "velocity": 27
        },
        {
          "beat": 2,
          "duration": 1,
          "pitch": 64,
          "velocity": 37
        },
        {
          "beat": 2,
          "duration": 1,
          "pitch": 67,
          "velocity": 39
        },
        {
          "beat": 2.5,
          "duration": 1,
          "pitch": 60,
          "velocity": 33
        },
        {
          "beat": 3,
          "duration": 1,
          "pitch": 55,
          "velocity": 25
        },
        {
          "beat": 3,
          "duration": 1,
          "pitch": 64,
          "velocity": 33
        },
        {
          "beat": 3,
          "duration": 1,
          "pitch": 67,
          "velocity": 30
        },
        {
          "beat": 3.5,
          "duration": 0.5,
          "pitch": 60,
          "velocity": 16
        }
      ],
      "decodedMidiPath": "rhythm_midi_patterns/decoded_pattern_midis/PianoRhosdesWarm_4.mid"
    },
    {
      "code": "PianoRhosdesWarm_5",
      "type": "chord_model_379",
      "subtype": "proller",
      "family": "PianoRhodesWarm",
      "version": "1.0.0.0",
      "sizePagesOrUnits": 34,
      "crc32": 2344022415,
      "bpm": 120,
      "bnum": 44,
      "noteCount": 7,
      "notes": [
        {
          "beat": 0,
          "duration": 4,
          "pitch": 48,
          "velocity": 50
        },
        {
          "beat": 0,
          "duration": 2,
          "pitch": 60,
          "velocity": 35
        },
        {
          "beat": 0.06458333134651184,
          "duration": 2.93541669845581,
          "pitch": 64,
          "velocity": 30
        },
        {
          "beat": 0.125,
          "duration": 3.875,
          "pitch": 67,
          "velocity": 40
        },
        {
          "beat": 2,
          "duration": 1.5,
          "pitch": 60,
          "velocity": 23
        },
        {
          "beat": 3,
          "duration": 1,
          "pitch": 64,
          "velocity": 30
        },
        {
          "beat": 3.5,
          "duration": 0.5,
          "pitch": 60,
          "velocity": 15
        }
      ],
      "decodedMidiPath": "rhythm_midi_patterns/decoded_pattern_midis/PianoRhosdesWarm_5.mid"
    },
    {
      "code": "PianoRhosdesWarm_6",
      "type": "chord_model_379",
      "subtype": "proller",
      "family": "PianoRhodesWarm",
      "version": "1.0.0.0",
      "sizePagesOrUnits": 43,
      "crc32": 3536446091,
      "bpm": 90,
      "bnum": 43,
      "noteCount": 4,
      "notes": [
        {
          "beat": 0,
          "duration": 3,
          "pitch": 48,
          "velocity": 45
        },
        {
          "beat": 1,
          "duration": 2,
          "pitch": 60,
          "velocity": 30
        },
        {
          "beat": 2,
          "duration": 1,
          "pitch": 64,
          "velocity": 35
        },
        {
          "beat": 2,
          "duration": 1,
          "pitch": 67,
          "velocity": 33
        }
      ],
      "decodedMidiPath": "rhythm_midi_patterns/decoded_pattern_midis/PianoRhosdesWarm_6.mid"
    },
    {
      "code": "PianoStudio_1",
      "type": "chord_model_379",
      "subtype": "proller",
      "family": "PianoStudio",
      "version": "0.0.0.0",
      "sizePagesOrUnits": 55,
      "crc32": 4222336131,
      "bpm": 72,
      "bnum": 44,
      "noteCount": 8,
      "notes": [
        {
          "beat": 0,
          "duration": 3.99791669845581,
          "pitch": 48,
          "velocity": 44
        },
        {
          "beat": 0.5,
          "duration": 0.987500011920929,
          "pitch": 55,
          "velocity": 33
        },
        {
          "beat": 1,
          "duration": 2,
          "pitch": 60,
          "velocity": 50
        },
        {
          "beat": 1.5,
          "duration": 1,
          "pitch": 55,
          "velocity": 29
        },
        {
          "beat": 2,
          "duration": 2,
          "pitch": 64,
          "velocity": 42
        },
        {
          "beat": 2.5,
          "duration": 1,
          "pitch": 55,
          "velocity": 24
        },
        {
          "beat": 3,
          "duration": 1,
          "pitch": 60,
          "velocity": 55
        },
        {
          "beat": 3.5,
          "duration": 0.5,
          "pitch": 55,
          "velocity": 21
        }
      ],
      "decodedMidiPath": "rhythm_midi_patterns/decoded_pattern_midis/PianoStudio_1.mid"
    },
    {
      "code": "PianoStudio_10",
      "type": "chord_model_379",
      "subtype": "proller",
      "family": "PianoStudio",
      "version": "0.0.0.0",
      "sizePagesOrUnits": 51,
      "crc32": 2256250141,
      "bpm": 72,
      "bnum": 44,
      "noteCount": 14,
      "notes": [
        {
          "beat": 0,
          "duration": 2,
          "pitch": 48,
          "velocity": 15
        },
        {
          "beat": 0.25,
          "duration": 0.5,
          "pitch": 55,
          "velocity": 29
        },
        {
          "beat": 0.5,
          "duration": 1.25,
          "pitch": 60,
          "velocity": 25
        },
        {
          "beat": 0.75,
          "duration": 1.5,
          "pitch": 55,
          "velocity": 24
        },
        {
          "beat": 1,
          "duration": 3,
          "pitch": 67,
          "velocity": 20
        },
        {
          "beat": 1.5,
          "duration": 1.5,
          "pitch": 64,
          "velocity": 13
        },
        {
          "beat": 1.75,
          "duration": 0.75,
          "pitch": 60,
          "velocity": 8
        },
        {
          "beat": 2,
          "duration": 2,
          "pitch": 48,
          "velocity": 16
        },
        {
          "beat": 2.25,
          "duration": 0.5,
          "pitch": 55,
          "velocity": 26
        },
        {
          "beat": 2.5,
          "duration": 1,
          "pitch": 60,
          "velocity": 25
        },
        {
          "beat": 2.75,
          "duration": 1,
          "pitch": 55,
          "velocity": 15
        },
        {
          "beat": 3,
          "duration": 1,
          "pitch": 64,
          "velocity": 20
        },
        {
          "beat": 3.5,
          "duration": 0.5,
          "pitch": 60,
          "velocity": 15
        },
        {
          "beat": 3.75,
          "duration": 0.25,
          "pitch": 55,
          "velocity": 5
        }
      ],
      "decodedMidiPath": "rhythm_midi_patterns/decoded_pattern_midis/PianoStudio_10.mid"
    },
    {
      "code": "PianoStudio_11",
      "type": "chord_model_379",
      "subtype": "proller",
      "family": "PianoStudio",
      "version": "0.0.0.0",
      "sizePagesOrUnits": 54,
      "crc32": 3763033169,
      "bpm": 72,
      "bnum": 44,
      "noteCount": 14,
      "notes": [
        {
          "beat": 0,
          "duration": 1.5,
          "pitch": 48,
          "velocity": 34
        },
        {
          "beat": 0,
          "duration": 0.75,
          "pitch": 60,
          "velocity": 29
        },
        {
          "beat": 0,
          "duration": 1.5,
          "pitch": 64,
          "velocity": 39
        },
        {
          "beat": 0,
          "duration": 1.5,
          "pitch": 67,
          "velocity": 41
        },
        {
          "beat": 0.75,
          "duration": 0.75,
          "pitch": 60,
          "velocity": 30
        },
        {
          "beat": 1.25,
          "duration": 0.25,
          "pitch": 55,
          "velocity": 25
        },
        {
          "beat": 1.5,
          "duration": 1.5,
          "pitch": 48,
          "velocity": 30
        },
        {
          "beat": 1.5,
          "duration": 2,
          "pitch": 60,
          "velocity": 26
        },
        {
          "beat": 1.5,
          "duration": 2.5,
          "pitch": 64,
          "velocity": 25
        },
        {
          "beat": 1.5,
          "duration": 2.25,
          "pitch": 67,
          "velocity": 31
        },
        {
          "beat": 3,
          "duration": 1.0020833015441895,
          "pitch": 48,
          "velocity": 29
        },
        {
          "beat": 3.25,
          "duration": 0.75,
          "pitch": 55,
          "velocity": 35
        },
        {
          "beat": 3.5,
          "duration": 0.5,
          "pitch": 60,
          "velocity": 25
        },
        {
          "beat": 3.75,
          "duration": 0.25,
          "pitch": 67,
          "velocity": 25
        }
      ],
      "decodedMidiPath": "rhythm_midi_patterns/decoded_pattern_midis/PianoStudio_11.mid"
    },
    {
      "code": "PianoStudio_12",
      "type": "chord_model_379",
      "subtype": "proller",
      "family": "PianoStudio",
      "version": "0.0.0.0",
      "sizePagesOrUnits": 51,
      "crc32": 3478512498,
      "bpm": 125,
      "bnum": 44,
      "noteCount": 10,
      "notes": [
        {
          "beat": 0,
          "duration": 4,
          "pitch": 48,
          "velocity": 18
        },
        {
          "beat": 0,
          "duration": 1.5,
          "pitch": 55,
          "velocity": 26
        },
        {
          "beat": 0,
          "duration": 1.5,
          "pitch": 60,
          "velocity": 31
        },
        {
          "beat": 0,
          "duration": 1.5,
          "pitch": 64,
          "velocity": 36
        },
        {
          "beat": 1.5,
          "duration": 1.5,
          "pitch": 55,
          "velocity": 18
        },
        {
          "beat": 1.5,
          "duration": 1.5,
          "pitch": 60,
          "velocity": 26
        },
        {
          "beat": 1.5,
          "duration": 1.5,
          "pitch": 64,
          "velocity": 31
        },
        {
          "beat": 3,
          "duration": 1,
          "pitch": 55,
          "velocity": 22
        },
        {
          "beat": 3,
          "duration": 1,
          "pitch": 60,
          "velocity": 30
        },
        {
          "beat": 3,
          "duration": 1,
          "pitch": 64,
          "velocity": 33
        }
      ],
      "decodedMidiPath": "rhythm_midi_patterns/decoded_pattern_midis/PianoStudio_12.mid"
    },
    {
      "code": "PianoStudio_13",
      "type": "chord_model_379",
      "subtype": "proller",
      "family": "PianoStudio",
      "version": "0.0.0.0",
      "sizePagesOrUnits": 41,
      "crc32": 2816164732,
      "bpm": 88,
      "bnum": 44,
      "noteCount": 9,
      "notes": [
        {
          "beat": 0,
          "duration": 3.9791667461395264,
          "pitch": 48,
          "velocity": 25
        },
        {
          "beat": 0,
          "duration": 1.975000023841858,
          "pitch": 64,
          "velocity": 36
        },
        {
          "beat": 0.5,
          "duration": 0.9791666865348816,
          "pitch": 55,
          "velocity": 24
        },
        {
          "beat": 1,
          "duration": 1.975000023841858,
          "pitch": 60,
          "velocity": 27
        },
        {
          "beat": 1.5,
          "duration": 0.9791666865348816,
          "pitch": 55,
          "velocity": 26
        },
        {
          "beat": 2,
          "duration": 1.975000023841858,
          "pitch": 64,
          "velocity": 33
        },
        {
          "beat": 2.5,
          "duration": 0.9791666865348816,
          "pitch": 55,
          "velocity": 23
        },
        {
          "beat": 3,
          "duration": 0.975000023841858,
          "pitch": 60,
          "velocity": 25
        },
        {
          "beat": 3.5,
          "duration": 0.4791666567325592,
          "pitch": 55,
          "velocity": 29
        }
      ],
      "decodedMidiPath": "rhythm_midi_patterns/decoded_pattern_midis/PianoStudio_13.mid"
    },
    {
      "code": "PianoStudio_14",
      "type": "chord_model_379",
      "subtype": "proller",
      "family": "PianoStudio",
      "version": "0.0.0.0",
      "sizePagesOrUnits": 33,
      "crc32": 1117864783,
      "bpm": 120,
      "bnum": 44,
      "noteCount": 7,
      "notes": [
        {
          "beat": 0,
          "duration": 4,
          "pitch": 48,
          "velocity": 50
        },
        {
          "beat": 0.5,
          "duration": 2.5,
          "pitch": 60,
          "velocity": 35
        },
        {
          "beat": 1,
          "duration": 1.5,
          "pitch": 64,
          "velocity": 27
        },
        {
          "beat": 1.5,
          "duration": 2.5,
          "pitch": 67,
          "velocity": 40
        },
        {
          "beat": 2.5,
          "duration": 1,
          "pitch": 64,
          "velocity": 20
        },
        {
          "beat": 3,
          "duration": 1,
          "pitch": 60,
          "velocity": 20
        },
        {
          "beat": 3.5,
          "duration": 0.5,
          "pitch": 64,
          "velocity": 15
        }
      ],
      "decodedMidiPath": "rhythm_midi_patterns/decoded_pattern_midis/PianoStudio_14.mid"
    },
    {
      "code": "PianoStudio_15",
      "type": "chord_model_379",
      "subtype": "proller",
      "family": "PianoStudio",
      "version": "0.0.0.0",
      "sizePagesOrUnits": 51,
      "crc32": 3576479118,
      "bpm": 142,
      "bnum": 44,
      "noteCount": 7,
      "notes": [
        {
          "beat": 0,
          "duration": 3.9937500953674316,
          "pitch": 48,
          "velocity": 36
        },
        {
          "beat": 0.5,
          "duration": 3,
          "pitch": 60,
          "velocity": 20
        },
        {
          "beat": 1,
          "duration": 1.5,
          "pitch": 64,
          "velocity": 35
        },
        {
          "beat": 1.5,
          "duration": 1.5,
          "pitch": 67,
          "velocity": 34
        },
        {
          "beat": 2.5,
          "duration": 1.5,
          "pitch": 64,
          "velocity": 25
        },
        {
          "beat": 3,
          "duration": 1,
          "pitch": 67,
          "velocity": 30
        },
        {
          "beat": 3.5,
          "duration": 0.5,
          "pitch": 60,
          "velocity": 20
        }
      ],
      "decodedMidiPath": "rhythm_midi_patterns/decoded_pattern_midis/PianoStudio_15.mid"
    },
    {
      "code": "PianoStudio_16",
      "type": "chord_model_379",
      "subtype": "proller",
      "family": "PianoStudio",
      "version": "0.0.0.0",
      "sizePagesOrUnits": 61,
      "crc32": 1383800472,
      "bpm": 73,
      "bnum": 44,
      "noteCount": 16,
      "notes": [
        {
          "beat": 0,
          "duration": 4.02916669845581,
          "pitch": 48,
          "velocity": 22
        },
        {
          "beat": 0,
          "duration": 0.9958333373069763,
          "pitch": 67,
          "velocity": 29
        },
        {
          "beat": 0.5,
          "duration": 0.9958333373069763,
          "pitch": 64,
          "velocity": 27
        },
        {
          "beat": 0.5,
          "duration": 0.9958333373069763,
          "pitch": 72,
          "velocity": 27
        },
        {
          "beat": 1,
          "duration": 0.9958333373069763,
          "pitch": 60,
          "velocity": 23
        },
        {
          "beat": 1,
          "duration": 0.9958333373069763,
          "pitch": 67,
          "velocity": 29
        },
        {
          "beat": 1.5,
          "duration": 0.9958333373069763,
          "pitch": 64,
          "velocity": 26
        },
        {
          "beat": 1.5,
          "duration": 0.9958333373069763,
          "pitch": 72,
          "velocity": 27
        },
        {
          "beat": 2,
          "duration": 0.9958333373069763,
          "pitch": 60,
          "velocity": 29
        },
        {
          "beat": 2,
          "duration": 0.9958333373069763,
          "pitch": 67,
          "velocity": 29
        },
        {
          "beat": 2.5,
          "duration": 0.9958333373069763,
          "pitch": 64,
          "velocity": 24
        },
        {
          "beat": 2.5,
          "duration": 0.9958333373069763,
          "pitch": 72,
          "velocity": 27
        },
        {
          "beat": 3,
          "duration": 1.0291666984558105,
          "pitch": 60,
          "velocity": 28
        },
        {
          "beat": 3,
          "duration": 1.0291666984558105,
          "pitch": 67,
          "velocity": 29
        },
        {
          "beat": 3.5,
          "duration": 0.5291666388511658,
          "pitch": 64,
          "velocity": 25
        },
        {
          "beat": 3.5,
          "duration": 0.5291666388511658,
          "pitch": 72,
          "velocity": 27
        }
      ],
      "decodedMidiPath": "rhythm_midi_patterns/decoded_pattern_midis/PianoStudio_16.mid"
    },
    {
      "code": "PianoStudio_17",
      "type": "chord_model_379",
      "subtype": "proller",
      "family": "PianoStudio",
      "version": "0.0.0.0",
      "sizePagesOrUnits": 71,
      "crc32": 810561857,
      "bpm": 86,
      "bnum": 44,
      "noteCount": 12,
      "notes": [
        {
          "beat": 0,
          "duration": 1,
          "pitch": 48,
          "velocity": 49
        },
        {
          "beat": 0.5,
          "duration": 0.5,
          "pitch": 60,
          "velocity": 39
        },
        {
          "beat": 0.75,
          "duration": 0.1875,
          "pitch": 64,
          "velocity": 28
        },
        {
          "beat": 0.75,
          "duration": 0.1875,
          "pitch": 67,
          "velocity": 37
        },
        {
          "beat": 1,
          "duration": 0.25,
          "pitch": 52,
          "velocity": 34
        },
        {
          "beat": 1.5,
          "duration": 2.5,
          "pitch": 48,
          "velocity": 42
        },
        {
          "beat": 1.5,
          "duration": 1.5,
          "pitch": 60,
          "velocity": 44
        },
        {
          "beat": 1.5,
          "duration": 2.5,
          "pitch": 64,
          "velocity": 45
        },
        {
          "beat": 1.5,
          "duration": 2.5,
          "pitch": 67,
          "velocity": 31
        },
        {
          "beat": 2.75,
          "duration": 0.75,
          "pitch": 55,
          "velocity": 36
        },
        {
          "beat": 3,
          "duration": 1,
          "pitch": 60,
          "velocity": 42
        },
        {
          "beat": 3.5,
          "duration": 0.5,
          "pitch": 55,
          "velocity": 37
        }
      ],
      "decodedMidiPath": "rhythm_midi_patterns/decoded_pattern_midis/PianoStudio_17.mid"
    },
    {
      "code": "PianoStudio_18",
      "type": "chord_model_379",
      "subtype": "proller",
      "family": "PianoStudio",
      "version": "0.0.0.0",
      "sizePagesOrUnits": 90,
      "crc32": 1749701891,
      "bpm": 86,
      "bnum": 44,
      "noteCount": 15,
      "notes": [
        {
          "beat": 0,
          "duration": 2,
          "pitch": 48,
          "velocity": 40
        },
        {
          "beat": 0.5,
          "duration": 1.25,
          "pitch": 64,
          "velocity": 47
        },
        {
          "beat": 0.5,
          "duration": 1.25,
          "pitch": 67,
          "velocity": 47
        },
        {
          "beat": 1,
          "duration": 1.5,
          "pitch": 60,
          "velocity": 39
        },
        {
          "beat": 1.75,
          "duration": 0.5,
          "pitch": 64,
          "velocity": 29
        },
        {
          "beat": 1.75,
          "duration": 0.5,
          "pitch": 67,
          "velocity": 29
        },
        {
          "beat": 2,
          "duration": 2,
          "pitch": 48,
          "velocity": 43
        },
        {
          "beat": 2.25,
          "duration": 0.75,
          "pitch": 64,
          "velocity": 46
        },
        {
          "beat": 2.25,
          "duration": 0.75,
          "pitch": 67,
          "velocity": 46
        },
        {
          "beat": 2.5,
          "duration": 0.25,
          "pitch": 60,
          "velocity": 35
        },
        {
          "beat": 2.75,
          "duration": 1.25,
          "pitch": 55,
          "velocity": 44
        },
        {
          "beat": 3,
          "duration": 0.7479166388511658,
          "pitch": 64,
          "velocity": 27
        },
        {
          "beat": 3,
          "duration": 0.7479166388511658,
          "pitch": 67,
          "velocity": 27
        },
        {
          "beat": 3.75,
          "duration": 0.25,
          "pitch": 64,
          "velocity": 47
        },
        {
          "beat": 3.75,
          "duration": 0.25,
          "pitch": 67,
          "velocity": 31
        }
      ],
      "decodedMidiPath": "rhythm_midi_patterns/decoded_pattern_midis/PianoStudio_18.mid"
    },
    {
      "code": "PianoStudio_19",
      "type": "chord_model_379",
      "subtype": "proller",
      "family": "PianoStudio",
      "version": "0.0.0.0",
      "sizePagesOrUnits": 43,
      "crc32": 242547574,
      "bpm": 120,
      "bnum": 86,
      "noteCount": 6,
      "notes": [
        {
          "beat": 0,
          "duration": 3,
          "pitch": 48,
          "velocity": 50
        },
        {
          "beat": 0.5,
          "duration": 2,
          "pitch": 60,
          "velocity": 25
        },
        {
          "beat": 1,
          "duration": 1,
          "pitch": 64,
          "velocity": 30
        },
        {
          "beat": 1.5,
          "duration": 1.5,
          "pitch": 67,
          "velocity": 40
        },
        {
          "beat": 2,
          "duration": 1,
          "pitch": 64,
          "velocity": 20
        },
        {
          "beat": 2.5,
          "duration": 0.5,
          "pitch": 60,
          "velocity": 20
        }
      ],
      "decodedMidiPath": "rhythm_midi_patterns/decoded_pattern_midis/PianoStudio_19.mid"
    },
    {
      "code": "PianoStudio_2",
      "type": "chord_model_379",
      "subtype": "proller",
      "family": "PianoStudio",
      "version": "0.0.0.0",
      "sizePagesOrUnits": 59,
      "crc32": 2083994269,
      "bpm": 70,
      "bnum": 44,
      "noteCount": 8,
      "notes": [
        {
          "beat": 0,
          "duration": 4,
          "pitch": 48,
          "velocity": 36
        },
        {
          "beat": 0.5,
          "duration": 3,
          "pitch": 55,
          "velocity": 26
        },
        {
          "beat": 1,
          "duration": 2,
          "pitch": 60,
          "velocity": 39
        },
        {
          "beat": 1.5,
          "duration": 1,
          "pitch": 64,
          "velocity": 35
        },
        {
          "beat": 2,
          "duration": 2,
          "pitch": 67,
          "velocity": 53
        },
        {
          "beat": 2.5,
          "duration": 1.5,
          "pitch": 64,
          "velocity": 30
        },
        {
          "beat": 3,
          "duration": 1,
          "pitch": 60,
          "velocity": 39
        },
        {
          "beat": 3.5,
          "duration": 0.49791666865348816,
          "pitch": 55,
          "velocity": 21
        }
      ],
      "decodedMidiPath": "rhythm_midi_patterns/decoded_pattern_midis/PianoStudio_2.mid"
    },
    {
      "code": "PianoStudio_20",
      "type": "chord_model_379",
      "subtype": "proller",
      "family": "PianoStudio",
      "version": "0.0.0.0",
      "sizePagesOrUnits": 63,
      "crc32": 3865387984,
      "bpm": 72,
      "bnum": 44,
      "noteCount": 18,
      "notes": [
        {
          "beat": 0,
          "duration": 1.5,
          "pitch": 48,
          "velocity": 45
        },
        {
          "beat": 0,
          "duration": 1,
          "pitch": 60,
          "velocity": 33
        },
        {
          "beat": 0,
          "duration": 1,
          "pitch": 64,
          "velocity": 30
        },
        {
          "beat": 0,
          "duration": 1,
          "pitch": 67,
          "velocity": 36
        },
        {
          "beat": 1,
          "duration": 1,
          "pitch": 60,
          "velocity": 30
        },
        {
          "beat": 1,
          "duration": 1,
          "pitch": 64,
          "velocity": 40
        },
        {
          "beat": 1,
          "duration": 1,
          "pitch": 67,
          "velocity": 33
        },
        {
          "beat": 1.5,
          "duration": 0.5,
          "pitch": 48,
          "velocity": 20
        },
        {
          "beat": 1.75,
          "duration": 0.25,
          "pitch": 55,
          "velocity": 30
        },
        {
          "beat": 2,
          "duration": 1.5,
          "pitch": 48,
          "velocity": 35
        },
        {
          "beat": 2,
          "duration": 1,
          "pitch": 60,
          "velocity": 33
        },
        {
          "beat": 2,
          "duration": 1,
          "pitch": 64,
          "velocity": 30
        },
        {
          "beat": 2,
          "duration": 1,
          "pitch": 67,
          "velocity": 36
        },
        {
          "beat": 3,
          "duration": 1,
          "pitch": 60,
          "velocity": 30
        },
        {
          "beat": 3,
          "duration": 1,
          "pitch": 64,
          "velocity": 40
        },
        {
          "beat": 3,
          "duration": 1,
          "pitch": 67,
          "velocity": 33
        },
        {
          "beat": 3.5,
          "duration": 0.5,
          "pitch": 48,
          "velocity": 20
        },
        {
          "beat": 3.75,
          "duration": 0.25,
          "pitch": 55,
          "velocity": 30
        }
      ],
      "decodedMidiPath": "rhythm_midi_patterns/decoded_pattern_midis/PianoStudio_20.mid"
    },
    {
      "code": "PianoStudio_21",
      "type": "chord_model_379",
      "subtype": "proller",
      "family": "PianoStudio",
      "version": "0.0.0.0",
      "sizePagesOrUnits": 59,
      "crc32": 2616054055,
      "bpm": 66,
      "bnum": 44,
      "noteCount": 17,
      "notes": [
        {
          "beat": 0,
          "duration": 3.991666555404663,
          "pitch": 48,
          "velocity": 27
        },
        {
          "beat": 0,
          "duration": 0.9916666746139526,
          "pitch": 64,
          "velocity": 28
        },
        {
          "beat": 0.25,
          "duration": 0.49166667461395264,
          "pitch": 60,
          "velocity": 30
        },
        {
          "beat": 0.5,
          "duration": 0.9916666746139526,
          "pitch": 55,
          "velocity": 26
        },
        {
          "beat": 0.75,
          "duration": 0.49166667461395264,
          "pitch": 60,
          "velocity": 29
        },
        {
          "beat": 1,
          "duration": 0.9916666746139526,
          "pitch": 64,
          "velocity": 33
        },
        {
          "beat": 1.25,
          "duration": 0.49166667461395264,
          "pitch": 60,
          "velocity": 29
        },
        {
          "beat": 1.5,
          "duration": 0.9916666746139526,
          "pitch": 55,
          "velocity": 25
        },
        {
          "beat": 1.75,
          "duration": 0.49166667461395264,
          "pitch": 60,
          "velocity": 29
        },
        {
          "beat": 2,
          "duration": 0.9916666746139526,
          "pitch": 64,
          "velocity": 34
        },
        {
          "beat": 2.25,
          "duration": 0.49166667461395264,
          "pitch": 60,
          "velocity": 29
        },
        {
          "beat": 2.5,
          "duration": 0.9916666746139526,
          "pitch": 55,
          "velocity": 25
        },
        {
          "beat": 2.75,
          "duration": 0.49166667461395264,
          "pitch": 60,
          "velocity": 27
        },
        {
          "beat": 3,
          "duration": 0.9916666746139526,
          "pitch": 64,
          "velocity": 34
        },
        {
          "beat": 3.25,
          "duration": 0.49166667461395264,
          "pitch": 60,
          "velocity": 27
        },
        {
          "beat": 3.5,
          "duration": 0.49166667461395264,
          "pitch": 55,
          "velocity": 27
        },
        {
          "beat": 3.75,
          "duration": 0.24166665971279144,
          "pitch": 60,
          "velocity": 27
        }
      ],
      "decodedMidiPath": "rhythm_midi_patterns/decoded_pattern_midis/PianoStudio_21.mid"
    },
    {
      "code": "PianoStudio_22",
      "type": "chord_model_379",
      "subtype": "proller",
      "family": "PianoStudio",
      "version": "0.0.0.0",
      "sizePagesOrUnits": 95,
      "crc32": 2915568081,
      "bpm": 54,
      "bnum": 44,
      "noteCount": 16,
      "notes": [
        {
          "beat": 0,
          "duration": 2,
          "pitch": 48,
          "velocity": 28
        },
        {
          "beat": 0.25,
          "duration": 1.75,
          "pitch": 55,
          "velocity": 23
        },
        {
          "beat": 0.5,
          "duration": 0.7458333373069763,
          "pitch": 60,
          "velocity": 28
        },
        {
          "beat": 0.75,
          "duration": 0.7458333373069763,
          "pitch": 64,
          "velocity": 26
        },
        {
          "beat": 1,
          "duration": 0.7458333373069763,
          "pitch": 67,
          "velocity": 30
        },
        {
          "beat": 1.25,
          "duration": 0.75,
          "pitch": 60,
          "velocity": 26
        },
        {
          "beat": 1.5,
          "duration": 0.5,
          "pitch": 64,
          "velocity": 26
        },
        {
          "beat": 1.75,
          "duration": 0.25,
          "pitch": 67,
          "velocity": 21
        },
        {
          "beat": 2,
          "duration": 2,
          "pitch": 48,
          "velocity": 28
        },
        {
          "beat": 2.25,
          "duration": 1.75,
          "pitch": 55,
          "velocity": 23
        },
        {
          "beat": 2.5,
          "duration": 0.7458333373069763,
          "pitch": 60,
          "velocity": 28
        },
        {
          "beat": 2.75,
          "duration": 0.7458333373069763,
          "pitch": 64,
          "velocity": 26
        },
        {
          "beat": 3,
          "duration": 0.7458333373069763,
          "pitch": 67,
          "velocity": 30
        },
        {
          "beat": 3.25,
          "duration": 0.75,
          "pitch": 60,
          "velocity": 26
        },
        {
          "beat": 3.5,
          "duration": 0.5,
          "pitch": 64,
          "velocity": 26
        },
        {
          "beat": 3.75,
          "duration": 0.25,
          "pitch": 67,
          "velocity": 21
        }
      ],
      "decodedMidiPath": "rhythm_midi_patterns/decoded_pattern_midis/PianoStudio_22.mid"
    },
    {
      "code": "PianoStudio_23",
      "type": "chord_model_379",
      "subtype": "proller",
      "family": "PianoStudio",
      "version": "0.0.0.0",
      "sizePagesOrUnits": 48,
      "crc32": 4274254589,
      "bpm": 78,
      "bnum": 44,
      "noteCount": 4,
      "notes": [
        {
          "beat": 0,
          "duration": 4.03333330154419,
          "pitch": 48,
          "velocity": 30
        },
        {
          "beat": 0.5,
          "duration": 3.53333330154419,
          "pitch": 64,
          "velocity": 30
        },
        {
          "beat": 1,
          "duration": 3.03333330154419,
          "pitch": 72,
          "velocity": 30
        },
        {
          "beat": 1.5,
          "duration": 2.53333330154419,
          "pitch": 67,
          "velocity": 27
        }
      ],
      "decodedMidiPath": "rhythm_midi_patterns/decoded_pattern_midis/PianoStudio_23.mid"
    },
    {
      "code": "PianoStudio_24",
      "type": "chord_model_379",
      "subtype": "proller",
      "family": "PianoStudio",
      "version": "0.0.0.0",
      "sizePagesOrUnits": 79,
      "crc32": 2982332661,
      "bpm": 87,
      "bnum": 44,
      "noteCount": 22,
      "notes": [
        {
          "beat": 0,
          "duration": 0.6666666865348816,
          "pitch": 48,
          "velocity": 50
        },
        {
          "beat": 0.6666666865348816,
          "duration": 0.1041666641831398,
          "pitch": 48,
          "velocity": 15
        },
        {
          "beat": 0.6666666865348816,
          "duration": 0.1041666641831398,
          "pitch": 60,
          "velocity": 20
        },
        {
          "beat": 0.6666666865348816,
          "duration": 0.1041666641831398,
          "pitch": 64,
          "velocity": 10
        },
        {
          "beat": 1,
          "duration": 0.662500023841858,
          "pitch": 55,
          "velocity": 36
        },
        {
          "beat": 1,
          "duration": 0.662500023841858,
          "pitch": 60,
          "velocity": 35
        },
        {
          "beat": 1,
          "duration": 0.662500023841858,
          "pitch": 64,
          "velocity": 33
        },
        {
          "beat": 1,
          "duration": 0.662500023841858,
          "pitch": 67,
          "velocity": 38
        },
        {
          "beat": 1.6666666269302368,
          "duration": 0.1041666641831398,
          "pitch": 55,
          "velocity": 25
        },
        {
          "beat": 1.6666666269302368,
          "duration": 0.1041666641831398,
          "pitch": 60,
          "velocity": 25
        },
        {
          "beat": 1.6666666269302368,
          "duration": 0.1041666641831398,
          "pitch": 64,
          "velocity": 20
        },
        {
          "beat": 2,
          "duration": 0.662500023841858,
          "pitch": 48,
          "velocity": 50
        },
        {
          "beat": 2.6666667461395264,
          "duration": 0.1041666641831398,
          "pitch": 48,
          "velocity": 30
        },
        {
          "beat": 2.6666667461395264,
          "duration": 0.1041666641831398,
          "pitch": 60,
          "velocity": 30
        },
        {
          "beat": 2.6666667461395264,
          "duration": 0.1041666641831398,
          "pitch": 64,
          "velocity": 26
        },
        {
          "beat": 3,
          "duration": 0.6666666865348816,
          "pitch": 55,
          "velocity": 35
        },
        {
          "beat": 3,
          "duration": 0.6666666865348816,
          "pitch": 60,
          "velocity": 38
        },
        {
          "beat": 3,
          "duration": 0.6666666865348816,
          "pitch": 64,
          "velocity": 30
        },
        {
          "beat": 3,
          "duration": 0.6666666865348816,
          "pitch": 67,
          "velocity": 31
        },
        {
          "beat": 3.6666667461395264,
          "duration": 0.1041666641831398,
          "pitch": 55,
          "velocity": 20
        },
        {
          "beat": 3.6666667461395264,
          "duration": 0.1041666641831398,
          "pitch": 60,
          "velocity": 20
        },
        {
          "beat": 3.6666667461395264,
          "duration": 0.1041666641831398,
          "pitch": 64,
          "velocity": 15
        }
      ],
      "decodedMidiPath": "rhythm_midi_patterns/decoded_pattern_midis/PianoStudio_24.mid"
    },
    {
      "code": "PianoStudio_25",
      "type": "chord_model_379",
      "subtype": "proller",
      "family": "PianoStudio",
      "version": "0.0.0.0",
      "sizePagesOrUnits": 80,
      "crc32": 646915976,
      "bpm": 68,
      "bnum": 44,
      "noteCount": 13,
      "notes": [
        {
          "beat": 0,
          "duration": 4,
          "pitch": 48,
          "velocity": 30
        },
        {
          "beat": 0,
          "duration": 0.9916666746139526,
          "pitch": 55,
          "velocity": 30
        },
        {
          "beat": 0.3333333432674408,
          "duration": 0.9916666746139526,
          "pitch": 60,
          "velocity": 27
        },
        {
          "beat": 0.6666666865348816,
          "duration": 0.9916666746139526,
          "pitch": 64,
          "velocity": 27
        },
        {
          "beat": 1,
          "duration": 0.9916666746139526,
          "pitch": 55,
          "velocity": 30
        },
        {
          "beat": 1.3333333730697632,
          "duration": 0.9916666746139526,
          "pitch": 60,
          "velocity": 27
        },
        {
          "beat": 1.6666666269302368,
          "duration": 0.9916666746139526,
          "pitch": 64,
          "velocity": 27
        },
        {
          "beat": 2,
          "duration": 0.9916666746139526,
          "pitch": 55,
          "velocity": 30
        },
        {
          "beat": 2.3333332538604736,
          "duration": 0.9916666746139526,
          "pitch": 60,
          "velocity": 27
        },
        {
          "beat": 2.6666667461395264,
          "duration": 0.9916666746139526,
          "pitch": 64,
          "velocity": 27
        },
        {
          "beat": 3,
          "duration": 1,
          "pitch": 55,
          "velocity": 30
        },
        {
          "beat": 3.3333332538604736,
          "duration": 0.6666666865348816,
          "pitch": 60,
          "velocity": 27
        },
        {
          "beat": 3.6666667461395264,
          "duration": 0.3333333432674408,
          "pitch": 64,
          "velocity": 27
        }
      ],
      "decodedMidiPath": "rhythm_midi_patterns/decoded_pattern_midis/PianoStudio_25.mid"
    },
    {
      "code": "PianoStudio_26",
      "type": "chord_model_379",
      "subtype": "proller",
      "family": "PianoStudio",
      "version": "0.0.0.0",
      "sizePagesOrUnits": 32,
      "crc32": 1785515708,
      "bpm": 127,
      "bnum": 44,
      "noteCount": 4,
      "notes": [
        {
          "beat": 0,
          "duration": 4,
          "pitch": 48,
          "velocity": 50
        },
        {
          "beat": 0,
          "duration": 4,
          "pitch": 60,
          "velocity": 38
        },
        {
          "beat": 0,
          "duration": 4,
          "pitch": 64,
          "velocity": 35
        },
        {
          "beat": 0,
          "duration": 4,
          "pitch": 67,
          "velocity": 37
        }
      ],
      "decodedMidiPath": "rhythm_midi_patterns/decoded_pattern_midis/PianoStudio_26.mid"
    },
    {
      "code": "PianoStudio_27",
      "type": "chord_model_379",
      "subtype": "proller",
      "family": "PianoStudio",
      "version": "0.0.0.0",
      "sizePagesOrUnits": 60,
      "crc32": 2088208465,
      "bpm": 75,
      "bnum": 44,
      "noteCount": 13,
      "notes": [
        {
          "beat": 0,
          "duration": 4.043749809265137,
          "pitch": 48,
          "velocity": 23
        },
        {
          "beat": 0,
          "duration": 0.9604166746139526,
          "pitch": 60,
          "velocity": 19
        },
        {
          "beat": 0.25,
          "duration": 1,
          "pitch": 67,
          "velocity": 21
        },
        {
          "beat": 0.5,
          "duration": 1,
          "pitch": 72,
          "velocity": 25
        },
        {
          "beat": 1,
          "duration": 0.9604166746139526,
          "pitch": 60,
          "velocity": 7
        },
        {
          "beat": 1.25,
          "duration": 1,
          "pitch": 67,
          "velocity": 17
        },
        {
          "beat": 1.5,
          "duration": 1,
          "pitch": 72,
          "velocity": 23
        },
        {
          "beat": 2,
          "duration": 0.9604166746139526,
          "pitch": 60,
          "velocity": 28
        },
        {
          "beat": 2.25,
          "duration": 1,
          "pitch": 67,
          "velocity": 7
        },
        {
          "beat": 2.5,
          "duration": 1,
          "pitch": 72,
          "velocity": 25
        },
        {
          "beat": 3,
          "duration": 0.9604166746139526,
          "pitch": 60,
          "velocity": 20
        },
        {
          "beat": 3.25,
          "duration": 0.75,
          "pitch": 67,
          "velocity": 5
        },
        {
          "beat": 3.5,
          "duration": 0.5,
          "pitch": 72,
          "velocity": 29
        }
      ],
      "decodedMidiPath": "rhythm_midi_patterns/decoded_pattern_midis/PianoStudio_27.mid"
    },
    {
      "code": "PianoStudio_28",
      "type": "chord_model_379",
      "subtype": "proller",
      "family": "PianoStudio",
      "version": "0.0.0.0",
      "sizePagesOrUnits": 70,
      "crc32": 87643639,
      "bpm": 100,
      "bnum": 44,
      "noteCount": 20,
      "notes": [
        {
          "beat": 0,
          "duration": 0.5,
          "pitch": 48,
          "velocity": 27
        },
        {
          "beat": 0.9583333134651184,
          "duration": 0.4833333194255829,
          "pitch": 55,
          "velocity": 19
        },
        {
          "beat": 0.975000023841858,
          "duration": 0.4833333194255829,
          "pitch": 60,
          "velocity": 35
        },
        {
          "beat": 1,
          "duration": 0.4833333194255829,
          "pitch": 64,
          "velocity": 48
        },
        {
          "beat": 1.5,
          "duration": 0.05833333358168602,
          "pitch": 55,
          "velocity": 36
        },
        {
          "beat": 1.75,
          "duration": 0.12916666269302368,
          "pitch": 55,
          "velocity": 28
        },
        {
          "beat": 1.75,
          "duration": 0.12916666269302368,
          "pitch": 60,
          "velocity": 34
        },
        {
          "beat": 1.75,
          "duration": 0.12916666269302368,
          "pitch": 64,
          "velocity": 38
        },
        {
          "beat": 2.25,
          "duration": 0.125,
          "pitch": 55,
          "velocity": 37
        },
        {
          "beat": 2.25,
          "duration": 0.125,
          "pitch": 60,
          "velocity": 36
        },
        {
          "beat": 2.25,
          "duration": 0.125,
          "pitch": 64,
          "velocity": 48
        },
        {
          "beat": 2.75,
          "duration": 0.09583333134651184,
          "pitch": 55,
          "velocity": 32
        },
        {
          "beat": 2.96666669845581,
          "duration": 0.3166666626930237,
          "pitch": 55,
          "velocity": 38
        },
        {
          "beat": 2.9749999046325684,
          "duration": 0.4583333432674408,
          "pitch": 60,
          "velocity": 38
        },
        {
          "beat": 3,
          "duration": 0.4583333432674408,
          "pitch": 64,
          "velocity": 40
        },
        {
          "beat": 3.3333332538604736,
          "duration": 0.11249999701976776,
          "pitch": 55,
          "velocity": 24
        },
        {
          "beat": 3.46666669845581,
          "duration": 0.3125,
          "pitch": 55,
          "velocity": 25
        },
        {
          "beat": 3.4749999046325684,
          "duration": 0.524999976158142,
          "pitch": 60,
          "velocity": 42
        },
        {
          "beat": 3.5,
          "duration": 0.5,
          "pitch": 64,
          "velocity": 44
        },
        {
          "beat": 3.8333332538604736,
          "duration": 0.08541666716337204,
          "pitch": 55,
          "velocity": 37
        }
      ],
      "decodedMidiPath": "rhythm_midi_patterns/decoded_pattern_midis/PianoStudio_28.mid"
    },
    {
      "code": "PianoStudio_29",
      "type": "chord_model_379",
      "subtype": "proller",
      "family": "PianoStudio",
      "version": "0.0.0.0",
      "sizePagesOrUnits": 118,
      "crc32": 1298501543,
      "bpm": 80,
      "bnum": 44,
      "noteCount": 13,
      "notes": [
        {
          "beat": 0,
          "duration": 0.5,
          "pitch": 48,
          "velocity": 32
        },
        {
          "beat": 0.5,
          "duration": 0.1666666716337204,
          "pitch": 60,
          "velocity": 35
        },
        {
          "beat": 0.5,
          "duration": 0.1666666716337204,
          "pitch": 64,
          "velocity": 45
        },
        {
          "beat": 0.5,
          "duration": 0.1666666716337204,
          "pitch": 67,
          "velocity": 32
        },
        {
          "beat": 1.5,
          "duration": 0.1666666716337204,
          "pitch": 60,
          "velocity": 32
        },
        {
          "beat": 1.5,
          "duration": 0.1666666716337204,
          "pitch": 64,
          "velocity": 43
        },
        {
          "beat": 1.5,
          "duration": 0.1666666716337204,
          "pitch": 67,
          "velocity": 31
        },
        {
          "beat": 2.5,
          "duration": 0.1666666716337204,
          "pitch": 60,
          "velocity": 35
        },
        {
          "beat": 2.5,
          "duration": 0.1666666716337204,
          "pitch": 64,
          "velocity": 42
        },
        {
          "beat": 2.5,
          "duration": 0.1666666716337204,
          "pitch": 67,
          "velocity": 35
        },
        {
          "beat": 3.5,
          "duration": 0.1666666716337204,
          "pitch": 60,
          "velocity": 36
        },
        {
          "beat": 3.5,
          "duration": 0.1666666716337204,
          "pitch": 64,
          "velocity": 42
        },
        {
          "beat": 3.5,
          "duration": 0.1666666716337204,
          "pitch": 67,
          "velocity": 35
        }
      ],
      "decodedMidiPath": "rhythm_midi_patterns/decoded_pattern_midis/PianoStudio_29.mid"
    },
    {
      "code": "PianoStudio_3",
      "type": "chord_model_379",
      "subtype": "proller",
      "family": "PianoStudio",
      "version": "0.0.0.0",
      "sizePagesOrUnits": 75,
      "crc32": 2895121086,
      "bpm": 70,
      "bnum": 44,
      "noteCount": 11,
      "notes": [
        {
          "beat": 0,
          "duration": 4,
          "pitch": 48,
          "velocity": 38
        },
        {
          "beat": 0.02291666716337204,
          "duration": 0.9770833253860474,
          "pitch": 60,
          "velocity": 35
        },
        {
          "beat": 0.0520833320915699,
          "duration": 0.9479166865348816,
          "pitch": 64,
          "velocity": 33
        },
        {
          "beat": 0.08958332985639572,
          "duration": 2.910416603088379,
          "pitch": 67,
          "velocity": 30
        },
        {
          "beat": 1,
          "duration": 1,
          "pitch": 60,
          "velocity": 24
        },
        {
          "beat": 1,
          "duration": 1,
          "pitch": 64,
          "velocity": 17
        },
        {
          "beat": 2,
          "duration": 1,
          "pitch": 60,
          "velocity": 20
        },
        {
          "beat": 2,
          "duration": 1,
          "pitch": 64,
          "velocity": 28
        },
        {
          "beat": 3,
          "duration": 1,
          "pitch": 60,
          "velocity": 23
        },
        {
          "beat": 3,
          "duration": 1,
          "pitch": 64,
          "velocity": 15
        },
        {
          "beat": 3,
          "duration": 1,
          "pitch": 67,
          "velocity": 23
        }
      ],
      "decodedMidiPath": "rhythm_midi_patterns/decoded_pattern_midis/PianoStudio_3.mid"
    },
    {
      "code": "PianoStudio_30",
      "type": "chord_model_379",
      "subtype": "proller",
      "family": "PianoStudio",
      "version": "0.0.0.0",
      "sizePagesOrUnits": 33,
      "crc32": 3494946282,
      "bpm": 80,
      "bnum": 44,
      "noteCount": 5,
      "notes": [
        {
          "beat": 0,
          "duration": 4.041666507720947,
          "pitch": 48,
          "velocity": 33
        },
        {
          "beat": 0.5,
          "duration": 3.5416667461395264,
          "pitch": 55,
          "velocity": 38
        },
        {
          "beat": 1,
          "duration": 3.0416667461395264,
          "pitch": 60,
          "velocity": 39
        },
        {
          "beat": 1.5,
          "duration": 2.5416667461395264,
          "pitch": 64,
          "velocity": 37
        },
        {
          "beat": 2,
          "duration": 2.0416667461395264,
          "pitch": 67,
          "velocity": 39
        }
      ],
      "decodedMidiPath": "rhythm_midi_patterns/decoded_pattern_midis/PianoStudio_30.mid"
    },
    {
      "code": "PianoStudio_31",
      "type": "chord_model_379",
      "subtype": "proller",
      "family": "PianoStudio",
      "version": "0.0.0.0",
      "sizePagesOrUnits": 53,
      "crc32": 1233304781,
      "bpm": 96,
      "bnum": 44,
      "noteCount": 13,
      "notes": [
        {
          "beat": 0,
          "duration": 4,
          "pitch": 48,
          "velocity": 29
        },
        {
          "beat": 0,
          "duration": 0.75,
          "pitch": 60,
          "velocity": 30
        },
        {
          "beat": 0,
          "duration": 0.75,
          "pitch": 64,
          "velocity": 32
        },
        {
          "beat": 0.75,
          "duration": 0.25,
          "pitch": 55,
          "velocity": 23
        },
        {
          "beat": 1,
          "duration": 0.75,
          "pitch": 60,
          "velocity": 30
        },
        {
          "beat": 1,
          "duration": 0.75,
          "pitch": 64,
          "velocity": 32
        },
        {
          "beat": 1.75,
          "duration": 0.25,
          "pitch": 55,
          "velocity": 23
        },
        {
          "beat": 2,
          "duration": 0.75,
          "pitch": 60,
          "velocity": 30
        },
        {
          "beat": 2,
          "duration": 0.75,
          "pitch": 64,
          "velocity": 32
        },
        {
          "beat": 2.75,
          "duration": 0.25,
          "pitch": 55,
          "velocity": 23
        },
        {
          "beat": 3,
          "duration": 0.75,
          "pitch": 60,
          "velocity": 30
        },
        {
          "beat": 3,
          "duration": 0.75,
          "pitch": 64,
          "velocity": 32
        },
        {
          "beat": 3.75,
          "duration": 0.25,
          "pitch": 55,
          "velocity": 23
        }
      ],
      "decodedMidiPath": "rhythm_midi_patterns/decoded_pattern_midis/PianoStudio_31.mid"
    },
    {
      "code": "PianoStudio_33",
      "type": "chord_model_379",
      "subtype": "proller",
      "family": "PianoStudio",
      "version": "0.0.0.0",
      "sizePagesOrUnits": 101,
      "crc32": 1940261070,
      "bpm": 92,
      "bnum": 44,
      "noteCount": 18,
      "notes": [
        {
          "beat": 0,
          "duration": 3,
          "pitch": 48,
          "velocity": 35
        },
        {
          "beat": 0,
          "duration": 1.5,
          "pitch": 72,
          "velocity": 41
        },
        {
          "beat": 0.25,
          "duration": 0.5,
          "pitch": 64,
          "velocity": 23
        },
        {
          "beat": 0.5,
          "duration": 0.5,
          "pitch": 60,
          "velocity": 31
        },
        {
          "beat": 0.75,
          "duration": 0.5,
          "pitch": 64,
          "velocity": 22
        },
        {
          "beat": 1,
          "duration": 1,
          "pitch": 60,
          "velocity": 30
        },
        {
          "beat": 1.25,
          "duration": 0.5,
          "pitch": 64,
          "velocity": 23
        },
        {
          "beat": 1.5,
          "duration": 1.5,
          "pitch": 72,
          "velocity": 40
        },
        {
          "beat": 1.75,
          "duration": 0.5,
          "pitch": 64,
          "velocity": 20
        },
        {
          "beat": 2,
          "duration": 0.5,
          "pitch": 60,
          "velocity": 31
        },
        {
          "beat": 2.25,
          "duration": 0.5,
          "pitch": 64,
          "velocity": 20
        },
        {
          "beat": 2.5,
          "duration": 1,
          "pitch": 60,
          "velocity": 31
        },
        {
          "beat": 2.75,
          "duration": 0.5,
          "pitch": 64,
          "velocity": 24
        },
        {
          "beat": 3,
          "duration": 1,
          "pitch": 48,
          "velocity": 35
        },
        {
          "beat": 3,
          "duration": 1,
          "pitch": 72,
          "velocity": 41
        },
        {
          "beat": 3.25,
          "duration": 0.5,
          "pitch": 64,
          "velocity": 20
        },
        {
          "beat": 3.5,
          "duration": 0.5,
          "pitch": 60,
          "velocity": 31
        },
        {
          "beat": 3.75,
          "duration": 0.25,
          "pitch": 64,
          "velocity": 24
        }
      ],
      "decodedMidiPath": "rhythm_midi_patterns/decoded_pattern_midis/PianoStudio_33.mid"
    },
    {
      "code": "PianoStudio_4",
      "type": "chord_model_379",
      "subtype": "proller",
      "family": "PianoStudio",
      "version": "0.0.0.0",
      "sizePagesOrUnits": 114,
      "crc32": 2101586987,
      "bpm": 70,
      "bnum": 44,
      "noteCount": 17,
      "notes": [
        {
          "beat": 0,
          "duration": 4,
          "pitch": 48,
          "velocity": 36
        },
        {
          "beat": 0,
          "duration": 1,
          "pitch": 60,
          "velocity": 24
        },
        {
          "beat": 0,
          "duration": 1,
          "pitch": 64,
          "velocity": 40
        },
        {
          "beat": 0,
          "duration": 1,
          "pitch": 67,
          "velocity": 26
        },
        {
          "beat": 0.5,
          "duration": 1,
          "pitch": 55,
          "velocity": 17
        },
        {
          "beat": 1,
          "duration": 1,
          "pitch": 60,
          "velocity": 15
        },
        {
          "beat": 1,
          "duration": 1,
          "pitch": 64,
          "velocity": 33
        },
        {
          "beat": 1,
          "duration": 1,
          "pitch": 67,
          "velocity": 19
        },
        {
          "beat": 1.5,
          "duration": 1,
          "pitch": 55,
          "velocity": 27
        },
        {
          "beat": 2,
          "duration": 1,
          "pitch": 60,
          "velocity": 25
        },
        {
          "beat": 2,
          "duration": 1,
          "pitch": 64,
          "velocity": 39
        },
        {
          "beat": 2,
          "duration": 1,
          "pitch": 67,
          "velocity": 48
        },
        {
          "beat": 2.5,
          "duration": 1,
          "pitch": 55,
          "velocity": 25
        },
        {
          "beat": 3,
          "duration": 1,
          "pitch": 60,
          "velocity": 26
        },
        {
          "beat": 3,
          "duration": 1,
          "pitch": 64,
          "velocity": 18
        },
        {
          "beat": 3,
          "duration": 1,
          "pitch": 67,
          "velocity": 27
        },
        {
          "beat": 3.5,
          "duration": 0.5,
          "pitch": 55,
          "velocity": 15
        }
      ],
      "decodedMidiPath": "rhythm_midi_patterns/decoded_pattern_midis/PianoStudio_4.mid"
    },
    {
      "code": "PianoStudio_41",
      "type": "chord_model_379",
      "subtype": "proller",
      "family": "PianoStudio",
      "version": "0.0.0.0",
      "sizePagesOrUnits": 141,
      "crc32": 1577250060,
      "bpm": 100,
      "bnum": 44,
      "noteCount": 23,
      "notes": [
        {
          "beat": 0,
          "duration": 2.7354166507720947,
          "pitch": 48,
          "velocity": 37
        },
        {
          "beat": 0,
          "duration": 0.981249988079071,
          "pitch": 60,
          "velocity": 44
        },
        {
          "beat": 0,
          "duration": 0.981249988079071,
          "pitch": 64,
          "velocity": 38
        },
        {
          "beat": 0,
          "duration": 0.981249988079071,
          "pitch": 67,
          "velocity": 43
        },
        {
          "beat": 1,
          "duration": 0.7333333492279053,
          "pitch": 60,
          "velocity": 32
        },
        {
          "beat": 1,
          "duration": 0.731249988079071,
          "pitch": 64,
          "velocity": 36
        },
        {
          "beat": 1,
          "duration": 0.731249988079071,
          "pitch": 67,
          "velocity": 41
        },
        {
          "beat": 1.5,
          "duration": 1.7354166507720947,
          "pitch": 55,
          "velocity": 23
        },
        {
          "beat": 1.75,
          "duration": 0.4833333194255829,
          "pitch": 60,
          "velocity": 35
        },
        {
          "beat": 1.75,
          "duration": 0.47708332538604736,
          "pitch": 64,
          "velocity": 29
        },
        {
          "beat": 1.75,
          "duration": 0.4833333194255829,
          "pitch": 67,
          "velocity": 34
        },
        {
          "beat": 2.25,
          "duration": 0.7333333492279053,
          "pitch": 60,
          "velocity": 26
        },
        {
          "beat": 2.25,
          "duration": 0.731249988079071,
          "pitch": 64,
          "velocity": 20
        },
        {
          "beat": 2.25,
          "duration": 0.731249988079071,
          "pitch": 67,
          "velocity": 25
        },
        {
          "beat": 2.75,
          "duration": 1.2354166507720947,
          "pitch": 48,
          "velocity": 24
        },
        {
          "beat": 3,
          "duration": 0.4854166805744171,
          "pitch": 60,
          "velocity": 42
        },
        {
          "beat": 3,
          "duration": 0.4833333194255829,
          "pitch": 64,
          "velocity": 36
        },
        {
          "beat": 3,
          "duration": 0.4833333194255829,
          "pitch": 67,
          "velocity": 41
        },
        {
          "beat": 3.25,
          "duration": 0.7354166507720947,
          "pitch": 55,
          "velocity": 28
        },
        {
          "beat": 3.5,
          "duration": 0.4854166805744171,
          "pitch": 60,
          "velocity": 22
        },
        {
          "beat": 3.5,
          "duration": 0.4833333194255829,
          "pitch": 64,
          "velocity": 11
        },
        {
          "beat": 3.5,
          "duration": 0.4833333194255829,
          "pitch": 67,
          "velocity": 21
        },
        {
          "beat": 3.5,
          "duration": 0.4854166805744171,
          "pitch": 72,
          "velocity": 22
        }
      ],
      "decodedMidiPath": "rhythm_midi_patterns/decoded_pattern_midis/PianoStudio_41.mid"
    },
    {
      "code": "PianoStudio_42",
      "type": "chord_model_379",
      "subtype": "proller",
      "family": "PianoStudio",
      "version": "0.0.0.0",
      "sizePagesOrUnits": 95,
      "crc32": 3115959235,
      "bpm": 104,
      "bnum": 44,
      "noteCount": 12,
      "notes": [
        {
          "beat": 0,
          "duration": 4,
          "pitch": 48,
          "velocity": 34
        },
        {
          "beat": 0,
          "duration": 2,
          "pitch": 55,
          "velocity": 43
        },
        {
          "beat": 0,
          "duration": 2,
          "pitch": 60,
          "velocity": 47
        },
        {
          "beat": 0,
          "duration": 2,
          "pitch": 64,
          "velocity": 47
        },
        {
          "beat": 0,
          "duration": 2,
          "pitch": 67,
          "velocity": 42
        },
        {
          "beat": 2,
          "duration": 0.75,
          "pitch": 55,
          "velocity": 33
        },
        {
          "beat": 2,
          "duration": 1.5,
          "pitch": 60,
          "velocity": 37
        },
        {
          "beat": 2,
          "duration": 1.5,
          "pitch": 64,
          "velocity": 37
        },
        {
          "beat": 2,
          "duration": 2,
          "pitch": 67,
          "velocity": 32
        },
        {
          "beat": 2.75,
          "duration": 1.25,
          "pitch": 55,
          "velocity": 29
        },
        {
          "beat": 3.5,
          "duration": 0.5,
          "pitch": 60,
          "velocity": 36
        },
        {
          "beat": 3.5,
          "duration": 0.5,
          "pitch": 64,
          "velocity": 36
        }
      ],
      "decodedMidiPath": "rhythm_midi_patterns/decoded_pattern_midis/PianoStudio_42.mid"
    },
    {
      "code": "PianoStudio_45",
      "type": "chord_model_379",
      "subtype": "proller",
      "family": "PianoStudio",
      "version": "0.0.0.0",
      "sizePagesOrUnits": 39,
      "crc32": 2252557960,
      "bpm": 124,
      "bnum": 44,
      "noteCount": 8,
      "notes": [
        {
          "beat": 0,
          "duration": 4,
          "pitch": 48,
          "velocity": 40
        },
        {
          "beat": 0,
          "duration": 3.5,
          "pitch": 55,
          "velocity": 27
        },
        {
          "beat": 0.5,
          "duration": 2.5,
          "pitch": 60,
          "velocity": 34
        },
        {
          "beat": 1,
          "duration": 1.5,
          "pitch": 64,
          "velocity": 44
        },
        {
          "beat": 1.5,
          "duration": 2.5,
          "pitch": 67,
          "velocity": 46
        },
        {
          "beat": 2.5,
          "duration": 1.5,
          "pitch": 64,
          "velocity": 27
        },
        {
          "beat": 3,
          "duration": 1,
          "pitch": 60,
          "velocity": 31
        },
        {
          "beat": 3.5,
          "duration": 0.49791666865348816,
          "pitch": 55,
          "velocity": 23
        }
      ],
      "decodedMidiPath": "rhythm_midi_patterns/decoded_pattern_midis/PianoStudio_45.mid"
    },
    {
      "code": "PianoStudio_46",
      "type": "chord_model_379",
      "subtype": "proller",
      "family": "PianoStudio",
      "version": "0.0.0.0",
      "sizePagesOrUnits": 78,
      "crc32": 2212743544,
      "bpm": 128,
      "bnum": 44,
      "noteCount": 10,
      "notes": [
        {
          "beat": 0,
          "duration": 1,
          "pitch": 48,
          "velocity": 51
        },
        {
          "beat": 1,
          "duration": 0.3958333432674408,
          "pitch": 60,
          "velocity": 51
        },
        {
          "beat": 1,
          "duration": 0.34166666865348816,
          "pitch": 64,
          "velocity": 48
        },
        {
          "beat": 1,
          "duration": 0.34166666865348816,
          "pitch": 67,
          "velocity": 51
        },
        {
          "beat": 1.5,
          "duration": 0.25,
          "pitch": 48,
          "velocity": 37
        },
        {
          "beat": 2,
          "duration": 1,
          "pitch": 48,
          "velocity": 51
        },
        {
          "beat": 3,
          "duration": 0.25,
          "pitch": 60,
          "velocity": 29
        },
        {
          "beat": 3,
          "duration": 0.19583334028720856,
          "pitch": 64,
          "velocity": 26
        },
        {
          "beat": 3,
          "duration": 0.19583334028720856,
          "pitch": 67,
          "velocity": 29
        },
        {
          "beat": 3.5,
          "duration": 0.25,
          "pitch": 48,
          "velocity": 22
        }
      ],
      "decodedMidiPath": "rhythm_midi_patterns/decoded_pattern_midis/PianoStudio_46.mid"
    },
    {
      "code": "PianoStudio_5",
      "type": "chord_model_379",
      "subtype": "proller",
      "family": "PianoStudio",
      "version": "0.0.0.0",
      "sizePagesOrUnits": 36,
      "crc32": 3694160156,
      "bpm": 120,
      "bnum": 44,
      "noteCount": 7,
      "notes": [
        {
          "beat": 0,
          "duration": 4,
          "pitch": 48,
          "velocity": 50
        },
        {
          "beat": 0,
          "duration": 2,
          "pitch": 60,
          "velocity": 35
        },
        {
          "beat": 0,
          "duration": 3,
          "pitch": 64,
          "velocity": 30
        },
        {
          "beat": 0,
          "duration": 4,
          "pitch": 67,
          "velocity": 40
        },
        {
          "beat": 2,
          "duration": 1.5,
          "pitch": 60,
          "velocity": 23
        },
        {
          "beat": 3,
          "duration": 1,
          "pitch": 64,
          "velocity": 30
        },
        {
          "beat": 3.5,
          "duration": 0.5,
          "pitch": 60,
          "velocity": 15
        }
      ],
      "decodedMidiPath": "rhythm_midi_patterns/decoded_pattern_midis/PianoStudio_5.mid"
    },
    {
      "code": "PianoStudio_50",
      "type": "chord_model_379",
      "subtype": "proller",
      "family": "PianoStudio",
      "version": "0.0.0.0",
      "sizePagesOrUnits": 33,
      "crc32": 3423985783,
      "bpm": 99,
      "bnum": 44,
      "noteCount": 5,
      "notes": [
        {
          "beat": 0,
          "duration": 4,
          "pitch": 48,
          "velocity": 35
        },
        {
          "beat": 0,
          "duration": 4,
          "pitch": 55,
          "velocity": 30
        },
        {
          "beat": 0.5,
          "duration": 3.5,
          "pitch": 60,
          "velocity": 27
        },
        {
          "beat": 1,
          "duration": 3,
          "pitch": 64,
          "velocity": 39
        },
        {
          "beat": 1.5,
          "duration": 2.5,
          "pitch": 67,
          "velocity": 30
        }
      ],
      "decodedMidiPath": "rhythm_midi_patterns/decoded_pattern_midis/PianoStudio_50.mid"
    },
    {
      "code": "PianoStudio_51",
      "type": "chord_model_379",
      "subtype": "proller",
      "family": "PianoStudio",
      "version": "0.0.0.0",
      "sizePagesOrUnits": 85,
      "crc32": 1481443193,
      "bpm": 90,
      "bnum": 44,
      "noteCount": 13,
      "notes": [
        {
          "beat": 0,
          "duration": 4,
          "pitch": 48,
          "velocity": 34
        },
        {
          "beat": 0,
          "duration": 4,
          "pitch": 55,
          "velocity": 19
        },
        {
          "beat": 0,
          "duration": 4,
          "pitch": 60,
          "velocity": 30
        },
        {
          "beat": 0,
          "duration": 4,
          "pitch": 64,
          "velocity": 35
        },
        {
          "beat": 0,
          "duration": 0.5,
          "pitch": 67,
          "velocity": 29
        },
        {
          "beat": 0,
          "duration": 1,
          "pitch": 72,
          "velocity": 28
        },
        {
          "beat": 0.5,
          "duration": 1,
          "pitch": 67,
          "velocity": 36
        },
        {
          "beat": 1,
          "duration": 1,
          "pitch": 72,
          "velocity": 28
        },
        {
          "beat": 1.5,
          "duration": 1,
          "pitch": 67,
          "velocity": 23
        },
        {
          "beat": 2,
          "duration": 1,
          "pitch": 72,
          "velocity": 30
        },
        {
          "beat": 2.5,
          "duration": 1,
          "pitch": 67,
          "velocity": 32
        },
        {
          "beat": 3,
          "duration": 1,
          "pitch": 72,
          "velocity": 29
        },
        {
          "beat": 3.5,
          "duration": 0.5,
          "pitch": 67,
          "velocity": 23
        }
      ],
      "decodedMidiPath": "rhythm_midi_patterns/decoded_pattern_midis/PianoStudio_51.mid"
    },
    {
      "code": "PianoStudio_52",
      "type": "chord_model_379",
      "subtype": "proller",
      "family": "PianoStudio",
      "version": "0.0.0.0",
      "sizePagesOrUnits": 132,
      "crc32": 3068620034,
      "bpm": 90,
      "bnum": 44,
      "noteCount": 20,
      "notes": [
        {
          "beat": 0,
          "duration": 4,
          "pitch": 48,
          "velocity": 39
        },
        {
          "beat": 0,
          "duration": 0.5,
          "pitch": 55,
          "velocity": 28
        },
        {
          "beat": 0,
          "duration": 0.75,
          "pitch": 60,
          "velocity": 35
        },
        {
          "beat": 0,
          "duration": 0.75,
          "pitch": 64,
          "velocity": 40
        },
        {
          "beat": 0,
          "duration": 0.5,
          "pitch": 67,
          "velocity": 35
        },
        {
          "beat": 0.5,
          "duration": 1.5,
          "pitch": 55,
          "velocity": 28
        },
        {
          "beat": 0.5,
          "duration": 1,
          "pitch": 67,
          "velocity": 29
        },
        {
          "beat": 0.75,
          "duration": 0.75,
          "pitch": 60,
          "velocity": 35
        },
        {
          "beat": 0.75,
          "duration": 0.75,
          "pitch": 64,
          "velocity": 40
        },
        {
          "beat": 1.5,
          "duration": 0.75,
          "pitch": 60,
          "velocity": 35
        },
        {
          "beat": 1.5,
          "duration": 0.7395833134651184,
          "pitch": 64,
          "velocity": 34
        },
        {
          "beat": 1.5,
          "duration": 0.7395833134651184,
          "pitch": 67,
          "velocity": 37
        },
        {
          "beat": 2,
          "duration": 1.5,
          "pitch": 55,
          "velocity": 19
        },
        {
          "beat": 2.25,
          "duration": 0.75,
          "pitch": 60,
          "velocity": 35
        },
        {
          "beat": 2.25,
          "duration": 0.75,
          "pitch": 64,
          "velocity": 40
        },
        {
          "beat": 2.25,
          "duration": 0.75,
          "pitch": 67,
          "velocity": 25
        },
        {
          "beat": 3,
          "duration": 1,
          "pitch": 60,
          "velocity": 37
        },
        {
          "beat": 3,
          "duration": 1,
          "pitch": 64,
          "velocity": 37
        },
        {
          "beat": 3,
          "duration": 1,
          "pitch": 67,
          "velocity": 28
        },
        {
          "beat": 3.5,
          "duration": 0.5,
          "pitch": 55,
          "velocity": 28
        }
      ],
      "decodedMidiPath": "rhythm_midi_patterns/decoded_pattern_midis/PianoStudio_52.mid"
    },
    {
      "code": "PianoStudio_58",
      "type": "chord_model_379",
      "subtype": "proller",
      "family": "PianoStudio",
      "version": "0.0.0.0",
      "sizePagesOrUnits": 158,
      "crc32": 1383163314,
      "bpm": 95,
      "bnum": 44,
      "noteCount": 27,
      "notes": [
        {
          "beat": 0,
          "duration": 4,
          "pitch": 48,
          "velocity": 32
        },
        {
          "beat": 0,
          "duration": 2.799999952316284,
          "pitch": 55,
          "velocity": 24
        },
        {
          "beat": 0,
          "duration": 0.25,
          "pitch": 60,
          "velocity": 36
        },
        {
          "beat": 0,
          "duration": 0.25,
          "pitch": 64,
          "velocity": 41
        },
        {
          "beat": 0,
          "duration": 0.25,
          "pitch": 67,
          "velocity": 36
        },
        {
          "beat": 0.5,
          "duration": 0.25,
          "pitch": 60,
          "velocity": 21
        },
        {
          "beat": 0.5,
          "duration": 0.25,
          "pitch": 64,
          "velocity": 26
        },
        {
          "beat": 0.5,
          "duration": 0.25,
          "pitch": 67,
          "velocity": 21
        },
        {
          "beat": 1,
          "duration": 0.25,
          "pitch": 60,
          "velocity": 26
        },
        {
          "beat": 1,
          "duration": 0.25,
          "pitch": 64,
          "velocity": 31
        },
        {
          "beat": 1,
          "duration": 0.25,
          "pitch": 67,
          "velocity": 26
        },
        {
          "beat": 1.5,
          "duration": 0.25,
          "pitch": 60,
          "velocity": 38
        },
        {
          "beat": 1.5,
          "duration": 0.25,
          "pitch": 64,
          "velocity": 43
        },
        {
          "beat": 1.5,
          "duration": 0.25,
          "pitch": 67,
          "velocity": 38
        },
        {
          "beat": 2,
          "duration": 0.25,
          "pitch": 60,
          "velocity": 20
        },
        {
          "beat": 2,
          "duration": 0.25,
          "pitch": 64,
          "velocity": 25
        },
        {
          "beat": 2,
          "duration": 0.25,
          "pitch": 67,
          "velocity": 20
        },
        {
          "beat": 2.5,
          "duration": 0.25,
          "pitch": 60,
          "velocity": 33
        },
        {
          "beat": 2.5,
          "duration": 0.25,
          "pitch": 64,
          "velocity": 38
        },
        {
          "beat": 2.5,
          "duration": 0.25,
          "pitch": 67,
          "velocity": 33
        },
        {
          "beat": 2.799999952316284,
          "duration": 1.2000000476837158,
          "pitch": 55,
          "velocity": 35
        },
        {
          "beat": 3,
          "duration": 0.28333333134651184,
          "pitch": 60,
          "velocity": 38
        },
        {
          "beat": 3,
          "duration": 0.28333333134651184,
          "pitch": 64,
          "velocity": 43
        },
        {
          "beat": 3,
          "duration": 0.28333333134651184,
          "pitch": 67,
          "velocity": 38
        },
        {
          "beat": 3.299999952316284,
          "duration": 0.699999988079071,
          "pitch": 60,
          "velocity": 32
        },
        {
          "beat": 3.299999952316284,
          "duration": 0.699999988079071,
          "pitch": 64,
          "velocity": 29
        },
        {
          "beat": 3.299999952316284,
          "duration": 0.699999988079071,
          "pitch": 67,
          "velocity": 33
        }
      ],
      "decodedMidiPath": "rhythm_midi_patterns/decoded_pattern_midis/PianoStudio_58.mid"
    },
    {
      "code": "PianoStudio_6",
      "type": "chord_model_379",
      "subtype": "proller",
      "family": "PianoStudio",
      "version": "0.0.0.0",
      "sizePagesOrUnits": 43,
      "crc32": 2467325300,
      "bpm": 120,
      "bnum": 43,
      "noteCount": 4,
      "notes": [
        {
          "beat": 0,
          "duration": 3,
          "pitch": 48,
          "velocity": 48
        },
        {
          "beat": 1,
          "duration": 2,
          "pitch": 60,
          "velocity": 25
        },
        {
          "beat": 2,
          "duration": 1,
          "pitch": 64,
          "velocity": 35
        },
        {
          "beat": 2,
          "duration": 1,
          "pitch": 67,
          "velocity": 28
        }
      ],
      "decodedMidiPath": "rhythm_midi_patterns/decoded_pattern_midis/PianoStudio_6.mid"
    },
    {
      "code": "PianoStudio_60",
      "type": "chord_model_379",
      "subtype": "proller",
      "family": "PianoStudio",
      "version": "0.0.0.0",
      "sizePagesOrUnits": 110,
      "crc32": 366676652,
      "bpm": 119,
      "bnum": 44,
      "noteCount": 14,
      "notes": [
        {
          "beat": 0,
          "duration": 0.5,
          "pitch": 48,
          "velocity": 28
        },
        {
          "beat": 0.5,
          "duration": 0.25,
          "pitch": 60,
          "velocity": 34
        },
        {
          "beat": 0.5,
          "duration": 0.25,
          "pitch": 64,
          "velocity": 30
        },
        {
          "beat": 0.5,
          "duration": 0.2541666626930237,
          "pitch": 67,
          "velocity": 40
        },
        {
          "beat": 1.5,
          "duration": 0.25,
          "pitch": 60,
          "velocity": 19
        },
        {
          "beat": 1.5,
          "duration": 0.25,
          "pitch": 64,
          "velocity": 15
        },
        {
          "beat": 1.5,
          "duration": 0.2541666626930237,
          "pitch": 67,
          "velocity": 25
        },
        {
          "beat": 2,
          "duration": 0.5,
          "pitch": 48,
          "velocity": 28
        },
        {
          "beat": 2.5,
          "duration": 0.25,
          "pitch": 60,
          "velocity": 24
        },
        {
          "beat": 2.5,
          "duration": 0.25,
          "pitch": 64,
          "velocity": 32
        },
        {
          "beat": 2.5,
          "duration": 0.2541666626930237,
          "pitch": 67,
          "velocity": 42
        },
        {
          "beat": 3.5,
          "duration": 0.25,
          "pitch": 60,
          "velocity": 16
        },
        {
          "beat": 3.5,
          "duration": 0.25,
          "pitch": 64,
          "velocity": 12
        },
        {
          "beat": 3.5,
          "duration": 0.2541666626930237,
          "pitch": 67,
          "velocity": 22
        }
      ],
      "decodedMidiPath": "rhythm_midi_patterns/decoded_pattern_midis/PianoStudio_60.mid"
    },
    {
      "code": "PianoStudio_61",
      "type": "chord_model_379",
      "subtype": "proller",
      "family": "PianoStudio",
      "version": "0.0.0.0",
      "sizePagesOrUnits": 41,
      "crc32": 3565422466,
      "bpm": 125,
      "bnum": 44,
      "noteCount": 9,
      "notes": [
        {
          "beat": 0,
          "duration": 4,
          "pitch": 48,
          "velocity": 30
        },
        {
          "beat": 0,
          "duration": 1.5,
          "pitch": 67,
          "velocity": 26
        },
        {
          "beat": 0.5,
          "duration": 1.5,
          "pitch": 60,
          "velocity": 25
        },
        {
          "beat": 1,
          "duration": 1.5,
          "pitch": 64,
          "velocity": 39
        },
        {
          "beat": 1.5,
          "duration": 1.5,
          "pitch": 67,
          "velocity": 27
        },
        {
          "beat": 2,
          "duration": 1.5,
          "pitch": 60,
          "velocity": 17
        },
        {
          "beat": 2.5,
          "duration": 1.5,
          "pitch": 64,
          "velocity": 36
        },
        {
          "beat": 3,
          "duration": 1,
          "pitch": 67,
          "velocity": 36
        },
        {
          "beat": 3.5,
          "duration": 0.5,
          "pitch": 60,
          "velocity": 14
        }
      ],
      "decodedMidiPath": "rhythm_midi_patterns/decoded_pattern_midis/PianoStudio_61.mid"
    },
    {
      "code": "PianoStudio_62",
      "type": "chord_model_379",
      "subtype": "proller",
      "family": "PianoStudio",
      "version": "0.0.0.0",
      "sizePagesOrUnits": 43,
      "crc32": 2947450580,
      "bpm": 70,
      "bnum": 44,
      "noteCount": 9,
      "notes": [
        {
          "beat": 0,
          "duration": 4,
          "pitch": 48,
          "velocity": 30
        },
        {
          "beat": 0,
          "duration": 1.25,
          "pitch": 60,
          "velocity": 29
        },
        {
          "beat": 0,
          "duration": 1.5,
          "pitch": 64,
          "velocity": 23
        },
        {
          "beat": 0,
          "duration": 1.75,
          "pitch": 67,
          "velocity": 28
        },
        {
          "beat": 1.25,
          "duration": 1.75,
          "pitch": 60,
          "velocity": 29
        },
        {
          "beat": 1.5,
          "duration": 0.5,
          "pitch": 64,
          "velocity": 27
        },
        {
          "beat": 1.75,
          "duration": 2.25,
          "pitch": 67,
          "velocity": 35
        },
        {
          "beat": 2,
          "duration": 2,
          "pitch": 64,
          "velocity": 23
        },
        {
          "beat": 3,
          "duration": 1,
          "pitch": 60,
          "velocity": 17
        }
      ],
      "decodedMidiPath": "rhythm_midi_patterns/decoded_pattern_midis/PianoStudio_62.mid"
    },
    {
      "code": "PianoStudio_63",
      "type": "chord_model_379",
      "subtype": "proller",
      "family": "PianoStudio",
      "version": "0.0.0.0",
      "sizePagesOrUnits": 47,
      "crc32": 668393149,
      "bpm": 78,
      "bnum": 44,
      "noteCount": 14,
      "notes": [
        {
          "beat": 0,
          "duration": 1.75,
          "pitch": 48,
          "velocity": 47
        },
        {
          "beat": 0.02291666716337204,
          "duration": 1.2270833253860474,
          "pitch": 60,
          "velocity": 35
        },
        {
          "beat": 0.0416666679084301,
          "duration": 0.7083333134651184,
          "pitch": 64,
          "velocity": 32
        },
        {
          "beat": 0.05624999850988388,
          "duration": 1.443750023841858,
          "pitch": 67,
          "velocity": 35
        },
        {
          "beat": 0.75,
          "duration": 1.25,
          "pitch": 64,
          "velocity": 24
        },
        {
          "beat": 1.25,
          "duration": 0.75,
          "pitch": 60,
          "velocity": 20
        },
        {
          "beat": 1.5,
          "duration": 1.75,
          "pitch": 67,
          "velocity": 35
        },
        {
          "beat": 1.75,
          "duration": 0.25,
          "pitch": 48,
          "velocity": 35
        },
        {
          "beat": 2,
          "duration": 2,
          "pitch": 48,
          "velocity": 47
        },
        {
          "beat": 2,
          "duration": 1.75,
          "pitch": 60,
          "velocity": 35
        },
        {
          "beat": 2,
          "duration": 1.5,
          "pitch": 64,
          "velocity": 32
        },
        {
          "beat": 3.25,
          "duration": 0.75,
          "pitch": 67,
          "velocity": 25
        },
        {
          "beat": 3.5,
          "duration": 0.5,
          "pitch": 64,
          "velocity": 30
        },
        {
          "beat": 3.75,
          "duration": 0.25,
          "pitch": 60,
          "velocity": 20
        }
      ],
      "decodedMidiPath": "rhythm_midi_patterns/decoded_pattern_midis/PianoStudio_63.mid"
    },
    {
      "code": "PianoStudio_64",
      "type": "chord_model_379",
      "subtype": "proller",
      "family": "PianoStudio",
      "version": "0.0.0.0",
      "sizePagesOrUnits": 54,
      "crc32": 3485065328,
      "bpm": 108,
      "bnum": 44,
      "noteCount": 8,
      "notes": [
        {
          "beat": 0,
          "duration": 4,
          "pitch": 48,
          "velocity": 38
        },
        {
          "beat": 0.5,
          "duration": 3.5,
          "pitch": 55,
          "velocity": 25
        },
        {
          "beat": 1,
          "duration": 1.5,
          "pitch": 60,
          "velocity": 36
        },
        {
          "beat": 1.5,
          "duration": 1.5,
          "pitch": 64,
          "velocity": 26
        },
        {
          "beat": 2,
          "duration": 1.5,
          "pitch": 67,
          "velocity": 42
        },
        {
          "beat": 2.5,
          "duration": 1.5,
          "pitch": 60,
          "velocity": 25
        },
        {
          "beat": 3,
          "duration": 1,
          "pitch": 64,
          "velocity": 25
        },
        {
          "beat": 3.5,
          "duration": 0.5,
          "pitch": 67,
          "velocity": 30
        }
      ],
      "decodedMidiPath": "rhythm_midi_patterns/decoded_pattern_midis/PianoStudio_64.mid"
    },
    {
      "code": "PianoStudio_65",
      "type": "chord_model_379",
      "subtype": "proller",
      "family": "PianoStudio",
      "version": "0.0.0.0",
      "sizePagesOrUnits": 70,
      "crc32": 2654676288,
      "bpm": 90,
      "bnum": 44,
      "noteCount": 11,
      "notes": [
        {
          "beat": 0,
          "duration": 4,
          "pitch": 48,
          "velocity": 37
        },
        {
          "beat": 0.25,
          "duration": 3.25,
          "pitch": 55,
          "velocity": 32
        },
        {
          "beat": 0.5,
          "duration": 1,
          "pitch": 60,
          "velocity": 36
        },
        {
          "beat": 0.75,
          "duration": 0.75,
          "pitch": 64,
          "velocity": 36
        },
        {
          "beat": 1.5,
          "duration": 1.75,
          "pitch": 60,
          "velocity": 38
        },
        {
          "beat": 1.5,
          "duration": 1.5,
          "pitch": 64,
          "velocity": 38
        },
        {
          "beat": 1.5,
          "duration": 2.5,
          "pitch": 67,
          "velocity": 31
        },
        {
          "beat": 3,
          "duration": 1,
          "pitch": 64,
          "velocity": 36
        },
        {
          "beat": 3.25,
          "duration": 0.5,
          "pitch": 60,
          "velocity": 29
        },
        {
          "beat": 3.5,
          "duration": 0.5,
          "pitch": 55,
          "velocity": 23
        },
        {
          "beat": 3.75,
          "duration": 0.25,
          "pitch": 60,
          "velocity": 22
        }
      ],
      "decodedMidiPath": "rhythm_midi_patterns/decoded_pattern_midis/PianoStudio_65.mid"
    },
    {
      "code": "PianoStudio_66",
      "type": "chord_model_379",
      "subtype": "proller",
      "family": "PianoStudio",
      "version": "0.0.0.0",
      "sizePagesOrUnits": 102,
      "crc32": 342690660,
      "bpm": 72,
      "bnum": 44,
      "noteCount": 17,
      "notes": [
        {
          "beat": 0,
          "duration": 4,
          "pitch": 48,
          "velocity": 34
        },
        {
          "beat": 0,
          "duration": 1.5,
          "pitch": 55,
          "velocity": 32
        },
        {
          "beat": 0,
          "duration": 1.5,
          "pitch": 60,
          "velocity": 36
        },
        {
          "beat": 0,
          "duration": 1.5,
          "pitch": 64,
          "velocity": 36
        },
        {
          "beat": 0,
          "duration": 1.5,
          "pitch": 67,
          "velocity": 31
        },
        {
          "beat": 1.5,
          "duration": 0.75,
          "pitch": 55,
          "velocity": 18
        },
        {
          "beat": 1.5,
          "duration": 1,
          "pitch": 60,
          "velocity": 22
        },
        {
          "beat": 1.5,
          "duration": 1.25,
          "pitch": 64,
          "velocity": 22
        },
        {
          "beat": 1.5,
          "duration": 2,
          "pitch": 67,
          "velocity": 17
        },
        {
          "beat": 2,
          "duration": 2,
          "pitch": 52,
          "velocity": 38
        },
        {
          "beat": 2.25,
          "duration": 1.25,
          "pitch": 55,
          "velocity": 38
        },
        {
          "beat": 2.5,
          "duration": 1,
          "pitch": 60,
          "velocity": 38
        },
        {
          "beat": 2.75,
          "duration": 0.75,
          "pitch": 64,
          "velocity": 36
        },
        {
          "beat": 3.5,
          "duration": 0.5,
          "pitch": 55,
          "velocity": 18
        },
        {
          "beat": 3.5,
          "duration": 0.5,
          "pitch": 60,
          "velocity": 22
        },
        {
          "beat": 3.5,
          "duration": 0.5,
          "pitch": 64,
          "velocity": 22
        },
        {
          "beat": 3.5,
          "duration": 0.5,
          "pitch": 67,
          "velocity": 17
        }
      ],
      "decodedMidiPath": "rhythm_midi_patterns/decoded_pattern_midis/PianoStudio_66.mid"
    },
    {
      "code": "PianoStudio_68",
      "type": "chord_model_379",
      "subtype": "proller",
      "family": "PianoStudio",
      "version": "0.0.0.0",
      "sizePagesOrUnits": 33,
      "crc32": 2111127451,
      "bpm": 67,
      "bnum": 44,
      "noteCount": 7,
      "notes": [
        {
          "beat": 0,
          "duration": 4,
          "pitch": 48,
          "velocity": 30
        },
        {
          "beat": 0,
          "duration": 2,
          "pitch": 60,
          "velocity": 36
        },
        {
          "beat": 0,
          "duration": 2,
          "pitch": 64,
          "velocity": 45
        },
        {
          "beat": 0,
          "duration": 2,
          "pitch": 67,
          "velocity": 34
        },
        {
          "beat": 2,
          "duration": 2,
          "pitch": 60,
          "velocity": 25
        },
        {
          "beat": 2,
          "duration": 2,
          "pitch": 64,
          "velocity": 36
        },
        {
          "beat": 2,
          "duration": 2,
          "pitch": 67,
          "velocity": 32
        }
      ],
      "decodedMidiPath": "rhythm_midi_patterns/decoded_pattern_midis/PianoStudio_68.mid"
    },
    {
      "code": "PianoStudio_69",
      "type": "chord_model_379",
      "subtype": "proller",
      "family": "PianoStudio",
      "version": "0.0.0.0",
      "sizePagesOrUnits": 39,
      "crc32": 3259860077,
      "bpm": 90,
      "bnum": 86,
      "noteCount": 9,
      "notes": [
        {
          "beat": 0,
          "duration": 1.5,
          "pitch": 48,
          "velocity": 32
        },
        {
          "beat": 0.5,
          "duration": 1,
          "pitch": 55,
          "velocity": 22
        },
        {
          "beat": 1,
          "duration": 0.5,
          "pitch": 60,
          "velocity": 17
        },
        {
          "beat": 1.5,
          "duration": 0.1666666716337204,
          "pitch": 48,
          "velocity": 25
        },
        {
          "beat": 1.5,
          "duration": 0.1666666716337204,
          "pitch": 55,
          "velocity": 15
        },
        {
          "beat": 1.5,
          "duration": 0.1666666716337204,
          "pitch": 60,
          "velocity": 10
        },
        {
          "beat": 1.5,
          "duration": 0.1666666716337204,
          "pitch": 64,
          "velocity": 36
        },
        {
          "beat": 1.5,
          "duration": 0.1666666716337204,
          "pitch": 67,
          "velocity": 42
        },
        {
          "beat": 1.5,
          "duration": 0.1666666716337204,
          "pitch": 72,
          "velocity": 37
        }
      ],
      "decodedMidiPath": "rhythm_midi_patterns/decoded_pattern_midis/PianoStudio_69.mid"
    },
    {
      "code": "PianoStudio_7",
      "type": "chord_model_379",
      "subtype": "proller",
      "family": "PianoStudio",
      "version": "0.0.0.0",
      "sizePagesOrUnits": 49,
      "crc32": 3654909901,
      "bpm": 70,
      "bnum": 86,
      "noteCount": 6,
      "notes": [
        {
          "beat": 0,
          "duration": 2.99791669845581,
          "pitch": 48,
          "velocity": 38
        },
        {
          "beat": 0.49791666865348816,
          "duration": 1.9854166507720947,
          "pitch": 55,
          "velocity": 43
        },
        {
          "beat": 0.9979166388511658,
          "duration": 1,
          "pitch": 60,
          "velocity": 41
        },
        {
          "beat": 1.4979166984558105,
          "duration": 1.5,
          "pitch": 64,
          "velocity": 38
        },
        {
          "beat": 2,
          "duration": 1,
          "pitch": 60,
          "velocity": 38
        },
        {
          "beat": 2.49791669845581,
          "duration": 0.5083333253860474,
          "pitch": 55,
          "velocity": 28
        }
      ],
      "decodedMidiPath": "rhythm_midi_patterns/decoded_pattern_midis/PianoStudio_7.mid"
    },
    {
      "code": "PianoStudio_70",
      "type": "chord_model_379",
      "subtype": "proller",
      "family": "PianoStudio",
      "version": "0.0.0.0",
      "sizePagesOrUnits": 71,
      "crc32": 3272110053,
      "bpm": 90,
      "bnum": 86,
      "noteCount": 21,
      "notes": [
        {
          "beat": 0,
          "duration": 1.5,
          "pitch": 48,
          "velocity": 30
        },
        {
          "beat": 0,
          "duration": 0.1145833358168602,
          "pitch": 64,
          "velocity": 15
        },
        {
          "beat": 0,
          "duration": 0.10833333432674408,
          "pitch": 67,
          "velocity": 24
        },
        {
          "beat": 0,
          "duration": 0.10625000298023224,
          "pitch": 72,
          "velocity": 28
        },
        {
          "beat": 0.5,
          "duration": 0.09375,
          "pitch": 64,
          "velocity": 19
        },
        {
          "beat": 0.5,
          "duration": 0.10208333283662796,
          "pitch": 67,
          "velocity": 29
        },
        {
          "beat": 0.5,
          "duration": 0.09375,
          "pitch": 72,
          "velocity": 24
        },
        {
          "beat": 1,
          "duration": 0.11041666567325592,
          "pitch": 64,
          "velocity": 15
        },
        {
          "beat": 1,
          "duration": 0.1145833358168602,
          "pitch": 67,
          "velocity": 26
        },
        {
          "beat": 1,
          "duration": 0.11041666567325592,
          "pitch": 72,
          "velocity": 23
        },
        {
          "beat": 1.5,
          "duration": 0.1666666716337204,
          "pitch": 48,
          "velocity": 10
        },
        {
          "beat": 1.5,
          "duration": 0.1666666716337204,
          "pitch": 55,
          "velocity": 25
        },
        {
          "beat": 1.5,
          "duration": 0.11041666567325592,
          "pitch": 64,
          "velocity": 29
        },
        {
          "beat": 1.5,
          "duration": 0.11249999701976776,
          "pitch": 67,
          "velocity": 34
        },
        {
          "beat": 1.5,
          "duration": 0.09583333134651184,
          "pitch": 72,
          "velocity": 31
        },
        {
          "beat": 2,
          "duration": 0.09375,
          "pitch": 64,
          "velocity": 19
        },
        {
          "beat": 2,
          "duration": 0.10208333283662796,
          "pitch": 67,
          "velocity": 29
        },
        {
          "beat": 2,
          "duration": 0.09375,
          "pitch": 72,
          "velocity": 24
        },
        {
          "beat": 2.5,
          "duration": 0.11041666567325592,
          "pitch": 64,
          "velocity": 15
        },
        {
          "beat": 2.5,
          "duration": 0.1145833358168602,
          "pitch": 67,
          "velocity": 26
        },
        {
          "beat": 2.5,
          "duration": 0.11041666567325592,
          "pitch": 72,
          "velocity": 23
        }
      ],
      "decodedMidiPath": "rhythm_midi_patterns/decoded_pattern_midis/PianoStudio_70.mid"
    },
    {
      "code": "PianoStudio_71",
      "type": "chord_model_379",
      "subtype": "proller",
      "family": "PianoStudio",
      "version": "0.0.0.0",
      "sizePagesOrUnits": 78,
      "crc32": 3880109805,
      "bpm": 105,
      "bnum": 44,
      "noteCount": 21,
      "notes": [
        {
          "beat": 0.25,
          "duration": 0.1666666716337204,
          "pitch": 52,
          "velocity": 34
        },
        {
          "beat": 0.25,
          "duration": 0.16875000298023224,
          "pitch": 55,
          "velocity": 34
        },
        {
          "beat": 0.25,
          "duration": 0.1666666716337204,
          "pitch": 60,
          "velocity": 33
        },
        {
          "beat": 0.25,
          "duration": 0.1666666716337204,
          "pitch": 64,
          "velocity": 34
        },
        {
          "beat": 0.75,
          "duration": 0.4854166805744171,
          "pitch": 52,
          "velocity": 33
        },
        {
          "beat": 0.75,
          "duration": 0.4833333194255829,
          "pitch": 55,
          "velocity": 33
        },
        {
          "beat": 0.75,
          "duration": 0.4833333194255829,
          "pitch": 60,
          "velocity": 34
        },
        {
          "beat": 0.75,
          "duration": 0.4958333373069763,
          "pitch": 64,
          "velocity": 35
        },
        {
          "beat": 1.25,
          "duration": 0.2666666805744171,
          "pitch": 43,
          "velocity": 28
        },
        {
          "beat": 1.5,
          "duration": 0.17291666567325592,
          "pitch": 52,
          "velocity": 34
        },
        {
          "beat": 1.5,
          "duration": 0.18333333730697632,
          "pitch": 55,
          "velocity": 34
        },
        {
          "beat": 1.5,
          "duration": 0.18125000596046448,
          "pitch": 60,
          "velocity": 31
        },
        {
          "beat": 1.5,
          "duration": 0.1666666716337204,
          "pitch": 64,
          "velocity": 32
        },
        {
          "beat": 2,
          "duration": 1,
          "pitch": 52,
          "velocity": 37
        },
        {
          "beat": 2.02916669845581,
          "duration": 1.2208333015441895,
          "pitch": 55,
          "velocity": 37
        },
        {
          "beat": 2.058333396911621,
          "duration": 1.4416667222976685,
          "pitch": 60,
          "velocity": 37
        },
        {
          "beat": 2.09375,
          "duration": 1.65625,
          "pitch": 64,
          "velocity": 36
        },
        {
          "beat": 3,
          "duration": 1,
          "pitch": 52,
          "velocity": 25
        },
        {
          "beat": 3.25,
          "duration": 0.75,
          "pitch": 55,
          "velocity": 26
        },
        {
          "beat": 3.5,
          "duration": 0.5,
          "pitch": 60,
          "velocity": 26
        },
        {
          "beat": 3.75,
          "duration": 0.25,
          "pitch": 64,
          "velocity": 23
        }
      ],
      "decodedMidiPath": "rhythm_midi_patterns/decoded_pattern_midis/PianoStudio_71.mid"
    },
    {
      "code": "PianoStudio_75",
      "type": "chord_model_379",
      "subtype": "proller",
      "family": "PianoStudio",
      "version": "0.0.0.0",
      "sizePagesOrUnits": 61,
      "crc32": 3681367288,
      "bpm": 99,
      "bnum": 44,
      "noteCount": 14,
      "notes": [
        {
          "beat": 0,
          "duration": 1,
          "pitch": 48,
          "velocity": 28
        },
        {
          "beat": 0,
          "duration": 0.5,
          "pitch": 60,
          "velocity": 33
        },
        {
          "beat": 0.25,
          "duration": 0.75,
          "pitch": 55,
          "velocity": 31
        },
        {
          "beat": 0.5,
          "duration": 0.5,
          "pitch": 60,
          "velocity": 29
        },
        {
          "beat": 0.75,
          "duration": 0.25,
          "pitch": 64,
          "velocity": 36
        },
        {
          "beat": 1.25,
          "duration": 1.5270832777023315,
          "pitch": 55,
          "velocity": 17
        },
        {
          "beat": 1.5,
          "duration": 2.5,
          "pitch": 48,
          "velocity": 26
        },
        {
          "beat": 1.524999976158142,
          "duration": 1.6916667222976685,
          "pitch": 60,
          "velocity": 33
        },
        {
          "beat": 1.5541666746139526,
          "duration": 1.8916666507720947,
          "pitch": 64,
          "velocity": 33
        },
        {
          "beat": 1.5958333015441895,
          "duration": 2.102083444595337,
          "pitch": 67,
          "velocity": 37
        },
        {
          "beat": 3,
          "duration": 1,
          "pitch": 55,
          "velocity": 15
        },
        {
          "beat": 3.25,
          "duration": 0.75,
          "pitch": 60,
          "velocity": 16
        },
        {
          "beat": 3.5,
          "duration": 0.5,
          "pitch": 64,
          "velocity": 33
        },
        {
          "beat": 3.75,
          "duration": 0.25,
          "pitch": 67,
          "velocity": 29
        }
      ],
      "decodedMidiPath": "rhythm_midi_patterns/decoded_pattern_midis/PianoStudio_75.mid"
    },
    {
      "code": "PianoStudio_76",
      "type": "chord_model_379",
      "subtype": "proller",
      "family": "PianoStudio",
      "version": "0.0.0.0",
      "sizePagesOrUnits": 99,
      "crc32": 2071754307,
      "bpm": 93,
      "bnum": 44,
      "noteCount": 31,
      "notes": [
        {
          "beat": 0,
          "duration": 0.37291666865348816,
          "pitch": 60,
          "velocity": 21
        },
        {
          "beat": 0,
          "duration": 0.37291666865348816,
          "pitch": 64,
          "velocity": 26
        },
        {
          "beat": 0,
          "duration": 0.37291666865348816,
          "pitch": 67,
          "velocity": 21
        },
        {
          "beat": 0,
          "duration": 0.37291666865348816,
          "pitch": 72,
          "velocity": 21
        },
        {
          "beat": 0.5,
          "duration": 0.3229166567325592,
          "pitch": 60,
          "velocity": 30
        },
        {
          "beat": 0.5,
          "duration": 0.3229166567325592,
          "pitch": 64,
          "velocity": 34
        },
        {
          "beat": 0.5,
          "duration": 0.3229166567325592,
          "pitch": 67,
          "velocity": 29
        },
        {
          "beat": 0.5,
          "duration": 0.3229166567325592,
          "pitch": 72,
          "velocity": 29
        },
        {
          "beat": 1,
          "duration": 0.2770833373069763,
          "pitch": 43,
          "velocity": 27
        },
        {
          "beat": 1.2604166269302368,
          "duration": 0.4895833432674408,
          "pitch": 60,
          "velocity": 27
        },
        {
          "beat": 1.2604166269302368,
          "duration": 0.4895833432674408,
          "pitch": 64,
          "velocity": 31
        },
        {
          "beat": 1.2604166269302368,
          "duration": 0.44583332538604736,
          "pitch": 67,
          "velocity": 27
        },
        {
          "beat": 1.2604166269302368,
          "duration": 0.44583332538604736,
          "pitch": 72,
          "velocity": 27
        },
        {
          "beat": 1.7604166269302368,
          "duration": 0.2541666626930237,
          "pitch": 60,
          "velocity": 28
        },
        {
          "beat": 1.7604166269302368,
          "duration": 0.2541666626930237,
          "pitch": 64,
          "velocity": 33
        },
        {
          "beat": 1.7604166269302368,
          "duration": 0.23541666567325592,
          "pitch": 67,
          "velocity": 26
        },
        {
          "beat": 1.7604166269302368,
          "duration": 0.23541666567325592,
          "pitch": 72,
          "velocity": 26
        },
        {
          "beat": 2.2604167461395264,
          "duration": 0.4937500059604645,
          "pitch": 60,
          "velocity": 31
        },
        {
          "beat": 2.2604167461395264,
          "duration": 0.4937500059604645,
          "pitch": 64,
          "velocity": 35
        },
        {
          "beat": 2.2604167461395264,
          "duration": 0.4895833432674408,
          "pitch": 67,
          "velocity": 29
        },
        {
          "beat": 2.2604167461395264,
          "duration": 0.4895833432674408,
          "pitch": 72,
          "velocity": 29
        },
        {
          "beat": 3,
          "duration": 0.25,
          "pitch": 43,
          "velocity": 28
        },
        {
          "beat": 3,
          "duration": 0.20416666567325592,
          "pitch": 60,
          "velocity": 31
        },
        {
          "beat": 3,
          "duration": 0.20416666567325592,
          "pitch": 64,
          "velocity": 35
        },
        {
          "beat": 3,
          "duration": 0.21875,
          "pitch": 67,
          "velocity": 33
        },
        {
          "beat": 3,
          "duration": 0.21875,
          "pitch": 72,
          "velocity": 33
        },
        {
          "beat": 3.5,
          "duration": 0.21875,
          "pitch": 43,
          "velocity": 28
        },
        {
          "beat": 3.5,
          "duration": 0.5145833492279053,
          "pitch": 60,
          "velocity": 20
        },
        {
          "beat": 3.5,
          "duration": 0.5145833492279053,
          "pitch": 64,
          "velocity": 24
        },
        {
          "beat": 3.5,
          "duration": 0.5,
          "pitch": 67,
          "velocity": 21
        },
        {
          "beat": 3.5,
          "duration": 0.5,
          "pitch": 72,
          "velocity": 21
        }
      ],
      "decodedMidiPath": "rhythm_midi_patterns/decoded_pattern_midis/PianoStudio_76.mid"
    },
    {
      "code": "PianoStudio_77",
      "type": "chord_model_379",
      "subtype": "proller",
      "family": "PianoStudio",
      "version": "0.0.0.0",
      "sizePagesOrUnits": 55,
      "crc32": 3604896983,
      "bpm": 70,
      "bnum": 44,
      "noteCount": 12,
      "notes": [
        {
          "beat": 0.004166666883975267,
          "duration": 2,
          "pitch": 48,
          "velocity": 20
        },
        {
          "beat": 0.004166666883975267,
          "duration": 1,
          "pitch": 55,
          "velocity": 29
        },
        {
          "beat": 0.03958333283662796,
          "duration": 1.4645832777023315,
          "pitch": 60,
          "velocity": 32
        },
        {
          "beat": 0.06041666492819786,
          "duration": 3.9437499046325684,
          "pitch": 64,
          "velocity": 31
        },
        {
          "beat": 0.12916666269302368,
          "duration": 1.625,
          "pitch": 67,
          "velocity": 38
        },
        {
          "beat": 1.0041667222976685,
          "duration": 1,
          "pitch": 55,
          "velocity": 25
        },
        {
          "beat": 1.5041667222976685,
          "duration": 2,
          "pitch": 60,
          "velocity": 28
        },
        {
          "beat": 1.7541667222976685,
          "duration": 2.25,
          "pitch": 67,
          "velocity": 32
        },
        {
          "beat": 2.004166603088379,
          "duration": 2,
          "pitch": 48,
          "velocity": 20
        },
        {
          "beat": 2.004166603088379,
          "duration": 1,
          "pitch": 55,
          "velocity": 25
        },
        {
          "beat": 3.004166603088379,
          "duration": 1,
          "pitch": 55,
          "velocity": 21
        },
        {
          "beat": 3.504166603088379,
          "duration": 0.5,
          "pitch": 60,
          "velocity": 28
        }
      ],
      "decodedMidiPath": "rhythm_midi_patterns/decoded_pattern_midis/PianoStudio_77.mid"
    },
    {
      "code": "PianoStudio_78",
      "type": "chord_model_379",
      "subtype": "proller",
      "family": "PianoStudio",
      "version": "0.0.0.0",
      "sizePagesOrUnits": 84,
      "crc32": 672464500,
      "bpm": 131,
      "bnum": 44,
      "noteCount": 11,
      "notes": [
        {
          "beat": 0,
          "duration": 0.987500011920929,
          "pitch": 48,
          "velocity": 40
        },
        {
          "beat": 1,
          "duration": 0.737500011920929,
          "pitch": 60,
          "velocity": 46
        },
        {
          "beat": 1,
          "duration": 0.737500011920929,
          "pitch": 64,
          "velocity": 46
        },
        {
          "beat": 1,
          "duration": 0.737500011920929,
          "pitch": 67,
          "velocity": 46
        },
        {
          "beat": 1.75,
          "duration": 0.737500011920929,
          "pitch": 60,
          "velocity": 51
        },
        {
          "beat": 1.75,
          "duration": 0.737500011920929,
          "pitch": 64,
          "velocity": 51
        },
        {
          "beat": 1.75,
          "duration": 0.737500011920929,
          "pitch": 67,
          "velocity": 51
        },
        {
          "beat": 2.5,
          "duration": 0.487500011920929,
          "pitch": 48,
          "velocity": 40
        },
        {
          "beat": 3,
          "duration": 0.987500011920929,
          "pitch": 60,
          "velocity": 40
        },
        {
          "beat": 3,
          "duration": 0.987500011920929,
          "pitch": 64,
          "velocity": 40
        },
        {
          "beat": 3,
          "duration": 0.987500011920929,
          "pitch": 67,
          "velocity": 40
        }
      ],
      "decodedMidiPath": "rhythm_midi_patterns/decoded_pattern_midis/PianoStudio_78.mid"
    },
    {
      "code": "PianoStudio_79",
      "type": "chord_model_379",
      "subtype": "proller",
      "family": "PianoStudio",
      "version": "0.0.0.0",
      "sizePagesOrUnits": 114,
      "crc32": 3304350953,
      "bpm": 128,
      "bnum": 44,
      "noteCount": 18,
      "notes": [
        {
          "beat": 0,
          "duration": 0.2916666567325592,
          "pitch": 48,
          "velocity": 28
        },
        {
          "beat": 0.25,
          "duration": 0.2916666567325592,
          "pitch": 60,
          "velocity": 35
        },
        {
          "beat": 0.25,
          "duration": 0.2916666567325592,
          "pitch": 64,
          "velocity": 45
        },
        {
          "beat": 0.25,
          "duration": 0.2916666567325592,
          "pitch": 67,
          "velocity": 57
        },
        {
          "beat": 0.75,
          "duration": 0.2916666567325592,
          "pitch": 60,
          "velocity": 25
        },
        {
          "beat": 0.75,
          "duration": 0.2916666567325592,
          "pitch": 64,
          "velocity": 35
        },
        {
          "beat": 0.75,
          "duration": 0.2916666567325592,
          "pitch": 67,
          "velocity": 47
        },
        {
          "beat": 1.5,
          "duration": 0.2916666567325592,
          "pitch": 60,
          "velocity": 30
        },
        {
          "beat": 1.5,
          "duration": 0.2916666567325592,
          "pitch": 64,
          "velocity": 40
        },
        {
          "beat": 1.5,
          "duration": 0.2916666567325592,
          "pitch": 67,
          "velocity": 52
        },
        {
          "beat": 2,
          "duration": 0.2916666567325592,
          "pitch": 55,
          "velocity": 25
        },
        {
          "beat": 2.5,
          "duration": 0.2916666567325592,
          "pitch": 60,
          "velocity": 20
        },
        {
          "beat": 2.5,
          "duration": 0.2916666567325592,
          "pitch": 64,
          "velocity": 30
        },
        {
          "beat": 2.5,
          "duration": 0.2916666567325592,
          "pitch": 67,
          "velocity": 42
        },
        {
          "beat": 3,
          "duration": 0.2916666567325592,
          "pitch": 55,
          "velocity": 25
        },
        {
          "beat": 3.5,
          "duration": 0.2916666567325592,
          "pitch": 60,
          "velocity": 20
        },
        {
          "beat": 3.5,
          "duration": 0.2916666567325592,
          "pitch": 64,
          "velocity": 30
        },
        {
          "beat": 3.5,
          "duration": 0.2916666567325592,
          "pitch": 67,
          "velocity": 42
        }
      ],
      "decodedMidiPath": "rhythm_midi_patterns/decoded_pattern_midis/PianoStudio_79.mid"
    },
    {
      "code": "PianoStudio_8",
      "type": "chord_model_379",
      "subtype": "proller",
      "family": "PianoStudio",
      "version": "0.0.0.0",
      "sizePagesOrUnits": 88,
      "crc32": 943497941,
      "bpm": 70,
      "bnum": 44,
      "noteCount": 14,
      "notes": [
        {
          "beat": 0,
          "duration": 4,
          "pitch": 48,
          "velocity": 36
        },
        {
          "beat": 0,
          "duration": 3,
          "pitch": 60,
          "velocity": 24
        },
        {
          "beat": 0,
          "duration": 1,
          "pitch": 64,
          "velocity": 38
        },
        {
          "beat": 0,
          "duration": 1,
          "pitch": 67,
          "velocity": 37
        },
        {
          "beat": 0.5,
          "duration": 1,
          "pitch": 55,
          "velocity": 24
        },
        {
          "beat": 1,
          "duration": 1,
          "pitch": 64,
          "velocity": 26
        },
        {
          "beat": 1,
          "duration": 1,
          "pitch": 67,
          "velocity": 25
        },
        {
          "beat": 1.5,
          "duration": 1.25,
          "pitch": 55,
          "velocity": 16
        },
        {
          "beat": 2,
          "duration": 2,
          "pitch": 64,
          "velocity": 37
        },
        {
          "beat": 2,
          "duration": 1.25,
          "pitch": 67,
          "velocity": 36
        },
        {
          "beat": 2.75,
          "duration": 1.25,
          "pitch": 55,
          "velocity": 22
        },
        {
          "beat": 3,
          "duration": 0.5,
          "pitch": 60,
          "velocity": 36
        },
        {
          "beat": 3.25,
          "duration": 0.75,
          "pitch": 67,
          "velocity": 33
        },
        {
          "beat": 3.5,
          "duration": 0.5,
          "pitch": 60,
          "velocity": 22
        }
      ],
      "decodedMidiPath": "rhythm_midi_patterns/decoded_pattern_midis/PianoStudio_8.mid"
    },
    {
      "code": "PianoStudio_80",
      "type": "chord_model_379",
      "subtype": "proller",
      "family": "PianoStudio",
      "version": "0.0.0.0",
      "sizePagesOrUnits": 61,
      "crc32": 2522789681,
      "bpm": 131,
      "bnum": 43,
      "noteCount": 7,
      "notes": [
        {
          "beat": 0,
          "duration": 3,
          "pitch": 48,
          "velocity": 32
        },
        {
          "beat": 1,
          "duration": 1,
          "pitch": 64,
          "velocity": 24
        },
        {
          "beat": 1,
          "duration": 1,
          "pitch": 67,
          "velocity": 24
        },
        {
          "beat": 1,
          "duration": 1,
          "pitch": 72,
          "velocity": 24
        },
        {
          "beat": 2,
          "duration": 1,
          "pitch": 64,
          "velocity": 36
        },
        {
          "beat": 2,
          "duration": 1,
          "pitch": 67,
          "velocity": 36
        },
        {
          "beat": 2,
          "duration": 1,
          "pitch": 72,
          "velocity": 36
        }
      ],
      "decodedMidiPath": "rhythm_midi_patterns/decoded_pattern_midis/PianoStudio_80.mid"
    },
    {
      "code": "PianoStudio_9",
      "type": "chord_model_379",
      "subtype": "proller",
      "family": "PianoStudio",
      "version": "0.0.0.0",
      "sizePagesOrUnits": 43,
      "crc32": 1496446433,
      "bpm": 67,
      "bnum": 44,
      "noteCount": 9,
      "notes": [
        {
          "beat": 0,
          "duration": 2,
          "pitch": 48,
          "velocity": 31
        },
        {
          "beat": 0,
          "duration": 2,
          "pitch": 60,
          "velocity": 18
        },
        {
          "beat": 0,
          "duration": 2,
          "pitch": 64,
          "velocity": 18
        },
        {
          "beat": 0,
          "duration": 2,
          "pitch": 67,
          "velocity": 29
        },
        {
          "beat": 2,
          "duration": 2,
          "pitch": 48,
          "velocity": 30
        },
        {
          "beat": 2,
          "duration": 2,
          "pitch": 60,
          "velocity": 19
        },
        {
          "beat": 2,
          "duration": 2,
          "pitch": 64,
          "velocity": 26
        },
        {
          "beat": 2,
          "duration": 2,
          "pitch": 67,
          "velocity": 35
        },
        {
          "beat": 3,
          "duration": 1,
          "pitch": 55,
          "velocity": 25
        }
      ],
      "decodedMidiPath": "rhythm_midi_patterns/decoded_pattern_midis/PianoStudio_9.mid"
    },
    {
      "code": "Pop_Chapman_12",
      "type": "dmachine_model",
      "subtype": "proller",
      "family": "Drum",
      "version": "0.0.0.0",
      "sizePagesOrUnits": 19,
      "crc32": 3001943144,
      "bpm": 85,
      "bnum": 44,
      "noteCount": 22,
      "notes": [
        {
          "beat": 0,
          "duration": 0.22291666269302368,
          "pitch": 24,
          "velocity": 93
        },
        {
          "beat": 0.5,
          "duration": 0.22291666269302368,
          "pitch": 31,
          "velocity": 68
        },
        {
          "beat": 0.5,
          "duration": 0.2083333283662796,
          "pitch": 32,
          "velocity": 13
        },
        {
          "beat": 0.975000023841858,
          "duration": 0.2083333283662796,
          "pitch": 32,
          "velocity": 29
        },
        {
          "beat": 1,
          "duration": 0.3333333432674408,
          "pitch": 26,
          "velocity": 66
        },
        {
          "beat": 1,
          "duration": 0.22291666269302368,
          "pitch": 31,
          "velocity": 104
        },
        {
          "beat": 1.4874999523162842,
          "duration": 0.22083333134651184,
          "pitch": 30,
          "velocity": 32
        },
        {
          "beat": 1.5,
          "duration": 0.22291666269302368,
          "pitch": 31,
          "velocity": 67
        },
        {
          "beat": 1.75,
          "duration": 0.24583333730697632,
          "pitch": 38,
          "velocity": 64
        },
        {
          "beat": 2,
          "duration": 0.22291666269302368,
          "pitch": 24,
          "velocity": 38
        },
        {
          "beat": 2,
          "duration": 0.2083333283662796,
          "pitch": 30,
          "velocity": 25
        },
        {
          "beat": 2,
          "duration": 0.22291666269302368,
          "pitch": 31,
          "velocity": 84
        },
        {
          "beat": 2.25,
          "duration": 0.24583333730697632,
          "pitch": 35,
          "velocity": 61
        },
        {
          "beat": 2.5,
          "duration": 0.22291666269302368,
          "pitch": 24,
          "velocity": 30
        },
        {
          "beat": 2.5,
          "duration": 0.2083333283662796,
          "pitch": 30,
          "velocity": 25
        },
        {
          "beat": 2.5,
          "duration": 0.22291666269302368,
          "pitch": 31,
          "velocity": 70
        },
        {
          "beat": 3,
          "duration": 0.2604166567325592,
          "pitch": 26,
          "velocity": 84
        },
        {
          "beat": 3,
          "duration": 0.22291666269302368,
          "pitch": 31,
          "velocity": 101
        },
        {
          "beat": 3,
          "duration": 0.2083333283662796,
          "pitch": 32,
          "velocity": 13
        },
        {
          "beat": 3.4833333492279053,
          "duration": 0.2083333283662796,
          "pitch": 32,
          "velocity": 3
        },
        {
          "beat": 3.5,
          "duration": 0.22291666269302368,
          "pitch": 31,
          "velocity": 66
        },
        {
          "beat": 3.75,
          "duration": 0.774999976158142,
          "pitch": 44,
          "velocity": 15
        }
      ],
      "decodedMidiPath": "rhythm_midi_patterns/decoded_pattern_midis/Pop_Chapman_12.mid"
    },
    {
      "code": "Pop_Chapman_13",
      "type": "dmachine_model",
      "subtype": "proller",
      "family": "Drum",
      "version": "0.0.0.0",
      "sizePagesOrUnits": 14,
      "crc32": 2609993320,
      "bpm": 130,
      "bnum": 44,
      "noteCount": 8,
      "notes": [
        {
          "beat": 0,
          "duration": 0.4833333194255829,
          "pitch": 24,
          "velocity": 47
        },
        {
          "beat": 0,
          "duration": 0.5,
          "pitch": 41,
          "velocity": 51
        },
        {
          "beat": 1,
          "duration": 0.6979166865348816,
          "pitch": 26,
          "velocity": 57
        },
        {
          "beat": 1,
          "duration": 0.25,
          "pitch": 32,
          "velocity": 19
        },
        {
          "beat": 2,
          "duration": 0.675000011920929,
          "pitch": 24,
          "velocity": 53
        },
        {
          "beat": 2,
          "duration": 0.25,
          "pitch": 32,
          "velocity": 19
        },
        {
          "beat": 3,
          "duration": 0.6479166746139526,
          "pitch": 26,
          "velocity": 47
        },
        {
          "beat": 3,
          "duration": 0.25,
          "pitch": 32,
          "velocity": 19
        }
      ],
      "decodedMidiPath": "rhythm_midi_patterns/decoded_pattern_midis/Pop_Chapman_13.mid"
    },
    {
      "code": "Pop_Chapman_14",
      "type": "dmachine_model",
      "subtype": "proller",
      "family": "Drum",
      "version": "0.0.0.0",
      "sizePagesOrUnits": 14,
      "crc32": 3333378460,
      "bpm": 110,
      "bnum": 44,
      "noteCount": 14,
      "notes": [
        {
          "beat": 0,
          "duration": 0.25,
          "pitch": 24,
          "velocity": 65
        },
        {
          "beat": 0,
          "duration": 0.5,
          "pitch": 41,
          "velocity": 51
        },
        {
          "beat": 0.5,
          "duration": 0.25,
          "pitch": 42,
          "velocity": 15
        },
        {
          "beat": 1,
          "duration": 0.25,
          "pitch": 26,
          "velocity": 65
        },
        {
          "beat": 1,
          "duration": 0.25,
          "pitch": 30,
          "velocity": 63
        },
        {
          "beat": 1.5,
          "duration": 0.25,
          "pitch": 37,
          "velocity": 25
        },
        {
          "beat": 1.75,
          "duration": 0.25,
          "pitch": 26,
          "velocity": 45
        },
        {
          "beat": 2,
          "duration": 0.25,
          "pitch": 37,
          "velocity": 25
        },
        {
          "beat": 2.25,
          "duration": 0.25,
          "pitch": 26,
          "velocity": 28
        },
        {
          "beat": 2.5,
          "duration": 0.23541666567325592,
          "pitch": 24,
          "velocity": 43
        },
        {
          "beat": 3,
          "duration": 0.25,
          "pitch": 26,
          "velocity": 65
        },
        {
          "beat": 3,
          "duration": 0.25,
          "pitch": 37,
          "velocity": 11
        },
        {
          "beat": 3.5,
          "duration": 0.25,
          "pitch": 37,
          "velocity": 25
        },
        {
          "beat": 3.75,
          "duration": 0.25,
          "pitch": 26,
          "velocity": 24
        }
      ],
      "decodedMidiPath": "rhythm_midi_patterns/decoded_pattern_midis/Pop_Chapman_14.mid"
    },
    {
      "code": "Pop_Chapman_3",
      "type": "dmachine_model",
      "subtype": "proller",
      "family": "Drum",
      "version": "0.0.0.0",
      "sizePagesOrUnits": 13,
      "crc32": 1265713055,
      "bpm": 85,
      "bnum": 44,
      "noteCount": 8,
      "notes": [
        {
          "beat": 0,
          "duration": 0.762499988079071,
          "pitch": 24,
          "velocity": 92
        },
        {
          "beat": 0,
          "duration": 1.125,
          "pitch": 41,
          "velocity": 51
        },
        {
          "beat": 1,
          "duration": 0.6979166865348816,
          "pitch": 26,
          "velocity": 98
        },
        {
          "beat": 1,
          "duration": 0.7270833253860474,
          "pitch": 30,
          "velocity": 88
        },
        {
          "beat": 2,
          "duration": 0.675000011920929,
          "pitch": 24,
          "velocity": 95
        },
        {
          "beat": 2,
          "duration": 0.293749988079071,
          "pitch": 30,
          "velocity": 63
        },
        {
          "beat": 3,
          "duration": 0.6479166746139526,
          "pitch": 26,
          "velocity": 95
        },
        {
          "beat": 3,
          "duration": 0.693750023841858,
          "pitch": 30,
          "velocity": 94
        }
      ],
      "decodedMidiPath": "rhythm_midi_patterns/decoded_pattern_midis/Pop_Chapman_3.mid"
    },
    {
      "code": "Pop_Chapman_4",
      "type": "dmachine_model",
      "subtype": "proller",
      "family": "Drum",
      "version": "0.0.0.0",
      "sizePagesOrUnits": 14,
      "crc32": 2450175810,
      "bpm": 85,
      "bnum": 44,
      "noteCount": 12,
      "notes": [
        {
          "beat": 0,
          "duration": 0.762499988079071,
          "pitch": 24,
          "velocity": 92
        },
        {
          "beat": 0,
          "duration": 1.125,
          "pitch": 41,
          "velocity": 64
        },
        {
          "beat": 0.5,
          "duration": 0.24791666865348816,
          "pitch": 30,
          "velocity": 56
        },
        {
          "beat": 1,
          "duration": 0.6979166865348816,
          "pitch": 26,
          "velocity": 98
        },
        {
          "beat": 1,
          "duration": 0.34166666865348816,
          "pitch": 30,
          "velocity": 89
        },
        {
          "beat": 1.5,
          "duration": 0.3083333373069763,
          "pitch": 30,
          "velocity": 48
        },
        {
          "beat": 2,
          "duration": 0.675000011920929,
          "pitch": 24,
          "velocity": 95
        },
        {
          "beat": 2,
          "duration": 0.4166666567325592,
          "pitch": 30,
          "velocity": 81
        },
        {
          "beat": 2.5,
          "duration": 0.24791666865348816,
          "pitch": 30,
          "velocity": 56
        },
        {
          "beat": 3,
          "duration": 0.6479166746139526,
          "pitch": 26,
          "velocity": 95
        },
        {
          "beat": 3,
          "duration": 0.34375,
          "pitch": 30,
          "velocity": 82
        },
        {
          "beat": 3.5,
          "duration": 0.3083333373069763,
          "pitch": 30,
          "velocity": 48
        }
      ],
      "decodedMidiPath": "rhythm_midi_patterns/decoded_pattern_midis/Pop_Chapman_4.mid"
    },
    {
      "code": "Pop_Chapman_5",
      "type": "dmachine_model",
      "subtype": "proller",
      "family": "Drum",
      "version": "0.0.0.0",
      "sizePagesOrUnits": 16,
      "crc32": 2722968721,
      "bpm": 85,
      "bnum": 44,
      "noteCount": 20,
      "notes": [
        {
          "beat": 0,
          "duration": 0.762499988079071,
          "pitch": 24,
          "velocity": 92
        },
        {
          "beat": 0,
          "duration": 1.125,
          "pitch": 41,
          "velocity": 64
        },
        {
          "beat": 0.25,
          "duration": 0.18125000596046448,
          "pitch": 30,
          "velocity": 50
        },
        {
          "beat": 0.5,
          "duration": 0.18125000596046448,
          "pitch": 30,
          "velocity": 50
        },
        {
          "beat": 0.75,
          "duration": 0.15208333730697632,
          "pitch": 30,
          "velocity": 43
        },
        {
          "beat": 1,
          "duration": 0.6979166865348816,
          "pitch": 26,
          "velocity": 98
        },
        {
          "beat": 1,
          "duration": 0.21666666865348816,
          "pitch": 30,
          "velocity": 78
        },
        {
          "beat": 1.25,
          "duration": 0.18125000596046448,
          "pitch": 30,
          "velocity": 50
        },
        {
          "beat": 1.5,
          "duration": 0.23333333432674408,
          "pitch": 30,
          "velocity": 43
        },
        {
          "beat": 1.75,
          "duration": 0.18125000596046448,
          "pitch": 30,
          "velocity": 67
        },
        {
          "beat": 2,
          "duration": 0.675000011920929,
          "pitch": 24,
          "velocity": 95
        },
        {
          "beat": 2,
          "duration": 0.21666666865348816,
          "pitch": 30,
          "velocity": 51
        },
        {
          "beat": 2.25,
          "duration": 0.18125000596046448,
          "pitch": 30,
          "velocity": 66
        },
        {
          "beat": 2.5,
          "duration": 0.23333333432674408,
          "pitch": 30,
          "velocity": 43
        },
        {
          "beat": 2.75,
          "duration": 0.18125000596046448,
          "pitch": 30,
          "velocity": 50
        },
        {
          "beat": 3,
          "duration": 0.6479166746139526,
          "pitch": 26,
          "velocity": 95
        },
        {
          "beat": 3,
          "duration": 0.1979166716337204,
          "pitch": 30,
          "velocity": 71
        },
        {
          "beat": 3.25,
          "duration": 0.23333333432674408,
          "pitch": 30,
          "velocity": 43
        },
        {
          "beat": 3.5,
          "duration": 0.21458333730697632,
          "pitch": 30,
          "velocity": 62
        },
        {
          "beat": 3.75,
          "duration": 0.19583334028720856,
          "pitch": 30,
          "velocity": 39
        }
      ],
      "decodedMidiPath": "rhythm_midi_patterns/decoded_pattern_midis/Pop_Chapman_5.mid"
    },
    {
      "code": "Pop_Chapman_6",
      "type": "dmachine_model",
      "subtype": "proller",
      "family": "Drum",
      "version": "0.0.0.0",
      "sizePagesOrUnits": 11,
      "crc32": 3015041211,
      "bpm": 115,
      "bnum": 43,
      "noteCount": 8,
      "notes": [
        {
          "beat": 0,
          "duration": 0.837499976158142,
          "pitch": 24,
          "velocity": 100
        },
        {
          "beat": 0,
          "duration": 0.25,
          "pitch": 32,
          "velocity": 1
        },
        {
          "beat": 0,
          "duration": 0.912500023841858,
          "pitch": 41,
          "velocity": 61
        },
        {
          "beat": 1,
          "duration": 0.4583333432674408,
          "pitch": 30,
          "velocity": 46
        },
        {
          "beat": 2,
          "duration": 0.5333333611488342,
          "pitch": 26,
          "velocity": 99
        },
        {
          "beat": 2,
          "duration": 0.5104166865348816,
          "pitch": 30,
          "velocity": 58
        },
        {
          "beat": 3,
          "duration": 0.8729166388511658,
          "pitch": 24,
          "velocity": 106
        },
        {
          "beat": 3,
          "duration": 0.40416666865348816,
          "pitch": 30,
          "velocity": 41
        }
      ],
      "decodedMidiPath": "rhythm_midi_patterns/decoded_pattern_midis/Pop_Chapman_6.mid"
    },
    {
      "code": "Pop_Chapman_7",
      "type": "dmachine_model",
      "subtype": "proller",
      "family": "Drum",
      "version": "0.0.0.0",
      "sizePagesOrUnits": 11,
      "crc32": 3807127600,
      "bpm": 86,
      "bnum": 86,
      "noteCount": 4,
      "notes": [
        {
          "beat": 0,
          "duration": 1.5,
          "pitch": 24,
          "velocity": 103
        },
        {
          "beat": 1.5,
          "duration": 1,
          "pitch": 29,
          "velocity": 96
        },
        {
          "beat": 2.5,
          "duration": 0.5,
          "pitch": 24,
          "velocity": 98
        },
        {
          "beat": 3,
          "duration": 1.5,
          "pitch": 24,
          "velocity": 110
        }
      ],
      "decodedMidiPath": "rhythm_midi_patterns/decoded_pattern_midis/Pop_Chapman_7.mid"
    },
    {
      "code": "Pop_Chapman_8",
      "type": "dmachine_model",
      "subtype": "proller",
      "family": "Drum",
      "version": "0.0.0.0",
      "sizePagesOrUnits": 12,
      "crc32": 788669551,
      "bpm": 115,
      "bnum": 43,
      "noteCount": 9,
      "notes": [
        {
          "beat": 0,
          "duration": 0.837499976158142,
          "pitch": 24,
          "velocity": 100
        },
        {
          "beat": 0,
          "duration": 0.25,
          "pitch": 32,
          "velocity": 1
        },
        {
          "beat": 0,
          "duration": 0.912500023841858,
          "pitch": 41,
          "velocity": 61
        },
        {
          "beat": 1,
          "duration": 0.5333333611488342,
          "pitch": 26,
          "velocity": 52
        },
        {
          "beat": 1,
          "duration": 0.4583333432674408,
          "pitch": 30,
          "velocity": 50
        },
        {
          "beat": 2,
          "duration": 0.5333333611488342,
          "pitch": 26,
          "velocity": 99
        },
        {
          "beat": 2,
          "duration": 0.5104166865348816,
          "pitch": 30,
          "velocity": 62
        },
        {
          "beat": 3,
          "duration": 0.8729166388511658,
          "pitch": 24,
          "velocity": 106
        },
        {
          "beat": 3,
          "duration": 0.40416666865348816,
          "pitch": 30,
          "velocity": 45
        }
      ],
      "decodedMidiPath": "rhythm_midi_patterns/decoded_pattern_midis/Pop_Chapman_8.mid"
    },
    {
      "code": "Pop_Chapman_9",
      "type": "dmachine_model",
      "subtype": "proller",
      "family": "Drum",
      "version": "0.0.0.0",
      "sizePagesOrUnits": 12,
      "crc32": 2566794192,
      "bpm": 86,
      "bnum": 86,
      "noteCount": 11,
      "notes": [
        {
          "beat": 0,
          "duration": 1.5,
          "pitch": 24,
          "velocity": 103
        },
        {
          "beat": 0,
          "duration": 1.1604167222976685,
          "pitch": 45,
          "velocity": 52
        },
        {
          "beat": 0.5,
          "duration": 0.375,
          "pitch": 30,
          "velocity": 51
        },
        {
          "beat": 1,
          "duration": 0.375,
          "pitch": 30,
          "velocity": 31
        },
        {
          "beat": 1.5,
          "duration": 1,
          "pitch": 26,
          "velocity": 96
        },
        {
          "beat": 1.5,
          "duration": 0.375,
          "pitch": 30,
          "velocity": 51
        },
        {
          "beat": 2,
          "duration": 0.375,
          "pitch": 30,
          "velocity": 31
        },
        {
          "beat": 2.5,
          "duration": 0.375,
          "pitch": 30,
          "velocity": 51
        },
        {
          "beat": 3,
          "duration": 1.5,
          "pitch": 24,
          "velocity": 110
        },
        {
          "beat": 3,
          "duration": 0.375,
          "pitch": 30,
          "velocity": 31
        },
        {
          "beat": 3.5,
          "duration": 0.375,
          "pitch": 30,
          "velocity": 51
        }
      ],
      "decodedMidiPath": "rhythm_midi_patterns/decoded_pattern_midis/Pop_Chapman_9.mid"
    }
  ]
}